<svg id="Layer_1" data-name="Layer 1" xmlns="http://www.w3.org/2000/svg" viewBox="0 0 500 500"><defs><style>.cls-1{fill:#fff;}</style></defs><path class="cls-1" d="M500,500H0V0H500ZM106.15,216.67h.06c0,4.38-.09,8.75,0,13.12.17,6.33.48,12.65.75,19,.44,10.19.81,20.39,1.36,30.58.42,7.9.82,15.81,1.66,23.67,1.28,11.88,3,23.7,3.14,35.69A51,51,0,0,0,116.79,358a38.48,38.48,0,0,0,5.59,9.22,13.07,13.07,0,0,0,6,4.23,43.22,43.22,0,0,0,10.9,2.58,31,31,0,0,0,15.33-2.57c3.28-1.49,6.44-3.26,9.66-4.91,1.47-.76,2.94-1.55,4.4-2.34,3-1.59,6-3.1,8.87-4.8,3.55-2.09,7-4.32,10.49-6.52,5-3.17,10.16-6.19,15-9.6a175.1,175.1,0,0,1,23.19-13.72,8.63,8.63,0,0,1,1.26-.53,3.67,3.67,0,0,1,4.76,1.87c.32.58.63,1.17,1,1.73,1.64,2.66,3.34,5.27,4.93,8,2.24,3.79,4.38,7.63,6.6,11.44,1.53,2.62,3.12,5.2,4.69,7.8l8.83,14.61c2.28,3.78,4.54,7.56,6.84,11.32q3.69,6,7.43,12c1.36,2.19,2.79,4.34,4.12,6.55,2.27,3.77,4.46,7.59,6.71,11.38q2.37,4,4.81,7.88,3.31,5.36,6.66,10.68,2.71,4.32,5.46,8.63c1.57,2.45,3.11,4.91,4.73,7.32,1.39,2.07,2.92,4.05,4.32,6.11,3.11,4.62,6,9.39,9.32,13.86,4.84,6.51,10.76,11.78,18.6,14.56a34.37,34.37,0,0,0,25.7-.81c2.72-1.14,5.42-2.34,8.11-3.57,2.91-1.32,6-2.39,8.65-4.12A32.91,32.91,0,0,0,393.55,458a34.91,34.91,0,0,0-1.4-24.91c-2.18-5-5.17-9.66-7.85-14.44-1.64-2.94-3.39-5.82-5.09-8.73-1.55-2.66-3-5.35-4.65-8-2.14-3.51-4.41-6.94-6.54-10.47-2.9-4.8-5.66-9.69-8.58-14.48-3.49-5.71-7.07-11.37-10.62-17-2.56-4.08-5.16-8.15-7.72-12.23-1.39-2.22-2.73-4.48-4.09-6.72-2.15-3.55-4.27-7.13-6.46-10.66s-4.59-7.24-6.92-10.83-4.7-7.15-7-10.73c-2.14-3.28-4.33-6.52-6.34-9.86-1.41-2.35-2.6-4.83-3.82-7.29-1-2-1.86-4-2.76-6a1.72,1.72,0,0,1,.73-2.37c.46-.29.89-.63,1.35-.92,3.67-2.28,7.38-4.5,11-6.85,5-3.25,10.11-6.43,14.93-10,5.5-4,10.82-8.31,16.07-12.66A131.61,131.61,0,0,0,368.16,232a36.93,36.93,0,0,0,7.45-15.62c2.16-11.21-1-20.86-8.73-29-3-3.16-6.34-6-9.62-8.9q-9.33-8.22-18.76-16.31c-5.23-4.51-10.53-8.94-15.77-13.45-6.16-5.29-12.26-10.64-18.44-15.91-5.48-4.67-11-9.26-16.55-13.88-8.06-6.77-16.1-13.58-24.2-20.3-6-5-12.05-9.86-18.1-14.76Q239,78.6,232.49,73.44c-6.09-4.85-12.21-9.65-18.28-14.52C210,55.54,205.86,52,201.62,48.68q-7.31-5.76-14.75-11.33c-2.26-1.69-4.62-3.26-7-4.77-2.73-1.75-5.47-3.5-8.33-5-3.16-1.66-6.42-3.16-9.72-4.51a45.65,45.65,0,0,0-11-2.63,44.81,44.81,0,0,0-17.5.58A36.05,36.05,0,0,0,115.5,31.54a40.46,40.46,0,0,0-10.23,21.15c-1.33,7.56-1.15,15.2-1.17,22.81q-.15,44.63,0,89.25c0,4.95.19,9.91.44,14.86.23,4.65.77,9.3,1,13.95C105.78,201.26,105.93,209,106.15,216.67Z" transform="translate(0 0)"/><path d="M106.15,216.67c-.22-7.7-.37-15.41-.68-23.11-.2-4.65-.74-9.3-1-13.95-.25-5-.44-9.91-.44-14.86q-.06-44.62,0-89.25c0-7.61-.16-15.25,1.17-22.81A40.46,40.46,0,0,1,115.5,31.54,36.05,36.05,0,0,1,133.29,21a44.81,44.81,0,0,1,17.5-.58,45.65,45.65,0,0,1,11,2.63c3.3,1.35,6.56,2.85,9.72,4.51,2.86,1.51,5.6,3.26,8.33,5,2.39,1.51,4.75,3.08,7,4.77q7.44,5.58,14.75,11.33c4.24,3.35,8.37,6.86,12.59,10.24,6.07,4.87,12.19,9.67,18.28,14.52q6.49,5.18,12.95,10.38c6.05,4.9,12.11,9.79,18.1,14.76,8.1,6.72,16.14,13.53,24.2,20.3,5.52,4.62,11.07,9.21,16.55,13.88,6.18,5.27,12.28,10.62,18.44,15.91,5.24,4.51,10.54,8.94,15.77,13.45q9.42,8.12,18.76,16.31c3.28,2.89,6.61,5.74,9.62,8.9,7.77,8.16,10.89,17.81,8.73,29A36.93,36.93,0,0,1,368.16,232a131.61,131.61,0,0,1-20.4,20.87c-5.25,4.35-10.57,8.63-16.07,12.66-4.82,3.54-9.91,6.72-14.93,10-3.63,2.35-7.34,4.57-11,6.85-.46.29-.89.63-1.35.92a1.72,1.72,0,0,0-.73,2.37c.9,2,1.78,4,2.76,6,1.22,2.46,2.41,4.94,3.82,7.29,2,3.34,4.2,6.58,6.34,9.86,2.34,3.58,4.71,7.14,7,10.73s4.65,7.19,6.92,10.83,4.31,7.11,6.46,10.66c1.36,2.24,2.7,4.5,4.09,6.72,2.56,4.08,5.16,8.15,7.72,12.23,3.55,5.67,7.13,11.33,10.62,17,2.92,4.79,5.68,9.68,8.58,14.48,2.13,3.53,4.4,7,6.54,10.47,1.61,2.63,3.1,5.32,4.65,8,1.7,2.91,3.45,5.79,5.09,8.73,2.68,4.78,5.67,9.44,7.85,14.44a34.91,34.91,0,0,1,1.4,24.91,32.91,32.91,0,0,1-13.84,18.2c-2.65,1.73-5.74,2.8-8.65,4.12-2.69,1.23-5.39,2.43-8.11,3.57a34.37,34.37,0,0,1-25.7.81c-7.84-2.78-13.76-8.05-18.6-14.56-3.31-4.47-6.21-9.24-9.32-13.86-1.4-2.06-2.93-4-4.32-6.11-1.62-2.41-3.16-4.87-4.73-7.32q-2.75-4.31-5.46-8.63-3.35-5.32-6.66-10.68-2.43-3.93-4.81-7.88c-2.25-3.79-4.44-7.61-6.71-11.38-1.33-2.21-2.76-4.36-4.12-6.55q-3.74-6-7.43-12c-2.3-3.76-4.56-7.54-6.84-11.32l-8.83-14.61c-1.57-2.6-3.16-5.18-4.69-7.8-2.22-3.81-4.36-7.65-6.6-11.44-1.59-2.69-3.29-5.3-4.93-8-.35-.56-.66-1.15-1-1.73a3.67,3.67,0,0,0-4.76-1.87,8.63,8.63,0,0,0-1.26.53A175.1,175.1,0,0,0,203,343.24c-4.87,3.41-10,6.43-15,9.6-3.48,2.2-6.94,4.43-10.49,6.52-2.89,1.7-5.9,3.21-8.87,4.8-1.46.79-2.93,1.58-4.4,2.34-3.22,1.65-6.38,3.42-9.66,4.91A31,31,0,0,1,139.23,374a43.22,43.22,0,0,1-10.9-2.58,13.07,13.07,0,0,1-6-4.23,38.48,38.48,0,0,1-5.59-9.22,51,51,0,0,1-3.65-19.25c-.15-12-1.86-23.81-3.14-35.69-.84-7.86-1.24-15.77-1.66-23.67-.55-10.19-.92-20.39-1.36-30.58-.27-6.32-.58-12.64-.75-19-.11-4.37,0-8.74,0-13.12Z" transform="translate(0 0)"/></svg>