<svg id="Layer_1" data-name="Layer 1" xmlns="http://www.w3.org/2000/svg" viewBox="0 0 2999 1283"><defs><style>.cls-1{fill:#fefefe;}.cls-2{fill:#080705;}.cls-3{fill:#090b06;}.cls-4{fill:#090702;}.cls-5{fill:#cb6500;}.cls-6{fill:#65cafd;}.cls-7{fill:#339833;}.cls-8{fill:#fbfbfb;}.cls-9{fill:#fcfc00;}.cls-10{fill:#c8c8c8;}.cls-11{fill:#c6c6c6;}.cls-12{fill:#f7f7f7;}.cls-13{fill:#ca6500;}.cls-14{fill:#fdfd00;}.cls-15{fill:#fdfdfd;}</style></defs><path class="cls-1" d="M2998.9,1424.93q0,92.25.1,184.48c0,3.75-.85,4.59-4.6,4.59q-1497.15-.15-2994.31-.09Q.09,974.74,0,335.59C0,331.85.84,331,4.59,331q1494.92.15,2989.81,0c3.75,0,4.6.84,4.6,4.59q-.15,539.67-.1,1079.35a425.25,425.25,0,0,0-43.82-3c-31.1-.46-61.7,4.36-92.23,9.59-7,1.2-6.94,1.39-6.94-5.84q0-428.43.13-856.84c0-4.89-1.21-5.86-5.95-5.86q-649.17.19-1298.36,0c-4.86,0-5.85,1.16-5.85,5.92q.19,427.41.12,854.84a29,29,0,0,0,0,3.49c.3,2.6-.37,3.76-3.38,3.89a85.14,85.14,0,0,0-18.18,3.07c-3.15.85-5.5,3-4.48,6.62,1,3.5,3.84,3.64,6.9,3,4.55-.94,9.1-2.38,13.7-2.6,29.21-1.41,58.2,0,86.92,6.32,23.35,5.14,44.89,14.45,65.75,25.78,24.2,13.14,48,26.85,68.26,45.8a196,196,0,0,1,19.52,20.71c1.85,2.3,4.37,3.4,7,1.47,2.88-2.11,2.45-5,.58-7.5a92.17,92.17,0,0,0-6.64-8.12c-4.2-4.53-8.57-8.91-13.53-14,28,4,51.75,14.64,72.26,32.5,3.14,2.74,6,5.84,9,8.63,2.17,2,4.77,2.77,7.16.5s1.76-4.83-.12-7.16c-.83-1-1.81-1.95-2.74-2.91-10.73-11.06-23.21-19.76-36.88-26.93,8.35-8.74,41.1-18.58,62.7-19.15,28.55-.76,55.07,5.31,78.89,23.15-2.71,1.2-4.93,2.16-7.13,3.18-2.93,1.35-5.47,3.26-4.09,6.87,1.52,4,4.85,3.45,8,2.14s6.12-2.63,9.07-4.16c36.45-18.9,74.79-23.56,114.9-15.55a141.1,141.1,0,0,1,61.35,28.74c2.77,2.22,6,3.94,8.69.26,2.46-3.39.13-6-2.62-7.93-5.71-4.08-10.58-9-17.11-12.38-10.41-5.31-20.82-10.38-31.85-14.22-1.15-.4-2.74-.13-3.29-2,12.5-6.74,25.55-12.22,39.47-15.1,40.67-8.4,81.71-11.58,123.13-7,20.39,2.27,40.53,5.79,59.64,13.69,4.85,2,9.74,4,14.56,7.54-13.63,3.53-26.44,7.17-38.93,12.19-18.57,7.45-35.49,17.5-51.72,29a25.1,25.1,0,0,0-3.07,2.56c-2.15,2.1-3,4.57-.89,7.09,1.92,2.32,4.37,2.06,6.74.56,1-.63,1.89-1.37,2.83-2.06a220.07,220.07,0,0,1,60.64-32.14c31.45-10.63,63.63-15.38,96.88-10.75,20.79,2.89,40.53,8.58,58.5,19.68,2.91,1.79,6.06,2.94,8.35-.54s-.23-5.9-3-7.75c-2.33-1.55-4.78-2.92-7.52-4.56,6.78-4.9,14-7.83,21.22-10.71,25.25-10,52-12.45,78.62-15.24.39,0,.82.38,1.23.58-.43,0-1.16.2-1.23.06-.39-.81.1-1.2.87-1.2,8,0,15.94-.24,23.95.62,42.45,4.57,78.6,22.59,110,51a21.07,21.07,0,0,0,2.67,2.25,4.42,4.42,0,0,0,5.94-.49,4.26,4.26,0,0,0,.56-5.91,24.92,24.92,0,0,0-4.66-5.16c-2.55-2-2.47-3.54-.41-6a189.38,189.38,0,0,1,42.89-38c59.16-37.83,125.18-52.87,194.2-57.29C2957.09,1420.82,2978.05,1422.35,2998.9,1424.93ZM144.07,922q0,182-.1,363.93c0,4.45,1,5.7,5.62,5.7q362.46-.2,724.91,0c5.39,0,6.44-1.45,6.44-6.52q-.2-363.18,0-726.35c0-4.94-1.3-5.85-6-5.85q-362.72.19-725.41,0c-4.6,0-5.58,1.18-5.58,5.63Q144.16,740.32,144.07,922Zm868-102.9q0,130.95-.11,261.9c0,4.2,1,5.08,5.14,5.07q195.95-.18,391.88,0c5.16,0,6.06-1.45,6.06-6.28q-.21-260.14-.12-520.29c0-6.5,0-6.5-6.64-6.5q-195.45,0-390.88-.1c-4.19,0-5.46.72-5.46,5.28Q1012.15,688.67,1012,819.12Zm-959.22,548c-1.66.25-3.66.42-5.59.87-2.93.68-4.89,2.45-4.34,5.67s3,4.23,6,3.84a23.21,23.21,0,0,1,7-.14,174.64,174.64,0,0,1,35.44,10.09c37.32,15,68,39.36,96.75,66.87,21.37,20.45,36.82,44.08,44.09,72.86a18.36,18.36,0,0,0,1.13,3.3c1.25,2.72,3.28,4.42,6.35,3.32,2.74-1,3.58-3.3,2.91-6.11-.27-1.13-.59-2.25-.93-3.36a212.61,212.61,0,0,0-11.4-30.86c-1.21-2.56-1.19-3.84,2-4.32,9.44-1.44,19-2.35,28.37-.68,40.86,7.27,77.43,23,105.17,55.31,1.95,2.27,4.15,4.33,6.28,6.44a14.65,14.65,0,0,0,2.7,2.21c2,1.23,4.15,1.33,6-.36,1.66-1.52,2.22-3.71.94-5.43-2.57-3.46-.06-4.23,2.32-5.1a27.14,27.14,0,0,1,5.74-1.62c19.17-2.54,38.32-.77,57.22,1.81,24.25,3.31,45.95,14.13,66.94,26.3,3.28,1.91,7.21,5.68,10.32.62s-1.89-6.89-5.14-9c-37.65-24.24-79.31-32.53-123.43-30.64-6.82.29-13.65,1.61-19.49,5.49-2.86,1.91-4.47,1.29-6.71-.94-10.53-10.45-21.33-20.59-33.77-28.82-17.1-11.31-36.67-16.28-55.91-22.16-15.22-4.65-30.85-6.83-46.31-3.27-8.58,2-11.68-1.55-16.47-7.31-32.09-38.61-69.55-70.66-115.92-91.21A166.58,166.58,0,0,0,52.8,1367.08Zm748.28,31.61-4.54,3.43c-1.2.9-2.41,1.78-3.58,2.72-2.54,2.05-4.41,4.52-2.13,7.67s5.22,2.19,7.91.31c1.91-1.33,3.75-2.77,5.62-4.16q49.29-36.78,110.78-36.6c24.56.07,48.83,2.41,72.68,8.53,3.39.87,6.89,1.54,10.33.23,2.38-.9,4-2.7,3.57-5.36s-2.3-3.92-5-4a22.4,22.4,0,0,1-4.93-.19c-15.67-4.08-31.62-6.28-47.71-7.81a252.46,252.46,0,0,0-66.19,2c-21.72,3.65-41.86,11.87-60.88,22.9-1.78,1-3.36,2.52-5.93,1.91-4-1-8.2-1.33-12.29-2.09-24.82-4.65-49.72-7.45-74.91-3.26a144.41,144.41,0,0,0-37,11.76c-2.24,1-4,2.4-4.11,5.12a4.21,4.21,0,0,0,2.87,4.26c2.19.86,4.24.12,6.24-.83C727,1388.54,763.26,1391.18,801.08,1398.69Z" transform="translate(0 -331)"/><path class="cls-2" d="M2998.9,1424.93c-20.85-2.58-41.81-4.11-62.77-2.77-69,4.42-135,19.46-194.2,57.29a189.38,189.38,0,0,0-42.89,38c-2.06,2.45-2.14,4,.41,6a24.92,24.92,0,0,1,4.66,5.16,4.26,4.26,0,0,1-.56,5.91,4.42,4.42,0,0,1-5.94.49,21.07,21.07,0,0,1-2.67-2.25c-31.39-28.36-67.54-46.38-110-51-8-.86-16-.59-23.95-.62-.77,0-1.26.39-.87,1.2.07.14.8,0,1.23-.06-.41-.2-.84-.62-1.23-.58-26.65,2.79-53.37,5.2-78.62,15.24-7.24,2.88-14.44,5.81-21.22,10.71,2.74,1.64,5.19,3,7.52,4.56,2.78,1.85,5.36,4.17,3,7.75s-5.44,2.33-8.35.54c-18-11.1-37.71-16.79-58.5-19.68-33.25-4.63-65.43.12-96.88,10.75a220.07,220.07,0,0,0-60.64,32.14c-.94.69-1.84,1.43-2.83,2.06-2.37,1.5-4.82,1.76-6.74-.56-2.09-2.52-1.26-5,.89-7.09a25.1,25.1,0,0,1,3.07-2.56c16.23-11.45,33.15-21.5,51.72-29,12.49-5,25.3-8.66,38.93-12.19-4.82-3.58-9.71-5.53-14.56-7.54-19.11-7.9-39.25-11.42-59.64-13.69-41.42-4.62-82.46-1.44-123.13,7-13.92,2.88-27,8.36-39.47,15.1.55,1.82,2.14,1.55,3.29,2,11,3.84,21.44,8.91,31.85,14.22,6.53,3.34,11.4,8.3,17.11,12.38,2.75,2,5.08,4.54,2.62,7.93-2.68,3.68-5.92,2-8.69-.26a141.1,141.1,0,0,0-61.35-28.74c-40.11-8-78.45-3.35-114.9,15.55-2.95,1.53-6,2.89-9.07,4.16s-6.48,1.81-8-2.14c-1.38-3.61,1.16-5.52,4.09-6.87,2.2-1,4.42-2,7.13-3.18-23.82-17.84-50.34-23.91-78.89-23.15-21.6.57-54.35,10.41-62.7,19.15,13.67,7.17,26.15,15.87,36.88,26.93.93,1,1.91,1.88,2.74,2.91,1.88,2.33,2.5,4.9.12,7.16s-5,1.47-7.16-.5c-3.09-2.79-5.9-5.89-9-8.63-20.51-17.86-44.29-28.55-72.26-32.5,5,5.13,9.33,9.51,13.53,14a92.17,92.17,0,0,1,6.64,8.12c1.87,2.55,2.3,5.39-.58,7.5-2.65,1.93-5.17.83-7-1.47a196,196,0,0,0-19.52-20.71c-20.3-18.95-44.06-32.66-68.26-45.8-20.86-11.33-42.4-20.64-65.75-25.78-28.72-6.32-57.71-7.73-86.92-6.32-4.6.22-9.15,1.66-13.7,2.6-3.06.64-5.92.5-6.9-3-1-3.66,1.33-5.77,4.48-6.62a85.14,85.14,0,0,1,18.18-3.07c3-.13,3.68-1.29,3.38-3.89a29,29,0,0,1,0-3.49q0-427.43-.12-854.84c0-4.76,1-5.93,5.85-5.92q649.18.19,1298.36,0c4.74,0,5.95,1,5.95,5.86q-.21,428.42-.13,856.84c0,7.23,0,7,6.94,5.84,30.53-5.23,61.13-10,92.23-9.59a425.25,425.25,0,0,1,43.82,3ZM1934.82,1309.7c-1.43-1.27-3.18-.71-4.79-.73-7.49-.06-15,0-22.47,0-12-.05-24,.44-35.9-1.13-5.45-.72-8.71,1.7-11.43,6-5.15,8.17-6.54,17.3-7.35,26.62-.2,1.8-.56,3.59-.58,5.38-.11,12.79-.2,25.58-.2,38.36,0,30.55.72,61.1-.15,91.65-1.71,2.47-1.4,5.05,1.73,4.83,5-.34,9.92-1.87,14.88-2.9h32.84c3.95.56,7.92,1,11.84,1.7,19.56,3.47,36.86,12.12,52.94,23.43,2,1.4,3.49,1.83,5.83.76,22.49-10.17,46.28-14.21,70.79-14.68a162.66,162.66,0,0,1,32.74,2.86,9.68,9.68,0,0,0,7.47-1.52,149.79,149.79,0,0,1,24.55-12.22c28.84-11.56,59.32-14.4,89.89-16a385.86,385.86,0,0,1,51.33.6c12.62,1,25.1,2.62,37.52,4.82,20.7,3.66,39.92,11.38,58.06,21.87a10.63,10.63,0,0,0,7.12,1.57,186.74,186.74,0,0,1,40.8-1.18c18.53,1.34,36.58,4.55,53.88,11.41,2.21.87,3.93,1.06,6-.4,15.24-10.74,32.73-16.13,50.47-20.76,23.44-6.12,47.35-8.79,71.54-9.24,1.83-.83,1.27-2.56,1.32-3.94.48-14.13.88-28.26,1.3-42.39.11-3.66.17-7.32.33-11,.76-17.45,1.2-34.88-2.17-52.16-.72-3.23-1.39-6.47-2.18-9.69-3.2-13.06-11.27-21.08-24.6-23.59l-32.7-6.12a54.38,54.38,0,0,0-11.29-1.59c-15.3-1.07-30.6-.15-45.89-.36-34.59-.47-69.17-1.6-103.75-3.12-27.74-1.23-55.54-1.65-83.35-.79-18.13.56-36.29.19-54.44.31-30.63.21-61.27,1.09-91.88.54-35.6-.63-71.17-2.5-106.75-3.83-21.28-1-42.54-2.54-63.87-2.33A131.58,131.58,0,0,1,1934.82,1309.7ZM2601,583.11c-8.6.29-16.39,3.77-24.32,6.48-11.2,3.83-22.58,5.83-34.37,5.06a229.51,229.51,0,0,0-63.55,5.09c-22.42,4.82-44.78,7-67.19.15a114.72,114.72,0,0,0-21.53-4.15c-11.13-1.2-22.13-3.43-32.21-8.51s-19.55-11.28-24.4-22c-1.8-4-3.78-4.83-7.69-4.83q-224.7.13-449.39.07c-1,0-2,0-3,0-1.65-.08-2.83.34-3.49,2.09-2.35,6.22-7.12,10.35-12.47,13.89-7.38,4.89-13.2,10.88-16.51,19.44-2.9,7.5-8.8,12.61-15.68,16.89-13.58,8.47-28.82,12.06-44,15.71-18.82,4.51-37.77,8.38-57.33,5.79-18.65-2.48-37.28-1.29-55.84.65a339,339,0,0,1-43.9,1.82c-7.58-.19-15.23-1-21.38-5.74a31.6,31.6,0,0,0-18-6.51c-9.62-.56-18.85-2.34-27.38-6.95-3.34-1.81-4.12-.87-4.12,2.72q.13,75.48,0,151c0,3.21,1.1,4.44,4.14,4.84,11.72,1.53,23.42,3.31,35.14,4.84,44.73,5.86,89.75,5.56,134.71,6.46,3,.06,4.25-1,5.33-3.76A43.5,43.5,0,0,1,1756,759c22.9-10.41,46.34-13,70.46-4.65,6.61,2.28,12.91,2.5,19.29-1,14.46-7.84,30-12.66,46-16.39,25.74-6,51.48-9.41,77.35-.31,5,1.77,10.49,1.63,15.84.72,14.12-2.4,28.26-4.82,42.54-6,30.2-2.59,56.81,6.55,80.39,25.22,2.11,1.67,4.1,2.74,7.18,2.25,54.34-8.53,108.13-19.88,161.62-32.54,42.15-10,83.41-23.16,124.49-36.93,31.8-10.67,62.6-23.67,92.93-37.87,32-15,61.38-34.17,90.08-54.52,5.9-4.19,11.94-8.31,16.72-13.9l.54-.43-.38-.1Zm-154.28,728.38c17,1.34,33.74-.73,50.59.38a312.17,312.17,0,0,1,57.56,9.46c12.12,3.14,20.11,11.28,24.24,23.17,6.07,17.46,6.89,35.58,6.52,53.78-.47,23-1.31,46-2.14,68.93-.12,3.33.75,4.48,4.27,4.86a174.24,174.24,0,0,1,41.29,9.38,241.29,241.29,0,0,1,54.68,28.78c2.86,2,5.4,3.81,8.53,0,21.64-26.3,49.4-44.37,79.72-58.93,23.22-11.16,47.66-18.86,72.38-25.76,3.16-.87,4.64-1.89,4.63-5.59q-.21-80-.05-160a8.52,8.52,0,0,0-2.43-6.23c-10.56-11.56-21.47-22.84-31.45-34.89-32.62-39.42-66.73-77.53-101.69-114.85-41.24-44-82.51-88-121.73-133.81-2.31-2.7-3.59-3.13-5.83.08-13.16,18.87-27.84,36.59-42,54.73-4.23,5.43-6.66,10.16-2.94,16.66,1.16,2,1.76,4.89-.8,6.28-5.56,3-7.79,9-12.23,12.93-5.86,5.21-6.83,11.45-4.45,18.58.42,1.26.56,2.6.89,3.89,6.29,24,7.09,48,1.54,72.2-.52,2.27-.75,4.65-2.89,6.14-4.64,3.23-9.43,5.11-15.4,4.13-23.48-3.84-45.62-11.13-65.29-24.84a117.61,117.61,0,0,1-40.69-48.94c-1.24-2.73-.92-6.07-3.11-8.32-3.59-3.71-1.9-6.7,1.18-9.33a69.83,69.83,0,0,1,12.31-8.5c17.9-9.6,37.17-14.49,57.21-16.61,4.91-.52,8.22-2.84,11.19-6.56,6.46-8.09,12-16.79,18-25.18,3.7-5.15,7.72-10.39,15.5-7.27,1.7.69,2.83-.23,3.73-1.63,15.11-23.59,32.53-45.53,49.19-68,1.32-1.78,1.37-3.54,1.28-5.6-.43-10.58,7.78-20.47,17.69-21.51,8.95-.94,17.27,6.09,19.43,16.54a32.25,32.25,0,0,1,.53,6.44,5.91,5.91,0,0,0,1.35,4.11c4.89,5.9,9.57,12,14.56,17.79,27.12,31.63,56.49,61.2,84.54,92,25.36,27.82,50.51,55.84,76.43,83.15,20,21,39.87,42.09,58.07,64.7,2.32,2.88,4.94,5.52,8.17,9.1v-640a18.93,18.93,0,0,1,0-2.5c.43-3.25-.88-4.26-4.19-4.26q-103.74.14-207.48,0a6,6,0,0,0-5.36,2.78A137.59,137.59,0,0,1,2613,583.94c-27.24,24-57.71,43.49-89.17,61.36-26.12,14.84-53.75,26.57-81.61,37.66-47.42,18.89-96.21,33.79-145.51,46.65-57.68,15-116.24,26.29-175,36.41-38.93,6.71-78.09,11.43-117.26,16.08-18.51,2.19-37.21,2.92-55.67,5.43a928.89,928.89,0,0,1-109.56,7.94c-57.14.95-114.29.47-171.44-1.11a929.86,929.86,0,0,1-107.91-9.57c-6.29-.92-6.29-1-6.29,5.13q0,312.45-.14,624.89c0,5.38,1.72,6.24,6.51,6.12a275.54,275.54,0,0,1,93.92,13.7c35.47,11.7,67.09,30.75,97.22,52.46,1.87,1.35,3.45,3.08,6.11,3,14.45-.59,27.74,4.59,41.18,8.71,5.65,1.73,9.74,3.08,14.82-2.25,6.16-6.45,15.27-8.76,23.77-11,5.39-1.44,7.11-4.07,7.09-9.32-.08-20.16.21-40.32.19-60.48,0-26.32-1.17-52.65.71-79,.89-12.4,4.22-23.91,13.09-33.24a10.84,10.84,0,0,1,8-3.37c7.53-.37,15,1.45,22.43,1.09,18.67-.89,37.3.4,55.95.67,9.08.14,8.13,1.57,7.54-7.85a345.71,345.71,0,0,1,4.09-76.66c2.09-13,8.72-22.57,21.28-28.12,9.72-4.3,18.87-9.89,28.3-14.87A11.25,11.25,0,0,0,2012,1164a61.42,61.42,0,0,1,1.4-12.35c.67-2.84-.32-4.62-1.62-6.83-7.28-12.32-15.76-24-20.73-37.56-11.57-31.5-13.2-63.63-5.5-96.32,2.3-9.76,8.18-15.39,17.22-19,21.93-8.84,44.61-12.6,68-9.66,23.92,3,45.92,11.45,64,27.94,9,8.17,14.15,18.53,12.8,31.19-4.79,44.93-24.8,81.71-59.5,110.54a6.87,6.87,0,0,0-2.71,5c-1.23,11.52,3,20.13,13.34,25.63,7.65,4.07,15.43,7.87,23.26,11.58,8.14,3.86,12.89,10.19,14.92,18.86,2.57,10.92,1.41,21.88.49,32.82a11.47,11.47,0,0,0,1.73,7.88c6.14,9.53,4.73,16.79-4.41,23.71a4.73,4.73,0,0,0-2.2,4.11c-.13,7.66-.23,15.32-.68,23-.21,3.65,1.13,4.46,4.54,4.4,14.65-.28,29.32-.36,44-.42q70-.24,140-.44c.58,0,1.32.3,1.8-.72-4.16-2.87-8.54-5.52-12.48-8.7A116.61,116.61,0,0,1,2298,1287.7a21.33,21.33,0,0,0-12.37-6.81,14.1,14.1,0,0,1-6.19-3.15c-15.39-12-15.71-33.47-.49-45.76a118.72,118.72,0,0,0,20.68-21.58c6.35-8.52,12.52-17.05,22.54-22.11,31.64-16,64.79-21.19,99.48-14,24.16,5,46.07,14.62,61.33,35.39a74.31,74.31,0,0,0,20.18,18.4c8.39,5.41,16.69,11,22.58,19.44,8.85,12.64,6.17,26.64-6.7,35.06-6.35,4.15-13.3,5.06-20.6,4.33-4.79-.48-9.17-.07-13.18,3.11a141.45,141.45,0,0,1-19.28,12.48C2459.76,1305.94,2453.12,1308.41,2446.73,1311.49ZM1861.55,561.12c-1.77-1.08-3.3-.62-4.75-.62q-107.41,0-214.84,0c-28,0-56,.06-83.94-.08-3.56,0-4.91.6-4.82,4.57.28,12.81.18,25.64,0,38.46,0,2.7.76,3.92,3.29,5.18a77.3,77.3,0,0,0,31.12,8.22c5.94.32,12.75,1,16.94,5,5.25,5.11,11.13,6.37,17.6,6.71a261.06,261.06,0,0,0,40.89-1.19c17.72-1.86,35.59-4.11,53.31-1.67,31.4,4.33,60.95-3.43,90.15-12.83,10.87-3.51,22.3-8.43,27.08-20.45,4-10,10.86-16.92,19.43-22.75C1856.31,567.46,1859.77,565.29,1861.55,561.12Zm521.07,748.74c46.12,1,62.48-3.6,99.37-27.4,4.83-3.12,9.8-4.74,15.59-3.73a25.54,25.54,0,0,0,12.36-.72c12.15-3.91,16.12-15.17,9.11-25.71a38.92,38.92,0,0,0-11.34-11.13c-13.63-8.85-26.26-18.67-35.88-32.12-4.26-6-10.34-10.43-16.88-13.88-37.75-20-76.55-20.44-115.92-5.52-8.67,3.29-17.62,6.78-23.8,14.22-10.73,12.93-21,26.06-33.77,37.33-11.58,10.24-5.28,29.14,9.82,32.79a22.68,22.68,0,0,1,12.42,7.7,72.51,72.51,0,0,0,36.38,23.5C2354.71,1309.24,2369.77,1308.9,2382.62,1309.86ZM2077,1158.78c-19.25,6.53-37.8,6.47-55.91-2.84a14.06,14.06,0,0,0-1,6.82c.32,9.21-3.81,15.46-12,19.56-9.52,4.77-18.68,10.3-28.34,14.77-9,4.19-14,11.05-15.65,20.48-4.61,26.89-5.45,54-3.87,81.18.18,3.06,1.35,3.76,4.27,3.84q22.73.63,45.44,1.74a14,14,0,0,0,8-1.94c11.43-6.52,22.88-13,34.41-19.33,7.75-4.27,15.69-8.32,24.8-8.55,11.81-.3,23.63-.35,35.45-.44a44,44,0,0,0,16.61-3c3.49-1.43,5.79-4,5-8.18s-2.47-6.94-7.17-7.66a219.32,219.32,0,0,0-39.32-2.35,53.49,53.49,0,0,0-16.24,2.52,536.18,536.18,0,0,0-68.52,30c-3.11,1.61-6,3.6-9.44,4.51-4.23,1.13-7.14-.51-7.87-4.55-.77-4.25-1.83-8.57-1.69-12.83.47-14.65,1.38-29.28,2.2-43.91.15-2.62,1-5.36,4.14-5.26,3.51.12,4,3,3.85,5.86-.2,5.16-.34,10.32-.7,15.47-.18,2.66.1,3.79,3.13,2.41a22.54,22.54,0,0,1,11.24-1.87c13.61,1.11,27.28,2,40.21,7a11.07,11.07,0,0,0,8.67-.24c11.51-4.73,23.4-7.78,35.95-7.3,3.09.12,3.5-1.23,3.56-3.82.16-6.83.56-13.64.92-20.46.15-2.8.68-5.79,4.18-5.73,3.89.07,4,3.28,3.93,6.25-.28,7-.55,14-.94,21-.1,1.84-.26,3.14,2.26,3.33,6.64.49,13.26,1.19,19.87,1.92,1.94.21,2.7-.43,2.85-2.36.76-9.64,1.58-19.27-.1-28.89-1.21-6.89-4.8-11.88-11.3-14.8-5.47-2.46-10.76-5.31-16.2-7.82C2087.08,1186.52,2076.11,1177,2077,1158.78Zm23.55-397.35c-12.33-11.72-40.05-22.18-58.88-22.44-16.92-.23-33.52,2.7-50.09,5.59-10,1.76-19.82,1.62-29.64-1.35-7.17-2.18-14.48-4.23-22-4.16-30.94.31-60.56,6.89-88.35,20.45-9.71,4.73-18.78,5.4-28.85,2.09-22.54-7.38-44.36-4.66-65.41,5.72-7,3.43-11.9,8.86-15.74,15.57-2.15,3.77-1.5,4.42,2.73,4.58,22.49.86,45-.43,67.47.12,32.54.81,65-1,97.32-4.11,51.23-4.94,102.5-9.67,153.53-16.44C2075.13,765.39,2087.59,763.36,2100.57,761.43ZM2112,1111.59l1.77.34a18.77,18.77,0,0,0,1.48-1.75c14.3-21.58,21.89-45.47,24.38-71.08a23.28,23.28,0,0,0-2.4-12.1c-4.65-10.06-12.93-16.41-22.2-21.56-35.95-20-72.88-20.72-110.63-5.39-6.16,2.51-9.54,6.67-11,13a162.69,162.69,0,0,0,.13,74.74c1.22,5.31,2.43,10.71,5.66,16.8.75-5.92,1-10.56,2.28-15a37.75,37.75,0,0,1,6.31-12.94,4.07,4.07,0,0,0,.26-2.42c-.31-4.72,1.4-8.81,3.9-12.65,12.2-18.83,29.77-26.83,51.86-25.6,21.31,1.18,35.76,12.88,46.41,30.36,1.08,1.78,1.63,4.08.8,5.77-2.67,5.43-1.61,10.46.61,15.62a10.71,10.71,0,0,1,.4,4C2112,1098.31,2112,1105,2112,1111.59Zm737,132.48c0-8.63,0-16,0-23.43a4.26,4.26,0,0,0-1.57-3c-14.12-14.64-26.4-30.86-40.19-45.82-35-38-70.62-75.34-105-113.91-32.87-36.94-68.88-71.05-99.36-110.14-1.77-2.27-3.5-2.94-6.41-2-6.53,2.21-13.18,2.24-19.39-1.12-2.43-1.32-3.13-.06-4.28,1.52q-5.13,7.06-10.47,14c-12.93,16.75-25.35,33.87-37,51.56-.74,1.12-3.25,2.5-.93,4,2.6,1.72,4,4.39,5.91,6.6,2.72,3.22,3.77,2.58,6-.44,14.67-19.81,30.44-38.78,44.87-58.78,5.51-7.66,8.73-7.52,14.79-.36,31.43,37.14,64.31,73,97.63,108.42,28.18,30,56.22,60.08,83.5,90.88,18.22,20.57,35.84,41.67,53.84,62.44C2836.45,1230.92,2842.32,1236.94,2848.91,1244.07ZM2340.22,561.39a34,34,0,0,0,9.09,10.9c9,7.4,19.35,11.69,30.69,13.69,12.93,2.28,26,3.52,38.73,7.24,14,4.09,28.34,4.22,42.56,1.35,29-5.86,58.1-9.84,87.8-8,8.24.5,16.19-1.5,24-4.26,11.3-4,22.76-7.69,34.67-9.31,5.13-.69,8.67-2.92,11.23-7.13.89-1.48,2.92-2.89,1.91-4.69-.88-1.54-3.06-.66-4.64-.66q-135.43-.06-270.87,0C2343.75,560.48,2342,559.93,2340.22,561.39Zm178.51,587.14c2-11.06,3.1-21,2.69-31-.59-14.07-4.22-27.63-6.91-41.34-1.32-6.7.09-12.45,4.67-17.6,4-4.47,7.61-9.27,11.49-13.83a5.18,5.18,0,0,0,.93-5.91c-3.62-9.14-10.35-15.36-18.61-20.15-2.79-1.62-5-1.33-7,1.85-5.15,8-10.82,15.59-16.15,23.43-6.15,9-14,13.44-24.85,14.23-16.81,1.21-32.59,6.54-47.63,14-2.57,1.29-5,2.86-7.51,4.3,0,.49.07,1,.11,1.48,23.06.6,43.58,8.24,62.57,20.8S2506,1128.5,2518.73,1148.53Zm-458-59.16a89.18,89.18,0,0,0,17.94-1.83c2.39-.5,3.92-1.55,4.24-4.12,1-8.13,6.15-13.21,13.11-16.37,3.93-1.78,3-3.12,1-5.61-11.55-13.85-26.38-19.16-44.06-17.23-15.54,1.69-27.09,9.6-34.95,22.92-3.63,6.15-2.24,10.66,4,14.19a26.16,26.16,0,0,0,5.48,2.39A125.16,125.16,0,0,0,2060.73,1089.37Zm347.22-3.61a83.22,83.22,0,0,0,11.64,21.48c22.25,30.78,53.73,45,90.15,50.51,1.25.19,2.92.81,3.77-.31,1-1.32-.65-2.38-1.25-3.47-5.3-9.68-12-18.35-19.23-26.67-1.68-1.93-2.59-2.79-4.9-.5-4.35,4.33-10,6.6-15.92,7.81a21.27,21.27,0,0,1-25.42-18c-.9-6.19.65-11.93,3.48-17.33,1.12-2.12.91-3.1-1.23-4.23C2436.34,1088.29,2422.41,1087.39,2408,1085.76Zm-321.57,49.15c.1-6-.07-10.44-1.06-14.86-1.46-6.47-2.45-6.9-8.35-3.75-6.89,3.68-10.23,3.47-15.5-1-5.86-5-9.43-4.06-12.18,3.2-1.92,5-3.43,10.58-10,11s-9.16-4.4-11.24-9.57c-1-2.37-2.33-3.12-4.52-1.23-4.48,3.85-6.51,19.81-2.89,24.53,3.41,4.44,7.6,8.15,13.14,9.52,14.22,3.53,28.32,4,41.95-2.67C2082.67,1146.68,2088.68,1142.78,2086.38,1134.91Zm-75.54-7.69c3.19-9.48,4.53-12,7.78-14.9,5.37-4.78,11.89-3.78,15.73,2.24,1.39,2.18,1.42,6.52,4,6.29,3.14-.28,3-4.67,4.16-7.28,4.68-10.25,15-12.73,23.11-5.19,2.75,2.55,4.88,2.41,7.92.72,10.4-5.81,16.84-2.67,19.57,9.1,1.2,5.16.92,10.44,1.51,16.29,5.61-5.12,10.34-9.3,10-17.63-.33-9-.92-17.93-1.09-26.91,0-1.51.35-6.59-3.76-3.6-14.43,10.51-30.74,12.19-47.64,10.49-12.56-1.26-25.36-2.73-36.21-10-3.88-2.59-4.79-1.58-6,2-2.84,8.53-2.31,17.42-3.26,26.16C2006.23,1119.85,2007.9,1123.26,2010.84,1127.22Zm48.38,161.6c10.17,4.75,20.23,7.54,30.06,11,4.23,1.47,8.69,2.4,11.25,6.67a3.81,3.81,0,0,0,3.43,1.68c5.65.19,11.3.37,16.94.66,2.17.11,2.93-.71,2.95-2.85.05-7.32.22-14.63.4-21.94.06-2.12-.53-3-2.89-2.54-6.58,1.35-13.27.52-19.91.74-2.3.08-4.34-.17-5.72,2.67a3.11,3.11,0,0,1-5.69.28c-1.74-2.77-4-3.18-6.73-3.08C2075.07,1282.36,2067.15,1283.87,2059.22,1288.82Zm-18.2-30.34c-10.94-3.55-21.23-3.89-31.42-4.92a24.07,24.07,0,0,0-13.9,2.85c-2.53,1.31-5.07,14.72-3.17,16.82a1.36,1.36,0,0,0,.81.49c4.82.47,9.66,4.21,14.47-.27,1-1,2.69-1.23,4.06-1.83C2021.25,1267.54,2030.88,1264,2041,1258.48Zm428-131.7c4.45-.28,9.12-2.54,13.54-5.73,2.33-1.69,2.33-2.61.13-4.31-5.92-4.57-11.78-9.21-18.13-13.17-5.73-3.57-6.3-3.33-8.48,3a21.12,21.12,0,0,0-1.15,7.34C2455,1121.24,2460.61,1126.77,2469,1126.78Zm-438.59,177.54.28,1,52.53,1.91c-10.64-4.71-21.62-7.92-31.87-13a2.93,2.93,0,0,0-2.34,0C2042.78,1297.49,2036.6,1300.92,2030.41,1304.32Zm557.69-365c6.13-.08,9.7-2,9.66-5.35-.07-6.61-5-12.27-10.68-12.19-4.81.07-10.79,5.94-10.9,10.7C2576.1,935.91,2582.14,939.38,2588.1,939.3Z" transform="translate(0 -331)"/><path class="cls-3" d="M144.07,922q0-181.71-.11-363.43c0-4.45,1-5.63,5.58-5.63q362.7.19,725.41,0c4.7,0,6,.91,6,5.85q-.21,363.18,0,726.35c0,5.07-1.05,6.52-6.44,6.52q-362.46-.26-724.91,0c-4.65,0-5.63-1.25-5.62-5.7Q144.15,1104,144.07,922Zm369-359.2q-177.23,0-354.45-.09c-4.56,0-5.88,1.15-5.88,5.81q.18,353.94,0,707.86c0,4.57,1.16,5.89,5.8,5.87,39.83-.18,79.66-.06,119.49-.14,9.24,0,7.43,1.68,9-7.73,4.43-26.38,8.75-52.78,12.78-79.22,3-19.7,7.86-39.29,6.21-59.4-1.5-18.32,2.52-35.34,10-51.82,7.6-16.84,19.29-28.71,38-33,19.08-4.33,38.49-5.44,57.87-6.71,15.1-1,30.28-.91,45.43-1.18,2.59,0,4-.51,4-3.53.05-5,.46-10,.82-14.93.63-9,1.28-17.9,2.05-26.83a11.46,11.46,0,0,1,5.44-8.95c9.29-6.36,19.61-9.82,30.53-11.68,3-.52,3.89-1.74,3.84-4.55-.1-5.83-.31-11.69.14-17.49.53-7-.39-12.5-7-17-6.33-4.34-7.5-10.94-5-16.24,2.82-6,9.31-9.31,16.83-7.62a17.27,17.27,0,0,0,10.5-1c9.13-3.41,18.87,1,23.81,10.42,3.86,7.36,1.7,14.91-6.19,20.79a7.29,7.29,0,0,0-3.33,6.7c.23,7,.08,14,.08,21,0,7.33,0,7.18,7.29,7.93a96.43,96.43,0,0,1,30.77,8c3.7,1.71,6,4,6.6,8.53.46,3.77-.59,7.26-.51,10.91a240.54,240.54,0,0,0,5.05,42c.51,2.53,1.69,3.74,4.43,3.53,5.47-.4,11-.77,16.44-.86,15.32-.26,30.66-.53,45.92,1,13.15,1.31,26.23,3.44,36.48,12.94,5.74,5.32,11.61,10.46,17.67,15.42,11.61,9.51,19,21.45,19,36.91-.22,52.79.15,105.54,3.83,158.23.31,4.36,1.37,5.55,5.74,5.53,44.32-.16,88.65-.09,133-.1,6.7,0,6.7,0,6.7-6.75V569.55c0-6.73,0-6.73-6.73-6.73Zm-3.2,719.63h76.48q27.24,0,54.48,0c2.48,0,4.63.36,3.95-3.56-3-17.26-4.1-34.72-5.25-52.17-1.61-24.5,1.14-48.25,11.61-70.73,1.6-3.42,2.18-8.6,7.55-7.93,5.18.65,5,5.78,5.75,9.47a689.33,689.33,0,0,1,10.4,72.65c1.35,15.76.75,31.64,2.95,47.37.53,3.76,1.62,5.08,5.5,5,9.66-.27,19.33-.29,29,0,4.2.13,5.31-1,5-5.27-2.42-36.74-4.53-73.49-4-110.34.2-15.33,0-30.66,0-46,0-13-5-23.59-15.25-31.65-3.93-3.08-8.14-6-11.42-9.68-10.14-11.42-23.22-15.47-37.83-16.6-20.82-1.62-41.62-1.18-62.43-.09-8.8.46-10.41-.6-12.29-9.24-3.23-14.83-5.63-29.78-5.71-45,0-2.58-.45-4.14-3.29-2.24-5.66,3.8-12.25,5-18.63,6.88-23.37,6.7-46.18,4.3-68.49-4.49-3.81-1.5-4.9-1.09-5.05,3-.45,12-1.24,23.95-1.74,35.93-.17,4-2.27,6.19-5.93,5.72-12-1.55-24,.18-35.93.29-23.67.21-47.26,1.87-70.59,6.24-12.81,2.4-23.28,8.5-29.51,20.12-8.39,15.68-15,32-13.42,50.4a144,144,0,0,1-1.44,35.37c-5.95,37.34-11.86,74.68-17.95,112-.59,3.61.11,4.69,3.82,4.61,10-.21,20-.08,30-.08,14.23,0,14.13,0,14.93-14.37,1.4-25.12,2.81-50.22,7.75-75a129.72,129.72,0,0,0,2.57-35.28c-.25-3.4-.3-6.54,3.66-7.66,3.26-.92,7.51,2.07,8.68,5.87.84,2.7,1.54,5.45,2.38,8.15,6.89,22.18,10.07,44.71,7.78,68-1.46,14.9-1.69,29.93-2.86,44.87-.35,4.56,1,5.52,5.35,5.51C423.57,1282.39,466.72,1282.46,509.87,1282.45Zm146.34-111a94.74,94.74,0,0,0-7.21,36.08c0,11.32.12,22.64,1.14,33.91,1,10.58,2,21.18,3.56,31.68,1.5,10,1.82,9.86,11.93,9.13,2.37-.18,3.07-.66,2.64-3.28-1-5.89-2-11.87-2-17.81.11-22.18-2.75-44.1-5.32-66C660,1187.1,659.08,1179.07,656.21,1171.41ZM514.11,965.58h-1c0,7.16.34,14.34-.12,21.47-.31,4.74,2.37,4.71,5.52,4.76s5.92.33,5.79-4.45c-.3-11.49.11-23-.27-34.49-.23-7.14.92-13.07,7.9-16.73a5.72,5.72,0,0,0,2.93-7.26,9.68,9.68,0,0,0-7.6-6.55c-3-.6-5.89-.2-7.58,3.2-1.88,3.77-4.73,4-7.62,1.09-2-2-4.23-3.22-7.12-2.79-1.52.22-3,.64-3.67,2.2s.33,2.93,1.45,3.93a61.14,61.14,0,0,0,6.53,5.42c3.68,2.51,5.09,5.77,4.92,10.21C513.92,952.24,514.11,958.91,514.11,965.58Zm-149,219.1c-2.94,3-1.84,6.4-2.44,9.27-5.8,27.93-6.41,56.4-8.6,84.71-.25,3.19,1.11,4.43,4,4,2.67-.4,6.84,2,7.13-3.49.63-11.78,1.26-23.56,2-35.34.47-7.79,1.21-15.56,1.65-23.35C369.47,1208.57,368.94,1196.77,365.09,1184.68ZM520.64,1007.5c14.05-.07,27.55-3.84,40.49-9.92.86-.4,2.2-.55,2.2-1.74,0-1.61-1.61-1.4-2.61-1.69a148.19,148.19,0,0,0-23.44-4.74c-2.53-.31-3.81.33-3.74,3.06.12,4.91-2.95,7.07-7.2,8.18a30.32,30.32,0,0,1-12.86.38c-7.21-1.24-9.73-3.83-10.17-11.19-.15-2.47-.83-3.35-3.26-2.75-7.27,1.8-14.56,3.56-21.06,7.48-1,.63-2.86.82-2.67,2.52.16,1.35,1.75,1.34,2.75,1.8C492.13,1005,506.05,1007,520.64,1007.5Z" transform="translate(0 -331)"/><path class="cls-4" d="M1012,819.12q0-130.44-.13-260.89c0-4.56,1.27-5.28,5.46-5.28q195.44.18,390.88.1c6.64,0,6.64,0,6.64,6.5q0,260.15.12,520.29c0,4.83-.9,6.29-6.06,6.28q-195.95-.24-391.88,0c-4.1,0-5.15-.87-5.14-5.07Q1012.12,950.07,1012,819.12Zm8,22.76c3.24-5.49,5.62-9.81,8.29-13.94,1.85-2.85,4.2-5.55,8.15-4.29,3.6,1.14,4.22,4.4,4.43,7.68a45.66,45.66,0,0,1-.52,10.95c-1.91,10.88-1.42,21.58,2.53,32a20.84,20.84,0,0,0,4.52,7.68c2.66,2.67,4.74,2.48,6.72-.79a47.08,47.08,0,0,0,5.73-15.38c3.56-17.9,8.85-35.23,17.28-51.44a155.27,155.27,0,0,0,12.79-34.05,48.64,48.64,0,0,1,2.77-8c1.15-2.61,3.24-4.34,6.31-3.87,2.84.43,4.31,2.53,4.74,5.16a65.45,65.45,0,0,1,.83,8.94,121.43,121.43,0,0,0,3,23.27c1.74,7.8,3.55,15.58,5.35,23.37,3.9,16.85,2,33.39-2.33,49.89-2.15,8.23-1.21,16.2,3.82,23.4,4.38,6.28,9.34,7.81,16.47,5a21.15,21.15,0,0,0,8.53-6.74,54.3,54.3,0,0,0,11.73-27.7c1.16-8.91,1.88-17.89,2.92-26.82,2.93-25,14.27-46.22,29.42-65.73,1.53-2,3.6-3.07,6.16-2,2.72,1.16,3.48,3.41,3,6.16-.3,1.64-.69,3.26-1.13,4.87-6.08,22.11-8.86,44.14-2.7,67,3.48,12.87,1.09,26.2-3,38.92-3.29,10.12-7.06,20.1-10.2,30.27a57,57,0,0,0,0,34.92c6.56,20.52,28.29,28.43,46.48,16.74,16.86-10.84,22.82-26.75,20.37-46.07-1.56-12.29-6.44-23.76-9.82-35.6a70.29,70.29,0,0,1,.12-39.88,98.41,98.41,0,0,1,18.87-34.91c2.48-3,4.37-8.34,9.61-5.63,5,2.58,2.49,7.36,1.48,11.21-2,7.72-4.73,15.31-5.22,23.35-.32,5.26,0,10.63,5.26,13.6,3.09,1.73,8.77-1.79,12.49-7.38a49,49,0,0,0,7.85-25c.83-15.47,1.06-31,2.23-46.43a201.15,201.15,0,0,1,18-69.26,64.23,64.23,0,0,1,7.62-12.88c2.06-2.63,4.64-4.6,8.17-3.46,3.83,1.24,4.62,4.62,4.47,8.09a98,98,0,0,1-1.2,10.92c-1.61,10.37-3.2,20.74-3.53,31.27-.68,21.7,4.56,42.3,11.65,62.52,10.37,29.6,12.75,59.45,3.51,89.79-3.68,12.11-7.44,24.19-11,36.32-3,10.32-3.53,20.69.39,30.93,4.56,11.89,13.66,16,25.64,11.68a34.51,34.51,0,0,0,12.11-7.79,79.36,79.36,0,0,0,17.68-25.8c9-20.34,11.16-42.06,13-63.83,1.57-19,3.09-37.9,11.1-55.54a21.13,21.13,0,0,0,1.89-9.15q-.06-125.48.09-251c0-4.75-1.41-5.62-5.81-5.62q-186.73.18-373.47,0c-4.6,0-5.71,1.18-5.7,5.72q.23,125.48.11,251Zm384.84,20-1.35,0c-1.15,12.55-2.11,25.11-3.48,37.64-2.2,20.11-5.7,39.94-15.53,58-7,12.91-15.69,24.43-29.43,31-17.16,8.21-33.87,1.59-40.7-16.14a51.19,51.19,0,0,1-3.39-17.07c-.37-12.78,3.85-24.57,7.64-36.46,5.17-16.2,10.14-32.43,11.37-49.52,1.55-21.62-4.52-41.87-11.18-62-6.85-20.72-11-41.87-9.45-63.83.44-6.37,1.23-12.72,1.93-19.72-1,.78-1.52,1-1.66,1.36-1.3,3.24-2.58,6.5-3.77,9.78-9.12,25.24-11.78,51.45-12.23,78.09-.21,12.42.05,25-4.57,37-3.57,9.22-8.24,17.56-17.8,21.86-8.34,3.75-15.92,1.09-20.32-6.93-3.33-6.07-4.06-12.57-2.8-20.24a16.73,16.73,0,0,0-1.76,2.28c-6.47,14.55-9.39,29.44-4.6,45.16,3,9.87,6.17,19.7,8.75,29.69,7.32,28.39-4,54.77-28.13,66.45-20.53,9.93-45.37,1.36-54-18.88a65.4,65.4,0,0,1-4.69-34.74c1.62-12.36,6.23-23.8,10.56-35.33,6.34-16.86,7.68-34,3.29-51.51a76.08,76.08,0,0,1-2.4-25.76c.39-4.18,1.13-8.33,1.72-12.49-4.93,6.59-7.53,14.05-9.79,21.68-4.06,13.69-4.32,27.91-6.13,41.92-1.72,13.37-6.54,25.47-15.68,35.56-13.77,15.2-32.32,12.68-41.63-5.46-4.08-8-4.6-16.23-2.9-24.79,5.73-28.84,3.78-58.36-5.53-81.69-3.14,10.89-8.88,20.34-13.4,30.34-6.07,13.46-9.5,27.67-12.76,42-1.64,7.17-3.82,14.21-8.75,19.94s-10.63,6.35-16.88,2.19c-4.65-3.1-7.34-7.6-9.31-12.67a66.78,66.78,0,0,1-4.07-31.94A19.69,19.69,0,0,0,1027,854c-1.54,5.62-2.44,11.51-4.74,16.79-1.89,4.36-2.2,8.58-2.2,13.06q0,93.74,0,187.47c0,6.47,0,6.47,6.5,6.47q186,0,372,.11c4.91,0,6.47-1,6.46-6.24-.19-68.32-.1-136.64-.09-205Zm-93.47-140.34c-.11.47-.26.76-.2,1,.11.47.35.46.54,0a.66.66,0,0,0,0-.41A3.88,3.88,0,0,0,1311.38,721.51Z" transform="translate(0 -331)"/><path class="cls-2" d="M52.8,1367.08A166.58,166.58,0,0,1,101,1380.77c46.37,20.55,83.83,52.6,115.92,91.21,4.79,5.76,7.89,9.28,16.47,7.31,15.46-3.56,31.09-1.38,46.31,3.27,19.24,5.88,38.81,10.85,55.91,22.16,12.44,8.23,23.24,18.37,33.77,28.82,2.24,2.23,3.85,2.85,6.71.94,5.84-3.88,12.67-5.2,19.49-5.49,44.12-1.89,85.78,6.4,123.43,30.64,3.25,2.09,8.2,4,5.14,9s-7,1.29-10.32-.62c-21-12.17-42.69-23-66.94-26.3-18.9-2.58-38.05-4.35-57.22-1.81a27.14,27.14,0,0,0-5.74,1.62c-2.38.87-4.89,1.64-2.32,5.1,1.28,1.72.72,3.91-.94,5.43-1.84,1.69-4,1.59-6,.36a14.65,14.65,0,0,1-2.7-2.21c-2.13-2.11-4.33-4.17-6.28-6.44-27.74-32.35-64.31-48-105.17-55.31-9.37-1.67-18.93-.76-28.37.68-3.14.48-3.16,1.76-2,4.32a212.61,212.61,0,0,1,11.4,30.86c.34,1.11.66,2.23.93,3.36.67,2.81-.17,5.13-2.91,6.11-3.07,1.1-5.1-.6-6.35-3.32a18.36,18.36,0,0,1-1.13-3.3c-7.27-28.78-22.72-52.41-44.09-72.86-28.74-27.51-59.43-51.91-96.75-66.87a174.64,174.64,0,0,0-35.44-10.09,23.21,23.21,0,0,0-7,.14c-3,.39-5.44-.62-6-3.84s1.41-5,4.34-5.67C49.14,1367.5,51.14,1367.33,52.8,1367.08Z" transform="translate(0 -331)"/><path class="cls-2" d="M801.08,1398.69c-37.82-7.51-74.07-10.15-109.16,6.52-2,1-4,1.69-6.24.83a4.21,4.21,0,0,1-2.87-4.26c.07-2.72,1.87-4.08,4.11-5.12a144.41,144.41,0,0,1,37-11.76c25.19-4.19,50.09-1.39,74.91,3.26,4.09.76,8.26,1.13,12.29,2.09,2.57.61,4.15-.88,5.93-1.91,19-11,39.16-19.25,60.88-22.9a252.46,252.46,0,0,1,66.19-2c16.09,1.53,32,3.73,47.71,7.81a22.4,22.4,0,0,0,4.93.19c2.68.07,4.58,1.34,5,4s-1.19,4.46-3.57,5.36c-3.44,1.31-6.94.64-10.33-.23-23.85-6.12-48.12-8.46-72.68-8.53q-61.5-.15-110.78,36.6c-1.87,1.39-3.71,2.83-5.62,4.16-2.69,1.88-5.62,2.86-7.91-.31s-.41-5.62,2.13-7.67c1.17-.94,2.38-1.82,3.58-2.72Z" transform="translate(0 -331)"/><path class="cls-5" d="M2446.73,1311.49c6.39-3.08,13-5.55,19.23-9a141.45,141.45,0,0,0,19.28-12.48c4-3.18,8.39-3.59,13.18-3.11,7.3.73,14.25-.18,20.6-4.33,12.87-8.42,15.55-22.42,6.7-35.06-5.89-8.41-14.19-14-22.58-19.44a74.31,74.31,0,0,1-20.18-18.4c-15.26-20.77-37.17-30.39-61.33-35.39-34.69-7.18-67.84-2-99.48,14-10,5.06-16.19,13.59-22.54,22.11a118.72,118.72,0,0,1-20.68,21.58c-15.22,12.29-14.9,33.72.49,45.76a14.1,14.1,0,0,0,6.19,3.15,21.33,21.33,0,0,1,12.37,6.81,116.61,116.61,0,0,0,11.69,10.86c3.94,3.18,8.32,5.83,12.48,8.7-.48,1-1.22.72-1.8.72q-70,.24-140,.44c-14.66.06-29.33.14-44,.42-3.41.06-4.75-.75-4.54-4.4.45-7.64.55-15.3.68-23a4.73,4.73,0,0,1,2.2-4.11c9.14-6.92,10.55-14.18,4.41-23.71a11.47,11.47,0,0,1-1.73-7.88c.92-10.94,2.08-21.9-.49-32.82-2-8.67-6.78-15-14.92-18.86-7.83-3.71-15.61-7.51-23.26-11.58-10.31-5.5-14.57-14.11-13.34-25.63a6.87,6.87,0,0,1,2.71-5c34.7-28.83,54.71-65.61,59.5-110.54,1.35-12.66-3.84-23-12.8-31.19-18.09-16.49-40.09-24.93-64-27.94-23.41-2.94-46.09.82-68,9.66-9,3.64-14.92,9.27-17.22,19-7.7,32.69-6.07,64.82,5.5,96.32,5,13.52,13.45,25.24,20.73,37.56,1.3,2.21,2.29,4,1.62,6.83A61.42,61.42,0,0,0,2012,1164a11.25,11.25,0,0,1-6.45,10.42c-9.43,5-18.58,10.57-28.3,14.87-12.56,5.55-19.19,15.1-21.28,28.12a345.71,345.71,0,0,0-4.09,76.66c.59,9.42,1.54,8-7.54,7.85-18.65-.27-37.28-1.56-55.95-.67-7.48.36-14.9-1.46-22.43-1.09a10.84,10.84,0,0,0-8,3.37c-8.87,9.33-12.2,20.84-13.09,33.24-1.88,26.3-.73,52.63-.71,79,0,20.16-.27,40.32-.19,60.48,0,5.25-1.7,7.88-7.09,9.32-8.5,2.26-17.61,4.57-23.77,11-5.08,5.33-9.17,4-14.82,2.25-13.44-4.12-26.73-9.3-41.18-8.71-2.66.11-4.24-1.62-6.11-3-30.13-21.71-61.75-40.76-97.22-52.46a275.54,275.54,0,0,0-93.92-13.7c-4.79.12-6.51-.74-6.51-6.12q.24-312.45.14-624.89c0-6.1,0-6,6.29-5.13a929.86,929.86,0,0,0,107.91,9.57c57.15,1.58,114.3,2.06,171.44,1.11a928.89,928.89,0,0,0,109.56-7.94c18.46-2.51,37.16-3.24,55.67-5.43,39.17-4.65,78.33-9.37,117.26-16.08,58.77-10.12,117.33-21.36,175-36.41,49.3-12.86,98.09-27.76,145.51-46.65,27.86-11.09,55.49-22.82,81.61-37.66,31.46-17.87,61.93-37.32,89.17-61.36a137.59,137.59,0,0,0,18.93-20.54,6,6,0,0,1,5.36-2.78q103.74.09,207.48,0c3.31,0,4.62,1,4.19,4.26a18.93,18.93,0,0,0,0,2.5v640c-3.23-3.58-5.85-6.22-8.17-9.1-18.2-22.61-38.12-43.69-58.07-64.7-25.92-27.31-51.07-55.33-76.43-83.15-28.05-30.78-57.42-60.35-84.54-92-5-5.82-9.67-11.89-14.56-17.79a5.91,5.91,0,0,1-1.35-4.11,32.25,32.25,0,0,0-.53-6.44c-2.16-10.45-10.48-17.48-19.43-16.54-9.91,1-18.12,10.93-17.69,21.51.09,2.06,0,3.82-1.28,5.6-16.66,22.47-34.08,44.41-49.19,68-.9,1.4-2,2.32-3.73,1.63-7.78-3.12-11.8,2.12-15.5,7.27-6,8.39-11.59,17.09-18,25.18-3,3.72-6.28,6-11.19,6.56-20,2.12-39.31,7-57.21,16.61a69.83,69.83,0,0,0-12.31,8.5c-3.08,2.63-4.77,5.62-1.18,9.33,2.19,2.25,1.87,5.59,3.11,8.32a117.61,117.61,0,0,0,40.69,48.94c19.67,13.71,41.81,21,65.29,24.84,6,1,10.76-.9,15.4-4.13,2.14-1.49,2.37-3.87,2.89-6.14,5.55-24.19,4.75-48.25-1.54-72.2-.33-1.29-.47-2.63-.89-3.89-2.38-7.13-1.41-13.37,4.45-18.58,4.44-3.94,6.67-9.91,12.23-12.93,2.56-1.39,2-4.25.8-6.28-3.72-6.5-1.29-11.23,2.94-16.66,14.12-18.14,28.8-35.86,42-54.73,2.24-3.21,3.52-2.78,5.83-.08,39.22,45.84,80.49,89.8,121.73,133.81,35,37.32,69.07,75.43,101.69,114.85,10,12.05,20.89,23.33,31.45,34.89A8.52,8.52,0,0,1,2849,1260q-.09,80,.05,160c0,3.7-1.47,4.72-4.63,5.59-24.72,6.9-49.16,14.6-72.38,25.76-30.32,14.56-58.08,32.63-79.72,58.93-3.13,3.8-5.67,2-8.53,0a241.29,241.29,0,0,0-54.68-28.78,174.24,174.24,0,0,0-41.29-9.38c-3.52-.38-4.39-1.53-4.27-4.86.83-23,1.67-46,2.14-68.93.37-18.2-.45-36.32-6.52-53.78-4.13-11.89-12.12-20-24.24-23.17a312.17,312.17,0,0,0-57.56-9.46C2480.47,1310.76,2463.7,1312.83,2446.73,1311.49ZM2351.27,1152a36.19,36.19,0,0,1-.57,3.74c-.6,2.59-.2,4.9,2.47,5.76,3,1,4.56-1.15,5.49-3.71,1.86-5.1,1-10.16-.16-15.25-1-4.21-2.12-8.5.89-12.46,1.56-2,1.6-4.07-.43-5.73-2.37-1.93-4.37-.67-6.1,1.16-3.92,4.16-4.35,9.19-3.39,14.49C2350.11,1143.61,2351.34,1147.11,2351.27,1152Zm29.93-.83c-.55,3.36-.25,6.37,3.54,6.55s4.2-3.09,4.68-5.92a6.62,6.62,0,0,0,0-2.47c-.9-4.2-1.9-8.31-.71-12.7a3.69,3.69,0,0,0-3-4.52c-2.6-.65-4.15.95-4.8,3.21a20.29,20.29,0,0,0-1,6.33C2380.1,1144.94,2380.78,1148.19,2381.2,1151.19Zm29.7-10.2c-.14-2.59-1.43-4.29-3.87-4.46-2.61-.18-3.88,1.64-4,4-.17,2.72,1.23,4.59,4,4.6C2409.52,1145.19,2410.6,1143.25,2410.9,1141Z" transform="translate(0 -331)"/><path class="cls-6" d="M2600.9,583c-4.78,5.59-10.82,9.71-16.72,13.9-28.7,20.35-58.12,39.56-90.08,54.52-30.33,14.2-61.13,27.2-92.93,37.87-41.08,13.77-82.34,26.95-124.49,36.93-53.49,12.66-107.28,24-161.62,32.54-3.08.49-5.07-.58-7.18-2.25-23.58-18.67-50.19-27.81-80.39-25.22-14.28,1.23-28.42,3.65-42.54,6-5.35.91-10.81,1-15.84-.72-25.87-9.1-51.61-5.71-77.35.31-15.93,3.73-31.52,8.55-46,16.39-6.38,3.46-12.68,3.24-19.29,1-24.12-8.32-47.56-5.76-70.46,4.65a43.5,43.5,0,0,0-23.48,24.68c-1.08,2.79-2.29,3.82-5.33,3.76-45-.9-90-.6-134.71-6.46-11.72-1.53-23.42-3.31-35.14-4.84-3-.4-4.14-1.63-4.14-4.84q.15-75.46,0-151c0-3.59.78-4.53,4.12-2.72,8.53,4.61,17.76,6.39,27.38,6.95a31.6,31.6,0,0,1,18,6.51c6.15,4.74,13.8,5.55,21.38,5.74A339,339,0,0,0,1668,635c18.56-1.94,37.19-3.13,55.84-.65,19.56,2.59,38.51-1.28,57.33-5.79,15.21-3.65,30.45-7.24,44-15.71,6.88-4.28,12.78-9.39,15.68-16.89,3.31-8.56,9.13-14.55,16.51-19.44,5.35-3.54,10.12-7.67,12.47-13.89.66-1.75,1.84-2.17,3.49-2.09,1,0,2,0,3,0q224.69,0,449.39-.07c3.91,0,5.89.87,7.69,4.83,4.85,10.68,14.32,16.89,24.4,22s21.08,7.31,32.21,8.51a114.72,114.72,0,0,1,21.53,4.15c22.41,6.87,44.77,4.67,67.19-.15a229.51,229.51,0,0,1,63.55-5.09c11.79.77,23.17-1.23,34.37-5.06,7.93-2.71,15.72-6.19,24.32-6.48Z" transform="translate(0 -331)"/><path class="cls-7" d="M2515.48,1321.89l32.7,6.12c13.33,2.51,21.4,10.53,24.6,23.59.79,3.22,1.46,6.46,2.18,9.68,1.39,13.18,2.69,26.36,2.14,39.63-.2,4.79-.8,9.58-.7,14.36.36,17.26-1.34,34.46-1.27,51.7a6.33,6.33,0,0,1-1,3.78c-24.19.45-48.1,3.12-71.54,9.24-17.74,4.63-35.23,10-50.47,20.76-2.08,1.46-3.8,1.27-6,.4-17.3-6.86-35.35-10.07-53.88-11.41a186.74,186.74,0,0,0-40.8,1.18,10.63,10.63,0,0,1-7.12-1.57c-18.14-10.49-37.36-18.21-58.06-21.87-12.42-2.2-24.9-3.8-37.52-4.82a385.86,385.86,0,0,0-51.33-.6c-30.57,1.62-61,4.46-89.89,16A149.79,149.79,0,0,0,2083,1490.3a9.68,9.68,0,0,1-7.47,1.52,162.66,162.66,0,0,0-32.74-2.86c-24.51.47-48.3,4.51-70.79,14.68-2.34,1.07-3.84.64-5.83-.76-16.08-11.31-33.38-20-52.94-23.43-3.92-.7-7.89-1.14-11.83-1.7a183,183,0,0,0-32.85,0c-5,1-9.88,2.56-14.88,2.9-3.13.22-3.44-2.36-1.73-4.82,1.6-3,.8-6.19.81-9.28q.13-63.06.12-126.12c.81-9.32,2.2-18.45,7.35-26.62,2.72-4.33,6-6.75,11.43-6,11.91,1.57,23.92,1.08,35.89,1.13,9.06,1.37,18.17.82,27.27.78a131.58,131.58,0,0,0,19.44,1c21.33-.21,42.59,1.36,63.87,2.33,8.51,1.83,17.24,1.14,25.77,1.28,32.75.54,65.4,3.72,98.17,3.19,14.47-.23,28.95-.35,43.41-.57,42.42-.65,84.85-.31,127.27-.3,20.62,0,41.21.88,61.81,1.78,22.24,1,44.52,1.34,66.78,2.11,11.62.39,23.25,0,34.9-.55C2489.29,1319.41,2502.43,1320.53,2515.48,1321.89Z" transform="translate(0 -331)"/><path class="cls-8" d="M1861.55,561.12c-1.78,4.17-5.24,6.34-8.5,8.55-8.57,5.83-15.47,12.79-19.43,22.75-4.78,12-16.21,16.94-27.08,20.45-29.2,9.4-58.75,17.16-90.15,12.83-17.72-2.44-35.59-.19-53.31,1.67a261.06,261.06,0,0,1-40.89,1.19c-6.47-.34-12.35-1.6-17.6-6.71-4.19-4.07-11-4.71-16.94-5a77.3,77.3,0,0,1-31.12-8.22c-2.53-1.26-3.32-2.48-3.29-5.18.14-12.82.24-25.65,0-38.46-.09-4,1.26-4.58,4.82-4.57,28,.14,56,.08,83.94.08q107.41,0,214.84,0C1858.25,560.5,1859.78,560,1861.55,561.12Z" transform="translate(0 -331)"/><path class="cls-9" d="M2382.62,1309.86c-12.85-1-27.91-.62-42.54-4.67a72.51,72.51,0,0,1-36.38-23.5,22.68,22.68,0,0,0-12.42-7.7c-15.1-3.65-21.4-22.55-9.82-32.79,12.76-11.27,23-24.4,33.77-37.33,6.18-7.44,15.13-10.93,23.8-14.22,39.37-14.92,78.17-14.47,115.92,5.52,6.54,3.45,12.62,7.92,16.88,13.88,9.62,13.45,22.25,23.27,35.88,32.12a38.92,38.92,0,0,1,11.34,11.13c7,10.54,3,21.8-9.11,25.71a25.54,25.54,0,0,1-12.36.72c-5.79-1-10.76.61-15.59,3.73C2445.1,1306.26,2428.74,1310.84,2382.62,1309.86Zm10.68-33.57c10.58.62,23.44-1.92,35.84-6.62,9-3.4,17-8.48,22.51-16.7,1.48-2.2,1.55-4.1.9-6.88-2-8.39-7.88-13.32-14.24-17.85-23.61-16.81-49.58-18.75-76.73-11.26-12.77,3.53-22.52,11.2-28.19,23.54-4.39,9.56-1.83,19.44,6.84,25.55a43.21,43.21,0,0,0,18,7C2368.91,1274.9,2379.71,1275.56,2393.3,1276.29Z" transform="translate(0 -331)"/><path class="cls-10" d="M2077,1158.78c-.91,18.25,10.06,27.74,24.76,34.54,5.44,2.51,10.73,5.36,16.2,7.82,6.5,2.92,10.09,7.91,11.3,14.8,1.68,9.62.86,19.25.1,28.89-.15,1.93-.91,2.57-2.85,2.36-6.61-.73-13.23-1.43-19.87-1.92-2.52-.19-2.36-1.49-2.26-3.33.39-7,.66-14,.94-21,.11-3,0-6.18-3.93-6.25-3.5-.06-4,2.93-4.18,5.73-.36,6.82-.76,13.63-.92,20.46-.06,2.59-.47,3.94-3.56,3.82-12.55-.48-24.44,2.57-35.95,7.3a11.07,11.07,0,0,1-8.67.24c-12.93-5-26.6-5.86-40.21-7a22.54,22.54,0,0,0-11.24,1.87c-3,1.38-3.31.25-3.13-2.41.36-5.15.5-10.31.7-15.47.11-2.86-.34-5.74-3.85-5.86-3.18-.1-4,2.64-4.14,5.26-.82,14.63-1.73,29.26-2.2,43.91-.14,4.26.92,8.58,1.69,12.83.73,4,3.64,5.68,7.87,4.55,3.4-.91,6.33-2.9,9.44-4.51a536.18,536.18,0,0,1,68.52-30,53.49,53.49,0,0,1,16.24-2.52,219.32,219.32,0,0,1,39.32,2.35c4.7.72,6.42,3.58,7.17,7.66s-1.51,6.75-5,8.18a44,44,0,0,1-16.61,3c-11.82.09-23.64.14-35.45.44-9.11.23-17.05,4.28-24.8,8.55-11.53,6.33-23,12.81-34.41,19.33a14,14,0,0,1-8,1.94q-22.71-1.11-45.44-1.74c-2.92-.08-4.09-.78-4.27-3.84-1.58-27.21-.74-54.29,3.87-81.18,1.62-9.43,6.6-16.29,15.65-20.48,9.66-4.47,18.82-10,28.34-14.77,8.16-4.1,12.29-10.35,12-19.56a14.06,14.06,0,0,1,1-6.82C2039.22,1165.25,2057.77,1165.31,2077,1158.78Z" transform="translate(0 -331)"/><path class="cls-8" d="M2100.57,761.43c-13,1.93-25.44,4-37.94,5.62-51,6.77-102.3,11.5-153.53,16.44-32.28,3.11-64.78,4.92-97.32,4.11-22.49-.55-45,.74-67.47-.12-4.23-.16-4.88-.81-2.73-4.58,3.84-6.71,8.77-12.14,15.74-15.57,21-10.38,42.87-13.1,65.41-5.72,10.07,3.31,19.14,2.64,28.85-2.09,27.79-13.56,57.41-20.14,88.35-20.45,7.55-.07,14.86,2,22,4.16,9.82,3,19.61,3.11,29.64,1.35,16.57-2.89,33.17-5.82,50.09-5.59C2060.52,739.25,2088.24,749.71,2100.57,761.43Z" transform="translate(0 -331)"/><path class="cls-10" d="M2112,1111.59c0-6.64,0-13.28,0-19.92a10.71,10.71,0,0,0-.4-4c-2.22-5.16-3.28-10.19-.61-15.62.83-1.69.28-4-.8-5.77-10.65-17.48-25.1-29.18-46.41-30.36-22.09-1.23-39.66,6.77-51.86,25.6-2.5,3.84-4.21,7.93-3.9,12.65a4.07,4.07,0,0,1-.26,2.42,37.75,37.75,0,0,0-6.31,12.94c-1.25,4.48-1.53,9.12-2.28,15-3.23-6.09-4.44-11.49-5.66-16.8a162.69,162.69,0,0,1-.13-74.74c1.49-6.36,4.87-10.52,11-13,37.75-15.33,74.68-14.58,110.63,5.39,9.27,5.15,17.55,11.5,22.2,21.56a23.28,23.28,0,0,1,2.4,12.1c-2.49,25.61-10.08,49.5-24.38,71.08a18.77,18.77,0,0,1-1.48,1.75Z" transform="translate(0 -331)"/><path class="cls-11" d="M2848.91,1244.07c-6.59-7.13-12.46-13.15-18-19.5-18-20.77-35.62-41.87-53.84-62.44-27.28-30.8-55.32-60.91-83.5-90.88-33.32-35.44-66.2-71.28-97.63-108.42-6.06-7.16-9.28-7.3-14.79.36-14.43,20-30.2,39-44.87,58.78-2.24,3-3.29,3.66-6,.44-1.87-2.21-3.31-4.88-5.91-6.6-2.32-1.53.19-2.91.93-4,11.61-17.69,24-34.81,37-51.56q5.34-6.91,10.47-14c1.15-1.58,1.85-2.84,4.28-1.52,6.21,3.36,12.86,3.33,19.39,1.12,2.91-1,4.64-.31,6.41,2,30.48,39.09,66.49,73.2,99.36,110.14,34.34,38.57,70,75.95,105,113.91,13.79,15,26.07,31.18,40.19,45.82a4.26,4.26,0,0,1,1.57,3C2848.9,1228,2848.91,1235.44,2848.91,1244.07Z" transform="translate(0 -331)"/><path class="cls-12" d="M2340.22,561.39c1.79-1.46,3.53-.91,5.13-.91q135.43,0,270.87,0c1.58,0,3.76-.88,4.64.66,1,1.8-1,3.21-1.91,4.69-2.56,4.21-6.1,6.44-11.23,7.13-11.91,1.62-23.37,5.29-34.67,9.31-7.77,2.76-15.72,4.76-24,4.26-29.7-1.81-58.81,2.17-87.8,8-14.22,2.87-28.59,2.74-42.56-1.35-12.71-3.72-25.8-5-38.73-7.24-11.34-2-21.71-6.29-30.69-13.69A34,34,0,0,1,2340.22,561.39Z" transform="translate(0 -331)"/><path class="cls-10" d="M2518.73,1148.53c-12.78-20-27.12-37-46.25-49.68s-39.51-20.2-62.57-20.8c0-.5-.07-1-.11-1.48,2.5-1.44,4.94-3,7.51-4.3,15-7.51,30.82-12.84,47.63-14,10.84-.79,18.7-5.2,24.85-14.23,5.33-7.84,11-15.47,16.15-23.43,2.06-3.18,4.26-3.47,7-1.85,8.26,4.79,15,11,18.61,20.15a5.18,5.18,0,0,1-.93,5.91c-3.88,4.56-7.51,9.36-11.49,13.83-4.58,5.15-6,10.9-4.67,17.6,2.69,13.71,6.32,27.27,6.91,41.34C2521.83,1127.58,2520.76,1137.47,2518.73,1148.53Z" transform="translate(0 -331)"/><path class="cls-8" d="M2060.73,1089.37a125.16,125.16,0,0,1-33.32-5.66,26.16,26.16,0,0,1-5.48-2.39c-6.19-3.53-7.58-8-4-14.19,7.86-13.32,19.41-21.23,34.95-22.92,17.68-1.93,32.51,3.38,44.06,17.23,2.07,2.49,3,3.83-1,5.61-7,3.16-12.1,8.24-13.11,16.37-.32,2.57-1.85,3.62-4.24,4.12A89.18,89.18,0,0,1,2060.73,1089.37Z" transform="translate(0 -331)"/><path class="cls-9" d="M2408,1085.76c14.46,1.63,28.39,2.53,41.09,9.28,2.14,1.13,2.35,2.11,1.23,4.23-2.83,5.4-4.38,11.14-3.48,17.33a21.27,21.27,0,0,0,25.42,18c6-1.21,11.57-3.48,15.92-7.81,2.31-2.29,3.22-1.43,4.9.5,7.22,8.32,13.93,17,19.23,26.67.6,1.09,2.24,2.15,1.25,3.47-.85,1.12-2.52.5-3.77.31-36.42-5.46-67.9-19.73-90.15-50.51A83.22,83.22,0,0,1,2408,1085.76Z" transform="translate(0 -331)"/><path class="cls-11" d="M2086.38,1134.91c2.3,7.87-3.71,11.77-10.68,15.2-13.63,6.72-27.73,6.2-41.95,2.67-5.54-1.37-9.73-5.08-13.14-9.52-3.62-4.72-1.59-20.68,2.89-24.53,2.19-1.89,3.57-1.14,4.52,1.23,2.08,5.17,4.69,10,11.24,9.57s8.11-6,10-11c2.75-7.26,6.32-8.15,12.18-3.2,5.27,4.45,8.61,4.66,15.5,1,5.9-3.15,6.89-2.72,8.35,3.75C2086.31,1124.47,2086.48,1129,2086.38,1134.91Z" transform="translate(0 -331)"/><path class="cls-6" d="M2010.84,1127.22c-2.94-4-4.61-7.37-4.09-12.23,1-8.74.42-17.63,3.26-26.16,1.19-3.56,2.1-4.57,6-2,10.85,7.26,23.65,8.73,36.21,10,16.9,1.7,33.21,0,47.64-10.49,4.11-3,3.73,2.09,3.76,3.6.17,9,.76,18,1.09,26.91.31,8.33-4.42,12.51-10,17.63-.59-5.85-.31-11.13-1.51-16.29-2.73-11.77-9.17-14.91-19.57-9.1-3,1.69-5.17,1.83-7.92-.72-8.14-7.54-18.43-5.06-23.11,5.19-1.19,2.61-1,7-4.16,7.28-2.62.23-2.65-4.11-4-6.29-3.84-6-10.36-7-15.73-2.24C2015.37,1115.21,2014,1117.74,2010.84,1127.22Z" transform="translate(0 -331)"/><path class="cls-11" d="M2059.22,1288.82c7.93-5,15.85-6.46,24.09-6.76,2.7-.1,5,.31,6.73,3.08a3.11,3.11,0,0,0,5.69-.28c1.38-2.84,3.42-2.59,5.72-2.67,6.64-.22,13.33.61,19.91-.74,2.36-.49,2.95.42,2.89,2.54-.18,7.31-.35,14.62-.4,21.94,0,2.14-.78,3-2.95,2.85-5.64-.29-11.29-.47-16.94-.66a3.81,3.81,0,0,1-3.43-1.68c-2.56-4.27-7-5.2-11.25-6.67C2079.45,1296.36,2069.39,1293.57,2059.22,1288.82Z" transform="translate(0 -331)"/><path class="cls-11" d="M2041,1258.48c-10.14,5.51-19.77,9.06-29.15,13.14-1.37.6-3,.87-4.06,1.83-4.81,4.48-9.65.74-14.47.27a1.36,1.36,0,0,1-.81-.49c-1.9-2.1.64-15.51,3.17-16.82a24.07,24.07,0,0,1,13.9-2.85C2019.79,1254.59,2030.08,1254.93,2041,1258.48Z" transform="translate(0 -331)"/><path class="cls-13" d="M2515.48,1321.89c-13.05-1.36-26.19-2.48-39.24-1.9-11.65.52-23.28.94-34.9.55-22.26-.77-44.54-1.14-66.78-2.11-20.6-.9-41.19-1.77-61.81-1.78-42.42,0-84.85-.35-127.27.3-14.46.22-28.94.34-43.41.57-32.77.53-65.42-2.65-98.17-3.19-8.53-.14-17.26.55-25.77-1.28,35.58,1.33,71.15,3.2,106.75,3.83,30.61.55,61.25-.33,91.88-.54,18.15-.12,36.31.25,54.44-.31,27.81-.86,55.61-.44,83.35.79,34.58,1.52,69.16,2.65,103.75,3.12,15.29.21,30.59-.71,45.89.36A54.38,54.38,0,0,1,2515.48,1321.89Z" transform="translate(0 -331)"/><path class="cls-13" d="M2469,1126.78c-8.39,0-14-5.54-14.09-12.85a21.12,21.12,0,0,1,1.15-7.34c2.18-6.35,2.75-6.59,8.48-3,6.35,4,12.21,8.6,18.13,13.17,2.2,1.7,2.2,2.62-.13,4.31C2478.12,1124.24,2473.45,1126.5,2469,1126.78Z" transform="translate(0 -331)"/><path class="cls-11" d="M2030.41,1304.32c6.19-3.4,12.37-6.83,18.6-10.16a2.93,2.93,0,0,1,2.34,0c10.25,5.11,21.23,8.32,31.87,13l-52.53-1.91Z" transform="translate(0 -331)"/><path class="cls-11" d="M2588.1,939.3c-6,.08-12-3.39-11.92-6.84.11-4.76,6.09-10.63,10.9-10.7,5.65-.08,10.61,5.58,10.68,12.19C2597.8,937.25,2594.23,939.22,2588.1,939.3Z" transform="translate(0 -331)"/><path class="cls-13" d="M1852.88,1340.44q0,63.06-.12,126.12c0,3.09.79,6.31-.81,9.28.87-30.56.15-61.11.15-91.66,0-12.78.09-25.57.2-38.36C1852.32,1344,1852.68,1342.24,1852.88,1340.44Z" transform="translate(0 -331)"/><path class="cls-13" d="M2574.18,1470.75a6.33,6.33,0,0,0,1-3.78c-.07-17.24,1.63-34.44,1.27-51.7-.1-4.78.5-9.57.7-14.36.55-13.27-.75-26.45-2.14-39.63,3.37,17.29,2.93,34.72,2.17,52.17-.16,3.65-.22,7.31-.33,11-.42,14.13-.82,28.26-1.3,42.39C2575.45,1468.19,2576,1469.92,2574.18,1470.75Z" transform="translate(0 -331)"/><path class="cls-13" d="M1868.56,1477.76a183,183,0,0,1,32.85,0Z" transform="translate(0 -331)"/><path class="cls-3" d="M1934.82,1309.7c-9.1,0-18.21.59-27.27-.78,7.5,0,15,0,22.48,0C1931.64,1309,1933.39,1308.43,1934.82,1309.7Z" transform="translate(0 -331)"/><path class="cls-6" d="M2601,583.11l0-.61.38.1-.54.43Z" transform="translate(0 -331)"/><path class="cls-7" d="M513.07,562.82H865.53c6.73,0,6.73,0,6.73,6.73v705.86c0,6.75,0,6.75-6.7,6.75-44.33,0-88.66-.06-133,.1-4.37,0-5.43-1.17-5.74-5.53-3.68-52.69-4.05-105.44-3.83-158.23.07-15.46-7.36-27.4-19-36.91-6.06-5-11.93-10.1-17.67-15.42-10.25-9.5-23.33-11.63-36.48-12.94-15.26-1.53-30.6-1.26-45.92-1-5.49.09-11,.46-16.44.86-2.74.21-3.92-1-4.43-3.53a240.54,240.54,0,0,1-5.05-42c-.08-3.65,1-7.14.51-10.91-.56-4.5-2.9-6.82-6.6-8.53a96.43,96.43,0,0,0-30.77-8c-7.27-.75-7.29-.6-7.29-7.93,0-7,.15-14-.08-21a7.29,7.29,0,0,1,3.33-6.7c7.89-5.88,10.05-13.43,6.19-20.79-4.94-9.4-14.68-13.83-23.81-10.42a17.27,17.27,0,0,1-10.5,1c-7.52-1.69-14,1.65-16.83,7.62-2.49,5.3-1.32,11.9,5,16.24,6.58,4.53,7.5,10,7,17-.45,5.8-.24,11.66-.14,17.49,0,2.81-.83,4-3.84,4.55C489.28,979,479,982.5,469.67,988.86a11.46,11.46,0,0,0-5.44,8.95c-.77,8.93-1.42,17.88-2.05,26.83-.36,5-.77,9.95-.82,14.93,0,3-1.44,3.49-4,3.53-15.15.27-30.33.19-45.43,1.18-19.38,1.27-38.79,2.38-57.87,6.71-18.74,4.26-30.43,16.13-38,33-7.44,16.48-11.46,33.5-10,51.82,1.65,20.11-3.21,39.7-6.21,59.4-4,26.44-8.35,52.84-12.78,79.22-1.58,9.41.23,7.71-9,7.73-39.83.08-79.66,0-119.49.14-4.64,0-5.8-1.3-5.8-5.87q.17-353.93,0-707.86c0-4.66,1.32-5.82,5.88-5.81Q335.85,562.9,513.07,562.82Zm-9.39,309.23c23,.17,43.45-.39,63.88-2,21.66-1.69,42.93-5,62.94-14.06,14.36-6.52,28-13.9,37.83-26.88,8.5-11.28,13.5-23.56,9.4-37.72-3.26-11.23-6.39-22.38-16.07-30.82-17.62-15.35-37.26-27.24-57.94-37.79-29.52-15-60.78-22.07-93.84-21.75A243.94,243.94,0,0,0,481.54,703c-34,4.34-63.74,17.66-89.18,41-17.2,15.75-29.84,33.78-34.64,56.92C353,823.73,359.19,839.81,379,852.1c16.72,10.4,35.73,14.31,55,16.64A523.52,523.52,0,0,0,503.68,872.05Zm-48.8,38.37a4.75,4.75,0,0,0-6.71-4.38,47.07,47.07,0,0,0-10.4,6.86c-14.5,11.82-27.2,25.48-39.88,39.15-6.56,7.06-13.56,13.76-19.1,21.75-1.83,2.65-1.67,5,.75,7s4.65.8,6.67-.9a15.94,15.94,0,0,0,1.23-1.56c20.32-22.46,39.84-45.74,64.71-63.56A6.42,6.42,0,0,0,454.88,910.42Zm191,69.23a10.57,10.57,0,0,0-2.5-4.8c-14-18.39-27.49-37.19-39.83-56.77-3.28-5.19-7.12-10-10.84-14.94-1.42-1.87-3.43-2.85-5.65-1.22-2,1.48-3.24,3.43-2,6a25.17,25.17,0,0,0,2.15,3.91c13.44,19.42,26,39.47,40.23,58.33,3.3,4.37,6.15,9.16,10.31,12.82,1.49,1.32,3.33,2.47,5.42,1.09C644.65,983.08,645.94,981.77,645.84,979.65ZM323.24,640a4.37,4.37,0,0,0-4.16,2.24c-1.16,1.92-.48,3.61.75,5,2.63,3.06,6.08,5.13,9.41,7.34,20.1,13.34,40.24,26.65,59.72,40.9,2.56,1.87,4.84,3.25,7.36.43s1.33-5.52-1-7.87A16.76,16.76,0,0,0,393,686.1c-21.54-15.38-43.59-30-65.58-44.74A6.87,6.87,0,0,0,323.24,640Zm392.92,15.24c0-3.36-2.91-5.64-6.09-4.51a20.08,20.08,0,0,0-4.73,2.74c-14,9.92-27.26,20.76-40.5,31.64-5.52,4.53-10.86,9.31-16,14.26-2.18,2.1-2.88,5.07-.26,7.54,2.42,2.28,4.92,1.2,7.22-.48a17,17,0,0,0,1.47-1.35,533.44,533.44,0,0,1,55.24-44.29C714.45,659.38,716.23,657.89,716.16,655.19ZM750.6,846v-.17c4,0,8,.09,12,0,10.12-.27,20.23-.63,30.35-1,3.42-.11,6-1.57,6-5.2,0-3.94-2.94-4.75-6.24-4.74h-2.49c-19.43,0-38.82,1.66-58.26,1.15-3.77-.1-6.91,1.23-6.8,5.42s3.72,4.48,7,4.49C738.3,846,744.45,846,750.6,846ZM294,818.09c-8.72.86-18.36,1-28,1.15-6,.08-11.94.46-17.91.71-2.86.12-4.9,1.41-5.08,4.39-.19,3.21,1.93,4.78,4.8,5.38a14.42,14.42,0,0,0,3.48.08c7.13-.27,14.26-.59,21.4-.85,9.45-.35,18.91-.64,28.37-1,3-.12,6-.88,5.87-4.6s-2.68-5.1-6.07-5.23C298.91,818,296.91,818.09,294,818.09Zm-17.78-77.91c-2.78.24-4.9,1.3-5.48,3.86-.78,3.47,1.64,5.35,4.4,6.27,10.69,3.56,21.44,7,32.44,9.46,3.1.7,6.39.18,7.23-3.46s-1.73-5.39-4.95-6.2c-10.45-2.66-20.79-5.68-31-9.13C278,740.66,277,740.41,276.25,740.18Zm474.87,3.74a4.14,4.14,0,0,0-1.93-4,4.65,4.65,0,0,0-5.59.16c-5.05,3.32-10.82,5.12-16.23,7.67-3.91,1.84-8,3.36-11.49,5.94-1.89,1.4-3.7,3.29-2.24,5.92s3.9,3.76,6.77,2.33c9.06-4.54,18.7-7.88,27.49-13A5.57,5.57,0,0,0,751.12,743.92Zm-58,163.47c-.11-.42-.09-1.42-.58-2A109.31,109.31,0,0,0,671.75,887c-2.19-1.44-4.22-.13-5.68,1.6-1.6,1.9-1.6,4.23.19,5.86,6.48,5.9,13,11.81,19.81,17.31C688.93,914.06,693,911.5,693.07,907.39ZM503.94,647.64c-1,4,.47,6.83,4.24,7s5.62-3.08,5.49-6.41c-.22-6.27-1-12.52-1.8-18.75a4,4,0,0,0-3.76-3.46,4.43,4.43,0,0,0-4.59,2.3,8.14,8.14,0,0,0-.95,5.72C503.19,638.61,503.51,643.22,503.94,647.64ZM371.31,911c5.77-3,13.05-5.76,18.94-11,1.46-1.28,1.12-3.4-.05-5.06a4.72,4.72,0,0,0-5.77-1.77,82.53,82.53,0,0,0-17.72,9.89,4.06,4.06,0,0,0-1.2,5.37C366.38,910.28,367.94,911.15,371.31,911Z" transform="translate(0 -331)"/><path class="cls-9" d="M509.87,1282.45c-43.15,0-86.3-.06-129.46.11-4.38,0-5.7-1-5.35-5.51,1.17-14.94,1.4-30,2.86-44.87,2.29-23.3-.89-45.83-7.78-68-.84-2.7-1.54-5.45-2.38-8.15-1.17-3.8-5.42-6.79-8.68-5.87-4,1.12-3.91,4.26-3.66,7.66a129.72,129.72,0,0,1-2.57,35.28c-4.94,24.77-6.35,49.87-7.75,75-.8,14.37-.7,14.37-14.93,14.37-10,0-20-.13-30,.08-3.71.08-4.41-1-3.82-4.61,6.09-37.32,12-74.66,17.95-112a144,144,0,0,0,1.44-35.37c-1.62-18.41,5-34.72,13.42-50.4,6.23-11.62,16.7-17.72,29.51-20.12,23.33-4.37,46.92-6,70.59-6.24,12-.11,23.92-1.84,35.93-.29,3.66.47,5.76-1.71,5.93-5.72.5-12,1.29-23.95,1.74-35.93.15-4.11,1.24-4.52,5.05-3,22.31,8.79,45.12,11.19,68.49,4.49,6.38-1.83,13-3.08,18.63-6.88,2.84-1.9,3.27-.34,3.29,2.24.08,15.24,2.48,30.19,5.71,45,1.88,8.64,3.49,9.7,12.29,9.24,20.81-1.09,41.61-1.53,62.43.09,14.61,1.13,27.69,5.18,37.83,16.6,3.28,3.69,7.49,6.6,11.42,9.68,10.3,8.06,15.24,18.66,15.25,31.65,0,15.32.19,30.65,0,46-.49,36.85,1.62,73.6,4,110.34.29,4.28-.82,5.4-5,5.27-9.65-.29-19.32-.27-29,0-3.88.1-5-1.22-5.5-5-2.2-15.73-1.6-31.61-2.95-47.37a689.33,689.33,0,0,0-10.4-72.65c-.72-3.69-.57-8.82-5.75-9.47-5.37-.67-6,4.51-7.55,7.93-10.47,22.48-13.22,46.23-11.61,70.73,1.15,17.45,2.27,34.91,5.25,52.17.68,3.92-1.47,3.57-3.95,3.56q-27.24,0-54.48,0Zm-74-39.81c9.69,0,18.17-8.26,18.05-17.62-.12-9.65-8.67-18.58-17.95-18.74-8.61-.15-16.71,9.29-16.82,19.61A16.36,16.36,0,0,0,435.87,1242.64Zm152.07.36c8.26,0,14.57-5.94,14.58-13.83,0-8.9-9-17.7-18.18-17.94-8.29-.22-11.48,5.24-12.69,15.92C570.67,1235.76,578.76,1243,587.94,1243Z" transform="translate(0 -331)"/><path class="cls-7" d="M656.21,1171.41c2.87,7.66,3.82,15.69,4.75,23.67,2.57,21.94,5.43,43.86,5.32,66,0,5.94,1,11.92,2,17.81.43,2.62-.27,3.1-2.64,3.28-10.11.73-10.43.84-11.93-9.13-1.57-10.5-2.61-21.1-3.56-31.68-1-11.27-1.14-22.59-1.14-33.91A94.74,94.74,0,0,1,656.21,1171.41Z" transform="translate(0 -331)"/><path class="cls-12" d="M514.11,965.58c0-6.67-.19-13.34.07-20,.17-4.44-1.24-7.7-4.92-10.21a61.14,61.14,0,0,1-6.53-5.42c-1.12-1-2.16-2.25-1.45-3.93s2.15-2,3.67-2.2c2.89-.43,5.09.77,7.12,2.79,2.89,2.89,5.74,2.68,7.62-1.09,1.69-3.4,4.54-3.8,7.58-3.2a9.68,9.68,0,0,1,7.6,6.55,5.72,5.72,0,0,1-2.93,7.26c-7,3.66-8.13,9.59-7.9,16.73.38,11.49,0,23,.27,34.49.13,4.78-2.69,4.5-5.79,4.45s-5.83,0-5.52-4.76c.46-7.13.12-14.31.12-21.47Z" transform="translate(0 -331)"/><path class="cls-7" d="M365.09,1184.68c3.85,12.09,4.38,23.89,3.71,35.81-.44,7.79-1.18,15.56-1.65,23.35-.73,11.78-1.36,23.56-2,35.34-.29,5.49-4.46,3.09-7.13,3.49-2.87.42-4.23-.82-4-4,2.19-28.31,2.8-56.78,8.6-84.71C363.25,1191.08,362.15,1187.68,365.09,1184.68Z" transform="translate(0 -331)"/><path class="cls-9" d="M520.64,1007.5c-14.59-.49-28.51-2.5-41.57-8.61-1-.46-2.59-.45-2.75-1.8-.19-1.7,1.63-1.89,2.67-2.52,6.5-3.92,13.79-5.68,21.06-7.48,2.43-.6,3.11.28,3.26,2.75.44,7.36,3,9.95,10.17,11.19a30.32,30.32,0,0,0,12.86-.38c4.25-1.11,7.32-3.27,7.2-8.18-.07-2.73,1.21-3.37,3.74-3.06a148.19,148.19,0,0,1,23.44,4.74c1,.29,2.6.08,2.61,1.69,0,1.19-1.34,1.34-2.2,1.74C548.19,1003.66,534.69,1007.43,520.64,1007.5Z" transform="translate(0 -331)"/><path class="cls-14" d="M1020,841.88V818.52q0-125.49-.11-251c0-4.54,1.1-5.73,5.7-5.72q186.74.2,373.47,0c4.4,0,5.82.87,5.81,5.62q-.26,125.47-.09,251a21.13,21.13,0,0,1-1.89,9.15c-8,17.64-9.53,36.59-11.1,55.54-1.8,21.77-4,43.49-13,63.83a79.36,79.36,0,0,1-17.68,25.8,34.51,34.51,0,0,1-12.11,7.79c-12,4.33-21.08.21-25.64-11.68-3.92-10.24-3.42-20.61-.39-30.93,3.57-12.13,7.33-24.21,11-36.32,9.24-30.34,6.86-60.19-3.51-89.79-7.09-20.22-12.33-40.82-11.65-62.52.33-10.53,1.92-20.9,3.53-31.27a98,98,0,0,0,1.2-10.92c.15-3.47-.64-6.85-4.47-8.09-3.53-1.14-6.11.83-8.17,3.46a64.23,64.23,0,0,0-7.62,12.88,201.15,201.15,0,0,0-18,69.26c-1.17,15.44-1.4,31-2.23,46.43a49,49,0,0,1-7.85,25c-3.72,5.59-9.4,9.11-12.49,7.38-5.28-3-5.58-8.34-5.26-13.6.49-8,3.18-15.63,5.22-23.35,1-3.85,3.52-8.63-1.48-11.21-5.24-2.71-7.13,2.59-9.61,5.63a98.41,98.41,0,0,0-18.87,34.91,70.29,70.29,0,0,0-.12,39.88c3.38,11.84,8.26,23.31,9.82,35.6,2.45,19.32-3.51,35.23-20.37,46.07-18.19,11.69-39.92,3.78-46.48-16.74a57,57,0,0,1,0-34.92c3.14-10.17,6.91-20.15,10.2-30.27,4.13-12.72,6.52-26,3-38.92-6.16-22.85-3.38-44.88,2.7-67,.44-1.61.83-3.23,1.13-4.87.5-2.75-.26-5-3-6.16-2.56-1.09-4.63,0-6.16,2-15.15,19.51-26.49,40.75-29.42,65.73-1,8.93-1.76,17.91-2.92,26.82a54.3,54.3,0,0,1-11.73,27.7,21.15,21.15,0,0,1-8.53,6.74c-7.13,2.84-12.09,1.31-16.47-5-5-7.2-6-15.17-3.82-23.4,4.31-16.5,6.23-33,2.33-49.89-1.8-7.79-3.61-15.57-5.35-23.37a121.43,121.43,0,0,1-3-23.27,65.45,65.45,0,0,0-.83-8.94c-.43-2.63-1.9-4.73-4.74-5.16-3.07-.47-5.16,1.26-6.31,3.87a48.64,48.64,0,0,0-2.77,8,155.27,155.27,0,0,1-12.79,34.05c-8.43,16.21-13.72,33.54-17.28,51.44a47.08,47.08,0,0,1-5.73,15.38c-2,3.27-4.06,3.46-6.72.79a20.84,20.84,0,0,1-4.52-7.68c-4-10.42-4.44-21.12-2.53-32a45.66,45.66,0,0,0,.52-10.95c-.21-3.28-.83-6.54-4.43-7.68-4-1.26-6.3,1.44-8.15,4.29C1025.63,832.07,1023.25,836.39,1020,841.88Z" transform="translate(0 -331)"/><path class="cls-13" d="M1404.85,861.85v4.79c0,68.33-.1,136.65.09,205,0,5.26-1.55,6.24-6.46,6.24q-186-.21-372-.11c-6.5,0-6.5,0-6.5-6.47q0-93.74,0-187.47c0-4.48.31-8.7,2.2-13.06,2.3-5.28,3.2-11.17,4.74-16.79a19.69,19.69,0,0,1,3.11-7.34,66.78,66.78,0,0,0,4.07,31.94c2,5.07,4.66,9.57,9.31,12.67,6.25,4.16,12,3.52,16.88-2.19s7.11-12.77,8.75-19.94c3.26-14.3,6.69-28.51,12.76-42,4.52-10,10.26-19.45,13.4-30.34,9.31,23.33,11.26,52.85,5.53,81.69-1.7,8.56-1.18,16.83,2.9,24.79,9.31,18.14,27.86,20.66,41.63,5.46,9.14-10.09,14-22.19,15.68-35.56,1.81-14,2.07-28.23,6.13-41.92,2.26-7.63,4.86-15.09,9.79-21.68-.59,4.16-1.33,8.31-1.72,12.49a76.08,76.08,0,0,0,2.4,25.76c4.39,17.55,3,34.65-3.29,51.51-4.33,11.53-8.94,23-10.56,35.33a65.4,65.4,0,0,0,4.69,34.74c8.61,20.24,33.45,28.81,54,18.88,24.17-11.68,35.45-38.06,28.13-66.45-2.58-10-5.75-19.82-8.75-29.69-4.79-15.72-1.87-30.61,4.6-45.16a16.73,16.73,0,0,1,1.76-2.28c-1.26,7.67-.53,14.17,2.8,20.24,4.4,8,12,10.68,20.32,6.93,9.56-4.3,14.23-12.64,17.8-21.86,4.62-12,4.36-24.57,4.57-37,.45-26.64,3.11-52.85,12.23-78.09,1.19-3.28,2.47-6.54,3.77-9.78.14-.37.68-.58,1.66-1.36-.7,7-1.49,13.35-1.93,19.72-1.55,22,2.6,43.11,9.45,63.83,6.66,20.15,12.73,40.4,11.18,62-1.23,17.09-6.2,33.32-11.37,49.52-3.79,11.89-8,23.68-7.64,36.46a51.19,51.19,0,0,0,3.39,17.07c6.83,17.73,23.54,24.35,40.7,16.14,13.74-6.58,22.39-18.1,29.43-31,9.83-18.06,13.33-37.89,15.53-58,1.37-12.53,2.33-25.09,3.48-37.64Z" transform="translate(0 -331)"/><path class="cls-13" d="M1311.38,721.51a3.88,3.88,0,0,1,.39.6.66.66,0,0,1,0,.41c-.19.44-.43.45-.54,0C1311.12,722.27,1311.27,722,1311.38,721.51Z" transform="translate(0 -331)"/><path class="cls-4" d="M2351.27,1152c.07-4.91-1.16-8.41-1.8-12-1-5.3-.53-10.33,3.39-14.49,1.73-1.83,3.73-3.09,6.1-1.16,2,1.66,2,3.69.43,5.73-3,4-1.85,8.25-.89,12.46,1.15,5.09,2,10.15.16,15.25-.93,2.56-2.44,4.7-5.49,3.71-2.67-.86-3.07-3.17-2.47-5.76A36.19,36.19,0,0,0,2351.27,1152Z" transform="translate(0 -331)"/><path class="cls-4" d="M2381.2,1151.19c-.42-3-1.1-6.25-1.25-9.52a20.29,20.29,0,0,1,1-6.33c.65-2.26,2.2-3.86,4.8-3.21a3.69,3.69,0,0,1,3,4.52c-1.19,4.39-.19,8.5.71,12.7a6.62,6.62,0,0,1,0,2.47c-.48,2.83-1,6.1-4.68,5.92S2380.65,1154.55,2381.2,1151.19Z" transform="translate(0 -331)"/><path class="cls-4" d="M2410.9,1141c-.3,2.26-1.38,4.2-3.92,4.19-2.75,0-4.15-1.88-4-4.6.15-2.41,1.42-4.23,4-4C2409.47,1136.7,2410.76,1138.4,2410.9,1141Z" transform="translate(0 -331)"/><path class="cls-3" d="M2393.3,1276.29c-13.59-.73-24.39-1.39-35.08-3.2a43.21,43.21,0,0,1-18-7c-8.67-6.11-11.23-16-6.84-25.55,5.67-12.34,15.42-20,28.19-23.54,27.15-7.49,53.12-5.55,76.73,11.26,6.36,4.53,12.28,9.46,14.24,17.85.65,2.78.58,4.68-.9,6.88-5.54,8.22-13.52,13.3-22.51,16.7C2416.74,1274.37,2403.88,1276.91,2393.3,1276.29ZM2350,1261.93l-.08,0c1.39,1.31,3.21,1.7,5,2.14,10,2.57,20.31,3.21,30.6,3.57a63.79,63.79,0,0,0,14.93.35c13.57-1.18,26.78-4.07,37.81-12.55,8.05-6.19,8.91-8.36,1.36-15.54-14.82-14.11-33-19.21-53-18.85-1.76,0-2.38,1.09-3.41,2.27-9.06,10.34-19.63,17-34.17,13-1.27-.35-2.38-.83-3.7.22-9.25,7.44-7.71,19.65,3.19,24.8Zm5-33.11a15.22,15.22,0,0,0,11.38-1.65c1.08-.59,2-1.5,1.53-2.76s-1.72-.59-2.6-.33C2361.67,1225.14,2358.11,1226.37,2355,1228.82Z" transform="translate(0 -331)"/><path class="cls-3" d="M503.68,872.05a523.52,523.52,0,0,1-69.74-3.31c-19.24-2.33-38.25-6.24-55-16.64-19.78-12.29-26-28.37-21.25-51.23,4.8-23.14,17.44-41.17,34.64-56.92,25.44-23.31,55.17-36.63,89.18-41A243.94,243.94,0,0,1,509.88,701c33.06-.32,64.32,6.7,93.84,21.75,20.68,10.55,40.32,22.44,57.94,37.79,9.68,8.44,12.81,19.59,16.07,30.82,4.1,14.16-.9,26.44-9.4,37.72-9.79,13-23.47,20.36-37.83,26.88-20,9.09-41.28,12.37-62.94,14.06C547.13,871.66,526.68,872.22,503.68,872.05Zm3.83-10.27c11,0,22,.27,33-.06,21-.64,42-1.74,62.47-6.84,20.77-5.17,40.28-13,55.41-29,14-14.78,14.44-40.81.26-54.27-27.32-25.93-59.76-43.11-95.61-54.14-1.94-.59-3.37-.62-4.77,1.22-3.32,4.34-7.92,7.1-12.74,9.42C527,737,507.31,739.25,487,737.6c-14.27-1.17-27.42-5.46-38.92-14.11-2.45-1.84-4.27-.88-6.4,0a137.61,137.61,0,0,0-44.27,29.38c-12.56,12.57-23.73,26-28.65,43.77-7.19,26,.32,42.21,25.27,52.21a151.61,151.61,0,0,0,36.17,9.42C455.88,861.73,481.7,862.07,507.51,861.78ZM521.1,711.57c-21.31-.7-42.33-.23-62.7,6.8,6.11,2.83,10.8,7.52,19.1,5.1,8.93-2.61,18.7-2.64,27.89-5.07A50.91,50.91,0,0,0,521.1,711.57Z" transform="translate(0 -331)"/><path class="cls-4" d="M454.88,910.42a6.42,6.42,0,0,1-2.73,4.4c-24.87,17.82-44.39,41.1-64.71,63.56a15.94,15.94,0,0,1-1.23,1.56c-2,1.7-4.19,3-6.67.9s-2.58-4.39-.75-7c5.54-8,12.54-14.69,19.1-21.75,12.68-13.67,25.38-27.33,39.88-39.15a47.07,47.07,0,0,1,10.4-6.86A4.75,4.75,0,0,1,454.88,910.42Z" transform="translate(0 -331)"/><path class="cls-4" d="M645.84,979.66c.1,2.11-1.19,3.42-2.75,4.45-2.09,1.38-3.93.23-5.42-1.09-4.16-3.66-7-8.45-10.31-12.82-14.25-18.86-26.79-38.91-40.23-58.33A25.17,25.17,0,0,1,585,908c-1.2-2.61,0-4.56,2-6,2.22-1.63,4.23-.65,5.65,1.22,3.72,4.9,7.56,9.75,10.84,14.94,12.34,19.58,25.79,38.38,39.83,56.77A10.56,10.56,0,0,1,645.84,979.66Z" transform="translate(0 -331)"/><path class="cls-4" d="M323.24,640a6.87,6.87,0,0,1,4.19,1.41c22,14.72,44,29.36,65.58,44.74A16.76,16.76,0,0,1,395.3,688c2.35,2.35,3.61,5,1,7.87s-4.8,1.44-7.36-.43c-19.48-14.25-39.62-27.56-59.72-40.9-3.33-2.21-6.78-4.28-9.41-7.34-1.23-1.42-1.91-3.11-.75-5A4.37,4.37,0,0,1,323.24,640Z" transform="translate(0 -331)"/><path class="cls-4" d="M716.16,655.19c.07,2.7-1.71,4.19-3.67,5.55A533.44,533.44,0,0,0,657.25,705a17,17,0,0,1-1.47,1.35c-2.3,1.68-4.8,2.76-7.22.48-2.62-2.47-1.92-5.44.26-7.54,5.16-5,10.5-9.73,16-14.26,13.24-10.88,26.52-21.72,40.5-31.64a20.08,20.08,0,0,1,4.73-2.74C713.25,649.55,716.15,651.83,716.16,655.19Z" transform="translate(0 -331)"/><path class="cls-3" d="M750.6,846c-6.15,0-12.3,0-18.45,0-3.28,0-6.88-.25-7-4.49s3-5.52,6.8-5.42c19.44.51,38.83-1.15,58.26-1.15h2.49c3.3,0,6.27.8,6.24,4.74,0,3.63-2.61,5.09-6,5.2-10.12.32-20.23.68-30.35,1-4,.11-8,0-12,0Z" transform="translate(0 -331)"/><path class="cls-4" d="M294,818.09c2.88,0,4.88-.06,6.87,0,3.39.13,6,1.63,6.07,5.23s-2.87,4.48-5.87,4.6c-9.46.37-18.92.66-28.37,1-7.14.26-14.27.58-21.4.85a14.42,14.42,0,0,1-3.48-.08c-2.87-.6-5-2.17-4.8-5.38.18-3,2.22-4.27,5.08-4.39,6-.25,11.94-.63,17.91-.71C275.67,819.11,285.31,819,294,818.09Z" transform="translate(0 -331)"/><path class="cls-3" d="M276.25,740.18c.74.23,1.7.48,2.63.8,10.22,3.45,20.56,6.47,31,9.13,3.22.81,5.79,2.58,4.95,6.2s-4.13,4.16-7.23,3.46c-11-2.48-21.75-5.9-32.44-9.46-2.76-.92-5.18-2.8-4.4-6.27C271.35,741.48,273.47,740.42,276.25,740.18Z" transform="translate(0 -331)"/><path class="cls-4" d="M751.12,743.92A5.57,5.57,0,0,1,747.9,749c-8.79,5.1-18.43,8.44-27.49,13-2.87,1.43-5.3.31-6.77-2.33s.35-4.52,2.24-5.92c3.5-2.58,7.58-4.1,11.49-5.94,5.41-2.55,11.18-4.35,16.23-7.67a4.65,4.65,0,0,1,5.59-.16A4.14,4.14,0,0,1,751.12,743.92Z" transform="translate(0 -331)"/><path class="cls-4" d="M693.07,907.39c-.11,4.11-4.14,6.67-7,4.36-6.82-5.5-13.33-11.41-19.81-17.31-1.79-1.63-1.79-4-.19-5.86,1.46-1.73,3.49-3,5.68-1.6a109.31,109.31,0,0,1,20.74,18.45C693,906,693,907,693.07,907.39Z" transform="translate(0 -331)"/><path class="cls-4" d="M503.94,647.64c-.43-4.42-.75-9-1.37-13.61a8.14,8.14,0,0,1,.95-5.72,4.43,4.43,0,0,1,4.59-2.3,4,4,0,0,1,3.76,3.46c.78,6.23,1.58,12.48,1.8,18.75.13,3.33-1.76,6.58-5.49,6.41S502.92,651.63,503.94,647.64Z" transform="translate(0 -331)"/><path class="cls-3" d="M371.31,911c-3.37.14-4.93-.73-5.8-2.52a4.06,4.06,0,0,1,1.2-5.37,82.53,82.53,0,0,1,17.72-9.89A4.72,4.72,0,0,1,390.2,895c1.17,1.66,1.51,3.78.05,5.06C384.36,905.25,377.08,908,371.31,911Z" transform="translate(0 -331)"/><path class="cls-3" d="M435.87,1242.64a16.36,16.36,0,0,1-16.72-16.75c.11-10.32,8.21-19.76,16.82-19.61,9.28.16,17.83,9.09,17.95,18.74C454,1234.38,445.56,1242.66,435.87,1242.64Zm8.15-17.72c-.12-4.25-4.39-9-8-8.86s-7.41,5.61-7.25,10.13a6.93,6.93,0,0,0,7.28,6.63C440.44,1232.72,444.14,1229.06,444,1224.92Z" transform="translate(0 -331)"/><path class="cls-3" d="M587.94,1243c-9.18,0-17.27-7.24-16.29-15.85,1.21-10.68,4.4-16.14,12.69-15.92,9.2.24,18.19,9,18.18,17.94C602.51,1237.06,596.2,1243.05,587.94,1243Zm-.4-9.78c3.14,0,5.12-1.26,5.27-4.33.15-2.88-4.51-7.75-7.56-7.66-3.67.12-3.89,3.49-3.93,5.85C581.24,1231,584.07,1232.81,587.54,1233.22Z" transform="translate(0 -331)"/><path class="cls-8" d="M2348.44,1261.29c-10.9-5.15-12.44-17.36-3.19-24.8,1.32-1,2.43-.57,3.7-.22,14.54,4,25.11-2.64,34.17-13,1-1.18,1.65-2.24,3.41-2.27,20.06-.36,38.23,4.74,53,18.85,7.55,7.18,6.69,9.35-1.36,15.54-11,8.48-24.24,11.37-37.81,12.55a63.79,63.79,0,0,1-14.93-.35c-11.69-2.84-23.7-3.77-35.55-5.71l.08,0Z" transform="translate(0 -331)"/><path class="cls-9" d="M2349.93,1261.9c11.85,1.94,23.86,2.87,35.55,5.71-10.29-.36-20.56-1-30.6-3.57C2353.14,1263.6,2351.32,1263.21,2349.93,1261.9Z" transform="translate(0 -331)"/><path class="cls-10" d="M2355,1228.82c3.12-2.45,6.68-3.68,10.31-4.74.88-.26,2.1-.9,2.6.33s-.45,2.17-1.53,2.76A15.22,15.22,0,0,1,2355,1228.82Z" transform="translate(0 -331)"/><path class="cls-9" d="M2348.44,1261.29l1.57.64Z" transform="translate(0 -331)"/><path class="cls-15" d="M507.51,861.78c-25.81.29-51.63,0-77.28-3.49a151.61,151.61,0,0,1-36.17-9.42c-24.95-10-32.46-26.23-25.27-52.21,4.92-17.75,16.09-31.2,28.65-43.77a137.61,137.61,0,0,1,44.27-29.38c2.13-.9,4-1.86,6.4,0,11.5,8.65,24.65,12.94,38.92,14.11,20.28,1.65,39.92-.6,58.46-9.51,4.82-2.32,9.42-5.08,12.74-9.42,1.4-1.84,2.83-1.81,4.77-1.22,35.85,11,68.29,28.21,95.61,54.14,14.18,13.46,13.73,39.49-.26,54.27-15.13,16-34.64,23.85-55.41,29-20.48,5.1-41.48,6.2-62.47,6.84C529.49,862.05,518.5,861.78,507.51,861.78Z" transform="translate(0 -331)"/><path class="cls-12" d="M521.1,711.57a50.91,50.91,0,0,1-15.71,6.83c-9.19,2.43-19,2.46-27.89,5.07-8.3,2.42-13-2.27-19.1-5.1C478.77,711.34,499.79,710.87,521.1,711.57Z" transform="translate(0 -331)"/><path class="cls-9" d="M444,1224.92c.12,4.14-3.58,7.8-8,7.9a6.93,6.93,0,0,1-7.28-6.63c-.16-4.52,3.77-10,7.25-10.13S443.9,1220.67,444,1224.92Z" transform="translate(0 -331)"/><path class="cls-9" d="M587.54,1233.22c-3.47-.41-6.3-2.19-6.22-6.14,0-2.36.26-5.73,3.93-5.85,3-.09,7.71,4.78,7.56,7.66C592.66,1232,590.68,1233.17,587.54,1233.22Z" transform="translate(0 -331)"/></svg>