<svg id="Layer_1" data-name="Layer 1" xmlns="http://www.w3.org/2000/svg" viewBox="0 0 2999 1307"><defs><style>.cls-1{fill:#fefefe;}.cls-2{fill:#0b0603;}.cls-3{fill:#070302;}.cls-4{fill:#060708;}.cls-5{fill:#060405;}.cls-6{fill:#ca0000;}.cls-7{fill:#fbfb00;}.cls-8{fill:#fcc997;}.cls-9{fill:#cb6500;}.cls-10{fill:#fdfdfd;}.cls-11{fill:#fafafa;}.cls-12{fill:#65cbfd;}.cls-13{fill:#fecb98;}.cls-14{fill:#0031c5;}.cls-15{fill:#339833;}.cls-16{fill:#000100;}</style></defs><path class="cls-1" d="M1499,1574.91q-747.21,0-1494.41.09c-3.75,0-4.59-.84-4.59-4.59Q.15,921.49,0,272.59C0,268.84.84,268,4.59,268q1494.92.15,2989.82,0c3.75,0,4.59.84,4.59,4.59q-.15,648.92,0,1297.82c0,3.75-.84,4.59-4.59,4.59Q2246.71,1574.85,1499,1574.91Zm-58.88-713.43c-20.41-18.66-50.16-15.05-69.45-.31-2.29,1.75-3.65,4.15-1.78,7,2,3,4.75,2.61,7.46,1,2-1.2,3.86-2.65,5.9-3.76,8.62-4.73,17.91-7.94,27.7-6.84s19.44,3.71,25.16,13.17c.25.41.74.92,1.14.93,5,.16,3.86,3.8,3.86,6.74q0,226-.07,451.92c0,4.25.64,5.82,5.49,5.82q353.22-.22,706.44,0c4.17,0,5.1-1,5.1-5.11q-.17-354,0-707.89c0-4.13-.92-5.12-5.1-5.12q-353.22.17-706.44,0c-4.84,0-5.5,1.55-5.49,5.8q.17,115.24.08,230.47Zm-1296,121.75c-2-1.37-3.25-2.34-4.61-3.18C117.45,966.36,94,957.32,67.4,959.94c-5.82.57-11.63,1.56-16.46,5.2-2.44,1.84-3.81,4.45-1.76,7.39,1.89,2.72,4.46,2.45,7,.86C62,969.84,68.55,969,75,969.21c24,.66,45.51,8.73,64.68,23.19,3.31,2.5,4.61,5.27,4.61,9.61q-.22,165.23-.22,330.44c0,4.5,1,5.69,5.62,5.68q123.73-.23,247.47-.11,164.24,0,328.47.12c4.69,0,5.53-1.34,5.53-5.7q-.17-275.2-.09-550.41a27.22,27.22,0,0,0,0-3.5c-.52-4,1-5.1,4.75-3.66,7.76,3,15.66,5.63,23.37,8.72,26.73,10.73,49.88,26.6,68.74,48.47C832.13,837,836,842.23,840,847.33c2.07,2.61,4.6,4.26,7.67,1.88,2.79-2.17,2.09-5.06.33-7.59-2.1-3-4.31-5.94-6.65-8.76-1.83-2.21-2.3-3.27,1.31-4,6.57-1.33,13.14-2.3,19.83-1.88a289.47,289.47,0,0,1,45.87,6.74C930,838.63,950,847.5,968.92,859c2.9,1.76,6.13,2.82,8.26-.86s-.47-5.92-3.37-7.61c-5.46-3.18-10.9-6.44-16.53-9.32-24.13-12.36-49.92-18.9-76.73-22.41-14.7-1.92-29.22-2.93-43.51,1.44-4,1.23-6.07.45-8.78-2.37-25.11-26.21-56.33-42.19-90.6-52.44-5.8-1.73-6.73-3.64-6.72-8.92.17-69,.07-138,.23-207,0-4.54-1.12-5.61-5.63-5.61q-287.71.18-575.45,0c-5.27,0-6,1.52-6,6.29q.19,213.21.1,426.43Zm2711.71-40.17q0-195.72.1-391.43c0-4.39-.88-5.71-5.56-5.71q-288,.21-575.93,0c-4.46,0-5.65,1-5.65,5.58q.18,391.41,0,782.84c0,4.33.79,5.72,5.51,5.71q288-.21,575.93,0c4.42,0,5.7-.92,5.7-5.57Q2855.77,1138.76,2855.87,943.06ZM850.29,1268.75c-1.85.64-3-.34-4.16-.79a30.64,30.64,0,0,0-12.67-2.37c-3,.18-5.29,1.59-5.32,4.81,0,2.95,2,4.48,4.85,4.65,6.14.37,11.6,2.78,17,5.54,29.06,15,46.64,39.38,57,69.67a50,50,0,0,0,2.68,7,4.21,4.21,0,0,0,5.06,2.27,4.39,4.39,0,0,0,3.48-4.84,20.83,20.83,0,0,0-1.05-4.84c-1.32-4.21-2.75-8.37-4.12-12.48h209.5c-5.91,6.09-11.34,11.75-15.23,18.64-1.45,2.56-1.57,5.22,1.21,7s5.13.54,6.93-1.76c2.26-2.88,4.21-6,6.56-8.81,16.66-19.85,39.28-29.11,63.55-35.17a29.92,29.92,0,0,1,13.37-.57c-1.88,2.21-3.26,3.8-4.6,5.42-2.17,2.66-3.69,5.61-.47,8.32,3,2.52,5.6.66,7.77-1.73,2.79-3.09,5.5-6.26,8.28-9.36,9.47-10.55,20.18-19.37,33.88-23.95,17.42-5.83,35.13-8.87,53.52-5.8,2.8.47,5-.5,5.84-3.39s-.76-5-3.33-5.9a23.64,23.64,0,0,0-6.82-1.38c-11.85-.62-23.72-.4-35.27,2.39-5.1,1.23-5.59-.2-5.59-4.68q.15-168.72.2-337.44c0-4.55-1.24-5.32-5.48-5.31q-195.48.18-391,0c-4.51,0-5.71,1.05-5.7,5.64q.21,161.73.11,323.45Zm469.56-686q0-96,.09-192c0-4.25-.64-5.82-5.49-5.81q-192.23.22-384.45,0c-4.2,0-5.08,1-5.08,5.14q.18,192.45,0,384.91c0,4.22,1.07,5.08,5.16,5.08q192.23-.18,384.45,0c4.4,0,5.44-1,5.43-5.44Q1319.72,678.69,1319.85,582.71ZM1935,463.51c6.66-2.81,18.6-3.07,30.4-.94,17.91,3.23,34.65,9.35,49.63,19.91,6.3,4.44,13.2,7.19,21,6.33,10.91-1.2,21.75-2.92,32.69-4,31-3.15,58.76,4.25,83,24a38.23,38.23,0,0,0,4.38,3.29,4.35,4.35,0,0,0,5.9-.78c1.85-2,1.63-4.29,0-6.37a19.22,19.22,0,0,0-2.84-2.79c-22.13-18.73-47.84-27.86-76.68-28-14.17-.09-28.24,1.93-42.19,4.23-7.55,1.24-14,0-20.31-4.33a125.13,125.13,0,0,0-72.27-22.5c-5.43,0-11.49-.89-15.9,2.85-3,2.53-3.86,1.21-5.57-.76a159.3,159.3,0,0,0-23.54-22.32c-32.3-24.56-67.38-41-109.39-36.34a121.79,121.79,0,0,0-29,7.22c-2.82,1-4.39,3.25-3.29,6.32,1,2.78,3.41,3.48,6.15,2.91a32.09,32.09,0,0,0,3.79-1.21c15.51-5.24,31.47-7.72,47.72-5.71,28.69,3.55,53.73,15.89,76.39,33.38,15.43,11.9,28.3,26.25,39.55,42.1,2,2.84,4.57,4.91,7.93,2.41,3.09-2.3,2-5.33.19-8C1940.36,470.85,1937.76,467.4,1935,463.51Zm-1311.39-45c5.56-.55,11-.35,16.54-1,16.27-1.83,31.74-7.44,47.9-9.79,3.17-.46,5.78-2.43,5.1-6.18-.7-3.93-3.83-4.2-7-3.56-7.17,1.44-14.42,2.67-21.46,4.62-19,5.29-38.43,7.78-57.85,4.83-29.19-4.45-57-13.42-81.47-30.78a31.77,31.77,0,0,0-21.21-5.86,96,96,0,0,0-19.56,3.82,189.18,189.18,0,0,1-73.2,6.18c-20.22-2.25-37.45-11.15-52.25-25-2.58-2.4-5.63-4.42-8.65-1-2.81,3.18-.59,5.87,1.86,8.15,13.66,12.74,29.29,22,47.7,25.85,18.11,3.81,36.43,3.12,54.73,1.67,14.69-1.15,28.72-5.58,42.95-9,8.62-2,16.47-1.21,23.62,4.29,1.58,1.21,3.32,2.22,5,3.28C556.12,407.66,588.72,416.84,623.56,418.52Zm707.56,590.21a24.34,24.34,0,0,0-13.51,2.91c-2.48,1.43-4.32,3.44-2.9,6.54s3.9,3.38,6.75,2.33c13.75-5,25.12,0,35.26,8.81,6.31,5.45,8.91,5.55,13.88-1.38,3.27-4.55,7.33-5.92,12.66-4,5.78,2,9.58,6.48,12.84,11.36,1.94,2.9,4,5.36,7.63,3.1s2.61-5.62.81-8.39c-4-6.06-8.83-11.38-15.5-14.47-8.67-4-17-3.21-24,3.65-2.14,2.1-3.11,1.14-4.82-.12A50.74,50.74,0,0,0,1331.12,1008.73Z" transform="translate(0 -268)"/><path class="cls-2" d="M1440.12,861.48v-6.3q0-115.23-.08-230.47c0-4.25.65-5.81,5.49-5.8q353.22.21,706.44,0c4.18,0,5.1,1,5.1,5.12q-.17,353.94,0,707.89c0,4.13-.93,5.12-5.1,5.11q-353.22-.16-706.44,0c-4.85,0-5.5-1.57-5.49-5.82q.15-226,.07-451.92c0-2.94,1.11-6.58-3.86-6.74-.4,0-.89-.52-1.14-.93-5.72-9.46-15.36-12.08-25.16-13.17s-19.08,2.11-27.7,6.84c-2,1.11-3.9,2.56-5.9,3.76-2.71,1.63-5.46,2-7.46-1-1.87-2.8-.51-5.2,1.78-7C1390,846.43,1419.71,842.82,1440.12,861.48ZM1446.73,978v341.92a49,49,0,0,1,0,5c-.33,3.12,1,4.1,4,4,4.5-.18,9-.05,13.5-.05,39.66,0,79.32-.06,119,.09,4.29,0,5.77-1.22,6-5.56.6-9.78,1.79-19.53,2.73-29.3,2.57-26.67,6-53.22,10.71-79.62,2.23-12.61,4.39-25.16,1.63-38.13-1.33-6.26-.77-12.92.25-19.4,2.8-17.81,13.29-31.34,24.72-44.26a30.21,30.21,0,0,1,11.53-7.75c20.26-8,41.47-9.17,62.84-8.33,16.14.63,32.23,2.45,48.42,1.4,2.28-.15,4.25,0,4.29-3.33.12-11.65.42-23.31.71-35a3.69,3.69,0,0,0-2-3.68c-9-5.12-16-12.37-22.59-20.2-12.21-14.63-23.72-29.55-28.84-48.53-8.59-31.84-17.07-63.62-19-96.81-1.31-23.1-3.1-46.17-2.5-69.34.25-9.8,3-18.12,11.72-23.86,3.74-2.46,7.27-5.26,11.06-7.7,12.8-8.25,26.72-14.25,40.65-20.24,29.55-12.71,60-19.09,92.46-15.53,40.4,4.44,76.83,17.29,106.25,46.54a17.52,17.52,0,0,1,5.49,11.41c1.15,15.09,1.63,30.18,1.51,45.36A319.54,319.54,0,0,1,1938,945.67c-12.41,42-32.89,78.87-68.22,106.18-1.44,1.12-2.81,2.24-2.8,4.43.09,16-.64,32,2.07,47.84.42,2.48,1.38,3.82,4.16,3.9,11.33.32,22.63.34,34-.43,16.3-1.12,32.65-1.8,48.87.65,12.4,1.86,22.11,8.71,31.69,16.68,17.93,14.91,27.26,33.19,26.2,56.55-.44,9.81-1.46,19.59-1.71,29.39-1,37.66.38,75.29.81,112.94,0,4.32,1,5.16,5.09,5.15q61.74-.23,123.48,0c5.14,0,6.35-1.4,6.35-6.42q-.19-344.41,0-688.83c0-4.89-1.4-6-6.12-6q-344.44.16-688.89,0c-5.17,0-6.29,1.37-6.28,6.38Q1446.85,806.06,1446.73,978Zm430.59,350.83c17.66,0,35.33-.21,53,.14,5.19.1,6-1.66,5.52-6.22-2-20.88-4.29-41.75-5-62.75-.72-22,3.49-42.74,15.5-61.52,1.48-2.32,3.11-4.55,6.35-3.71,3.08.79,4,3.35,4.23,6.13.27,3.15.07,6.34.42,9.48,4.36,38.56,11.56,76.75,15.43,115.38.24,2.37,1.23,3.13,3.47,3.11,8.33-.07,16.66,0,25-.05,1.28,0,2.92.19,2.46-2-1.37-6.59-.67-13.27-.83-19.9-1-41.8-2.19-83.58.9-125.36,1.39-18.83-6.16-33.87-19.88-47s-29.34-18.3-47.61-17.85c-5.33.13-10.67.06-16,.25-16.63.57-33.22,2.66-49.91,1-7.15-.72-9.26-2.29-10.58-9.47a199,199,0,0,1-2.75-44.8c.14-3.24-.29-4.33-3.72-2.58-9.56,4.85-19.55,8.49-30.27,9.83-1.16.15-2.89.32-2.76,1.59.45,4.37-2.32,9.26,2.15,13.06,2.33,2,2.34,4.59,0,6.46-2.17,1.72-2.36,3.7-2.31,6.13.2,9-.91,18.22.79,26.9a43.45,43.45,0,0,1-.09,16.74,97.37,97.37,0,0,0,.17,31.82,43.47,43.47,0,0,1-.15,16.2c-1.73,9.38-.82,19.24-1.08,28.9,0,1.58-.24,3,2,3.26a4.34,4.34,0,0,1,4.24,4.17c.23,2.79-1.66,4.31-4,5s-2.84,2.28-2.9,4.51c-.22,9-.52,18-1,27-.15,3.22-.27,5.83,4.11,6.3a4.3,4.3,0,0,1,3.73,5.12,4.09,4.09,0,0,1-4.54,3.78c-3.43-.26-3.77,1.47-3.74,4.2q.16,11,0,22c0,2.87-.14,5.22,3.75,5.58,2.08.19,3.46,2,3.53,4.28a4,4,0,0,1-3.48,4.28c-6.06,1-2.82,5.47-3,8.3-.23,3.41,3,2.31,4.92,2.32C1841.33,1328.88,1859.33,1328.85,1877.32,1328.84Zm-137,0h64.48c1.93,0,4.74.49,4-2.64-.61-2.6,2.51-6.87-2.74-7.65-2.64-.39-4.61-1.42-4.86-4.11s1.59-4.48,4-5c2.87-.57,3.14-2.21,3.11-4.66-.09-7.82,0-15.65.11-23.48,0-2-.31-3.37-2.17-4.59-3.37-2.22-2.93-5-.06-7.35,1.53-1.23,2.51-2.35,2.55-4.46.16-9.33.46-18.65.78-28,.07-2.22,0-4-3-4s-5-1.55-5-4.47c0-3.17,2.47-4.64,5.46-4.62,2.81,0,3.22-1.46,3.27-3.79q.29-14.49.82-29c.1-2.68-.2-4.4-3.6-4.41a4.35,4.35,0,0,1-4.58-4.39,4.12,4.12,0,0,1,4.44-4.42c3.75,0,3.8-2,3.77-4.79-.12-10.83-.11-21.66,0-32.48,0-2.53-.15-4.46-3.11-5.32a4.29,4.29,0,0,1-3.11-4.63,4.13,4.13,0,0,1,3.89-3.92c2-.29,2.36-1.45,2.33-3.15-.12-8.33-.24-16.66-.29-25,0-1.81-.55-2.81-2.56-2.78-2.87,0-5-1.35-5.16-4.28s2.15-4.36,4.8-4.83c2.34-.42,2.9-1.78,2.78-3.91q-.21-4-.09-8c.07-2.21-.67-3.4-3-3.57-12.9-1-25.27-4.26-37.33-8.78-2.54-1-3.29-.19-3.24,2.34.24,12.31-1.21,24.62,0,36.94.36,3.82-1.44,6.43-5.27,6.35-15.13-.32-30.26,1.22-45.41-.59a165.26,165.26,0,0,0-45.84.59c-1.47.23-4.18-.37-3.91,1.84.4,3.24,1.77,6.39,3,9.48.79,2,3,1,4.46,1.43,2.25.68,4,1.89,4.26,4.34a3.91,3.91,0,0,1-3.51,4.66c-2.51.37-2.78,1.35-2.39,3.66,1.57,9.4,2.26,18.89.94,28.36-.77,5.55-.19,10,5.35,12.94,2.3,1.21,3.76,3.59,2.08,6.33s-4.37,3-6.93,1.38c-2.73-1.79-3.22-.57-3.76,1.93a129.49,129.49,0,0,1-4,15.47,8.39,8.39,0,0,0,.46,7.53c9.78,17.33,12.17,36.07,10.68,55.57-1.56,20.42-2.91,40.86-4.71,61.27-.36,4.09.83,4.65,4.41,4.62C1698,1328.77,1719.12,1328.84,1740.28,1328.85Zm65.83-268c-1.5-4.28-1.13-7.44,4-8.1,2.47-.32,1.82-2.41,1.88-4,.34-7.65.51-15.31,1-23,.18-3-.21-5.17-3-7.13-3.64-2.52-3.13-6.72.9-8.12,2.52-.87,2.9-2.13,2.9-4.32,0-5,0-10,.31-15,.18-3-.07-5.08-3.55-5.93a4.26,4.26,0,0,1,.9-8.37c3.29-.1,3.07-2.2,3.13-4.45.33-12,.66-24,1.13-35.95.11-2.69.2-4.6-3.15-5.61-4.63-1.4-2.86-5.8-3.09-9a3.9,3.9,0,0,1,4-4.29c2.83-.17,2.48-2,2.49-3.89.09-10.83.12-21.65.35-32.48.06-2.95-.2-5.08-3.72-5.84a4.27,4.27,0,0,1-3.44-4.87,4,4,0,0,1,3.93-3.88c3.35-.06,3.11-2.06,3.06-4.36-.17-8.33-.33-16.65-.31-25,0-3-.32-5.05-4-5.53a4.42,4.42,0,0,1-4-4.94,4.24,4.24,0,0,1,4.9-3.94c2.8.2,2.82-1.44,2.79-3.47-.09-7.66-.23-15.33-.05-23,.09-3.51,0-6.13-4.47-6.64a4.11,4.11,0,0,1-3.49-4.33c.07-2.19,1.44-4.33,3.51-4.24,4.78.21,4.32-2.65,4.11-5.72-.15-2.16-.1-4.33-.13-6.5-.11-6.35-.11-6.4-6.24-5.89-3.65.3-7.3.71-10.92,1.24-26.41,3.88-50.48,14.44-74.12,26.14a126.21,126.21,0,0,0-27.89,18.35c-1.61,1.42-3.07,2.72-3.12,5.31-1.1,51.31,2.32,102,15.35,152,6.94,26.64,18.58,49.62,37.59,69.23,5.41,5.58,11.23,10.52,18.25,13.71a137.2,137.2,0,0,0,30.3,10C1798,1060,1801.81,1061,1806.11,1060.83Zm135.18-205.24c.08-17.71,0-29.86-1.3-42a8.75,8.75,0,0,0-2.41-5.77c-30.42-30.65-68.64-42-110.36-44.77-2.24-.15-3,.8-2.9,2.91.12,3.49.16,7,.14,10.49,0,1.66.21,3,2.21,3.23,2.46.3,4,1.69,4.23,4.16s-1.48,4.07-3.6,4.86c-2.38.88-2.65,2.53-2.61,4.72.14,8.16.18,16.32.19,24.48,0,2,0,3.58,2.59,4a4.22,4.22,0,0,1,3.74,4.1c.15,2.34-1.39,3.74-3.35,4.47a3.66,3.66,0,0,0-2.76,4.06c.16,9.49.16,19,.17,28.48,0,1.85.26,3.21,2.52,3.51a4.26,4.26,0,0,1,4,4.36c.06,2.51-1.62,4-3.86,4.6s-2.53,2-2.52,4.13c0,12-.08,24-.19,36,0,2.37-.29,4.62,3,5.27,1.72.35,3.4,2.44,2.69,3.68-2.1,3.69-2.13,7.72-3,11.63-.12.54-.86,1-1.39,1.38a4,4,0,0,0-1.48,3.51q-.48,15.72-1,31.46c-.06,1.67.18,2.92,2.15,3.26,2.18.38,3.74,1.69,3.89,4,.17,2.49-1.48,4-3.61,4.85a3.85,3.85,0,0,0-2.86,4.07c-.07,6.66-.28,13.32-.53,20-.07,2,.37,3.13,2.61,3.33s4.14,1.62,4.28,4.11c.15,2.77-1.68,4.37-4.21,4.74s-3.09,1.82-3.18,4.12c-.39,10.8-1.17,21.56-.62,32.41.21,4.2,1.54,3.73,4.32,3.08,15.28-3.63,29.37-9.88,41.55-19.84,26.55-21.71,44-49.81,55.32-81.73C1935.59,923.7,1942.5,887.51,1941.29,855.59Zm-326,473.25c3.5,0,7-.26,10.49.07,4.66.43,7.72-.26,7.36-6.05-.16-2.58.84-5.24,1.29-7.86,6-35.3,14.78-70.12,17.92-105.9.32-3.62,0-7.93,2.31-10.62,4.94-5.76,4.87-12.91,6.81-19.5.9-3.07.72-5.54-1.81-8.12-2.89-2.93-2.13-6,1.69-7.41,2.25-.85,2.67-2,2.69-4,.06-7.66.24-15.3-.82-23-.53-3.79-1.17-6.28-5.84-5.8a4.18,4.18,0,0,1-4.59-3.78,4,4,0,0,1,3.43-4.77c3.7-.6,3.61-2.35,2.64-5.21-2.33-6.9-3-7.41-9.88-4.67a53.39,53.39,0,0,0-8.83,4.62c-7.58,4.8-11.66,12.65-16.68,19.66-8.83,12.34-11.41,26.15-9,40.87a82,82,0,0,1-.21,27.82c-7,39.74-11.94,79.73-15.35,119.92-.26,3,.51,3.83,3.34,3.74C1606.67,1328.74,1611,1328.85,1615.34,1328.84Zm332.77-109.67a2.7,2.7,0,0,0-2,2.11c-2.76,9.77-5.12,19.59-5.21,29.84-.2,23.65,2.85,47.08,4.71,70.59.57,7.18.94,7.15,8.1,7.15a35.37,35.37,0,0,1,4.49,0c4.14.56,5-1.06,4.52-5.09-2.94-23.89-6-47.77-9.74-71.55C1951.2,1241.34,1949.74,1230.38,1948.11,1219.17Zm-286.27,3.07c-1.9,1.07-1.36,2.53-1.52,3.77-.62,5.11-1,10.26-1.89,15.32q-7.59,41.67-15.52,83.27c-.71,3.67.29,4.42,3.55,4.3,4-.15,8-.11,12,0,2.68.06,3.82-.27,4-3.75,1-14.41,1.53-28.85,3.19-43.22a220.41,220.41,0,0,0,1.16-42.28A40.29,40.29,0,0,0,1661.84,1222.24Z" transform="translate(0 -268)"/><path class="cls-3" d="M144.16,983.23v-6.61q0-213.23-.1-426.43c0-4.77.76-6.29,6-6.29q287.73.26,575.45,0c4.51,0,5.64,1.07,5.63,5.61-.16,69-.06,138-.23,207,0,5.28.92,7.19,6.72,8.92,34.27,10.25,65.49,26.23,90.6,52.44,2.71,2.82,4.74,3.6,8.78,2.37,14.29-4.37,28.81-3.36,43.51-1.44,26.81,3.51,52.6,10.05,76.73,22.41,5.63,2.88,11.07,6.14,16.53,9.32,2.9,1.69,5.51,3.92,3.37,7.61s-5.36,2.62-8.26.86C950,847.5,930,838.63,908.36,833.73A289.47,289.47,0,0,0,862.49,827c-6.69-.42-13.26.55-19.83,1.88-3.61.72-3.14,1.78-1.31,4,2.34,2.82,4.55,5.75,6.65,8.76,1.76,2.53,2.46,5.42-.33,7.59-3.07,2.38-5.6.73-7.67-1.88-4-5.1-7.87-10.35-12.11-15.27-18.86-21.87-42-37.74-68.74-48.47-7.71-3.09-15.61-5.75-23.37-8.72-3.79-1.44-5.27-.35-4.75,3.66a27.22,27.22,0,0,1,0,3.5q0,275.21.09,550.41c0,4.36-.84,5.7-5.53,5.7q-164.23-.24-328.47-.12-123.73,0-247.47.11c-4.58,0-5.63-1.18-5.62-5.68q.19-165.21.22-330.44c0-4.34-1.3-7.11-4.61-9.61C120.5,977.94,99,969.87,75,969.21c-6.44-.18-13,.63-18.77,4.18-2.58,1.59-5.15,1.86-7-.86-2-2.94-.68-5.55,1.76-7.39,4.83-3.64,10.64-4.63,16.46-5.2,26.63-2.62,50.05,6.42,72.15,20.11C140.91,980.89,142.18,981.86,144.16,983.23Zm7.78-42.9v92.48q0,145.47,0,291c0,3.25-.17,5.51,4.51,5.49q78.24-.26,156.48,0c3.89,0,4.72-1.21,4.59-4.87-.54-14.65-.78-29.31-.13-44,1.15-25.71,14.19-47.06,41.82-55.23,5.43-1.61,10.8-3.42,16.18-5.18a62.68,62.68,0,0,0,17.1-8.09c5.69-4.05,5.86-10.68.48-15-31-24.61-51.25-56.48-63.41-93.83-15.2-46.68-20.48-94.49-17.35-143.43,1-15.64,6.65-27.11,21.06-34.41a318.85,318.85,0,0,1,34.65-15.44c36.43-13.31,73.75-18.68,112.44-13.12,21.43,3.08,41.78,9.59,61.94,17.2,6.31,2.38,10,5.37,13.35,11.58,11.67,21.6,16.7,45.2,22.8,68.52,1.24,4.72,2,10-.29,14.22-2.91,5.32-2,10.07-.64,15.26,4.11,16.08,3.4,31.39-7.71,44.88a3.53,3.53,0,0,0-.83,3.24c1.22,5.25.7,10.62,1.06,15.93,1.17,17.35-2.45,33.6-10.4,49.2-10.09,19.79-24.37,36.06-40.4,51-1.1,1-2.5,1.8-2.45,3.53.14,4.33.27,8.66.54,13a4.18,4.18,0,0,0,3.38,3.86c8,2.39,15.1,7,22.82,10.09,16.07,6.4,25.33,18.53,29.67,34.7,6.22,23.15,6.78,47,8.5,70.75.31,4.27,1.16,5.58,5.63,5.56,42.66-.18,85.33-.09,128-.12,7.25,0,6.55,1,6.55-6.76q0-381.69,0-763.37c0-6.7,0-6.7-6.7-6.7q-278.47,0-556.95-.11c-4.91,0-6.4,1-6.39,6.2Q152.07,749.36,151.94,940.33Zm308,388.79c21.33,0,42.66-.15,64,.12,4.74.06,5.93-1.59,5.06-5.74-1.33-6.32-.26-12.61.26-18.89.27-3.33,1.41-6.65,5.48-6.42,4.23.25,4.7,3.6,4.27,7a98.94,98.94,0,0,0-.28,19.92c.27,3.43,1.54,4.09,4.56,4,8.16-.16,16.33-.23,24.49,0,3.63.11,4.46-1.15,4.33-4.59-.5-13.66-2.3-27.19-3.54-40.78-1-11.48-2.3-22.84-6.51-33.69-3.85-9.87-9.91-17.61-20-21.8-8.44-3.52-16.29-8.34-25.06-11.18-5.33-1.72-8.7-5.4-9.19-11.27-.16-2-.66-4-.66-5.94,0-2.74-.79-3.59-3.56-2.52a30.52,30.52,0,0,1-9.63,2.47c-2.43.11-4.26-1-4.89-3.39a4.34,4.34,0,0,1,2.59-5.36,53.39,53.39,0,0,1,6.14-2.08,40.81,40.81,0,0,0,13.81-7.71c6.72-5.56,12.5-12,18.26-18.41,21-23.51,34-49.93,30.29-82.59-.43-3.74-1.58-3.16-3.87-1.92-7.61,4.13-15.87,5.9-24.41,6.6-5.64.46-11.27,1.11-16.92,1.33-19.62.76-39.29,2.77-58.88.45-12.52-1.48-25.15-3.4-36.63-9.2-15.23-7.69-19-18.9-12.1-34.42,5.13-11.5,12.19-21.75,20-31.52,22.73-28.3,52.07-38.1,87.2-30.59,18.35,3.93,34.34,13.37,49.73,23.78,3.85,2.61,5.16,2.1,5.34-2.5a29.77,29.77,0,0,0-1.12-7.85c-1-4.38-2.5-8.65-3.42-13-3.82-18.2-9.65-35.65-18.67-52-1.13-2-2.08-4-4.49-5.06-28.93-12.38-59-19.86-90.55-20.23-22.83-.27-45.07,3.57-66.82,10.37-17.69,5.54-34.89,12.13-50.78,21.89-6.77,4.15-10.58,9.61-10.91,17.66-.31,7.81-1.38,15.59-1.54,23.4-.64,31.74,2.17,63.08,9.48,94.11,11.32,48,31.46,90.49,72.15,120.84a8,8,0,0,1,3.17,5.92c1.51,12.33-1.91,18.69-13.08,24.66-11,5.87-23.07,8.58-34.64,12.75-17.95,6.48-27.88,19.24-30.38,37.92-2.26,16.92-.56,33.94-1,50.9-.1,4,1.52,4.59,5,4.55,14.66-.16,29.33-.26,44,0,4.6.1,5.56-1.44,5.42-5.69-.35-10.48-.23-21-1-31.44-.23-3.27.93-6.75,5.11-6.59,3.71.15,4.6,3.09,4.67,6.47.24,10.82.81,21.63.87,32.45,0,3.75,1.07,4.8,4.81,4.77C417.25,1329,438.57,1329.12,459.9,1329.12Zm34-251.43c9.31-.49,18.63-.89,27.94-1.49,8.47-.55,17-1.17,25-4.15,13.36-4.91,21.66-14,23-28.52.74-7.93-1.4-15.53-3.1-23.17-.47-2.13-2.05-3.36-3.7-4.52a205.57,205.57,0,0,0-35.87-20.61c-3.91-1.72-6.92-2.77-9.89,2-2.46,3.92-6.83,6.32-11.09,8.27-10.48,4.82-21.33,8.73-32.83,10-9.47,1-19.18,1.15-28-3-3.65-1.73-5.1-.87-7.31,1.62a139.06,139.06,0,0,0-21,30.89,38.41,38.41,0,0,0-3.16,8.39,10.87,10.87,0,0,0,3.56,11.24c5.09,4.7,11.35,6.72,17.81,8.53C454.59,1078.47,474.18,1078.62,493.89,1077.69Zm-36.31-79.53c10.43.53,20.32-1.71,29.9-5.49,1.54-.61,4.15-1.36,3.37-3.52-.63-1.73-3-.37-4.52-.35a33.29,33.29,0,0,0-4,.37A56.6,56.6,0,0,0,457.58,998.16Z" transform="translate(0 -268)"/><path class="cls-4" d="M2855.87,943.06q0,195.7.12,391.42c0,4.65-1.28,5.57-5.7,5.57q-288-.16-575.93,0c-4.72,0-5.52-1.38-5.51-5.71q.15-391.42,0-782.84c0-4.6,1.19-5.59,5.65-5.58q288,.18,575.93,0c4.68,0,5.56,1.32,5.56,5.71Q2855.79,747.35,2855.87,943.06Zm-10,24.49c-15.44,7.54-31.34,9-47.68,7.77a29.57,29.57,0,0,0-8.41.82c-19.35,4.25-38.22,1.49-56.63-4.48-7.72-2.5-14.3-2.76-22,.36-18.26,7.37-35.41,4.87-49.78-9.36-10.42-10.3-10.13-22.09.31-32.5,9.28-9.26,21.1-13.09,33.65-15,5.78-.87,10.25-3.2,13.72-8,13.89-19.31,33.07-27.07,56.44-25.21a6.15,6.15,0,0,0,4.1-1.33c22.45-14.45,46.34-16.51,71.26-7.77,4.45,1.56,5.41,1.23,5.41-3.7q-.21-154.45,0-308.93c0-4.68-.94-6-5.86-6q-278.71.22-557.42.13c-6.38,0-6.39,0-6.39,6.47V888.78c0,10.68,0,10.77,10.79,9.58,24.11-2.67,43.42,5.89,58.25,24.83,1.83,2.33,3.57,3.34,6.61,3.2,25.21-1.14,46.89,6.72,64,25.78a9.14,9.14,0,0,0,6.93,3.17,51.75,51.75,0,0,1,25.06,7.68c13.75,8.5,17.09,24.23,8.15,37.71a34,34,0,0,1-14.73,12.36A68,68,0,0,1,2409,1019c-4.31-.27-8.61-.67-12.78,1.23-14.68,6.73-30,8.11-45.34,3.34-13.07-4-26-3.22-39-.94-10.4,1.82-20.86,2.43-31.32.64-3.17-.54-4,.23-4,3.41q.12,77.73,0,155.47c0,3.31.87,3.8,4,3.11,19.69-4.35,39.32-9,59.26-12a170.36,170.36,0,0,0,49.24-15.85c8.42-4.1,12.79-10.28,14.71-18.79,1.87-8.28,3.47-16.62,5.05-25,1.69-8.84,3.78-11.2,12.81-12.44a208.8,208.8,0,0,1,23.37-2.26c79.65-1.89,159.27-2.52,238.57,7.17,8.33,1,10.16,2.59,10.2,10.87a230.24,230.24,0,0,0,2.1,26.37c1.72,14.41,9.55,24.21,22.15,30.54a98.52,98.52,0,0,0,26.41,9c20.65,3.79,41.29,7.57,61.74,12.31,13.12,3,25.9,7.66,39.74,8.46ZM2561.38,1331.2h210.95c23.32,0,46.65,0,70,0,2.42,0,3.93,0,3.92-3.27q-.18-55.47,0-111c0-2.57-.91-3.43-3.32-3.78-7.24-1.07-14.51-2.06-21.59-4a626.77,626.77,0,0,0-67.37-14.55,152.34,152.34,0,0,1-35.53-9.87c-18-7.7-29.87-20.29-32.15-40.44-.87-7.61-1.84-15.23-2.12-22.87-.15-4.11-1.05-4.87-5.11-4-28.87,5.95-58,11.24-87.42,12.29-56.84,2-113.69,2.26-169.06-14.1-3.2-.94-4.29-.34-4.84,3.07-1.41,8.71-2.92,17.42-5.55,25.87-2.16,7-5.26,13.85-11.72,17.47-15.43,8.65-31.53,15.89-49.19,18.91-23.32,4-46.47,8.8-69.58,13.84-4.18.91-5.19,2.46-5.18,6.54q.24,62,0,124c0,4.79,1.11,6,6,6Q2421.92,1331.09,2561.38,1331.2ZM2276.55,961c0,15.81.1,31.62-.09,47.43,0,3.36,1,4.64,4.23,5.24,10.85,2,21.53.8,32.25-1,12.89-2.13,25.67-2.89,38.53,1.11,8.89,2.77,18.39,5,27.51,1.78a117.22,117.22,0,0,1,41.44-6.66c8.08.13,16-2.9,22.77-7.88,9.4-6.91,14-23.72-2.94-31.37a83.88,83.88,0,0,0-8.84-3.32c-2.54-.82-4.78-1.68-5.82,2.53-.75,3.07-4,3.29-6.57,1.45a18.94,18.94,0,0,1-3.53-4.14c-14.78-19.51-33.75-30.76-58.86-30-1.05,0-2-.39-2.89,1.09-3.58,6.28-6.29,6.41-9.83.35-14.22-24.33-35.27-33.57-62.85-29-3.58.59-4.64,1.87-4.59,5.43C2276.65,929.66,2276.55,945.32,2276.55,961Zm569.61-40.26c0-9.83-.26-19.66.12-29.48.17-4.55-.68-7-5.54-8.44-11.52-3.44-22.95-6.82-35.17-5.2-14.35,1.91-27.36,6.71-37.8,17.28-2.65,2.67-6,3.09-7.74-.79-1.21-2.72-2.66-2.6-5-2.54-16.28.38-28.67,8.08-37.87,20.86-5.64,7.83-13,11.29-22.16,12.65-10.15,1.5-19.79,4.69-27.13,12.46-5.83,6.17-5.8,11.79-.15,18,9.89,10.94,26.35,14,41.85,6.94,8-3.65,15.34-3.73,23.55-.88,15,5.22,30.61,8.72,46.53,6.23,11.44-1.79,22.8-1.62,34.25-1.9a63.59,63.59,0,0,0,29.13-7.78,5.31,5.31,0,0,0,3.18-5.46C2846.08,942,2846.17,931.37,2846.16,920.71Z" transform="translate(0 -268)"/><path class="cls-5" d="M850.29,1268.75V1263q0-161.71-.11-323.45c0-4.59,1.19-5.64,5.7-5.64q195.48.2,391,0c4.24,0,5.49.76,5.48,5.31q-.22,168.72-.2,337.44c0,4.48.49,5.91,5.59,4.68,11.55-2.79,23.42-3,35.27-2.39a23.64,23.64,0,0,1,6.82,1.38c2.57,1,4.13,3,3.33,5.9s-3,3.86-5.84,3.39c-18.39-3.07-36.1,0-53.52,5.8-13.7,4.58-24.41,13.4-33.88,23.95-2.78,3.1-5.49,6.27-8.28,9.36-2.17,2.39-4.78,4.25-7.77,1.73-3.22-2.71-1.7-5.66.47-8.32,1.34-1.62,2.72-3.21,4.6-5.42a29.92,29.92,0,0,0-13.37.57c-24.27,6.06-46.89,15.32-63.55,35.17-2.35,2.8-4.3,5.93-6.56,8.81-1.8,2.3-4.11,3.62-6.93,1.76s-2.66-4.49-1.21-7c3.89-6.89,9.32-12.55,15.23-18.64H913c1.37,4.11,2.8,8.27,4.12,12.48a20.83,20.83,0,0,1,1.05,4.84,4.39,4.39,0,0,1-3.48,4.84,4.21,4.21,0,0,1-5.06-2.27,50,50,0,0,1-2.68-7c-10.39-30.29-28-54.68-57-69.67-5.35-2.76-10.81-5.17-17-5.54-2.89-.17-4.88-1.7-4.85-4.65,0-3.22,2.32-4.63,5.32-4.81a30.64,30.64,0,0,1,12.67,2.37C847.33,1268.41,848.44,1269.39,850.29,1268.75Zm8.11-93.35c0,21.33.07,42.66-.08,64,0,3.23,1,4.68,4,5.68,9.64,3.19,19.1,6.92,28.77,10,27.07,8.62,55.14,11.17,83.26,12.94,62.08,3.91,123.93,2.76,184.94-11.18,25.94-5.92,51.14-13.88,73-29.87,2.15-1.57,4.13-4.16,6.46-4.54,4.72-.76,4.41-3.53,4.41-7-.08-37.66-.16-75.32.07-113a22.27,22.27,0,0,0-4.83-14.62c-19-24.7-42.69-43.76-69.67-59-24.21-13.71-50.15-22.28-77.54-26.63-1.66-.26-3.74-1.64-5.12,1.21-8.09,16.76-19.08,31.62-30.65,46.07-29.17,36.43-66,60.08-112.7,67-27.18,4-53.86,2.82-79.58-7.68-4-1.65-4.89-1.36-4.85,3.09C858.5,1133.08,858.4,1154.24,858.4,1175.4Zm384.7-99V1072c0-41.15-.07-82.3.1-123.45,0-4.5-1.06-5.84-5.74-5.84q-186.7.21-373.39,0c-4.62,0-5.91,1.25-5.88,5.85.17,37.81.08,75.63.12,113.45,0,1.58-.63,3.33.92,5,5.95-4.79,11.8-9.64,17.8-14.31,59.05-45.94,125.27-68.55,200.59-61.86,48.55,4.31,91.52,22.28,129.77,52.1C1220.16,1052.9,1231.6,1064.26,1243.1,1076.36Zm0,154.74a190.63,190.63,0,0,1-23.85,15.33,167.42,167.42,0,0,1-24.82,10.5c-42.51,14.28-86.43,20.06-131,21.89-25.14,1-50.29,1.45-75.42,0-21.6-1.27-43.16-3.1-64.56-6.3-20.68-3.09-40.6-9.07-60-16.78-3.87-1.54-5.55-1.18-5.21,3.42a100.72,100.72,0,0,1,0,11,5.68,5.68,0,0,0,3.24,5.63c19.75,11.46,34,28.17,44.78,48,1.54,2.81,3.26,4,6.6,4q109-.13,217.93,0a11.27,11.27,0,0,0,7.07-2c5.39-4,11.73-6.13,17.74-8.91,15.15-7,30.83-11.79,47.8-9.78a8.27,8.27,0,0,0,7.5-2.64c8.08-7.89,17.28-14.13,28.11-17.64,3.29-1.06,4.24-2.85,4.16-6.2-.22-9.66-.08-19.33-.08-29Zm-326.94-122c27.88-.79,54.44-6.7,79.1-20.16s43.53-33.24,60.27-55.32a233.27,233.27,0,0,0,19.21-29.19c.65-1.21,2.81-3.42.28-4a42.58,42.58,0,0,0-12.88-1c-2.8.22-2.68,3.89-3.73,6-11.42,23-29.59,39.8-49.06,55.84-33.79,27.84-72.58,36.22-115.11,32-11.23-1.13-21.85-4.32-32.27-8.43-1.05-.41-2.23-1.94-3.42-.15-2.06,3.09.41,11.67,3.72,13.28C879.3,1106.21,897.52,1108.59,916.16,1109.14Zm-22.57-56.6c8.45,6.48,16.7,13,28.14,10.39a133.93,133.93,0,0,0,34.61-12.56c12-6.5,19.2-15.71,17.52-30.14a14.05,14.05,0,0,1,0-3.49c.62-4.3-.49-5.43-5-3.85-23.06,8.08-44.62,19.13-65.21,32.18C900.25,1047.26,896.63,1049.33,893.59,1052.54Z" transform="translate(0 -268)"/><path class="cls-4" d="M1319.85,582.71q0,96,.11,191.95c0,4.41-1,5.44-5.43,5.44q-192.22-.21-384.45,0c-4.09,0-5.17-.86-5.16-5.08q.2-192.46,0-384.91c0-4.11.88-5.15,5.08-5.14q192.23.19,384.45,0c4.85,0,5.49,1.56,5.49,5.81Q1319.75,486.72,1319.85,582.71Zm-8.91-16.05c0-28-.18-56,.16-83.95.07-5.42-1.64-7.1-6.67-7.68-13.25-1.54-25.15-6.51-34.65-16.09-2.62-2.64-4.67-2.67-7.79-1.49a61,61,0,0,1-35.36,2.39c-8.92-1.95-16.66-6.54-23.79-12.22-1.58-1.25-2.95-3.08-5.67-2.28-11.41,3.36-23.16,4.26-35,4.9-31.78,1.73-63.1-.26-91.94-15-9.45-4.82-14.23-3.25-21.35,3.9-11.64,11.71-26.26,17.77-43.58,15.16-4.35-.65-9.16-2.09-13.5,1.16-16,12-33.85,18.35-54.1,16.62-3.2-.28-3.93,1.06-3.93,4q.09,85.45,0,170.91c0,3.26,1,4.47,4.29,4.27a91.78,91.78,0,0,1,21.41,1.11c32,5.55,60.84,17.19,81,44.52,1.43,2,3.09,2.84,5.56,2,10.3-3.55,21-3.5,31.64-2.82,13.65.86,25.69,6.57,36.87,14.06,1.93,1.29,3.27,1.61,5.33,1a57.33,57.33,0,0,1,33,.23c3,.88,4.72.39,6.76-2,9.14-10.68,20.41-18.08,34.4-20.67,10.48-1.93,20.55.09,30.17,4.34,2.83,1.25,4.71,1,7-1.22,7.15-7,15.38-12.73,23.88-18,15.08-9.36,31.33-15.34,49.18-16.48,6.76-.43,6.76-.45,6.76-7.21ZM1106.57,716.09c-12.65-7.36-25.18-11.77-39.09-10.93-12,.73-24.07,1.66-32.65,12a4,4,0,0,1-5.85.5c-2.13-1.69-2.35-3.82-1.09-6.24a13.54,13.54,0,0,1,4.28-4.81c2.36-1.66,1.69-3,.24-4.79-9.08-11.31-19.63-20.79-32.82-27.13-19.37-9.29-39.67-14.22-61.26-13.87-4.13.07-4.82,1.35-4.81,5.06.13,33,.21,66-.07,99,0,5.07,1.09,6.25,6.18,6.25q180.73-.24,361.47-.13c9.93,0,9.93,0,9.93-9.81,0-29.83-.07-59.66.08-89.49,0-3.7-.85-4.94-4.67-4.71-4.84.29-9.69.36-14.37,1.58-36.63,9.52-62.47,32.73-81.65,64.4-1.38,2.27-.73,3.11,1.49,3.83,5.11,1.65,10,3.8,13.82,7.69,3,3,2.42,6.91-1,8.16-2.63,1-4.41-.74-6.28-2.12q-14.65-10.83-31-2.71a61.33,61.33,0,0,0-18,13.21c-2.17,2.34-4.8,3.45-7.36.89-2.33-2.34-1.37-4.9.62-7.1,8.1-9,17.76-15.74,29.55-18.53,4.89-1.16,7.72-2.95,10-7.58,4.77-9.65,11.74-18,18.7-26.51-1.07-.54-1.77-1-2.52-1.27-18.06-7.12-36-2.47-50.18,12.83-2.11,2.27-3.27,3.81-.08,6.17a4.24,4.24,0,0,1,.68,6.6c-2,2.34-4.38,1.87-6.67.22-14.32-10.35-29.72-10.3-45.59-4.52-4.52,1.65-8.79,4-13.17,6-2.49,1.14-4.72.65-6.08-1.65-1.56-2.62-.45-4.85,1.95-6.38C1101.42,718.86,1103.62,717.74,1106.57,716.09Zm103.66-275.35c12.49,11.54,35.9,14.78,50.15,7.27a3.33,3.33,0,0,0,2.14-2.5,4.16,4.16,0,0,1,4-3.84c2.5-.2,4.09,1.26,5,3.4a25.11,25.11,0,0,0,7,9c7.81,6.81,17.16,9.91,27.18,11.69,4,.7,5.45.25,5.39-4.36q-.39-31,0-62c.07-4.71-.94-6.07-5.89-6.06q-182.72.24-365.44.12a17.37,17.37,0,0,1-2.5,0c-2.86-.39-3.69.83-3.68,3.65.1,20.49.13,41,0,61.48,0,3.25,1.28,3.75,4,4,14.29,1.4,27.45-1.93,39.77-9a71.79,71.79,0,0,0,15.88-12c2.53-2.59,6-3.67,7.93,0,1.54,2.9,3.57,3,6,3.28,17.09,2.05,29.78-6,41-17.66,2.32-2.4,3.93-4.2.36-7-2.35-1.87-3.35-4.87-.8-7.45s5.24-1.49,7.4.83c11.91,12.82,27.77,18.32,43.93,22.27,26,6.36,52.46,6.54,79,3.65,14.67-1.6,28.06-6.94,41.21-13.16,2.88-1.36,5.7-1.56,7.32,1.66s-.45,5.44-3.18,6.79C1219.15,436.83,1214.87,438.64,1210.23,440.74Z" transform="translate(0 -268)"/><path class="cls-4" d="M1935,463.51c2.81,3.89,5.41,7.34,7.86,10.89,1.83,2.66,2.9,5.69-.19,8-3.36,2.5-5.91.43-7.93-2.41-11.25-15.85-24.12-30.2-39.55-42.1-22.66-17.49-47.7-29.83-76.39-33.38-16.25-2-32.21.47-47.72,5.71a32.09,32.09,0,0,1-3.79,1.21c-2.74.57-5.15-.13-6.15-2.91-1.1-3.07.47-5.28,3.29-6.32a121.79,121.79,0,0,1,29-7.22c42-4.62,77.09,11.78,109.39,36.34a159.3,159.3,0,0,1,23.54,22.32c1.71,2,2.59,3.29,5.57.76,4.41-3.74,10.47-2.86,15.9-2.85A125.13,125.13,0,0,1,2020,474c6.28,4.33,12.76,5.57,20.31,4.33,14-2.3,28-4.32,42.19-4.23,28.84.17,54.55,9.3,76.68,28a19.22,19.22,0,0,1,2.84,2.79c1.6,2.08,1.82,4.33,0,6.37a4.35,4.35,0,0,1-5.9.78,38.23,38.23,0,0,1-4.38-3.29c-24.27-19.79-52.06-27.19-83-24-10.94,1.11-21.78,2.83-32.69,4-7.85.86-14.75-1.89-21-6.33-15-10.56-31.72-16.68-49.63-19.91C1953.55,460.44,1941.61,460.7,1935,463.51Z" transform="translate(0 -268)"/><path class="cls-4" d="M623.56,418.52c-34.84-1.68-67.44-10.86-97.25-29.35-1.7-1.06-3.44-2.07-5-3.28-7.15-5.5-15-6.33-23.62-4.29-14.23,3.38-28.26,7.81-42.95,9-18.3,1.45-36.62,2.14-54.73-1.67-18.41-3.88-34-13.11-47.7-25.85-2.45-2.28-4.67-5-1.86-8.15,3-3.43,6.07-1.41,8.65,1,14.8,13.81,32,22.71,52.25,25a189.18,189.18,0,0,0,73.2-6.18,96,96,0,0,1,19.56-3.82,31.77,31.77,0,0,1,21.21,5.86c24.48,17.36,52.28,26.33,81.47,30.78,19.42,2.95,38.84.46,57.85-4.83,7-1.95,14.29-3.18,21.46-4.62,3.19-.64,6.32-.37,7,3.56.68,3.75-1.93,5.72-5.1,6.18-16.16,2.35-31.63,8-47.9,9.79C634.6,418.17,629.12,418,623.56,418.52Z" transform="translate(0 -268)"/><path class="cls-4" d="M1331.12,1008.73a50.74,50.74,0,0,1,29.14,10.31c1.71,1.26,2.68,2.22,4.82.12,7-6.86,15.29-7.65,24-3.65,6.67,3.09,11.55,8.41,15.5,14.47,1.8,2.77,2.69,6.19-.81,8.39s-5.69-.2-7.63-3.1c-3.26-4.88-7.06-9.32-12.84-11.36-5.33-1.89-9.39-.52-12.66,4-5,6.93-7.57,6.83-13.88,1.38-10.14-8.78-21.51-13.85-35.26-8.81-2.85,1-5.39.63-6.75-2.33s.42-5.11,2.9-6.54A24.34,24.34,0,0,1,1331.12,1008.73Z" transform="translate(0 -268)"/><path class="cls-6" d="M1446.73,978q0-172-.11-343.91c0-5,1.11-6.39,6.28-6.38q344.44.21,688.89,0c4.72,0,6.12,1.1,6.12,6q-.19,344.42,0,688.83c0,5-1.21,6.45-6.35,6.42q-61.74-.33-123.48,0c-4.08,0-5-.83-5.09-5.15-.43-37.65-1.77-75.28-.81-112.94.25-9.8,1.27-19.58,1.71-29.39,1.06-23.36-8.27-41.64-26.2-56.55-9.58-8-19.29-14.82-31.69-16.68-16.22-2.45-32.57-1.77-48.87-.65-11.33.77-22.63.75-34,.43-2.78-.08-3.74-1.42-4.16-3.9-2.71-15.86-2-31.87-2.07-47.84,0-2.19,1.36-3.31,2.8-4.43,35.33-27.31,55.81-64.15,68.22-106.18a319.54,319.54,0,0,0,13.37-88.54c.12-15.18-.36-30.27-1.51-45.36a17.52,17.52,0,0,0-5.49-11.41c-29.42-29.25-65.85-42.1-106.25-46.54-32.42-3.56-62.91,2.82-92.46,15.53-13.93,6-27.85,12-40.65,20.24-3.79,2.44-7.32,5.24-11.06,7.7-8.74,5.74-11.47,14.06-11.72,23.86-.6,23.17,1.19,46.24,2.5,69.34,1.89,33.19,10.37,65,19,96.81,5.12,19,16.63,33.9,28.84,48.53,6.54,7.83,13.62,15.08,22.59,20.2a3.69,3.69,0,0,1,2,3.68c-.29,11.65-.59,23.31-.71,35,0,3.28-2,3.18-4.29,3.33-16.19,1-32.28-.77-48.42-1.4-21.37-.84-42.58.29-62.84,8.33a30.21,30.21,0,0,0-11.53,7.75c-11.43,12.92-21.92,26.45-24.72,44.26-1,6.48-1.58,13.14-.25,19.4,2.76,13,.6,25.52-1.63,38.13-4.67,26.4-8.14,53-10.71,79.62-.94,9.77-2.13,19.52-2.73,29.3-.27,4.34-1.75,5.57-6,5.56-39.66-.15-79.32-.09-119-.09-4.5,0-9-.13-13.5.05-3,.12-4.36-.86-4-4a49,49,0,0,0,0-5Z" transform="translate(0 -268)"/><path class="cls-7" d="M1877.32,1328.85c-18,0-36,0-54,0-1.91,0-5.15,1.09-4.92-2.32.18-2.83-3.06-7.31,3-8.3a4,4,0,0,0,3.48-4.28c-.07-2.24-1.45-4.09-3.53-4.28-3.89-.36-3.8-2.71-3.75-5.58q.2-11,0-22c0-2.73.31-4.46,3.74-4.2a4.09,4.09,0,0,0,4.54-3.78,4.3,4.3,0,0,0-3.73-5.12c-4.38-.47-4.26-3.08-4.11-6.3.43-9,.73-18,1-27,.06-2.23.48-3.79,2.9-4.51s4.26-2.22,4-5a4.34,4.34,0,0,0-4.24-4.17c-2.2-.24-2-1.68-2-3.26.26-9.66-.65-19.52,1.08-28.9a43.47,43.47,0,0,0,.15-16.2,97.37,97.37,0,0,1-.17-31.82,43.45,43.45,0,0,0,.09-16.74c-1.7-8.68-.59-17.91-.79-26.9,0-2.43.14-4.41,2.31-6.13,2.36-1.87,2.35-4.48,0-6.46-4.47-3.8-1.7-8.69-2.15-13.06-.13-1.27,1.6-1.44,2.76-1.59,10.72-1.34,20.71-5,30.27-9.83,3.43-1.75,3.86-.66,3.72,2.58a199,199,0,0,0,2.75,44.8c1.32,7.18,3.43,8.75,10.58,9.47,16.69,1.68,33.28-.41,49.91-1,5.32-.19,10.66-.12,16-.25,18.27-.45,34,4.81,47.61,17.85s21.27,28.14,19.88,47c-3.09,41.78-1.88,83.56-.9,125.36.16,6.63-.54,13.31.83,19.9.46,2.21-1.18,2-2.46,2-8.33,0-16.66,0-25,.05-2.24,0-3.23-.74-3.47-3.11-3.87-38.63-11.07-76.82-15.43-115.38-.35-3.14-.15-6.33-.42-9.48-.23-2.78-1.15-5.34-4.23-6.13-3.24-.84-4.87,1.39-6.35,3.71-12,18.78-16.22,39.54-15.5,61.52.68,21,2.94,41.87,5,62.75.45,4.56-.33,6.32-5.52,6.22C1912.65,1328.63,1895,1328.84,1877.32,1328.85Zm14.19-54.11c0-8.12-7.53-15.27-16.08-15.21-7.51,0-15.52,8.12-15.5,15.62s6.93,13.69,15,13.73C1883.46,1288.91,1891.48,1282.07,1891.51,1274.74Z" transform="translate(0 -268)"/><path class="cls-8" d="M1740.28,1328.85c-21.16,0-42.32-.08-63.48.06-3.58,0-4.77-.53-4.41-4.62,1.8-20.41,3.15-40.85,4.71-61.27,1.49-19.5-.9-38.24-10.68-55.57a8.39,8.39,0,0,1-.46-7.53,129.49,129.49,0,0,0,4-15.47c.54-2.5,1-3.72,3.76-1.93,2.56,1.67,5.22,1.42,6.93-1.38s.22-5.12-2.08-6.33c-5.54-2.92-6.12-7.39-5.35-12.94,1.32-9.47.63-19-.94-28.36-.39-2.31-.12-3.29,2.39-3.66a3.91,3.91,0,0,0,3.51-4.66c-.28-2.45-2-3.66-4.26-4.34-1.51-.46-3.67.57-4.46-1.43-1.21-3.09-2.58-6.24-3-9.48-.27-2.21,2.44-1.61,3.91-1.84a165.26,165.26,0,0,1,45.84-.59c15.15,1.81,30.28.27,45.41.59,3.83.08,5.63-2.53,5.27-6.35-1.16-12.32.29-24.63,0-36.94,0-2.53.7-3.29,3.24-2.34,12.06,4.52,24.43,7.82,37.33,8.78,2.38.17,3.12,1.36,3,3.57q-.12,4,.09,8c.12,2.13-.44,3.49-2.78,3.91-2.65.47-4.95,1.83-4.8,4.83s2.29,4.31,5.16,4.28c2,0,2.55,1,2.56,2.78,0,8.33.17,16.66.29,25,0,1.7-.38,2.86-2.33,3.15a4.13,4.13,0,0,0-3.89,3.92,4.29,4.29,0,0,0,3.11,4.63c3,.86,3.13,2.79,3.11,5.32-.08,10.82-.09,21.65,0,32.48,0,2.8,0,4.84-3.77,4.79a4.12,4.12,0,0,0-4.44,4.42,4.35,4.35,0,0,0,4.58,4.39c3.4,0,3.7,1.73,3.6,4.41q-.52,14.49-.82,29c0,2.33-.46,3.8-3.27,3.79-3,0-5.42,1.45-5.46,4.62,0,2.92,2.17,4.45,5,4.47s3,1.77,3,4c-.32,9.32-.62,18.64-.78,28,0,2.11-1,3.23-2.55,4.46-2.87,2.33-3.31,5.13.06,7.35,1.86,1.22,2.19,2.62,2.17,4.59-.12,7.83-.2,15.66-.11,23.48,0,2.45-.24,4.09-3.11,4.66-2.45.49-4.28,2.27-4,5s2.22,3.72,4.86,4.11c5.25.78,2.13,5,2.74,7.65.75,3.13-2.06,2.64-4,2.64Zm8.24-55c0-8.69-8.22-17.16-16.41-17-8.54.18-16,7.63-16,16,0,8.14,7.66,15.12,16.68,15.16C1741.19,1288.05,1748.56,1281.45,1748.52,1273.87Z" transform="translate(0 -268)"/><path class="cls-8" d="M1806.11,1060.83c-4.3.21-8.15-.87-12-1.63a137.2,137.2,0,0,1-30.3-10c-7-3.19-12.84-8.13-18.25-13.71-19-19.61-30.65-42.59-37.59-69.23-13-50-16.45-100.73-15.35-152,.05-2.59,1.51-3.89,3.12-5.31a126.21,126.21,0,0,1,27.89-18.35c23.64-11.7,47.71-22.26,74.12-26.14,3.62-.53,7.27-.94,10.92-1.24,6.13-.51,6.13-.46,6.24,5.89,0,2.17,0,4.34.13,6.5.21,3.07.67,5.93-4.11,5.72-2.07-.09-3.44,2.05-3.51,4.24a4.11,4.11,0,0,0,3.49,4.33c4.43.51,4.56,3.13,4.47,6.64-.18,7.65,0,15.32.05,23,0,2,0,3.67-2.79,3.47a4.24,4.24,0,0,0-4.9,3.94,4.42,4.42,0,0,0,4,4.94c3.68.48,4,2.54,4,5.53,0,8.33.14,16.65.31,25,0,2.3.29,4.3-3.06,4.36a4,4,0,0,0-3.93,3.88,4.27,4.27,0,0,0,3.44,4.87c3.52.76,3.78,2.89,3.72,5.84-.23,10.83-.26,21.65-.35,32.48,0,1.84.34,3.72-2.49,3.89a3.9,3.9,0,0,0-4,4.29c.23,3.22-1.54,7.62,3.09,9,3.35,1,3.26,2.92,3.15,5.61-.47,12-.8,24-1.13,35.95-.06,2.25.16,4.35-3.13,4.45a4.26,4.26,0,0,0-.9,8.37c3.48.85,3.73,2.95,3.55,5.93-.32,5-.31,10-.31,15,0,2.19-.38,3.45-2.9,4.32-4,1.4-4.54,5.6-.9,8.12,2.84,2,3.23,4.1,3,7.13-.46,7.64-.63,15.3-1,23-.06,1.55.59,3.64-1.88,4C1805,1053.39,1804.61,1056.55,1806.11,1060.83Z" transform="translate(0 -268)"/><path class="cls-7" d="M1941.29,855.59c1.21,31.92-5.7,68.11-18.16,103.24-11.33,31.92-28.77,60-55.32,81.73-12.18,10-26.27,16.21-41.55,19.84-2.78.65-4.11,1.12-4.32-3.08-.55-10.85.23-21.61.62-32.41.09-2.3.57-3.73,3.18-4.12s4.36-2,4.21-4.74c-.14-2.49-1.9-3.89-4.28-4.11s-2.68-1.35-2.61-3.33c.25-6.65.46-13.31.53-20a3.85,3.85,0,0,1,2.86-4.07c2.13-.81,3.78-2.36,3.61-4.85-.15-2.26-1.71-3.57-3.89-4-2-.34-2.21-1.59-2.15-3.26q.57-15.74,1-31.46a4,4,0,0,1,1.48-3.51c.53-.39,1.27-.84,1.39-1.38.85-3.91.88-7.94,3-11.63.71-1.24-1-3.33-2.69-3.68-3.28-.65-3-2.9-3-5.27.11-12,.22-24,.19-36,0-2.1.25-3.49,2.52-4.13s3.92-2.09,3.86-4.6a4.26,4.26,0,0,0-4-4.36c-2.26-.3-2.52-1.66-2.52-3.51,0-9.49,0-19-.17-28.48a3.66,3.66,0,0,1,2.76-4.06c2-.73,3.5-2.13,3.35-4.47a4.22,4.22,0,0,0-3.74-4.1c-2.55-.4-2.59-2-2.59-4,0-8.16-.05-16.32-.19-24.48,0-2.19.23-3.84,2.61-4.72,2.12-.79,3.81-2.31,3.6-4.86s-1.77-3.86-4.23-4.16c-2-.25-2.22-1.57-2.21-3.23,0-3.5,0-7-.14-10.49-.08-2.11.66-3.06,2.9-2.91,41.72,2.77,79.94,14.12,110.36,44.77a8.75,8.75,0,0,1,2.41,5.77C1941.24,825.73,1941.37,837.88,1941.29,855.59Z" transform="translate(0 -268)"/><path class="cls-8" d="M1615.34,1328.84c-4.33,0-8.67-.1-13,.05-2.83.09-3.6-.7-3.34-3.74,3.41-40.19,8.38-80.18,15.35-119.92a82,82,0,0,0,.21-27.82c-2.45-14.72.13-28.53,9-40.87,5-7,9.1-14.86,16.68-19.66a53.39,53.39,0,0,1,8.83-4.62c6.86-2.74,7.55-2.23,9.88,4.67,1,2.86,1.06,4.61-2.64,5.21a4,4,0,0,0-3.43,4.77,4.18,4.18,0,0,0,4.59,3.78c4.67-.48,5.31,2,5.84,5.8,1.06,7.65.88,15.29.82,23,0,2-.44,3.16-2.69,4-3.82,1.44-4.58,4.48-1.69,7.41,2.53,2.58,2.71,5.05,1.81,8.12-1.94,6.59-1.87,13.74-6.81,19.5-2.3,2.69-2,7-2.31,10.62-3.14,35.78-11.92,70.6-17.92,105.9-.45,2.62-1.45,5.28-1.29,7.86.36,5.79-2.7,6.48-7.36,6.05C1622.36,1328.58,1618.84,1328.84,1615.34,1328.84Z" transform="translate(0 -268)"/><path class="cls-6" d="M1948.11,1219.17c1.63,11.21,3.09,22.17,4.83,33.08,3.77,23.78,6.8,47.66,9.74,71.55.49,4-.38,5.65-4.52,5.09a35.37,35.37,0,0,0-4.49,0c-7.16,0-7.53,0-8.1-7.15-1.86-23.51-4.91-46.94-4.71-70.59.09-10.25,2.45-20.07,5.21-29.84A2.7,2.7,0,0,1,1948.11,1219.17Z" transform="translate(0 -268)"/><path class="cls-6" d="M1661.84,1222.24a40.29,40.29,0,0,1,5,17.4,220.41,220.41,0,0,1-1.16,42.28c-1.66,14.37-2.23,28.81-3.19,43.22-.23,3.48-1.37,3.81-4,3.75-4-.1-8-.14-12,0-3.26.12-4.26-.63-3.55-4.3q8-41.58,15.52-83.27c.92-5.06,1.27-10.21,1.89-15.32C1660.48,1224.77,1659.94,1223.31,1661.84,1222.24Z" transform="translate(0 -268)"/><path class="cls-9" d="M151.94,940.33q0-191-.13-381.94c0-5.22,1.48-6.2,6.39-6.2q278.48.19,557,.11c6.69,0,6.7,0,6.7,6.7q0,381.68,0,763.37c0,7.78.7,6.76-6.55,6.76-42.66,0-85.33-.06-128,.12-4.47,0-5.32-1.29-5.63-5.56-1.72-23.71-2.28-47.6-8.5-70.75-4.34-16.17-13.6-28.3-29.67-34.7-7.72-3.07-14.78-7.7-22.82-10.09a4.18,4.18,0,0,1-3.38-3.86c-.27-4.32-.4-8.65-.54-13,0-1.73,1.35-2.51,2.45-3.53,16-15,30.31-31.25,40.4-51,7.95-15.6,11.57-31.85,10.4-49.2-.36-5.31.16-10.68-1.06-15.93a3.53,3.53,0,0,1,.83-3.24c11.11-13.49,11.82-28.8,7.71-44.88-1.33-5.19-2.27-9.94.64-15.26,2.3-4.22,1.53-9.5.29-14.22-6.1-23.32-11.13-46.92-22.8-68.52-3.36-6.21-7-9.2-13.35-11.58-20.16-7.61-40.51-14.12-61.94-17.2-38.69-5.56-76-.19-112.44,13.12a318.85,318.85,0,0,0-34.65,15.44c-14.41,7.3-20.06,18.77-21.06,34.41-3.13,48.94,2.15,96.75,17.35,143.43,12.16,37.35,32.4,69.22,63.41,93.83,5.38,4.27,5.21,10.9-.48,15a62.68,62.68,0,0,1-17.1,8.09c-5.38,1.76-10.75,3.57-16.18,5.18-27.63,8.17-40.67,29.52-41.82,55.23-.65,14.66-.41,29.32.13,44,.13,3.66-.7,4.88-4.59,4.87q-78.24-.2-156.48,0c-4.68,0-4.51-2.24-4.51-5.49q.06-145.48,0-291ZM396.23,663c0,3.79-.14,7.13,0,10.46.71,13.81,10,26.59,22.78,27,11.07.38,13.54,5.8,14.64,14.46a36,36,0,0,0,1,3.87c8.36,34,21.14,66.64,29.19,100.7,1.83,7.77,9.92,11,16.82,7,9.53-5.61,11.83-11.2,8.06-21.66q-19.07-52.89-34.17-107c-1.54-5.47-1.65-9.66,1.8-14.7A53.53,53.53,0,0,0,466,648.58c-.57-8.28-5.56-10.85-12.21-6.3-2.29,1.58-3.63.77-5.15-.77-2.65-2.67-3.22-6.13-3.5-9.65-.58-7.18-4.26-12.52-10-16.53-4.2-3-7.38-1.72-9.31,3.07a9.7,9.7,0,0,0-.48,6.8c.79,2.59,1.82,5.53-1.15,7.17-3.22,1.78-5.82-.48-7.83-2.7-3.3-3.66-4.78-8.32-6.27-12.93a93.47,93.47,0,0,0-3.34-9.39c-1.21-2.74-3.33-4.65-6.65-4.26-3.07.36-4.64,2.5-5.37,5.23-1,3.69-1.44,7.55-2.66,11.15-2.65,7.87-1.74,15.37,1.31,22.88A43.34,43.34,0,0,1,396.23,663ZM537.62,835.53c-.34-2.24-.66-4.45-3.06-5.32a4.37,4.37,0,0,0-5.64,1.76c-1.54,2.52-2.86,5.18-4.15,7.84a4.05,4.05,0,0,0,1.28,5.3,4.37,4.37,0,0,0,5.53.26A16.17,16.17,0,0,0,537.62,835.53ZM521,826.83a4.53,4.53,0,0,0-4.42-4.39c-2.91-.31-8.8,7.39-8.56,11a4.3,4.3,0,0,0,4.45,4.43C515.92,838.11,521.06,831.78,521,826.83ZM376.76,579.7a5.16,5.16,0,0,0-5.11-4.46c-3.29.08-8.11,4.74-7.88,7.8s2,4.5,4.94,4.47S376.9,582.28,376.76,579.7Z" transform="translate(0 -268)"/><path class="cls-6" d="M459.9,1329.12c-21.33,0-42.65-.08-64,.09-3.74,0-4.8-1-4.81-4.77-.06-10.82-.63-21.63-.87-32.45-.07-3.38-1-6.32-4.67-6.47-4.18-.16-5.34,3.32-5.11,6.59.73,10.47.61,21,1,31.44.14,4.25-.82,5.79-5.42,5.69-14.66-.31-29.33-.21-44,0-3.47,0-5.09-.54-5-4.55.43-17-1.27-34,1-50.9,2.5-18.68,12.43-31.44,30.38-37.92,11.57-4.17,23.67-6.88,34.64-12.75,11.17-6,14.59-12.33,13.08-24.66a8,8,0,0,0-3.17-5.92c-40.69-30.35-60.83-72.82-72.15-120.84-7.31-31-10.12-62.37-9.48-94.11.16-7.81,1.23-15.59,1.54-23.4.33-8,4.14-13.51,10.91-17.66,15.89-9.76,33.09-16.35,50.78-21.89,21.75-6.8,44-10.64,66.82-10.37,31.59.37,61.62,7.85,90.55,20.23,2.41,1,3.36,3,4.49,5.06,9,16.32,14.85,33.77,18.67,52,.92,4.39,2.4,8.66,3.42,13a29.77,29.77,0,0,1,1.12,7.85c-.18,4.6-1.49,5.11-5.34,2.5-15.39-10.41-31.38-19.85-49.73-23.78-35.13-7.51-64.47,2.29-87.2,30.59-7.85,9.77-14.91,20-20,31.52-6.92,15.52-3.13,26.73,12.1,34.42,11.48,5.8,24.11,7.72,36.63,9.2,19.59,2.32,39.26.31,58.88-.45,5.65-.22,11.28-.87,16.92-1.33,8.54-.7,16.8-2.47,24.41-6.6,2.29-1.24,3.44-1.82,3.87,1.92,3.75,32.66-9.31,59.08-30.29,82.59-5.76,6.44-11.54,12.85-18.26,18.41a40.81,40.81,0,0,1-13.81,7.71,53.39,53.39,0,0,0-6.14,2.08,4.34,4.34,0,0,0-2.59,5.36c.63,2.43,2.46,3.5,4.89,3.39a30.52,30.52,0,0,0,9.63-2.47c2.77-1.07,3.57-.22,3.56,2.52,0,2,.5,4,.66,5.94.49,5.87,3.86,9.55,9.19,11.27,8.77,2.84,16.62,7.66,25.06,11.18,10.08,4.19,16.14,11.93,20,21.8,4.21,10.85,5.47,22.21,6.51,33.69,1.24,13.59,3,27.12,3.54,40.78.13,3.44-.7,4.7-4.33,4.59-8.16-.25-16.33-.18-24.49,0-3,.06-4.29-.6-4.56-4a98.94,98.94,0,0,1,.28-19.92c.43-3.44,0-6.79-4.27-7-4.07-.23-5.21,3.09-5.48,6.42-.52,6.28-1.59,12.57-.26,18.89.87,4.15-.32,5.8-5.06,5.74C502.56,1329,481.23,1329.12,459.9,1329.12Zm35-163.95a66.81,66.81,0,0,0,36.51-13.61c8-6,8.9-16,4.87-21.26-13-17.1-30.09-27.23-52.9-15.62-10,5.08-20.06,10.11-26,20.21-6.78,11.46-1.95,23.28,11,26.44A147.71,147.71,0,0,0,494.86,1165.17Z" transform="translate(0 -268)"/><path class="cls-10" d="M493.89,1077.69c-19.71.93-39.3.78-58.53-4.57-6.46-1.81-12.72-3.83-17.81-8.53a10.87,10.87,0,0,1-3.56-11.24,38.41,38.41,0,0,1,3.16-8.39,139.06,139.06,0,0,1,21-30.89c2.21-2.49,3.66-3.35,7.31-1.62,8.81,4.18,18.52,4.08,28,3,11.5-1.27,22.35-5.18,32.83-10,4.26-2,8.63-4.35,11.09-8.27,3-4.75,6-3.7,9.89-2a205.57,205.57,0,0,1,35.87,20.61c1.65,1.16,3.23,2.39,3.7,4.52,1.7,7.64,3.84,15.24,3.1,23.17-1.38,14.54-9.68,23.61-23,28.52-8.09,3-16.58,3.6-25,4.15C512.52,1076.8,503.2,1077.2,493.89,1077.69Z" transform="translate(0 -268)"/><path class="cls-11" d="M457.58,998.16a56.6,56.6,0,0,1,24.78-9,33.29,33.29,0,0,1,4-.37c1.56,0,3.89-1.38,4.52.35.78,2.16-1.83,2.91-3.37,3.52C477.9,996.45,468,998.69,457.58,998.16Z" transform="translate(0 -268)"/><path class="cls-12" d="M2845.91,967.55v236c-13.84-.8-26.62-5.43-39.74-8.46-20.45-4.74-41.09-8.52-61.74-12.31a98.52,98.52,0,0,1-26.41-9c-12.6-6.33-20.43-16.13-22.15-30.54a230.24,230.24,0,0,1-2.1-26.37c0-8.28-1.87-9.85-10.2-10.87-79.3-9.69-158.92-9.06-238.57-7.17a208.8,208.8,0,0,0-23.37,2.26c-9,1.24-11.12,3.6-12.81,12.44-1.58,8.34-3.18,16.68-5.05,25-1.92,8.51-6.29,14.69-14.71,18.79a170.36,170.36,0,0,1-49.24,15.85c-19.94,3-39.57,7.67-59.26,12-3.16.69-4,.2-4-3.11q.12-77.74,0-155.47c0-3.18.84-4,4-3.41,10.46,1.79,20.92,1.18,31.32-.64,13.07-2.28,26-3.11,39,.94,15.37,4.77,30.66,3.39,45.34-3.34,4.17-1.9,8.47-1.5,12.78-1.23a68,68,0,0,0,32.62-5.86,34,34,0,0,0,14.73-12.36c8.94-13.48,5.6-29.21-8.15-37.71a51.75,51.75,0,0,0-25.06-7.68,9.14,9.14,0,0,1-6.93-3.17c-17.09-19.06-38.77-26.92-64-25.78-3,.14-4.78-.87-6.61-3.2-14.83-18.94-34.14-27.5-58.25-24.83-10.78,1.19-10.79,1.1-10.79-9.58V560.85c0-6.47,0-6.47,6.39-6.47q278.71,0,557.42-.13c4.92,0,5.87,1.3,5.86,6q-.21,154.47,0,308.93c0,4.93-1,5.26-5.41,3.7-24.92-8.74-48.81-6.68-71.26,7.77a6.15,6.15,0,0,1-4.1,1.33c-23.37-1.86-42.55,5.9-56.44,25.21-3.47,4.83-7.94,7.16-13.72,8-12.55,1.87-24.37,5.7-33.65,15-10.44,10.41-10.73,22.2-.31,32.5,14.37,14.23,31.52,16.73,49.78,9.36,7.74-3.12,14.32-2.86,22-.36,18.41,6,37.28,8.73,56.63,4.48a29.57,29.57,0,0,1,8.41-.82C2814.57,976.5,2830.47,975.09,2845.91,967.55ZM2645.42,748.38c7.63-.48,13,2,15.73,9.08a18.35,18.35,0,0,0,3.12,5.08c3.62,4.19,10,5.39,13.28,1.49,4.27-5.09,9.74-6.93,15.49-9.17,9.37-3.64,10.92-13.68,3.61-20.54a28.65,28.65,0,0,0-9.81-5.85c-10-3.72-19.8-8.05-30-10.91-13-3.63-26.29-4.91-38.84,2.3-13.15,7.54-27.26,13.27-40.13,21.33-17.67,11.08-35.7,11.89-55.36,4.44-16.1-6.11-33.06-10.44-50.79-8.75-3.85.37-7.63-.55-11.34-1.55-24.68-6.59-45.47-20.11-64.68-36.42-5.59-4.74-11.35-7.8-19.1-5-4,1.45-8.45,1.83-12.74,2.3-7.48.82-14.89,1.89-22,4.56-5.85,2.22-8,8-3.95,12.34,7.59,8.18,15.54,16.77,28.42,14.42,11.89-2.17,21.15,2.06,29.15,10.37,1.61,1.68,3.51,3.08,5.19,4.69A68.8,68.8,0,0,0,2427.23,759c4,1.31,7.63,3.57,12.13,5.73-10.06,5.88-18.74,12-29.29,14.65-3.54.87-6.44.7-9.31-1.67A25,25,0,0,0,2385.1,772a55.14,55.14,0,0,1-8.88-1.37,6.21,6.21,0,0,1-5.31-5.22c-1.24-6-4.78-9.94-11-10.68-6-.7-8.59,3.94-10.82,8.12a205.71,205.71,0,0,1-13.67,21.47,66.23,66.23,0,0,0-8.58,17.43c-2.45,7.36,1.51,13,9.26,13.44,4.49.29,7.93-1.66,11.28-4.43,8.41-7,17.41-11.63,28.46-5.67a24.69,24.69,0,0,0,3.26,1.26c28.87,10.64,28.91,10.73,57-1.67a56.57,56.57,0,0,1,31.74-4.34,123.51,123.51,0,0,0,35.35,0c8.7-1.21,16.82.07,24.36,5,16.12,10.5,33.79,18.08,51.43,25.42,21.4,8.91,43.17,10.75,64.42-1.56,6-3.47,9.85-8,9.27-12.47-.64-4.89-5.27-8.52-12.48-9.78-1.31-.23-2.62-.49-3.94-.66a6,6,0,0,1-4-1.82,10.83,10.83,0,0,0-7.94-3.69c2.18-3.73,5.34-3.65,8.8-3.5,13.28.6,16.57-2.39,17.59-15.65.11-1.49.08-3,.09-4.49A74.05,74.05,0,0,0,2645.42,748.38Zm-49.28-82.56h.08q0-11.49,0-23c0-3.39-.56-6.78-4.79-6.78s-4.86,3.39-4.86,6.78q-.06,23.22-.05,46.46c0,3.45.83,6.71,5,6.55,3.84-.15,4.57-3.33,4.58-6.55C2596.15,681.47,2596.14,673.65,2596.14,665.82Zm-23.56,14.41c0-3,.05-6,0-9-.07-3.42-.91-6.67-5.06-6.63-3.87,0-4.73,3.13-4.76,6.37,0,6.32-.07,12.64,0,19,0,3.28,1.08,6.22,5,6.11s4.74-3.12,4.82-6.35S2572.58,683.39,2572.58,680.23Zm-242.66,84.42h0c0-3.16.13-6.33,0-9.48-.15-2.8-1.63-4.87-4.59-5s-4.77,1.82-4.86,4.63c-.2,6.31-.23,12.64,0,19a4.39,4.39,0,0,0,5,4.5c2.72-.17,4.22-2,4.42-4.61C2330.1,770.66,2329.92,767.65,2329.92,764.65Z" transform="translate(0 -268)"/><path class="cls-13" d="M2561.38,1331.2q-139.46,0-278.93.11c-4.87,0-6-1.25-6-6q.3-62,0-124c0-4.08,1-5.63,5.18-6.54,23.11-5,46.26-9.85,69.58-13.84,17.66-3,33.76-10.26,49.19-18.91,6.46-3.62,9.56-10.5,11.72-17.47,2.63-8.45,4.14-17.16,5.55-25.87.55-3.41,1.64-4,4.84-3.07,55.37,16.36,112.22,16.13,169.06,14.1,29.45-1,58.55-6.34,87.42-12.29,4.06-.84,5-.08,5.11,4,.28,7.64,1.25,15.26,2.12,22.87,2.28,20.15,14.16,32.74,32.15,40.44a152.34,152.34,0,0,0,35.53,9.87,626.77,626.77,0,0,1,67.37,14.55c7.08,2,14.35,3,21.59,4,2.41.35,3.33,1.21,3.32,3.78q-.12,55.49,0,111c0,3.28-1.5,3.28-3.92,3.27-23.33-.06-46.66,0-70,0Z" transform="translate(0 -268)"/><path class="cls-10" d="M2276.55,961c0-15.65.1-31.31-.08-47,0-3.56,1-4.84,4.59-5.43,27.58-4.56,48.63,4.68,62.85,29,3.54,6.06,6.25,5.93,9.83-.35.85-1.48,1.84-1.06,2.89-1.09,25.11-.75,44.08,10.5,58.86,30a18.94,18.94,0,0,0,3.53,4.14c2.56,1.84,5.82,1.62,6.57-1.45,1-4.21,3.28-3.35,5.82-2.53a83.88,83.88,0,0,1,8.84,3.32c16.91,7.65,12.34,24.46,2.94,31.37-6.77,5-14.69,8-22.77,7.88a117.22,117.22,0,0,0-41.44,6.66c-9.12,3.21-18.62,1-27.51-1.78-12.86-4-25.64-3.24-38.53-1.11-10.72,1.78-21.4,3-32.25,1-3.2-.6-4.27-1.88-4.23-5.24C2276.65,992.59,2276.55,976.78,2276.55,961Z" transform="translate(0 -268)"/><path class="cls-10" d="M2846.16,920.71c0,10.66-.08,21.32.07,32a5.31,5.31,0,0,1-3.18,5.46,63.59,63.59,0,0,1-29.13,7.78c-11.45.28-22.81.11-34.25,1.9-15.92,2.49-31.51-1-46.53-6.23-8.21-2.85-15.54-2.77-23.55.88-15.5,7.08-32,4-41.85-6.94-5.65-6.24-5.68-11.86.15-18,7.34-7.77,17-11,27.13-12.46,9.18-1.36,16.52-4.82,22.16-12.65,9.2-12.78,21.59-20.48,37.87-20.86,2.32-.06,3.77-.18,5,2.54,1.73,3.88,5.09,3.46,7.74.79,10.44-10.57,23.45-15.37,37.8-17.28,12.22-1.62,23.65,1.76,35.17,5.2,4.86,1.45,5.71,3.89,5.54,8.44C2845.9,901.05,2846.16,910.88,2846.16,920.71Z" transform="translate(0 -268)"/><path class="cls-10" d="M858.4,1175.4c0-21.16.1-42.32-.08-63.48,0-4.45.82-4.74,4.85-3.09,25.72,10.5,52.4,11.73,79.58,7.68,46.74-7,83.53-30.62,112.7-67,11.57-14.45,22.56-29.31,30.65-46.07,1.38-2.85,3.46-1.47,5.12-1.21,27.39,4.35,53.33,12.92,77.54,26.63,27,15.29,50.67,34.35,69.67,59a22.27,22.27,0,0,1,4.83,14.62c-.23,37.66-.15,75.32-.07,113,0,3.43.31,6.2-4.41,7-2.33.38-4.31,3-6.46,4.54-21.86,16-47.06,24-73,29.87-61,13.94-122.86,15.09-184.94,11.18-28.12-1.77-56.19-4.32-83.26-12.94-9.67-3.08-19.13-6.81-28.77-10-3-1-4.05-2.45-4-5.68C858.47,1218.06,858.4,1196.73,858.4,1175.4Z" transform="translate(0 -268)"/><path class="cls-6" d="M1243.1,1076.36c-11.5-12.1-22.94-23.46-35.71-33.43-38.25-29.82-81.22-47.79-129.77-52.1-75.32-6.69-141.54,15.92-200.59,61.86-6,4.67-11.85,9.52-17.8,14.31-1.55-1.62-.92-3.37-.92-5,0-37.82.05-75.64-.12-113.45,0-4.6,1.26-5.86,5.88-5.85q186.69.19,373.39,0c4.68,0,5.76,1.34,5.74,5.84-.17,41.15-.1,82.3-.1,123.45Z" transform="translate(0 -268)"/><path class="cls-6" d="M1243.1,1231.1v20.47c0,9.66-.14,19.33.08,29,.08,3.35-.87,5.14-4.16,6.2-10.83,3.51-20,9.75-28.11,17.64a8.27,8.27,0,0,1-7.5,2.64c-17-2-32.65,2.78-47.8,9.78-6,2.78-12.35,4.89-17.74,8.91a11.27,11.27,0,0,1-7.07,2q-109-.06-217.93,0c-3.34,0-5.06-1.24-6.6-4-10.83-19.79-25-36.5-44.78-48a5.68,5.68,0,0,1-3.24-5.63,100.72,100.72,0,0,0,0-11c-.34-4.6,1.34-5,5.21-3.42,19.39,7.71,39.31,13.69,60,16.78,21.4,3.2,43,5,64.56,6.3,25.13,1.49,50.28,1.07,75.42,0,44.59-1.83,88.51-7.61,131-21.89a167.42,167.42,0,0,0,24.82-10.5A190.63,190.63,0,0,0,1243.1,1231.1Z" transform="translate(0 -268)"/><path class="cls-14" d="M916.16,1109.14c-18.64-.55-36.86-2.93-53.89-11.18-3.31-1.61-5.78-10.19-3.72-13.28,1.19-1.79,2.37-.26,3.42.15,10.42,4.11,21,7.3,32.27,8.43,42.53,4.26,81.32-4.12,115.11-32,19.47-16,37.64-32.85,49.06-55.84,1-2.11.93-5.78,3.73-6a42.58,42.58,0,0,1,12.88,1c2.53.6.37,2.81-.28,4a233.27,233.27,0,0,1-19.21,29.19c-16.74,22.08-35.6,41.86-60.27,55.32S944,1108.35,916.16,1109.14Z" transform="translate(0 -268)"/><path class="cls-11" d="M893.59,1052.54c3-3.21,6.66-5.28,10.11-7.47,20.59-13,42.15-24.1,65.21-32.18,4.49-1.58,5.6-.45,5,3.85a14.05,14.05,0,0,0,0,3.49c1.68,14.43-5.47,23.64-17.52,30.14a133.93,133.93,0,0,1-34.61,12.56C910.29,1065.49,902,1059,893.59,1052.54Z" transform="translate(0 -268)"/><path class="cls-15" d="M1310.94,566.66v83.46c0,6.76,0,6.78-6.76,7.21-17.85,1.14-34.1,7.12-49.18,16.48-8.5,5.28-16.73,11-23.88,18-2.28,2.24-4.16,2.47-7,1.22-9.62-4.25-19.69-6.27-30.17-4.34-14,2.59-25.26,10-34.4,20.67-2,2.39-3.71,2.88-6.76,2a57.33,57.33,0,0,0-33-.23c-2.06.61-3.4.29-5.33-1-11.18-7.49-23.22-13.2-36.87-14.06-10.63-.68-21.34-.73-31.64,2.82-2.47.84-4.13,0-5.56-2-20.11-27.33-48.91-39-81-44.52a91.78,91.78,0,0,0-21.41-1.11c-3.28.2-4.29-1-4.29-4.27q.12-85.46,0-170.91c0-2.93.73-4.27,3.93-4,20.25,1.73,38.07-4.63,54.1-16.62,4.34-3.25,9.15-1.81,13.5-1.16,17.32,2.61,31.94-3.45,43.58-15.16,7.12-7.15,11.9-8.72,21.35-3.9,28.84,14.72,60.16,16.71,91.94,15,11.83-.64,23.58-1.54,35-4.9,2.72-.8,4.09,1,5.67,2.28,7.13,5.68,14.87,10.27,23.79,12.22a61,61,0,0,0,35.36-2.39c3.12-1.18,5.17-1.15,7.79,1.49,9.5,9.58,21.4,14.55,34.65,16.09,5,.58,6.74,2.26,6.67,7.68C1310.76,510.69,1310.94,538.68,1310.94,566.66ZM1125.7,538c-17.83.14-34,1.82-49.84,6.12-18.52,5-35.82,12.4-49.36,26.8-12.08,12.86-13.1,32.62-2.25,46.12,11.93,14.84,28.19,22.65,45.77,27.87a186.94,186.94,0,0,0,108.22,0c16.11-4.76,31.14-11.88,42.82-24.55,14.28-15.48,14.08-34.82-.28-50.15-7.42-7.92-16.33-13.61-26.1-18.08C1172.32,541.91,1148.58,538.47,1125.7,538Z" transform="translate(0 -268)"/><path class="cls-10" d="M1106.57,716.09c-3,1.65-5.15,2.77-7.22,4.09-2.4,1.53-3.51,3.76-1.95,6.38,1.36,2.3,3.59,2.79,6.08,1.65,4.38-2,8.65-4.32,13.17-6,15.87-5.78,31.27-5.83,45.59,4.52,2.29,1.65,4.65,2.12,6.67-.22a4.24,4.24,0,0,0-.68-6.6c-3.19-2.36-2-3.9.08-6.17,14.2-15.3,32.12-19.95,50.18-12.83.75.3,1.45.73,2.52,1.27-7,8.54-13.93,16.86-18.7,26.51-2.29,4.63-5.12,6.42-10,7.58-11.79,2.79-21.45,9.57-29.55,18.53-2,2.2-3,4.76-.62,7.1,2.56,2.56,5.19,1.45,7.36-.89a61.33,61.33,0,0,1,18-13.21q16.29-8.13,31,2.71c1.87,1.38,3.65,3.08,6.28,2.12,3.4-1.25,4-5.12,1-8.16-3.82-3.89-8.71-6-13.82-7.69-2.22-.72-2.87-1.56-1.49-3.83,19.18-31.67,45-54.88,81.65-64.4,4.68-1.22,9.53-1.29,14.37-1.58,3.82-.23,4.69,1,4.67,4.71-.15,29.83-.08,59.66-.08,89.49,0,9.81,0,9.81-9.93,9.81q-180.74,0-361.47.13c-5.09,0-6.22-1.18-6.18-6.25.28-33,.2-66,.07-99,0-3.71.68-5,4.81-5.06,21.59-.35,41.89,4.58,61.26,13.87,13.19,6.34,23.74,15.82,32.82,27.13,1.45,1.81,2.12,3.13-.24,4.79a13.54,13.54,0,0,0-4.28,4.81c-1.26,2.42-1,4.55,1.09,6.24a4,4,0,0,0,5.85-.5c8.58-10.37,20.61-11.3,32.65-12C1081.39,704.32,1093.92,708.73,1106.57,716.09Z" transform="translate(0 -268)"/><path class="cls-11" d="M1210.23,440.74c4.64-2.1,8.92-3.91,13.08-6,2.73-1.35,4.84-3.48,3.18-6.79s-4.44-3-7.32-1.66c-13.15,6.22-26.54,11.56-41.21,13.16-26.53,2.89-53,2.71-79-3.65-16.16-3.95-32-9.45-43.93-22.27-2.16-2.32-4.82-3.43-7.4-.83s-1.55,5.58.8,7.45c3.57,2.84,2,4.64-.36,7-11.21,11.66-23.9,19.71-41,17.66-2.41-.29-4.44-.38-6-3.28-2-3.71-5.4-2.63-7.93,0a71.79,71.79,0,0,1-15.88,12c-12.32,7.1-25.48,10.43-39.77,9-2.75-.27-4-.77-4-4,.16-20.49.13-41,0-61.48,0-2.82.82-4,3.68-3.65a17.37,17.37,0,0,0,2.5,0q182.71,0,365.44-.12c4.95,0,6,1.35,5.89,6.06q-.4,31,0,62c.06,4.61-1.39,5.06-5.39,4.36-10-1.78-19.37-4.88-27.18-11.69a25.11,25.11,0,0,1-7-9c-.91-2.14-2.5-3.6-5-3.4a4.16,4.16,0,0,0-4,3.84,3.33,3.33,0,0,1-2.14,2.5C1246.13,455.52,1222.72,452.28,1210.23,440.74Z" transform="translate(0 -268)"/><path class="cls-2" d="M1891.51,1274.74c0,7.33-8,14.17-16.58,14.14-8.07,0-15-6.37-15-13.73s8-15.57,15.5-15.62C1884,1259.47,1891.54,1266.62,1891.51,1274.74Zm-16.18,4.18c3-.26,5.93-1.07,5.86-4.64a4.78,4.78,0,0,0-5.41-4.69c-2.93.24-5.51,2.21-5.68,5.32S1872.61,1278.78,1875.33,1278.92Z" transform="translate(0 -268)"/><path class="cls-4" d="M1748.52,1273.87c0,7.58-7.33,14.18-15.77,14.14-9,0-16.69-7-16.68-15.16,0-8.34,7.5-15.79,16-16C1740.3,1256.71,1748.49,1265.18,1748.52,1273.87Zm-16.31,4.11c3.23-.11,6-.81,6.34-4.42.3-3-3.72-6.84-6.86-6.66-3.64.22-5.46,2.73-5.45,5.94C1726.24,1276.49,1729.1,1277.72,1732.21,1278Z" transform="translate(0 -268)"/><path class="cls-2" d="M396.23,663a43.34,43.34,0,0,0-2.79-20.63c-3.05-7.51-4-15-1.31-22.88,1.22-3.6,1.68-7.46,2.66-11.15.73-2.73,2.3-4.87,5.37-5.23,3.32-.39,5.44,1.52,6.65,4.26a93.47,93.47,0,0,1,3.34,9.39c1.49,4.61,3,9.27,6.27,12.93,2,2.22,4.61,4.48,7.83,2.7,3-1.64,1.94-4.58,1.15-7.17a9.7,9.7,0,0,1,.48-6.8c1.93-4.79,5.11-6,9.31-3.07,5.7,4,9.38,9.35,10,16.53.28,3.52.85,7,3.5,9.65,1.52,1.54,2.86,2.35,5.15.77,6.65-4.55,11.64-2,12.21,6.3a53.53,53.53,0,0,1-9.65,34.49c-3.45,5-3.34,9.23-1.8,14.7q15.19,54.12,34.17,107c3.77,10.46,1.47,16.05-8.06,21.66-6.9,4.06-15,.82-16.82-7-8.05-34.06-20.83-66.74-29.19-100.7a36,36,0,0,1-1-3.87c-1.1-8.66-3.57-14.08-14.64-14.46-12.79-.44-22.07-13.22-22.78-27C396.09,670.11,396.23,666.77,396.23,663Zm5.52-39.52c-1.75,3.31-2.17,6.35-1.08,9.13,4.83,12.33,5.52,25,5.54,38.18,0,17.92,16.17,26.53,31.59,17.38,12.26-7.27,16.3-19.56,18.43-32.73.33-2-.49-2.35-2.47-2.39-8.51-.15-14.37-4.89-17.18-13.26-.48-1.42,0-3.29-1.57-4.4C424.47,648.57,412.24,644.31,401.75,623.46Zm78.9,188c-.37-1.12-.8-2.54-1.28-4-7-20.62-14.71-41-20.95-61.88-4.58-15.29-8.91-30.66-13.42-46-.35-1.18,0-3.4-2.36-2.87-2,.47-3.14,1.78-2.37,4.07a22.54,22.54,0,0,1,.57,2.43c8.56,38.35,23.16,75,32.23,113.18.22.91.2,2,1.66,2C476.84,818.4,480.76,814,480.65,811.51Z" transform="translate(0 -268)"/><path class="cls-2" d="M537.62,835.53a16.17,16.17,0,0,1-6,9.84,4.37,4.37,0,0,1-5.53-.26,4.05,4.05,0,0,1-1.28-5.3c1.29-2.66,2.61-5.32,4.15-7.84a4.37,4.37,0,0,1,5.64-1.76C537,831.08,537.28,833.29,537.62,835.53Z" transform="translate(0 -268)"/><path class="cls-2" d="M521,826.83c.06,4.95-5.08,11.28-8.53,11.09a4.3,4.3,0,0,1-4.45-4.43c-.24-3.66,5.65-11.36,8.56-11A4.53,4.53,0,0,1,521,826.83Z" transform="translate(0 -268)"/><path class="cls-2" d="M376.76,579.7c.14,2.58-5.08,7.78-8.05,7.81S364,586,363.77,583s4.59-7.72,7.88-7.8A5.16,5.16,0,0,1,376.76,579.7Z" transform="translate(0 -268)"/><path class="cls-5" d="M494.86,1165.17a147.71,147.71,0,0,1-26.6-3.84c-12.91-3.16-17.74-15-11-26.44,6-10.1,16-15.13,26-20.21,22.81-11.61,39.91-1.48,52.9,15.62,4,5.3,3.15,15.27-4.87,21.26A66.81,66.81,0,0,1,494.86,1165.17Zm-.55-9.79a52.45,52.45,0,0,0,30.45-11.13c6.16-4.7,5.4-7.62,1-11.79-1.81-1.72-3.66-3.39-5.42-5.16-2-2-3.47-2.45-6.13-.28-11.5,9.38-24.3,11.85-38.18,5.7-2-.88-3.32-.85-4.87.61a26.51,26.51,0,0,0-5.73,6.85c-3,5.68-1.09,10.4,5.19,11.74A151.05,151.05,0,0,0,494.31,1155.38ZM485,1125.27c4-.18,7-2.25,9.86-4.47A18.72,18.72,0,0,0,485,1125.27Z" transform="translate(0 -268)"/><path class="cls-5" d="M2645.42,748.38a74.05,74.05,0,0,1,5.36,28.74c0,1.5,0,3-.09,4.49-1,13.26-4.31,16.25-17.59,15.65-3.46-.15-6.62-.23-8.8,3.5a10.83,10.83,0,0,1,7.94,3.69,6,6,0,0,0,4,1.82c1.32.17,2.63.43,3.94.66,7.21,1.26,11.84,4.89,12.48,9.78.58,4.48-3.28,9-9.27,12.47-21.25,12.31-43,10.47-64.42,1.56-17.64-7.34-35.31-14.92-51.43-25.42-7.54-4.92-15.66-6.2-24.36-5a123.51,123.51,0,0,1-35.35,0,56.57,56.57,0,0,0-31.74,4.34c-28.08,12.4-28.12,12.31-57,1.67a24.69,24.69,0,0,1-3.26-1.26c-11-6-20-1.29-28.46,5.67-3.35,2.77-6.79,4.72-11.28,4.43-7.75-.49-11.71-6.08-9.26-13.44a66.23,66.23,0,0,1,8.58-17.43,205.71,205.71,0,0,0,13.67-21.47c2.23-4.18,4.87-8.82,10.82-8.12,6.23.74,9.77,4.7,11,10.68a6.21,6.21,0,0,0,5.31,5.22,55.14,55.14,0,0,0,8.88,1.37,25,25,0,0,1,15.66,5.68c2.87,2.37,5.77,2.54,9.31,1.67,10.55-2.61,19.23-8.77,29.29-14.65-4.5-2.16-8.16-4.42-12.13-5.73a68.8,68.8,0,0,1-26.53-16.41c-1.68-1.61-3.58-3-5.19-4.69-8-8.31-17.26-12.54-29.15-10.37-12.88,2.35-20.83-6.24-28.42-14.42-4.07-4.38-1.9-10.12,3.95-12.34,7.06-2.67,14.47-3.74,22-4.56,4.29-.47,8.74-.85,12.74-2.3,7.75-2.81,13.51.25,19.1,5,19.21,16.31,40,29.83,64.68,36.42,3.71,1,7.49,1.92,11.34,1.55,17.73-1.69,34.69,2.64,50.79,8.75,19.66,7.45,37.69,6.64,55.36-4.44,12.87-8.06,27-13.79,40.13-21.33,12.55-7.21,25.83-5.93,38.84-2.3,10.22,2.86,20,7.19,30,10.91a28.65,28.65,0,0,1,9.81,5.85c7.31,6.86,5.76,16.9-3.61,20.54-5.75,2.24-11.22,4.08-15.49,9.17-3.28,3.9-9.66,2.7-13.28-1.49a18.35,18.35,0,0,1-3.12-5.08C2658.39,750.4,2653.05,747.9,2645.42,748.38ZM2348.35,709c6,9.44,14.69,10,24,8.6a25.77,25.77,0,0,1,16.81,3.38c5.88,3.3,10.78,7.84,15.64,12.38,7.87,7.34,16.26,13.58,26.71,17,5.49,1.79,10.55,4.92,15.72,7.59,2.24,1.16,4.92,3.08,3.83,5.65-1.75,4.11-3,8.84-8.2,10.68-2.93,1-5.52,3-8.25,4.65-7.18,4.25-14.57,8-22.71,10.17-5.94,1.61-11.18.86-16-3a19,19,0,0,0-11.94-4.37,49,49,0,0,1-8.87-1.39c-6.84-1.41-12.14-4.57-13.47-12.16-.19-1.07-.33-2.58-1.74-2.75-1.64-.19-2.21,1.4-2.72,2.51-3.44,7.47-8.25,14.07-13,20.71a55.62,55.62,0,0,0-6.86,12.72c-.48,1.28-2.2,2.85-.67,4,1.29,1,2.73-.52,3.86-1.48a23.33,23.33,0,0,1,2.15-2.08c9.85-6.41,19.56-12.71,32.3-7.31,7.95,3.38,16.39,5.61,24.49,8.64a21.49,21.49,0,0,0,16.06-.22c5.26-2.09,10.49-4.25,15.66-6.57,10.69-4.79,21.88-7.64,33.52-6a157.52,157.52,0,0,0,42.28,0c7.3-.91,14.35-.42,21,4.1,15.61,10.66,33.14,17.8,50.25,25.57,19.76,9,40.06,12.63,60.27.7,1.2-.71,3.32-.89,3-2.76-.23-1.51-2.17-1.35-3.36-1.52-4.49-.62-8.9-1.19-12.39-4.61-1.65-1.62-3-.14-4.25,1-6.31,5.49-13.52,6.77-21.46,4.5a139.27,139.27,0,0,1-22.73-9,20.91,20.91,0,0,1-10.6-25.67,6.43,6.43,0,0,1,1.66-2.43c2.8-2.54,11.26-2.19,13.64.86s5.74,4.42,9.17,5.7c1.77.66,2.93.44,2.76-1.87a62.59,62.59,0,0,1,.75-15.31c-4.34,2.42-7.95,4.42-11.55,6.45-2.95,1.66-5.62,1.34-7.3-1.66s-.17-5.69,2.61-7c11.42-5.57,21.57-13.23,32.64-19.38,14.7-8.17,29.59-13.53,46.63-7.77,4.22,1.43,8.29,1.89,9.09,7.52.32,2.3,2.38,4.33,3.52,6.55,1.07,2.05,2,1.79,3.17.1,2.5-3.62,6.13-5.4,10.29-6.56,2.61-.72,6.67-.55,7-3.74.38-3.7-3.73-4.79-6.51-5.87-10.4-4-20.79-8.14-31.43-11.39-12.08-3.7-23.63-2.63-35,4.07-14.34,8.42-29.47,15.5-44.18,23.3-15.78,8.37-32,7.93-48.43,2.56-4.9-1.59-9.71-3.6-14.72-4.74-11.81-2.67-23.45-6.73-35.84-5.57a48,48,0,0,1-14.36-1c-25-5.28-45.82-19-65.36-34.29-7.76-6.07-13.94-9.17-23.5-6.13C2364.12,707.21,2355.93,706.09,2348.35,709Zm251.28,57.58c13.42-.56,22.24,6.16,28.74,16.89A20.84,20.84,0,0,0,2630,786c2.17,2.69,5.19,1.67,7.92,1.61,1.8,0,2.59-1.43,2.69-3.06.67-11.89.66-23.63-5.57-34.46-1.17-2-2.11-1.52-3.52-1C2620.17,753.39,2609.9,759.77,2599.63,766.56Zm18.27,35.91c-7,1-13.45.74-18.78-4.28a2.12,2.12,0,0,0-1.35-.53c-7.78.12-14.3-3.45-21-7.4-1.51,4.44.33,7.06,3.79,8.77a180.18,180.18,0,0,0,20.25,8.45C2607.69,809.88,2613.17,808.24,2617.9,802.47Zm-14.37-21.21c.33,10.78,4.65,14.28,13.51,11.11,1.51-.55,4.18-.58,3.46-3.16-.55-2-1.72-3.71-4.7-3.24a5.61,5.61,0,0,1-6.83-5c-.39-2.46-.9-4.39-3.64-4.12C2602.11,777.17,2604.15,780,2603.53,781.26Z" transform="translate(0 -268)"/><path class="cls-5" d="M2596.14,665.82c0,7.83,0,15.65,0,23.48,0,3.22-.74,6.4-4.58,6.55-4.2.16-5-3.1-5-6.55q0-23.24.05-46.46c0-3.39.66-6.77,4.86-6.78s4.79,3.39,4.79,6.78q0,11.49,0,23Z" transform="translate(0 -268)"/><path class="cls-4" d="M2572.58,680.23c0,3.16.06,6.32,0,9.48s-.95,6.24-4.82,6.35-4.95-2.83-5-6.11c-.08-6.32-.06-12.64,0-19,0-3.24.89-6.33,4.76-6.37,4.15,0,5,3.21,5.06,6.63C2572.63,674.24,2572.58,677.23,2572.58,680.23Z" transform="translate(0 -268)"/><path class="cls-4" d="M2329.92,764.65c0,3,.18,6-.05,9-.2,2.56-1.7,4.44-4.42,4.61a4.39,4.39,0,0,1-5-4.5c-.23-6.31-.2-12.64,0-19,.09-2.81,1.88-4.76,4.86-4.63s4.44,2.2,4.59,5c.17,3.15,0,6.32,0,9.48Z" transform="translate(0 -268)"/><path class="cls-16" d="M1125.7,538c22.88.44,46.62,3.88,69,14.1,9.77,4.47,18.68,10.16,26.1,18.08,14.36,15.33,14.56,34.67.28,50.15-11.68,12.67-26.71,19.79-42.82,24.55a186.94,186.94,0,0,1-108.22,0c-17.58-5.22-33.84-13-45.77-27.87-10.85-13.5-9.83-33.26,2.25-46.12,13.54-14.4,30.84-21.76,49.36-26.8C1091.67,539.85,1107.87,538.17,1125.7,538Z" transform="translate(0 -268)"/><path class="cls-14" d="M1875.33,1278.92c-2.72-.14-5.4-.87-5.23-4s2.75-5.08,5.68-5.32a4.78,4.78,0,0,1,5.41,4.69C1881.26,1277.85,1878.3,1278.66,1875.33,1278.92Z" transform="translate(0 -268)"/><path class="cls-14" d="M1732.21,1278c-3.11-.26-6-1.49-6-5.14,0-3.21,1.81-5.72,5.45-5.94,3.14-.18,7.16,3.66,6.86,6.66C1738.18,1277.17,1735.44,1277.87,1732.21,1278Z" transform="translate(0 -268)"/><path class="cls-7" d="M401.75,623.46c10.49,20.85,22.72,25.11,33.26,11.91,1.56,1.11,1.09,3,1.57,4.4,2.81,8.37,8.67,13.11,17.18,13.26,2,0,2.8.34,2.47,2.39-2.13,13.17-6.17,25.46-18.43,32.73-15.42,9.15-31.57.54-31.59-17.38,0-13.13-.71-25.85-5.54-38.18C399.58,629.81,400,626.77,401.75,623.46Z" transform="translate(0 -268)"/><path class="cls-8" d="M480.65,811.51c.11,2.53-3.81,6.89-5.92,7-1.46.07-1.44-1.07-1.66-2-9.07-38.2-23.67-74.83-32.23-113.18a22.54,22.54,0,0,0-.57-2.43c-.77-2.29.34-3.6,2.37-4.07,2.33-.53,2,1.69,2.36,2.87,4.51,15.31,8.84,30.68,13.42,46,6.24,20.88,13.95,41.26,20.95,61.88C479.85,809,480.28,810.39,480.65,811.51Z" transform="translate(0 -268)"/><path class="cls-11" d="M494.31,1155.38a151.05,151.05,0,0,1-23.67-3.46c-6.28-1.34-8.16-6.06-5.19-11.74a26.51,26.51,0,0,1,5.73-6.85c1.55-1.46,2.87-1.49,4.87-.61,13.88,6.15,26.68,3.68,38.18-5.7,2.66-2.17,4.13-1.74,6.13.28,1.76,1.77,3.61,3.44,5.42,5.16,4.38,4.17,5.14,7.09-1,11.79A52.45,52.45,0,0,1,494.31,1155.38Z" transform="translate(0 -268)"/><path class="cls-8" d="M485,1125.27a18.72,18.72,0,0,1,9.86-4.47C492,1123,489,1125.09,485,1125.27Z" transform="translate(0 -268)"/><path class="cls-6" d="M2348.35,709c7.58-2.89,15.77-1.77,23.11-4.1,9.56-3,15.74.06,23.5,6.13,19.54,15.27,40.37,29,65.36,34.29a48,48,0,0,0,14.36,1c12.39-1.16,24,2.9,35.84,5.57,5,1.14,9.82,3.15,14.72,4.74,16.47,5.37,32.65,5.81,48.43-2.56,14.71-7.8,29.84-14.88,44.18-23.3,11.39-6.7,22.94-7.77,35-4.07,10.64,3.25,21,7.38,31.43,11.39,2.78,1.08,6.89,2.17,6.51,5.87-.33,3.19-4.39,3-7,3.74-4.16,1.16-7.79,2.94-10.29,6.56-1.17,1.69-2.1,2-3.17-.1-1.14-2.22-3.2-4.25-3.52-6.55-.8-5.63-4.87-6.09-9.09-7.52-17-5.76-31.93-.4-46.63,7.77-11.07,6.15-21.22,13.81-32.64,19.38-2.78,1.36-4.36,3.94-2.61,7s4.35,3.32,7.3,1.66c3.6-2,7.21-4,11.55-6.45a62.59,62.59,0,0,0-.75,15.31c.17,2.31-1,2.53-2.76,1.87-3.43-1.28-6.74-2.58-9.17-5.7s-10.84-3.4-13.64-.86a6.43,6.43,0,0,0-1.66,2.43,20.91,20.91,0,0,0,10.6,25.67,139.27,139.27,0,0,0,22.73,9c7.94,2.27,15.15,1,21.46-4.5,1.28-1.12,2.6-2.6,4.25-1,3.49,3.42,7.9,4,12.39,4.61,1.19.17,3.13,0,3.36,1.52.29,1.87-1.83,2.05-3,2.76-20.21,11.93-40.51,8.27-60.27-.7-17.11-7.77-34.64-14.91-50.25-25.57-6.63-4.52-13.68-5-21-4.1a157.52,157.52,0,0,1-42.28,0c-11.64-1.68-22.83,1.17-33.52,6-5.17,2.32-10.4,4.48-15.66,6.57a21.49,21.49,0,0,1-16.06.22c-8.1-3-16.54-5.26-24.49-8.64-12.74-5.4-22.45.9-32.3,7.31a23.33,23.33,0,0,0-2.15,2.08c-1.13,1-2.57,2.45-3.86,1.48-1.53-1.14.19-2.71.67-4a55.62,55.62,0,0,1,6.86-12.72c4.75-6.64,9.56-13.24,13-20.71.51-1.11,1.08-2.7,2.72-2.51,1.41.17,1.55,1.68,1.74,2.75,1.33,7.59,6.63,10.75,13.47,12.16a49,49,0,0,0,8.87,1.39,19,19,0,0,1,11.94,4.37c4.79,3.88,10,4.63,16,3,8.14-2.2,15.53-5.92,22.71-10.17,2.73-1.62,5.32-3.62,8.25-4.65,5.2-1.84,6.45-6.57,8.2-10.68,1.09-2.57-1.59-4.49-3.83-5.65-5.17-2.67-10.23-5.8-15.72-7.59-10.45-3.42-18.84-9.66-26.71-17-4.86-4.54-9.76-9.08-15.64-12.38a25.77,25.77,0,0,0-16.81-3.38C2363,719,2354.34,718.42,2348.35,709Z" transform="translate(0 -268)"/><path class="cls-6" d="M2599.63,766.56c10.27-6.79,20.54-13.17,31.92-17.51,1.41-.53,2.35-1,3.52,1,6.23,10.83,6.24,22.57,5.57,34.46-.1,1.63-.89,3-2.69,3.06-2.73.06-5.75,1.08-7.92-1.61a20.84,20.84,0,0,1-1.66-2.5C2621.87,772.72,2613.05,766,2599.63,766.56Z" transform="translate(0 -268)"/><path class="cls-12" d="M2617.9,802.47c-4.73,5.77-10.21,7.41-17.07,5a180.18,180.18,0,0,1-20.25-8.45c-3.46-1.71-5.3-4.33-3.79-8.77,6.68,4,13.2,7.52,21,7.4a2.12,2.12,0,0,1,1.35.53C2604.45,803.21,2610.91,803.49,2617.9,802.47Z" transform="translate(0 -268)"/><path class="cls-11" d="M2603.53,781.26c.62-1.3-1.42-4.09,1.8-4.4,2.74-.27,3.25,1.66,3.64,4.12a5.61,5.61,0,0,0,6.83,5c3-.47,4.15,1.26,4.7,3.24.72,2.58-1.95,2.61-3.46,3.16C2608.18,795.54,2603.86,792,2603.53,781.26Z" transform="translate(0 -268)"/></svg>