<svg id="Layer_1" data-name="Layer 1" xmlns="http://www.w3.org/2000/svg" viewBox="0 0 3001 1283"><defs><style>.cls-1{fill:#fff;}</style></defs><path class="cls-1" d="M3000,1094v189H-1V0H3000V1083c-5.79-.53-11.57-1.14-17.37-1.57-20.62-1.56-41.24-2.51-61.85.15-21.44,2.77-42.88,5.59-64.84,8.45V221.42H1545.85v867c-7.27,1.3-14.16,2.36-21,3.8-3.15.66-5.71,2.66-4.89,6.36.85,3.88,3.92,4,7.15,3.23a70.29,70.29,0,0,1,8.3-1.72,289.28,289.28,0,0,1,75.67,2.44c56.43,9.27,104.44,35.87,147.52,72.29,8,6.73,14.67,15,21.89,22.56,2.26,2.38,4.72,4.24,7.75,1.77s1.87-5.4-.17-7.95c-2.49-3.13-5-6.28-7.73-9.17-4-4.14-8.15-8.06-12.25-12.08a6.91,6.91,0,0,1,3.92,0c1.3.3,2.6.58,3.91.84,27.54,5.44,51.53,17.62,71.4,37.62,1.28,1.29,2.6,3,4.19,3.41s4.29.27,5.33-.79,1.14-3.65.75-5.36c-.33-1.45-1.89-2.67-3-3.86a138.86,138.86,0,0,0-33.34-25.26c-1.38-.76-2.7-1.6-4.19-2.49,30.07-26.66,114-24,141.27,4.49-2.22,1-4.3,1.88-6.35,2.84-3.06,1.43-5.88,3.32-4.23,7.2,1.53,3.6,4.71,3.13,7.71,2a58.27,58.27,0,0,0,6.87-3c31.42-17.1,65-23.2,100.41-19.43,24.36,2.59,47.28,9.59,67.61,23.8,4.23,3,8.21,6.35,12.72,8.79,1.57.86,5,.15,6.36-1.14.91-.87.43-4.77-.77-6-3.93-4-8.07-8.09-12.87-10.85-8.62-4.94-17.71-9.09-26.74-13.27-4.63-2.14-9.55-3.62-15.07-5.66,13.42-7.37,26.76-12.81,41-15.73,43.38-8.9,87.07-11.75,131.11-5.8,20,2.71,39.69,7,58.08,15.83,2.4,1.15,4.66,2.63,6.45,3.65-13.48,4.69-26.89,9.09-40.11,14-18.75,7-35.47,17.6-51.46,29.43-2.73,2-4.71,4.79-2,8.06,2.49,3,5.32,1.6,7.95-.29,16.39-11.83,33.62-22,52.58-29.44,34-13.42,68.75-19.3,105.13-14.77,21.41,2.67,41.76,8.41,60.19,20,2.75,1.73,5.82,2.56,8-.66,2.37-3.59-.17-5.9-3-7.77-2.29-1.54-4.71-2.92-7.95-4.91,5.27-2.73,9.55-5.33,14.1-7.26,20.38-8.62,41.73-13.54,63.58-16.67,27.23-3.91,54.23-3.61,80.58,4.89,28.88,9.33,55.08,23.55,77.17,44.71,2.43,2.33,5.15,4.4,8.21,1.41s1.19-5.92-1.24-8.21a60.57,60.57,0,0,0-6.53-4.74c3.94-4.59,6.57-7.81,9.35-10.89,20-22.15,44.63-38,71.45-50.34,65.83-30.21,135.12-41.89,207.28-37C2989.27,1091.68,2994.62,1093.08,3000,1094ZM880.77,221.37H144.26V959.55H874.39c6.37,0,6.38,0,6.38-6.53V221.37Zm533.85,532.48V221.34H1012.36V753.85ZM381.76,1212.42c-.53-.6-1.05-1.2-1.58-1.79,4.6-1.18,9.22-3.43,13.79-3.33,17.79.38,35.71.35,53.3,2.62,23.77,3.06,45,13.79,65.63,25.67,1.73,1,3.43,2.6,5.24,2.75,2,.16,4.76-.49,5.86-1.86.83-1,0-4-.91-5.64-.83-1.44-2.82-2.24-4.35-3.23-37.53-24.17-79.09-32.4-123-30.39-6.6.3-13.28,2.85-19.51,5.38-3.26,1.33-4.73,1-7.21-1.17-11.13-9.75-21.85-20.18-34-28.57-20-13.89-43.73-19.16-67-25a82.14,82.14,0,0,0-37.65-.11c-5.4,1.18-8.36.32-11.19-4.52s-6.58-8.8-10.24-12.88a372.27,372.27,0,0,0-57.6-52.34c-25.63-18.74-53.35-33.43-84.6-40.38-6.37-1.42-13.13-1.5-19.69-1.36-1.45,0-2.82,3.59-4.23,5.53,1.91,1.24,3.67,3,5.75,3.57,2.32.6,5.08-.5,7.39.12,11.72,3.1,23.7,5.65,35,10,36.53,14.13,66.88,37.59,94.63,64.7,12.53,12.24,25.27,24.52,32.94,40.52,5.51,11.5,9.39,23.79,13.93,35.76,1.25,3.31,2.68,6.64,7,5.23,4-1.3,3.6-4.83,2.48-8-3.79-10.66-7.72-21.26-11.6-31.89-.42-1.16-.8-2.35-1.36-3.95,11-2.32,21.7-3.48,32.11-1.18,14.43,3.18,28.61,7.55,42.76,11.86A107.13,107.13,0,0,1,345,1192.48c9.1,8.3,17.81,17,26.69,25.58,2.36,2.27,5.25,4.93,8.13,2.24C381.46,1218.75,381.17,1215.12,381.76,1212.42ZM801,1066.6c-3.66,2.92-6.75,4.71-8.84,7.3-1.26,1.55-2,4.78-1.18,6.5,1.29,2.92,4.37,2.59,6.89,1,2.25-1.42,4.33-3.1,6.47-4.69q49.31-36.8,110.81-36.61c24.56.06,48.82,2.49,72.71,8.45a20.59,20.59,0,0,0,9.77.19c1.7-.43,3.61-3.39,3.75-5.34.08-1.15-2.94-2.89-4.86-3.7-1.57-.67-3.6-.18-5.38-.49-12.77-2.24-25.46-5-38.29-6.74a258.72,258.72,0,0,0-67.24-.16c-23.95,3-46.16,11.28-67,23.34a15.87,15.87,0,0,1-11.23,2.11c-14.61-2.28-29.26-4.37-44-6-26.26-2.94-51.4,1.51-75.42,12.47-3.18,1.45-6.49,3.25-4.71,7.38s5.29,3,8.58,1.7c6.36-2.46,12.68-5.07,19.16-7.16,21.6-6.94,43.71-5.88,65.81-3.52C784.51,1063.43,792.1,1065.11,801,1066.6Z" transform="translate(1)"/><path d="M3000,1094c-5.38-.92-10.73-2.32-16.15-2.69-72.16-4.91-141.45,6.77-207.28,37-26.82,12.31-51.42,28.19-71.45,50.34-2.78,3.08-5.41,6.3-9.35,10.89a60.57,60.57,0,0,1,6.53,4.74c2.43,2.29,4.29,5.23,1.24,8.21s-5.78.92-8.21-1.41c-22.09-21.16-48.29-35.38-77.17-44.71-26.35-8.5-53.35-8.8-80.58-4.89-21.85,3.13-43.2,8-63.58,16.67-4.55,1.93-8.83,4.53-14.1,7.26,3.24,2,5.66,3.37,7.95,4.91,2.78,1.87,5.32,4.18,3,7.77-2.13,3.22-5.2,2.39-8,.66-18.43-11.59-38.78-17.33-60.19-20-36.38-4.53-71.16,1.35-105.13,14.77-19,7.49-36.19,17.61-52.58,29.44-2.63,1.89-5.46,3.32-7.95.29-2.69-3.27-.71-6,2-8.06,16-11.83,32.71-22.47,51.46-29.43,13.22-4.91,26.63-9.31,40.11-14-1.79-1-4.05-2.5-6.45-3.65-18.39-8.8-38-13.12-58.08-15.83-44-6-87.73-3.1-131.11,5.8-14.22,2.92-27.56,8.36-41,15.73,5.52,2,10.44,3.52,15.07,5.66,9,4.18,18.12,8.33,26.74,13.27,4.8,2.76,8.94,6.86,12.87,10.85,1.2,1.23,1.68,5.13.77,6-1.35,1.29-4.79,2-6.36,1.14-4.51-2.44-8.49-5.83-12.72-8.79-20.33-14.21-43.25-21.21-67.61-23.8-35.41-3.77-69,2.33-100.41,19.43a58.27,58.27,0,0,1-6.87,3c-3,1.17-6.18,1.64-7.71-2-1.65-3.88,1.17-5.77,4.23-7.2,2-1,4.13-1.85,6.35-2.84-27.32-28.49-111.2-31.15-141.27-4.49,1.49.89,2.81,1.73,4.19,2.49a138.86,138.86,0,0,1,33.34,25.26c1.15,1.19,2.71,2.41,3,3.86.39,1.71.29,4.3-.75,5.36s-3.68,1.25-5.33.79-2.91-2.12-4.19-3.41c-19.87-20-43.86-32.18-71.4-37.62-1.31-.26-2.61-.54-3.91-.84a6.91,6.91,0,0,0-3.92,0c4.1,4,8.29,7.94,12.25,12.08,2.75,2.89,5.24,6,7.73,9.17,2,2.55,3.16,5.49.17,7.95s-5.49.61-7.75-1.77c-7.22-7.6-13.93-15.83-21.89-22.56-43.08-36.42-91.09-63-147.52-72.29a289.28,289.28,0,0,0-75.67-2.44,70.29,70.29,0,0,0-8.3,1.72c-3.23.74-6.3.65-7.15-3.23-.82-3.7,1.74-5.7,4.89-6.36,6.81-1.44,13.7-2.5,21-3.8V221.42H2855.94V1090c22-2.86,43.4-5.68,64.84-8.45,20.61-2.66,41.23-1.71,61.85-.15,5.8.43,11.58,1,17.37,1.57Zm-415.52,45.64c4.15.59,8.6,1.19,13,1.87,31.82,4.94,59.85,18.78,86.12,36.73,5.17,3.53,5.67,3.4,9.82-1.26a218.64,218.64,0,0,1,49-41.5c31.58-19.37,65.83-31.93,101.32-41.61,3.34-.91,5.36-1.75,5.34-6.06-.17-53.16-.08-106.33-.22-159.49a10.84,10.84,0,0,0-2.49-6.6c-10.77-12.27-21.85-24.27-32.69-36.48-35.19-39.62-70.07-79.5-105.53-118.87-32.66-36.28-65.94-72-98.88-108-6.94-7.6-13.57-15.47-20.52-23.42-.84.9-1.45,1.44-1.93,2.07-14.37,18.8-28.53,37.76-43.22,56.31-4.22,5.32-6.25,9.92-2.85,16.33.84,1.57.42,4.83-.73,6.26a113.56,113.56,0,0,1-11.85,12.57c-6.07,5.55-7.22,12-4.72,19.49.47,1.41.63,2.93,1,4.38,5.67,22.47,6.87,45,2.05,67.85-2.26,10.69-7.74,15.15-18.52,13.53-20.79-3.14-40.54-9.27-58.66-20.26-21.44-13-37.48-30.74-47.67-53.67-1.14-2.57-1.32-5.79-3-7.82-3.44-4.13-2.08-7.19,1.42-9.7a121.83,121.83,0,0,1,15.5-10,132.61,132.61,0,0,1,49.68-14.22c7.84-.64,13.38-3.89,17.65-10.38q7.82-11.9,16.46-23.23c3-4,6.35-8.71,12.64-6.42,3.39,1.23,5.29.28,6.67-2.83a22.28,22.28,0,0,1,2.47-3.75c15.11-20.74,30.27-41.44,45.25-62.27a10.85,10.85,0,0,0,1.71-6.28c-.3-9.93,7.63-19.94,17-21.09s17.7,5.26,19.94,15.68c.48,2.26.38,4.64.75,6.93a9,9,0,0,0,1.33,4.06c6.67,8.32,13.13,16.83,20.31,24.7,21.32,23.4,43,46.51,64.44,69.78q38.46,41.71,76.79,83.53C2793,813.1,2817,839.93,2841,866.66c2.37,2.63,4.7,5.29,7.67,8.64V228.4H2690c-17.33,0-34.66-.09-52,.12a9.17,9.17,0,0,0-5.77,2.62c-7.35,7.48-13.88,15.84-21.73,22.72-26.42,23.16-56,41.88-86.46,59.2-27.71,15.77-57.08,28.16-86.73,39.73-46,17.94-93.19,32.45-140.92,44.79a1985.6,1985.6,0,0,1-212.16,42.28c-43.34,6.28-87.1,9.59-130.57,15.05a1023.8,1023.8,0,0,1-114.61,8.41c-54.47.71-109-.42-163.47-.92a744.84,744.84,0,0,1-99.62-7.49c-7.37-1.06-14.74-2.05-22.32-3.1v637.08c5,0,9.69-.37,14.29.07,18.2,1.72,36.54,2.72,54.53,5.77,45.57,7.73,84.72,30.17,122.15,55.88,6.78,4.65,13,8.69,21.62,8.05,3.35-.25,6.89,1,10.25,1.92,10.58,2.88,21.12,5.93,30.49,8.57,5.24-3.54,9.83-7.32,15-10a97.39,97.39,0,0,1,16.85-6.2c3.64-1.07,5.06-2.83,5.08-6.62.07-20.16.38-40.32.51-60.48.18-26.49,0-53,.51-79.46.25-12.55,3.48-24.56,12.52-33.93a14.35,14.35,0,0,1,9-3.9c7.79-.24,15.61.75,23.43.88,13.82.24,27.64.21,41.46.27,6.78,0,13.56,0,20.26,0,.23-.47.5-.76.49-1-.06-3-.13-6-.27-9A354.79,354.79,0,0,1,1956,886c2.12-13.2,8.56-23,21.35-28.64,9.73-4.29,18.88-9.88,28.31-14.86a11.11,11.11,0,0,0,6.47-10.38c.09-4.14,1.13-8.25,1.26-12.39a14,14,0,0,0-1.48-6.76c-6.84-12.75-15.37-24.81-20.6-38.17-12.07-30.92-13.24-62.92-5.74-95.33,2.35-10.17,8.34-16,17.77-19.71,21.34-8.5,43.39-12.13,66.12-9.58,24.53,2.76,47,11.3,65.5,28.13,8.69,7.9,13.88,18,12.68,30.27-4.43,45.23-24.62,82.1-59.28,111.27a8.4,8.4,0,0,0-2.89,4.8c-1.47,11.79,3,20.43,13.45,26,7.49,4,15.12,7.77,22.82,11.35,8.55,4,14.27,10.46,15.13,19.68,1,10.54.33,21.23.66,31.85a18.14,18.14,0,0,0,2,8.24c4.59,8,4.79,16.32-1.58,20.87-5.1,3.63-5.78,7.67-5.56,13.07.23,5.65-.26,11.32-.36,17a21.09,21.09,0,0,0,.33,3.22h189.34c-8.35-7.15-16.49-14.21-24.75-21.12-2.23-1.87-4.63-4.18-7.28-4.77-12-2.65-18.24-10.8-21.06-21.72s1-20.41,9.49-27.28c10.38-8.4,18.86-18.32,26.53-29.06a49,49,0,0,1,17.8-15.64c29.59-15.12,60.83-20.47,93.61-15,27.77,4.62,52.24,15.39,69.51,39.2,3.9,5.38,9.77,9.43,15,13.7,4.39,3.56,9.72,6,13.78,9.9,5.14,4.86,10.33,10.09,13.84,16.13,5.75,9.85,2.5,21.49-6.52,28.52a29.57,29.57,0,0,1-23,6.07c-5.71-.79-10.1,1.18-14.85,4.16-10.13,6.35-20.74,11.93-31.21,17.71a44.27,44.27,0,0,1-6.26,2.35,107,107,0,0,0,21,.88c26.85-1.71,53.13,2,79.4,7.14,19.49,3.82,31.14,14.73,35.13,34,.54,2.61,1.13,5.22,1.54,7.85,4.27,27.22,1.52,54.55,1.18,81.85C2584.38,1120.3,2584.48,1129.75,2584.48,1139.64Zm-1030.68-856a24.55,24.55,0,0,0-.49,3q0,76.5-.08,153c0,3.07,1.33,4.08,4,4.46,8.75,1.23,17.47,2.62,26.21,3.84,47.85,6.67,96,6.74,144.19,7.31a6.1,6.1,0,0,0,4.5-3.17c5.13-12.36,13.84-21,26.13-26.15,22.33-9.43,45-11.6,68.23-3.58a25.69,25.69,0,0,0,18.89-.63c14.8-5.92,29.65-12.06,45-16.18,25.82-6.92,52-10,78.32-1.09,5,1.69,10.92,1.39,16.29.81,11.25-1.22,22.42-3.21,33.62-4.91,33.37-5.09,63.06,3.4,89.32,24.32a9.18,9.18,0,0,0,8.24,1.92c26-4.95,52.18-9.23,78.08-14.73,37.31-7.91,74.76-15.47,111.57-25.34,55.21-14.8,109.6-32.24,162.22-55,43.4-18.77,83.61-42.72,121.6-70.63,4.08-3,7.87-6.37,11.79-9.58l-.62-1.19c-8.07,2.46-16.23,4.64-24.17,7.43a85,85,0,0,1-33.88,5.05,235,235,0,0,0-64.57,5.21c-21.91,4.7-43.74,6.68-65.77.35-7.32-2.1-15.05-2.7-22.48-4.47-10.65-2.53-21.57-4.57-31.69-8.55-10.45-4.12-19.71-11-24.62-21.62-2-4.35-4.31-5.16-8.53-5.16q-224,.13-448,.08a16.49,16.49,0,0,0-4,.08c-1.13.29-2.7,1-3.06,1.85-2.77,6.9-8.26,11.17-14.11,15.11-6.66,4.49-11.72,10.1-14.75,17.74-3.11,7.83-9,13.25-16.25,17.7-13.48,8.32-28.55,11.85-43.59,15.52-19.49,4.76-39,7.45-59.36,6-17.69-1.25-35.57-.08-53.35.38-14.81.38-29.6,1.48-44.4,1.85a40,40,0,0,1-22.4-5.92c-4.14-2.54-8.85-5.06-13.55-5.62C1576.54,291.67,1564.85,290.35,1553.8,283.65Zm1021.39,854.47c.17-2.47.44-5.28.52-8.1.63-20.82,1.65-41.64,1.67-62.46a302.84,302.84,0,0,0-2.5-39.82c-2-15.15-8.09-28-25.19-31.58-19.58-4.1-39.14-8.17-59.27-8.4-35-.39-70-.63-105-1.34-29.65-.61-59.28-2.5-88.92-2.57-57-.14-114,.62-171,1-5.49,0-11-.07-16.49-.31-42.12-1.81-84.23-3.87-126.35-5.45-35.47-1.33-71-2-106.42-3.16-12.5-.39-15.43,1.3-19.81,13.2a39.66,39.66,0,0,0-2.66,10.1c-.9,10.78-1.85,21.6-1.92,32.4-.24,38.16-.13,76.32-.12,114.48a18.33,18.33,0,0,0,.49,2.92c1.09-.19,1.91-.29,2.7-.47,18.82-4.09,37.76-3.72,56.64-1,20.05,2.86,37.66,11.88,54.08,23.34,2.5,1.75,4.32,1.92,7.14.76a180.31,180.31,0,0,1,20.65-7.43,186,186,0,0,1,83.1-4.12,7.87,7.87,0,0,0,5.08-.57c14.13-8.7,29.08-15.63,45.22-19.47a394.83,394.83,0,0,1,123-9.22c32.87,2.59,64.54,9.18,93.42,26.11a17.05,17.05,0,0,0,9.85,1.9c32.13-3.54,63.46-.74,93.85,10.78a6.24,6.24,0,0,0,5-.44c23-15.4,49.24-21.65,76-26C2543.29,1140.71,2558.94,1139.81,2575.19,1138.12ZM1861.87,230.06l-.76-1.27h-307.8c0,15-.07,29.65.13,44.27,0,1.12,1.72,2.57,3,3.24a75,75,0,0,0,30.52,8.5c6,.45,13.09,1.49,17.42,5a27.76,27.76,0,0,0,18.65,6.67c13.47-.08,26.93-.84,40.4-1.29,17.78-.58,35.77-3.1,53.3-1.26,31.49,3.31,61-3.79,90.17-13.25,10.7-3.46,22-8.35,26.7-20.19,4-10.13,11.09-17.16,19.77-23.12C1856.42,235.29,1859,232.52,1861.87,230.06Zm533.67,617.3c-18.11,0-34.71,2.3-50.73,8-15.62,5.52-29.39,13.15-39,27.78-5.76,8.72-14.38,15.55-21.72,23.23-1.26,1.32-2.69,2.5-3.84,3.91A19.9,19.9,0,0,0,2290.94,942a23.49,23.49,0,0,1,12.87,7.86c10.46,12.24,23.39,21.1,39.34,24,12.06,2.2,24.41,3.12,36.68,3.9,37.06,2.35,72.14-3.13,102.27-27.15,4.5-3.59,9.74-4.57,15.55-3.88a31.81,31.81,0,0,0,11.35-.49c13.08-3.27,17.63-15.35,9.77-26.17a43.62,43.62,0,0,0-10.57-10.43c-13.73-9.28-26.85-19-36.55-32.85-2.33-3.32-5.77-6-9.11-8.46C2442.25,853.52,2419,848.28,2395.54,847.36ZM1960.75,970.19c16.76.73,32.88,1.54,49,2a17.51,17.51,0,0,0,8.42-2c11.58-6.22,23-12.79,34.47-19.21,8.81-4.93,18-8.72,28.32-8.78,10.66-.07,21.32.22,32-.23a73.94,73.94,0,0,0,16.13-2.78c3.53-1,6-3.66,5.36-7.92s-2.42-7.52-7.41-8-9.89-1.67-14.85-1.86c-13.62-.54-27.72-2.88-40.62,2.26-23.16,9.23-45.77,19.82-68.59,29.87-3.19,1.41-6.2,3.3-9.48,4.41-3.43,1.15-6.68,0-7.42-3.77a76.22,76.22,0,0,1-1.85-16.3c.29-12.81,1.22-25.61,1.92-38.42.09-1.65,0-3.55.73-4.87s2.65-3,3.86-2.9,3.11,2.13,3.32,3.52c.43,2.91-.1,6-.14,9-.05,3.88,0,7.76,0,11.24,4.86-.73,9.45-2.18,13.95-1.94,13.64.72,27.22,2,40.28,6.65a13.84,13.84,0,0,0,8.58-.2c10.24-3.63,20.51-6.94,31.51-7.15,2.57,0,5.15,0,7.86,0,.14-2.56.23-4.21.31-5.86.34-6.49.41-13,1.19-19.44.21-1.73,2.59-3.19,4-4.78,1.28,1.66,2.94,3.15,3.71,5,.57,1.4,0,3.27,0,4.94,0,6.62,0,13.24,0,20.46l24.38,2.36c0-10.64.45-20.59-.14-30.47-.45-7.71-4.93-13.09-12.2-16.31s-14.37-7-21.51-10.59-12.76-8.78-15.85-16c-2-4.62-2.48-9.86-3.69-15-18.39,6.17-36.94,6.14-55.37-3.34a63.51,63.51,0,0,0-.65,7.22c.24,9-3.73,15.16-11.72,19.19-9.07,4.57-17.71,10.07-27,14.08-10.87,4.7-16,12.8-17.75,24a371.91,371.91,0,0,0-3.51,75.73C1960.26,966,1960.53,967.91,1960.75,970.19ZM1739.92,454.77a10.25,10.25,0,0,0,2,.52c32.48.12,65,1.11,97.43.1,37.09-1.16,74.15-3.45,111.06-8.22,46.57-6,93.28-10.85,139.93-16.24,3.19-.37,6.34-1.12,10.53-1.88-18.44-13.59-37.85-22-59.57-21.8-16.22.14-32.47,2.82-48.59,5.18-10.93,1.6-21.43,1.49-32.1-1.53-6.85-1.93-14-3.74-21.06-3.74A198.17,198.17,0,0,0,1852.62,427c-10.35,5-19.86,5.78-30.72,2.34-23.46-7.43-46.08-4.28-67.47,7.67C1747.51,440.88,1743.12,447.07,1739.92,454.77Zm373,325,1.09.26c.29-.39.59-.78.87-1.19,14.58-21.82,22.48-46,24.65-72,.33-3.92-.95-8.28-2.51-12-4.21-10-12.62-16.19-21.73-21.28-36.1-20.15-73.18-20.91-111.09-5.42-6,2.43-9.3,6.48-10.75,12.67a160.91,160.91,0,0,0,3.55,87.24,28.59,28.59,0,0,0,1.5,3.23l1.37.06c-2.18-13.18,8.21-22.8,9-35.16a8.42,8.42,0,0,1,1.22-3.26c7.3-13.29,17.89-22.78,32.65-26.83,26.54-7.29,49.89,1.8,65.22,24.63,3.21,4.78,4.12,9.17,1.68,14.46-.64,1.38-.07,3.43.22,5.12.64,3.74,1.78,7.41,2.13,11.16C2112.49,767.54,2112.59,773.66,2112.89,779.77Zm461.59-168.23c-17.36,23.81-34.59,47.43-51.49,70.59l10.38,11.3c.77-.83,1.37-1.38,1.85-2q22.44-29.4,44.85-58.82c7-9.26,9.43-9.15,17.11-.46,23.51,26.58,46.92,53.26,70.84,79.47,33.82,37,68.37,73.4,102,110.58,25.37,28,49.81,56.91,74.68,85.4,1.11,1.28,2.32,2.48,4.3,4.58,0-8.51.06-15.65-.07-22.79a6.06,6.06,0,0,0-1.43-3.52c-8.43-9.89-16.73-19.9-25.49-29.49-30.79-33.7-62.09-66.94-92.57-100.92-42.14-47-87.5-91.08-127.23-140.27-.84-1-3-2-4.17-1.63C2590.05,616.11,2582.34,615.87,2574.48,611.54Zm49.17-382.8H2340.81l-.91,1.1c3,3.35,5.76,7,9.13,10,8.87,7.78,19.52,11.93,31,14.11,13.39,2.55,26.82,4.9,40.14,7.76,12.87,2.77,25.83,3.74,38.68,1.19,30.48-6,61.05-10.07,92.27-8.64,7.08.33,14.39-2.17,21.45-3.95,10.8-2.74,21.31-7.09,32.25-8.68C2613.52,240.36,2618.23,235.43,2623.65,228.74ZM2518.23,815.5l1.61-.25c.56-9.93,2.24-20,1.4-29.76-1.16-13.55-4-27-6.53-40.38-1.41-7.48.06-13.72,5.26-19.34a147.1,147.1,0,0,0,10.71-13.16,6.76,6.76,0,0,0,1-5.32c-3.26-9.46-10.24-15.77-18.68-20.61-2.85-1.64-5-1.09-7,2-6.15,9.1-12.73,17.91-19,26.9a21.77,21.77,0,0,1-16.57,9.81c-18.73,1.81-36.71,6.45-53.49,15.2-2.36,1.24-4.56,2.78-6.84,4.18C2459.16,749,2492.79,776,2518.23,815.5Zm-418.85-82.58c-19-28.46-62.28-28.22-80.19.15-5.32,8.42-3.8,14.25,5.59,17.59,16.86,6,34.21,8.52,52.1,5.33,3.71-.66,5.42-2.28,6.62-6.11,1.28-4.06,4.05-7.89,7-11.1C2092.69,736.31,2096.15,735,2099.38,732.92ZM2086.81,801c-.48-4.29-.69-8.63-1.48-12.86-1.22-6.46-2.52-6.95-8.3-3.87-6.91,3.69-10.23,3.49-15.5-.94-5.88-4.94-9.42-4.07-12.2,3.15-1.93,5-3.4,10.57-10,11s-9.15-4.38-11.25-9.53c-1-2.35-2.32-3.13-4.53-1.24-4.67,4-6.82,20.49-2.47,24.81,3.79,3.75,8.32,7.76,13.24,9.17,13.52,3.88,27.24,4.09,40.47-2.14C2082.29,815,2088.81,811.07,2086.81,801Zm428.33,24-23.79-32.77c-13.47,11.58-25.73,13.69-35.61,6.87s-11.12-16.2-4.44-34.69c-13.06-8.07-27.85-8.92-42.64-10.59C2414.52,786.6,2481,831.58,2515.14,825Zm-504-30.2c2-7.13,4.09-14.41,11.74-16.86,9.64-3.08,11.45,5.94,15.85,12.59,1.69-3.86,2.84-6.7,4.14-9.46,4.21-8.93,14.34-12.27,20.94-6.17,4.35,4,7.47,3.7,12.14,1,6.94-4,13.41-1.41,15.85,6.19,1.45,4.53,1.8,9.43,2.48,14.18a58.16,58.16,0,0,1,0,6.78c6.17-6,11.35-10.23,10.31-18.68s-.48-16.93-.84-25.4c-.08-2-1-3.89-1.76-6.55-13.65,11.16-28.88,13.77-44.89,12.7-15.76-1-31.38-3.08-44.86-12.41C2005.78,763.72,2005.05,788.14,2011.17,794.82Zm47.53,162.43c11.22,3.88,21.18,7.07,30.92,10.82,3.87,1.48,7.26,4.21,10.87,6.37,1,.57,2,1.56,3,1.58,6.6.15,13.2.08,20.33.08V950.27c-7.85,0-15.48-.12-23.09.1a6.62,6.62,0,0,0-4.41,2.15c-2.52,3-4.5,2.67-7,0a6.58,6.58,0,0,0-4-2.21A44.19,44.19,0,0,0,2058.7,957.25Zm-66.8-15.19c4.77.37,9.2,1.81,12.91.75,6.48-1.85,12.52-5.21,18.73-8,5.52-2.48,11-5,16.52-7.53a12,12,0,0,0-6.19-2.74c-8.22-1.07-16.45-2.46-24.71-2.75-4.43-.15-9,1.5-13.37,2.77a5,5,0,0,0-2.86,3.45C1992.32,932.26,1992.25,936.58,1991.9,942.06Zm493.59-155.67-25.56-18.3c-6.62,7.95-6.82,17.75-1.09,23.26C2465.13,797.41,2475.48,795.76,2485.49,786.39Zm-403.1,188.87c.07-.32.13-.65.19-1a12.48,12.48,0,0,0-1.65-.88q-14.41-5.46-28.85-10.83a4.63,4.63,0,0,0-3.25-.21c-6.1,3.18-12.11,6.56-18.15,9.87l.31,1.12Zm505.19-368c6.08.13,10.21-2,10.25-5.28.07-6.48-4.95-12.29-10.59-12.26-4.84,0-10.74,5.74-10.93,10.6C2576.18,603.73,2581.77,607.18,2587.58,607.3Z" transform="translate(1)"/><path d="M880.77,221.37V953c0,6.53,0,6.53-6.38,6.53H144.26V221.37ZM152.32,590.51q0,177.24-.09,354.47c0,4.28.91,5.72,5.47,5.7q61.49-.27,123,0c4.36,0,5.57-1.47,6.19-5.52,4.57-29.48,9.45-58.91,14.09-88.37,2.85-18.09,7-36.15,5.14-54.6-1.83-18.13,3.08-34.72,10.32-50.8,6.75-15,16.81-26.88,33.7-31,7.12-1.73,14.28-3.87,21.52-4.36,28.24-1.93,56.52-3.41,84.81-4.71,4.25-.19,5.18-1.4,5.35-5.39.54-13,1.56-25.93,2.36-38.9.28-4.64,2.32-7.95,6.3-10.61,8.94-6,18.87-9.15,29.26-11,3.39-.6,4.39-2,4.29-5.22a109.21,109.21,0,0,1,.22-16c.91-7.94,0-14.71-7.9-18.86-1.09-.57-1.85-1.91-2.59-3-5.16-7.67-2-17.1,7-19.51,3.21-.86,6.85,0,10.3-.09,2,0,4.27.22,6.05-.53,9.81-4.13,19.94-.92,25.5,8.35,4.7,7.84,2.43,15.47-6.3,22.46a7.91,7.91,0,0,0-2.67,5.24c-.27,8,.13,16-.18,24-.16,4.14,1.44,5.09,5.28,5.85a295.22,295.22,0,0,1,31.42,7.61c7.6,2.39,8.73,4.88,8.18,12.82-1.15,16.3,1.34,32.22,4.37,48.14.72,3.77,2.3,4.59,6,4.56,20-.16,40-.37,59.95.28,17.17.56,32.81,5.62,44.56,19.27a23.15,23.15,0,0,0,4.52,3.91c18.07,12.26,26,29.07,25.5,51.07-1.06,49.65-.15,99.3,3.36,148.88.34,4.78,1.73,6,6.44,6q66.75-.27,133.49,0c4.69,0,6.17-1,6.16-6q-.18-354.23,0-708.44c0-4.88-1.38-6-6.12-6q-354,.18-707.95,0c-5,0-6.44,1.12-6.43,6.31Q152.44,413.53,152.32,590.51Zm565.06,360c-.12-2.61-.22-4.56-.3-6.51-1.26-33.46-2.75-66.91-3.7-100.38-.52-18.15-.11-36.33-.12-54.49,0-13.19-5-23.92-15.49-32.06-3.95-3.07-8.11-6-11.41-9.7-9.92-11.09-22.65-15.83-36.94-16.2-21-.54-41.95-.47-62.93-.26-9,.09-11-.52-12.44-9.63-2.3-15-3.88-30-5.77-45-.11-.91-.32-1.8-.54-3-31.18,15.45-62.43,15.07-94.46,2-.31,3.54-.66,6.48-.8,9.43-.43,9-.72,18-1.17,27-.48,9.67-1.18,10.23-10.63,9.38a43.72,43.72,0,0,0-5.49-.13c-17.65.61-35.33.79-52.93,2-17.25,1.21-34.64,1.86-51.36,7.21-7.6,2.43-14,6.55-18.34,13.12-11.22,16.86-18,35-17.05,55.79a172.28,172.28,0,0,1-1.07,31.88c-4.51,31.84-9.81,63.56-14.83,95.32-1.25,7.85-2.59,15.68-4,24.33h34.06c14.66,0,14.61,0,15.42-14.51,1.41-25.29,3.27-50.5,7.68-75.53,2-11.55,2-23.5,2.54-35.28.15-3,.06-6.13,3.44-6.84,3.69-.77,7.46.63,8.44,4.51,3.87,15.32,9.41,30.61,10.42,46.16,1.33,20.49-1,41.23-1.78,61.86-.24,6.29-.61,12.58-.94,19.26H644.79c0-1.09.07-1.9,0-2.69-1.72-17.56-3.71-35.11-5.15-52.7-2-24.84,1.19-48.91,11.88-71.67,1.5-3.21,2.31-7.62,7.19-7,4.47.57,4.33,4.9,5.41,8.1a3.89,3.89,0,0,1,.12.49c5.43,30,10.44,60.06,11.38,90.65.32,10.48,1.43,20.94,2.5,31.37.14,1.37,2.14,3.61,3.32,3.64C693.07,950.67,704.72,950.56,717.38,950.56Zm-49.24,0c-2.74-38-3.57-75.18-12.08-111.73-2.56,7.21-5.1,14.44-5.93,21.87-3.29,29.18.2,58.1,4.47,86.93a4.08,4.08,0,0,0,2.63,2.79C660.81,950.74,664.44,950.54,668.14,950.54ZM514,633.46h-1c0,7,.31,14-.12,20.92-.27,4.47,1.64,5.46,5.45,5.47,3.58,0,6-.32,5.88-5-.33-11.3.08-22.61-.29-33.91-.22-7.11,1-12.9,7.76-16.87,1.81-1.06,3.59-5.4,2.82-7a16,16,0,0,0-7.34-6.59c-2.69-1.25-5.82-.35-7.56,3-2.13,4-4.78,3.58-8.08,1a14.33,14.33,0,0,0-6.67-2.45,4.27,4.27,0,0,0-3.51,2.09c-.4,1,.4,2.89,1.28,3.81a41.74,41.74,0,0,0,6.46,5.47c3.64,2.51,5.11,5.75,5,10.17C513.86,620.16,514,626.82,514,633.46ZM353.81,950.57a62,62,0,0,1,6.47,0c4,.47,5.35-1.14,5.11-5.08a90.2,90.2,0,0,1,.44-10c1-20.1,2.41-40.2,2.85-60.32.17-7.55-1.86-15.14-2.88-22.72l-1.55.2C357,884.62,356,917.18,353.81,950.57ZM563.17,664l.31-1.7c-9.08-1.66-18.14-3.4-27.26-4.82-.73-.12-2.53,1.94-2.61,3.08-.32,4.88-3.21,7.52-7.52,7.94a62.57,62.57,0,0,1-15.29-.23c-4.75-.7-7.33-4.26-7.6-9.22-.07-1.28-.23-2.55-.4-4.35-9.82,1.74-18.86,4.19-27.19,9.89C496.18,678.94,543,678.36,563.17,664Z" transform="translate(1)"/><path d="M1414.62,753.85H1012.36V221.34h402.26ZM1020.2,509.34c3.23-5.28,5.69-10.17,9-14.36,1.47-1.85,5.07-3.6,7-3s3.94,3.94,4.32,6.34a39.64,39.64,0,0,1-.3,11.9c-1.66,10.92-1.46,21.63,2.66,32a31.3,31.3,0,0,0,4.51,7.66c2.27,2.89,5,2.86,6.59-.66a148,148,0,0,0,5.84-15.34c4.4-13.94,7.57-28.37,13.11-41.84,6.52-15.85,14.48-31.09,18.22-48,.25-1.12.51-2.55,1.29-3.19,2-1.66,4.38-4.12,6.53-4.05,1.69.07,3.41,3.33,4.8,5.38.59.85.47,2.26.48,3.42.09,15.64,3.51,30.74,7.34,45.78a99.78,99.78,0,0,1-.06,51.38,46,46,0,0,0-1.66,15.27c.65,7.89,3.71,15.09,11.79,18.29,5.76,2.28,13.42-1.72,19-9.19C1148,557.3,1151.48,546,1152,534c1.27-31.44,10.58-59.88,30.76-84.33,1.47-1.77,4.82-3.31,6.92-2.93,3.32.6,3.37,3.91,2.66,7-1.65,7.15-3,14.36-4.8,21.46-3.3,13-3.76,26-.4,39.05,5.23,20.3,2.78,40-4.69,59.29-2.63,6.83-5.09,13.75-7.12,20.78a57.71,57.71,0,0,0,.28,34.46c6.53,20.23,28.05,28.1,46.17,16.82,17.46-10.87,24.92-30,19.65-51.81-2.46-10.19-5.82-20.16-8.78-30.22a69.6,69.6,0,0,1,.14-39.88c4-13.92,11.46-25.79,20.39-36.93,2-2.54,4.08-5.38,7.79-3.66,3.89,1.8,3.28,5.33,2.38,8.69-1,3.54-2.07,7-2.87,10.61-1.15,5.19-2.39,10.4-3,15.67-.75,6.33,1.92,12.84,5.48,13.41,5.79.91,9.24-3.11,12.13-7.24,5.18-7.44,7.51-16,8-24.91.75-13.47,1.07-27,1.79-40.44a202.79,202.79,0,0,1,18.48-75.25,71.35,71.35,0,0,1,9-14.3c1.28-1.61,4.94-2.53,7-1.94,1.77.5,3.74,3.5,4,5.57.4,3.9-.28,7.94-.71,11.9-1.17,10.76-3,21.48-3.57,32.26-1.18,21.86,4.34,42.67,11.63,63,11.75,32.78,12,65.51.84,98.47-3.52,10.41-6.57,21-9.43,31.59a42.15,42.15,0,0,0,1.68,27.47c4.5,11,13,15.19,24.15,11.15a42.3,42.3,0,0,0,13.07-8c8.13-7.13,13.71-16.23,18-26.11,8.85-20.2,11.06-41.75,12.84-63.36,1.65-20,3.38-39.86,12.14-58.36.87-1.84.8-4.22.8-6.35q.06-125.47,0-251V230.2H1020.2Zm384.39,20.25-1-.09c-.19,1.58-.41,3.16-.57,4.73-1.7,16.07-3,32.19-5.18,48.18-2.65,19.16-8.36,37.38-19.75,53.39-6.15,8.65-13.32,16.22-23.16,20.8-17.2,8-34,1.29-40.62-16.43-3.22-8.58-4.62-17.58-2.63-26.53,2.42-10.86,6.08-21.45,8.66-32.28,3.5-14.7,7.61-29.4,9.4-44.34,2.57-21.5-4.27-41.85-11-62-7.22-21.72-11.2-43.88-9.07-66.86.55-6.05,1.36-12.08,2.23-19.63-1.32,2.46-2.13,3.52-2.5,4.73-3.86,12.73-9.21,25.26-11.1,38.28-3,20.54-3.84,41.4-5.14,62.16-.76,12.14-2.16,24.15-9.29,34.24a40.55,40.55,0,0,1-13.55,11.93c-7.45,4-15.29,1.13-18.95-6.57-2.2-4.63-2.63-10.13-3.7-15.27-.3-1.46,0-3,0-5.94-7.51,16-10.87,31.1-6.18,47.2,3,10.39,6.45,20.67,9.11,31.15,7,27.7-4,53.64-27.52,65.45-22.57,11.33-48.33.78-56.3-23-3.91-11.65-5-23.59-2-35.45,2.84-10.93,6.66-21.62,10.33-32.32,5.22-15.17,6.72-30.47,3.06-46.23-2.65-11.4-4.42-22.92-2.25-34.66.47-2.51.82-5.05,1.22-7.57-7.56,11.26-11.19,23.81-13.15,36.85-1.65,11-2.13,22.25-4.18,33.19-2.6,13.9-8.49,26.41-20.41,35-12.1,8.68-25.65,5.72-33.68-6.74-6.63-10.29-7.12-21.26-4.06-32.67,2.95-11.05,4.95-22.31,3.1-33.62-2.4-14.59-5.8-29-9-44.42-2.16,5.11-3.65,9.51-5.78,13.56a222.64,222.64,0,0,0-21.12,59.09,58.63,58.63,0,0,1-6.86,17.55c-5.43,9.26-14,9.93-21.6,2.31-1.84-1.86-3.77-4.07-4.54-6.48a203.15,203.15,0,0,1-5.89-22.06c-.79-4-.14-8.28-.14-12.44-3.15,7.07-5.13,14.26-7.08,21.45-1,3.63-2.72,7.27-2.73,10.91q-.26,96-.11,192c0,1.76.17,3.52.26,5.29h384.36Z" transform="translate(1)"/><path d="M381.76,1212.42c-.59,2.7-.3,6.33-2,7.88-2.88,2.69-5.77,0-8.13-2.24-8.88-8.54-17.59-17.28-26.69-25.58a107.13,107.13,0,0,0-41.17-23.88c-14.15-4.31-28.33-8.68-42.76-11.86-10.41-2.3-21.15-1.14-32.11,1.18.56,1.6.94,2.79,1.36,3.95,3.88,10.63,7.81,21.23,11.6,31.89,1.12,3.14,1.53,6.67-2.48,8-4.3,1.41-5.73-1.92-7-5.23-4.54-12-8.42-24.26-13.93-35.76-7.67-16-20.41-28.28-32.94-40.52-27.75-27.11-58.1-50.57-94.63-64.7-11.26-4.35-23.24-6.9-35-10-2.31-.62-5.07.48-7.39-.12-2.08-.54-3.84-2.33-5.75-3.57,1.41-1.94,2.78-5.5,4.23-5.53,6.56-.14,13.32-.06,19.69,1.36,31.25,6.95,59,21.64,84.6,40.38a372.27,372.27,0,0,1,57.6,52.34c3.66,4.08,7.49,8.19,10.24,12.88s5.79,5.7,11.19,4.52a82.14,82.14,0,0,1,37.65.11c23.27,5.81,47,11.08,67,25,12.11,8.39,22.83,18.82,34,28.57,2.48,2.18,3.95,2.5,7.21,1.17,6.23-2.53,12.91-5.08,19.51-5.38,43.93-2,85.49,6.22,123,30.39,1.53,1,3.52,1.79,4.35,3.23.94,1.62,1.74,4.61.91,5.64-1.1,1.37-3.89,2-5.86,1.86-1.81-.15-3.51-1.75-5.24-2.75-20.59-11.88-41.86-22.61-65.63-25.67-17.59-2.27-35.51-2.24-53.3-2.62-4.57-.1-9.19,2.15-13.79,3.33C380.71,1211.22,381.23,1211.82,381.76,1212.42Z" transform="translate(1)"/><path d="M801,1066.6c-8.85-1.49-16.44-3.17-24.13-4-22.1-2.36-44.21-3.42-65.81,3.52-6.48,2.09-12.8,4.7-19.16,7.16-3.29,1.27-6.82,2.42-8.58-1.7s1.53-5.93,4.71-7.38c24-11,49.16-15.41,75.42-12.47,14.7,1.65,29.35,3.74,44,6a15.87,15.87,0,0,0,11.23-2.11c20.81-12.06,43-20.35,67-23.34a258.72,258.72,0,0,1,67.24.16c12.83,1.75,25.52,4.5,38.29,6.74,1.78.31,3.81-.18,5.38.49,1.92.81,4.94,2.55,4.86,3.7-.14,1.95-2.05,4.91-3.75,5.34a20.59,20.59,0,0,1-9.77-.19c-23.89-6-48.15-8.39-72.71-8.45q-61.51-.15-110.81,36.61c-2.14,1.59-4.22,3.27-6.47,4.69-2.52,1.59-5.6,1.92-6.89-1-.77-1.72-.08-5,1.18-6.5C794.2,1071.31,797.29,1069.52,801,1066.6Z" transform="translate(1)"/><path class="cls-1" d="M2584.48,1139.64c0-9.89-.1-19.34,0-28.79.34-27.3,3.09-54.63-1.18-81.85-.41-2.63-1-5.24-1.54-7.85-4-19.31-15.64-30.22-35.13-34-26.27-5.15-52.55-8.85-79.4-7.14a107,107,0,0,1-21-.88,44.27,44.27,0,0,0,6.26-2.35c10.47-5.78,21.08-11.36,31.21-17.71,4.75-3,9.14-4.95,14.85-4.16a29.57,29.57,0,0,0,23-6.07c9-7,12.27-18.67,6.52-28.52-3.51-6-8.7-11.27-13.84-16.13-4.06-3.85-9.39-6.34-13.78-9.9-5.27-4.27-11.14-8.32-15-13.7-17.27-23.81-41.74-34.58-69.51-39.2-32.78-5.44-64-.09-93.61,15a49,49,0,0,0-17.8,15.64c-7.67,10.74-16.15,20.66-26.53,29.06-8.48,6.87-12.3,16.43-9.49,27.28s9.11,19.07,21.06,21.72c2.65.59,5,2.9,7.28,4.77,8.26,6.91,16.4,14,24.75,21.12H2132.28a21.09,21.09,0,0,1-.33-3.22c.1-5.67.59-11.34.36-17-.22-5.4.46-9.44,5.56-13.07,6.37-4.55,6.17-12.9,1.58-20.87a18.14,18.14,0,0,1-2-8.24c-.33-10.62.32-21.31-.66-31.85-.86-9.22-6.58-15.71-15.13-19.68-7.7-3.58-15.33-7.34-22.82-11.35-10.48-5.61-14.92-14.25-13.45-26a8.4,8.4,0,0,1,2.89-4.8c34.66-29.17,54.85-66,59.28-111.27,1.2-12.26-4-22.37-12.68-30.27-18.5-16.83-41-25.37-65.5-28.13-22.73-2.55-44.78,1.08-66.12,9.58-9.43,3.75-15.42,9.54-17.77,19.71-7.5,32.41-6.33,64.41,5.74,95.33,5.23,13.36,13.76,25.42,20.6,38.17a14,14,0,0,1,1.48,6.76c-.13,4.14-1.17,8.25-1.26,12.39a11.11,11.11,0,0,1-6.47,10.38c-9.43,5-18.58,10.57-28.31,14.86C1964.51,863,1958.07,872.81,1956,886a354.79,354.79,0,0,0-4.07,73.74c.14,3,.21,6,.27,9,0,.28-.26.57-.49,1-6.7,0-13.48,0-20.26,0-13.82-.06-27.64,0-41.46-.27-7.82-.13-15.64-1.12-23.43-.88a14.35,14.35,0,0,0-9,3.9c-9,9.37-12.27,21.38-12.52,33.93-.52,26.48-.33,53-.51,79.46-.13,20.16-.44,40.32-.51,60.48,0,3.79-1.44,5.55-5.08,6.62a97.39,97.39,0,0,0-16.85,6.2c-5.17,2.63-9.76,6.41-15,10-9.37-2.64-19.91-5.69-30.49-8.57-3.36-.91-6.9-2.17-10.25-1.92-8.62.64-14.84-3.4-21.62-8.05-37.43-25.71-76.58-48.15-122.15-55.88-18-3-36.33-4-54.53-5.77-4.6-.44-9.28-.07-14.29-.07V451.81c7.58,1.05,14.95,2,22.32,3.1a744.84,744.84,0,0,0,99.62,7.49c54.49.5,109,1.63,163.47.92a1023.8,1023.8,0,0,0,114.61-8.41c43.47-5.46,87.23-8.77,130.57-15.05a1985.6,1985.6,0,0,0,212.16-42.28c47.73-12.34,94.93-26.85,140.92-44.79,29.65-11.57,59-24,86.73-39.73,30.45-17.32,60-36,86.46-59.2,7.85-6.88,14.38-15.24,21.73-22.72a9.17,9.17,0,0,1,5.77-2.62c17.33-.21,34.66-.12,52-.12h158.69V875.3c-3-3.35-5.3-6-7.67-8.64C2817,839.93,2793,813.1,2768.73,786.5q-38.2-41.94-76.79-83.53c-21.47-23.27-43.12-46.38-64.44-69.78-7.18-7.87-13.64-16.38-20.31-24.7a9,9,0,0,1-1.33-4.06c-.37-2.29-.27-4.67-.75-6.93-2.24-10.42-10.48-16.85-19.94-15.68s-17.33,11.16-17,21.09a10.85,10.85,0,0,1-1.71,6.28c-15,20.83-30.14,41.53-45.25,62.27a22.28,22.28,0,0,0-2.47,3.75c-1.38,3.11-3.28,4.06-6.67,2.83-6.29-2.29-9.59,2.43-12.64,6.42q-8.62,11.31-16.46,23.23c-4.27,6.49-9.81,9.74-17.65,10.38a132.61,132.61,0,0,0-49.68,14.22,121.83,121.83,0,0,0-15.5,10c-3.5,2.51-4.86,5.57-1.42,9.7,1.69,2,1.87,5.25,3,7.82,10.19,22.93,26.23,40.67,47.67,53.67,18.12,11,37.87,17.12,58.66,20.26,10.78,1.62,16.26-2.84,18.52-13.53,4.82-22.83,3.62-45.38-2.05-67.85-.37-1.45-.53-3-1-4.38-2.5-7.5-1.35-13.94,4.72-19.49a113.56,113.56,0,0,0,11.85-12.57c1.15-1.43,1.57-4.69.73-6.26-3.4-6.41-1.37-11,2.85-16.33,14.69-18.55,28.85-37.51,43.22-56.31.48-.63,1.09-1.17,1.93-2.07,6.95,8,13.58,15.82,20.52,23.42,32.94,36,66.22,71.76,98.88,108,35.46,39.37,70.34,79.25,105.53,118.87,10.84,12.21,21.92,24.21,32.69,36.48a10.84,10.84,0,0,1,2.49,6.6c.14,53.16.05,106.33.22,159.49,0,4.31-2,5.15-5.34,6.06-35.49,9.68-69.74,22.24-101.32,41.61a218.64,218.64,0,0,0-49,41.5c-4.15,4.66-4.65,4.79-9.82,1.26-26.27-18-54.3-31.79-86.12-36.73C2593.08,1140.83,2588.63,1140.23,2584.48,1139.64ZM2351.89,825l-1.88.84c1.26,1.27,2.48,3.47,3.81,3.54s4.21-1.71,4.31-2.88c.48-5.33.14-10.74.27-16.11.11-4,.58-8,.71-11.95a60,60,0,0,0-.39-6.13c-2,.53-4.68.45-6,1.73-3.6,3.5-3.92,8.19-3.24,13C2350.34,813,2351.1,819,2351.89,825ZM2388,804.73l1.45-.73c-1.27-1.29-2.6-3.69-3.79-3.62-1.62.09-4.41,2-4.48,3.24a133,133,0,0,0,.3,19.56,3.06,3.06,0,0,0,5.35,1.78,10.26,10.26,0,0,0,2.37-6.63C2389.22,813.8,2388.45,809.27,2388,804.73Zm18.76-2.09c-1.79,3.17-3.53,4.88-3.43,6.47.09,1.4,2.26,2.66,3.5,4,1.35-1.4,3.6-2.7,3.77-4.22S2408.77,805.69,2406.76,802.64Z" transform="translate(1)"/><path class="cls-1" d="M1553.8,283.65c11,6.7,22.74,8,34.54,9.45,4.7.56,9.41,3.08,13.55,5.62a40,40,0,0,0,22.4,5.92c14.8-.37,29.59-1.47,44.4-1.85,17.78-.46,35.66-1.63,53.35-.38,20.32,1.44,39.87-1.25,59.36-6,15-3.67,30.11-7.2,43.59-15.52,7.22-4.45,13.14-9.87,16.25-17.7,3-7.64,8.09-13.25,14.75-17.74,5.85-3.94,11.34-8.21,14.11-15.11.36-.9,1.93-1.56,3.06-1.85a16.49,16.49,0,0,1,4-.08q224,0,448-.08c4.22,0,6.52.81,8.53,5.16,4.91,10.63,14.17,17.5,24.62,21.62,10.12,4,21,6,31.69,8.55,7.43,1.77,15.16,2.37,22.48,4.47,22,6.33,43.86,4.35,65.77-.35a235,235,0,0,1,64.57-5.21,85,85,0,0,0,33.88-5.05c7.94-2.79,16.1-5,24.17-7.43l.62,1.19c-3.92,3.21-7.71,6.59-11.79,9.58-38,27.91-78.2,51.86-121.6,70.63-52.62,22.76-107,40.2-162.22,55-36.81,9.87-74.26,17.43-111.57,25.34-25.9,5.5-52.06,9.78-78.08,14.73a9.18,9.18,0,0,1-8.24-1.92c-26.26-20.92-55.95-29.41-89.32-24.32-11.2,1.7-22.37,3.69-33.62,4.91-5.37.58-11.32.88-16.29-.81-26.33-8.93-52.5-5.83-78.32,1.09-15.36,4.12-30.21,10.26-45,16.18a25.69,25.69,0,0,1-18.89.63c-23.22-8-45.9-5.85-68.23,3.58-12.29,5.2-21,13.79-26.13,26.15a6.1,6.1,0,0,1-4.5,3.17c-48.15-.57-96.34-.64-144.19-7.31-8.74-1.22-17.46-2.61-26.21-3.84-2.7-.38-4-1.39-4-4.46q.13-76.5.08-153A24.55,24.55,0,0,1,1553.8,283.65Z" transform="translate(1)"/><path class="cls-1" d="M2575.19,1138.12c-16.25,1.69-31.9,2.59-47.29,5.08-26.71,4.31-52.92,10.56-76,26a6.24,6.24,0,0,1-5,.44c-30.39-11.52-61.72-14.32-93.85-10.78a17.05,17.05,0,0,1-9.85-1.9c-28.88-16.93-60.55-23.52-93.42-26.11a394.83,394.83,0,0,0-123,9.22c-16.14,3.84-31.09,10.77-45.22,19.47a7.87,7.87,0,0,1-5.08.57,186,186,0,0,0-83.1,4.12,180.31,180.31,0,0,0-20.65,7.43c-2.82,1.16-4.64,1-7.14-.76-16.42-11.46-34-20.48-54.08-23.34-18.88-2.71-37.82-3.08-56.64,1-.79.18-1.61.28-2.7.47a18.33,18.33,0,0,1-.49-2.92c0-38.16-.12-76.32.12-114.48.07-10.8,1-21.62,1.92-32.4a39.66,39.66,0,0,1,2.66-10.1c4.38-11.9,7.31-13.59,19.81-13.2,35.47,1.12,71,1.83,106.42,3.16,42.12,1.58,84.23,3.64,126.35,5.45,5.49.24,11,.34,16.49.31,57-.35,114-1.11,171-1,29.64.07,59.27,2,88.92,2.57,35,.71,70,1,105,1.34,20.13.23,39.69,4.3,59.27,8.4,17.1,3.58,23.18,16.43,25.19,31.58a302.84,302.84,0,0,1,2.5,39.82c0,20.82-1,41.64-1.67,62.46C2575.63,1132.84,2575.36,1135.65,2575.19,1138.12Z" transform="translate(1)"/><path class="cls-1" d="M1861.87,230.06c-2.83,2.46-5.45,5.23-8.53,7.34-8.68,6-15.74,13-19.77,23.12-4.71,11.84-16,16.73-26.7,20.19-29.19,9.46-58.68,16.56-90.17,13.25-17.53-1.84-35.52.68-53.3,1.26-13.47.45-26.93,1.21-40.4,1.29a27.76,27.76,0,0,1-18.65-6.67c-4.33-3.55-11.43-4.59-17.42-5a75,75,0,0,1-30.52-8.5c-1.25-.67-3-2.12-3-3.24-.2-14.62-.13-29.25-.13-44.27h307.8Z" transform="translate(1)"/><path class="cls-1" d="M2395.54,847.36c23.43.92,46.71,6.16,67,20.95,3.34,2.43,6.78,5.14,9.11,8.46,9.7,13.8,22.82,23.57,36.55,32.85a43.62,43.62,0,0,1,10.57,10.43c7.86,10.82,3.31,22.9-9.77,26.17a31.81,31.81,0,0,1-11.35.49c-5.81-.69-11.05.29-15.55,3.88-30.13,24-65.21,29.5-102.27,27.15-12.27-.78-24.62-1.7-36.68-3.9-16-2.91-28.88-11.77-39.34-24a23.49,23.49,0,0,0-12.87-7.86,19.9,19.9,0,0,1-10.72-31.73c1.15-1.41,2.58-2.59,3.84-3.91,7.34-7.68,16-14.51,21.72-23.23,9.64-14.63,23.41-22.26,39-27.78C2360.83,849.66,2377.43,847.38,2395.54,847.36Zm-5.05,97.19c12.83.18,27.44-2.19,39.17-7,8.58-3.54,16.54-8.15,21.6-16.25,1.18-1.89,1.32-4.85,1-7.19-1.26-8.75-7.89-13.58-14.44-18.15-23.27-16.23-48.78-18.31-75.46-11.11-13,3.5-23,11.06-28.79,23.59-4.52,9.78-2.12,20.2,7.17,25.74a55.27,55.27,0,0,0,18,6.81C2369.2,942.87,2379.89,943.43,2390.49,944.55Z" transform="translate(1)"/><path class="cls-1" d="M1960.75,970.19c-.22-2.28-.49-4.24-.59-6.21a371.91,371.91,0,0,1,3.51-75.73c1.73-11.18,6.88-19.28,17.75-24,9.3-4,17.94-9.51,27-14.08,8-4,12-10.22,11.72-19.19a63.51,63.51,0,0,1,.65-7.22c18.43,9.48,37,9.51,55.37,3.34,1.21,5.13,1.73,10.37,3.69,15,3.09,7.25,8.79,12.47,15.85,16s14.21,7.35,21.51,10.59,11.75,8.6,12.2,16.31c.59,9.88.14,19.83.14,30.47l-24.38-2.36c0-7.22,0-13.84,0-20.46,0-1.67.62-3.54,0-4.94-.77-1.87-2.43-3.36-3.71-5-1.38,1.59-3.76,3-4,4.78-.78,6.44-.85,13-1.19,19.44-.08,1.65-.17,3.3-.31,5.86-2.71,0-5.29,0-7.86,0-11,.21-21.27,3.52-31.51,7.15a13.84,13.84,0,0,1-8.58.2c-13.06-4.67-26.64-5.93-40.28-6.65-4.5-.24-9.09,1.21-13.95,1.94,0-3.48,0-7.36,0-11.24,0-3,.57-6.05.14-9-.21-1.39-2-3.39-3.32-3.52s-3.07,1.55-3.86,2.9-.64,3.22-.73,4.87c-.7,12.81-1.63,25.61-1.92,38.42a76.22,76.22,0,0,0,1.85,16.3c.74,3.81,4,4.92,7.42,3.77,3.28-1.11,6.29-3,9.48-4.41,22.82-10.05,45.43-20.64,68.59-29.87,12.9-5.14,27-2.8,40.62-2.26,5,.19,9.88,1.39,14.85,1.86s6.74,3.71,7.41,8-1.83,7-5.36,7.92a73.94,73.94,0,0,1-16.13,2.78c-10.64.45-21.3.16-32,.23-10.32.06-19.51,3.85-28.32,8.78-11.49,6.42-22.89,13-34.47,19.21a17.51,17.51,0,0,1-8.42,2C1993.63,971.73,1977.51,970.92,1960.75,970.19Z" transform="translate(1)"/><path class="cls-1" d="M1739.92,454.77c3.2-7.7,7.59-13.89,14.51-17.76,21.39-11.95,44-15.1,67.47-7.67,10.86,3.44,20.37,2.67,30.72-2.34a198.17,198.17,0,0,1,86.94-19.84c7,0,14.21,1.81,21.06,3.74,10.67,3,21.17,3.13,32.1,1.53,16.12-2.36,32.37-5,48.59-5.18,21.72-.19,41.13,8.21,59.57,21.8-4.19.76-7.34,1.51-10.53,1.88-46.65,5.39-93.36,10.22-139.93,16.24-36.91,4.77-74,7.06-111.06,8.22-32.45,1-64.95,0-97.43-.1A10.25,10.25,0,0,1,1739.92,454.77Z" transform="translate(1)"/><path class="cls-1" d="M2112.89,779.77c-.3-6.11-.4-12.23-1-18.31-.35-3.75-1.49-7.42-2.13-11.16-.29-1.69-.86-3.74-.22-5.12,2.44-5.29,1.53-9.68-1.68-14.46-15.33-22.83-38.68-31.92-65.22-24.63-14.76,4-25.35,13.54-32.65,26.83a8.42,8.42,0,0,0-1.22,3.26c-.75,12.36-11.14,22-9,35.16l-1.37-.06a28.59,28.59,0,0,1-1.5-3.23,160.91,160.91,0,0,1-3.55-87.24c1.45-6.19,4.8-10.24,10.75-12.67,37.91-15.49,75-14.73,111.09,5.42,9.11,5.09,17.52,11.25,21.73,21.28,1.56,3.73,2.84,8.09,2.51,12-2.17,26-10.07,50.17-24.65,72-.28.41-.58.8-.87,1.19Z" transform="translate(1)"/><path class="cls-1" d="M2574.48,611.54c7.86,4.33,15.57,4.57,23.58,2,1.13-.37,3.33.59,4.17,1.63,39.73,49.19,85.09,93.27,127.23,140.27,30.48,34,61.78,67.22,92.57,100.92,8.76,9.59,17.06,19.6,25.49,29.49a6.06,6.06,0,0,1,1.43,3.52c.13,7.14.07,14.28.07,22.79-2-2.1-3.19-3.3-4.3-4.58-24.87-28.49-49.31-57.36-74.68-85.4-33.65-37.18-68.2-73.55-102-110.58-23.92-26.21-47.33-52.89-70.84-79.47-7.68-8.69-10.06-8.8-17.11.46q-22.43,29.42-44.85,58.82c-.48.64-1.08,1.19-1.85,2L2523,682.13C2539.89,659,2557.12,635.35,2574.48,611.54Z" transform="translate(1)"/><path class="cls-1" d="M2623.65,228.74c-5.42,6.69-10.13,11.62-18.83,12.89-10.94,1.59-21.45,5.94-32.25,8.68-7.06,1.78-14.37,4.28-21.45,3.95-31.22-1.43-61.79,2.59-92.27,8.64-12.85,2.55-25.81,1.58-38.68-1.19-13.32-2.86-26.75-5.21-40.14-7.76-11.48-2.18-22.13-6.33-31-14.11-3.37-3-6.1-6.65-9.13-10l.91-1.1Z" transform="translate(1)"/><path class="cls-1" d="M2518.23,815.5C2492.79,776,2459.16,749,2410,744.72c2.28-1.4,4.48-2.94,6.84-4.18,16.78-8.75,34.76-13.39,53.49-15.2a21.77,21.77,0,0,0,16.57-9.81c6.32-9,12.9-17.8,19-26.9,2.05-3,4.19-3.59,7-2,8.44,4.84,15.42,11.15,18.68,20.61a6.76,6.76,0,0,1-1,5.32A147.1,147.1,0,0,1,2520,725.77c-5.2,5.62-6.67,11.86-5.26,19.34,2.52,13.41,5.37,26.83,6.53,40.38.84,9.81-.84,19.83-1.4,29.76Z" transform="translate(1)"/><path class="cls-1" d="M2099.38,732.92c-3.23,2-6.69,3.39-8.92,5.86-2.91,3.21-5.68,7-7,11.1-1.2,3.83-2.91,5.45-6.62,6.11-17.89,3.19-35.24.66-52.1-5.33-9.39-3.34-10.91-9.17-5.59-17.59C2037.1,704.7,2080.39,704.46,2099.38,732.92Z" transform="translate(1)"/><path class="cls-1" d="M2086.81,801c2,10.05-4.52,14-12,17.57-13.23,6.23-27,6-40.47,2.14-4.92-1.41-9.45-5.42-13.24-9.17-4.35-4.32-2.2-20.81,2.47-24.81,2.21-1.89,3.58-1.11,4.53,1.24,2.1,5.15,4.67,10,11.25,9.53s8.09-6,10-11c2.78-7.22,6.32-8.09,12.2-3.15,5.27,4.43,8.59,4.63,15.5.94,5.78-3.08,7.08-2.59,8.3,3.87C2086.12,792.39,2086.33,796.73,2086.81,801Z" transform="translate(1)"/><path class="cls-1" d="M2515.14,825c-34.14,6.56-100.62-38.42-106.48-71.18,14.79,1.67,29.58,2.52,42.64,10.59-6.68,18.49-5.46,27.85,4.44,34.69s22.14,4.71,35.61-6.87Z" transform="translate(1)"/><path class="cls-1" d="M2011.17,794.82c-6.12-6.68-5.39-31.1,1.14-42.07,13.48,9.33,29.1,11.37,44.86,12.41,16,1.07,31.24-1.54,44.89-12.7.75,2.66,1.68,4.59,1.76,6.55.36,8.47-.19,17,.84,25.4s-4.14,12.67-10.31,18.68a58.16,58.16,0,0,0,0-6.78c-.68-4.75-1-9.65-2.48-14.18-2.44-7.6-8.91-10.18-15.85-6.19-4.67,2.68-7.79,3-12.14-1-6.6-6.1-16.73-2.76-20.94,6.17-1.3,2.76-2.45,5.6-4.14,9.46-4.4-6.65-6.21-15.67-15.85-12.59C2015.26,780.41,2013.14,787.69,2011.17,794.82Z" transform="translate(1)"/><path class="cls-1" d="M2058.7,957.25a44.19,44.19,0,0,1,26.59-6.93,6.58,6.58,0,0,1,4,2.21c2.47,2.66,4.45,3,7,0a6.62,6.62,0,0,1,4.41-2.15c7.61-.22,15.24-.1,23.09-.1V976.1c-7.13,0-13.73.07-20.33-.08-1,0-2-1-3-1.58-3.61-2.16-7-4.89-10.87-6.37C2079.88,964.32,2069.92,961.13,2058.7,957.25Z" transform="translate(1)"/><path class="cls-1" d="M1991.9,942.06c.35-5.48.42-9.8,1-14a5,5,0,0,1,2.86-3.45c4.38-1.27,8.94-2.92,13.37-2.77,8.26.29,16.49,1.68,24.71,2.75a12,12,0,0,1,6.19,2.74c-5.51,2.51-11,5.05-16.52,7.53-6.21,2.78-12.25,6.14-18.73,8C2001.1,943.87,1996.67,942.43,1991.9,942.06Z" transform="translate(1)"/><path class="cls-1" d="M2485.49,786.39c-10,9.37-20.36,11-26.65,5-5.73-5.51-5.53-15.31,1.09-23.26Z" transform="translate(1)"/><path class="cls-1" d="M2082.39,975.26l-51.4-1.91-.31-1.12c6-3.31,12-6.69,18.15-9.87a4.63,4.63,0,0,1,3.25.21q14.46,5.34,28.85,10.83a12.48,12.48,0,0,1,1.65.88C2082.52,974.61,2082.46,974.94,2082.39,975.26Z" transform="translate(1)"/><path class="cls-1" d="M2587.58,607.3c-5.81-.12-11.4-3.57-11.27-6.94.19-4.86,6.09-10.58,10.93-10.6,5.64,0,10.66,5.78,10.59,12.26C2597.79,605.3,2593.66,607.43,2587.58,607.3Z" transform="translate(1)"/><path class="cls-1" d="M152.32,590.51q0-177-.12-354c0-5.19,1.46-6.31,6.43-6.31q354,.18,708,0c4.74,0,6.13,1.15,6.12,6q-.18,354.23,0,708.44c0,4.95-1.47,6-6.16,6q-66.75-.27-133.49,0c-4.71,0-6.1-1.23-6.44-6-3.51-49.58-4.42-99.23-3.36-148.88.46-22-7.43-38.81-25.5-51.07a23.15,23.15,0,0,1-4.52-3.91c-11.75-13.65-27.39-18.71-44.56-19.27-20-.65-40-.44-59.95-.28-3.74,0-5.32-.79-6-4.56-3-15.92-5.52-31.84-4.37-48.14.55-7.94-.58-10.43-8.18-12.82a295.22,295.22,0,0,0-31.42-7.61c-3.84-.76-5.44-1.71-5.28-5.85.31-8-.09-16,.18-24a7.91,7.91,0,0,1,2.67-5.24c8.73-7,11-14.62,6.3-22.46-5.56-9.27-15.69-12.48-25.5-8.35-1.78.75-4,.5-6.05.53-3.45.06-7.09-.77-10.3.09-9,2.41-12.14,11.84-7,19.51.74,1.09,1.5,2.43,2.59,3,7.9,4.15,8.81,10.92,7.9,18.86a109.21,109.21,0,0,0-.22,16c.1,3.25-.9,4.62-4.29,5.22-10.39,1.87-20.32,5.05-29.26,11-4,2.66-6,6-6.3,10.61-.8,13-1.82,25.93-2.36,38.9-.17,4-1.1,5.2-5.35,5.39-28.29,1.3-56.57,2.78-84.81,4.71-7.24.49-14.4,2.63-21.52,4.36-16.89,4.09-26.95,16-33.7,31-7.24,16.08-12.15,32.67-10.32,50.8,1.86,18.45-2.29,36.51-5.14,54.6-4.64,29.46-9.52,58.89-14.09,88.37-.62,4.05-1.83,5.54-6.19,5.52q-61.5-.27-123,0c-4.56,0-5.47-1.42-5.47-5.7Q152.4,767.74,152.32,590.51Zm350.54-49.7c24.57-1.08,44.39-1.54,64.15-2.92,21.67-1.5,43-4.84,63.1-13.92,14.53-6.58,28.09-14.3,38.29-27.18,15.53-19.61,13.35-42.74-3.48-64.06-10.2-12.93-24.94-21.34-39.12-29.9-37.52-22.65-77.64-35.33-121.95-33.65-41.31,1.56-78.52,13.18-109.8,41.31-17,15.28-30.29,32.64-35.53,55.39-6.52,28.33,3.09,47.76,29.89,59.09a143.82,143.82,0,0,0,44.89,11.34C458,538.24,482.8,539.54,502.86,540.81Zm-119.93,109a21.77,21.77,0,0,0,4-3c20.43-22.8,40.25-46.2,65.22-64.45,1.4-1,2.19-4.65,1.51-6.36-1.18-3-4.22-2.8-6.81-1.22a61,61,0,0,0-7.44,5c-21.8,18.2-41,39-59.39,60.51a10.7,10.7,0,0,0-2.06,3.37C377,646.56,379.06,649.63,382.93,649.76Zm207.35-80.33c-4.21-.23-6.72,3.73-4.93,7.1a99.86,99.86,0,0,0,6.59,10q21.24,30.46,42.57,60.87c2.13,3,4.72,7.27,9.1,3.92s.59-6.79-1.51-9.8Q623,614.1,603.8,586.76c-3.34-4.76-6.61-9.58-10.07-14.25A19.79,19.79,0,0,0,590.28,569.43ZM323,307.29c-1.38,1.12-3.39,2-3.87,3.35a5.68,5.68,0,0,0,1.05,4.88,51.63,51.63,0,0,0,7.85,6.12c20.43,14,40.86,28.09,61.44,41.89,1.56,1,4.34.24,6.56.29,0-2.27.75-5.06-.29-6.68-1.55-2.4-4.24-4.18-6.7-5.85q-30.54-20.81-61.19-41.44C326.52,308.94,325,308.32,323,307.29Zm393.18,17c-.11-4.29-3.31-6.53-6.4-5.45a14.07,14.07,0,0,0-3.86,2.23c-14.4,11.27-28.82,22.51-43.09,33.94-4.93,3.94-9.56,8.26-14.11,12.63-2.14,2.06-2.79,5.18-.1,6.92,1.55,1,4.38.05,6.62-.14.4,0,.72-.66,1.11-1q28.21-22.56,56.4-45.15A23.69,23.69,0,0,0,716.2,324.29ZM762,513.94v-1.32c10,0,20,0,30,0,3.38,0,6.84-.57,6.84-4.76s-3.34-4.87-6.77-4.93c-.84,0-1.67,0-2.5,0q-28.49.65-57,1.28c-3.53.08-7.3.44-7.33,4.85s3.73,4.85,7.26,4.85Q747.21,513.92,762,513.94Zm-487.1-16.45v-1.68c8.65,0,17.3,0,25.94,0,3,0,6-.92,6-4.51s-2.95-5-6.22-5c-3.49,0-7,.3-10.48.4-13.47.41-27,.61-40.41,1.35A9.31,9.31,0,0,0,243.2,492c-1.58,2.69,1.69,5.48,6.2,5.52C257.88,497.53,266.37,497.49,274.85,497.49Zm.08-89.38c-1.13,1.06-3.32,2.16-3.87,3.8-1.14,3.4,1.44,5.31,4.28,6.18,10.32,3.17,20.7,6.15,31.07,9.16,3.5,1,7.13,1,8.17-3.14S312.05,419,308.9,418c-9.41-2.73-18.81-5.53-28.21-8.29C279.1,409.28,277.5,408.84,274.93,408.11Zm442.71,22.83c3.07-1.42,5.47-2.52,7.85-3.64,7.53-3.54,15.12-6.95,22.52-10.73,2.72-1.38,4.27-4.07,2.35-7.13s-4.56-2.38-7.41-.92c-5,2.57-10.24,4.8-15.34,7.24-3.9,1.87-8,3.55-11.53,5.92a6.72,6.72,0,0,0-2.31,5.35C713.92,428.42,716.21,429.59,717.64,430.94Zm-48,123.18c-1.42,1.14-3.64,2-3.89,3.32-.34,1.77.18,4.46,1.41,5.65,5.48,5.31,11.33,10.23,17.08,15.26,2.33,2,4.93,3.18,7.45.47s1.25-5.27-1-7.37q-8.25-7.58-16.67-15C672.9,555.54,671.42,555.07,669.63,554.12Zm-284.08,5.72c-6.88,4.33-13.35,8.23-19.54,12.54-.74.51-.62,4,.25,4.7,1.41,1.13,4.18,2,5.64,1.36a144.69,144.69,0,0,0,16.64-8.94,5.61,5.61,0,0,0,1.9-5C389.94,562.9,387.72,561.8,385.55,559.84Zm127.8-245.61c-.44-5.3-.82-9.6-1.14-13.9-.24-3.2-1-6.4-4.83-6.33-4.11.08-4.86,3.45-4.67,6.86.27,5.13,1,10.24,1,15.37.06,3.45.77,6.29,4.62,6.23,3.63-.06,4.91-2.9,5-6.25C513.38,315.21,513.35,314.22,513.35,314.23Z" transform="translate(1)"/><path class="cls-1" d="M717.38,950.56c-12.66,0-24.31.11-36-.16-1.18,0-3.18-2.27-3.32-3.64-1.07-10.43-2.18-20.89-2.5-31.37-.94-30.59-6-60.64-11.38-90.65a3.89,3.89,0,0,0-.12-.49c-1.08-3.2-.94-7.53-5.41-8.1-4.88-.63-5.69,3.78-7.19,7-10.69,22.76-13.92,46.83-11.88,71.67,1.44,17.59,3.43,35.14,5.15,52.7.08.79,0,1.6,0,2.69H374.86c.33-6.68.7-13,.94-19.26.79-20.63,3.11-41.37,1.78-61.86-1-15.55-6.55-30.84-10.42-46.16-1-3.88-4.75-5.28-8.44-4.51-3.38.71-3.29,3.8-3.44,6.84-.58,11.78-.5,23.73-2.54,35.28-4.41,25-6.27,50.24-7.68,75.53-.81,14.51-.76,14.51-15.42,14.51H295.58c1.44-8.65,2.78-16.48,4-24.33,5-31.76,10.32-63.48,14.83-95.32A172.28,172.28,0,0,0,315.51,799c-1-20.76,5.83-38.93,17.05-55.79,4.38-6.57,10.74-10.69,18.34-13.12,16.72-5.35,34.11-6,51.36-7.21,17.6-1.22,35.28-1.4,52.93-2a43.72,43.72,0,0,1,5.49.13c9.45.85,10.15.29,10.63-9.38.45-9,.74-18,1.17-27,.14-3,.49-5.89.8-9.43,32,13.11,63.28,13.49,94.46-2,.22,1.19.43,2.08.54,3,1.89,15,3.47,30.08,5.77,45,1.4,9.11,3.41,9.72,12.44,9.63,21-.21,42-.28,62.93.26,14.29.37,27,5.11,36.94,16.2,3.3,3.68,7.46,6.63,11.41,9.7,10.49,8.14,15.49,18.87,15.49,32.06,0,18.16-.4,36.34.12,54.49,1,33.47,2.44,66.92,3.7,100.38C717.16,946,717.26,948,717.38,950.56ZM419.12,894.39a16.35,16.35,0,0,0,16.78,16.23c9.72,0,18.15-8.4,17.9-17.78-.27-9.72-9-18.57-18.23-18.47C426.91,874.47,419,884.11,419.12,894.39ZM587.83,911c8.29.07,14.56-5.92,14.54-13.86,0-9-9-17.77-18.28-17.79-7.18,0-12.39,6.45-12.6,15.64C571.29,903.74,578.62,910.91,587.83,911Z" transform="translate(1)"/><path class="cls-1" d="M668.14,950.54c-3.7,0-7.33.2-10.91-.14a4.08,4.08,0,0,1-2.63-2.79c-4.27-28.83-7.76-57.75-4.47-86.93.83-7.43,3.37-14.66,5.93-21.87C664.57,875.36,665.4,912.55,668.14,950.54Z" transform="translate(1)"/><path class="cls-1" d="M514,633.46c0-6.64-.18-13.3.06-19.94.16-4.42-1.31-7.66-5-10.17a41.74,41.74,0,0,1-6.46-5.47c-.88-.92-1.68-2.85-1.28-3.81a4.27,4.27,0,0,1,3.51-2.09,14.33,14.33,0,0,1,6.67,2.45c3.3,2.59,5.95,3.06,8.08-1,1.74-3.3,4.87-4.2,7.56-3a16,16,0,0,1,7.34,6.59c.77,1.56-1,5.9-2.82,7-6.79,4-8,9.76-7.76,16.87.37,11.3,0,22.61.29,33.91.14,4.72-2.3,5-5.88,5-3.81,0-5.72-1-5.45-5.47.43-6.95.12-13.95.12-20.92Z" transform="translate(1)"/><path class="cls-1" d="M353.81,950.57c2.21-33.39,3.23-66,10.44-97.85l1.55-.2c1,7.58,3.05,15.17,2.88,22.72-.44,20.12-1.84,40.22-2.85,60.32a90.2,90.2,0,0,0-.44,10c.24,3.94-1.14,5.55-5.11,5.08A62,62,0,0,0,353.81,950.57Z" transform="translate(1)"/><path class="cls-1" d="M563.17,664c-20.19,14.33-67,14.91-87.56.59,8.33-5.7,17.37-8.15,27.19-9.89.17,1.8.33,3.07.4,4.35.27,5,2.85,8.52,7.6,9.22a62.57,62.57,0,0,0,15.29.23c4.31-.42,7.2-3.06,7.52-7.94.08-1.14,1.88-3.2,2.61-3.08,9.12,1.42,18.18,3.16,27.26,4.82Z" transform="translate(1)"/><path class="cls-1" d="M1020.2,509.34V230.2h384.57v5.47q0,125.49,0,251c0,2.13.07,4.51-.8,6.35-8.76,18.5-10.49,38.39-12.14,58.36-1.78,21.61-4,43.16-12.84,63.36-4.33,9.88-9.91,19-18,26.11a42.3,42.3,0,0,1-13.07,8c-11.11,4-19.65-.16-24.15-11.15a42.15,42.15,0,0,1-1.68-27.47c2.86-10.61,5.91-21.18,9.43-31.59,11.16-33,10.91-65.69-.84-98.47-7.29-20.33-12.81-41.14-11.63-63,.58-10.78,2.4-21.5,3.57-32.26.43-4,1.11-8,.71-11.9-.22-2.07-2.19-5.07-4-5.57-2-.59-5.71.33-7,1.94a71.35,71.35,0,0,0-9,14.3,202.79,202.79,0,0,0-18.48,75.25c-.72,13.48-1,27-1.79,40.44-.5,8.95-2.83,17.47-8,24.91-2.89,4.13-6.34,8.15-12.13,7.24-3.56-.57-6.23-7.08-5.48-13.41.63-5.27,1.87-10.48,3-15.67.8-3.57,1.92-7.07,2.87-10.61.9-3.36,1.51-6.89-2.38-8.69-3.71-1.72-5.76,1.12-7.79,3.66-8.93,11.14-16.37,23-20.39,36.93a69.6,69.6,0,0,0-.14,39.88c3,10.06,6.32,20,8.78,30.22,5.27,21.79-2.19,40.94-19.65,51.81-18.12,11.28-39.64,3.41-46.17-16.82a57.71,57.71,0,0,1-.28-34.46c2-7,4.49-13.95,7.12-20.78,7.47-19.32,9.92-39,4.69-59.29-3.36-13.05-2.9-26,.4-39.05,1.8-7.1,3.15-14.31,4.8-21.46.71-3,.66-6.36-2.66-7-2.1-.38-5.45,1.16-6.92,2.93-20.18,24.45-29.49,52.89-30.76,84.33-.49,12-4,23.29-11.3,33.09-5.58,7.47-13.24,11.47-19,9.19-8.08-3.2-11.14-10.4-11.79-18.29a46,46,0,0,1,1.66-15.27,99.78,99.78,0,0,0,.06-51.38c-3.83-15-7.25-30.14-7.34-45.78,0-1.16.11-2.57-.48-3.42-1.39-2-3.11-5.31-4.8-5.38-2.15-.07-4.51,2.39-6.53,4.05-.78.64-1,2.07-1.29,3.19-3.74,16.9-11.7,32.14-18.22,48-5.54,13.47-8.71,27.9-13.11,41.84a148,148,0,0,1-5.84,15.34c-1.56,3.52-4.32,3.55-6.59.66a31.3,31.3,0,0,1-4.51-7.66c-4.12-10.36-4.32-21.07-2.66-32a39.64,39.64,0,0,0,.3-11.9c-.38-2.4-2.36-5.76-4.32-6.34s-5.53,1.18-7,3C1025.89,499.17,1023.43,504.06,1020.2,509.34Z" transform="translate(1)"/><path class="cls-1" d="M1404.59,529.59V745.32H1020.23c-.09-1.77-.26-3.53-.26-5.29q0-96,.11-192c0-3.64,1.75-7.28,2.73-10.91,2-7.19,3.93-14.38,7.08-21.45,0,4.16-.65,8.44.14,12.44a203.15,203.15,0,0,0,5.89,22.06c.77,2.41,2.7,4.62,4.54,6.48,7.56,7.62,16.17,7,21.6-2.31a58.63,58.63,0,0,0,6.86-17.55A222.64,222.64,0,0,1,1090,477.73c2.13-4.05,3.62-8.45,5.78-13.56,3.15,15.4,6.55,29.83,9,44.42,1.85,11.31-.15,22.57-3.1,33.62-3.06,11.41-2.57,22.38,4.06,32.67,8,12.46,21.58,15.42,33.68,6.74,11.92-8.55,17.81-21.06,20.41-35,2-10.94,2.53-22.17,4.18-33.19,2-13,5.59-25.59,13.15-36.85-.4,2.52-.75,5.06-1.22,7.57-2.17,11.74-.4,23.26,2.25,34.66,3.66,15.76,2.16,31.06-3.06,46.23-3.67,10.7-7.49,21.39-10.33,32.32-3.07,11.86-1.94,23.8,2,35.45,8,23.83,33.73,34.38,56.3,23,23.51-11.81,34.55-37.75,27.52-65.45-2.66-10.48-6.09-20.76-9.11-31.15-4.69-16.1-1.33-31.19,6.18-47.2,0,2.9-.26,4.48,0,5.94,1.07,5.14,1.5,10.64,3.7,15.27,3.66,7.7,11.5,10.58,18.95,6.57A40.55,40.55,0,0,0,1283.89,528c7.13-10.09,8.53-22.1,9.29-34.24,1.3-20.76,2.17-41.62,5.14-62.16,1.89-13,7.24-25.55,11.1-38.28.37-1.21,1.18-2.27,2.5-4.73-.87,7.55-1.68,13.58-2.23,19.63-2.13,23,1.85,45.14,9.07,66.86,6.71,20.14,13.55,40.49,11,62-1.79,14.94-5.9,29.64-9.4,44.34-2.58,10.83-6.24,21.42-8.66,32.28-2,9-.59,18,2.63,26.53,6.66,17.72,23.42,24.44,40.62,16.43,9.84-4.58,17-12.15,23.16-20.8,11.39-16,17.1-34.23,19.75-53.39,2.21-16,3.48-32.11,5.18-48.18.16-1.57.38-3.15.57-4.73Z" transform="translate(1)"/><path d="M2351.89,825c-.79-6-1.55-12-2.4-18-.68-4.8-.36-9.49,3.24-13,1.31-1.28,3.95-1.2,6-1.73a60,60,0,0,1,.39,6.13c-.13,4-.6,8-.71,11.95-.13,5.37.21,10.78-.27,16.11-.1,1.17-2.86,3-4.31,2.88s-2.55-2.27-3.81-3.54Z" transform="translate(1)"/><path d="M2388,804.73c.45,4.54,1.22,9.07,1.2,13.6a10.26,10.26,0,0,1-2.37,6.63,3.06,3.06,0,0,1-5.35-1.78,133,133,0,0,1-.3-19.56c.07-1.25,2.86-3.15,4.48-3.24,1.19-.07,2.52,2.33,3.79,3.62Z" transform="translate(1)"/><path d="M2406.76,802.64c2,3.05,4,4.76,3.84,6.23s-2.42,2.82-3.77,4.22c-1.24-1.32-3.41-2.58-3.5-4C2403.23,807.52,2405,805.81,2406.76,802.64Z" transform="translate(1)"/><path d="M2390.49,944.55c-10.6-1.12-21.29-1.68-31.75-3.58a55.27,55.27,0,0,1-18-6.81c-9.29-5.54-11.69-16-7.17-25.74,5.79-12.53,15.81-20.09,28.79-23.59,26.68-7.2,52.19-5.12,75.46,11.11,6.55,4.57,13.18,9.4,14.44,18.15.34,2.34.2,5.3-1,7.19-5.06,8.1-13,12.71-21.6,16.25C2417.93,942.36,2403.32,944.73,2390.49,944.55Zm-4.89-8.38c4.81,0,8.14.12,11.47,0,15.09-.64,29.4-3.95,41.83-13,7.39-5.41,7.64-8.68,1-15-14.84-14.18-33-19.47-53.09-19-1.28,0-2.74,1.36-3.74,2.45-9.19,10-19.6,16.49-34,12.85a5.77,5.77,0,0,0-4.84,1.73c-8.3,10.57-6,19.28,6.4,24.38a35.76,35.76,0,0,0,8.6,2.51C2368.5,934.33,2377.78,935.27,2385.6,936.17Zm-29.85-40.42c6.71,1.94,10.33.54,12.22-4.33Z" transform="translate(1)"/><path d="M502.86,540.81c-20.06-1.27-44.84-2.57-69.56-4.5A143.82,143.82,0,0,1,388.41,525c-26.8-11.33-36.41-30.76-29.89-59.09,5.24-22.75,18.54-40.11,35.53-55.39,31.28-28.13,68.49-39.75,109.8-41.31,44.31-1.68,84.43,11,121.95,33.65,14.18,8.56,28.92,17,39.12,29.9,16.83,21.32,19,44.45,3.48,64.06-10.2,12.88-23.76,20.6-38.29,27.18-20.05,9.08-41.43,12.42-63.1,13.92C547.25,539.27,527.43,539.73,502.86,540.81Zm4.7-9.18.07-1.83c10.82,0,21.65.27,32.47-.06,21-.64,42-1.72,62.49-6.78,20.79-5.12,40.28-13,55.52-28.87,16.49-17.18,13.39-39.66-2.32-57C644.56,424.74,630.1,416,615.39,408c-16.41-8.91-32.93-17.53-51.16-22.35-3.25-.86-4.91-.07-7.28,2.14a47.88,47.88,0,0,1-11.79,8.23c-21.32,10.19-43.8,11.91-66.88,8.28a66.05,66.05,0,0,1-28.82-11.94c-3.07-2.23-5.37-2-8.6-.68-19.09,8-35.2,20.11-49.58,34.77-13.23,13.48-21.62,29.35-24.58,48.13s4.78,31,20.64,39.15a116.44,116.44,0,0,0,42.51,12.33C455.7,528.52,481.65,529.84,507.56,531.63Zm-49.33-146c3.9,3.95,12.53,7.61,15.31,6.94,3.51-.85,7.08-1.44,10.59-2.29q16.89-4.14,33.72-8.43a14.45,14.45,0,0,0,3.39-1.94C499.81,378.81,478.9,379.31,458.23,385.66Z" transform="translate(1)"/><path d="M382.93,649.76c-3.87-.13-6-3.2-5-6.15a10.7,10.7,0,0,1,2.06-3.37c18.43-21.51,37.59-42.31,59.39-60.51a61,61,0,0,1,7.44-5c2.59-1.58,5.63-1.76,6.81,1.22.68,1.71-.11,5.33-1.51,6.36-25,18.25-44.79,41.65-65.22,64.45A21.77,21.77,0,0,1,382.93,649.76Z" transform="translate(1)"/><path d="M590.28,569.43a19.79,19.79,0,0,1,3.45,3.08c3.46,4.67,6.73,9.49,10.07,14.25q19.16,27.36,38.3,54.73c2.1,3,6,6.37,1.51,9.8s-7-.9-9.1-3.92Q613.12,617,591.94,586.5a99.86,99.86,0,0,1-6.59-10C583.56,573.16,586.07,569.2,590.28,569.43Z" transform="translate(1)"/><path d="M323,307.29c2,1,3.5,1.65,4.85,2.56q30.63,20.67,61.19,41.44c2.46,1.67,5.15,3.45,6.7,5.85,1,1.62.25,4.41.29,6.68-2.22-.05-5,.75-6.56-.29-20.58-13.8-41-27.86-61.44-41.89a51.63,51.63,0,0,1-7.85-6.12,5.68,5.68,0,0,1-1.05-4.88C319.63,309.26,321.64,308.41,323,307.29Z" transform="translate(1)"/><path d="M716.2,324.29a23.69,23.69,0,0,1-3.43,4q-28.14,22.65-56.4,45.15c-.39.31-.71.94-1.11,1-2.24.19-5.07,1.13-6.62.14-2.69-1.74-2-4.86.1-6.92,4.55-4.37,9.18-8.69,14.11-12.63,14.27-11.43,28.69-22.67,43.09-33.94a14.07,14.07,0,0,1,3.86-2.23C712.89,317.76,716.09,320,716.2,324.29Z" transform="translate(1)"/><path d="M762,513.94q-14.75,0-29.49,0c-3.53,0-7.3-.38-7.26-4.85s3.8-4.77,7.33-4.85q28.47-.62,57-1.28c.83,0,1.66,0,2.5,0,3.43.06,6.77.83,6.77,4.93s-3.46,4.75-6.84,4.76c-10,0-20,0-30,0Z" transform="translate(1)"/><path d="M274.85,497.49c-8.48,0-17,0-25.45,0-4.51,0-7.78-2.83-6.2-5.52a9.31,9.31,0,0,1,6.51-3.95c13.45-.74,26.94-.94,40.41-1.35,3.5-.1,7-.44,10.48-.4,3.27,0,6.22,1.32,6.22,5s-3,4.49-6,4.51c-8.64.06-17.29,0-25.94,0Z" transform="translate(1)"/><path d="M274.93,408.11c2.57.73,4.17,1.17,5.76,1.64,9.4,2.76,18.8,5.56,28.21,8.29,3.15.92,6.72,2,5.68,6.07s-4.67,4.16-8.17,3.14c-10.37-3-20.75-6-31.07-9.16-2.84-.87-5.42-2.78-4.28-6.18C271.61,410.27,273.8,409.17,274.93,408.11Z" transform="translate(1)"/><path d="M717.64,430.94c-1.43-1.35-3.72-2.52-3.87-3.91a6.72,6.72,0,0,1,2.31-5.35c3.58-2.37,7.63-4.05,11.53-5.92,5.1-2.44,10.3-4.67,15.34-7.24,2.85-1.46,5.48-2.15,7.41.92s.37,5.75-2.35,7.13c-7.4,3.78-15,7.19-22.52,10.73C723.11,428.42,720.71,429.52,717.64,430.94Z" transform="translate(1)"/><path d="M669.63,554.12c1.79,1,3.27,1.42,4.34,2.36q8.43,7.38,16.67,15c2.29,2.1,3.57,4.65,1,7.37s-5.12,1.56-7.45-.47c-5.75-5-11.6-10-17.08-15.26-1.23-1.19-1.75-3.88-1.41-5.65C666,556.15,668.21,555.26,669.63,554.12Z" transform="translate(1)"/><path d="M385.55,559.84c2.17,2,4.39,3.06,4.89,4.7a5.61,5.61,0,0,1-1.9,5,144.69,144.69,0,0,1-16.64,8.94c-1.46.65-4.23-.23-5.64-1.36-.87-.69-1-4.19-.25-4.7C372.2,568.07,378.67,564.17,385.55,559.84Z" transform="translate(1)"/><path d="M513.35,314.23s0,1,0,2c-.09,3.35-1.37,6.19-5,6.25-3.85.06-4.56-2.78-4.62-6.23-.07-5.13-.75-10.24-1-15.37-.19-3.41.56-6.78,4.67-6.86,3.81-.07,4.59,3.13,4.83,6.33C512.53,304.63,512.91,308.93,513.35,314.23Z" transform="translate(1)"/><path d="M419.12,894.39c-.13-10.28,7.79-19.92,16.45-20,9.23-.1,18,8.75,18.23,18.47.25,9.38-8.18,17.75-17.9,17.78A16.35,16.35,0,0,1,419.12,894.39ZM444,893c-.09-4.27-4.3-9-7.95-8.91s-7.46,5.5-7.32,10.07a7,7,0,0,0,7.23,6.7C440.31,900.81,444.05,897.15,444,893Z" transform="translate(1)"/><path d="M587.83,911c-9.21-.09-16.54-7.26-16.34-16,.21-9.19,5.42-15.66,12.6-15.64,9.23,0,18.25,8.8,18.28,17.79C602.39,905.08,596.12,911.07,587.83,911Zm1.24-9.47c.91-1.1,3-2.57,3.53-4.48.78-2.78-4.13-8.17-7.16-7.51-1.75.37-3.89,3.41-4.1,5.44C580.92,898.88,583.87,900.74,589.07,901.53Z" transform="translate(1)"/><path class="cls-1" d="M2385.6,936.17c-7.82-.9-17.1-1.84-26.34-3.09a35.76,35.76,0,0,1-8.6-2.51c-12.37-5.1-14.7-13.81-6.4-24.38a5.77,5.77,0,0,1,4.84-1.73c14.42,3.64,24.83-2.85,34-12.85,1-1.09,2.46-2.42,3.74-2.45,20.11-.48,38.25,4.81,53.09,19,6.59,6.29,6.34,9.56-1,15-12.43,9.08-26.74,12.39-41.83,13C2393.74,936.29,2390.41,936.17,2385.6,936.17Z" transform="translate(1)"/><path class="cls-1" d="M2355.75,895.75l12.22-4.33C2366.08,896.29,2362.46,897.69,2355.75,895.75Z" transform="translate(1)"/><path class="cls-1" d="M507.56,531.63c-25.91-1.79-51.86-3.11-77.71-5.53a116.44,116.44,0,0,1-42.51-12.33c-15.86-8.15-23.63-20.22-20.64-39.15s11.35-34.65,24.58-48.13c14.38-14.66,30.49-26.79,49.58-34.77,3.23-1.34,5.53-1.55,8.6.68a66.05,66.05,0,0,0,28.82,11.94c23.08,3.63,45.56,1.91,66.88-8.28A47.88,47.88,0,0,0,557,387.83c2.37-2.21,4-3,7.28-2.14,18.23,4.82,34.75,13.44,51.16,22.35,14.71,8,29.17,16.7,40.4,29.08,15.71,17.31,18.81,39.79,2.32,57C642.87,510,623.38,517.84,602.59,523c-20.5,5.06-41.5,6.14-62.49,6.78-10.82.33-21.65.06-32.47.06Z" transform="translate(1)"/><path class="cls-1" d="M458.23,385.66c20.67-6.35,41.58-6.85,63-5.72a14.45,14.45,0,0,1-3.39,1.94q-16.83,4.32-33.72,8.43c-3.51.85-7.08,1.44-10.59,2.29C470.76,393.27,462.13,389.61,458.23,385.66Z" transform="translate(1)"/><path class="cls-1" d="M444,893c.09,4.14-3.65,7.8-8,7.86a7,7,0,0,1-7.23-6.7c-.14-4.57,3.81-10,7.32-10.07S443.87,888.74,444,893Z" transform="translate(1)"/><path class="cls-1" d="M589.07,901.53c-5.2-.79-8.15-2.65-7.73-6.55.21-2,2.35-5.07,4.1-5.44,3-.66,7.94,4.73,7.16,7.51C592.07,899,590,900.43,589.07,901.53Z" transform="translate(1)"/></svg>