<svg id="Layer_1" data-name="Layer 1" xmlns="http://www.w3.org/2000/svg" viewBox="0 0 3000 1275"><defs><style>.cls-1{fill:#fff;}</style></defs><path class="cls-1" d="M0,1660V385H3000V1660ZM1440.07,735.15V976.33c-4.76-2.74-8.71-5.61-13.1-7.44-19.63-8.2-37.8-4.11-54.91,7.28-2.75,1.83-5.42,4.18-3.16,7.76,2.41,3.86,5.48,2,8.68.44,6.54-3.18,13.06-6.8,20-8.65,13.22-3.53,25.37-.66,35.51,9,2,1.94,4.1,3.86,6.16,5.79l1.09-.53v462.7h716.31V735.15ZM731.11,1454V890.17a23.32,23.32,0,0,1,4.28.63c10.45,3.9,21.1,7.36,31.25,11.94a176.6,176.6,0,0,1,72.56,59.53c2,2.86,4.54,5.66,8.2,3s1.85-5.89-.25-8.76c-2.52-3.42-5.06-6.82-8.6-11.57,8.68-.74,16.16-2.46,23.41-1.76a436.11,436.11,0,0,1,46.39,6.67c21.54,4.46,41.41,13.54,60.19,25,3,1.83,6.42,3.2,8.64-.82,2.06-3.72-.75-5.88-3.6-7.55-5.33-3.1-10.63-6.25-16.11-9.07-23.83-12.26-49.28-18.88-75.77-22.39-15-2-29.87-3.29-44.52,1.23-4.21,1.3-6.36.39-9.24-2.57-26.77-27.57-59.88-43.88-97.13-54.17V660.34H143.94V1099c-2.18-1.41-3.66-2.41-5.18-3.34-21.89-13.41-45.08-22.4-71.32-19.53-5.62.61-11.19,2.87-16.46,5.13-2.67,1.15-4.15,4.6-1.74,7.13,1.24,1.31,4.39,1.54,6.48,1.16,6.46-1.18,12.85-4.26,19.23-4.17,24,.35,45.54,8.6,64.71,23.11,3.37,2.55,4.53,5.41,4.53,9.68q-.19,164.74-.1,329.49v6.4Zm2124.48,1.74V662.4H2269.24v793.36ZM912.9,1453.22h209.58c-1.64,1.8-2.91,3-4,4.41-3.72,4.69-7.54,9.31-11,14.19-1.8,2.54-2,6,1.33,7.15,1.82.64,5.07-.59,6.68-2.06,2.65-2.43,4.33-5.88,6.69-8.67,16.6-19.66,39.1-28.8,63.18-34.92,4-1,8.37-.73,13.72-1.14-2.66,3.47-5,5.59-6,8.21a6.77,6.77,0,0,0,1.07,6c.92.95,4.12.63,5.71-.22,1.94-1,3.39-3.15,4.85-5,13.68-17,30.27-29.42,52.19-33.67,13.12-2.54,26.26-4.51,39.63-2.08,3.46.63,6.22-.17,6.65-4,.39-3.46-2.11-5.43-5.16-5.55-9.28-.38-18.59-.66-27.86-.34-5.86.2-11.68,1.54-18.12,2.45V1050.29H850.29v335.22a55.76,55.76,0,0,0-5.71-2,84,84,0,0,0-10.26-1.86c-3.08-.28-5.88.92-6.13,4.43s2.32,4.59,5.49,5.09a43.89,43.89,0,0,1,10.08,2.64,99.65,99.65,0,0,1,35.74,25,131,131,0,0,1,28.78,51.47c.93,3.16,2.61,6.3,6.67,5s3.65-4.73,2.65-7.95C916.17,1462.8,914.58,1458.27,912.9,1453.22ZM1319.46,895.8V501.29H925.35V895.8Zm615.19-316.86c3.54-.67,6.45-1.74,9.33-1.67,7.31.18,14.69.31,21.88,1.46a114.47,114.47,0,0,1,48.34,19.16c6.42,4.5,13.35,7.62,21.41,6.86,5.46-.52,10.87-1.77,16.33-2.11,14.25-.88,28.62-2.81,42.77-1.8,22.31,1.59,42.07,10.76,59.06,25.53,2.53,2.2,5.49,3.92,8.3.72,2.55-2.91,1-5.64-1.49-7.81-18.31-16.1-39.7-25.3-63.82-28.37-17.06-2.17-34-.12-50.68,2.76-11.12,1.92-20.47.4-30.11-6.12-20.8-14.08-44.34-20.28-69.46-20-6.17.06-12.69-.39-17.51,5.07a190.47,190.47,0,0,0-60.26-47c-31.55-15.58-64.06-20.78-98.2-9.66-2.37.77-5,1.28-6.9,2.74-1.41,1.09-2.9,4-2.37,5.21.72,1.63,3.25,2.71,5.22,3.42,1,.37,2.54-.51,3.79-1,29.11-10.27,57.6-7.92,85.63,4.14,32.41,14,58.07,36.07,78.33,64.73,2,2.87,4.51,5.69,8.18,3.12s1.93-5.86-.1-8.75C1940,586.25,1937.51,582.92,1934.65,578.94ZM432.1,507.72c7.48-.4,15.07-.11,22.41-1.36,14.41-2.47,28.69-5.7,43-8.81,7.59-1.65,14.88-1.91,21.54,2.83,22.67,16.17,48.31,25.08,75.23,30.92a136.91,136.91,0,0,0,52.59,1.05c13.6-2.33,27-5.61,40.54-8.53,3.34-.72,6.32-2.31,5.56-6.32-.8-4.24-4.32-4.1-7.57-3.42-8.31,1.73-16.66,3.33-24.86,5.49-18.11,4.77-36.54,6.58-54.95,3.66-29-4.6-56.59-13.68-80.92-30.94-5.89-4.18-12.6-6.42-19.81-5.4a202.45,202.45,0,0,0-23.46,4.56,189.4,189.4,0,0,1-70.32,5.3C391,494.51,373.93,485.68,359.21,472c-2.52-2.34-5.51-4.67-8.65-1.33s-.56,6.07,1.93,8.5c.47.47,1,.9,1.47,1.35C376.1,500.82,402.52,508.76,432.1,507.72ZM1362.84,1137a52.74,52.74,0,0,0-24.8-11.61c-7.12-1.25-14.42-1.56-20.75,2.68-1.54,1-1.74,4.06-2.55,6.17,2.12.79,4.64,2.75,6.31,2.18,14.64-4.94,26.3.37,36.85,10,4.6,4.19,8.28,3.83,12-1.39,4.89-6.89,11.39-8.08,17.89-2.7a60.52,60.52,0,0,1,8.67,9.53c2,2.48,4,4.37,7.07,2.59s3.13-4.84,1.44-7.4a59.15,59.15,0,0,0-7.8-9.62C1386.05,1126.53,1374.72,1126.36,1362.84,1137Z" transform="translate(0 -385)"/><path d="M1440.07,735.15h716.59v717.56H1440.35V990l-1.09.53c-2.06-1.93-4.12-3.85-6.16-5.79-10.14-9.69-22.29-12.56-35.51-9-6.95,1.85-13.47,5.47-20,8.65-3.2,1.56-6.27,3.42-8.68-.44-2.26-3.58.41-5.93,3.16-7.76,17.11-11.39,35.28-15.48,54.91-7.28,4.39,1.83,8.34,4.7,13.1,7.44Zm572.13,709.5c2.38.12,3.83.26,5.28.26,41.5,0,83-.08,124.49.13,5,0,5.93-1.61,5.93-6.23q-.17-344.49,0-689c0-5.13-1.33-6.32-6.36-6.32q-344.49.19-689,0c-5.22,0-6.27,1.46-6.26,6.44q.2,344.74,0,689.48c0,4.39,1.12,5.62,5.56,5.6q65-.24,130,0c5.27,0,7-1.44,7.66-6.74q6.57-55.58,13.81-111.07c1.34-10.41,3.42-20.64,1.53-31.27-5.13-28.8,7.78-50.71,27.52-69.75a26.53,26.53,0,0,1,8.06-4.92c18.69-7.87,38.49-8.94,58.36-8.78,17.8.13,35.6,1,53.39,1.57,3.56.12,4.55-1.38,4.5-4.75-.11-8-.44-16,.34-24s-.16-14.28-8.39-17.77a14.84,14.84,0,0,1-4.94-4.16c-8.67-10.1-18-19.78-25.59-30.62a96,96,0,0,1-13-26.19c-10.71-34.26-19.21-69.08-20.68-105.16-.93-23-1.34-45.94-1.61-68.92-.07-6.65,2.42-12.65,8.26-16.74,4.49-3.15,8.52-7.17,13.37-9.59,17.25-8.65,34.45-17.5,52.24-24.92,28.94-12.08,59.18-15,90.26-10.36,36.52,5.42,69.53,18.08,96.29,44.53,3.9,3.84,6.2,8,6.62,13.49,3.24,41.65,1.69,82.88-9.29,123.5-12.34,45.67-33,86.07-71.2,115.78-1.16.9-2.38,2.69-2.33,4,.5,15.8,1.26,31.59,1.89,47.38.14,3.43,1.91,4.59,5.14,4.52,12-.26,24-.37,35.94-.63,7.33-.16,14.66-.52,22-.75,21.7-.66,41.06,4,57.71,19.72,16.38,15.47,25.25,33.12,24.1,55.63-.47,9.15-1.5,18.29-1.54,27.44C2012.1,1365.15,2012.2,1404.76,2012.2,1444.65Zm-154.4-268.94c-2.21.61-2.83.76-3.43,1-10.39,3.42-20.73,7-31.21,10.17-2.85.85-3.19,2.29-3.09,4.66.17,4,0,7.71,2.91,11.57,1.37,1.84-2.52,7-2.67,10.73-.37,9.14-1.27,18.6.59,27.39,1.29,6.07.75,10.92-.12,16.82a103,103,0,0,0,.17,31.84,41.61,41.61,0,0,1-.13,15.77c-1.75,9.37-.91,19.24-.93,28.9,0,1.19,1.32,2.46,2.18,3.57,1.23,1.57,3.46,2.93,3.64,4.56.14,1.34-2.15,2.88-3.25,4.42s-3.13,3.38-3.26,5.18c-.63,9-.71,18-1.13,27-.13,2.91,0,5,3.65,5.82,1.69.4,2.83,3.09,4.22,4.74-1.75,1.41-3.45,2.89-5.29,4.18-.59.41-1.55.28-3,.5,0,8.75.07,17.36,0,26,0,2.79.26,4.64,3.62,5.36,1.45.31,3.18,2.58,3.43,4.17.19,1.21-1.58,3.75-2.79,4-6.08,1.13-3.38,5.62-3.26,8.68,0,.84,3.53,2.21,5.44,2.22,34.65.13,69.3.09,104,.09,8.46,0,8.29,0,7.61-8.39-1.7-21.08-3.81-42.15-4.67-63.27-.85-20.71,3.75-40.43,15.2-58.06,1.31-2,4.26-3,6.45-4.4,1.49,2.36,4,4.59,4.3,7.1,1.95,14.34,3.19,28.78,5,43.14,3.45,26.59,7.13,53.16,10.85,79.72.21,1.46,1.59,3.92,2.49,4,9.42.29,18.85.18,27.51.18,0-8.55.12-16.34,0-24.13-.76-41-2-81.92,1-122.87,1.34-18-4.88-33.23-18.28-45.61-10.2-9.43-20.82-17.9-35.43-18.63q-14.7-.74-29.45-.65c-17,.12-33.93.72-50.9.79-6.34,0-8.65-2.25-9.75-8.5a110.57,110.57,0,0,1-2.11-15.83C1857.57,1198.51,1857.8,1187.54,1857.8,1175.71Zm-187,121.78c-1.57,6.22-2.71,12.13-4.64,17.77-1.14,3.32-1.09,6,.56,9,9.43,16.72,11.82,34.81,10.39,53.64s-2.86,37.86-4.28,56.8c-.24,3.23-.41,6.48-.65,10.24h10.08q61,0,122,0c2,0,5.15.84,4.54-2.66-.47-2.66,2.65-7-3.16-7.92-1.64-.27-4.06-2.48-4.13-3.89s1.88-4.14,3.45-4.62c3.24-1,3.47-2.89,3.44-5.62-.08-7.49.18-15,0-22.48a7.8,7.8,0,0,0-2.27-4.88c-2.68-2.6-2.39-4.7-.11-7.29,1.2-1.37,2.56-3.17,2.65-4.84.53-9.14.65-18.31,1-27.46.1-2.48-.28-3.85-3.26-4.43-1.79-.34-3.19-2.68-4.77-4.12,1.64-1.58,3.08-4.16,4.94-4.52,3-.58,3.83-1.74,3.83-4.54,0-5,.32-10,.39-15,.08-5.76,0-11.53,0-17.33-1-.19-1.84-.1-2.3-.46-1.9-1.48-3.68-3.1-5.51-4.67,1.73-1.46,3.29-3.79,5.23-4.17,3.24-.64,3-2.52,3-4.7,0-10.67-.08-21.33,0-32,0-2.84-.1-5.08-3.43-6.29-1.28-.46-2.66-2.85-2.57-4.27s2-2.63,3.2-3.85c.83-.86,2.59-1.57,2.61-2.37.18-9.42.12-18.84.12-28.25l-1.89.91c-2-1.79-5.19-3.27-5.79-5.45-1-3.4,2.57-4.26,5.27-5.36,1-.39,1.81-2.2,1.94-3.44a25.21,25.21,0,0,0-.12-8,5.66,5.66,0,0,0-3.34-3.64c-12.39-3.16-24.85-6-37.3-9a24.79,24.79,0,0,0-3.12-.22c0,13.07-.14,25.87.07,38.65.08,4.61-1.3,7.33-5.26,7.3-15-.14-30,0-44.91-.79-15.16-.78-30.27-1.76-45.36.67-1.69.27-3.35.67-5.3,1.07.6,1.63,1,2.55,1.28,3.49,1.36,4.08,1.52,9,7.9,9,1,0,2.81,2.61,2.84,4s-1.62,3-2.84,4.12a3.53,3.53,0,0,1-2,.77c0,11.63.33,22.59-.15,33.51-.2,4.48.5,7.6,4.44,10,2.56,1.56,5.28,3.78,3,7.29-2.13,3.3-5.07,2.39-7.87.63A7.11,7.11,0,0,0,1670.79,1297.49ZM1815.06,896.6c0-1.55,0-2.84,0-4.14-.26-14.53-.25-14.46-15-12.48-27.16,3.66-52,14.08-76.06,26.5-10,5.16-19,12.14-28.29,18.6a8.21,8.21,0,0,0-2.93,5.77c-1.51,53,2.42,105.34,16.69,156.85,6.33,22.87,16.72,42.48,32.51,59.8,6.59,7.22,13.28,14.27,22.4,18s18.5,6.56,27.9,9.38c4.31,1.29,8.92,1.59,14,2.43-1.24-4-1.47-7.32,2.45-8.1,3.21-.64,3.38-2.37,3.44-4.9.19-7.32.46-14.65.87-22,.17-3.12.08-5.61-3.06-7.67s-3.17-6.51-.22-7.34c4.74-1.34,4-4.54,4-7.78.08-3.83,0-7.67.29-11.48.24-3.24.08-5.74-3.75-6.94-1.28-.4-2.76-2.81-2.66-4.19s2-3.52,3.27-3.67c3.56-.42,3.66-2.47,3.73-5.19q.42-17.73,1.1-35.46c.1-2.7,0-4.68-3.23-5.68-4.41-1.34-3-5.5-2.92-8.55.05-1.55,1.75-4.12,3-4.35,3.35-.59,3.28-2.51,3.29-5,0-10.33.12-20.65.33-31,.06-3.2,0-5.73-4-6.85-1.39-.39-3.07-3-3-4.46s2.22-2.82,3.65-4c.68-.55,1.82-.53,2.74-.76,0-9.36-.07-18.5,0-27.63,0-3.4,0-6.12-4.46-6.88-1.4-.24-3.38-3.18-3.23-4.71s2.69-2.7,4.33-3.8c.71-.48,1.81-.36,2.95-.54,0-8.94-.1-17.57.05-26.21.06-3.3-.18-5.66-4.26-6.46-1.46-.28-3.48-3.08-3.35-4.58s2.52-2.91,4.12-4.09C1812.59,896.58,1813.77,896.77,1815.06,896.6Zm7.53,280.59c15.74-3,30.08-8.83,42.4-18.44a159.74,159.74,0,0,0,43.06-50.69c30.29-56.33,37.15-116.81,31.78-179.44a8.06,8.06,0,0,0-2.3-4.72c-10.85-10.43-22.48-19.87-36.08-26.56-20.29-10-41.88-15.39-64.28-17.42-15.87-1.43-12.39-3.43-12.73,12.19,0,.17-.08.39,0,.5a38.28,38.28,0,0,0,2.42,3.09c1.27,1.35,3.77,2.61,3.74,3.87,0,1.71-2,3.34-3.07,5.07s-2.63,3.37-2.69,5.1c-.23,7.82,0,15.66,0,23.49,0,2.29.2,3.85,3,4.88,4.51,1.7,4.43,5.32.54,8.24-1.44,1.08-3,3.11-3,4.75-.25,9.16-.15,18.33.11,27.49,0,1.34,1.54,2.73,2.54,3.94,1.18,1.44,3.67,2.79,3.58,4-.12,1.69-2.21,3.2-3.34,4.87-1,1.45-2.59,3-2.62,4.51q-.42,18-.19,36c0,1.64,1.44,3.7,2.83,4.77,2.47,1.91,3.58,3.62,2,6.71-.86,1.64-.86,3.72-1.39,5.55a43.1,43.1,0,0,1-1.6,4c-.71,1.74-2,3.46-2,5.24-.51,9.48-.68,19-1.08,28.47-.11,2.66,0,4.52,3.24,5.63,3.49,1.18,4,5.52.85,7-5.07,2.28-4.65,6.13-4.68,10.26q0,7-.38,14c-.11,2.36,0,4,3,4.67,1.49.33,3.7,2.69,3.56,3.9-.19,1.67-2.28,3.14-3.6,4.65-1.14,1.31-3.32,2.55-3.35,3.86C1822.48,1152.55,1822.59,1164.49,1822.59,1177.19Zm-163,59.87c-1.59-10.93-4-12.62-13-7.59-5.66,3.17-10.65,7.78-15.34,12.36-3.16,3.09-5.25,7.27-7.85,10.94-8.65,12.22-11.25,25.87-8.86,40.4,1.6,9.69,1.13,19.17-.23,28.81q-6.84,48.48-13.13,97c-1.1,8.36-1.46,16.81-2.22,25.92,6.33,0,12.28,0,18.23,0,4.82,0,11,1.57,14-.82s2.56-8.74,3.36-13.42q9-52.92,17.91-105.87c.58-3.43.36-7.65,2.29-10.09,4.66-5.89,4.93-12.91,6.76-19.55.83-3,.87-5.58-1.69-8.17-2.73-2.75-2.28-5.56,1.46-7.68,1.26-.72,2.68-2.54,2.68-3.86,0-7.48-.4-15-.69-22.43-.15-3.77-.83-6.73-5.9-6.47-1.44.07-4.06-2.31-4.23-3.78s2-3.27,3.38-4.69C1657.13,1237.46,1658.35,1237.44,1659.55,1237.06Zm288.81,98.41h-1.62c-3.22,10.09-6.31,20.4-5.78,31,1.25,25.11,3.24,50.18,5.06,75.26.08,1.09,1.45,2.92,2.31,3,4.75.29,9.53.14,15.33.14C1958.47,1407.82,1953.42,1371.65,1948.36,1335.47Zm-306.13,109.06h19.66c1.61-19.06,3.52-37.93,4.67-56.84a295.89,295.89,0,0,0,0-33.43c-.29-5.37-2.5-10.64-3.85-16l-1,.44Z" transform="translate(0 -385)"/><path d="M731.11,1454h-587v-6.4q0-164.74.1-329.49c0-4.27-1.16-7.13-4.53-9.68C120.49,1093.94,99,1085.69,75,1085.34c-6.38-.09-12.77,3-19.23,4.17-2.09.38-5.24.15-6.48-1.16-2.41-2.53-.93-6,1.74-7.13,5.27-2.26,10.84-4.52,16.46-5.13,26.24-2.87,49.43,6.12,71.32,19.53,1.52.93,3,1.93,5.18,3.34V660.34H730.81v219.1c37.25,10.29,70.36,26.6,97.13,54.17,2.88,3,5,3.87,9.24,2.57,14.65-4.52,29.51-3.22,44.52-1.23,26.49,3.51,51.94,10.13,75.77,22.39,5.48,2.82,10.78,6,16.11,9.07,2.85,1.67,5.66,3.83,3.6,7.55-2.22,4-5.64,2.65-8.64.82-18.78-11.42-38.65-20.5-60.19-25A436.11,436.11,0,0,0,862,943.15c-7.25-.7-14.73,1-23.41,1.76,3.54,4.75,6.08,8.15,8.6,11.57,2.1,2.87,3.83,6.12.25,8.76s-6.17-.11-8.2-3a176.6,176.6,0,0,0-72.56-59.53c-10.15-4.58-20.8-8-31.25-11.94a23.32,23.32,0,0,0-4.28-.63Zm-9.59-785.37H152.12V1445H317.39c0-2.26,0-4.22,0-6.18.1-15.32-.6-30.7.48-46,1.79-25.2,14.67-42.65,39.1-50.8,6.32-2.1,12.79-3.8,19-6.27a99.87,99.87,0,0,0,17-8.32c5.46-3.5,5.33-10.35.36-14.26-27.54-21.71-47.11-49.24-59.33-82a354,354,0,0,1-22.25-139.74c.44-10.77,2.08-21.51,3.63-32.19a13.92,13.92,0,0,1,4.07-7.74,70.06,70.06,0,0,1,13.28-9.65c38.52-20.83,79.46-32.35,123.55-31.19,29.87.79,58.18,8.32,85.91,19.1,7,2.73,10.51,6.56,14,13,11.62,21.46,16.4,45,22.28,68.19,1.08,4.3,1.13,9.77-.63,13.65-2.24,4.92-1.93,9.08-.65,13.76.57,2.08.8,4.25,1.27,6.36,3.14,14.32.88,27.46-8.33,39.16a5.78,5.78,0,0,0-1.18,3.54c.24,5.48.78,11,1.11,16.43a92.63,92.63,0,0,1-9.54,46.93c-10.12,20.75-24.89,37.71-41.57,53.26a6.75,6.75,0,0,0-2.21,4.08,51.53,51.53,0,0,0,.6,11.45,7.47,7.47,0,0,0,3.61,4.6c6.87,3.37,13.8,6.69,21,9.37,18.32,6.88,29,20.62,32,39.08,3.69,22.12,5.44,44.58,7.59,66.93.43,4.44,1.38,5.82,6,5.8,42.83-.18,85.66-.11,128.49-.11h5.58ZM571.89,1445.08c0-2,.11-3.53,0-5-1.6-18.08-2.86-36.21-5-54.22-.89-7.34-3.29-14.61-5.84-21.61-2.78-7.66-7.53-14.19-15.18-17.84-9.3-4.45-18.65-8.85-28.16-12.84-5.75-2.41-9.56-5.85-10.06-12.32-.22-2.8-.61-5.59-1-8.71-3.37,1-6.52,2-9.71,2.85s-6.7,1.25-7.89-2.77,1.88-5.53,5.17-6.45a28.42,28.42,0,0,0,4.78-1.45c3.58-1.73,7.54-3.1,10.5-5.61,18.86-16,34.57-34.62,44.64-57.51,6.81-15.5,7.38-31.68,5.42-47.5-8.12,2.22-15.84,5.76-23.76,6.25-25.58,1.56-51.27,3.13-76.85,2.41-13-.37-26.39-4.27-38.64-9-16.46-6.41-20.26-19.15-12.8-35.06a142.63,142.63,0,0,1,31.27-43,73.8,73.8,0,0,1,41.17-19.88c21.94-3.22,42.44,1.24,61.73,11.73,8.87,4.83,17.47,10.15,27.63,16.09,0-3.74.46-6.82-.1-9.7-1.09-5.55-3-10.93-4.15-16.47-3.77-18-9.53-35.37-18.54-51.5-1.22-2.17-3.07-4.61-5.22-5.54-38-16.52-77.56-24.1-119-18.28-31,4.35-60.28,13.93-87.49,29.65-7.45,4.3-11.51,10.13-12.25,19-3.53,42.56-.45,84.43,10.35,125.88,11.64,44.66,32.15,83.44,69.65,111.88a10.31,10.31,0,0,1,3.29,6.27c1.76,12-1.53,19-12.93,24.09s-23.33,8.83-35.06,13.11c-17.27,6.3-28,18.63-29.59,36.75-1.57,18.36-.81,36.92-1,55.39,0,.26.38.52.55.75h53.49c0-5.05.09-9.69,0-14.33-.19-7.5-.62-15-.75-22.48-.06-3.19.89-6.31,4.77-6.41s4.79,2.85,4.89,6.17c.16,5.16.51,10.32.58,15.48.11,7.12,0,14.24,0,21.53H529.12c-.22-3.44-.61-6.42-.54-9.39.14-5.48.12-11,1.1-16.39.34-1.87,3.33-4.4,5.28-4.57,3.14-.26,4.18,2.7,4,5.7-.12,1.66-.43,3.32-.44,5-.05,6.57,0,13.15,0,19.91Zm-130.5-318.39A131.17,131.17,0,0,0,417,1161.07c-6.47,13.14-3.86,19.85,9.82,25.41a16.16,16.16,0,0,0,3.29,1.17c13,2.15,25.86,5.67,38.86,6,19.61.53,39.3-.92,58.92-2.05a71.91,71.91,0,0,0,19-3.74c16.55-5.69,24.53-18.64,22.73-36a103,103,0,0,0-2.85-14.71,8.29,8.29,0,0,0-3.24-4.75c-12.93-7.52-26-14.81-39-22.15-2.34-1.31-3.82-.71-5.91,1.32-4,3.88-8.32,8.14-13.35,10.14a166.09,166.09,0,0,1-30.93,9.47C463.39,1133.19,452.11,1132.45,441.39,1126.69Zm49.5-21.19a52.24,52.24,0,0,0-33,8.63C469.62,1114.05,481,1112.68,490.89,1105.5Z" transform="translate(0 -385)"/><path d="M2855.59,1455.76H2269.24V662.4h586.35Zm-9.65-466.15V670.28h-5.22q-279.21,0-558.42-.11c-4.72,0-5.81,1.41-5.8,5.89q.16,166.74.1,333.46c0,1.76.19,3.53.28,5.11a6.38,6.38,0,0,0,1.45.42c3.16-.2,6.33-.34,9.47-.68,23.93-2.61,43.06,6,57.8,24.76,1.8,2.28,3.45,3.46,6.57,3.31,25.4-1.18,47.14,6.84,64.49,25.93a10.74,10.74,0,0,0,6.46,2.82c8.93.88,17.4,3.11,25.06,7.82,13.94,8.58,17.61,24.89,7.75,38a45.53,45.53,0,0,1-14.81,12.11c-9.88,5.24-20.87,6.42-32.07,5.93-4.08-.18-8.63-.36-12.22,1.19-15.71,6.74-31.65,7.88-47.86,2.86-10.53-3.26-21-2.63-31.65-1.43-10.23,1.16-20.53,1.74-30.82,2.3-3.05.17-6.16-.58-9.53-.94v163c2.54-.52,4.64-1,6.75-1.38,18.78-3.79,37.49-7.94,56.35-11.26a183.28,183.28,0,0,0,49.22-16c8.24-4,12.58-10.09,14.48-18.4,2-8.77,4-17.57,5.2-26.46.89-6.66,4.71-9.47,10.5-10.84a29.5,29.5,0,0,1,4.93-.82c15.62-.94,31.24-2.48,46.87-2.63,71.15-.7,142.31-1,213.1,8,7.19.91,9,2.71,9.49,10.11.53,8.64,1.23,17.26,2,25.88,1.43,17.09,11.34,27.87,26.64,33.63a239.79,239.79,0,0,0,31.15,8.88c23,5.25,46.21,10,69.34,14.93,7.57,1.61,15.17,3.06,23,4.63V1083.53c-15.9,7.86-32.36,8.88-49.17,7.76a25.11,25.11,0,0,0-6.92.82c-19.34,4.28-38.21,1.48-56.63-4.48-7.72-2.5-14.33-2.83-22,.39-18.63,7.78-38.18,3.44-50.54-10.09-9.08-9.94-9.05-21,.13-30.77,8.36-8.92,19.12-13.39,30.83-15.15,8.43-1.28,14.67-4.6,19.87-11.6,12.94-17.39,31.22-23.4,52.27-22.81a13.44,13.44,0,0,0,6.85-1.68c14.87-8.86,30.75-13.87,48.13-11.82C2827.77,985.17,2836.63,987.68,2845.94,989.61Zm-427.29,241.66c-.31,1.34-.64,2.75-1,4.17-1.86,8.46-3.42,17-5.65,25.35-1.84,6.87-5.11,13.55-11.41,17.1-14.23,8-29,14.94-45.26,18.18-24.51,4.88-49,10-73.51,14.7-4,.79-5.41,2.22-5.39,6.46q.26,62.25,0,124.49c0,4.9,1.73,5.65,6,5.65q279-.13,558-.08h5.4V1330.07c-8.36-1.66-16.37-3.16-24.34-4.87-22.47-4.8-45-9.5-67.37-14.64-11.49-2.63-23.07-5.35-34.12-9.36-20.69-7.48-32.59-22.34-34.29-44.74-.59-7.77-1.43-15.52-2.2-23.68C2595.17,1250.62,2507,1253.28,2418.65,1231.27Zm-63.07-178.84c-2.34,2.23-4.07,5.16-5.65,5.09-2.08-.11-4.79-2.14-5.95-4.1-14.26-24-35.08-33.4-62.52-28.91-3.69.61-5,1.79-5,5.67q.24,46.93,0,93.89c0,4,1.51,5.13,4.94,5.73,10.68,1.87,21.2.62,31.76-1.13,12.89-2.15,25.72-3,38.51,1.23,14,4.59,27.83,3.37,41.4-2.56,3.51-1.54,7.7-1.8,11.62-2.09,4.14-.31,8.33.29,12.48.07,9.45-.52,18.49-2.7,26.23-8.43,8.53-6.3,10.89-18.14,5-25.07-5.57-6.6-13.22-9-20.17-10-2.52,2.36-4.27,5.25-5.86,5.17-2.15-.11-4.74-2.09-6.19-4C2400.73,1062.61,2381.31,1050.34,2355.58,1052.43Zm403.13-44.78c-17.71-.71-31.22,6.62-41.08,20.27-5.86,8.11-13.38,11.81-23,13.19-9.81,1.41-19.14,4.62-26.34,12-6.29,6.43-6.29,12.27-.23,18.8,9.88,10.64,26.2,13.61,41.54,6.61,8.21-3.75,15.7-3.59,24.06-.71,15.2,5.24,30.88,7.84,47.12,6.26,10.38-1,20.82-1.41,31.24-1.92,10.61-.52,20.74-2.69,30.28-7.5,2.85-1.44,4-3.13,4-6.5-.18-21-.14-42,0-63,0-3-.39-4.85-3.85-5.62-4.68-1-9.13-3.11-13.8-4.2-22.6-5.25-42.84-.74-60.25,15C2764.17,1014.21,2761.82,1013.52,2758.71,1007.65Z" transform="translate(0 -385)"/><path d="M912.9,1453.22c1.68,5,3.27,9.58,4.7,14.16,1,3.22,1.32,6.66-2.65,7.95s-5.74-1.82-6.67-5a131,131,0,0,0-28.78-51.47,99.65,99.65,0,0,0-35.74-25,43.89,43.89,0,0,0-10.08-2.64c-3.17-.5-5.74-1.52-5.49-5.09s3-4.71,6.13-4.43a84,84,0,0,1,10.26,1.86,55.76,55.76,0,0,1,5.71,2V1050.29H1252V1398c6.44-.91,12.26-2.25,18.12-2.45,9.27-.32,18.58,0,27.86.34,3,.12,5.55,2.09,5.16,5.55-.43,3.83-3.19,4.63-6.65,4-13.37-2.43-26.51-.46-39.63,2.08-21.92,4.25-38.51,16.69-52.19,33.67-1.46,1.81-2.91,3.91-4.85,5-1.59.85-4.79,1.17-5.71.22a6.77,6.77,0,0,1-1.07-6c1-2.62,3.37-4.74,6-8.21-5.35.41-9.7.12-13.72,1.14-24.08,6.12-46.58,15.26-63.18,34.92-2.36,2.79-4,6.24-6.69,8.67-1.61,1.47-4.86,2.7-6.68,2.06-3.32-1.17-3.13-4.61-1.33-7.15,3.45-4.88,7.27-9.5,11-14.19,1.1-1.37,2.37-2.61,4-4.41ZM1243.14,1336v-5c0-37.17-.16-74.33.14-111.49a25.26,25.26,0,0,0-5.76-16.85c-22.6-28.78-51.15-49.88-83.9-65.63-19.67-9.45-40.48-15.3-62-18.78-2-.33-4-1.28-5.89,1.7-10.1,15.64-19.74,31.72-31.26,46.29-24.17,30.56-54.43,52.71-92.93,62.31-34.5,8.61-68.55,9.22-101.91-5-.2-.09-.56.18-.85.29-.14.3-.39.6-.39.9q-.06,66,0,132a5.19,5.19,0,0,0,2.77,3.84c11.91,4.29,23.79,8.71,35.91,12.31,25.1,7.44,51.06,9.58,77,11.21,62.09,3.91,123.94,2.81,185-11.12,26.13-6,51.46-14,73.49-30.08C1235.76,1340.55,1239.14,1338.58,1243.14,1336Zm-.21-276.8H858.68v124.24c7.61-6.07,14.61-11.87,21.84-17.37,48.52-37,102.77-58.77,164.24-60.22,77.9-1.85,143.11,26.16,195.09,84.47.79.88,1.72,1.64,3.08,2.92Zm.21,289.65c-13,6.86-25.15,14.63-38.29,20-35.65,14.53-73.29,21-111.44,24.1a777.92,777.92,0,0,1-130.32.14c-32-2.75-63.56-7.27-93.71-19-3.37-1.31-6.76-2.55-11-4.16,0,5.74-.31,10.86.15,15.91.19,2.09,1.52,4.89,3.21,5.9,19.43,11.67,33.63,28.12,44.35,47.79,1.63,3,3.46,4.22,7,4.21q109-.15,218-.16a18.35,18.35,0,0,0,7-1.9c11.42-5,22.67-10.41,34.2-15.12,9.91-4,20.5-4.43,31-3.39,3.21.32,5.06-.63,7.43-2.47,6.56-5.09,12.83-11.59,20.36-14.1,11-3.65,13-9.87,12.31-20.14C1242.46,1373.73,1243.14,1360.9,1243.14,1348.83Zm-166.35-232.41c-5.1-.38-9.07-.88-13-.85a5.06,5.06,0,0,0-3.62,2.26c-2.64,4.43-4.77,9.16-7.41,13.58-12.57,21.06-31,36.39-50.21,50.91-37.92,28.62-80.44,32.88-125.43,23.61-6.23-1.29-12.16-4-18.74-6.23a48.4,48.4,0,0,1,0,6.17c-.63,4.58.81,7.48,5.53,8.88,4.29,1.27,8.27,3.65,12.59,4.75,47.47,12.14,91.83,4.22,132.17-23,28.13-19,48.23-45.67,65.34-74.64C1074.83,1120.39,1075.56,1118.78,1076.79,1116.42Zm-183.64,51.87c8.6,6.47,16.46,13,27.45,10.78,13.78-2.76,27.08-7.1,39-14.8,13.24-8.55,17.59-20.5,13.32-36.57C944.38,1137,918.23,1150.76,893.15,1168.29Z" transform="translate(0 -385)"/><path d="M1319.46,895.8H925.35V501.29h394.11ZM933.82,767a13.42,13.42,0,0,0,1.62.36c2.33,0,4.67,0,7,.07,39.2,1.56,73.52,13.62,98.27,46,1.92,2.52,3.61,1.92,6,1.29,24.62-6.52,47.5-2.84,68.54,11.78a6.57,6.57,0,0,0,4.86.48,56.89,56.89,0,0,1,32.07.32c3.65,1.11,5.53.41,7.95-2.38,17.5-20.17,40.42-26,63.39-16.05,3.41,1.47,5.35,1.2,8.14-1.33,18.06-16.4,38.35-28.8,62.82-33,5.19-.9,10.54-.91,16.13-1.36V592.06c-1.52-.28-2.95-.62-4.4-.81-14.47-1.84-27.34-7-37.79-17.57-1-1-3.63-1.23-5.12-.7-22.41,7.88-42.92,5-61.47-10.24a7,7,0,0,0-4.82-1.4c-11.38,1.44-22.68,3.92-34.09,4.59-35.4,2.06-70-1.09-101.76-18.9-1.09-.6-3.86.1-4.78,1.13-15.43,17.3-34,25.74-57.52,21.5a10.57,10.57,0,0,0-7.21,1.93c-16.08,11.66-33.71,18-53.78,16.51a33.62,33.62,0,0,0-4,.16Zm376.75,119.81V783.36c-35.44-3.6-83.77,31.13-101,68.36a71.49,71.49,0,0,1,8.22,3.51c3,1.72,6.11,3.59,8.36,6.12,1,1.17.86,4.54-.12,6-.68,1-3.71.61-5.65.46-.85-.06-1.61-1.1-2.43-1.68-9.37-6.68-19.53-8-29.64-2.61-6.52,3.47-12.29,8.4-18.19,13-2.51,1.94-4.84,4.26-7.78,1.6s-1.32-5.43.88-7.83c7.59-8.26,16.57-15,27.44-17.41,6.64-1.48,9.64-4.88,12.81-10.17,5.08-8.5,11.2-16.37,16.88-24.5-19.72-10.9-43.93-1.15-54.58,15.55.71.62,1.5,1.23,2.2,1.93,2.16,2.14,3.2,5,.58,6.86-1.45,1-5,1-6.51-.11-13.66-9.45-28.26-9.93-43.4-4.89-5,1.68-9.73,4.28-14.59,6.45-2.76,1.23-5.79,1.27-6.66-1.84-.48-1.72,1-4.52,2.43-6.1s4-2.52,6.59-4c-11.15-6.37-22-10.9-34.16-10.81-13.71.1-27.5.4-37.73,12-.89,1-4.48,1.05-5.61.1s-1.66-4.14-.93-5.57c1.39-2.72,3.86-4.88,5.89-7.28-16.24-27-68.89-49.58-100-42.8V886.85Zm-.08-304.58V509.83H934V578a58.91,58.91,0,0,0,38.22-5.93c7.27-3.85,13.83-9.14,20.4-14.18,4.38-3.36,5.83-3.41,9.33.72a7.7,7.7,0,0,0,4.61,2.08c19.41,2.48,32.85-7.49,44.82-21.25-.87-1-1.4-1.59-2-2.19-2.38-2.54-4.86-5.42-1.63-8.6s6.09-.5,8.43,2c6.07,6.48,13.69,10.33,21.68,13.93a134.12,134.12,0,0,0,42.4,10.84c33.88,3.31,67.31,3.27,98.6-13,3-1.54,6.1-1.87,7.67,1.71s-1,5.54-3.94,6.91c-4,1.9-8,3.71-12,5.54.27.7.3,1.11.51,1.27,15.1,11.22,31.5,12.48,48.79,6.17,1.15-.42,1.8-2.09,2.81-3,1.23-1.19,2.64-3.16,3.9-3.11a6.63,6.63,0,0,1,4.66,2.9C1279.83,576,1294.35,580.12,1310.49,582.27Z" transform="translate(0 -385)"/><path d="M1934.65,578.94c2.86,4,5.3,7.31,7.67,10.69,2,2.89,3.75,6.2.1,8.75s-6.15-.25-8.18-3.12c-20.26-28.66-45.92-50.77-78.33-64.73-28-12.06-56.52-14.41-85.63-4.14-1.25.44-2.77,1.32-3.79,1-2-.71-4.5-1.79-5.22-3.42-.53-1.22,1-4.12,2.37-5.21,1.88-1.46,4.53-2,6.9-2.74,34.14-11.12,66.65-5.92,98.2,9.66a190.47,190.47,0,0,1,60.26,47c4.82-5.46,11.34-5,17.51-5.07,25.12-.24,48.66,6,69.46,20,9.64,6.52,19,8,30.11,6.12,16.72-2.88,33.62-4.93,50.68-2.76,24.12,3.07,45.51,12.27,63.82,28.37,2.46,2.17,4,4.9,1.49,7.81-2.81,3.2-5.77,1.48-8.3-.72-17-14.77-36.75-23.94-59.06-25.53-14.15-1-28.52.92-42.77,1.8-5.46.34-10.87,1.59-16.33,2.11-8.06.76-15-2.36-21.41-6.86a114.47,114.47,0,0,0-48.34-19.16c-7.19-1.15-14.57-1.28-21.88-1.46C1941.1,577.2,1938.19,578.27,1934.65,578.94Z" transform="translate(0 -385)"/><path d="M432.1,507.72c-29.58,1-56-6.9-78.14-27.18-.49-.45-1-.88-1.47-1.35-2.49-2.43-5.08-5.14-1.93-8.5s6.13-1,8.65,1.33c14.72,13.66,31.81,22.49,51.86,24.73a189.4,189.4,0,0,0,70.32-5.3,202.45,202.45,0,0,1,23.46-4.56c7.21-1,13.92,1.22,19.81,5.4,24.33,17.26,51.88,26.34,80.92,30.94,18.41,2.92,36.84,1.11,54.95-3.66,8.2-2.16,16.55-3.76,24.86-5.49,3.25-.68,6.77-.82,7.57,3.42.76,4-2.22,5.6-5.56,6.32-13.5,2.92-26.94,6.2-40.54,8.53a136.91,136.91,0,0,1-52.59-1.05c-26.92-5.84-52.56-14.75-75.23-30.92-6.66-4.74-13.95-4.48-21.54-2.83-14.3,3.11-28.58,6.34-43,8.81C447.17,507.61,439.58,507.32,432.1,507.72Z" transform="translate(0 -385)"/><path d="M1362.84,1137c11.88-10.66,23.21-10.49,34.31.42a59.15,59.15,0,0,1,7.8,9.62c1.69,2.56,1.64,5.64-1.44,7.4s-5.12-.11-7.07-2.59a60.52,60.52,0,0,0-8.67-9.53c-6.5-5.38-13-4.19-17.89,2.7-3.7,5.22-7.38,5.58-12,1.39-10.55-9.62-22.21-14.93-36.85-10-1.67.57-4.19-1.39-6.31-2.18.81-2.11,1-5.14,2.55-6.17,6.33-4.24,13.63-3.93,20.75-2.68A52.74,52.74,0,0,1,1362.84,1137Z" transform="translate(0 -385)"/><path class="cls-1" d="M2012.2,1444.65c0-39.89-.1-79.5.07-119.1,0-9.15,1.07-18.29,1.54-27.44,1.15-22.51-7.72-40.16-24.1-55.63-16.65-15.73-36-20.38-57.71-19.72-7.32.23-14.65.59-22,.75-12,.26-24,.37-35.94.63-3.23.07-5-1.09-5.14-4.52-.63-15.79-1.39-31.58-1.89-47.38,0-1.33,1.17-3.12,2.33-4,38.2-29.71,58.86-70.11,71.2-115.78,11-40.62,12.53-81.85,9.29-123.5-.42-5.46-2.72-9.65-6.62-13.49-26.76-26.45-59.77-39.11-96.29-44.53-31.08-4.6-61.32-1.72-90.26,10.36-17.79,7.42-35,16.27-52.24,24.92-4.85,2.42-8.88,6.44-13.37,9.59-5.84,4.09-8.33,10.09-8.26,16.74.27,23,.68,46,1.61,68.92,1.47,36.08,10,70.9,20.68,105.16a96,96,0,0,0,13,26.19c7.64,10.84,16.92,20.52,25.59,30.62a14.84,14.84,0,0,0,4.94,4.16c8.23,3.49,9.17,9.83,8.39,17.77s-.45,16-.34,24c0,3.37-.94,4.87-4.5,4.75-17.79-.62-35.59-1.44-53.39-1.57-19.87-.16-39.67.91-58.36,8.78a26.53,26.53,0,0,0-8.06,4.92c-19.74,19-32.65,41-27.52,69.75,1.89,10.63-.19,20.86-1.53,31.27q-7.15,55.5-13.81,111.07c-.63,5.3-2.39,6.77-7.66,6.74q-65-.32-130,0c-4.44,0-5.56-1.21-5.56-5.6q.17-344.75,0-689.48c0-5,1-6.44,6.26-6.44q344.49.21,689,0c5,0,6.36,1.19,6.36,6.32q-.21,344.49,0,689c0,4.62-.92,6.25-5.93,6.23-41.49-.21-83-.12-124.49-.13C2016,1444.91,2014.58,1444.77,2012.2,1444.65Z" transform="translate(0 -385)"/><path class="cls-1" d="M1857.8,1175.71c0,11.83-.23,22.8.1,33.75a110.57,110.57,0,0,0,2.11,15.83c1.1,6.25,3.41,8.53,9.75,8.5,17-.07,33.93-.67,50.9-.79q14.73-.11,29.45.65c14.61.73,25.23,9.2,35.43,18.63,13.4,12.38,19.62,27.59,18.28,45.61-3,40.95-1.81,81.91-1,122.87.14,7.79,0,15.58,0,24.13-8.66,0-18.09.11-27.51-.18-.9,0-2.28-2.49-2.49-4-3.72-26.56-7.4-53.13-10.85-79.72-1.86-14.36-3.1-28.8-5-43.14-.35-2.51-2.81-4.74-4.3-7.1-2.19,1.44-5.14,2.39-6.45,4.4-11.45,17.63-16.05,37.35-15.2,58.06.86,21.12,3,42.19,4.67,63.27.68,8.4.85,8.39-7.61,8.39-34.66,0-69.31,0-104-.09-1.91,0-5.41-1.38-5.44-2.22-.12-3.06-2.82-7.55,3.26-8.68,1.21-.23,3-2.77,2.79-4-.25-1.59-2-3.86-3.43-4.17-3.36-.72-3.66-2.57-3.62-5.36.11-8.62,0-17.23,0-26,1.46-.22,2.42-.09,3-.5,1.84-1.29,3.54-2.77,5.29-4.18-1.39-1.65-2.53-4.34-4.22-4.74-3.64-.87-3.78-2.91-3.65-5.82.42-9,.5-18,1.13-27,.13-1.8,2.06-3.5,3.26-5.18s3.39-3.08,3.25-4.42c-.18-1.63-2.41-3-3.64-4.56-.86-1.11-2.18-2.38-2.18-3.57,0-9.66-.82-19.53.93-28.9a41.61,41.61,0,0,0,.13-15.77,103,103,0,0,1-.17-31.84c.87-5.9,1.41-10.75.12-16.82-1.86-8.79-1-18.25-.59-27.39.15-3.72,4-8.89,2.67-10.73-2.9-3.86-2.74-7.53-2.91-11.57-.1-2.37.24-3.81,3.09-4.66,10.48-3.15,20.82-6.75,31.21-10.17C1855,1176.47,1855.59,1176.32,1857.8,1175.71Zm17.3,229.18c8.56-.05,16.42-6.9,16.35-14.25-.07-8.22-7.58-15.18-16.15-15-7.63.19-15.43,8.18-15.32,15.7C1860.09,1398.7,1867.06,1404.93,1875.1,1404.89Z" transform="translate(0 -385)"/><path class="cls-1" d="M1670.79,1297.49a7.11,7.11,0,0,1,1.81.43c2.8,1.76,5.74,2.67,7.87-.63,2.25-3.51-.47-5.73-3-7.29-3.94-2.41-4.64-5.53-4.44-10,.48-10.92.15-21.88.15-33.51a3.53,3.53,0,0,0,2-.77c1.22-1.17,2.87-2.74,2.84-4.12s-1.83-4-2.84-4c-6.38,0-6.54-4.92-7.9-9-.32-.94-.68-1.86-1.28-3.49,2-.4,3.61-.8,5.3-1.07,15.09-2.43,30.2-1.45,45.36-.67,15,.77,29.94.65,44.91.79,4,0,5.34-2.69,5.26-7.3-.21-12.78-.07-25.58-.07-38.65a24.79,24.79,0,0,1,3.12.22c12.45,2.94,24.91,5.82,37.3,9a5.66,5.66,0,0,1,3.34,3.64,25.21,25.21,0,0,1,.12,8c-.13,1.24-1,3-1.94,3.44-2.7,1.1-6.22,2-5.27,5.36.6,2.18,3.77,3.66,5.79,5.45l1.89-.91c0,9.41.06,18.83-.12,28.25,0,.8-1.78,1.51-2.61,2.37-1.2,1.22-3.11,2.5-3.2,3.85s1.29,3.81,2.57,4.27c3.33,1.21,3.45,3.45,3.43,6.29-.09,10.66,0,21.32,0,32,0,2.18.28,4.06-3,4.7-1.94.38-3.5,2.71-5.23,4.17,1.83,1.57,3.61,3.19,5.51,4.67.46.36,1.26.27,2.3.46,0,5.8.06,11.57,0,17.33-.07,5-.41,10-.39,15,0,2.8-.8,4-3.83,4.54-1.86.36-3.3,2.94-4.94,4.52,1.58,1.44,3,3.78,4.77,4.12,3,.58,3.36,2,3.26,4.43-.35,9.15-.47,18.32-1,27.46-.09,1.67-1.45,3.47-2.65,4.84-2.28,2.59-2.57,4.69.11,7.29a7.8,7.8,0,0,1,2.27,4.88c.21,7.49,0,15,0,22.48,0,2.73-.2,4.62-3.44,5.62-1.57.48-3.52,3.07-3.45,4.62s2.49,3.62,4.13,3.89c5.81.94,2.69,5.26,3.16,7.92.61,3.5-2.58,2.66-4.54,2.66q-61,0-122,0h-10.08c.24-3.76.41-7,.65-10.24q2.13-28.41,4.28-56.8c1.43-18.83-1-36.92-10.39-53.64-1.65-2.94-1.7-5.66-.56-9C1668.08,1309.62,1669.22,1303.71,1670.79,1297.49ZM1732.91,1404c8.45,0,15.67-6.65,15.56-14.26-.13-8.5-8-16.75-16-16.81-8.65-.06-16.43,7.6-16.35,16.09C1716.2,1397.17,1723.93,1404.07,1732.91,1404Z" transform="translate(0 -385)"/><path class="cls-1" d="M1815.06,896.6c-1.29.17-2.47,0-3.14.48-1.6,1.18-4,2.6-4.12,4.09s1.89,4.3,3.35,4.58c4.08.8,4.32,3.16,4.26,6.46-.15,8.64-.05,17.27-.05,26.21-1.14.18-2.24.06-2.95.54-1.64,1.1-4.19,2.39-4.33,3.8s1.83,4.47,3.23,4.71c4.46.76,4.51,3.48,4.46,6.88-.1,9.13,0,18.27,0,27.63-.92.23-2.06.21-2.74.76-1.43,1.17-3.55,2.57-3.65,4s1.57,4.07,3,4.46c3.92,1.12,4,3.65,4,6.85-.21,10.33-.29,20.65-.33,31,0,2.47.06,4.39-3.29,5-1.29.23-3,2.8-3,4.35-.1,3.05-1.49,7.21,2.92,8.55,3.27,1,3.33,3,3.23,5.68q-.69,17.73-1.1,35.46c-.07,2.72-.17,4.77-3.73,5.19-1.3.15-3.17,2.32-3.27,3.67s1.38,3.79,2.66,4.19c3.83,1.2,4,3.7,3.75,6.94-.28,3.81-.21,7.65-.29,11.48-.06,3.24.69,6.44-4,7.78-3,.83-2.9,5.29.22,7.34s3.23,4.55,3.06,7.67c-.41,7.31-.68,14.64-.87,22-.06,2.53-.23,4.26-3.44,4.9-3.92.78-3.69,4.07-2.45,8.1-5-.84-9.66-1.14-14-2.43-9.4-2.82-18.82-5.71-27.9-9.38s-15.81-10.73-22.4-18c-15.79-17.32-26.18-36.93-32.51-59.8-14.27-51.51-18.2-103.83-16.69-156.85a8.21,8.21,0,0,1,2.93-5.77c9.26-6.46,18.32-13.44,28.29-18.6,24-12.42,48.9-22.84,76.06-26.5,14.76-2,14.75-2.05,15,12.48C1815.08,893.76,1815.06,895.05,1815.06,896.6Z" transform="translate(0 -385)"/><path class="cls-1" d="M1822.59,1177.19c0-12.7-.11-24.64.15-36.58,0-1.31,2.21-2.55,3.35-3.86,1.32-1.51,3.41-3,3.6-4.65.14-1.21-2.07-3.57-3.56-3.9-3-.66-3.13-2.31-3-4.67q.33-7,.38-14c0-4.13-.39-8,4.68-10.26,3.2-1.44,2.64-5.78-.85-7-3.27-1.11-3.35-3-3.24-5.63.4-9.49.57-19,1.08-28.47.1-1.78,1.34-3.5,2-5.24a43.1,43.1,0,0,0,1.6-4c.53-1.83.53-3.91,1.39-5.55,1.6-3.09.49-4.8-2-6.71-1.39-1.07-2.8-3.13-2.83-4.77q-.26-18,.19-36c0-1.53,1.62-3.06,2.62-4.51,1.13-1.67,3.22-3.18,3.34-4.87.09-1.24-2.4-2.59-3.58-4-1-1.21-2.5-2.6-2.54-3.94-.26-9.16-.36-18.33-.11-27.49,0-1.64,1.61-3.67,3-4.75,3.89-2.92,4-6.54-.54-8.24-2.75-1-3-2.59-3-4.88,0-7.83-.26-15.67,0-23.49.06-1.73,1.69-3.44,2.69-5.1s3-3.36,3.07-5.07c0-1.26-2.47-2.52-3.74-3.87a38.28,38.28,0,0,1-2.42-3.09c-.08-.11,0-.33,0-.5.34-15.62-3.14-13.62,12.73-12.19,22.4,2,44,7.43,64.28,17.42,13.6,6.69,25.23,16.13,36.08,26.56a8.06,8.06,0,0,1,2.3,4.72c5.37,62.63-1.49,123.11-31.78,179.44a159.74,159.74,0,0,1-43.06,50.69C1852.67,1168.36,1838.33,1174.24,1822.59,1177.19Z" transform="translate(0 -385)"/><path class="cls-1" d="M1659.55,1237.06c-1.2.38-2.42.4-3,1-1.38,1.42-3.54,3.25-3.38,4.69s2.79,3.85,4.23,3.78c5.07-.26,5.75,2.7,5.9,6.47.29,7.48.69,15,.69,22.43,0,1.32-1.42,3.14-2.68,3.86-3.74,2.12-4.19,4.93-1.46,7.68,2.56,2.59,2.52,5.14,1.69,8.17-1.83,6.64-2.1,13.66-6.76,19.55-1.93,2.44-1.71,6.66-2.29,10.09q-9,52.93-17.91,105.87c-.8,4.68-.49,11.15-3.36,13.42s-9.23.78-14,.82c-6,0-11.9,0-18.23,0,.76-9.11,1.12-17.56,2.22-25.92q6.34-48.54,13.13-97c1.36-9.64,1.83-19.12.23-28.81-2.39-14.53.21-28.18,8.86-40.4,2.6-3.67,4.69-7.85,7.85-10.94,4.69-4.58,9.68-9.19,15.34-12.36C1655.53,1224.44,1658,1226.13,1659.55,1237.06Z" transform="translate(0 -385)"/><path class="cls-1" d="M1948.36,1335.47c5.06,36.18,10.11,72.35,15.3,109.43-5.8,0-10.58.15-15.33-.14-.86,0-2.23-1.88-2.31-3-1.82-25.08-3.81-50.15-5.06-75.26-.53-10.65,2.56-21,5.78-31Z" transform="translate(0 -385)"/><path class="cls-1" d="M1642.23,1444.53l19.47-105.78,1-.44c1.35,5.31,3.56,10.58,3.85,16a295.89,295.89,0,0,1,0,33.43c-1.15,18.91-3.06,37.78-4.67,56.84Z" transform="translate(0 -385)"/><path class="cls-1" d="M721.52,668.65v776.64h-5.58c-42.83,0-85.66-.07-128.49.11-4.61,0-5.56-1.36-6-5.8-2.15-22.35-3.9-44.81-7.59-66.93-3.08-18.46-13.73-32.2-32-39.08-7.15-2.68-14.08-6-21-9.37a7.47,7.47,0,0,1-3.61-4.6,51.53,51.53,0,0,1-.6-11.45,6.75,6.75,0,0,1,2.21-4.08c16.68-15.55,31.45-32.51,41.57-53.26A92.63,92.63,0,0,0,570,1203.9c-.33-5.48-.87-11-1.11-16.43a5.78,5.78,0,0,1,1.18-3.54c9.21-11.7,11.47-24.84,8.33-39.16-.47-2.11-.7-4.28-1.27-6.36-1.28-4.68-1.59-8.84.65-13.76,1.76-3.88,1.71-9.35.63-13.65-5.88-23.2-10.66-46.73-22.28-68.19-3.48-6.42-7-10.25-14-13-27.73-10.78-56-18.31-85.91-19.1-44.09-1.16-85,10.36-123.55,31.19a70.06,70.06,0,0,0-13.28,9.65,13.92,13.92,0,0,0-4.07,7.74c-1.55,10.68-3.19,21.42-3.63,32.19a354,354,0,0,0,22.25,139.74c12.22,32.72,31.79,60.25,59.33,82,5,3.91,5.1,10.76-.36,14.26a99.87,99.87,0,0,1-17,8.32c-6.18,2.47-12.65,4.17-19,6.27-24.43,8.15-37.31,25.6-39.1,50.8-1.08,15.25-.38,30.63-.48,46,0,2,0,3.92,0,6.18H152.12V668.65ZM430.21,817.3c.86,3.4,1.58,6.63,2.49,9.81q15.54,54.23,31.11,108.46c2.16,7.57,9.64,10.83,16.5,6.94,9.59-5.44,11.74-11.14,8.4-21.61Q471,865.25,453.22,809.59a7.67,7.67,0,0,1,1.27-7.73A59.24,59.24,0,0,0,466,769.35a25.18,25.18,0,0,0-1.25-9.29c-1.56-4.49-6.1-5.88-9.62-2.77-3.9,3.45-6.14,1.33-7.87-1.71a20,20,0,0,1-2.1-7.57c-.69-6.33-3.3-11.65-8.44-15.25-2.17-1.51-6.5-3.09-7.76-2.07-2.18,1.77-2.85,5.51-3.89,8.51-.27.78.74,1.94.62,2.85-.27,2.13-.24,5.3-1.51,6s-5.07.22-6.11-1.08a59.46,59.46,0,0,1-7-11.79c-1.91-4-2.75-8.61-4.88-12.5-1-1.77-4-3.55-5.92-3.36s-4.3,2.56-5.06,4.53a49,49,0,0,0-3,12.58c-.56,5.35-1.66,11.19-.15,16.09a96.48,96.48,0,0,1,4.37,31.89C395.65,806.16,408,817.94,430.21,817.3ZM538.65,951.24c-2.1-2.2-3.36-4.6-5.09-5-1.45-.34-3.85,1.29-5.08,2.7a16.41,16.41,0,0,0-3.45,6.53c-.41,1.64,0,4.27,1.06,5.25s4.39,1.31,5.22.46C534,958.45,536,955,538.65,951.24Zm-17.74-9.19c-1-.76-2.52-2.75-4.49-3.33-2.51-.74-8.91,7-8.22,10.4a7.1,7.1,0,0,0,4.55,4.51C515.83,954.29,520.84,947.64,520.91,942.05ZM376.44,694.1c-1.25-.67-3.12-2.42-5.14-2.6-3.33-.31-8.05,4.56-7.24,7.43a7,7,0,0,0,4.38,4.18C371.49,703.74,376.67,698.43,376.44,694.1Z" transform="translate(0 -385)"/><path class="cls-1" d="M571.89,1445.08H538.46c0-6.76,0-13.34,0-19.91,0-1.66.32-3.32.44-5,.22-3-.82-6-4-5.7-2,.17-4.94,2.7-5.28,4.57-1,5.36-1,10.91-1.1,16.39-.07,3,.32,6,.54,9.39H390.78c0-7.29.08-14.41,0-21.53-.07-5.16-.42-10.32-.58-15.48-.1-3.32-1-6.27-4.89-6.17s-4.83,3.22-4.77,6.41c.13,7.49.56,15,.75,22.48.11,4.64,0,9.28,0,14.33H327.79c-.17-.23-.55-.49-.55-.75.23-18.47-.53-37,1-55.39,1.55-18.12,12.32-30.45,29.59-36.75,11.73-4.28,23.67-8.06,35.06-13.11s14.69-12,12.93-24.09a10.31,10.31,0,0,0-3.29-6.27c-37.5-28.44-58-67.22-69.65-111.88-10.8-41.45-13.88-83.32-10.35-125.88.74-8.86,4.8-14.69,12.25-19,27.21-15.72,56.51-25.3,87.49-29.65,41.42-5.82,80.94,1.76,119,18.28,2.15.93,4,3.37,5.22,5.54,9,16.13,14.77,33.45,18.54,51.5,1.15,5.54,3.06,10.92,4.15,16.47.56,2.88.1,6,.1,9.7-10.16-5.94-18.76-11.26-27.63-16.09-19.29-10.49-39.79-15-61.73-11.73a73.8,73.8,0,0,0-41.17,19.88,142.63,142.63,0,0,0-31.27,43c-7.46,15.91-3.66,28.65,12.8,35.06,12.25,4.77,25.65,8.67,38.64,9,25.58.72,51.27-.85,76.85-2.41,7.92-.49,15.64-4,23.76-6.25,2,15.82,1.39,32-5.42,47.5-10.07,22.89-25.78,41.47-44.64,57.51-3,2.51-6.92,3.88-10.5,5.61a28.42,28.42,0,0,1-4.78,1.45c-3.29.92-6.39,2.37-5.17,6.45s4.65,3.65,7.89,2.77,6.34-1.85,9.71-2.85c.35,3.12.74,5.91,1,8.71.5,6.47,4.31,9.91,10.06,12.32,9.51,4,18.86,8.39,28.16,12.84,7.65,3.65,12.4,10.18,15.18,17.84,2.55,7,5,14.27,5.84,21.61,2.17,18,3.43,36.14,5,54.22C572,1441.55,571.89,1443,571.89,1445.08Zm-79.54-163.79c15.34-.89,27.72-5.4,38.63-13.52,7-5.24,10-14.9,5.72-20.68-8.84-11.91-19.58-22.14-35.81-21-17.24,1.2-31,10-42.34,22.79a14.48,14.48,0,0,0-1.78,3c-5.75,11.23-1.14,22.34,11.11,25.29C476.42,1279.22,485.23,1280.13,492.35,1281.29Z" transform="translate(0 -385)"/><path class="cls-1" d="M441.39,1126.69c10.72,5.76,22,6.5,33,4.47a166.09,166.09,0,0,0,30.93-9.47c5-2,9.34-6.26,13.35-10.14,2.09-2,3.57-2.63,5.91-1.32,13,7.34,26.1,14.63,39,22.15a8.29,8.29,0,0,1,3.24,4.75,103,103,0,0,1,2.85,14.71c1.8,17.4-6.18,30.35-22.73,36a71.91,71.91,0,0,1-19,3.74c-19.62,1.13-39.31,2.58-58.92,2.05-13-.35-25.91-3.87-38.86-6a16.16,16.16,0,0,1-3.29-1.17c-13.68-5.56-16.29-12.27-9.82-25.41A131.17,131.17,0,0,1,441.39,1126.69Z" transform="translate(0 -385)"/><path class="cls-1" d="M490.89,1105.5c-9.86,7.18-21.27,8.55-33,8.63A52.24,52.24,0,0,1,490.89,1105.5Z" transform="translate(0 -385)"/><path class="cls-1" d="M2845.94,989.61c-9.31-1.93-18.17-4.44-27.19-5.51-17.38-2.05-33.26,3-48.13,11.82a13.44,13.44,0,0,1-6.85,1.68c-21.05-.59-39.33,5.42-52.27,22.81-5.2,7-11.44,10.32-19.87,11.6-11.71,1.76-22.47,6.23-30.83,15.15-9.18,9.8-9.21,20.83-.13,30.77,12.36,13.53,31.91,17.87,50.54,10.09,7.71-3.22,14.32-2.89,22-.39,18.42,6,37.29,8.76,56.63,4.48a25.11,25.11,0,0,1,6.92-.82c16.81,1.12,33.27.1,49.17-7.76v236.69c-7.85-1.57-15.45-3-23-4.63-23.13-4.91-46.29-9.68-69.34-14.93a239.79,239.79,0,0,1-31.15-8.88c-15.3-5.76-25.21-16.54-26.64-33.63-.73-8.62-1.43-17.24-2-25.88-.45-7.4-2.3-9.2-9.49-10.11-70.79-9-141.95-8.69-213.1-8-15.63.15-31.25,1.69-46.87,2.63a29.5,29.5,0,0,0-4.93.82c-5.79,1.37-9.61,4.18-10.5,10.84-1.19,8.89-3.2,17.69-5.2,26.46-1.9,8.31-6.24,14.37-14.48,18.4a183.28,183.28,0,0,1-49.22,16c-18.86,3.32-37.57,7.47-56.35,11.26-2.11.42-4.21.86-6.75,1.38V1139c3.37.36,6.48,1.11,9.53.94,10.29-.56,20.59-1.14,30.82-2.3,10.67-1.2,21.12-1.83,31.65,1.43,16.21,5,32.15,3.88,47.86-2.86,3.59-1.55,8.14-1.37,12.22-1.19,11.2.49,22.19-.69,32.07-5.93a45.53,45.53,0,0,0,14.81-12.11c9.86-13.07,6.19-29.38-7.75-38-7.66-4.71-16.13-6.94-25.06-7.82a10.74,10.74,0,0,1-6.46-2.82c-17.35-19.09-39.09-27.11-64.49-25.93-3.12.15-4.77-1-6.57-3.31-14.74-18.75-33.87-27.37-57.8-24.76-3.14.34-6.31.48-9.47.68a6.38,6.38,0,0,1-1.45-.42c-.09-1.58-.28-3.35-.28-5.11q0-166.72-.1-333.46c0-4.48,1.08-5.89,5.8-5.89q279.21.2,558.42.11h5.22ZM2438.55,880.15c.14.65.27,1.29.4,1.94-9.41,4.41-18.78,8.89-28.23,13.18-3.66,1.67-6.78.26-10.27-1.61-4.7-2.52-10-3.93-15.19-5.49-2.68-.81-5.59-.84-8.37-1.35-3.21-.6-5.3-2.24-6-5.73-1.23-5.75-4.78-9.52-10.79-10.29-5.74-.74-8.16,3.69-10.68,7.57-5,7.66-10,15.31-14.64,23.21a109.57,109.57,0,0,0-7.75,16.17c-2.75,7.25,1.41,13.52,9.14,13.2,3.8-.16,8-2.06,11.15-4.36,8.8-6.45,17.55-11.46,28.61-5.49a15.58,15.58,0,0,0,2.8,1.08c29.21,9.17,25.08,13.1,57.45-1.49,10.54-4.75,21.42-5.21,32.75-4.43,10.74.73,21.57.33,32.35.27,4.33,0,8.65-.66,13-.58a15.87,15.87,0,0,1,6.61,1.69c16.47,8.35,32.85,16.88,49.28,25.31a98.4,98.4,0,0,0,43.75,10.78c12.58.25,23.51-4.63,33.54-11.31,8.24-5.48,6.89-14.62-2.2-18.15-6.79-2.63-13.78-4.76-20.87-7.18,2.94-5.36,7.29-3.75,11.08-3.78,10.88-.08,14-2.66,15.09-13.5a73.82,73.82,0,0,0-4.94-35.3c8.74-.47,11.22.86,15.11,7.86a41.58,41.58,0,0,0,3.27,5.6c3.68,4.74,10.43,6.06,13.94,1.8,4-4.89,9.1-6.69,14.6-8.7,10.18-3.69,11.93-14.49,3.52-21.24a40.4,40.4,0,0,0-10.4-5.79c-9.6-3.8-19.15-7.91-29.08-10.61-12.85-3.49-25.88-4.57-38.39,2.33-13.26,7.32-27,13.82-40,21.5-17.94,10.59-35.76,11.86-55.42,4.4-16.11-6.11-33.06-10.32-50.8-8.87a34.79,34.79,0,0,1-11.32-1.48c-24.72-6.47-45.5-20-64.72-36.32-5.6-4.74-11.32-7.88-19.09-5.1-4,1.43-8.48,1.56-12.73,2.39-7.33,1.43-14.77,2.52-21.94,4.56-6,1.7-8.11,7.83-4.07,12.21,7.57,8.2,15.52,16.71,28.42,14.43,11.61-2.06,20.87,1.78,28.78,10,2.19,2.28,4.75,4.19,7,6.36a64.54,64.54,0,0,0,24.1,14.71C2430.56,876,2434.49,878.27,2438.55,880.15ZM2586.67,782h-.05q0,11.46,0,22.93c0,3.37.5,6.8,4.71,6.83s4.83-3.36,4.84-6.75q.08-23.18.09-46.36c0-3.19-.6-6.39-4.49-6.56-4.21-.2-5.08,3-5.1,6.48C2586.63,766.37,2586.67,774.18,2586.67,782Zm-14.11,14.39h0c0-3.49.57-7.12-.22-10.43-.48-2-2.82-4.7-4.73-5.09-3.12-.64-4.57,2.23-4.62,5.18-.11,6.82-.38,13.68.17,20.46.16,2,2.61,4.93,4.45,5.3,3.38.7,4.82-2.3,5-5.43C2572.68,803.05,2572.56,799.71,2572.56,796.38Zm-242.62,83.68h0c0-3.14.52-6.41-.2-9.37-.44-1.77-2.81-4.15-4.39-4.21s-4.37,2.41-4.49,3.95a121.67,121.67,0,0,0-.09,19.28c.12,1.58,3.08,4.35,4.28,4.13a7.22,7.22,0,0,0,4.72-4.42C2330.51,886.49,2329.94,883.2,2329.94,880.06Z" transform="translate(0 -385)"/><path class="cls-1" d="M2418.65,1231.27c88.38,22,176.52,19.35,264.93,1.51.77,8.16,1.61,15.91,2.2,23.68,1.7,22.4,13.6,37.26,34.29,44.74,11,4,22.63,6.73,34.12,9.36,22.4,5.14,44.9,9.84,67.37,14.64,8,1.71,16,3.21,24.34,4.87v117.22h-5.4q-279,0-558,.08c-4.3,0-6.06-.75-6-5.65q.3-62.23,0-124.49c0-4.24,1.35-5.67,5.39-6.46,24.53-4.74,49-9.82,73.51-14.7,16.23-3.24,31-10.15,45.26-18.18,6.3-3.55,9.57-10.23,11.41-17.1,2.23-8.36,3.79-16.89,5.65-25.35C2418,1234,2418.34,1232.61,2418.65,1231.27Z" transform="translate(0 -385)"/><path class="cls-1" d="M2355.58,1052.43c25.73-2.09,45.15,10.18,60.63,30.52,1.45,1.9,4,3.88,6.19,4,1.59.08,3.34-2.81,5.86-5.17,6.95,1,14.6,3.45,20.17,10,5.85,6.93,3.49,18.77-5,25.07-7.74,5.73-16.78,7.91-26.23,8.43-4.15.22-8.34-.38-12.48-.07-3.92.29-8.11.55-11.62,2.09-13.57,5.93-27.36,7.15-41.4,2.56-12.79-4.18-25.62-3.38-38.51-1.23-10.56,1.75-21.08,3-31.76,1.13-3.43-.6-5-1.73-4.94-5.73q.32-47,0-93.89c0-3.88,1.29-5.06,5-5.67,27.44-4.49,48.26,4.89,62.52,28.91,1.16,2,3.87,4,5.95,4.1C2351.51,1057.59,2353.24,1054.66,2355.58,1052.43Z" transform="translate(0 -385)"/><path class="cls-1" d="M2758.71,1007.65c3.11,5.87,5.46,6.56,9.71,2.71,17.41-15.76,37.65-20.27,60.25-15,4.67,1.09,9.12,3.16,13.8,4.2,3.46.77,3.87,2.61,3.85,5.62-.1,21-.14,42,0,63,0,3.37-1.17,5.06-4,6.5-9.54,4.81-19.67,7-30.28,7.5-10.42.51-20.86.92-31.24,1.92-16.24,1.58-31.92-1-47.12-6.26-8.36-2.88-15.85-3-24.06.71-15.34,7-31.66,4-41.54-6.61-6.06-6.53-6.06-12.37.23-18.8,7.2-7.36,16.53-10.57,26.34-12,9.58-1.38,17.1-5.08,23-13.19C2727.49,1014.27,2741,1006.94,2758.71,1007.65Z" transform="translate(0 -385)"/><path class="cls-1" d="M1243.14,1336c-4,2.6-7.38,4.57-10.53,6.87-22,16.08-47.36,24.12-73.49,30.08-61,13.93-122.87,15-185,11.12-25.95-1.63-51.91-3.77-77-11.21-12.12-3.6-24-8-35.91-12.31a5.19,5.19,0,0,1-2.77-3.84q-.19-66,0-132c0-.3.25-.6.39-.9.29-.11.65-.38.85-.29,33.36,14.25,67.41,13.64,101.91,5,38.5-9.6,68.76-31.75,92.93-62.31,11.52-14.57,21.16-30.65,31.26-46.29,1.93-3,3.85-2,5.89-1.7,21.48,3.48,42.29,9.33,62,18.78,32.75,15.75,61.3,36.85,83.9,65.63a25.26,25.26,0,0,1,5.76,16.85c-.3,37.16-.14,74.32-.14,111.49Z" transform="translate(0 -385)"/><path class="cls-1" d="M1242.93,1059.18v134c-1.36-1.28-2.29-2-3.08-2.92-52-58.31-117.19-86.32-195.09-84.47-61.47,1.45-115.72,23.21-164.24,60.22-7.23,5.5-14.23,11.3-21.84,17.37V1059.18Z" transform="translate(0 -385)"/><path class="cls-1" d="M1243.14,1348.83c0,12.07-.68,24.9.21,37.62.72,10.27-1.34,16.49-12.31,20.14-7.53,2.51-13.8,9-20.36,14.1-2.37,1.84-4.22,2.79-7.43,2.47-10.52-1-21.11-.66-31,3.39-11.53,4.71-22.78,10.13-34.2,15.12a18.35,18.35,0,0,1-7,1.9q-109,.15-218,.16c-3.52,0-5.35-1.21-7-4.21-10.72-19.67-24.92-36.12-44.35-47.79-1.69-1-3-3.81-3.21-5.9-.46-5-.15-10.17-.15-15.91,4.28,1.61,7.67,2.85,11,4.16,30.15,11.7,61.71,16.22,93.71,19a777.92,777.92,0,0,0,130.32-.14c38.15-3.13,75.79-9.57,111.44-24.1C1218,1363.46,1230.15,1355.69,1243.14,1348.83Z" transform="translate(0 -385)"/><path class="cls-1" d="M1076.79,1116.42c-1.23,2.36-2,4-2.86,5.49-17.11,29-37.21,55.69-65.34,74.64-40.34,27.17-84.7,35.09-132.17,23-4.32-1.1-8.3-3.48-12.59-4.75-4.72-1.4-6.16-4.3-5.53-8.88a48.4,48.4,0,0,0,0-6.17c6.58,2.22,12.51,4.94,18.74,6.23,45,9.27,87.51,5,125.43-23.61,19.24-14.52,37.64-29.85,50.21-50.91,2.64-4.42,4.77-9.15,7.41-13.58a5.06,5.06,0,0,1,3.62-2.26C1067.72,1115.54,1071.69,1116,1076.79,1116.42Z" transform="translate(0 -385)"/><path class="cls-1" d="M893.15,1168.29c25.08-17.53,51.23-31.29,79.77-40.59,4.27,16.07-.08,28-13.32,36.57-11.92,7.7-25.22,12-39,14.8C909.61,1181.29,901.75,1174.76,893.15,1168.29Z" transform="translate(0 -385)"/><path class="cls-1" d="M933.82,767V588.26a33.62,33.62,0,0,1,4-.16c20.07,1.45,37.7-4.85,53.78-16.51a10.57,10.57,0,0,1,7.21-1.93c23.52,4.24,42.09-4.2,57.52-21.5.92-1,3.69-1.73,4.78-1.13,31.8,17.81,66.36,21,101.76,18.9,11.41-.67,22.71-3.15,34.09-4.59a7,7,0,0,1,4.82,1.4c18.55,15.29,39.06,18.12,61.47,10.24,1.49-.53,4.14-.29,5.12.7,10.45,10.58,23.32,15.73,37.79,17.57,1.45.19,2.88.53,4.4.81V773.21c-5.59.45-10.94.46-16.13,1.36-24.47,4.2-44.76,16.6-62.82,33-2.79,2.53-4.73,2.8-8.14,1.33-23-9.93-45.89-4.12-63.39,16.05-2.42,2.79-4.3,3.49-7.95,2.38a56.89,56.89,0,0,0-32.07-.32,6.57,6.57,0,0,1-4.86-.48c-21-14.62-43.92-18.3-68.54-11.78-2.37.63-4.06,1.23-6-1.29-24.75-32.37-59.07-44.43-98.27-46-2.33-.09-4.67,0-7-.07A13.42,13.42,0,0,1,933.82,767Zm191.61-113c-24.36.26-46.84,3.46-68.24,12.38-12.11,5.05-23.11,11.75-31.84,21.84-11.8,13.65-12,33.41.41,46.4,6.13,6.39,13.21,12.68,21.08,16.45,49.62,23.7,100,23.62,150.34,2.26a64.61,64.61,0,0,0,27.3-21.28c9.7-13.21,9.61-28.57-.24-41.69-6-8-13.74-14-22.49-18.7C1177.5,658.58,1151.2,654.5,1125.43,654Z" transform="translate(0 -385)"/><path class="cls-1" d="M1310.57,886.85H933.91V777.62c31.1-6.78,83.75,15.81,100,42.8-2,2.4-4.5,4.56-5.89,7.28-.73,1.43-.22,4.61.93,5.57s4.72.92,5.61-.1c10.23-11.63,24-11.93,37.73-12,12.12-.09,23,4.44,34.16,10.81-2.61,1.53-5.08,2.36-6.59,4s-2.91,4.38-2.43,6.1c.87,3.11,3.9,3.07,6.66,1.84,4.86-2.17,9.57-4.77,14.59-6.45,15.14-5,29.74-4.56,43.4,4.89,1.55,1.07,5.06,1.16,6.51.11,2.62-1.89,1.58-4.72-.58-6.86-.7-.7-1.49-1.31-2.2-1.93,10.65-16.7,34.86-26.45,54.58-15.55-5.68,8.13-11.8,16-16.88,24.5-3.17,5.29-6.17,8.69-12.81,10.17-10.87,2.44-19.85,9.15-27.44,17.41-2.2,2.4-3.8,5.18-.88,7.83s5.27.34,7.78-1.6c5.9-4.55,11.67-9.48,18.19-13,10.11-5.39,20.27-4.07,29.64,2.61.82.58,1.58,1.62,2.43,1.68,1.94.15,5,.55,5.65-.46,1-1.45,1.15-4.82.12-6-2.25-2.53-5.36-4.4-8.36-6.12a71.49,71.49,0,0,0-8.22-3.51c17.2-37.23,65.53-72,101-68.36Z" transform="translate(0 -385)"/><path class="cls-1" d="M1310.49,582.27c-16.14-2.15-30.66-6.26-39.28-21.52a6.63,6.63,0,0,0-4.66-2.9c-1.26-.05-2.67,1.92-3.9,3.11-1,1-1.66,2.63-2.81,3-17.29,6.31-33.69,5-48.79-6.17-.21-.16-.24-.57-.51-1.27,4-1.83,8-3.64,12-5.54,2.89-1.37,5.52-3.3,3.94-6.91s-4.71-3.25-7.67-1.71c-31.29,16.29-64.72,16.33-98.6,13a134.12,134.12,0,0,1-42.4-10.84c-8-3.6-15.61-7.45-21.68-13.93-2.34-2.51-5.09-5.28-8.43-2s-.75,6.06,1.63,8.6c.56.6,1.09,1.22,2,2.19-12,13.76-25.41,23.73-44.82,21.25a7.7,7.7,0,0,1-4.61-2.08c-3.5-4.13-4.95-4.08-9.33-.72-6.57,5-13.13,10.33-20.4,14.18A58.91,58.91,0,0,1,934,578V509.83h376.54Z" transform="translate(0 -385)"/><path d="M1875.1,1404.89c-8,0-15-6.19-15.12-13.53-.11-7.52,7.69-15.51,15.32-15.7,8.57-.2,16.08,6.76,16.15,15C1891.52,1398,1883.66,1404.84,1875.1,1404.89Zm.45-8.42,5.72-6.27c-1.74-1.5-4-4.56-5.1-4.18-2.38.85-4.14,3.42-6.16,5.29Z" transform="translate(0 -385)"/><path d="M1732.91,1404c-9,0-16.71-6.86-16.79-15-.08-8.49,7.7-16.15,16.35-16.09,8,.06,15.87,8.31,16,16.81C1748.58,1397.38,1741.36,1404,1732.91,1404Zm-.68-8c2.78-2.75,5.24-4.14,6-6.15,1-2.83-3.18-7.06-6.38-6.91-3.6.17-5.9,2.77-5.37,5.86C1726.82,1391,1729.62,1392.89,1732.23,1396Z" transform="translate(0 -385)"/><path d="M430.21,817.3c-22.25.64-34.56-11.14-33.9-32.85a96.48,96.48,0,0,0-4.37-31.89c-1.51-4.9-.41-10.74.15-16.09a49,49,0,0,1,3-12.58c.76-2,3.19-4.33,5.06-4.53s4.95,1.59,5.92,3.36c2.13,3.89,3,8.46,4.88,12.5A59.46,59.46,0,0,0,418,747c1,1.3,4.69,1.92,6.11,1.08s1.24-3.91,1.51-6c.12-.91-.89-2.07-.62-2.85,1-3,1.71-6.74,3.89-8.51,1.26-1,5.59.56,7.76,2.07,5.14,3.6,7.75,8.92,8.44,15.25a20,20,0,0,0,2.1,7.57c1.73,3,4,5.16,7.87,1.71,3.52-3.11,8.06-1.72,9.62,2.77a25.18,25.18,0,0,1,1.25,9.29,59.24,59.24,0,0,1-11.47,32.51,7.67,7.67,0,0,0-1.27,7.73q17.85,55.62,35.49,111.31c3.34,10.47,1.19,16.17-8.4,21.61-6.86,3.89-14.34.63-16.5-6.94q-15.48-54.26-31.11-108.46C431.79,823.93,431.07,820.7,430.21,817.3Zm26.17-48.18c-13.09.71-18.34-7.06-21.11-17.7-7.2,7.46-12.91,8.9-20.08,5.42s-10.3-10.32-14-17.08c-.59,3.77-1.1,7.55,0,10.75,3.85,10.86,5.95,21.83,4.57,33.36a24.08,24.08,0,0,0,.06,4.49c1.14,15.32,13.85,23.41,28.08,17.57a29.93,29.93,0,0,0,9.9-6.52C451.83,791.2,455.22,780.88,456.38,769.12Zm-12.32,43.44c-3.75.42-4.5,2.17-3.69,5.23,2.5,9.32,4.63,18.75,7.3,28,8.39,29.11,17,58.17,25.48,87.24a6.06,6.06,0,0,0,1,1.53c7-3.67,7.33-4.55,5-11.77-8.92-27.2-17.87-54.39-26.65-81.64C449.42,831.7,446.84,822.08,444.06,812.56Z" transform="translate(0 -385)"/><path d="M538.65,951.24c-2.7,3.8-4.67,7.21-7.34,10-.83.85-4.12.53-5.22-.46s-1.47-3.61-1.06-5.25a16.41,16.41,0,0,1,3.45-6.53c1.23-1.41,3.63-3,5.08-2.7C535.29,946.64,536.55,949,538.65,951.24Z" transform="translate(0 -385)"/><path d="M520.91,942.05c-.07,5.59-5.08,12.24-8.16,11.58a7.1,7.1,0,0,1-4.55-4.51c-.69-3.38,5.71-11.14,8.22-10.4C518.39,939.3,519.94,941.29,520.91,942.05Z" transform="translate(0 -385)"/><path d="M376.44,694.1c.23,4.33-4.95,9.64-8,9a7,7,0,0,1-4.38-4.18c-.81-2.87,3.91-7.74,7.24-7.43C373.32,691.68,375.19,693.43,376.44,694.1Z" transform="translate(0 -385)"/><path d="M492.35,1281.29c-7.12-1.16-15.93-2.07-24.47-4.12-12.25-3-16.86-14.06-11.11-25.29a14.48,14.48,0,0,1,1.78-3c11.31-12.79,25.1-21.59,42.34-22.79,16.23-1.14,27,9.09,35.81,21,4.29,5.78,1.32,15.44-5.72,20.68C520.07,1275.89,507.69,1280.4,492.35,1281.29Zm25-40.53c-1.06.77-1.6,1.13-2.1,1.54-11.9,9.81-24.89,12.71-39.49,6.55a5.54,5.54,0,0,0-4.71.78,24.91,24.91,0,0,0-5.47,6.37c-3.39,5.77-1.36,10.58,5.19,12a178.72,178.72,0,0,0,18.69,3c13.09,1.43,24.52-3.35,35-10.5,5.62-3.82,5.74-7.35,1.12-12.08C523.1,1245.86,520.32,1243.49,517.37,1240.76Z" transform="translate(0 -385)"/><path d="M2438.55,880.15c-4.06-1.88-8-4.15-12.21-5.57a64.54,64.54,0,0,1-24.1-14.71c-2.3-2.17-4.86-4.08-7-6.36-7.91-8.25-17.17-12.09-28.78-10-12.9,2.28-20.85-6.23-28.42-14.43-4-4.38-1.92-10.51,4.07-12.21,7.17-2,14.61-3.13,21.94-4.56,4.25-.83,8.72-1,12.73-2.39,7.77-2.78,13.49.36,19.09,5.1,19.22,16.29,40,29.85,64.72,36.32a34.79,34.79,0,0,0,11.32,1.48c17.74-1.45,34.69,2.76,50.8,8.87,19.66,7.46,37.48,6.19,55.42-4.4,13-7.68,26.77-14.18,40-21.5,12.51-6.9,25.54-5.82,38.39-2.33,9.93,2.7,19.48,6.81,29.08,10.61a40.4,40.4,0,0,1,10.4,5.79c8.41,6.75,6.66,17.55-3.52,21.24-5.5,2-10.58,3.81-14.6,8.7-3.51,4.26-10.26,2.94-13.94-1.8a41.58,41.58,0,0,1-3.27-5.6c-3.89-7-6.37-8.33-15.11-7.86a73.82,73.82,0,0,1,4.94,35.3c-1.07,10.84-4.21,13.42-15.09,13.5-3.79,0-8.14-1.58-11.08,3.78,7.09,2.42,14.08,4.55,20.87,7.18,9.09,3.53,10.44,12.67,2.2,18.15-10,6.68-21,11.56-33.54,11.31A98.4,98.4,0,0,1,2570.09,943c-16.43-8.43-32.81-17-49.28-25.31a15.87,15.87,0,0,0-6.61-1.69c-4.31-.08-8.63.56-13,.58-10.78.06-21.61.46-32.35-.27-11.33-.78-22.21-.32-32.75,4.43-32.37,14.59-28.24,10.66-57.45,1.49a15.58,15.58,0,0,1-2.8-1.08c-11.06-6-19.81-1-28.61,5.49-3.15,2.3-7.35,4.2-11.15,4.36-7.73.32-11.89-6-9.14-13.2a109.57,109.57,0,0,1,7.75-16.17c4.6-7.9,9.64-15.55,14.64-23.21,2.52-3.88,4.94-8.31,10.68-7.57,6,.77,9.56,4.54,10.79,10.29.74,3.49,2.83,5.13,6,5.73,2.78.51,5.69.54,8.37,1.35,5.16,1.56,10.49,3,15.19,5.49,3.49,1.87,6.61,3.28,10.27,1.61,9.45-4.29,18.82-8.77,28.23-13.18C2438.82,881.44,2438.69,880.8,2438.55,880.15Zm232.33-9c4.92-2.8,9-5.12,13.08-7.42,2.46-1.4,4.94-2.76,7.41-4.14-2.26-1.84-4.24-4.36-6.82-5.38-10.53-4.16-21.09-8.36-31.93-11.57-9.67-2.86-19.67-3.74-29.22,1.34-11.61,6.18-23.23,12.34-34.91,18.39-11.19,5.8-21.86,12.92-35,13.95-11,.86-21.43-1.38-31.83-4.91-15-5.09-30.2-9.35-46.32-9.2a68.45,68.45,0,0,1-17.29-1.59c-26.26-6.66-48.29-21.13-68.67-38.39-3.16-2.68-6.16-4-10.43-2.93-5.48,1.35-11.13,2-16.7,2.92l-14.91,2.54c5.56,5.12,9.62,10.59,17,9.21,15.39-2.88,27.76,2.35,38.32,13.28a59.76,59.76,0,0,0,8.62,7.59,134.86,134.86,0,0,0,14.77,9.09c6.79,3.52,14,6.27,20.7,9.9,1.89,1,4.19,4.28,3.8,5.93-1,4.22-2.65,8.48-7.49,10.46-3.36,1.38-6.24,3.87-9.57,5.36-7.71,3.45-15.48,6.82-23.4,9.77a12.65,12.65,0,0,1-12.73-2.39,24.35,24.35,0,0,0-15.16-5.54,39.93,39.93,0,0,1-8.85-1.53c-5.84-1.58-10.19-4.82-11.5-11.18a20.58,20.58,0,0,0-1.58-3.81l-1.45-.21c-5.63,14.54-18.23,25.09-22.22,40.8a11.85,11.85,0,0,0,4.66-2.25c11.21-9.06,23.1-14.51,37.48-7.35a20.81,20.81,0,0,0,3.26,1.28c28.05,8.51,20.63,11.83,50.16-1.22,11.56-5.1,23.52-6.55,36.13-5.4,10.06.92,20.24.58,30.37.52,5.65,0,11.3-.87,16.95-.83a18.7,18.7,0,0,1,8,2c17.23,8.71,34.32,17.67,51.5,26.48a85.71,85.71,0,0,0,40.5,9.35c10-.09,18.17-4.89,27.4-10.06-1.85-.72-2.56-1-3.29-1.28-4.74-1.74-9.45-3.6-14.27-5.09a4.9,4.9,0,0,0-3.78,1.12c-6.56,5.41-13.86,7.27-21.92,4.39-7.35-2.64-14.67-5.47-21.78-8.71-10.2-4.65-14.63-15.26-11.11-25.8a6.53,6.53,0,0,1,2.39-3.06c3-2.07,10.3-.6,13.29,1.76,3.24,2.56,7,4.46,11.07,7,.36-7.11.64-12.81.94-18.73-3.65,2-7.27,4.06-10.87,6.11-3,1.71-5.94,2-7.72-1.41s0-5.62,3-7.32c5.5-3.11,10.93-6.36,16.4-9.53,7.2-4.18,14.21-8.76,21.67-12.41,7.71-3.79,15.45-8.36,24.53-7.41a132.24,132.24,0,0,1,19.16,3.47c2.11.55,4.1,2.88,5.4,4.88A84.86,84.86,0,0,1,2670.88,871.11Zm-71.41,10.39c15.5,3,21.63,6.38,27.9,16.11.91,1.4,1.46,3.58,2.7,4.08a24.65,24.65,0,0,0,8.36,1.53c.73,0,2.13-2,2.21-3.2.83-12.38.64-24.62-7.22-36.53Zm17.18,38.28c-14.18-2.58-27-7.51-39.89-13-1.37,3.68.16,6.47,3.28,7.83,7.89,3.44,15.88,6.7,24,9.55C2609.14,926,2613.23,923.45,2616.65,919.78ZM2621.4,905c-1.85-1-3.64-2.62-5.57-2.81-3.85-.39-5.94-2-7.09-5.72-.51-1.62-2.18-2.87-3.33-4.29l-1.66,1.06c0,5.23-1.51,11.21,3.74,14.81C2611.87,911.05,2616.59,909,2621.4,905Z" transform="translate(0 -385)"/><path d="M2586.67,782c0-7.81,0-15.62,0-23.43,0-3.43.89-6.68,5.1-6.48,3.89.17,4.49,3.37,4.49,6.56q0,23.19-.09,46.36c0,3.39-.67,6.79-4.84,6.75s-4.71-3.46-4.71-6.83q0-11.48,0-22.93Z" transform="translate(0 -385)"/><path d="M2572.56,796.38c0,3.33.12,6.67,0,10-.15,3.13-1.59,6.13-5,5.43-1.84-.37-4.29-3.34-4.45-5.3-.55-6.78-.28-13.64-.17-20.46,0-2.95,1.5-5.82,4.62-5.18,1.91.39,4.25,3,4.73,5.09.79,3.31.22,6.94.22,10.43Z" transform="translate(0 -385)"/><path d="M2329.94,880.06c0,3.14.57,6.43-.21,9.36a7.22,7.22,0,0,1-4.72,4.42c-1.2.22-4.16-2.55-4.28-4.13a121.67,121.67,0,0,1,.09-19.28c.12-1.54,3-4,4.49-3.95s4,2.44,4.39,4.21c.72,3,.2,6.23.2,9.37Z" transform="translate(0 -385)"/><path d="M1125.43,654c25.77.49,52.07,4.57,76.32,17.66,8.75,4.72,16.49,10.69,22.49,18.7,9.85,13.12,9.94,28.48.24,41.69a64.61,64.61,0,0,1-27.3,21.28c-50.38,21.36-100.72,21.44-150.34-2.26-7.87-3.77-14.95-10.06-21.08-16.45-12.46-13-12.21-32.75-.41-46.4,8.73-10.09,19.73-16.79,31.84-21.84C1078.59,657.47,1101.07,654.27,1125.43,654Z" transform="translate(0 -385)"/><path class="cls-1" d="M1875.55,1396.47l-5.54-5.16c2-1.87,3.78-4.44,6.16-5.29,1.07-.38,3.36,2.68,5.1,4.18Z" transform="translate(0 -385)"/><path class="cls-1" d="M1732.23,1396c-2.61-3.09-5.41-4.94-5.8-7.2-.53-3.09,1.77-5.69,5.37-5.86,3.2-.15,7.38,4.08,6.38,6.91C1737.47,1391.84,1735,1393.23,1732.23,1396Z" transform="translate(0 -385)"/><path class="cls-1" d="M456.38,769.12c-1.16,11.76-4.55,22.08-12.53,30.29a29.93,29.93,0,0,1-9.9,6.52c-14.23,5.84-26.94-2.25-28.08-17.57a24.08,24.08,0,0,1-.06-4.49c1.38-11.53-.72-22.5-4.57-33.36-1.14-3.2-.63-7,0-10.75,3.69,6.76,6.77,13.58,14,17.08s12.88,2,20.08-5.42C438,762.06,443.29,769.83,456.38,769.12Z" transform="translate(0 -385)"/><path class="cls-1" d="M444.06,812.56c2.78,9.52,5.36,19.14,8.41,28.61,8.78,27.25,17.73,54.44,26.65,81.64,2.37,7.22,2.08,8.1-5,11.77a6.06,6.06,0,0,1-1-1.53c-8.52-29.07-17.09-58.13-25.48-87.24-2.67-9.27-4.8-18.7-7.3-28C439.56,814.73,440.31,813,444.06,812.56Z" transform="translate(0 -385)"/><path class="cls-1" d="M517.37,1240.76c3,2.73,5.73,5.1,8.27,7.7,4.62,4.73,4.5,8.26-1.12,12.08-10.52,7.15-21.95,11.93-35,10.5a178.72,178.72,0,0,1-18.69-3c-6.55-1.43-8.58-6.24-5.19-12a24.91,24.91,0,0,1,5.47-6.37,5.54,5.54,0,0,1,4.71-.78c14.6,6.16,27.59,3.26,39.49-6.55C515.77,1241.89,516.31,1241.53,517.37,1240.76Z" transform="translate(0 -385)"/><path class="cls-1" d="M2670.88,871.11a84.86,84.86,0,0,0-4.73-9.22c-1.3-2-3.29-4.33-5.4-4.88a132.24,132.24,0,0,0-19.16-3.47c-9.08-.95-16.82,3.62-24.53,7.41-7.46,3.65-14.47,8.23-21.67,12.41-5.47,3.17-10.9,6.42-16.4,9.53-3,1.7-4.77,4-3,7.32s4.73,3.12,7.72,1.41c3.6-2,7.22-4.06,10.87-6.11-.3,5.92-.58,11.62-.94,18.73-4.05-2.5-7.83-4.4-11.07-7-3-2.36-10.27-3.83-13.29-1.76a6.53,6.53,0,0,0-2.39,3.06c-3.52,10.54.91,21.15,11.11,25.8,7.11,3.24,14.43,6.07,21.78,8.71,8.06,2.88,15.36,1,21.92-4.39a4.9,4.9,0,0,1,3.78-1.12c4.82,1.49,9.53,3.35,14.27,5.09.73.26,1.44.56,3.29,1.28-9.23,5.17-17.36,10-27.4,10.06a85.71,85.71,0,0,1-40.5-9.35c-17.18-8.81-34.27-17.77-51.5-26.48a18.7,18.7,0,0,0-8-2c-5.65,0-11.3.8-16.95.83-10.13.06-20.31.4-30.37-.52-12.61-1.15-24.57.3-36.13,5.4C2402.6,925,2410,921.64,2382,913.13a20.81,20.81,0,0,1-3.26-1.28c-14.38-7.16-26.27-1.71-37.48,7.35a11.85,11.85,0,0,1-4.66,2.25c4-15.71,16.59-26.26,22.22-40.8l1.45.21a20.58,20.58,0,0,1,1.58,3.81c1.31,6.36,5.66,9.6,11.5,11.18a39.93,39.93,0,0,0,8.85,1.53,24.35,24.35,0,0,1,15.16,5.54,12.65,12.65,0,0,0,12.73,2.39c7.92-2.95,15.69-6.32,23.4-9.77,3.33-1.49,6.21-4,9.57-5.36,4.84-2,6.51-6.24,7.49-10.46.39-1.65-1.91-4.91-3.8-5.93-6.72-3.63-13.91-6.38-20.7-9.9a134.86,134.86,0,0,1-14.77-9.09,59.76,59.76,0,0,1-8.62-7.59c-10.56-10.93-22.93-16.16-38.32-13.28-7.34,1.38-11.4-4.09-17-9.21l14.91-2.54c5.57-.94,11.22-1.57,16.7-2.92,4.27-1,7.27.25,10.43,2.93,20.38,17.26,42.41,31.73,68.67,38.39a68.45,68.45,0,0,0,17.29,1.59c16.12-.15,31.33,4.11,46.32,9.2,10.4,3.53,20.81,5.77,31.83,4.91,13.13-1,23.8-8.15,35-13.95,11.68-6.05,23.3-12.21,34.91-18.39,9.55-5.08,19.55-4.2,29.22-1.34,10.84,3.21,21.4,7.41,31.93,11.57,2.58,1,4.56,3.54,6.82,5.38-2.47,1.38-4.95,2.74-7.41,4.14C2679.87,866,2675.8,868.31,2670.88,871.11Z" transform="translate(0 -385)"/><path class="cls-1" d="M2599.47,881.5l34-18c7.86,11.91,8,24.15,7.22,36.53-.08,1.17-1.48,3.23-2.21,3.2a24.65,24.65,0,0,1-8.36-1.53c-1.24-.5-1.79-2.68-2.7-4.08C2621.1,887.88,2615,884.51,2599.47,881.5Z" transform="translate(0 -385)"/><path class="cls-1" d="M2616.65,919.78c-3.42,3.67-7.51,6.19-12.6,4.41-8.13-2.85-16.12-6.11-24-9.55-3.12-1.36-4.65-4.15-3.28-7.83C2589.61,912.27,2602.47,917.2,2616.65,919.78Z" transform="translate(0 -385)"/><path class="cls-1" d="M2621.4,905c-4.81,4-9.53,6.06-13.91,3-5.25-3.6-3.73-9.58-3.74-14.81l1.66-1.06c1.15,1.42,2.82,2.67,3.33,4.29,1.15,3.67,3.24,5.33,7.09,5.72C2617.76,902.37,2619.55,904,2621.4,905Z" transform="translate(0 -385)"/></svg>