<svg id="Layer_1" data-name="Layer 1" xmlns="http://www.w3.org/2000/svg" viewBox="0 0 472.47 568.13"><defs><style>.cls-1{fill:#fff;}</style></defs><path class="cls-1" d="M542.88,58.28v550c-2.87-1.62-5.57-3.72-8.63-4.79-12.25-4.3-24.44-8.87-36.95-12.26-26.33-7.12-53.2-9.45-80.17-4.89-11.68,2-22.95,6.34-34.74,9.72a4.6,4.6,0,0,1-1.31-.74c-2.41-2.3-4.76-4.66-7.15-7-18.49-18-38.12-34.31-61.59-45.57a352.33,352.33,0,0,0-112.58-33c-4.09-.48-8.15-1.22-12.33-1.85.52-1.57.57-2.3.95-2.75,20.31-23.9,32.48-51.72,39.56-82,6-25.67,7.26-51.43,1-77.23-3.84-16-12.85-27.9-28.86-33.07-12-3.86-24.24-7-36.53-9.81-5.37-1.21-11.13-.7-17.31-1,3.46-8.61,7.12-16.43,9.74-24.58a173.89,173.89,0,0,0,5.8-24.25c1.4-8.28,1.82-16.74,2.7-25.41,18.86,7,31.22,4.77,44.41-7.51a47.57,47.57,0,0,0,6.1-6.59c3.75-5.08,8.19-8,14.88-8.57,10.74-.9,18.65-6.75,23-16.78,2.24-5.18,3.95-10.59,6.08-15.82,1.36-3.34,2.34-7.18,4.68-9.7,9.77-10.54,12.74-23.05,12-36.9-.18-3.58,0-7.18,0-11.21,5.39,0,10.28-.15,15.16,0,24.47.91,48.43-3.65,72.53-6.68C395.46,104,427,97.52,457.49,86.2c18.08-6.72,36.66-12.07,55-18.06C522.69,64.94,532.78,61.6,542.88,58.28Zm-125,307c-15.47-.34-28.61,3.84-39.69,15.47-4.27,4.48-11.17,7.08-17.35,9-7.58,2.3-15.76,2.51-23.49,4.43-5.71,1.42-11.69,3.22-16.53,6.42-15.12,10-14.2,27.21,1.57,36,9.14,5.12,19.08,7.44,29.53,8.28a200,200,0,0,1,22.59,3.45c7.17,1.42,14.14,3.91,21.34,5a67.64,67.64,0,0,0,48.61-10.26c4.66-3,9.82-5.22,14.77-7.76,5.86-3,12.46-5.07,17.46-9.12,7.84-6.38,8.13-14.39,1.19-21.74a75.15,75.15,0,0,1-12.78-18.83c-5-10-12.37-16.93-24.49-17.56C433,367.72,425.41,366.28,417.88,365.28Z" transform="translate(-70.5 -48.29)"/><path d="M542.88,58.28q-15.15,5-30.3,10c-18.36,6-36.94,11.34-55,18.06-30.51,11.32-62,17.79-94.17,21.84-24.1,3-48.06,7.59-72.53,6.68-4.88-.18-9.77,0-15.16,0,0,4-.15,7.63,0,11.21.69,13.85-2.28,26.36-12,36.9-2.34,2.52-3.32,6.36-4.68,9.7-2.13,5.23-3.84,10.64-6.08,15.82-4.36,10-12.27,15.88-23,16.78-6.69.55-11.13,3.49-14.88,8.57a47.57,47.57,0,0,1-6.1,6.59c-13.19,12.28-25.55,14.54-44.41,7.51-.88,8.67-1.3,17.13-2.7,25.41a173.89,173.89,0,0,1-5.8,24.25c-2.62,8.15-6.28,16-9.74,24.58,6.18.29,11.94-.22,17.31,1,12.29,2.78,24.54,6,36.53,9.81,16,5.17,25,17.12,28.86,33.07,6.22,25.8,5,51.56-1,77.23-7.08,30.28-19.25,58.1-39.56,82-.38.45-.43,1.18-.95,2.75,4.18.63,8.24,1.37,12.33,1.85a352.46,352.46,0,0,1,112.59,33c23.47,11.26,43.1,27.61,61.59,45.57,2.39,2.32,4.74,4.68,7.15,7a4.35,4.35,0,0,0,1.31.74c11.79-3.38,23.06-7.74,34.74-9.72,27-4.56,53.84-2.23,80.17,4.89,12.51,3.39,24.69,8,36.94,12.26,3.07,1.07,5.76,3.17,8.63,4.79v8c-34.09-16.62-69.88-25.57-108-24.17-17.57.64-26.45,2.93-53.21,14.26a61.94,61.94,0,0,1-5.62-5c-39.54-44.06-90.5-66.72-147.1-79.06a300.84,300.84,0,0,0-74.47-6.29c-14.12.48-27.65,3.86-40.95,8.4-1.57.54-3.06,1.3-4.62,1.86-2.63.92-5.75,1.68-6.61-1.75-.35-1.36,1.77-4.3,3.41-5,6-2.69,12.38-4.76,19.63-7.44-.75-4.09-1.4-8.23-2.28-12.31-1.59-7.46-3.86-14.81-4.87-22.33a151.8,151.8,0,0,0-13.13-44.89c-6.52-13.86-13.6-27.45-20.46-41.15-1.79-3.57-3.94-7-5.48-10.65-4.84-11.55-3-19.56,6.42-27.7,7.08-6.07,14.66-11.56,21.71-17.66,22.26-19.26,38-42.7,44.79-71.66a163.53,163.53,0,0,0,4-40c-7.1.66-13.33,1.49-19.58,1.71-3.39.13-8.68,1.14-8.91-3.74-.25-5.47,5.21-3.77,8.4-3.8,16.44-.13,30.42-6.56,43.1-16.37,25.71-19.89,37.77-47.52,43.93-78.37,1.16-5.77,1.46-11.72,2.28-18.59-9.83.75-18.67,1.31-27.49,2.13-29.31,2.73-58.6.59-87.87-.6-10.26-.41-20.5-2-30.66-3.61-7.06-1.14-10-4.09-8.41-7.31,2.43-5,6.79-2.52,10.58-2.2,17.22,1.48,34.42,3.36,51.67,4.24,34.66,1.76,69.22,1,103.55-5.1,14.74-2.64,28.15-7.84,40.12-16.8q8.81-6.59,17.65-13.11c2.6-1.91,5.58-3.18,7.9,0s.39,5.68-2,7.8c-1.5,1.32-3.07,2.56-4.67,3.76C282.88,83.28,270,92.66,253.61,99.28c16.73,5,32.51,6.89,48.19,5.61,56.17-4.58,111.94-11.17,165-32.4,18.48-7.4,38.08-12,57.15-17.94,6.35-2,12.63-4.17,18.95-6.26Zm-437.47,291c6.46-2.46,13.22-3.09,17.72,4.55,9.08,15.41,11.28,31.45,1.93,47.34-4.11,7-10.26,12.75-16.18,19.9.44,1.15,1.26,3.64,2.34,6a180,180,0,0,1,14.92,51.54c1.37,10.69,4.93,21.1,7.34,31,13.07-.57,25-.94,36.92-1.75a12.8,12.8,0,0,0,6.91-3.11,57.76,57.76,0,0,0,8.92-9.37c28.89-38.6,41.74-82,38.12-130.11-.64-8.5-3-17-5.72-25.17a26.16,26.16,0,0,0-14.24-16.29c-1.38,2.52-2.44,4.52-3.55,6.49-4.86,8.68-12,15.1-20.51,19.95-10.61,6.06-20.09,2.63-23.31-9.28-1.77-6.51-1.15-13.73-1.16-20.63,0-2.89,1.18-5.77,2-9.47-5.52,0-10.42-.25-15.28.14a8.5,8.5,0,0,0-4.88,2.82C126.88,325.48,116.27,337.28,105.41,349.28Zm61.91-130.72c7.84,7,15.6,7.14,23.86,4.09,8.11-3,14-8.8,19.28-15.38,4.06-5.07,8.51-9.31,15.67-9.37,10.21-.07,16.8-5.67,20.68-14.64,2.11-4.87,3.43-10.08,5.38-15,1.33-3.34,2.49-7.12,4.86-9.63,12.67-13.44,13-29,9.24-45.95l-32.94-6.86c-5.47,47.66-22,88-66,112.7Zm-63.27,192.5c9.31-4.52,11.34-6.86,15.28-17.19-8.51-9.89-7.33-20.31-.56-30.68-4.38-9.24-7.3-10.2-13-3a59.17,59.17,0,0,0-9.72,18.11,31,31,0,0,0-.38,16.4c1.43,5.58,5.29,10.58,8.38,16.32Zm87.38-79.36c-3.07-4-6.45-6.48-7.26-9.66-2.41-9.49-9.21-10-17.07-10-4.72,8.86-5.9,17.83-2.68,27.06,2.22,6.38,6,8,11.52,4.62s10.33-8,15.49-12.06ZM99.7,353.28C85.62,360,82.07,366.41,87.14,375.83Q93.41,364.55,99.7,353.28Z" transform="translate(-70.5 -48.29)"/><path d="M417.88,365.28c7.58,1,15.13,2.42,22.73,2.82,12.12.63,19.53,7.53,24.49,17.56a75.08,75.08,0,0,0,12.78,18.85c6.94,7.35,6.65,15.36-1.19,21.74-5,4-11.6,6.12-17.46,9.12-5,2.54-10.11,4.77-14.77,7.76a67.64,67.64,0,0,1-48.61,10.26c-7.2-1.13-14.17-3.62-21.34-5a200,200,0,0,0-22.59-3.45c-10.45-.84-20.39-3.16-29.53-8.28-15.77-8.83-16.69-26.06-1.57-36,4.84-3.2,10.82-5,16.53-6.42,7.73-1.92,15.91-2.13,23.49-4.43,6.18-1.88,13.08-4.48,17.35-9C389.22,369.14,402.36,365,417.88,365.28Zm.77,7.85c-13.61-.33-25.44,2.67-35.17,13.34-4,4.4-10.25,7.42-16,9.41-7.15,2.46-15,3-22.36,4.74-6.4,1.53-13.27,2.58-18.85,5.74-11.73,6.65-11.24,17.26.44,23.76,9.23,5.14,19.43,6.38,29.73,7.51,7.55.83,15,2.38,22.49,3.88,5.53,1.12,10.92,3,16.47,4,14.94,2.71,29.62.95,42.17-7.47a93.65,93.65,0,0,1,22.91-11.42A34.12,34.12,0,0,0,471,421.15c4.8-3.8,5.2-7.51.83-11.82-6.07-6-10.19-13-13.77-20.54-3.65-7.74-9.6-12.36-18.61-12.93-7-.44-13.91-1.77-20.82-2.71Z" transform="translate(-70.5 -48.29)"/><path class="cls-1" d="M105.41,349.28c10.86-12,21.51-23.76,32.3-35.45a8.5,8.5,0,0,1,4.88-2.82c4.86-.39,9.76-.14,15.28-.14-.83,3.7-2,6.58-2,9.47,0,6.9-.61,14.12,1.16,20.63,3.22,11.91,12.7,15.34,23.31,9.28C188.83,345.4,196,339,200.85,330.3c1.11-2,2.17-4,3.55-6.49a26.16,26.16,0,0,1,14.24,16.29c2.67,8.15,5.08,16.67,5.72,25.17,3.62,48.06-9.23,91.51-38.12,130.11a57.76,57.76,0,0,1-8.92,9.37,12.8,12.8,0,0,1-6.91,3.11c-11.91.81-23.85,1.18-36.92,1.75-2.41-9.88-6-20.29-7.34-31a180,180,0,0,0-14.92-51.54c-1.08-2.38-1.9-4.87-2.34-6,5.92-7.15,12.07-12.92,16.18-19.9,9.35-15.89,7.15-31.93-1.93-47.34C118.63,346.15,111.88,346.78,105.41,349.28Zm80.13,87.56a35.26,35.26,0,0,0-10.22-26.27c-9.64-10-20.26-9.15-27.19,2.68-8,13.64-12,28.84-14.3,44.36-1.31,8.87,3.42,16.25,10.47,18.44,6.64,2.07,13.63,2,19.24-2,12.57-9.18,21.48-20.85,22-37.25Z" transform="translate(-70.5 -48.29)"/><path class="cls-1" d="M167.32,218.52c44-24.69,60.52-65,66-112.76l32.94,6.86c3.75,17,3.43,32.51-9.24,45.95-2.37,2.51-3.53,6.29-4.86,9.63-1.95,4.94-3.27,10.15-5.38,15-3.88,9-10.47,14.57-20.68,14.64-7.16.06-11.61,4.3-15.67,9.37-5.27,6.58-11.17,12.39-19.28,15.38C182.88,225.66,175.16,225.5,167.32,218.52Z" transform="translate(-70.5 -48.29)"/><path class="cls-1" d="M104.05,411c-3.09-5.78-7-10.74-8.38-16.32a31,31,0,0,1,.38-16.4,59.17,59.17,0,0,1,9.72-18.11c5.7-7.24,8.62-6.28,13,3-6.77,10.37-8,20.79.56,30.68C115.39,404.16,113.36,406.5,104.05,411Z" transform="translate(-70.5 -48.29)"/><path class="cls-1" d="M191.43,331.66c-5.16,4.06-10,8.58-15.49,12s-9.3,1.76-11.52-4.62c-3.22-9.23-2-18.2,2.68-27.06,7.86.07,14.66.54,17.07,10C185,325.18,188.36,327.71,191.43,331.66Z" transform="translate(-70.5 -48.29)"/><path class="cls-1" d="M99.7,353.28,87.14,375.83C82.07,366.41,85.62,360,99.7,353.28Z" transform="translate(-70.5 -48.29)"/><path class="cls-1" d="M418.6,373.15c6.91.94,13.79,2.27,20.73,2.71,9,.57,15,5.19,18.61,12.93,3.58,7.57,7.7,14.56,13.77,20.54,4.37,4.31,4,8-.83,11.82a34.12,34.12,0,0,1-10.49,5.47A93.65,93.65,0,0,0,437.48,438c-12.55,8.42-27.23,10.18-42.17,7.47-5.55-1-10.94-2.86-16.47-4-7.45-1.5-14.94-3-22.49-3.88-10.3-1.13-20.5-2.37-29.73-7.51-11.68-6.5-12.17-17.11-.44-23.76,5.58-3.16,12.45-4.21,18.85-5.74,7.41-1.77,15.21-2.28,22.37-4.74,5.79-2,12-5,16-9.41C393.16,375.82,405,372.82,418.6,373.15Z" transform="translate(-70.5 -48.29)"/><path d="M185.54,436.8c-.52,16.4-9.43,28.07-22,37.17-5.61,4.06-12.6,4.11-19.24,2-7.05-2.19-11.78-9.57-10.47-18.44,2.27-15.52,6.3-30.72,14.3-44.36,6.93-11.83,17.55-12.64,27.19-2.68A35.26,35.26,0,0,1,185.54,436.8Zm-16.38-20.93c-7.85-5.45-11.5-5.53-14.53,1.93a334,334,0,0,0-12.82,39.63c-.79,3,1.44,8.16,4,10.29,4,3.36,9.61,2.83,13.94-.46,6.61-5,12.34-10.9,15.35-19C166.48,438.57,164.36,428.09,169.16,415.87Z" transform="translate(-70.5 -48.29)"/><path class="cls-1" d="M169.16,415.87c-4.8,12.22-2.68,22.7,5.93,32.41-3,8.08-8.74,14-15.35,19-4.33,3.29-9.91,3.82-13.94.46-2.55-2.13-4.78-7.31-4-10.29a334,334,0,0,1,12.82-39.63C157.66,410.34,161.31,410.42,169.16,415.87Z" transform="translate(-70.5 -48.29)"/></svg>