<svg id="Layer_1" data-name="Layer 1" xmlns="http://www.w3.org/2000/svg" viewBox="0 0 499.62 438.94"><defs><style>.cls-1{fill:#fff;}</style></defs><path class="cls-1" d="M0,309.19v-160a12.13,12.13,0,0,1,2,.1c6.68,1.28,13.33,3.47,20.05,3.74,39.8,1.57,78.71-4.74,116.92-15.2,23.25-6.36,46.68-12.68,67.14-26.4,1.26-.84,3.75-.53,5.42,0,7.59,2.46,15,5.67,22.66,7.73,25.08,6.73,50.62,7.3,76.36,5.18,31.42-2.59,61.34-10.4,89.08-25.6,8.28-4.54,16.06-10,24.12-15.06a4.24,4.24,0,0,1,.58,1.3c.34,3.48.59,7,.92,10.44,2.61,27.28,10.63,53.15,20.5,78.52,8.72,22.44,18.3,44.66,34.64,62.64,9.92,10.91,11.08,21,4,33.25q-10.09,17.52-19.33,35.55c-27.83,54-43.83,111.35-49.23,171.76-.52,5.84-1.1,11.68-1.72,18.15-2.15-1.46-3.55-2.32-4.86-3.32-18.93-14.49-40-25.28-61.81-34.49-23.84-10-49.17-14.26-74.68-17.35-11.55-1.4-23.16-2.54-33.7.68l-50.51-54.25c7.36-1,13.87-4.3,15.33-12.76,1.55-9-2.49-16.06-10.32-20.44A83.5,83.5,0,0,0,178.47,347c-9.64-3.13-19.72-5.08-29.07-8.86-10.94-4.42-21.06-3.3-31.48,1a8.34,8.34,0,0,1-6,.2C76.44,322.5,38.53,314.71,0,309.19Z" transform="translate(0 -70.23)"/><path d="M0,309.19c38.53,5.52,76.44,13.31,111.93,30.16a8.34,8.34,0,0,0,6-.2c10.42-4.27,20.54-5.39,31.48-1,9.35,3.78,19.43,5.73,29.07,8.86a83.5,83.5,0,0,1,15.09,6.33c7.83,4.38,11.87,11.41,10.32,20.44-1.46,8.46-8,11.74-15.33,12.76l50.51,54.25c10.54-3.22,22.15-2.08,33.7-.68,25.51,3.09,50.84,7.3,74.68,17.35,21.84,9.21,42.88,20,61.81,34.49,1.31,1,2.71,1.86,4.86,3.32.62-6.47,1.2-12.31,1.72-18.15,5.4-60.41,21.4-117.79,49.23-171.76q9.27-18,19.33-35.55c7.07-12.28,5.91-22.34-4-33.25-16.34-18-25.92-40.2-34.64-62.64-9.87-25.37-17.89-51.24-20.5-78.52-.33-3.47-.58-7-.92-10.44a4.24,4.24,0,0,0-.58-1.3c-8.06,5.06-15.84,10.52-24.12,15.06-27.74,15.2-57.66,23-89.08,25.6-25.74,2.12-51.28,1.55-76.36-5.18-7.69-2.06-15.07-5.27-22.66-7.73-1.67-.54-4.16-.85-5.42,0-20.46,13.72-43.89,20-67.14,26.4C100.75,148.29,61.84,154.6,22,153c-6.72-.27-13.37-2.46-20-3.74a12.13,12.13,0,0,0-2-.1v-10c10.37,1.31,20.72,3.51,31.12,3.76,42.76,1,84.07-7.55,124.59-20.39C167,119,177.86,114.37,188.84,110c2.87-1.13,5.43-3.07,8.72-5-2.4-1.43-4.66-2.12-5.86-3.65-1.43-1.82-3.11-4.69-2.6-6.52.92-3.32,4.17-3.28,7.07-1.91,3.31,1.55,6.63,3.13,9.86,4.84,21.47,11.36,44.51,16.22,68.63,17.51a244.74,244.74,0,0,0,95.7-13.94,168.11,168.11,0,0,0,48.95-27.59c.66-.52,1.21-1.33,1.95-1.54,2.72-.8,6-2.64,8.1-1.75s3.85,4.46,4.25,7.08c1.12,7.23,1.34,14.58,2.13,21.86,3,27.43,12,53.17,22.25,78.54,8.48,21,19,40.73,34.13,57.81,7.83,8.85,9.77,18.91,4.69,29.66-5.33,11.28-10.88,22.48-17,33.36C453.22,346.11,436.9,396.89,429,450.42c-2.51,17.1-3.55,34.41-5.09,51.65-.64,7.21-3.59,9-9.44,5.06-19.16-13-38.36-25.79-59.43-35.68-23.22-10.89-47.74-16.55-72.87-20.18-7.91-1.15-15.86-2-23.82-2.67-4.24-.36-8.53-.06-13-.06-.19,2.29-.23,3.39-.39,4.47-.64,4.45-4.69,6.14-8,3-2.52-2.38-4.48-5.36-6.57-8.16C205.07,414,174.65,385.53,138.18,364a322.38,322.38,0,0,0-119-41.78c-6.38-.87-12.77-2-19.18-3Zm124.6,36.08c2.5,1.34,4.25,2.14,5.85,3.17,14,9,28.23,17.53,41.74,27.13,5.11,3.63,9.44,5.27,15.38,3.47,4-1.2,8.69-2.31,8.59-6.88a16,16,0,0,0-4.79-10.65c-3.59-3.14-8.55-5.05-13.22-6.58-12-3.92-24.16-7.19-36.17-11C136.27,342.12,131,342.87,124.6,345.27Z" transform="translate(0 -70.23)"/><path class="cls-1" d="M124.6,345.27c6.41-2.4,11.67-3.15,17.38-1.34,12,3.81,24.2,7.08,36.17,11,4.67,1.53,9.63,3.44,13.22,6.58a16,16,0,0,1,4.79,10.65c.1,4.57-4.61,5.68-8.59,6.88-5.94,1.8-10.27.16-15.38-3.47-13.51-9.6-27.76-18.18-41.74-27.13C128.85,347.41,127.1,346.61,124.6,345.27Z" transform="translate(0 -70.23)"/></svg>