<svg id="Layer_1" data-name="Layer 1" xmlns="http://www.w3.org/2000/svg" viewBox="0 0 3000 3000"><defs><style>.cls-1{fill:#fff;}</style></defs><path class="cls-1" d="M0,983.42V0H3000V3000H0V2420.64c13.62-.22,27.34.51,40.83-.9,19.78-2.08,39-1.87,58.27,3.92a205.37,205.37,0,0,0,69.11,8.1c16.59-.79,33.09-3.4,49.66-4.81,10.91-.93,22-2.68,32.78-1.43,29.72,3.49,56.48-4.14,82.57-17.52,18.54-9.5,28.55-25.43,36.22-43.4,1.83-4.27,1.8-9.88,1-14.61-2.82-17.07-12.81-29.81-26.65-39.44-20.3-14.12-42.62-23.28-67.65-24.25-18.3-.71-36.61-.9-54.91-1.19-20.63-.33-36.69-7.8-48.94-25.56-19.9-28.86-48.2-46.19-82.41-53.88-21.86-4.91-43.73-2.58-65.55.14-8.2,1-16.24,3.26-24.35,5V1209.3c1.23.47,2.69.66,3.64,1.47,9.54,8,20.81,11.52,33,12.88,5,.56,9.85,1.63,14.76,2.53,44.88,8.18,89.41,8.09,133.42-5.47,13.52-4.16,27.44-5.83,41.45-3.54a283.45,283.45,0,0,1,30.14,6.81c14,3.9,28.29,5.32,42.53,2.8,18.33-3.25,36.77-6.54,54.59-11.77,18.7-5.5,37.57-8.23,56.86-10.07,11.45-1.1,23.21-3.44,33.86-7.67,29.92-11.86,41.7-44,16.89-72-29.15-32.88-64-56-107.8-64.06-34.16-6.31-65.77-18.81-94.6-38.42a326.87,326.87,0,0,0-33.43-20c-28-14.44-57.86-22.83-89.45-20.56C90.54,985.49,45.29,984.11,0,983.42ZM332.65,394a84.47,84.47,0,0,0,39-7.61A112.51,112.51,0,0,0,396,371.26c9.58-7.88,10.65-18.68,6.34-30.05A39.21,39.21,0,0,0,381,318.51,141.55,141.55,0,0,0,355.5,310c-14.6-3.31-29.44-5.58-44.16-8.39-9.35-1.78-17.56-5.32-24.09-12.92-7.58-8.84-17.75-13.84-29.15-16.31-6.83-1.48-13.56-3.5-20.45-4.59a128.45,128.45,0,0,0-21.75-2c-16.29.22-31.49,5.72-46,12.3-14.93,6.77-28.4,15.62-36.25,31.41-3.1,6.23-9.57,10.82-14.61,16.06-6,6.2-12.94,11.66-17.89,18.58-9.41,13.15-7.08,25.73,5.44,36.09A55.46,55.46,0,0,0,132.74,392c42.73,7.58,85.53,7.34,128.32.6,12.23-1.92,24.31-3.23,36.75-1.44C309.33,392.77,321,393.11,332.65,394ZM894.09,704.18v-.45c7.66,0,15.33.32,23-.08a48.55,48.55,0,0,0,26-9.3c14.7-10.53,16.06-30.06,2.78-42.32-3.6-3.32-8.38-5.33-12.39-8.25s-8.55-5.55-11.25-9.43c-11-15.85-26.11-23.34-45.1-22.89-5.42.13-9.1-1.56-13.27-4.87-26.9-21.35-55-20-77.35,2.2-9.15,9.1-19.42,13.49-31.69,14.85-3.64.4-7.26,1-10.86,1.66a74.13,74.13,0,0,0-43.29,24.92c-8.91,10.19-9.28,20.62-1.74,31.93,4,6,9.42,10.62,16.16,12.82a262.46,262.46,0,0,0,27,6.93c6.81,1.43,13.85,1.76,20.71,3,16.68,3,33.3,6.3,50,9.25,13.84,2.44,27-.33,40.15-4.89,7.74-2.67,16.08-3.85,24.25-4.93C882.69,703.58,888.43,704.18,894.09,704.18ZM579.58,2004.32c23.42-.74,43.45-6.48,59.72-22.2a79.38,79.38,0,0,1,7.05-5.52c7.92-6,9.74-12.83,5.6-21.87-3.27-7.14-8.61-12.51-15-17-13.17-9.38-28.08-13.41-43.94-14.53a45.65,45.65,0,0,1-22.44-7.36,44.23,44.23,0,0,0-14.58-6.18c-12.48-2.68-23.88-1.05-31.8,10.66a11.09,11.09,0,0,1-5.09,4.34c-7.53,2.45-15.1,5.29-22.88,6.34-12.54,1.7-23.8,5.72-33.84,13.45-6.56,5-13.29,9.9-20.09,14.63-10.77,7.49-11.94,16.38-3,25.82,7.54,8,17.18,12.53,27.42,15.71,23.3,7.22,46.91,9.34,70.82,3.1,8.81-2.3,17.53-3.24,26.61-1.15C569.66,2003.8,575.41,2003.87,579.58,2004.32ZM2904.78,732.11c7.75,2.32,14.64,4.72,21.69,6.4,8.69,2.07,12.93-2.55,10.32-11-2.08-6.69-4.82-13-10.3-17.86s-8.28-10.24-4.83-17.61c1-2,1-4.53,1.35-6.83,1.37-8.57-2.4-11.83-10.8-9.18a41.2,41.2,0,0,0-8.28,3.44c-6.4,3.67-12,2.27-17.51-1.91a44.73,44.73,0,0,0-9.27-5.78c-5.68-2.4-10,.21-10.69,6.32a34.27,34.27,0,0,0,.55,8.9c.72,4.85,1.73,9.65,2.7,14.93-2.92.65-5.1,1.24-7.32,1.61-4.6.76-9.37.91-13.75,2.3-2.44.78-5.59,3.3-6,5.47s1.84,5.26,3.56,7.44c1.13,1.44,3.33,2.12,5.14,2.93,5.48,2.41,10.85,5.19,16.54,6.91,5,1.5,7.09,4.46,7.55,9.19.36,3.64.43,7.32,1,10.93.6,3.93,1.11,8,2.57,11.64,2.45,6.16,8.57,7.16,12.48,1.85,2.9-3.94,4.71-8.73,6.68-13.29C2900.52,743.52,2902.51,738,2904.78,732.11ZM2496.54,1995.59c-6.94,1.13-13.1,2.2-19.29,3.1-3.88.57-7.38,1.78-7.95,6.16-.56,4.22,2.19,6.82,5.7,8.46,6,2.8,12,5.94,18.25,8s9,5.33,9.38,12.07c.45,7.78.37,16,4.8,22.81,11.2,1.17,11.31,1.21,15.41-8.23,2.24-5.18,4-10.57,6.14-15.79a74.12,74.12,0,0,1,3.47-6.57c7.82,2.35,14.72,4.85,21.82,6.46,7.6,1.71,12.07-2.78,9.67-10.11-1.92-5.84-4.6-12-8.66-16.42-6.3-6.92-10.49-13.46-6.1-22.9a16.56,16.56,0,0,0,1.08-5.86c.39-6.58-2.66-9.34-9.11-7.8a41.84,41.84,0,0,0-10.21,3.91c-6.42,3.5-12,2.35-17.52-1.9a46.14,46.14,0,0,0-8.33-5.46c-6.52-3.07-11.22-.25-11.62,7a51.12,51.12,0,0,0,.86,9.91C2494.91,1986.57,2495.71,1990.73,2496.54,1995.59Zm-115.33,469.07c-.67-.16-.24-.19-.06,0q6.15,6.54,12.23,13.14c3,3.26,6.17,6.72,11.09,4.82,5.32-2.05,5.71-7.1,5.31-11.81-.44-5.28-1-10.71-2.64-15.7-2.43-7.33-.32-12.21,6.12-15.78,1.17-.64,2.22-1.48,3.32-2.23,3.1-2.14,6.06-4.49,5.48-8.78-.63-4.57-4-6.88-8-7.94a96.1,96.1,0,0,0-16.61-3.29c-4.62-.37-7.13-2.39-9.27-6.2a100.93,100.93,0,0,0-9.72-15.07c-5.15-6.25-11.7-5.26-14.73,2.29a54.33,54.33,0,0,0-3.39,15.49c-.57,6.63-2.67,11.38-9.57,13.44a31.76,31.76,0,0,0-9.81,4.84c-2.47,1.84-5.42,4.64-5.78,7.32-.56,4.3,3.72,5.84,7.3,6.84,4.73,1.33,9.54,2.36,15.21,3.73-1.19,4.33-2.14,7.77-3.08,11.21-1.4,5.14-3.17,10.22-4,15.44-.36,2.25.58,6.24,2,6.88,2.21,1,5.59.17,8.11-.81,2-.79,3.48-3,5.23-4.54C2370.71,2473.79,2375.49,2469.64,2381.21,2464.66Zm137.53,397.89c3.09,3.36,5.33,5.76,7.54,8.19q3.69,4.07,7.34,8.14c2.59,2.89,5.64,4.95,9.63,3.66,4.63-1.49,5.59-5.63,5.27-9.7-.52-6.59-1-13.31-2.75-19.64s.19-10.2,5.41-13.25c1.43-.84,2.7-1.94,4.09-2.84,3.48-2.27,6.67-4.86,5.68-9.56-.93-4.39-4.41-6.6-8.45-7.58a113.89,113.89,0,0,0-16.59-3.16c-4.2-.38-6.51-2.19-8.46-5.68a110,110,0,0,0-9.61-15.1c-5.38-6.73-12.18-5.75-15.36,2.25a50,50,0,0,0-3,14.53c-.56,7.41-3.28,12.57-10.91,14.58a33.72,33.72,0,0,0-7.22,3.35c-3.49,1.9-7.61,3.64-7.23,8.53s4.83,5.83,8.65,6.89c4.37,1.21,8.8,2.18,13.93,3.43-2.39,8.69-4.58,16.27-6.54,23.92-.89,3.47-2.37,7.51,1.57,10,4.3,2.69,7.57-.41,10.51-3.1s5.69-5.59,8.4-8.52S2515.8,2866,2518.74,2862.55Zm214.87-1125.69c-4.65.59-8.85,1.17-13.06,1.63-3.3.36-6.66.33-9.92.92-3.69.67-7.92,2.18-7.88,6.31,0,3.14,2.35,6.51,4.33,9.3,1.25,1.77,3.78,2.61,5.67,4,2.09,1.48,4.11,3,6.18,4.6-1.28,3.07-2.35,5.49-3.3,8a53.66,53.66,0,0,0-3,8.42c-1.56,7.51,3,11.71,10.27,9.37a36.07,36.07,0,0,0,8.73-4.63c3.53-2.38,6.77-5.16,10.41-8,5.21,4,9.67,8,14.79,10.91,2.47,1.4,7,1.85,9.1.45s3.21-5.78,2.78-8.55c-.8-5.17-2.86-10.19-4.73-15.14-1.46-3.84-.66-6.36,3.12-8,3.32-1.49,6.82-2.79,9.81-4.8,6.35-4.25,6.52-10.06.43-14.55a25.31,25.31,0,0,0-8.87-4.31c-6.68-1.57-11.13-5.53-14.48-11.21-1.34-2.28-3-4.39-4.51-6.58-2-2.9-4.39-5.21-8.24-4.1s-4.62,4.28-5,7.78C2735.46,1724.47,2734.53,1730.33,2733.61,1736.86ZM2770.13,386c-1.62,3.85-3.12,7.12-4.38,10.48-1.85,4.92-5,10.49.14,14.68,5.46,4.42,10.71.31,15.4-2.75,4.09-2.67,7.89-5.8,11.93-8.81,5,3.81,9.41,7.29,14,10.6,3.17,2.31,7.21,3.55,10,.64,1.93-2,2.87-6,2.56-8.85-.45-4.19-2.3-8.27-3.77-12.31-2.86-7.95-2.84-8.13,5.11-11.9,1.5-.71,3-1.32,4.53-2.05,3.76-1.84,6.85-4.29,6.85-8.93s-3.35-7-7-8.87a30.28,30.28,0,0,0-7.35-3c-5.67-1.2-9.35-4.64-12.24-9.37-1.55-2.55-3.41-4.91-5.09-7.38-1.93-2.84-4.07-5.45-8-4.73-4.57.85-5.14,4.62-5.68,8.32l-2.65,18.19c-7.52.69-14.42,1.19-21.28,2-4,.46-8.12,1.5-9.39,6.09-1.38,5,1.7,8.18,5.36,10.78C2762.64,381.23,2766.28,383.44,2770.13,386ZM2388.41,1688.41c4.88,1.72,8.55,3.3,12.37,4.28s8,1.48,11.09-2.14c2.93-3.47,2.62-7.39.87-11.24a98.48,98.48,0,0,0-5-9.76c-2.15-3.57-2.24-6.82.47-10.08.63-.76,1.15-1.63,1.72-2.45,2.59-3.76,4.3-7.87,1.47-12s-7.46-3.73-11.82-2.86c-3.91.79-7.79,1.7-11.66,2.68-4.26,1.08-7.71.25-10.65-3.29a85.21,85.21,0,0,0-9-9.32c-7-6.18-13.21-4.82-15.89,4-1.71,5.63-2.16,11.73-2.57,17.66-.31,4.42-1.81,7.39-5.75,9.64a73,73,0,0,0-13.1,9,9.71,9.71,0,0,0-2.62,7.67c.28,1.73,3.48,3.72,5.7,4.25,4.83,1.15,9.85,1.49,14.8,2.07,9.4,1.09,10.29,2,10.83,11.68.2,3.65-.08,7.36.47,10.94,1.28,8.19,7.38,10.39,13.48,4.68a40.19,40.19,0,0,0,6.95-9.62C2383.33,1699.36,2385.57,1694.22,2388.41,1688.41Zm402-772.61c4.42,1.54,7.85,2.73,11.27,4,4.3,1.53,8.63,2.17,12.06-1.56,3.73-4.07,2.94-8.91.34-13-5.17-8.11-7.54-15.22-.48-24.21,4.42-5.63-.18-11.5-7.79-11.67-1.65,0-3.53-.27-4.95.37-12.64,5.68-21.38,1.22-29.8-9-7-8.54-14.2-6.24-17.07,4.46-1.45,5.4-1.79,11.14-2.16,16.76a10,10,0,0,1-5.33,8.82,110.82,110.82,0,0,0-14,9.56c-1.78,1.46-3.56,4.62-3.15,6.55s3.34,4.06,5.55,4.62a93.67,93.67,0,0,0,14.79,2.17c10.56,1,11.59,2,12.08,12.8.17,3.65-.07,7.38.58,11,1.28,7,7,9.26,12.43,4.56a39.41,39.41,0,0,0,7.81-10.19C2785.36,926.89,2787.53,921.68,2790.37,915.8Zm105.81-743.6a92,92,0,0,0,8.25-4.09c6.39-4,6.71-9.59,1-14.62a9.42,9.42,0,0,0-2.42-1.73c-6.36-2.62-9.4-7.78-11.87-13.89-1.43-3.54-4.39-6.52-6.91-9.54-3.27-3.93-6.92-3.4-10.32-.12s-7.05,6.27-9.68,10c-5,7.17-11.12,10.8-20.1,9.54-4-.57-8.21.07-10.23,4.43-2.21,4.75.49,8.39,3.51,11.56s6.22,5.72,9.66,8.84c-1.84,4.17-3.44,7.77-5,11.39-2.23,5.12-5.91,10.58-.51,15.52,5,4.59,9.95.67,14.6-1.73,2.36-1.22,4.59-2.69,6.91-4,2.56-1.41,5.16-2.75,8.11-4.32,3.25,3,6,5.8,9.08,8.29,6.75,5.5,13.72,4.05,16.63-4.1,1.49-4.17,1.21-9.06,1.19-13.62C2898,177.54,2896.89,175,2896.18,172.2ZM2671,2688.93c-4-3-7.12-5.44-10.31-7.78-2.14-1.58-4.19-3.84-6.58-4.35-3-.62-6.9-.72-9.18.81-1.79,1.19-2.33,5.22-2.25,7.95a23.36,23.36,0,0,0,2.47,8.58c2.61,5.8,1.64,10.83-2,15.89a54.15,54.15,0,0,0-5.78,10.46c-2.83,6.79-.62,10.62,6.67,12.37a14.91,14.91,0,0,0,3.94.62c6.47-.28,10.11,2.71,13,8.56,4.07,8.13,9.21,8.42,15.62,1.6,3.36-3.58,6.14-7.7,9.43-11.9,2.41,1,4.53,1.81,6.61,2.74s4.13,2.23,6.32,2.95c7.52,2.47,12.74-2.08,11.15-9.85a31,31,0,0,0-3.05-7.31c-2.38-4.76-4.63-9.62-7.46-14.11-2.63-4.17-2.38-8-.47-12.21a61.65,61.65,0,0,0,4.47-12.15c1.3-6.15-3-9.66-9-7.41-2.75,1-5.21,2.9-7.75,4.47C2681.9,2682,2676.87,2685.23,2671,2688.93Zm104.75-1523.31c-5.71-4.31-10.36-8.08-15.29-11.44-3.18-2.17-7.39-3.2-10.11-.15-1.85,2.09-2.12,5.87-2.41,9-.17,1.85.71,3.94,1.56,5.71,3.59,7.41,2.34,14-2.63,20.35a33.21,33.21,0,0,0-4.92,9.74c-1.86,5.6.1,8.9,5.74,10.58a19.34,19.34,0,0,0,5.9,1c6.09-.17,9.49,2.77,12.28,8.12,4.45,8.55,9.59,8.89,16.21,1.65,3.3-3.6,6.09-7.66,9.28-11.73,4.47,2.1,8.21,4.52,12.3,5.55a13.37,13.37,0,0,0,9.19-1c3.49-2.05,3.65-6.11,2.07-9.84-1-2.44-2.27-4.81-3.48-7.17-2.42-4.74-4.7-9.56-7.4-14.14a9.28,9.28,0,0,1-.37-9.41c1.54-3.31,3.36-6.68,3.91-10.21.52-3.3.7-7.71-1.06-10.07-2.56-3.42-6.68-1.31-9.9.66-2.27,1.38-4.43,3-6.69,4.36C2785.43,1159.83,2780.88,1162.53,2775.76,1165.62ZM2580.43,230c-4.9-.38-8.85-.93-12.81-.94-10.31,0-15,7.2-9.27,15.77,5,7.45,5.45,13.63.16,20.58a11.1,11.1,0,0,0-1.61,3.63c-1.85,6.5,2.45,11.32,9.18,9.93,3.2-.66,6.23-2.22,9.28-3.5s5.84-2.65,8.72-4c3.16,3.36,5.28,6.58,8.25,8.46,2.49,1.59,6.51,2.93,8.86,2s4.25-4.75,4.88-7.62c.82-3.75.2-7.81.2-11.83,2.25-.7,4.12-1.29,6-1.85,4.21-1.25,8.78-2.47,9.34-7.66s-3.36-7.64-7.36-9.55-5.79-5-7.13-9a114.72,114.72,0,0,0-6.85-16.48c-1.22-2.37-3.89-5.32-6.09-5.48s-4.86,2.68-6.43,4.85C2585.06,221.08,2583.1,225.31,2580.43,230Zm247.89,2085.42c2.41-.78,4.56-1.55,6.75-2.17,4-1.13,7.89-2.58,8.53-7.24s-2.59-7.51-6.34-9.12c-5.19-2.23-7.07-6.39-8.72-11.31a104.69,104.69,0,0,0-7-16.42c-3.19-5.9-7.67-5.79-11.32,0-2.81,4.43-5.28,9.07-7.95,13.7-4.59-.34-8.53-.85-12.48-.88-10.38-.07-14.41,6.57-9.73,15.78a15.33,15.33,0,0,0,2,3.41c4.06,4.43,3.48,8.89.39,13.51a39.21,39.21,0,0,0-2.34,4.39c-1.69,3.38-3,6.87-.23,10.24,3,3.64,6.89,3.46,10.88,1.81,5.13-2.14,10.25-4.31,15.54-6.53,2.59,2.84,4.7,5.39,7.06,7.67,2.7,2.6,5.76,4.63,9.8,3s5.09-4.93,5.11-8.83C2828.33,2322.84,2828.32,2319.24,2828.32,2315.46Zm-421.38,350.1a88.71,88.71,0,0,0,7.18,7c6.22,4.86,12.39,2.47,13.93-5.34.62-3.16.77-6.42,1.1-9.36l5.45-2.18c3.81-1.51,7.57-3.21,7.65-8.08.08-5.1-3.38-7.79-7.55-9.47-4.58-1.85-9.34-3.26-14.15-4.91-1.34-2.54-2.55-5.3-4.17-7.79-3.72-5.7-8.56-6.81-11.83-1.4-5.34,8.87-12.1,11.27-21.5,8.77a2.85,2.85,0,0,0-2,0c-2.69,1.6-6.36,2.8-7.56,5.2-.83,1.67,1.21,5.55,3,7.55,2.78,3.16,6.41,5.57,9.86,8.44-1.3,3.17-3,5.82-3.38,8.65-.36,3-.34,6.8,1.19,9.15,2.27,3.51,6.44,3,9.92,1.14C2398.47,2670.66,2402.67,2668,2406.94,2665.56Zm84.25-1534.87c-1.13,3-2.11,5.78-3.18,8.5-1.43,3.62-2,7.15,1.39,10s6.87,2.18,10.25.36c4-2.17,7.9-4.67,13.1-7.78,2.1,2.46,4.09,5.66,6.87,7.85,5.47,4.31,11.12,2.39,13-4.22,1-3.45,1.3-7.1,1.94-10.8,2.26-1,4.41-1.78,6.45-2.79,8.19-4.07,8.66-11,.85-15.75a29.81,29.81,0,0,0-10.1-4c-4.35-.79-6.76-2.65-8.8-6.72-5.14-10.28-9.37-10.39-16.45-1.22a9.91,9.91,0,0,0-1.12,1.64c-2.06,4.21-5.36,5.4-9.87,4.63-3.25-.55-6.73-1.18-9.86-.55-2.6.52-6.09,2.35-6.89,4.47s.73,5.74,2.4,7.72C2483.92,1125.26,2487.6,1127.67,2491.19,1130.69Zm-334.56,174.4c.08-7.91-3.39-11.08-11.5-10.08-4.8.6-8.64.63-12.71-3-6.38-5.75-11.42-3.74-13.58,4.6a32.35,32.35,0,0,0-.8,5.89c-.41,6.31-1.39,11.92-6.12,17.17-6,6.73-3.69,13,5,15.53,3.58,1,5.48,2.9,7.29,5.93,4.86,8.15,9.66,8.8,16.5,2,3.45-3.45,6.86-5.58,11.85-6.26,9.34-1.27,12.64-10.43,5.46-16.6-3.18-2.73-4-5.78-2.39-9.72A23.84,23.84,0,0,0,2156.63,1305.09ZM2051.86,2828.17c0-7.26-3.88-11.05-11-10-5.64.8-10,.4-14.47-3.85-5-4.67-10-2.62-12.12,3.91a27.93,27.93,0,0,0-1.14,5.88c-.69,7.24-1.52,13.91-7,20-5.23,5.84-2.49,11.92,5.42,14.19a11.56,11.56,0,0,1,7.51,5.69c5,8.4,9.67,9.12,16.46,2.4a21.24,21.24,0,0,1,11.83-6.44c10-1.8,12.07-8.32,5.52-16.53-2.62-3.27-3.48-6.18-2.27-10C2051.23,2831.49,2051.55,2829.51,2051.86,2828.17Z"/><path class="cls-1" d="M0,1195.31V995.41c9-.07,18-.09,27-.24,34-.56,67.9-1,101.85-1.81,16-.37,31.83-.09,47.66,3.27,27.25,5.8,51.35,18.25,74,33.72a260.2,260.2,0,0,0,100.77,41.45c41.35,7.61,74.33,29.46,101.73,60.71,22.13,25.22,6.63,47.49-13.57,55.08a89.12,89.12,0,0,1-24.11,5.82c-25,1.89-49.53,5.54-73.34,13.73-7.51,2.59-15.49,3.83-23.28,5.55-23.79,5.23-47.21,5.79-70.84-2.21-22.69-7.68-45.77-6.38-68.79.39-25.36,7.47-51.3,11.41-77.87,10-23.32-1.25-46.31-4.8-69.25-9a46.2,46.2,0,0,1-23.78-11.74C5.89,1198,2.74,1196.89,0,1195.31Z"/><path class="cls-1" d="M0,2408.65v-189.9c10.56-1,21.14-1.77,31.69-2.92,20.93-2.28,41.81-3.71,62.46,2.06,30,8.4,54.19,25.2,71.72,51,9.79,14.4,23.1,22.78,40,25.57a166.51,166.51,0,0,0,22.85,2c13.66.33,27.32,0,41,.19,25.46.39,48.27,8.88,68.84,23.51,9.73,6.91,17.14,15.89,20.33,27.62,1,3.74,2.11,8.52.66,11.66-5.68,12.26-10.41,25.32-22.67,33.29-23.83,15.48-49.47,24.62-78.25,22.13-17.76-1.53-35.23.12-52.74,2.64-37.32,5.38-74.33,5-110.79-6.06a99,99,0,0,0-37.51-4.3c-8.29.72-16.55,1.8-24.82,2.67C21.77,2411,10.82,2411.7,0,2408.65Z"/><path d="M0,1195.31c2.74,1.58,5.89,2.72,8.15,4.82a46.2,46.2,0,0,0,23.78,11.74c22.94,4.18,45.93,7.73,69.25,9,26.57,1.43,52.51-2.51,77.87-10,23-6.77,46.1-8.07,68.79-.39,23.63,8,47,7.44,70.84,2.21,7.79-1.72,15.77-3,23.28-5.55,23.81-8.19,48.34-11.84,73.34-13.73a89.12,89.12,0,0,0,24.11-5.82c20.2-7.59,35.7-29.86,13.57-55.08-27.4-31.25-60.38-53.1-101.73-60.71a260.2,260.2,0,0,1-100.77-41.45c-22.67-15.47-46.77-27.92-74-33.72-15.83-3.36-31.65-3.64-47.66-3.27-34,.78-67.9,1.25-101.85,1.81-9,.15-18,.17-26.95.24v-12c45.29.69,90.54,2.07,135.84-1.18,31.59-2.27,61.46,6.12,89.45,20.56a326.87,326.87,0,0,1,33.43,20c28.83,19.61,60.44,32.11,94.6,38.42,43.83,8.11,78.65,31.18,107.8,64.06,24.81,28,13,60.18-16.89,72-10.65,4.23-22.41,6.57-33.86,7.67-19.29,1.84-38.16,4.57-56.86,10.07-17.82,5.23-36.26,8.52-54.59,11.77-14.24,2.52-28.49,1.1-42.53-2.8a283.45,283.45,0,0,0-30.14-6.81c-14-2.29-27.93-.62-41.45,3.54-44,13.56-88.54,13.65-133.42,5.47-4.91-.9-9.81-2-14.76-2.53-12.17-1.36-23.44-4.83-33-12.88-1-.81-2.41-1-3.64-1.47Z"/><path d="M0,2408.65c10.82,3,21.77,2.34,32.74,1.18,8.27-.87,16.53-1.95,24.82-2.67a99,99,0,0,1,37.51,4.3c36.46,11.08,73.47,11.44,110.79,6.06,17.51-2.52,35-4.17,52.74-2.64,28.78,2.49,54.42-6.65,78.25-22.13,12.26-8,17-21,22.67-33.29,1.45-3.14.35-7.92-.66-11.66-3.19-11.73-10.6-20.71-20.33-27.62-20.57-14.63-43.38-23.12-68.84-23.51-13.66-.21-27.32.14-41-.19a166.51,166.51,0,0,1-22.85-2c-16.89-2.79-30.2-11.17-40-25.57-17.53-25.79-41.69-42.59-71.72-51-20.65-5.77-41.53-4.34-62.46-2.06-10.55,1.15-21.13,2-31.69,2.92v-8c8.11-1.69,16.15-3.93,24.35-5,21.82-2.72,43.69-5,65.55-.14,34.21,7.69,62.51,25,82.41,53.88,12.25,17.76,28.31,25.23,48.94,25.56,18.3.29,36.61.48,54.91,1.19,25,1,47.35,10.13,67.65,24.25,13.84,9.63,23.83,22.37,26.65,39.44.78,4.73.81,10.34-1,14.61-7.67,18-17.68,33.9-36.22,43.4-26.09,13.38-52.85,21-82.57,17.52-10.73-1.25-21.87.5-32.78,1.43-16.57,1.41-33.07,4-49.66,4.81a205.37,205.37,0,0,1-69.11-8.1c-19.28-5.79-38.49-6-58.27-3.92-13.49,1.41-27.21.68-40.83.9Z"/><path d="M332.65,394c-11.62-.93-23.32-1.27-34.84-2.93-12.44-1.79-24.52-.48-36.75,1.44-42.79,6.74-85.59,7-128.32-.6a55.46,55.46,0,0,1-26.16-11.72c-12.52-10.36-14.85-22.94-5.44-36.09,5-6.92,11.92-12.38,17.89-18.58,5-5.24,11.51-9.83,14.61-16.06,7.85-15.79,21.32-24.64,36.25-31.41,14.52-6.58,29.72-12.08,46-12.3a128.45,128.45,0,0,1,21.75,2c6.89,1.09,13.62,3.11,20.45,4.59,11.4,2.47,21.57,7.47,29.15,16.31,6.53,7.6,14.74,11.14,24.09,12.92,14.72,2.81,29.56,5.08,44.16,8.39A141.55,141.55,0,0,1,381,318.51a39.21,39.21,0,0,1,21.35,22.7c4.31,11.37,3.24,22.17-6.34,30.05a112.51,112.51,0,0,1-24.38,15.17A84.47,84.47,0,0,1,332.65,394Zm-3.56-11.16c4-.19,11.35,0,18.55-1,14.05-1.94,27.15-6.74,38.3-15.79,9-7.31,10.15-14.53,4.53-24.63-3.53-6.34-8.61-11.21-15.35-13.69a201.33,201.33,0,0,0-25.67-7.92c-14.28-3.17-28.77-5.37-43.12-8.23-10-2-18.85-6.11-25.7-14.18a39.94,39.94,0,0,0-20.72-13.29c-9.33-2.38-18.68-4.91-28.17-6.42a60.13,60.13,0,0,0-19.71-.27c-11.06,2-22.26,4.43-32.68,8.51-14.94,5.85-28.4,13.82-36.51,29.26-3.84,7.33-11.29,12.8-17.25,19-4.83,5-10.52,9.32-14.67,14.81-7.26,9.59-6.27,17,4,23.57a63.6,63.6,0,0,0,22.88,9.07c38.68,6.55,77.59,6.51,116.36.88,14.91-2.17,29.66-3.95,44.71-2.34C307.8,381.14,316.77,381.79,329.09,382.88Z"/><path d="M894.09,704.18c-5.66,0-11.4-.6-17,.14-8.17,1.08-16.51,2.26-24.25,4.93-13.15,4.56-26.31,7.33-40.15,4.89-16.69-2.95-33.31-6.28-50-9.25-6.86-1.23-13.9-1.56-20.71-3a262.46,262.46,0,0,1-27-6.93c-6.74-2.2-12.14-6.79-16.16-12.82-7.54-11.31-7.17-21.74,1.74-31.93a74.13,74.13,0,0,1,43.29-24.92c3.6-.67,7.22-1.26,10.86-1.66,12.27-1.36,22.54-5.75,31.69-14.85,22.33-22.21,50.45-23.55,77.35-2.2,4.17,3.31,7.85,5,13.27,4.87,19-.45,34.07,7,45.1,22.89,2.7,3.88,7.29,6.53,11.25,9.43s8.79,4.93,12.39,8.25c13.28,12.26,11.92,31.79-2.78,42.32a48.55,48.55,0,0,1-26,9.3c-7.64.4-15.31.08-23,.08Zm-3.31-10.84c7,0,14,.16,21,0,8.82-.26,17.19-2.44,24.5-7.51,9.78-6.79,10.51-18.48,1.6-26.34a38.36,38.36,0,0,0-9.28-5.76,37.76,37.76,0,0,1-16.35-14.16c-6.77-10.55-17-15.63-29.11-17.09-2.78-.34-6.26-.07-8.48,1.37-4.52,2.93-7.44,1.14-10.5-1.9a84.47,84.47,0,0,0-6.4-6.3c-21.62-17.44-43.74-18.05-63.76.74-1,.91-2,1.82-2.84,2.81-6.45,7.25-14.61,11.45-24,13.26-6.21,1.19-12.46,2.15-18.71,3.11a64.11,64.11,0,0,0-38.72,20.94c-6.94,7.64-7.2,13.46-.42,21.11A27.14,27.14,0,0,0,719.65,685c7.46,2.7,15.24,5.4,23.05,6,11.71,1,22.93,3.51,34.27,6.22a332.75,332.75,0,0,0,34.4,5.94c10.6,1.37,21.62,2.18,31.57-2.24C858.36,694.11,874.31,692.56,890.78,693.34Z"/><path d="M579.58,2004.32c-4.17-.45-9.92-.52-15.38-1.79-9.08-2.09-17.8-1.15-26.61,1.15-23.91,6.24-47.52,4.12-70.82-3.1-10.24-3.18-19.88-7.76-27.42-15.71-9-9.44-7.79-18.33,3-25.82,6.8-4.73,13.53-9.58,20.09-14.63,10-7.73,21.3-11.75,33.84-13.45,7.78-1,15.35-3.89,22.88-6.34a11.09,11.09,0,0,0,5.09-4.34c7.92-11.71,19.32-13.34,31.8-10.66a44.23,44.23,0,0,1,14.58,6.18,45.65,45.65,0,0,0,22.44,7.36c15.86,1.12,30.77,5.15,43.94,14.53,6.35,4.52,11.69,9.89,15,17,4.14,9,2.32,15.82-5.6,21.87a79.38,79.38,0,0,0-7.05,5.52C623,1997.84,603,2003.58,579.58,2004.32Zm-135.92-32.39c6.08,10.26,14.87,14.25,24,17.33,21.48,7.23,43.38,10.14,65.69,4.09,11.81-3.19,23.45-2.92,35.53-1.2,23.8,3.39,45.68-1.31,63.62-18.66a56.14,56.14,0,0,1,4.61-3.81c6.79-5.25,7.42-8.06,2.32-14.64a42.94,42.94,0,0,0-8.62-8.19,64.11,64.11,0,0,0-33.28-12.12c-12-1-23.6-3-33.88-10.31-3.89-2.74-9.14-4-14-4.84-6.17-1-12.7.24-15.62,6.24s-7.58,8.17-13,9.78c-8.55,2.54-17.12,5.45-25.89,6.68a55.06,55.06,0,0,0-28.61,12.88c-4.81,4-10.1,7.51-15.19,11.23C449,1968.11,446.65,1969.79,443.66,1971.93Z"/><path d="M2904.78,732.11c-2.27,5.84-4.26,11.41-6.61,16.84-2,4.56-3.78,9.35-6.68,13.29-3.91,5.31-10,4.31-12.48-1.85-1.46-3.65-2-7.71-2.57-11.64-.56-3.61-.63-7.29-1-10.93-.46-4.73-2.59-7.69-7.55-9.19-5.69-1.72-11.06-4.5-16.54-6.91-1.81-.81-4-1.49-5.14-2.93-1.72-2.18-4-5.2-3.56-7.44s3.54-4.69,6-5.47c4.38-1.39,9.15-1.54,13.75-2.3,2.22-.37,4.4-1,7.32-1.61-1-5.28-2-10.08-2.7-14.93a34.27,34.27,0,0,1-.55-8.9c.69-6.11,5-8.72,10.69-6.32a44.73,44.73,0,0,1,9.27,5.78c5.53,4.18,11.11,5.58,17.51,1.91a41.2,41.2,0,0,1,8.28-3.44c8.4-2.65,12.17.61,10.8,9.18-.37,2.3-.39,4.79-1.35,6.83-3.45,7.37-.53,12.88,4.83,17.61s8.22,11.17,10.3,17.86c2.61,8.41-1.63,13-10.32,11C2919.42,736.83,2912.53,734.43,2904.78,732.11Zm21.66-3.93c-2-4-2.85-6.52-4.38-8.49-3.67-4.71-9.14-8.6-11.12-13.86-1.93-5.1-.42-11.5-.42-17.4-5,1.06-10.86,3.66-16.35,3.06-5.72-.61-11.1-4.3-17.73-7.11,1.38,6.41,2.69,11.53,3.53,16.72,1,6-.73,8.73-6.52,10.44-3.76,1.11-7.67,1.72-14,3.08,5.94,2.36,9.74,4.11,13.7,5.38,6.74,2.17,10.58,6.51,11.43,13.59.54,4.48,1.33,8.93,2.34,15.63,2-4.62,3.25-7.22,4.32-9.87,1.25-3.08,2.23-6.28,3.6-9.3,3.54-7.88,6.73-9.34,15-7C2914.81,724.53,2919.76,726.13,2926.44,728.18Z"/><path d="M2496.54,1995.59c-.83-4.86-1.63-9-2.21-13.21a51.12,51.12,0,0,1-.86-9.91c.4-7.25,5.1-10.07,11.62-7a46.14,46.14,0,0,1,8.33,5.46c5.5,4.25,11.1,5.4,17.52,1.9a41.84,41.84,0,0,1,10.21-3.91c6.45-1.54,9.5,1.22,9.11,7.8a16.56,16.56,0,0,1-1.08,5.86c-4.39,9.44-.2,16,6.1,22.9,4.06,4.45,6.74,10.58,8.66,16.42,2.4,7.33-2.07,11.82-9.67,10.11-7.1-1.61-14-4.11-21.82-6.46a74.12,74.12,0,0,0-3.47,6.57c-2.14,5.22-3.9,10.61-6.14,15.79-4.1,9.44-4.21,9.4-15.41,8.23-4.43-6.85-4.35-15-4.8-22.81-.4-6.74-3.1-10.06-9.38-12.07s-12.23-5.15-18.25-8c-3.51-1.64-6.26-4.24-5.7-8.46.57-4.38,4.07-5.59,7.95-6.16C2483.44,1997.79,2489.6,1996.72,2496.54,1995.59Zm56.18,25.83c-1-3.05-1.12-4.44-1.79-5.51a24.58,24.58,0,0,0-4.2-5.5c-8.45-7.4-12.66-15.94-8.14-27.19.16-.41-.47-1.13-.65-1.53-5.8,1.15-11.68,3.62-17.26,3s-10.63-4.21-17-7c1.12,5.8,2.1,10.61,3,15.45,1.37,7.7-.15,10-7.82,12-3.36.86-6.77,1.53-12.35,2.78,5.29,2.15,8.49,3.94,11.92,4.74,9.24,2.15,13,8.3,13.82,17.17.31,3.28-.73,7.13,2.9,10.5,2.57-6.47,4.63-12.4,7.24-18.08,3.09-6.72,6.5-8.17,13.62-6.19C2541,2017.54,2545.93,2019.27,2552.72,2021.42Z"/><path d="M2381.21,2464.66c-5.72,5-10.5,9.13-15.26,13.3-1.75,1.54-3.21,3.75-5.23,4.54-2.52,1-5.9,1.77-8.11.81-1.46-.64-2.4-4.63-2-6.88.84-5.22,2.61-10.3,4-15.44.94-3.44,1.89-6.88,3.08-11.21-5.67-1.37-10.48-2.4-15.21-3.73-3.58-1-7.86-2.54-7.3-6.84.36-2.68,3.31-5.48,5.78-7.32a31.76,31.76,0,0,1,9.81-4.84c6.9-2.06,9-6.81,9.57-13.44a54.33,54.33,0,0,1,3.39-15.49c3-7.55,9.58-8.54,14.73-2.29a100.93,100.93,0,0,1,9.72,15.07c2.14,3.81,4.65,5.83,9.27,6.2a96.1,96.1,0,0,1,16.61,3.29c4,1.06,7.4,3.37,8,7.94.58,4.29-2.38,6.64-5.48,8.78-1.1.75-2.15,1.59-3.32,2.23-6.44,3.57-8.55,8.45-6.12,15.78,1.65,5,2.2,10.42,2.64,15.7.4,4.71,0,9.76-5.31,11.81-4.92,1.9-8.08-1.56-11.09-4.82q-6.08-6.6-12.23-13.14C2381,2464.47,2380.54,2464.5,2381.21,2464.66ZM2353,2437.71c15,5.48,15,5.48,13.53,26.05,1.72-1,2.31-3.11,3.63-4.54,8.32-9,11.69-8.91,20.12.2,2.53,2.73,5.08,5.43,7.62,8.15.23-7.88-1.29-14.68-1.64-21.54-.4-8.08,7.61-10.89,12.69-16.71-4.72-1-8.47-2.3-12.25-2.37-8.82-.17-14-4.79-17.67-12.28-1.58-3.26-2.9-7.09-7.44-9.33-1.22,7.1-2.2,13.26-3.37,19.39C2366.69,2432.62,2358.49,2433,2353,2437.71Z"/><path d="M2518.74,2862.55c-2.94,3.4-5.45,6.43-8.12,9.32s-5.45,5.83-8.4,8.52-6.21,5.79-10.51,3.1c-3.94-2.47-2.46-6.51-1.57-10,2-7.65,4.15-15.23,6.54-23.92-5.13-1.25-9.56-2.22-13.93-3.43-3.82-1.06-8.25-1.88-8.65-6.89s3.74-6.63,7.23-8.53a33.72,33.72,0,0,1,7.22-3.35c7.63-2,10.35-7.17,10.91-14.58a50,50,0,0,1,3-14.53c3.18-8,10-9,15.36-2.25a110,110,0,0,1,9.61,15.1c2,3.49,4.26,5.3,8.46,5.68a113.89,113.89,0,0,1,16.59,3.16c4,1,7.52,3.19,8.45,7.58,1,4.7-2.2,7.29-5.68,9.56-1.39.9-2.66,2-4.09,2.84-5.22,3.05-7.15,6.9-5.41,13.25s2.23,13.05,2.75,19.64c.32,4.07-.64,8.21-5.27,9.7-4,1.29-7-.77-9.63-3.66q-3.66-4.08-7.34-8.14C2524.07,2868.31,2521.83,2865.91,2518.74,2862.55Zm29.7-33.38c-4.83-1-8-2.21-11.2-2.22-9.91,0-16-4.94-19.92-13.7-1.3-2.9-2.37-6.74-6.88-7.64-1.12,6.69-2,12.93-3.26,19.08-1.6,7.65-9.75,8.23-14.06,11.85,4.29,3.19,10.05,5.39,11.91,9.4,2,4.38.46,10.43.46,16.23,1.09-.94,2.11-1.69,3-2.59,9.44-9.69,12.42-9.62,21.52.42,2.21,2.45,4.53,4.78,6.81,7.17.32-7.64-1.32-14.1-1.68-20.63C2534.68,2838.44,2541.81,2835,2548.44,2829.17Z"/><path d="M2733.61,1736.86c.92-6.53,1.85-12.39,2.56-18.28.42-3.5,1.24-6.69,5-7.78s6.25,1.2,8.24,4.1c1.51,2.19,3.17,4.3,4.51,6.58,3.35,5.68,7.8,9.64,14.48,11.21a25.31,25.31,0,0,1,8.87,4.31c6.09,4.49,5.92,10.3-.43,14.55-3,2-6.49,3.31-9.81,4.8-3.78,1.68-4.58,4.2-3.12,8,1.87,4.95,3.93,10,4.73,15.14.43,2.77-.76,7.21-2.78,8.55s-6.63,1-9.1-.45c-5.12-2.9-9.58-7-14.79-10.91-3.64,2.81-6.88,5.59-10.41,8a36.07,36.07,0,0,1-8.73,4.63c-7.28,2.34-11.83-1.86-10.27-9.37a53.66,53.66,0,0,1,3-8.42c.95-2.46,2-4.88,3.3-8-2.07-1.55-4.09-3.12-6.18-4.6-1.89-1.35-4.42-2.19-5.67-4-2-2.79-4.29-6.16-4.33-9.3,0-4.13,4.19-5.64,7.88-6.31,3.26-.59,6.62-.56,9.92-.92C2724.76,1738,2729,1737.45,2733.61,1736.86Zm-5.78,35.8c13.44-8.19,13.44-8.19,25.41-2.48,0-5.18-1.55-11.07.42-15.32,2.13-4.57,7.57-7.61,11.76-11.49-3.33-1.36-7-2.31-10-4.21-3.19-2-5.8-4.92-8-6.85-3.05,4.85-5,10.9-9.11,13.65-4.48,3-11,2.92-16.75,4.21C2732.8,1760.62,2732.8,1760.62,2727.83,1772.66Z"/><path d="M2770.13,386c-3.85-2.51-7.49-4.72-11-7.17-3.66-2.6-6.74-5.8-5.36-10.78,1.27-4.59,5.36-5.63,9.39-6.09,6.86-.8,13.76-1.3,21.28-2l2.65-18.19c.54-3.7,1.11-7.47,5.68-8.32,3.93-.72,6.07,1.89,8,4.73,1.68,2.47,3.54,4.83,5.09,7.38,2.89,4.73,6.57,8.17,12.24,9.37a30.28,30.28,0,0,1,7.35,3c3.63,1.87,7,4.18,7,8.87s-3.09,7.09-6.85,8.93c-1.49.73-3,1.34-4.53,2.05-7.95,3.77-8,3.95-5.11,11.9,1.47,4,3.32,8.12,3.77,12.31.31,2.9-.63,6.86-2.56,8.85-2.81,2.91-6.85,1.67-10-.64-4.55-3.31-9-6.79-14-10.6-4,3-7.84,6.14-11.93,8.81-4.69,3.06-9.94,7.17-15.4,2.75-5.18-4.19-2-9.76-.14-14.68C2767,393.07,2768.51,389.8,2770.13,386Zm1.61-13.63c11.79,10.62,11.79,10.62,8.08,23.31,7.38-8.53,15.69-8.42,25.75-1.76-6.1-14.78.48-22,11.1-26.53l-19.82-12.42C2793.68,369.36,2792.05,370.54,2771.74,372.32Z"/><path d="M2388.41,1688.41c-2.84,5.81-5.08,10.95-7.83,15.81a40.19,40.19,0,0,1-6.95,9.62c-6.1,5.71-12.2,3.51-13.48-4.68-.55-3.58-.27-7.29-.47-10.94-.54-9.69-1.43-10.59-10.83-11.68-4.95-.58-10-.92-14.8-2.07-2.22-.53-5.42-2.52-5.7-4.25a9.71,9.71,0,0,1,2.62-7.67,73,73,0,0,1,13.1-9c3.94-2.25,5.44-5.22,5.75-9.64.41-5.93.86-12,2.57-17.66,2.68-8.81,8.88-10.17,15.89-4a85.21,85.21,0,0,1,9,9.32c2.94,3.54,6.39,4.37,10.65,3.29,3.87-1,7.75-1.89,11.66-2.68,4.36-.87,8.94-1.35,11.82,2.86s1.12,8.25-1.47,12c-.57.82-1.09,1.69-1.72,2.45-2.71,3.26-2.62,6.51-.47,10.08a98.48,98.48,0,0,1,5,9.76c1.75,3.85,2.06,7.77-.87,11.24-3.06,3.62-7.19,3.15-11.09,2.14S2393.29,1690.13,2388.41,1688.41Zm-42.21-13.53c6.21,2.18,13.7,2.77,17.78,6.81s5,11.59,7.23,17.54c.29-.21,1-.47,1.29-1,1.61-3.26,3.11-6.59,4.66-9.89,4.69-10,8.16-11.4,19-7.81,1.74.58,3.52,1,7.32,2.14-5.12-10.39-12.13-19-1.89-30.61-6,1.26-9.2,1.71-12.26,2.6-7.53,2.18-13.62.38-18.61-5.76-2.37-2.92-5.27-5.42-9.43-9.62-.66,5.83-1.31,9.32-1.41,12.84-.25,9.18-2.59,17-12.1,20.75C2347,1673.17,2346.64,1674.28,2346.2,1674.88Z"/><path d="M2790.37,915.8c-2.84,5.88-5,11.09-7.82,15.93a39.41,39.41,0,0,1-7.81,10.19c-5.46,4.7-11.15,2.48-12.43-4.56-.65-3.57-.41-7.3-.58-11-.49-10.81-1.52-11.81-12.08-12.8a93.67,93.67,0,0,1-14.79-2.17c-2.21-.56-5.15-2.72-5.55-4.62s1.37-5.09,3.15-6.55a110.82,110.82,0,0,1,14-9.56,10,10,0,0,0,5.33-8.82c.37-5.62.71-11.36,2.16-16.76,2.87-10.7,10.05-13,17.07-4.46,8.42,10.24,17.16,14.7,29.8,9,1.42-.64,3.3-.41,4.95-.37,7.61.17,12.21,6,7.79,11.67-7.06,9-4.69,16.1.48,24.21,2.6,4.08,3.39,8.92-.34,13-3.43,3.73-7.76,3.09-12.06,1.56C2798.22,918.53,2794.79,917.34,2790.37,915.8Zm-17.62,11.27c.29-.08.75-.08.85-.27,2.23-4.39,4.35-8.85,6.64-13.21,3.86-7.36,7.46-8.83,15.39-6.52l9.28,2.7c-2.71-6-5.84-10.32-6.44-15s1.31-9.74,2.17-15c-2.82.63-5.5.89-7.9,1.84-8.73,3.44-15.37.76-21-6.28-2.11-2.66-4.8-4.85-8.4-8.42-.66,4.3-1.27,6.5-1.28,8.7,0,11.11-2.09,21.08-13.81,26-.14,0-.06.62-.07,1C2767.77,908,2767.77,908,2772.75,927.07Z"/><path d="M2896.18,172.2c.71,2.83,1.84,5.34,1.85,7.86,0,4.56.3,9.45-1.19,13.62-2.91,8.15-9.88,9.6-16.63,4.1-3.05-2.49-5.83-5.31-9.08-8.29-3,1.57-5.55,2.91-8.11,4.32-2.32,1.29-4.55,2.76-6.91,4-4.65,2.4-9.57,6.32-14.6,1.73-5.4-4.94-1.72-10.4.51-15.52,1.58-3.62,3.18-7.22,5-11.39-3.44-3.12-6.76-5.78-9.66-8.84s-5.72-6.81-3.51-11.56c2-4.36,6.25-5,10.23-4.43,9,1.26,15.09-2.37,20.1-9.54,2.63-3.76,6.33-6.8,9.68-10s7-3.81,10.32.12c2.52,3,5.48,6,6.91,9.54,2.47,6.11,5.51,11.27,11.87,13.89a9.42,9.42,0,0,1,2.42,1.73c5.74,5,5.42,10.62-1,14.62A92,92,0,0,1,2896.18,172.2Zm-8.06,15.53c-.61-3.19-.9-5.72-1.59-8.15-3.38-12-3.3-12.39,5.73-19.34l-13.78-21c-2.46,2.48-5.35,4.74-7.4,7.61-4.94,6.93-10.47,12.64-22.58,11.7,11.52,8.18,9.67,17,5.73,26.47C2870.81,178.28,2870.81,178.28,2888.12,187.73Z"/><path d="M2671,2688.93c5.86-3.7,10.89-6.91,16-10.07,2.54-1.57,5-3.43,7.75-4.47,5.91-2.25,10.26,1.26,9,7.41a61.65,61.65,0,0,1-4.47,12.15c-1.91,4.25-2.16,8,.47,12.21,2.83,4.49,5.08,9.35,7.46,14.11a31,31,0,0,1,3.05,7.31c1.59,7.77-3.63,12.32-11.15,9.85-2.19-.72-4.19-2-6.32-2.95s-4.2-1.75-6.61-2.74c-3.29,4.2-6.07,8.32-9.43,11.9-6.41,6.82-11.55,6.53-15.62-1.6-2.93-5.85-6.57-8.84-13-8.56a14.91,14.91,0,0,1-3.94-.62c-7.29-1.75-9.5-5.58-6.67-12.37a54.15,54.15,0,0,1,5.78-10.46c3.61-5.06,4.58-10.09,2-15.89a23.36,23.36,0,0,1-2.47-8.58c-.08-2.73.46-6.76,2.25-7.95,2.28-1.53,6.21-1.43,9.18-.81,2.39.51,4.44,2.77,6.58,4.35C2663.89,2683.49,2667,2685.91,2671,2688.93Zm19.16,1.05c-7.41,3.36-12.73,7.59-18.16,7.73s-11-3.8-17.7-6.43c6.64,12.5-1.89,21.27-6.95,31.76,10.36.61,18.14,3.87,22.27,13.24,4.27-5.21,7.25-10.17,11.45-13.65,5.12-4.22,10.45,1.55,16.59,1.95-2.77-5.8-5-10.88-7.58-15.78C2687.18,2703.23,2686.49,2697.64,2690.17,2690Z"/><path d="M2775.76,1165.62c5.12-3.09,9.67-5.79,14.18-8.55,2.26-1.39,4.42-3,6.69-4.36,3.22-2,7.34-4.08,9.9-.66,1.76,2.36,1.58,6.77,1.06,10.07-.55,3.53-2.37,6.9-3.91,10.21a9.28,9.28,0,0,0,.37,9.41c2.7,4.58,5,9.4,7.4,14.14,1.21,2.36,2.44,4.73,3.48,7.17,1.58,3.73,1.42,7.79-2.07,9.84a13.37,13.37,0,0,1-9.19,1c-4.09-1-7.83-3.45-12.3-5.55-3.19,4.07-6,8.13-9.28,11.73-6.62,7.24-11.76,6.9-16.21-1.65-2.79-5.35-6.19-8.29-12.28-8.12a19.34,19.34,0,0,1-5.9-1c-5.64-1.68-7.6-5-5.74-10.58a33.21,33.21,0,0,1,4.92-9.74c5-6.4,6.22-12.94,2.63-20.35-.85-1.77-1.73-3.86-1.56-5.71.29-3.09.56-6.87,2.41-9,2.72-3,6.93-2,10.11.15C2765.4,1157.54,2770.05,1161.31,2775.76,1165.62Zm26.93,36c-3.05-6.45-5.17-11.59-7.87-16.42-3.13-5.59-2.85-11.23-.22-18.09-6.62,3-11.87,7.28-17.22,7.4-5.52.13-11.14-3.73-16.5-5.76,0,5,1,10.47-.27,15.28-1.42,5.2-5,9.82-7.68,14.76,15,5.33,15,5.33,22.36,14,3.22-4.27,5.89-9,9.66-12.56C2790.09,1195.3,2795.53,1200,2802.69,1201.6Z"/><path d="M2580.43,230c2.67-4.73,4.63-9,7.31-12.68,1.57-2.17,4.38-5,6.43-4.85s4.87,3.11,6.09,5.48a114.72,114.72,0,0,1,6.85,16.48c1.34,4,3.21,7.1,7.13,9s7.9,4.45,7.36,9.55-5.13,6.41-9.34,7.66c-1.87.56-3.74,1.15-6,1.85,0,4,.62,8.08-.2,11.83-.63,2.87-2.54,6.66-4.88,7.62s-6.37-.37-8.86-2c-3-1.88-5.09-5.1-8.25-8.46-2.88,1.32-5.76,2.73-8.72,4s-6.08,2.84-9.28,3.5c-6.73,1.39-11-3.43-9.18-9.93a11.1,11.1,0,0,1,1.61-3.63c5.29-6.95,4.83-13.13-.16-20.58-5.75-8.57-1-15.79,9.27-15.77C2571.58,229.11,2575.53,229.66,2580.43,230Zm12.74-.27c-5,12.06-14.06,12.32-26.26,9.6,7.14,8.31,9.13,15.63,6,24.55,7.38-4.29,14.16-4,19.2-.48l10.07-13.78Z"/><path d="M2828.32,2315.46c0,3.78,0,7.38,0,11,0,3.9-1.13,7.23-5.11,8.83s-7.1-.4-9.8-3c-2.36-2.28-4.47-4.83-7.06-7.67-5.29,2.22-10.41,4.39-15.54,6.53-4,1.65-7.86,1.83-10.88-1.81-2.79-3.37-1.46-6.86.23-10.24a39.21,39.21,0,0,1,2.34-4.39c3.09-4.62,3.67-9.08-.39-13.51a15.33,15.33,0,0,1-2-3.41c-4.68-9.21-.65-15.85,9.73-15.78,3.95,0,7.89.54,12.48.88,2.67-4.63,5.14-9.27,7.95-13.7,3.65-5.76,8.13-5.87,11.32,0a104.69,104.69,0,0,1,7,16.42c1.65,4.92,3.53,9.08,8.72,11.31,3.75,1.61,7,4.45,6.34,9.12s-4.56,6.11-8.53,7.24C2832.88,2313.91,2830.73,2314.68,2828.32,2315.46Zm-14.22.9,10.17-13.57-8.24-18c-4.29,3.21-7.53,6.94-11.58,8.31s-8.71.29-14.58.29c6.62,7.45,7.36,14.94,4.83,24.26C2802.57,2313,2809.12,2312.53,2814.1,2316.36Z"/><path d="M2406.94,2665.56c-4.27,2.48-8.47,5.1-12.84,7.4-3.48,1.82-7.65,2.37-9.92-1.14-1.53-2.35-1.55-6.14-1.19-9.15.34-2.83,2.08-5.48,3.38-8.65-3.45-2.87-7.08-5.28-9.86-8.44-1.77-2-3.81-5.88-3-7.55,1.2-2.4,4.87-3.6,7.56-5.2a2.85,2.85,0,0,1,2,0c9.4,2.5,16.16.1,21.5-8.77,3.27-5.41,8.11-4.3,11.83,1.4,1.62,2.49,2.83,5.25,4.17,7.79,4.81,1.65,9.57,3.06,14.15,4.91,4.17,1.68,7.63,4.37,7.55,9.47-.08,4.87-3.84,6.57-7.65,8.08l-5.45,2.18c-.33,2.94-.48,6.2-1.1,9.36-1.54,7.81-7.71,10.2-13.93,5.34A88.71,88.71,0,0,1,2406.94,2665.56Zm3.12-29.59-16.06,9.89c.95,3.68,2.13,8.27,3.41,13.25,6.61-6.78,13.64-6.89,19.19.4l10.07-14C2419.9,2644.14,2411,2645.37,2410.06,2636Z"/><path d="M2491.19,1130.69c-3.59-3-7.27-5.43-10-8.65-1.67-2-3.18-5.68-2.4-7.72s4.29-4,6.89-4.47c3.13-.63,6.61,0,9.86.55,4.51.77,7.81-.42,9.87-4.63a9.91,9.91,0,0,1,1.12-1.64c7.08-9.17,11.31-9.06,16.45,1.22,2,4.07,4.45,5.93,8.8,6.72a29.81,29.81,0,0,1,10.1,4c7.81,4.79,7.34,11.68-.85,15.75-2,1-4.19,1.82-6.45,2.79-.64,3.7-1,7.35-1.94,10.8-1.91,6.61-7.56,8.53-13,4.22-2.78-2.19-4.77-5.39-6.87-7.85-5.2,3.11-9.06,5.61-13.1,7.78-3.38,1.82-7,2.41-10.25-.36s-2.82-6.4-1.39-10C2489.08,1136.47,2490.06,1133.71,2491.19,1130.69Zm31,6.12,9.3-15c-7.63.07-14.91-.4-16.34-8.86l-16.13,9.69c1,3.78,2.14,8.31,3.27,12.69C2515,1129,2511.76,1128.54,2522.16,1136.81Z"/><path d="M2156.63,1305.09a23.84,23.84,0,0,1-1,5.37c-1.6,3.94-.79,7,2.39,9.72,7.18,6.17,3.88,15.33-5.46,16.6-5,.68-8.4,2.81-11.85,6.26-6.84,6.84-11.64,6.19-16.5-2-1.81-3-3.71-4.88-7.29-5.93-8.73-2.55-11.08-8.8-5-15.53,4.73-5.25,5.71-10.86,6.12-17.17a32.35,32.35,0,0,1,.8-5.89c2.16-8.34,7.2-10.35,13.58-4.6,4.07,3.68,7.91,3.65,12.71,3C2153.24,1294,2156.71,1297.18,2156.63,1305.09Zm-28.3.32c3.46,8.27-1.48,13.35-5.8,18.29l11.29,9.47,11.74-7.28c-.82-6.55-1.53-12.25-2.29-18.29Z"/><path d="M2051.86,2828.17c-.31,1.34-.63,3.32-1.22,5.22-1.21,3.82-.35,6.73,2.27,10,6.55,8.21,4.44,14.73-5.52,16.53a21.24,21.24,0,0,0-11.83,6.44c-6.79,6.72-11.45,6-16.46-2.4a11.56,11.56,0,0,0-7.51-5.69c-7.91-2.27-10.65-8.35-5.42-14.19,5.46-6.1,6.29-12.77,7-20a27.93,27.93,0,0,1,1.14-5.88c2.11-6.53,7.17-8.58,12.12-3.91,4.51,4.25,8.83,4.65,14.47,3.85C2048,2817.12,2051.88,2820.91,2051.86,2828.17ZM2018.71,2848l10.2,8.29,11.83-7.14-2.54-18.46L2026,2829C2023.53,2835.42,2021.26,2841.31,2018.71,2848Z"/><path class="cls-1" d="M329.09,382.88c-12.32-1.09-21.29-1.74-30.23-2.69-15.05-1.61-29.8.17-44.71,2.34-38.77,5.63-77.68,5.67-116.36-.88a63.6,63.6,0,0,1-22.88-9.07c-10.26-6.54-11.25-14-4-23.57,4.15-5.49,9.84-9.81,14.67-14.81,6-6.18,13.41-11.65,17.25-19,8.11-15.44,21.57-23.41,36.51-29.26,10.42-4.08,21.62-6.5,32.68-8.51a60.13,60.13,0,0,1,19.71.27c9.49,1.51,18.84,4,28.17,6.42a39.94,39.94,0,0,1,20.72,13.29c6.85,8.07,15.7,12.18,25.7,14.18,14.35,2.86,28.84,5.06,43.12,8.23a201.33,201.33,0,0,1,25.67,7.92c6.74,2.48,11.82,7.35,15.35,13.69,5.62,10.1,4.46,17.32-4.53,24.63-11.15,9.05-24.25,13.85-38.3,15.79C340.44,382.87,333.07,382.69,329.09,382.88Z"/><path class="cls-1" d="M890.78,693.34c-16.47-.78-32.42.77-47.84,7.62-10,4.42-21,3.61-31.57,2.24a332.75,332.75,0,0,1-34.4-5.94c-11.34-2.71-22.56-5.26-34.27-6.22-7.81-.64-15.59-3.34-23.05-6a27.14,27.14,0,0,1-10.39-7.42c-6.78-7.65-6.52-13.47.42-21.11a64.11,64.11,0,0,1,38.72-20.94c6.25-1,12.5-1.92,18.71-3.11,9.42-1.81,17.58-6,24-13.26.89-1,1.87-1.9,2.84-2.81,20-18.79,42.14-18.18,63.76-.74a84.47,84.47,0,0,1,6.4,6.3c3.06,3,6,4.83,10.5,1.9,2.22-1.44,5.7-1.71,8.48-1.37,12.11,1.46,22.34,6.54,29.11,17.09a37.76,37.76,0,0,0,16.35,14.16,38.36,38.36,0,0,1,9.28,5.76c8.91,7.86,8.18,19.55-1.6,26.34-7.31,5.07-15.68,7.25-24.5,7.51C904.78,693.5,897.78,693.34,890.78,693.34Z"/><path class="cls-1" d="M443.66,1971.93c3-2.14,5.38-3.82,7.74-5.54,5.09-3.72,10.38-7.2,15.19-11.23a55.06,55.06,0,0,1,28.61-12.88c8.77-1.23,17.34-4.14,25.89-6.68,5.4-1.61,10.11-3.9,13-9.78s9.45-7.29,15.62-6.24c4.82.81,10.07,2.1,14,4.84,10.28,7.28,21.88,9.34,33.88,10.31a64.11,64.11,0,0,1,33.28,12.12,42.94,42.94,0,0,1,8.62,8.19c5.1,6.58,4.47,9.39-2.32,14.64a56.14,56.14,0,0,0-4.61,3.81c-17.94,17.35-39.82,22-63.62,18.66-12.08-1.72-23.72-2-35.53,1.2-22.31,6.05-44.21,3.14-65.69-4.09C458.53,1986.18,449.74,1982.19,443.66,1971.93Z"/><path class="cls-1" d="M2926.44,728.18c-6.68-2-11.63-3.65-16.63-5.09-8.23-2.38-11.42-.92-15,7-1.37,3-2.35,6.22-3.6,9.3-1.07,2.65-2.29,5.25-4.32,9.87-1-6.7-1.8-11.15-2.34-15.63-.85-7.08-4.69-11.42-11.43-13.59-4-1.27-7.76-3-13.7-5.38,6.32-1.36,10.23-2,14-3.08,5.79-1.71,7.5-4.39,6.52-10.44-.84-5.19-2.15-10.31-3.53-16.72,6.63,2.81,12,6.5,17.73,7.11,5.49.6,11.32-2,16.35-3.06,0,5.9-1.51,12.3.42,17.4,2,5.26,7.45,9.15,11.12,13.86C2923.59,721.66,2924.42,724.18,2926.44,728.18Z"/><path class="cls-1" d="M2552.72,2021.42c-6.79-2.15-11.74-3.88-16.78-5.28-7.12-2-10.53-.53-13.62,6.19-2.61,5.68-4.67,11.61-7.24,18.08-3.63-3.37-2.59-7.22-2.9-10.5-.85-8.87-4.58-15-13.82-17.17-3.43-.8-6.63-2.59-11.92-4.74,5.58-1.25,9-1.92,12.35-2.78,7.67-2,9.19-4.32,7.82-12-.86-4.84-1.84-9.65-3-15.45,6.4,2.78,11.56,6.43,17,7s11.46-1.9,17.26-3c.18.4.81,1.12.65,1.53-4.52,11.25-.31,19.79,8.14,27.19a24.58,24.58,0,0,1,4.2,5.5C2551.6,2017,2551.76,2018.37,2552.72,2021.42Z"/><path class="cls-1" d="M2353,2437.71c5.52-4.72,13.72-5.09,15.22-13,1.17-6.13,2.15-12.29,3.37-19.39,4.54,2.24,5.86,6.07,7.44,9.33,3.65,7.49,8.85,12.11,17.67,12.28,3.78.07,7.53,1.41,12.25,2.37-5.08,5.82-13.09,8.63-12.69,16.71.35,6.86,1.87,13.66,1.64,21.54-2.54-2.72-5.09-5.42-7.62-8.15-8.43-9.11-11.8-9.2-20.12-.2-1.32,1.43-1.91,3.54-3.63,4.54C2368,2443.19,2368,2443.19,2353,2437.71Z"/><path class="cls-1" d="M2548.44,2829.17c-6.63,5.79-13.76,9.27-13.31,17.37.36,6.53,2,13,1.68,20.63-2.28-2.39-4.6-4.72-6.81-7.17-9.1-10-12.08-10.11-21.52-.42-.88.9-1.9,1.65-3,2.59,0-5.8,1.58-11.85-.46-16.23-1.86-4-7.62-6.21-11.91-9.4,4.31-3.62,12.46-4.2,14.06-11.85,1.29-6.15,2.14-12.39,3.26-19.08,4.51.9,5.58,4.74,6.88,7.64,3.93,8.76,10,13.68,19.92,13.7C2540.42,2827,2543.61,2828.17,2548.44,2829.17Z"/><path class="cls-1" d="M2727.83,1772.66c5-12,5-12-6.25-22.49,5.74-1.29,12.27-1.22,16.75-4.21,4.13-2.75,6.06-8.8,9.11-13.65,2.2,1.93,4.81,4.84,8,6.85,3,1.9,6.65,2.85,10,4.21-4.19,3.88-9.63,6.92-11.76,11.49-2,4.25-.42,10.14-.42,15.32C2741.27,1764.47,2741.27,1764.47,2727.83,1772.66Z"/><path class="cls-1" d="M2771.74,372.32c20.31-1.78,21.94-3,25.11-17.4l19.82,12.42c-10.62,4.51-17.2,11.75-11.1,26.53-10.06-6.66-18.37-6.77-25.75,1.76C2783.53,382.94,2783.53,382.94,2771.74,372.32Z"/><path class="cls-1" d="M2346.2,1674.88c.44-.6.82-1.71,1.54-2,9.51-3.77,11.85-11.57,12.1-20.75.1-3.52.75-7,1.41-12.84,4.16,4.2,7.06,6.7,9.43,9.62,5,6.14,11.08,7.94,18.61,5.76,3.06-.89,6.25-1.34,12.26-2.6-10.24,11.62-3.23,20.22,1.89,30.61-3.8-1.11-5.58-1.56-7.32-2.14-10.8-3.59-14.27-2.18-19,7.81-1.55,3.3-3,6.63-4.66,9.89-.25.51-1,.77-1.29,1-2.25-6-3.07-13.44-7.23-17.54S2352.41,1677.06,2346.2,1674.88Z"/><path class="cls-1" d="M2772.75,927.07c-5-19.1-5-19.1-24.54-24.48,0-.34-.07-.91.07-1,11.72-4.88,13.77-14.85,13.81-26,0-2.2.62-4.4,1.28-8.7,3.6,3.57,6.29,5.76,8.4,8.42,5.6,7,12.24,9.72,21,6.28,2.4-.95,5.08-1.21,7.9-1.84-.86,5.24-2.77,10.27-2.17,15s3.73,9,6.44,15l-9.28-2.7c-7.93-2.31-11.53-.84-15.39,6.52-2.29,4.36-4.41,8.82-6.64,13.21C2773.5,927,2773,927,2772.75,927.07Z"/><path class="cls-1" d="M2888.12,187.73c-17.31-9.45-17.31-9.45-33.89-2.73,3.94-9.44,5.79-18.29-5.73-26.47,12.11.94,17.64-4.77,22.58-11.7,2.05-2.87,4.94-5.13,7.4-7.61l13.78,21c-9,6.95-9.11,7.31-5.73,19.34C2887.22,182,2887.51,184.54,2888.12,187.73Z"/><path class="cls-1" d="M2690.17,2690c-3.68,7.66-3,13.25-.08,18.82,2.57,4.9,4.81,10,7.58,15.78-6.14-.4-11.47-6.17-16.59-1.95-4.2,3.48-7.18,8.44-11.45,13.65-4.13-9.37-11.91-12.63-22.27-13.24,5.06-10.49,13.59-19.26,6.95-31.76,6.72,2.63,12.26,6.57,17.7,6.43S2682.76,2693.34,2690.17,2690Z"/><path class="cls-1" d="M2802.69,1201.6c-7.16-1.6-12.6-6.3-17.74-1.44-3.77,3.56-6.44,8.29-9.66,12.56-7.36-8.62-7.36-8.62-22.36-14,2.67-4.94,6.26-9.56,7.68-14.76,1.3-4.81.27-10.26.27-15.28,5.36,2,11,5.89,16.5,5.76,5.35-.12,10.6-4.36,17.22-7.4-2.63,6.86-2.91,12.5.22,18.09C2797.52,1190,2799.64,1195.15,2802.69,1201.6Z"/><path class="cls-1" d="M2593.17,229.77l9,19.89-10.07,13.78c-5-3.53-11.82-3.81-19.2.48,3.12-8.92,1.13-16.24-6-24.55C2579.11,242.09,2588.21,241.83,2593.17,229.77Z"/><path class="cls-1" d="M2814.1,2316.36c-5-3.83-11.53-3.41-19.4,1.26,2.53-9.32,1.79-16.81-4.83-24.26,5.87,0,10.64,1,14.58-.29s7.29-5.1,11.58-8.31l8.24,18Z"/><path class="cls-1" d="M2410.06,2636c.91,9.4,9.84,8.17,16.61,9.59l-10.07,14c-5.55-7.29-12.58-7.18-19.19-.4-1.28-5-2.46-9.57-3.41-13.25Z"/><path class="cls-1" d="M2522.16,1136.81c-10.4-8.27-7.15-7.8-19.9-1.51-1.13-4.38-2.3-8.91-3.27-12.69l16.13-9.69c1.43,8.46,8.71,8.93,16.34,8.86Z"/><path class="cls-1" d="M2128.33,1305.41l14.94,2.19c.76,6,1.47,11.74,2.29,18.29l-11.74,7.28-11.29-9.47C2126.85,1318.76,2131.79,1313.68,2128.33,1305.41Z"/><path class="cls-1" d="M2018.71,2848c2.55-6.65,4.82-12.54,7.28-18.94l12.21,1.63,2.54,18.46-11.83,7.14Z"/></svg>