<svg id="Layer_1" data-name="Layer 1" xmlns="http://www.w3.org/2000/svg" viewBox="0 0 3000.05 937.74"><defs><style>.cls-1{fill:#fff;}</style></defs><path class="cls-1" d="M0,677.72v-504c11.3.58,22.6,1.49,33.92,1.66a334,334,0,0,1,102,17.57c41.74,14.06,82.15,31.35,121.71,50.57,38.34,18.62,77,36.74,114.2,57.47,35.74,19.92,69.78,42.9,104.57,64.52,5.09,3.17,10.09,6.52,15.32,9.43,39.19,21.82,74.79,48.56,108.53,78,12.51,10.93,26.12,20.67,39.74,30.22,15.27,10.7,31.45,20.11,46.67,30.89,34.89,24.74,73.82,39.55,115.37,48,10,2,20.48,3.49,30.68,3.25,23.3-.53,46.55-2.82,69.85-3.35,19.94-.45,40.05-.73,59.86,1.22,32,3.16,62.46,13.48,92.17,25.42,24.47,9.83,49.56,17.52,74.84,24.84,32,9.26,64.14,10.75,96.9,5.17,37.32-6.37,74.9-5.71,112.61-3.88a752.63,752.63,0,0,0,80.89,0c29.07-1.71,57.92-1.85,86.72,2.22,26.11,3.68,52.23,6.29,78.66,5.19,21.3-.88,42.62-1.65,63.94-1.77a276.32,276.32,0,0,0,72-10c25.72-7.07,51.75-12.61,78.31-15.41,19.87-2.09,39.8-3.69,59.6-6.29,37.72-5,74.62-14,111.26-23.94,54.63-14.81,109-30.64,163.58-45.5,34.13-9.28,63-26.63,86.49-53,11.09-12.44,22.42-24.7,32.75-37.75,31.29-39.52,70.28-68.59,116.24-89a1154.72,1154.72,0,0,1,119.41-45.57c89.13-28.37,172.57-68.84,251.77-118q76.84-47.71,148.82-102.78c29.32-22.36,62-37.47,97.45-47,4.46-1.21,8.79-2.9,13.18-4.36v382c-15.6-5.53-33.29.77-37.22,23.44-1.19,6.82-.84,13.92-1.09,20.89-.08,2.24.19,4.49.32,7.42-3.57-.58-6.41-1.15-9.28-1.47-15.41-1.72-29.16.55-38.81,14.7-1.7,2.49-6,4.06-9.25,4.49-20.15,2.67-38.24,9-50.63,26.4-.26.37-1.16.29-2.53.58-6.78-9.48-16.92-15.12-27.46-20.27-15.56-7.61-30.08-5.24-42.82,5.63-14.27,12.19-24.47,27.26-27.31,46.33-.81,5.46-2.57,9.11-8.58,10.58-13.77,3.35-22,13.08-27.44,25.59-2.11,4.89-4,9.88-5.75,14.91-2.44,7-6.68,12.07-13.47,15.27a52,52,0,0,0-11.93,7.22c-8.67,7.53-18.8,10.72-29.87,12.7-14.85,2.66-27,10-32.92,24.63-5.53,13.51-6.33,10.64-18,8.79-3.6-.57-7.08-2-10.69-2.45a53,53,0,0,0-12.84-.19c-16.72,2.26-28.37,12-37.54,25.65A57.35,57.35,0,0,1,2533.71,687c-5.12,4.15-11.06,7.33-16.75,10.76-6.33,3.82-13-1.35-19.42.47a4.2,4.2,0,0,1-1,.06c-21.63,1-43.27,2.71-64.91,2.72-93.66.07-187.31-.36-281-.66-2.9,0-5.79-.5-8.25-.72.55-12.73,2-24.7,1.32-36.56-.65-11.59-3.45-23-5.42-35.34a28.16,28.16,0,0,1,3.28,2c2.68,2.31,5.71,4.46,8.75,1.34,3.6-3.67.42-6.61-2-9.38l-11-12.44c3.73.47,7.19,1.28,10.64,1.19a6.11,6.11,0,0,0,4.61-2.87,5.85,5.85,0,0,0-1-5.29c-1.79-1.78-4.43-2.74-6.77-3.93-1.42-.72-4-.95-4.26-1.87-1.71-6.47-6.55-5.44-9.83-4.86-4.81-5.13-8.47-9.85-13-13.44-1.52-1.2-6-.35-7.94,1.11-3,2.21-1.27,5.38.74,7.86s3.91,4.74,6.5,7.89c-5,.87-8.34,1.13-11.49,2.1a32.13,32.13,0,0,0-9.85,4.32,6.59,6.59,0,0,0-2,8.93c2,3.55,5.08,4,8.6,2.73,1.87-.66,3.68-1.48,6.23-2.51-1.7,5-3.22,8.74-4.19,12.58-.92,3.68-1.1,7.73,3.26,9.39s6.7-1.5,8.37-5c1.37-2.89,2.61-5.84,3.9-8.76l2.49.3c12.34,25.63,15.34,52.28,8.08,80.92-4.8,0-8.77-.08-12.73,0-34.64.75-69.29,1.42-103.94,2.31-39,1-77.93,3.26-116.89,3.06-72.65-.38-145.29-2.64-217.94-3.15-50.68-.36-101.3-1.39-151.86-4.72-36.59-2.41-73.18-3.09-109.88-2.78-56,.47-112-.36-168-1.93-48.61-1.36-97.19-4.38-145.76-6.91-27-1.4-53.87-3.4-80.82-4.92-41.26-2.33-82.52-4.23-123.88-2.09-11.84.61-23.73.09-35.23.09V642.72c4,3,6.35,5.52,9.22,6.68,2,.81,5.74.69,7-.62s1.09-5,.13-7c-1.07-2.19-3.69-3.67-5.74-5.32-1.86-1.49-3.86-2.8-7.68-5.53,6.81-1.22,11.27-2.11,15.77-2.8,4-.61,7.54-2,7.24-6.61s-4-6.19-8-5.71c-6.44.79-12.8,2.29-19.86,3.61a46.56,46.56,0,0,0-1.57-5.81,44.46,44.46,0,0,0-4.15-8.93c-1.74-2.59-4.9-4.48-7.67-2.18-1.59,1.31-2.23,4.55-2.17,6.89.09,3.1,1.29,6.17,2.26,10.35-10.67-1.32-18.27,3-25,9.85l-8.1-9.17c5.24-2.39,11.37-3,10.78-9.71-.52-6.07-5.89-7.94-10.67-9-6-1.39-12.2-1.64-18.78-2.44a22.16,22.16,0,0,0-1.63-5c-2.3-4-4.47-8.26-7.61-11.54a9.27,9.27,0,0,0-7.85-2.12c-3.7,1.15-3.88,5-2.89,8.5a68.53,68.53,0,0,0,2.89,7.44c1.38,3.3,2.83,6.57,4.57,10.6-5,0-9.15-.81-12.76.2a42.75,42.75,0,0,0-13,6.41c-1.48,1.06-2.22,5.27-1.3,7s4.35,2.55,6.67,2.52c3.82,0,7.62-1.13,12.87-2-1.73,3.15-2.82,4.77-3.54,6.54-1.62,4-3.78,7.93-4.3,12.08-.29,2.31,1.75,5.6,3.75,7.2.9.72,4.44-1.31,6.43-2.63a74.64,74.64,0,0,0,6.94-5.86l1.78,1.21c-1.38,15.1-2.76,30.2-4.18,45.72-4.87.67-8.44,1.39-12,1.63q-46.87,3.14-93.75,6.13c-51.2,3.32-102.42,6.33-153.58,10-63.13,4.57-126.29,9-189.3,14.9-36.42,3.43-72.59,9.71-108.84,14.88-8.82,1.26-17.54,3.23-27.67,5.13,0-4.68,0-8.27,0-11.85-.92-55-2.05-110-2.65-165a208.76,208.76,0,0,1,2.84-35.74c1.27-7.83,5.07-15.25,7.74-22.84l2.5-.81a52.33,52.33,0,0,0,3.25,5.1,27.8,27.8,0,0,0,4.27,4.2c4.58,3.6,10,3.93,13.81,1,4-3.12,4.94-7.91,2.23-13.49-1.69-3.46-3.75-6.74-6.59-11.8,10.88-.21,20.12-.63,29.36-.51,8.75.11,14-3.9,13.26-10.89-.5-4.87-3.82-8-10.09-9.62-15.71-4.19-31.31-9-47.51-7.46-.61-1.4-1.17-2-1.07-2.53,2-10.07-6-14.09-12-18.93-3.47-2.8-8.6-1.33-11.52,2.46-1.53,2-2.41,4.46-3.88,7.31-2.58-2.15-4.84-4-7-5.9-4.72-4-9.75-7.68-16.19-4.28-6,3.19-5.55,9-3.92,14.62-4.44,0-8.07-.17-11.68,0-4.78.28-8.26,2.62-9.47,7.44-1.17,4.66.2,8.75,4.25,11.35,3.05,2,6.58,3.17,9.83,4.83,1.84.95,3.55,2.14,5.74,3.47-4.77,3.58-8.92,6.37-12.7,9.6a59,59,0,0,0-9.07,9.22c-3.77,5-3.18,11,.71,14.51,3.64,3.25,8.88,3.22,13.74-.36,2.4-1.77,4.46-4,6.75-5.94,6-5,12.63-8.47,21.14-9.2,4.53,7.57,7.77,15.41,7.89,24.27.72,55,1.7,110,1.93,165,.07,18.57-1.79,37.14-2.74,55.07-1.5.93-2,1.49-2.63,1.6q-30.49,5.32-61,10.51a7.43,7.43,0,0,1-4.82-.59c-10-6.41-21.47-6.65-32.57-8.62-8.71-1.55-15.35-6.12-19.32-14.26-2.63-5.39-5.61-10.62-8.11-16.06C42.48,690.42,23.89,680.14,0,677.72Z"/><path class="cls-1" d="M1136,937.72H452c-.54-5-4.58-6.46-8.39-7.37-14.35-3.44-23.08-12.52-27.6-26.23a46.61,46.61,0,0,0-19.37-24.72A140.85,140.85,0,0,0,377.37,869c-6.06-2.73-10.4-6.4-13.33-12.63A41.6,41.6,0,0,0,354,843c-19.23-16.65-41.2-24-66.68-18-3.89.92-7.85,1.52-11.76,2.35-13.77,2.9-27.1,2.81-39.58-5-2.78-1.73-6.11-2.64-9.26-3.71a34,34,0,0,1-18.05-13.52C204,798,197.5,793,190.11,788.75a74.87,74.87,0,0,1-14-11.08c-7.84-7.52-16.37-13.62-27.17-16a47.31,47.31,0,0,1-5.27-2.15c3.34-.91,4.78-1.41,6.26-1.69,9.49-1.8,19.06-3.24,28.47-5.38,71-16.16,143.09-24.52,215.53-30.21q81.21-6.37,162.47-11.89c55.18-3.7,110.4-6.73,165.6-10.21,25.93-1.63,51.83-3.76,77.76-5.41,35.57-2.27,71.14-4.93,106.75-6.3,45.33-1.75,90.61.54,135.87,3.38,44.88,2.81,89.77,5.57,134.68,8,24.29,1.3,48.61,2.08,72.93,2.61,48.31,1.07,96.64,3,144.93,2.32,50-.73,99.95.22,149.84,3.62,1.72.12,3.4.94,6.85,1.94-5,3.18-8.55,5.62-12.25,7.68-17.76,9.88-35.64,19.55-53.36,29.5-56.94,32-114.42,63-170.57,96.3-52.25,31-105.42,59.88-161.08,84.21C1148,930.72,1142.1,934.44,1136,937.72ZM565.44,816.53c54.34-1.87,102.29-3,150.17-5.41,23.89-1.22,47.68-4.68,71.46-7.55a61.85,61.85,0,0,0,17.16-5c2.53-1.12,5.4-4.72,5.45-7.25s-2.76-5.8-5.19-7.44c-2.93-2-6.71-3-10.27-3.66-8.81-1.71-17.65-3.72-26.57-4.36-39.51-2.83-79-6.42-118.59-7.53-77.25-2.18-154.54-2-231.68,3.72-21.54,1.59-43,4.89-64.39,7.76a41,41,0,0,0-13.2,4.32c-6.81,3.56-6.87,10.09-.25,13.9a29.8,29.8,0,0,0,10.26,3.69c18.08,2.75,36.14,6.45,54.34,7.47C460,812.34,515.88,814.36,565.44,816.53Z"/><path class="cls-1" d="M3000,413.72v104c-8,4.76-16.21,9-22.09,16.71-1.17,1.52-4.66,1.85-7,1.76-11.5-.42-21.54,3.48-30.54,10.17a23.15,23.15,0,0,0-6.17,7.59c-.68,1.26,0,4.24,1.12,5.21s3.69.75,5.34.19c1.41-.47,2.37-2.21,3.61-3.29,8.12-7,17.3-11.25,28.26-9.39,5.74,1,9.25-1.7,13-5.34,4.45-4.26,9.62-7.78,14.47-11.61v408H2418a26.41,26.41,0,0,1,.9-4.82c4.86-12.56,12.84-22.52,24.79-29,7.8-4.24,12.7-10.28,14.35-19.25.77-4.15,2.81-8.2,4.91-11.93,6.79-12,6.91-24.24,3.8-37.61-2.84-12.17-5.46-25.36-3.69-37.44,3.88-26.42,15-49.72,39.69-63.75,5.78-3.29,10.09-7.41,11.92-14,2.88-10.33,9.85-17.27,19.31-21.68a40.51,40.51,0,0,0,18.74-17.32,38.45,38.45,0,0,1,3.93-5.78c11.36-13.72,25.18-20.35,43.22-15.07a83.56,83.56,0,0,0,10.75,2.18c11.66,1.77,16.22-.19,20.22-11,5.36-14.45,15.59-21.67,30.35-23.93,11-1.69,21.21-5.3,29.87-12.87,3.7-3.23,8.28-5.59,12.73-7.79a33.37,33.37,0,0,0,17-18.77c2.38-6.22,4.59-12.52,7.39-18.55,3.78-8.13,9.43-15.1,18.53-16.93,11.48-2.31,15.58-9.4,17.24-20.11,2.62-16.92,12.16-30.13,25.32-40.55,9.07-7.18,19.33-8.4,30-3.19,9.34,4.54,18.17,9.51,24.81,18,5.24,6.71,10.81,6.48,16.88.34,1.63-1.65,2.71-3.86,4.42-5.4,3.92-3.53,7.64-7.66,12.23-10,8.57-4.35,17.56-8,27.51-8.26,7.35-.21,13.59-2.62,17.61-9.46,4.28-7.28,11.25-10.46,19.36-10.18a108.7,108.7,0,0,1,19.66,2.73c10.61,2.34,13.61-.33,11.48-11.09-.32-1.63-.79-3.24-1.21-4.85-2.15-8.34-1.05-16.58,1.23-24.64,3.24-11.51,10.23-15.53,21.87-13.1C2996.77,413,2998.38,413.36,3000,413.72ZM2787.41,807.29c1,1.54,2.86,4.63,4.85,7.66,6.42,9.74,16.5,12.22,26.92,6.63,3.52-1.89,6.76-4.52,10.48-5.74,11.58-3.8,14.26-15.17,10.57-24.34a116.14,116.14,0,0,0-6.78-13.29c-2.11-3.77-4.64-7.31-6.82-11-2.57-4.42-1.84-8.7,2.24-11.48a64.9,64.9,0,0,1,14-7.34c5.14-1.89,9.48-4,12.88-8.72,1.89-2.6,5.78-4.26,9.09-5.21,10.28-3,11.44-4.2,10.18-14.47-.94-7.62-.41-15,3-24.39,3,4.27,5.85,6.79,6.8,9.88,1.64,5.32,2.24,11,3.06,16.54.59,3.93.25,8.1,1.47,11.78.6,1.81,3.81,2.74,5.84,4.08,1-1.86,3-3.69,3-5.56a137,137,0,0,0-.71-18c-.85-8.09-3.52-15.63-9.06-21.8-3.88-4.32-8.44-8.1-14.73-6.6-6.11,1.46-6.12,7.42-7.09,12.12a126.29,126.29,0,0,0-1.76,15.87c-.24,3.21,0,6.46,0,10-8,1.67-14.85,4.54-19.14,11.81-1,1.67-3.89,2.28-6,3.18-3.36,1.43-7.07,2.26-10.13,4.15a25.37,25.37,0,0,1-13.12,3.62,46.65,46.65,0,0,0-27,9.23c-3.63,2.76-7,5.91-10.84,9.25-1.75-4.94-3.22-9.35-4.86-13.69-7.23-19.23-17.2-36.65-31.88-51.39-7.3-7.34-15.16-9.26-24.48-6-33.16,11.44-62.08,28.6-82.28,58.62-7.18,10.67-8.4,20.78-3.23,31.86a191.34,191.34,0,0,0,13.19,24.61c7.63,11.61,16.17,22.61,24.34,33.91-10.3,8.78-10.86,10-12.94,24.14a9.17,9.17,0,0,1-2.93,5.52c-2.78,2.16-5.7,4-3.88,8,2,4.44,5.59,2,8.69,1.42.53-.1,1.17.41,1.93.7,2.27,3.91,5,7.78,6.89,12,7.57,16.58,21.39,20.78,38,19.42,15.2-1.25,22.15-15.51,13.9-28.38a101.11,101.11,0,0,0-6.76-8.66c-2.3-2.84-3.34-5.61-.66-8.94,4.76-5.91,2.9-11.78-.88-17.46,11.13-8.49,2.17-20.79,5.71-30.59,5.51,2,10.75,5.9,15.12,5.1,10.82-2,22.88-2.85,29.64-13.85,2.27-3.7,5.3-4.45,9.27-4.24,5,.24,10.19,0,16.9,0Zm-279.14,14.37,4.48,5c1.77-1.68,4.16-3,5.15-5.09,1.26-2.62.52-6.44,2.15-8.59,7.75-10.14,15.66-20.22,24.25-29.64,3.82-4.18,9.38-4,14.86-1.36,1.43.67,4.27-1.66,6.47-2.61-.91-1.93-1.31-4.56-2.82-5.67-4.41-3.24-9.44-4.74-15-2.91-8.54,2.78-15.28,7.59-19.91,15.57a46.35,46.35,0,0,1-9.2,11.47c-6.81,5.95-9.32,13.53-10.43,23.82Z"/><path class="cls-1" d="M2408,937.72H2076c-1.45-1.27-2.73-2.83-4.36-3.77-19.34-11.14-38.38-22.87-58.19-33.1-24.84-12.83-50.27-24.53-75.54-36.51-15.64-7.41-31.6-14.15-47.14-21.74-15-7.31-29.46-15.55-44.36-23-45.28-22.63-90.68-45-136-67.61-23.55-11.73-47-23.65-70.49-35.53a70.32,70.32,0,0,1-6-3.93,27.45,27.45,0,0,1,3.26-.58c70.64.83,141.3,1.09,211.92,2.72,50,1.16,100,1.34,149.9-1.56,59.27-3.44,118.55-3.28,177.87-2.6,104.29,1.19,208.59,3.58,312.83-2.13,5.8-.32,11.62,0,17.77,0-1.47,8.13-3.92,13.7-10.85,17.82-27.37,16.27-40.2,42.39-43.5,72.61-1.42,13.08-.76,27.28,4.22,40.44,3.62,9.57,2.28,18.9-2.62,27.92-2.53,4.66-5.19,9.55-6.18,14.65-1.28,6.57-4.63,10.78-10.19,13.86a51.78,51.78,0,0,0-7.52,4.93C2418.86,910.24,2410.23,922,2408,937.72Z"/><path class="cls-1" d="M2056,937.72H1606a58.47,58.47,0,0,0,.23-5.92q-1.38-25.83-2.91-51.63c-.06-.91-.65-1.79-1.4-3.75l-21.36,1.21c0,11,.34,21.26-.09,31.48-.4,9.55-1.62,19.07-2.47,28.61H1158c3.22-1.69,6.36-3.56,9.67-5a1238.68,1238.68,0,0,0,135.6-70.42C1366,824.45,1429.6,788,1494.51,753.84c23.27-12.24,45.91-25.72,68.32-39.49,7-4.27,13.12-5.28,20.73-3.26.29,3.54.55,6.74.83,10.3h7.42l2.69-9.53c7.62-1.62,14.16,0,20.6,3.25q50.34,25.56,100.79,50.89c45.59,22.77,91.31,45.28,136.93,68,22.36,11.14,44,23.93,67,33.45,44.46,18.37,86.89,40.52,128.51,64.42C2051.12,933.42,2053.46,935.72,2056,937.72Zm-454.7-91.2c-.56-17.83-2.8-35.89-5.31-54.82l-14.93,2v52.79Zm-5.43-63.86c-1.27-18.73-2.5-36.73-3.76-55.19l-8.84,1.19c-1.07,18.65-1.67,37-1.3,56Z"/><path d="M2056,937.72c-2.54-2-4.88-4.3-7.64-5.89-41.62-23.9-84.05-46-128.51-64.42-23-9.52-44.67-22.31-67-33.45-45.62-22.72-91.34-45.23-136.93-68q-50.51-25.22-100.79-50.89c-6.44-3.27-13-4.87-20.6-3.25l-2.69,9.53h-7.42c-.28-3.56-.54-6.76-.83-10.3-7.61-2-13.78-1-20.73,3.26-22.41,13.77-45,27.25-68.32,39.49-64.91,34.13-128.47,70.61-191.24,108.46a1238.68,1238.68,0,0,1-135.6,70.42c-3.31,1.48-6.45,3.35-9.67,5h-22c6.1-3.28,12-7,18.32-9.77,55.65-24.29,108.8-53.19,161.05-84.19,56.15-33.29,113.63-64.35,170.57-96.3,17.72-10,35.6-19.62,53.36-29.5,3.7-2.06,7.2-4.5,12.25-7.68-3.45-1-5.13-1.82-6.85-1.94-49.89-3.4-99.8-4.35-149.84-3.62-48.29.71-96.62-1.25-144.93-2.32-24.32-.53-48.64-1.31-72.93-2.61-44.91-2.41-89.8-5.17-134.68-8-45.26-2.84-90.54-5.13-135.87-3.38-35.61,1.37-71.18,4-106.75,6.3-25.93,1.65-51.83,3.78-77.76,5.41-55.2,3.48-110.42,6.51-165.6,10.21q-81.27,5.44-162.47,11.89c-72.44,5.69-144.54,14-215.53,30.21-9.41,2.14-19,3.58-28.47,5.38-1.48.28-2.92.78-6.26,1.69a47.31,47.31,0,0,0,5.27,2.15c10.8,2.41,19.33,8.51,27.17,16a74.87,74.87,0,0,0,14,11.08c7.39,4.25,13.84,9.25,18.56,16.33a34,34,0,0,0,18.05,13.52c3.15,1.07,6.48,2,9.26,3.71,12.48,7.81,25.81,7.9,39.58,5,3.91-.83,7.87-1.43,11.76-2.35,25.48-6,47.45,1.34,66.68,18a41.41,41.41,0,0,1,10,13.47c2.93,6.23,7.27,9.9,13.33,12.63a140.85,140.85,0,0,1,19.27,10.4A46.63,46.63,0,0,1,416,904.12c4.52,13.71,13.25,22.79,27.6,26.23,3.81.91,7.85,2.36,8.39,7.37H432c-13.06-7.33-21.13-18.37-26.45-32.36-2.34-6.16-7.46-11.88-12.66-16.17-5.78-4.77-12.89-8.13-19.78-11.31-7.85-3.63-14-8.22-17.61-16.6A34.07,34.07,0,0,0,345.79,849c-16.87-13.74-35.67-19.58-57.69-14.34-11.21,2.67-23.18,4.84-34.48,3.76-15.59-1.5-29.38-9.94-43.25-17.1-10.64-14.37-26.28-23-39.19-34.78-10-9.12-20.5-15.22-34-17.09a81.19,81.19,0,0,1-23.7-7c-9.73-4.7-19.31-8.2-30.28-8.89-13.73-.85-24.78-7.14-31.1-20.13-2.47-5.08-5.37-10-7.64-15.14-8.55-19.38-24-28.52-44.46-30.52v-10c23.89,2.42,42.48,12.7,52.88,35.35,2.5,5.44,5.48,10.67,8.11,16.06,4,8.14,10.61,12.71,19.32,14.26,11.1,2,22.61,2.21,32.57,8.62a7.42,7.42,0,0,0,4.82.59q30.53-5.13,61-10.51c.6-.11,1.13-.67,2.63-1.6,1-17.93,2.81-36.5,2.74-55.07-.23-55-1.21-110-1.93-165-.12-8.86-3.36-16.7-7.89-24.27-8.51.73-15.18,4.16-21.14,9.2-2.29,1.94-4.35,4.17-6.75,5.94-4.86,3.58-10.1,3.61-13.74.36-3.89-3.48-4.48-9.46-.71-14.51a59,59,0,0,1,9.07-9.22c3.78-3.23,7.93-6,12.7-9.6-2.19-1.33-3.9-2.52-5.74-3.47-3.25-1.66-6.78-2.87-9.83-4.83-4-2.6-5.42-6.69-4.25-11.35,1.21-4.82,4.69-7.16,9.47-7.44,3.61-.22,7.24,0,11.68,0-1.63-5.62-2.11-11.43,3.92-14.62,6.44-3.4,11.47.24,16.19,4.28,2.21,1.9,4.47,3.75,7,5.9,1.47-2.85,2.35-5.33,3.88-7.31,2.92-3.79,8-5.26,11.52-2.46,6,4.84,14,8.86,12,18.93-.1.5.46,1.13,1.07,2.53,16.2-1.51,31.8,3.27,47.51,7.46,6.27,1.67,9.59,4.75,10.09,9.62.71,7-4.51,11-13.26,10.89-9.24-.12-18.48.3-29.36.51,2.84,5.06,4.9,8.34,6.59,11.8,2.71,5.58,1.81,10.37-2.23,13.49-3.81,3-9.23,2.62-13.81-1a27.8,27.8,0,0,1-4.27-4.2,52.33,52.33,0,0,1-3.25-5.1l-2.5.81c-2.67,7.59-6.47,15-7.74,22.84a208.76,208.76,0,0,0-2.84,35.74c.6,55,1.73,110,2.65,165,.06,3.58,0,7.17,0,11.85,10.13-1.9,18.85-3.87,27.67-5.13,36.25-5.17,72.42-11.45,108.84-14.88,63-6,126.17-10.33,189.3-14.9,51.16-3.7,102.38-6.71,153.58-10q46.88-3,93.75-6.13c3.6-.24,7.17-1,12-1.63,1.42-15.52,2.8-30.62,4.18-45.72l-1.78-1.21a74.64,74.64,0,0,1-6.94,5.86c-2,1.32-5.53,3.35-6.43,2.63-2-1.6-4-4.89-3.75-7.2.52-4.15,2.68-8.11,4.3-12.08.72-1.77,1.81-3.39,3.54-6.54-5.25.88-9,2-12.87,2-2.32,0-5.79-.89-6.67-2.52s-.18-5.89,1.3-7a42.75,42.75,0,0,1,13-6.41c3.61-1,7.74-.2,12.76-.2-1.74-4-3.19-7.3-4.57-10.6a68.53,68.53,0,0,1-2.89-7.44c-1-3.45-.81-7.35,2.89-8.5a9.27,9.27,0,0,1,7.85,2.12c3.14,3.28,5.31,7.54,7.61,11.54a22.67,22.67,0,0,1,1.63,5c6.58.8,12.81,1,18.78,2.44,4.78,1.11,10.15,3,10.67,9,.59,6.76-5.54,7.32-10.78,9.71l8.1,9.17c6.7-6.9,14.3-11.17,25-9.85-1-4.18-2.17-7.25-2.26-10.35-.06-2.34.58-5.58,2.17-6.89,2.77-2.3,5.93-.41,7.67,2.18a44.46,44.46,0,0,1,4.15,8.93,46.56,46.56,0,0,1,1.57,5.81c7.06-1.32,13.42-2.82,19.86-3.61,3.93-.48,7.66,1.23,8,5.71s-3.27,6-7.24,6.61c-4.5.69-9,1.58-15.77,2.8,3.82,2.73,5.82,4,7.68,5.53s4.67,3.13,5.74,5.32c1,2,1.1,5.66-.13,7s-4.92,1.43-7,.62c-2.87-1.16-5.19-3.65-9.22-6.68v36.23c11.5,0,23.39.52,35.23-.09,41.36-2.14,82.62-.24,123.88,2.09,26.95,1.52,53.87,3.52,80.82,4.92,48.57,2.53,97.15,5.55,145.76,6.91,56,1.57,112,2.4,168,1.93,36.7-.31,73.29.37,109.88,2.78,50.56,3.33,101.18,4.36,151.86,4.72,72.65.51,145.29,2.77,217.94,3.15,39,.2,77.92-2.06,116.89-3.06,34.65-.89,69.3-1.56,103.94-2.31,4-.09,7.93,0,12.73,0,7.26-28.64,4.26-55.29-8.08-80.92l-2.49-.3c-1.29,2.92-2.53,5.87-3.9,8.76-1.67,3.51-3.93,6.71-8.37,5s-4.18-5.71-3.26-9.39c1-3.84,2.49-7.55,4.19-12.58-2.55,1-4.36,1.85-6.23,2.51-3.52,1.24-6.64.82-8.6-2.73a6.59,6.59,0,0,1,2-8.93c2.84-2.07,6.43-3.27,9.85-4.32,3.15-1,6.51-1.23,11.49-2.1-2.59-3.15-4.57-5.5-6.5-7.89s-3.73-5.65-.74-7.86c2-1.46,6.42-2.31,7.94-1.11,4.55,3.59,8.21,8.31,13,13.44,3.28-.58,8.12-1.61,9.83,4.86.24.92,2.84,1.15,4.26,1.87,2.34,1.19,5,2.15,6.77,3.93a5.85,5.85,0,0,1,1,5.29,6.08,6.08,0,0,1-4.61,2.87c-3.45.09-6.91-.72-10.64-1.19l11,12.44c2.44,2.77,5.62,5.71,2,9.38-3,3.12-6.07,1-8.75-1.34a28.16,28.16,0,0,0-3.28-2c2,12.29,4.77,23.75,5.42,35.34.66,11.86-.77,23.83-1.32,36.56,2.46.22,5.35.71,8.25.72,93.66.3,187.31.73,281,.66,21.64,0,43.28-1.77,64.91-2.72a4.2,4.2,0,0,0,1-.06c6.44-1.82,13.09,3.35,19.42-.47,5.69-3.43,11.63-6.61,16.75-10.76a57.35,57.35,0,0,0,11.19-12.44c9.17-13.61,20.82-23.39,37.54-25.65a53,53,0,0,1,12.84.19c3.61.4,7.09,1.88,10.69,2.45,11.65,1.85,12.45,4.72,18-8.79,6-14.63,18.07-22,32.92-24.63,11.07-2,21.2-5.17,29.87-12.7a52,52,0,0,1,11.93-7.22c6.79-3.2,11-8.31,13.47-15.27,1.75-5,3.64-10,5.75-14.91,5.4-12.51,13.67-22.24,27.44-25.59,6-1.47,7.77-5.12,8.58-10.58,2.84-19.07,13-34.14,27.31-46.33,12.74-10.87,27.26-13.24,42.82-5.63,10.54,5.15,20.68,10.79,27.46,20.27,1.37-.29,2.27-.21,2.53-.58,12.39-17.44,30.48-23.73,50.63-26.4,3.29-.43,7.55-2,9.25-4.49,9.65-14.15,23.4-16.42,38.81-14.7,2.87.32,5.71.89,9.28,1.47-.13-2.93-.4-5.18-.32-7.42.25-7-.1-14.07,1.09-20.89,3.93-22.67,21.62-29,37.22-23.44v10c-1.62-.35-3.23-.71-4.85-1-11.64-2.43-18.63,1.59-21.87,13.1-2.28,8.06-3.38,16.3-1.23,24.64.42,1.61.89,3.22,1.21,4.85,2.13,10.76-.87,13.43-11.48,11.09a109.6,109.6,0,0,0-19.66-2.73c-8.11-.28-15.08,2.9-19.36,10.18-4,6.84-10.26,9.25-17.61,9.46-10,.28-18.94,3.91-27.51,8.26-4.59,2.34-8.31,6.47-12.23,10-1.71,1.54-2.79,3.75-4.42,5.4-6.07,6.14-11.64,6.37-16.88-.34-6.64-8.49-15.47-13.46-24.81-18-10.71-5.21-21-4-30,3.19-13.16,10.42-22.7,23.63-25.32,40.55-1.66,10.71-5.76,17.8-17.24,20.11-9.1,1.83-14.75,8.8-18.53,16.93-2.8,6-5,12.33-7.39,18.55a33.37,33.37,0,0,1-17,18.77c-4.45,2.2-9,4.56-12.73,7.79-8.66,7.57-18.88,11.18-29.87,12.87-14.76,2.26-25,9.48-30.35,23.93-4,10.81-8.56,12.77-20.22,11a83.56,83.56,0,0,1-10.75-2.18c-18-5.28-31.86,1.35-43.22,15.07a38.45,38.45,0,0,0-3.93,5.78,40.51,40.51,0,0,1-18.74,17.32c-9.46,4.41-16.43,11.35-19.31,21.68-1.83,6.58-6.14,10.7-11.92,14-24.71,14-35.81,37.33-39.69,63.75-1.77,12.08.85,25.27,3.69,37.44,3.11,13.37,3,25.56-3.8,37.61-2.1,3.73-4.14,7.78-4.91,11.93-1.65,9-6.55,15-14.35,19.25-12,6.47-19.93,16.43-24.79,29a26.41,26.41,0,0,0-.9,4.82h-10c2.23-15.69,10.86-27.48,22.85-37.15a51.78,51.78,0,0,1,7.52-4.93c5.56-3.08,8.91-7.29,10.19-13.86,1-5.1,3.65-10,6.18-14.65,4.9-9,6.24-18.35,2.62-27.92-5-13.16-5.64-27.36-4.22-40.44,3.3-30.22,16.13-56.34,43.5-72.61,6.93-4.12,9.38-9.69,10.85-17.82-6.15,0-12-.28-17.77,0-104.24,5.71-208.54,3.32-312.83,2.13-59.32-.68-118.6-.84-177.87,2.6-49.92,2.9-99.89,2.72-149.9,1.56-70.62-1.63-141.28-1.89-211.92-2.72a27.45,27.45,0,0,0-3.26.58,70.32,70.32,0,0,0,6,3.93c23.48,11.88,46.94,23.8,70.49,35.53,45.31,22.58,90.71,45,136,67.61,14.9,7.45,29.4,15.69,44.36,23,15.54,7.59,31.5,14.33,47.14,21.74,25.27,12,50.7,23.68,75.54,36.51,19.81,10.23,38.85,22,58.19,33.1,1.63.94,2.91,2.5,4.36,3.77Zm-1253.53-309c-1.19,18.91-2.33,37.17-3.51,56.14l50.88-3.66a89.42,89.42,0,0,0,1.48-31.45c-2.08,1.23-3.11,2.27-4.27,2.44-2.73.39-6,1.32-8.11.2-1.42-.77-1.59-4.64-1.54-7.11s1.08-5,1.86-8.18c-5.15,0-9.68-3.39-13.6.86-4.35,4.72-7.49,2.73-10.5-1.27A19.29,19.29,0,0,0,802.47,628.72Z"/><path class="cls-1" d="M0,687.72c20.42,2,35.91,11.14,44.45,30.54,2.27,5.17,5.17,10.06,7.64,15.14,6.32,13,17.37,19.28,31.1,20.13,11,.69,20.55,4.19,30.28,8.89a81.19,81.19,0,0,0,23.7,7c13.51,1.87,24,8,34,17.09,12.91,11.73,28.55,20.41,39.19,34.78,13.87,7.16,27.66,15.6,43.25,17.1,11.3,1.08,23.27-1.09,34.48-3.76,22-5.24,40.82.6,57.69,14.34a34.07,34.07,0,0,1,9.71,12.33c3.59,8.38,9.76,13,17.61,16.6,6.89,3.18,14,6.54,19.78,11.31,5.2,4.29,10.32,10,12.66,16.17,5.32,14,13.39,25,26.45,32.36H0ZM152.17,893.66c.43-10.42-2.69-15.38-12.26-19.19-2.46-1-5.15-2.45-7.6-2.22-7.86.74-10.42-4-12.17-10.26-1.91-6.77-5.93-12.43-12.57-14.55C100,845,96.21,840.57,94.27,833.1c-1.58-6.07-5.9-10.53-12.44-11.55-1.8-.28-4.92,1-5.6,2.4s.61,4.93,2,5.61c5.4,2.68,7.4,7.28,8.89,12.56,1.74,6.15,5.34,10.69,11.83,12.32,7.26,1.81,11,6.71,13,13.67,2.4,8.4,7.13,14.25,17,13.63a13.86,13.86,0,0,1,4.84,1c7.24,2.3,8.22,3.69,8.43,11.31.06,2.31-.26,4.82.53,6.88.61,1.58,2.93,3.81,4,3.58a7.7,7.7,0,0,0,4.74-4C152.43,898.56,152,896,152.17,893.66Z"/><path d="M3000,21.72c-4.39,1.46-8.72,3.15-13.18,4.36-35.44,9.56-68.13,24.67-97.45,47q-72,54.89-148.82,102.78c-79.2,49.19-162.64,89.66-251.77,118a1154.72,1154.72,0,0,0-119.41,45.57c-46,20.46-84.95,49.53-116.24,89-10.33,13-21.66,25.31-32.75,37.75-23.48,26.35-52.36,43.7-86.49,53-54.61,14.86-108.95,30.69-163.58,45.5-36.64,9.93-73.54,19-111.26,23.94-19.8,2.6-39.73,4.2-59.6,6.29-26.56,2.8-52.59,8.34-78.31,15.41a276.32,276.32,0,0,1-72,10c-21.32.12-42.64.89-63.94,1.77-26.43,1.1-52.55-1.51-78.66-5.19-28.8-4.07-57.65-3.93-86.72-2.22a752.63,752.63,0,0,1-80.89,0c-37.71-1.83-75.29-2.49-112.61,3.88-32.76,5.58-64.93,4.09-96.9-5.17-25.28-7.32-50.37-15-74.84-24.84-29.71-11.94-60.15-22.26-92.17-25.42-19.81-2-39.92-1.67-59.86-1.22-23.3.53-46.55,2.82-69.85,3.35-10.2.24-20.63-1.21-30.68-3.25-41.55-8.45-80.48-23.26-115.37-48-15.22-10.78-31.4-20.19-46.67-30.89-13.62-9.55-27.23-19.29-39.74-30.22-33.74-29.46-69.34-56.2-108.53-78-5.23-2.91-10.23-6.26-15.32-9.43-34.79-21.62-68.83-44.6-104.57-64.52-37.19-20.73-75.86-38.85-114.2-57.47-39.56-19.22-80-36.51-121.71-50.57a334,334,0,0,0-102-17.57C22.6,175.2,11.3,174.29,0,173.72v-10c7,.49,14,1.51,20.91,1.39,56-1,108.75,12.86,160.18,33.79,62.09,25.27,122.51,54.19,181.56,85.68,39,20.8,75.78,45.84,113.57,69,16.2,9.9,32.91,19.06,48.52,29.81,10.69,7.37,20.46,11.42,33.83,7.34,8.28-2.52,17.84-1.58,26.76-1.1,14.21.78,26.51,6.46,36,17.3a72.05,72.05,0,0,0,35.1,22c22.42,6.44,39.37,20.69,54.36,37.51,12.43,13.93,17.39,30.45,13.67,49.17-.57,2.87-.59,5.86-.94,9.65,7.66,3.55,14.89,7.86,22.7,10.33,20.31,6.4,40.72,12.6,61.38,17.71,17,4.2,34.43,2.44,51.76,1.49,25.94-1.44,51.89-2.81,77.86-3.32,24.17-.47,47.82,4,70.8,11.2,20.32,6.36,40.23,14,60.4,20.84,17.33,5.89,34.76,11.48,52.17,17.15a40.75,40.75,0,0,0,5,.94,16.59,16.59,0,0,0-.23-3.52c-9.95-28.78-1.35-59.85,22.24-80.3a120.73,120.73,0,0,1,40.53-23.23c12.87-4.35,26.27-8.08,39.72-9.59a265.07,265.07,0,0,1,71.72,1.63c36.78,5.92,52.2,29.77,53.62,65,.7,17.29-3.9,33.69-14.84,47.76a43.82,43.82,0,0,0-2.83,4.94,57.47,57.47,0,0,0,7.31,1c29.31,1,58.6,1.69,87.89-1.08,28.36-2.69,56.71-.6,84.67,4,31.53,5.19,63.11,4.08,94.73,3.51,19-.34,38-.38,56.93-2,15.52-1.36,31-4.41,46.23-7.61,16.55-3.47,32.89-8,49.18-12-4.06-10-8.16-19.63-11.86-29.39-10.82-28.53,5.25-58.3,31.9-70.07a97.82,97.82,0,0,1,42.86-8.41c26.6.86,53.37,1.69,79.68,5.38,27.39,3.84,49.43,19.28,66.5,40.83,5,6.26,7.09,14.74,10.86,22.95,14.45-4.34,29.65-9.22,45-13.48,34.65-9.59,69.45-18.68,104.08-28.34,40.52-11.29,71.62-32.9,94.68-65.35-2.14-1.47-4.3-2.9-6.4-4.4-11.37-8.1-15.21-21.72-9.54-34.52,1.61-3.64,3.81-7,5.77-10.5,5.91-10.5,5.93-21.12-.3-31.32-3.45-5.64-7.84-10.75-12.08-15.87-16.26-19.63-14.84-34.93,5.91-49.8,37.2-26.67,78.52-38.26,124.44-33.44a256.67,256.67,0,0,0,43.92.7c19.58-1.33,37.11-9.81,54.47-18.54,12.75-6.41,25.81-12.32,39.11-17.47,12.72-4.93,26.11-5,39.37-1.81,13.89,3.4,27.86,6.62,41.52,10.8,7.83,2.4,15.71,5.72,19.07,14,15.95-3.1,98.57-45.65,127.65-63.38-2.11-3.18-4.39-6.27-6.3-9.58-3.85-6.67-1.59-11,6.23-11.16,4.5-.12,8-.53,11.42-4.32,8-9,11.7-8.25,17.78,2.37.66,1.14,1.37,2.24,2.49,4.08a76.82,76.82,0,0,0,7.64-4.1c44.74-30.78,90.27-60.5,133.88-92.8,36.74-27.2,75.88-48,120.27-58.8,2.56-.62,5-1.69,7.52-2.55ZM2561.81,256.89c.16-1,.32-1.94.49-2.91-5.22-2.62-10.2-6-15.71-7.67-12.1-3.59-24.45-6.36-36.74-9.31-12.61-3-25.27-2.9-37.33,1.93a378.26,378.26,0,0,0-35.31,16.14c-25.16,13.21-51.15,22.36-80.17,20.38-14.94-1-29.92-1.56-44.89-2-36.13-1-67.8,11.94-96.78,32.23-16.08,11.26-16.66,20.37-4.12,35.62,4.63,5.64,9.42,11.29,13.13,17.53,7.93,13.4,7.79,27.19.1,40.81-1.15,2-2.41,4-3.51,6-7.46,14-2.36,25.06,13.9,29.22,7.18-8.41,14.51-17,21.86-25.58,24.36-28.42,53-51.55,86.72-67.84,21.86-10.55,43.88-21,66.56-29.55,42.63-16.1,85.8-30.78,128.72-46.14,7.76-2.72,15.39-5.88,23.08-8.87ZM1329.27,515.65l1.11-2.2c-3.17-2.67-6-6.16-9.58-7.85-6.89-3.18-14.07-6.25-21.45-7.75-24-4.9-48.45-5.1-72.62-1.87-21.55,2.88-42.11,9.57-60.74,21.47-16.17,10.33-26.8,24.46-32.49,42.76-4.84,15.57-.91,29.59,6.33,43.16.93,1.74,3.42,3,5.46,3.7,3.06,1,6.37,1.23,9.63,1.81,12.86-27.81,33.93-46.12,61.24-58,13.11-5.72,25.86-12.27,38.78-18.44a156.38,156.38,0,0,1,53.55-15.09C1315.41,516.72,1322.34,516.21,1329.27,515.65Zm-162.8,95.56c15.56,1.32,30,1.34,44.46-.62,32-4.33,64-9.25,96.32-6.73,10.45.81,17.12-2.62,22.25-11,1-1.69,2.43-3.19,3.38-4.92,10.61-19.37,12.6-39.33,4.71-60.5-29.92-1.6-57.6,3.71-83.37,17.72-2.59,1.41-4.65,4.57-6,7.39-5,10.77-13.07,18.21-23.66,23.29-8.73,4.18-17.93,4.36-27.31,4.13-3.13-.08-7.12,0-9.28,1.72C1178.69,589.31,1171.84,598.92,1166.47,611.21ZM1757.94,538c.62,16.54,5.37,31.4,15,44.67,2.78,3.83,6.35,5.51,11.26,4.39,3.87-.88,7.89-1.14,11.85-1.63,31-3.9,62.09-7.18,93-11.9,18.57-2.85,36.8-7.94,57.47-12.53-4.38-2.81-6.65-4.56-9.17-5.82-26.93-13.5-55.9-18.91-85.6-21.35-3.47-.29-6,1-8.94,3.14-17.63,13.21-36.68,16.62-57,6.57-6.19-3.06-12.1-6.7-18.34-10.19Zm210.64,16.48c1.18-8-1.28-14.46-5.81-20-14.8-18.08-33.55-31.37-56.26-35.8-30.44-6-61.58-6.92-92.61-4.77-12.69.87-25,4-35.71,11.6-5.67,4-10.63,8.68-14.17,16.2,16.11,0,31-.48,45.83.11,22.29.88,44.71,1.29,66.79,4.11,28.57,3.65,56.22,11.32,80.17,28.52C1960.71,557.25,1964.17,556.72,1968.58,554.48ZM712.69,517.72c4.26-17.25,1-31.73-9.9-43.92-13.89-15.48-29.41-28.71-50.15-34.71-13.87-4-26.74-10.62-36.32-21.81-16.88-19.72-38.14-19.4-61.52-15,1.15,1.7,1.52,2.65,2.21,3.22,21.12,17.24,41.54,35.43,63.58,51.39,28.53,20.65,58.35,39.52,87.64,59.11A36.34,36.34,0,0,0,712.69,517.72Zm2009-342.41-3-4.75-13.13,9c4.79,4.29,4.79,4.29,16.17-4.27Zm-917.64,363c-5.2-6.25-5.2-6.25-12.45-3.81ZM1218,566.4c-5.78-2-5.78-2-10.1,3.29Z"/><path d="M1578,937.72c.85-9.54,2.07-19.06,2.47-28.61.43-10.22.09-20.47.09-31.48l21.36-1.21c.75,2,1.34,2.84,1.4,3.75q1.52,25.82,2.91,51.63a58.47,58.47,0,0,1-.23,5.92Z"/><path d="M3000,529.72c-4.85,3.83-10,7.35-14.47,11.61-3.8,3.64-7.31,6.31-13.05,5.34-11-1.86-20.14,2.34-28.26,9.39-1.24,1.08-2.2,2.82-3.61,3.29-1.65.56-4.26.75-5.34-.19s-1.8-4-1.12-5.21a23.15,23.15,0,0,1,6.17-7.59c9-6.69,19-10.59,30.54-10.17,2.39.09,5.88-.24,7-1.76,5.88-7.68,14.13-12,22.09-16.71Z"/><path d="M1561.4,431.72c16.64,0,33.29-.27,49.93.08a158.4,158.4,0,0,1,46.18,7.44A56,56,0,0,1,1689,464c8.54,13.86,15.1,28.43,13.58,45.11-2.75,30.15-20.29,49.83-46.52,62.56-15.17,7.37-31.71,10.88-48.33,11.45-29.93,1-59.93,1.23-89.86.4-27.67-.76-53.84-8.64-78.14-22-7.54-4.14-15.07-8.85-21.33-14.66-13.63-12.67-17.37-37.1-8.88-53.81,20-39.28,52.24-60.48,96-63.31,18.57-1.2,37.28-.2,55.92-.2C1561.39,430.28,1561.39,431,1561.4,431.72Zm-114.16,48.9c-7.72,5.2-15.26,10.6-23.13,15.48-5.43,3.36-7.48,8.22-7.95,14.11-1.14,14.16,4.27,25.49,15.71,33.62a151.73,151.73,0,0,0,63.26,25.84c39.7,6.74,79.66,5.11,119.53,1.71,14.95-1.28,29.7-4.87,42.81-12.65,19-11.25,31.82-27,34.41-49.79.82-7.22-1.49-12.53-8.55-14.83-13.25-4.32-26.41-9.23-40-12.26-37.09-8.3-74.87-5.37-112-6.13C1509.45,501.26,1482.85,503,1447.24,480.62Zm-10.85-7.09a40.14,40.14,0,0,0,4.81-1.29c14.3-6.24,29.27-8.29,44.8-8q53.88.94,107.79,1.3a266.28,266.28,0,0,1,85.15,14.6,58.94,58.94,0,0,0,6.57,1.37c-8.49-19.92-16.75-27.55-35.63-33.25a63.54,63.54,0,0,0-11.64-2.66c-12.56-1.3-25.13-2.73-37.73-3.27-26.26-1.11-52.53-1.69-78.8-2.46-21.69-.64-42.39,3.25-61.53,13.86C1451.46,458.55,1443.36,464.22,1436.39,473.53Zm67.37,8.44a85.65,85.65,0,0,0-38.11-4.76C1477.35,486.21,1490.1,487.4,1503.76,482Z"/><path d="M565.44,816.53c-49.56-2.17-105.46-4.19-161.3-7.29-18.2-1-36.26-4.72-54.34-7.47a29.8,29.8,0,0,1-10.26-3.69c-6.62-3.81-6.56-10.34.25-13.9a41,41,0,0,1,13.2-4.32c21.43-2.87,42.85-6.17,64.39-7.76,77.14-5.67,154.43-5.9,231.68-3.72,39.57,1.11,79.08,4.7,118.59,7.53,8.92.64,17.76,2.65,26.57,4.36,3.56.69,7.34,1.69,10.27,3.66,2.43,1.64,5.24,4.94,5.19,7.44s-2.92,6.13-5.45,7.25a61.85,61.85,0,0,1-17.16,5c-23.78,2.87-47.57,6.33-71.46,7.55C667.73,813.55,619.78,814.66,565.44,816.53Z"/><path d="M2787.41,807.28c-6.71,0-11.86.21-17-.06-4-.21-7,.54-9.27,4.24-6.76,11-18.82,11.87-29.64,13.85-4.37.8-9.61-3.1-15.12-5.1-3.54,9.8,5.42,22.1-5.71,30.59,3.78,5.68,5.64,11.55.88,17.46-2.68,3.33-1.64,6.1.66,8.94a101.11,101.11,0,0,1,6.76,8.66c8.25,12.87,1.3,27.13-13.9,28.38-16.58,1.36-30.4-2.84-38-19.42-1.93-4.22-4.62-8.09-6.89-12-.76-.29-1.4-.8-1.93-.7-3.1.56-6.65,3-8.69-1.42-1.82-4,1.1-5.84,3.88-8a9.17,9.17,0,0,0,2.93-5.52c2.08-14.16,2.64-15.36,12.94-24.14-8.17-11.3-16.71-22.3-24.34-33.91a191.34,191.34,0,0,1-13.19-24.61c-5.17-11.08-4-21.19,3.23-31.86,20.2-30,49.12-47.18,82.28-58.62,9.32-3.22,17.18-1.3,24.48,6,14.68,14.74,24.65,32.16,31.88,51.39,1.64,4.34,3.11,8.75,4.86,13.69,3.88-3.34,7.21-6.49,10.84-9.25a46.65,46.65,0,0,1,27-9.23,25.37,25.37,0,0,0,13.12-3.62c3.06-1.89,6.77-2.72,10.13-4.15,2.1-.9,5-1.51,6-3.18,4.29-7.27,11.14-10.14,19.14-11.81,0-3.56-.2-6.81,0-10A126.29,126.29,0,0,1,2866.5,698c1-4.7,1-10.66,7.09-12.12,6.29-1.5,10.85,2.28,14.73,6.6,5.54,6.17,8.21,13.71,9.06,21.8a137,137,0,0,1,.71,18c0,1.87-2,3.7-3,5.56-2-1.34-5.24-2.27-5.84-4.08-1.22-3.68-.88-7.85-1.47-11.78-.82-5.55-1.42-11.22-3.06-16.54-1-3.09-3.76-5.61-6.8-9.88-3.41,9.4-3.94,16.77-3,24.39,1.26,10.27.1,11.51-10.18,14.47-3.31,1-7.2,2.61-9.09,5.21-3.4,4.69-7.74,6.83-12.88,8.72a64.9,64.9,0,0,0-14,7.34c-4.08,2.78-4.81,7.06-2.24,11.48,2.18,3.73,4.71,7.27,6.82,11a116.14,116.14,0,0,1,6.78,13.29c3.69,9.17,1,20.54-10.57,24.34-3.72,1.22-7,3.85-10.48,5.74-10.42,5.59-20.5,3.11-26.92-6.63C2790.27,811.91,2788.38,808.82,2787.41,807.28Zm-82.6,10.66c-5.51,1-10.65,2.47-15.86,2.87-11.43.9-17.56-5.44-16.7-16.87.72-9.59,4.68-17.94,10.33-25.58,16.72-22.63,45-31.51,68.79-21.6,8.41,3.5,10.94,9.22,7.29,17.49-1.46,3.31-3.19,6.84-5.75,9.27-7.46,7-15.36,13.64-23.18,20.31-2.39,2-5.09,3.71-9,6.51,5,2.21,8.77,5.51,11.85,4.94,6.36-1.17,13.15-3.31,18.22-7.11s6.67-11.63,14.8-11.83c.59,0,1.2-1.49,1.71-2.34,3.9-6.42,6.4-12.79,3-20.58-2.88-6.69-4.23-14-6.85-20.84-6.62-17.28-15.75-33-29.26-46-4.1-4-8.13-5.08-13.5-3.26-30.63,10.38-57.39,25.95-76.49,53.22-6.42,9.17-7.07,17.4-2.38,26.87,8.75,17.7,19.24,34.13,32.54,48.88,6.76,7.5,14.42,12.31,24.14,14.14,8.08-5.8,8.15-5.81,7.6-14.41-.21-4.55-.8-9.11-1.3-14.08Zm126.79-21.32c-2.84-13.52-18-22.87-17-39.54-13.59,1.5-23.52,6.63-28.92,18.11-3.07,6.54-4.8,13.7-7.14,20.59,2-.71,2.89-2.11,4.1-3.1,1.86-1.53,3.86-3.47,6-3.82.94-.15,2.61,3.14,3.66,5,3.2,5.73,6.07,11.67,9.51,17.25.93,1.51,3.46,2,6.32,3.6,0-4.4-.43-7.43.17-10.23.34-1.56,2.26-3.61,3.74-3.85s3.64,1.22,4.66,2.58c1.23,1.65,1.57,4,2.69,7.07a70.33,70.33,0,0,0,6.34-5.62,94.48,94.48,0,0,0,5.87-8Zm-80.42-28.68c-10.74-5.81-19.92-7.29-29.77-4.5-6,1.69-11.33,3.3-12.11,11-.31,3-2.76,6-4.72,8.65-5.36,7.22-11,14.34-19.41,18.23-3.15,1.45-4,4-2.75,6.4.8,1.61,3.47,3,5.44,3.15a19,19,0,0,0,7.79-1.29c18.19-6.25,34.53-15.59,47.63-29.89,3-3.22,5-7.38,7.9-11.75Zm-46.86,94.22c-.16-.92-.31-1.85-.47-2.78-7.08-2.54-14-5.65-21.28-7.49-7.8-2-13.77,2.24-15.39,10.24-.63,3.14-1,7,.27,9.73,4.38,9.23,9.42,18.16,14.54,27,.86,1.48,3.39,2,6.71,3.8-1.39-3.4-2.1-4.85-2.58-6.38-1-3.21-2.26-6.81,2-8.48,3.62-1.41,5.2,1.48,6.83,4.17,1.89,3.1,4.18,6,6.24,9,1.63,2.38,3.84,4.52,6.5,2.46a13,13,0,0,0,4.45-6.93c.41-1.86-1-4.51-2.31-6.27-2.78-3.71-6-7-9.09-10.54-2-2.25-4.25-4.31-5.76-6.83-2-3.34-1.66-6.3,2.77-7.73a60.57,60.57,0,0,0,6.57-3Z"/><path d="M2508.27,821.65c1.11-10.29,3.62-17.87,10.39-23.84a46.35,46.35,0,0,0,9.2-11.47c4.63-8,11.37-12.79,19.91-15.57,5.6-1.83,10.63-.33,15,2.91,1.51,1.11,1.91,3.74,2.82,5.67-2.2.95-5,3.28-6.47,2.61-5.48-2.59-11-2.82-14.86,1.36-8.59,9.42-16.5,19.5-24.25,29.64-1.63,2.15-.89,6-2.15,8.59-1,2-3.38,3.41-5.15,5.09Z"/><path d="M1601.3,846.52h-20.24v-52.8l14.93-2C1598.5,810.63,1600.74,828.72,1601.3,846.52Z"/><path d="M1595.87,782.66l-13.9,2c-.37-19,.23-37.36,1.3-56l8.84-1.19C1593.37,745.93,1594.6,763.93,1595.87,782.66Z"/><path class="cls-1" d="M802.47,628.72a19.3,19.3,0,0,1,12.69,8c3,4,6.15,6,10.5,1.27,3.92-4.25,8.45-.89,13.6-.86-.78,3.21-1.8,5.68-1.86,8.18s.12,6.34,1.54,7.11c2.08,1.12,5.38.19,8.11-.2,1.16-.17,2.19-1.21,4.27-2.44a89.42,89.42,0,0,1-1.48,31.45L799,684.84C800.14,665.87,801.28,647.61,802.47,628.72Z"/><path d="M152.17,893.66c-.16,2.32.26,4.9-.64,6.88a7.7,7.7,0,0,1-4.74,4c-1.12.23-3.44-2-4-3.58-.79-2.06-.47-4.57-.53-6.88-.21-7.62-1.19-9-8.43-11.31a13.86,13.86,0,0,0-4.84-1c-9.87.62-14.6-5.23-17-13.63-2-7-5.74-11.86-13-13.67-6.49-1.63-10.09-6.17-11.83-12.32-1.49-5.28-3.49-9.88-8.89-12.56-1.38-.68-2.62-4.28-2-5.61s3.8-2.68,5.6-2.4c6.54,1,10.86,5.48,12.44,11.55,1.94,7.47,5.75,11.93,13.3,14.34,6.64,2.12,10.66,7.78,12.57,14.55,1.75,6.25,4.31,11,12.17,10.26,2.45-.23,5.14,1.24,7.6,2.22C149.48,878.28,152.6,883.24,152.17,893.66Z"/><path class="cls-1" d="M2561.81,256.88c-7.69,3-15.32,6.15-23.08,8.92-42.92,15.36-86.09,30-128.72,46.14-22.68,8.56-44.7,19-66.56,29.55-33.74,16.29-62.36,39.42-86.72,67.84-7.35,8.58-14.68,17.17-21.86,25.58-16.26-4.16-21.36-15.22-13.9-29.22,1.1-2,2.36-4,3.51-6,7.69-13.62,7.83-27.41-.1-40.81-3.71-6.24-8.5-11.89-13.13-17.53-12.54-15.25-12-24.36,4.12-35.62,29-20.29,60.65-33.24,96.78-32.23,15,.42,29.95,1,44.89,2,29,2,55-7.17,80.17-20.38A378.26,378.26,0,0,1,2472.52,239c12.06-4.83,24.72-5,37.33-1.93,12.29,3,24.64,5.72,36.74,9.31,5.51,1.63,10.49,5,15.71,7.67C2562.13,254.94,2562,255.91,2561.81,256.88Z"/><path class="cls-1" d="M1329.27,515.65c-6.93.56-13.86,1.06-20.78,1.69a156.38,156.38,0,0,0-53.55,15.09c-12.92,6.17-25.67,12.72-38.78,18.44-27.31,11.89-48.38,30.2-61.24,58-3.26-.58-6.57-.82-9.63-1.81-2-.66-4.53-2-5.46-3.7-7.24-13.57-11.17-27.59-6.33-43.16,5.69-18.3,16.32-32.43,32.49-42.76,18.63-11.9,39.19-18.59,60.74-21.47,24.17-3.23,48.58-3,72.62,1.87,7.38,1.5,14.56,4.57,21.45,7.75,3.63,1.69,6.41,5.18,9.58,7.85Z"/><path class="cls-1" d="M1166.47,611.21c5.37-12.29,12.22-21.9,21.54-29.49,2.16-1.75,6.15-1.8,9.28-1.72,9.38.23,18.58,0,27.31-4.13,10.59-5.08,18.63-12.52,23.66-23.29,1.31-2.82,3.37-6,6-7.39,25.77-14,53.45-19.32,83.37-17.72,7.89,21.17,5.9,41.13-4.71,60.5-1,1.73-2.34,3.23-3.38,4.92-5.13,8.35-11.8,11.78-22.25,11-32.36-2.52-64.35,2.4-96.32,6.73C1196.48,612.55,1182,612.53,1166.47,611.21Z"/><path class="cls-1" d="M1757.94,538l9.46-4.65c6.24,3.49,12.15,7.13,18.34,10.19,20.36,10,39.41,6.64,57-6.57,2.91-2.18,5.47-3.43,8.94-3.14,29.7,2.44,58.67,7.85,85.6,21.35,2.52,1.26,4.79,3,9.17,5.82-20.67,4.59-38.9,9.68-57.47,12.53-30.87,4.72-62,8-93,11.9a117.31,117.31,0,0,0-11.85,1.63c-4.91,1.12-8.48-.56-11.26-4.39C1763.31,569.4,1758.56,554.54,1757.94,538Z"/><path class="cls-1" d="M1968.58,554.48c-4.41,2.26-7.87,2.77-11.77,0-24-17.2-51.6-24.87-80.17-28.52-22.08-2.82-44.5-3.23-66.79-4.11-14.84-.59-29.72-.11-45.83-.11,3.54-7.52,8.5-12.16,14.17-16.2,10.68-7.62,23-10.73,35.71-11.6,31-2.15,62.17-1.18,92.61,4.77,22.71,4.43,41.46,17.72,56.26,35.8C1967.3,540,1969.76,546.52,1968.58,554.48Z"/><path class="cls-1" d="M712.69,517.72c-2.13-.82-3.44-1.07-4.46-1.76-29.29-19.59-59.11-38.46-87.64-59.11-22-16-42.46-34.15-63.58-51.39-.69-.57-1.06-1.52-2.21-3.22,23.38-4.36,44.64-4.68,61.52,15,9.58,11.19,22.45,17.8,36.32,21.81,20.74,6,36.26,19.23,50.15,34.71C713.72,486,717,500.45,712.69,517.72Z"/><path class="cls-1" d="M2721.73,175.29c-11.38,8.56-11.38,8.56-16.09,4.22l13.13-9Z"/><path class="cls-1" d="M1804.09,538.34l-12.45-3.81C1798.89,532.09,1798.89,532.09,1804.09,538.34Z"/><path class="cls-1" d="M1218,566.4l-10.1,3.29C1212.22,564.44,1212.22,564.44,1218,566.4Z"/><path class="cls-1" d="M1447.24,480.62c35.61,22.41,62.21,20.64,84.07-4.9,37.17.76,75-2.17,112,6.13,13.57,3,26.73,7.94,40,12.26,7.06,2.3,9.37,7.61,8.55,14.83-2.59,22.78-15.42,38.54-34.41,49.79-13.11,7.78-27.86,11.37-42.81,12.65-39.87,3.4-79.83,5-119.53-1.71a151.73,151.73,0,0,1-63.26-25.84c-11.44-8.13-16.85-19.46-15.71-33.62.47-5.89,2.52-10.75,7.95-14.11C1432,491.22,1439.52,485.82,1447.24,480.62Z"/><path class="cls-1" d="M1436.39,473.53c7-9.31,15.07-15,23.79-19.81,19.14-10.61,39.84-14.5,61.53-13.86,26.27.77,52.54,1.35,78.8,2.46,12.6.54,25.17,2,37.73,3.27a63.54,63.54,0,0,1,11.64,2.66c18.88,5.7,27.14,13.33,35.63,33.25a58.94,58.94,0,0,1-6.57-1.37,266.28,266.28,0,0,0-85.15-14.6q-53.91-.33-107.79-1.3c-15.53-.28-30.5,1.77-44.8,8A40.19,40.19,0,0,1,1436.39,473.53Z"/><path class="cls-1" d="M1503.76,482c-13.66,5.43-26.41,4.24-38.11-4.76A85.65,85.65,0,0,1,1503.76,482Z"/><path class="cls-1" d="M2498.77,9.16,2514.55,0c1.9,7.73,9.38,8.53,19.83,8.85-6.83,4.79-12.43,7.85-10.76,15.75-7.18-7.62-14.1-9.88-21.23-1.64C2501,17.72,2499.77,13,2498.77,9.16Z"/><path class="cls-1" d="M2143.57,194.24c0,3.6-.38,6.9.11,10,.45,2.81,1.87,5.46,2.8,8L2133.59,220l-11-9.35c3.38-5.11,9.43-9.57,5.12-18.12Z"/><path class="cls-1" d="M2704.81,817.94c.5,5,1.09,9.53,1.38,14.11.55,8.6.48,8.61-7.6,14.41-9.72-1.83-17.38-6.64-24.14-14.14-13.3-14.75-23.79-31.18-32.54-48.88-4.69-9.47-4-17.7,2.38-26.87,19.1-27.27,45.86-42.84,76.49-53.22,5.37-1.82,9.4-.69,13.5,3.26,13.51,13,22.64,28.69,29.26,46,2.62,6.82,4,14.15,6.85,20.84,3.35,7.79.85,14.16-3,20.58-.51.85-1.12,2.33-1.71,2.34-8.13.2-9.83,8.09-14.8,11.83s-11.86,5.94-18.22,7.11c-3.08.57-6.89-2.73-11.85-4.94,3.88-2.8,6.58-4.48,9-6.51,7.82-6.67,15.72-13.26,23.18-20.31,2.56-2.43,4.29-6,5.75-9.27,3.65-8.27,1.12-14-7.29-17.49-23.77-9.91-52.07-1-68.79,21.6-5.65,7.64-9.61,16-10.33,25.58-.86,11.43,5.27,17.77,16.7,16.87C2694.16,820.41,2699.3,819,2704.81,817.94Z"/><path class="cls-1" d="M2831.6,796.62c-2.46,3.45-4,5.93-5.84,8.07a70.33,70.33,0,0,1-6.34,5.62c-1.12-3.1-1.46-5.42-2.69-7.07-1-1.36-3.24-2.81-4.66-2.58s-3.4,2.29-3.74,3.85c-.6,2.8-.17,5.83-.17,10.23-2.86-1.56-5.39-2.09-6.32-3.6-3.44-5.58-6.31-11.52-9.51-17.25-1-1.89-2.72-5.18-3.66-5-2.16.35-4.16,2.29-6,3.82-1.21,1-2.07,2.39-4.1,3.1,2.34-6.89,4.07-14,7.14-20.59,5.4-11.48,15.33-16.61,28.92-18.11C2813.63,773.72,2828.76,783.1,2831.6,796.62Z"/><path class="cls-1" d="M2751.18,767.94c-2.88,4.37-4.91,8.53-7.9,11.8-13.1,14.3-29.44,23.64-47.63,29.89a19,19,0,0,1-7.79,1.29c-2-.19-4.64-1.54-5.44-3.15-1.21-2.41-.4-5,2.75-6.4,8.45-3.89,14-11,19.41-18.23,2-2.65,4.41-5.63,4.72-8.65.78-7.75,6.14-9.36,12.11-11C2731.26,760.65,2740.44,762.13,2751.18,767.94Z"/><path class="cls-1" d="M2704.32,862.16a59.91,59.91,0,0,1-6.54,2.94c-4.43,1.43-4.77,4.39-2.77,7.73,1.51,2.52,3.8,4.58,5.76,6.83,3.05,3.49,6.31,6.83,9.09,10.54,1.32,1.76,2.72,4.41,2.31,6.27a13,13,0,0,1-4.45,6.93c-2.66,2.06-4.87-.08-6.5-2.46-2.06-3-4.35-5.86-6.24-9-1.63-2.69-3.21-5.58-6.83-4.17-4.29,1.67-3.05,5.27-2,8.48.48,1.53,1.19,3,2.58,6.38-3.32-1.81-5.85-2.32-6.71-3.8-5.12-8.85-10.16-17.78-14.54-27-1.28-2.7-.9-6.59-.27-9.73,1.62-8,7.59-12.21,15.39-10.24,7.26,1.84,14.2,4.95,21.28,7.49C2704,860.31,2704.16,861.24,2704.32,862.16Z"/></svg>