<svg id="Layer_1" data-name="Layer 1" xmlns="http://www.w3.org/2000/svg" viewBox="0 0 3000 3000"><defs><style>.cls-1{fill:#2ecfff;}.cls-2{fill:#fefefe;}.cls-3{fill:#0a0c0d;}.cls-4{fill:#0a0c0e;}.cls-5{fill:#b9efff;}.cls-6{fill:#090b0d;}.cls-7{fill:#090d07;}.cls-8{fill:#090d09;}.cls-9{fill:#070c08;}.cls-10{fill:#080e09;}.cls-11{fill:#fcfdfd;}.cls-12{fill:#fbfcfc;}.cls-13{fill:#f1f200;}.cls-14{fill:#eced00;}</style></defs><path class="cls-1" d="M.1,2208.83V1211.59c1.81-2.8,3.45-.7,4.78.38,8.85,7.18,19.17,10.39,30.28,11.79,5.28.66,10.53,1.61,15.77,2.59,45.2,8.43,90,8.23,134.36-5.44a100.15,100.15,0,0,1,40.5-3.66c10.68,1.13,20.85,4.27,31.08,7.14a101.6,101.6,0,0,0,41.57,2.89c18.82-2.56,37.57-5.78,55.58-11.88,18.5-6.27,37.47-9,56.83-10a102.41,102.41,0,0,0,32-7c29.57-11.54,44.69-43.7,18.21-73.1l-.66-.75c-28.85-32.67-63.62-55.25-107.09-63.27-34.48-6.36-66.38-19-95.36-39a276.2,276.2,0,0,0-32.55-19.45c-27.82-14-57.26-22.7-88.47-20.5C91.33,985.57,45.73,984,.1,983.76V2.51H3000V3000H.1V2420.67A178.38,178.38,0,0,0,41,2420c19.72-2.83,39-2,58.26,3.74,22.46,6.73,45.72,9.11,69.13,8.13A479.47,479.47,0,0,0,218,2427c10.84-1.59,21.76-3.34,32.81-1.71,29.27,4.32,55.77-3.82,81.66-16.77,19-9.51,29.09-25.67,37.28-43.81,2.08-4.62,2.14-9.63,1.13-14.71-3.38-17-13-29.79-26.81-39.46-19.68-13.79-41.36-23-65.61-24.22-19.95-1-40-.79-59.92-1.48-18.64-.65-33.32-7.81-44.79-23.67-32-44.24-76.08-62.44-130.28-57.6C29,2204.86,14.68,2208,.1,2208.83ZM332.6,394.12a74.73,74.73,0,0,0,23.47-2.07c14.68-3.7,28.66-8.91,39.78-19.72,9.5-9.23,11.46-19.75,6.27-31.92-4.25-10-11.55-17-21.06-21.82a99.31,99.31,0,0,0-25.53-8.39c-14-2.82-28.12-5.36-42.2-7.89-10.42-1.88-19.5-5.63-26.73-14.06s-17.4-13.2-28.43-15.59c-7.15-1.55-14.32-3-21.39-4.91A65.76,65.76,0,0,0,217,265.9c-17.3.67-33.4,6.15-48.78,13.31C153.59,286,140.47,295,133.37,310.65c-2.9,6.4-8.26,11.21-14.19,15.17a64.36,64.36,0,0,0-17.55,17.57C91.71,358,93.8,371,107.85,381.73a56,56,0,0,0,24.51,10.64c42.71,7.67,85.51,7.4,128.3.78,12.23-1.88,24.27-3.21,36.74-1.64C308.93,393,320.56,394.46,332.6,394.12ZM894.27,704.64v-.4c7.32,0,14.66.24,22-.06a50.33,50.33,0,0,0,26.16-8.86c10.66-7.12,14.89-18.48,11.5-30.46-2.73-9.7-9.74-15.65-18.47-19.79-5.5-2.6-10.31-5.7-13.81-11-10.18-15.4-25-22.52-43.22-22.37-6,0-10.27-1.5-15.11-5.32-15.88-12.53-33.7-18.74-54-11.94a60.1,60.1,0,0,0-25.52,17A33.61,33.61,0,0,1,763,622.35c-4.28.62-8.54,1.42-12.82,2-20.32,2.73-37.28,11.61-50.64,27.26-7.41,8.69-7.79,18-2.59,27.79a34.19,34.19,0,0,0,16.5,15.37,94.31,94.31,0,0,0,28.77,7.73c6.92.79,13.94.73,20.73,2.82,12.43,3.82,25.2,6.13,38,8.14,19,3,37.76,3.12,55.72-5.46,5.78-2.77,12.24-3.1,18.56-3.32S887.94,704.64,894.27,704.64ZM579.72,2004.48c21.76-.74,40.77-5.59,56.57-19.47,3.5-3.07,7-6.08,10.78-8.83,7.24-5.28,8.85-11.81,5.52-20.2-3-7.69-8.56-13.32-15.17-18.07-12.81-9.21-27.3-13.52-42.83-14.63-8.79-.63-17-2.47-24.27-7.88a33.66,33.66,0,0,0-13.7-5.8c-12.84-2.53-24.7-1.41-32.47,11.05a10.17,10.17,0,0,1-5.3,4.21c-7.72,3-15.33,6.12-23.9,6.49a51.57,51.57,0,0,0-28.69,10.36c-8.53,6.32-16.75,13-25.68,18.81-9.17,6-9.69,14.64-2.53,23,6.68,7.82,15.49,12.49,25,15.81,24.39,8.53,49.23,11,74.53,4.49,8.81-2.25,17.52-3.27,26.59-1.17C569.64,2003.93,575.38,2004,579.72,2004.48Zm1970.68-28c-.09-7.32-4.58-10.6-11.14-7-12,6.55-22.31,6.61-32.48-3-2.72-2.56-6.56-3.59-10.18-1.35s-3.9,6.1-3.47,9.77c.62,5.27,1.6,10.51,2.69,15.71.79,3.75-.38,5.63-4.24,6.06-4.63.51-9.22,1.31-13.84,1.87-4.19.51-8.27,1.51-8.79,6.43-.5,4.65,2.94,7.18,6.72,8.9,6.34,2.88,12.62,6,19.22,8.18,5,1.61,6.89,4.39,7.28,9.29a171.24,171.24,0,0,0,2.35,18.77c1.22,6.32,3.37,7.24,9.8,6.94,4.26-.19,5.75-3,7-6q4.5-10.53,8.48-21.28c1.33-3.58,3.19-4.37,6.79-3,5.27,2,10.75,3.41,16.14,5.11,3.71,1.17,7.36,1.37,10.13-1.82s1.79-6.88.55-10.4c-2.32-6.62-5.36-12.77-10.83-17.54-4.86-4.23-7-9.28-4.38-15.9C2549.57,1982.88,2549.85,1979.11,2550.4,1976.49Zm354.25-1244c8.09,2.44,15.29,5,22.69,6.73s12-3.07,9.68-10.22c-1.7-5.26-2.5-11.4-7.15-15.07-9.32-7.36-11.44-16.29-7.21-27.08a4.57,4.57,0,0,0,.23-1c1.55-9.09-2.9-13.48-11.1-9.22-12.12,6.29-21.88,5.55-32.55-3.24-7.11-5.86-13.58-1.54-13.12,7.93a94.76,94.76,0,0,0,2.7,16.68c.83,3.59-.61,5-3.68,5.49-4.92.79-9.85,1.48-14.8,2.11-3.82.49-7.51,1.45-8.34,5.75-.9,4.73,2.39,7.25,6.09,9.22,6.45,3.44,13,6.69,20.08,8.65,4.69,1.31,6.45,4.19,6.93,8.49.58,5.28.79,10.62,1.75,15.83s1,11.54,8,12.2c6.72.63,8.59-5.41,10.68-10.17C2898.69,748.32,2901.38,740.83,2904.65,732.48Zm-384.1,2132.08,6.4,7c2.45,2.72,4.87,5.47,7.37,8.14s5.42,4,9,2.78,4.83-4.29,5.16-7.79c.42-4.34.62-8.85-.81-12.89-4-11.37-3.58-20.77,9.26-26a2.85,2.85,0,0,0,.77-.63c5.17-4.81,4.66-10.12-1.5-13.88a20.46,20.46,0,0,0-10.42-3.14c-10.83-.13-19-4-22.83-15-.73-2.12-2.46-3.93-3.82-5.82-2.37-3.33-5.08-6.61-9.64-6-5,.69-7.17,4.67-8.19,9a131.68,131.68,0,0,0-2.91,16.68c-.42,4.22-2.35,6.57-6.11,8.14-4.29,1.79-8.5,3.83-12.6,6-3.26,1.73-6.53,3.76-5.86,8.31.59,4,4,5,7.17,6a72.67,72.67,0,0,0,10.67,2.56c4.16.64,4.72,3,3.66,6.36-.6,1.9-1.49,3.72-2,5.64q-2.19,8.19-4.17,16.43c-.69,2.84-.07,5.44,2.52,7s5.19.85,7.43-.93c2.08-1.65,4-3.54,6-5.25C2509.93,2873.38,2514.81,2869.35,2520.55,2864.56ZM2350,2476.49c-.29,6.19,2.66,9.06,7.1,8,2.68-.65,4.72-2.42,6.58-4.33,4.41-4.52,8.84-9,13-13.72,2.36-2.63,4.15-2.64,6.43,0,3.88,4.54,7.92,9,12,13.36,2.38,2.59,5.29,4.18,8.9,3.09,4.16-1.24,5.31-4.77,5.69-8.53a25.26,25.26,0,0,0-.79-10.87c-4.07-11.72-4-21.35,9.28-28,6.53-3.27,5.25-10.28-1.37-14.13-4.13-2.41-8.8-3.1-13.43-3.37-8.57-.52-15-3.44-17.93-12.37-1-3-3.56-5.56-5.53-8.23-2.42-3.27-5.13-6.42-9.76-5.61-5,.87-7,4.94-8,9.21a97.76,97.76,0,0,0-2.4,14.72c-.44,5.21-2.67,8.49-7.59,10.49a74,74,0,0,0-14.16,7.2c-5.29,3.68-4.57,8.82,1.35,11.48,3,1.34,6.35,1.83,9.56,2.68,8.25,2.21,8.38,2.34,6.14,10.8C2353.37,2464.82,2351.49,2471.18,2350,2476.49Zm362-695.25c-.48,6.84,3.7,10.14,10.19,8.5,6-1.54,10.62-5.53,15.06-9.49,3.46-3.07,6.09-3,9.4,0a97.65,97.65,0,0,0,9.41,7.38c3.21,2.33,6.83,3.14,10.22.74,3-2.15,3.4-5.54,2.58-9-.53-2.26-1.12-4.52-1.75-6.76-1.17-4.14-4.79-8-3.85-12.17,1.17-5.11,7.25-5.08,11.2-7.27,3.64-2,7-4.39,7.12-8.89s-3.36-7-6.87-9a11.16,11.16,0,0,0-3.59-1.71c-9.84-1.58-15.47-8.28-20.14-16.22a38.39,38.39,0,0,0-2.91-4c-1.79-2.3-4.06-3.39-7-2.6a6.4,6.4,0,0,0-4.87,5.69,114.14,114.14,0,0,0-1.78,13.84c-.16,5.45-2.79,7.56-7.9,7.89-6,.39-12.06.46-17.82,1.84-7.39,1.76-9,8.15-3.69,13.58a40,40,0,0,0,8.89,6.33c3.81,2.19,5.2,4.44,2.79,8.77A40.17,40.17,0,0,0,2712,1781.24Zm-307.66-87.74c7.11.17,11.16-4.68,9.12-11.75a49,49,0,0,0-5.54-11.65c-2.41-3.93-2.55-7.35.47-10.9a21.16,21.16,0,0,0,2.8-4.11c4.1-8,.19-14-8.88-13.32a44.09,44.09,0,0,0-11.68,2.37c-6.62,2.43-11.42.7-15.51-4.8a47.24,47.24,0,0,0-6.93-7.14c-7.36-6.41-13.21-4.69-16.44,4.68-1.86,5.42-2.07,11.12-2.19,16.73-.11,4.89-2,7.94-6.27,10.31-4.63,2.58-8.83,5.91-13.23,8.89-3,2.07-2.7,5.12-2.24,8.08s3.07,3.28,5.28,3.74c2.59.55,5.27.64,7.91,1,17.56,2.43,17.56,2.44,18.51,19.93.25,4.73.3,9.9,5.94,11.37,4.85,1.27,8-2.31,10.78-5.73a34.29,34.29,0,0,0,3.81-5.82,99.67,99.67,0,0,0,5.51-11.7c1.67-4.62,4.12-5.27,8.35-3.23C2397.17,1692,2400.58,1693.55,2404.36,1693.5ZM2805.1,921.23c7.56.38,11.69-4.19,10.68-10.78-.62-4-2.64-7.55-4.83-10.85-3.34-5-3.91-9.45.45-14.31,3.24-3.61,5.06-8.13,2-12.76-2.92-4.43-7.68-2.87-11.91-2.76a2.62,2.62,0,0,0-1,.1c-12.58,5.68-21.27,1.13-29.68-9-7.26-8.77-14.46-6.1-17.43,5.32a49.33,49.33,0,0,0-1.67,12.78c.08,6.3-2,10.59-7.88,13.49a59.66,59.66,0,0,0-12.28,8.46c-5.07,4.34-4,9.34,2.45,10.92a96.1,96.1,0,0,0,14.77,2.13c11.32,1,12.24,1.87,12.65,13.14,0,1,0,2,0,3,.42,5.44-1.26,12.45,5.94,14.21s10.51-4.5,13.56-9.56a123.34,123.34,0,0,0,6.95-14.3c1.48-3.39,3.35-4.38,6.91-2.77S2802.34,920.28,2805.1,921.23Zm-42-517c-.73,7,3.62,10.41,10.62,8.37,5.95-1.73,10.5-5.73,15-9.7,3.14-2.79,5.59-2.59,8.59.09a129.25,129.25,0,0,0,10.21,8c2.91,2.1,6.27,2.58,9.42.76,3.39-1.95,3.53-5.44,3-8.84-.72-5-2.75-9.55-4.52-14.22-2.35-6.22-2-6.94,4-9.94,3-1.48,6.24-2.51,8.91-4.41,5.61-4,5.61-9.84.23-14.11a20.52,20.52,0,0,0-8.88-4.4c-7.13-1.35-11.7-5.82-15.23-11.77-1.19-2-2.63-3.84-3.93-5.78-1.92-2.85-4-5.48-8-4.67-4.54.92-5.24,4.58-5.7,8.33s-.8,7.29-1.31,10.91c-1,7.18-1.24,7.49-8.59,8.33-5.29.6-10.64.66-15.91,1.37-3.36.46-6.47,1.95-7.61,5.61-1.28,4.11.8,7.17,3.71,9.6a42.21,42.21,0,0,0,7.47,4.94c4.26,2.24,5.74,4.82,2.94,9.41A34.6,34.6,0,0,0,2763.13,404.24Zm75.52-211.44c-.84,6.23,4,10.66,10.39,8.66,3.43-1.06,6.62-3,9.78-4.83,11-6.3,11-6.34,20.74,1.37,7.74,6.13,15.37,3.72,18.18-5.88a22,22,0,0,0-.58-14.67c-1.42-3.54-.52-5.67,3-6.9a18.69,18.69,0,0,0,3.62-1.62c7-4.27,8.07-10.82,1.24-14.93-7.61-4.58-11.71-10.86-15.44-18.52-5.73-11.76-10.89-12.11-20.13-2.82a21.08,21.08,0,0,0-2.1,2.13c-6.54,8.85-13.89,16.06-26.32,13.38a4.48,4.48,0,0,0-2,.25c-5.78,1.52-7.77,6-5.14,11.49,1.78,3.73,4.8,6.38,8.11,8.61,4.05,2.75,4.6,5.82,2.44,10.17S2839.68,187.43,2838.65,192.8Zm-29.93,965c.27-6.21-4-9.24-9.83-6.22-6.16,3.21-11.88,7.28-17.71,11.09-3.8,2.47-7.22,2.55-10.73-.62a106.35,106.35,0,0,0-8.58-6.81c-3.68-2.67-7.68-4.42-11.91-1.32-3.94,2.9-3.68,7.3-1.94,10.88,5.11,10.49,3.45,19.73-3.84,28.39a8.24,8.24,0,0,0-.92,1.77c-4.57,9.42-2.58,14.18,7.6,15.15,7.69.74,12.65,3.18,16,10.65,2.72,6.09,7.94,6.31,13.09,1.59a41,41,0,0,0,7.48-9.26c2.44-4.14,5.12-4.65,8.92-2.17a41,41,0,0,0,4.4,2.33c4.35,2.14,8.83,3.77,12.79-.52s2.06-8.72-.06-13c-2.82-5.64-5.67-11.29-8.94-16.67-2.53-4.17-2.22-8-.39-12.19S2808.25,1162.57,2808.72,1157.83Zm-105,1524.69c.84-7.23-3.24-10.66-9-8.4a49.41,49.41,0,0,0-7.74,4.44c-3.66,2.28-7.31,4.58-10.88,7-3.78,2.56-7.17,2.46-10.66-.69a95.56,95.56,0,0,0-9.4-7.37c-3.48-2.43-7.38-3.46-11.12-.72-3.45,2.54-3.26,6.3-2.28,10a68.06,68.06,0,0,0,2.68,8.53c1.93,4.73,1.31,8.9-1.46,13.17a78.15,78.15,0,0,0-7.16,13.05c-2.16,5.28,0,9.14,5.31,10.87a22.31,22.31,0,0,0,6.86,1.13c5.61,0,8.88,2.36,11.5,7.53,4.66,9.23,10.73,10.27,16.52,1.9,6.26-9,12-13.25,21.84-5.62a5.78,5.78,0,0,0,2.83.82c5.23.53,9-2.89,9-8.18,0-3.46-1.51-6.4-3.09-9.34-2.66-5-5-10.15-8-14.91-2.4-3.84-2.29-7.34-.59-11.24C2700.74,2690.23,2702.35,2685.88,2703.69,2682.52ZM2606.2,262.87c3.26-1,6.14-1.73,9-2.65,3.36-1.1,6.08-3.08,6.49-6.81a7.68,7.68,0,0,0-4.86-8c-6.54-2.78-9.25-7.82-10.92-14.33-1.13-4.43-3.66-8.51-5.53-12.76-1.25-2.82-2.73-5.5-6.18-5.82-4.18-.39-5.78,2.76-7.08,5.86-3.68,8.77-8.45,13.56-19.6,11.32-9.81-2-14.39,6.46-9.78,15.51a15.37,15.37,0,0,0,2.07,3.4c4,4.4,3.62,8.84.53,13.52a50.09,50.09,0,0,0-2.77,5.29c-1.76,3.5-2.44,7,.64,10.13s6.5,2.89,10.17,1.36a23.16,23.16,0,0,0,3.71-1.42c7.46-4.91,14.38-6.81,19.63,2.92a2.63,2.63,0,0,0,.74.66c6.35,4.82,12.81,2.32,13.71-5.54C2606.57,271.55,2606.2,267.53,2606.2,262.87ZM2828.27,2315.4c2.2-.69,4.68-1.56,7.21-2.24,4.1-1.1,7.77-2.87,8.16-7.57.35-4.15-2.45-7-5.92-8.45-5.56-2.31-7.84-6.61-9.35-12a71.29,71.29,0,0,0-4.56-11c-1.79-3.77-2.5-8.93-7.95-9.17-5.64-.25-6.53,5.08-8.27,8.74-3.15,6.68-7,11.25-15.26,8.38a11.85,11.85,0,0,0-4.94-.28c-8,.86-11.65,6.91-8.59,14.23a14.53,14.53,0,0,0,2.54,4.28c4.71,5,3.91,10.07.4,15.27a33.74,33.74,0,0,0-1.89,3.51c-1.74,3.39-3,6.91-.21,10.27,3,3.63,6.86,3.54,10.9,1.87a20.33,20.33,0,0,0,3.7-1.45c7.58-5.19,14.16-6.09,19.75,3.08a7.14,7.14,0,0,0,8.93,2.57c4-1.57,5.29-4.78,5.34-8.73C2828.3,2323.05,2828.27,2319.41,2828.27,2315.4Zm-421.37,350c2,2.1,4,4.28,6.07,6.34,2.79,2.76,6.12,4.16,10,2.76a7.57,7.57,0,0,0,5.07-7.86c-.37-6.67,2.48-9.87,8.75-12.24,7.36-2.79,7.57-10,1.16-14.72a24.35,24.35,0,0,0-10.94-4.61c-4.88-.67-7.22-3.07-9.35-7.39-4.74-9.55-9.26-9.6-16-.91a9.5,9.5,0,0,0-1.17,1.62c-2.21,4.7-5.94,5.6-10.74,4.81a49.17,49.17,0,0,0-9.93-.44,7.19,7.19,0,0,0-6.88,4.93c-1,2.86.56,5.2,2.5,7.12a32.05,32.05,0,0,0,5.39,4.41c4.27,2.68,6.22,5.82,3,10.58a11,11,0,0,0-1.23,2.72c-1,3.25-1.75,6.54,1,9.32,3,3,6.4,2.62,10.16,1.29C2398.59,2671.45,2402,2667.56,2406.9,2665.42Zm85.42-1555.54a60.27,60.27,0,0,0-7.83.07c-3.08.41-5.76,1.86-6.61,5.19-.75,2.9.63,5.19,2.7,7a47.43,47.43,0,0,0,6.18,5c3.81,2.37,4.78,5.15,2.36,9.09a17.73,17.73,0,0,0-1.82,4.61c-2,7.23,2.5,11.87,9.7,10,4.24-1.11,7.85-3.55,11.25-6.23,2.23-1.76,4.1-1.76,6,.38a40.85,40.85,0,0,0,4.13,4.29c6.63,5.46,13.23,3.45,14.48-5.06.93-6.33,2.24-10.59,9.32-12.91,6.88-2.27,7-9.35,1.16-14.11a21.68,21.68,0,0,0-10.81-4.79c-5.3-.66-7.85-3.3-10.14-7.9-4.52-9-9.57-9.52-15.27-1C2503.26,1109.33,2499.21,1112.08,2492.32,1109.88ZM2051.86,2827.82c-.1-7.42-4.06-11.18-11.09-10-5.66,1-9.88.57-14.35-3.78-4.92-4.8-10.05-2.93-12.2,3.51a29.79,29.79,0,0,0-1.48,7.82c-.32,6.69-1.38,12.58-6.55,17.94-4.94,5.13-3.24,13.78,5.36,15,3.78.52,5.61,2.54,7.42,5.66,4.87,8.37,9.8,9.2,16.43,2.43a21.88,21.88,0,0,1,12.69-6.68c9.18-1.65,11.44-8.81,5.2-16.09-3-3.49-4.05-6.52-2.57-10.73A35.49,35.49,0,0,0,2051.86,2827.82Zm104.82-1522.64c.1-7.87-3.61-11.23-11.48-10.11-4.77.68-8.62.93-12.72-2.89-6.6-6.14-12-3.92-14,5a34,34,0,0,0-.6,4.94c-.53,6.6-1.48,12.55-6.45,18.1-5.9,6.59-3.24,12.59,5.79,15.23a10.5,10.5,0,0,1,6.62,5.31c5.35,8.9,9.75,9.57,17.05,2.36,3.17-3.13,6.08-5.61,10.91-6,9.73-.75,13.8-10.48,6.22-16.91-3.22-2.73-3.93-5.79-2.33-9.7A24.73,24.73,0,0,0,2156.68,1305.18Z" transform="translate(0 0)"/><path class="cls-2" d="M.1,1193.6V995.75c16.32,0,32.63,0,48.94,0,25-.07,50,.76,74.88-1.56,41.71-3.89,79.76,6.7,114.79,29.15,8.13,5.2,16.35,10.24,24.49,15.42a219.62,219.62,0,0,0,65.62,28.35c9.69,2.38,19.44,4.49,29.17,6.67,40,9,71.71,31.07,97.31,62.27,14.33,17.48,10.08,37.36-9.51,48.87a66.5,66.5,0,0,1-10.92,4.8c-10.43,3.82-21.39,5-32.35,5.48a175.23,175.23,0,0,0-47.95,8.66,251.57,251.57,0,0,1-34.76,8.87c-10.47,1.88-21,3.57-31.59,4.56-13.87,1.3-27-2.81-40.13-6.67-21.63-6.38-43.49-7.14-65-.47-39.31,12.22-79.13,13.71-119.45,7.38-22.47-3.52-46-4.59-63-23.06A5.28,5.28,0,0,1,.1,1193.6Z" transform="translate(0 0)"/><path class="cls-2" d="M.1,2408.68V2220.82c.17-.28.33-.8.52-.82,17.44-1.46,34.64-4.79,52.16-5.73a130.67,130.67,0,0,1,41.52,3.95c30.1,8.14,54.15,25.14,71.65,50.91,9.56,14.07,22.55,22.36,39,25.38a122,122,0,0,0,22.84,2.23c13.65-.11,27.31-.06,41,.05,25.09.21,47.68,8.35,68.19,22.36,10.09,6.89,17.88,15.84,21.71,27.81,1.35,4.24,2.75,8.89.93,12.69-5.85,12.18-10.5,25.24-22.78,33.18-23.84,15.43-49.44,24.6-78.21,22.08-17.76-1.55-35.21.13-52.73,2.65-37.29,5.35-74.3,5-110.75-6.09a98.41,98.41,0,0,0-37.49-4.29c-8.29.72-16.54,1.86-24.82,2.7C21.87,2411,10.91,2411.77.1,2408.68Z" transform="translate(0 0)"/><path class="cls-3" d="M.1,1193.6a5.28,5.28,0,0,0,.55.84c17,18.47,40.55,19.54,63,23.06,40.32,6.33,80.14,4.84,119.45-7.38,21.48-6.67,43.34-5.91,65,.47,13.1,3.86,26.26,8,40.13,6.67,10.58-1,21.12-2.68,31.59-4.56a251.57,251.57,0,0,0,34.76-8.87,175.23,175.23,0,0,1,47.95-8.66c11-.45,21.92-1.66,32.35-5.48a66.5,66.5,0,0,0,10.92-4.8c19.59-11.51,23.84-31.39,9.51-48.87-25.6-31.2-57.31-53.32-97.31-62.27-9.73-2.18-19.48-4.29-29.17-6.67a219.62,219.62,0,0,1-65.62-28.35c-8.14-5.18-16.36-10.22-24.49-15.42-35-22.45-73.08-33-114.79-29.15C99,996.48,74,995.65,49,995.72c-16.31,0-32.62,0-48.94,0v-12c45.63.22,91.23,1.81,136.88-1.4,31.21-2.2,60.65,6.5,88.47,20.5A276.2,276.2,0,0,1,258,1022.31c29,20,60.88,32.64,95.36,39,43.47,8,78.24,30.6,107.09,63.27l.66.75c26.48,29.4,11.36,61.56-18.21,73.1a102.41,102.41,0,0,1-32,7c-19.36,1-38.33,3.69-56.83,10-18,6.1-36.76,9.32-55.58,11.88a101.6,101.6,0,0,1-41.57-2.89c-10.23-2.87-20.4-6-31.08-7.14a100.15,100.15,0,0,0-40.5,3.66c-44.33,13.67-89.16,13.87-134.36,5.44-5.24-1-10.49-1.93-15.77-2.59-11.11-1.4-21.43-4.61-30.28-11.79-1.33-1.08-3-3.18-4.78-.38Z" transform="translate(0 0)"/><path class="cls-4" d="M.1,2408.68c10.81,3.09,21.77,2.3,32.72,1.2,8.28-.84,16.53-2,24.82-2.7a98.41,98.41,0,0,1,37.49,4.29c36.45,11.12,73.46,11.44,110.75,6.09,17.52-2.52,35-4.2,52.73-2.65,28.77,2.52,54.37-6.65,78.21-22.08,12.28-7.94,16.93-21,22.78-33.18,1.82-3.8.42-8.45-.93-12.69-3.83-12-11.62-20.92-21.71-27.81-20.51-14-43.1-22.15-68.19-22.36-13.66-.11-27.32-.16-41-.05a122,122,0,0,1-22.84-2.23c-16.46-3-29.45-11.31-39-25.38-17.5-25.77-41.55-42.77-71.65-50.91a130.67,130.67,0,0,0-41.52-3.95c-17.52.94-34.72,4.27-52.16,5.73-.19,0-.35.54-.52.82v-12c14.58-.83,28.86-4,43.4-5.26,54.2-4.84,98.27,13.36,130.28,57.6,11.47,15.86,26.15,23,44.79,23.67,20,.69,40,.46,59.92,1.48,24.25,1.25,45.93,10.43,65.61,24.22,13.82,9.67,23.43,22.5,26.81,39.46,1,5.08.95,10.09-1.13,14.71-8.19,18.14-18.3,34.3-37.28,43.81-25.89,12.95-52.39,21.09-81.66,16.77-11.05-1.63-22,.12-32.81,1.71a479.47,479.47,0,0,1-49.68,4.86c-23.41,1-46.67-1.4-69.13-8.13C79.93,2418,60.68,2417.16,41,2420a178.38,178.38,0,0,1-40.86.68Z" transform="translate(0 0)"/><path class="cls-5" d="M3000,2.51H.1c.44-.62-1-2.09,1-2,2.67.08,5.33,0,8,0q1491,0,2981.9.12C2993.93.63,2997.78-1.67,3000,2.51Z" transform="translate(0 0)"/><path class="cls-4" d="M332.6,394.12c-12,.34-23.67-1.17-35.2-2.61-12.47-1.57-24.51-.24-36.74,1.64-42.79,6.62-85.59,6.89-128.3-.78a56,56,0,0,1-24.51-10.64C93.8,371,91.71,358,101.63,343.39a64.36,64.36,0,0,1,17.55-17.57c5.93-4,11.29-8.77,14.19-15.17,7.1-15.67,20.22-24.63,34.83-31.44,15.38-7.16,31.48-12.64,48.78-13.31a65.76,65.76,0,0,1,19.8,1.85c7.07,1.87,14.24,3.36,21.39,4.91,11,2.39,21.09,7,28.43,15.59s16.31,12.18,26.73,14.06c14.08,2.53,28.17,5.07,42.2,7.89a99.31,99.31,0,0,1,25.53,8.39c9.51,4.83,16.81,11.86,21.06,21.82,5.19,12.17,3.23,22.69-6.27,31.92-11.12,10.81-25.1,16-39.78,19.72A74.73,74.73,0,0,1,332.6,394.12Zm-5.93-11c20.2,1.28,39.1-2.58,56.05-14.05,12.55-8.49,15.71-17.77,3.74-32.65-3-3.7-7-6.09-11.21-8.17a73.83,73.83,0,0,0-17.91-6c-16.94-3.44-33.94-6.56-50.88-10-10-2-18.93-6-25.72-14.12a46.26,46.26,0,0,0-9-7.82c-9-6.3-45.55-14.25-56.59-13.1a130.93,130.93,0,0,0-34.64,8.92c-15.66,6.19-30,14.15-37.77,30.54-3.59,7.58-9.83,13.34-16.86,18.07a56.54,56.54,0,0,0-14.28,13.83c-7.69,10.62-6.63,17.65,4,25.26a51.87,51.87,0,0,0,8.77,4.68c7,3.24,14.64,4.6,22.21,5.42,38.55,4.17,77.11,4.59,115.44-2.07,12.66-2.2,25.16-2.1,37.78-1.07C308.76,381.5,317.71,382.34,326.67,383.12Z" transform="translate(0 0)"/><path class="cls-6" d="M894.27,704.64c-6.33,0-12.67-.17-19,0s-12.78.55-18.56,3.32c-18,8.58-36.67,8.44-55.72,5.46-12.83-2-25.6-4.32-38-8.14-6.79-2.09-13.81-2-20.73-2.82a94.31,94.31,0,0,1-28.77-7.73A34.19,34.19,0,0,1,697,679.4c-5.2-9.81-4.82-19.1,2.59-27.79,13.36-15.65,30.32-24.53,50.64-27.26,4.28-.58,8.54-1.38,12.82-2a33.61,33.61,0,0,0,20.71-10.94,60.1,60.1,0,0,1,25.52-17c20.34-6.8,38.16-.59,54,11.94,4.84,3.82,9.09,5.37,15.11,5.32,18.17-.15,33,7,43.22,22.37,3.5,5.29,8.31,8.39,13.81,11,8.73,4.14,15.74,10.09,18.47,19.79,3.39,12-.84,23.34-11.5,30.46a50.33,50.33,0,0,1-26.16,8.86c-7.31.3-14.65.06-22,.06ZM891,693.75c7,0,14,.14,21,0a44.69,44.69,0,0,0,23.62-7c10.79-7,11.4-19.46,1.35-27.55a40.37,40.37,0,0,0-8.56-5,35,35,0,0,1-15.71-13.39c-6.89-11-17.26-16.19-29.74-17.85-2.95-.39-6-.82-8.55,1.45-3.63,3.21-6.73,1.55-9.6-1.21-2.17-2.07-4.08-4.41-6.35-6.36-21.18-18.17-45.63-18.19-64.56.28-1,.93-1.93,1.84-2.82,2.83a40.51,40.51,0,0,1-23.11,12.9c-6.2,1.2-12.43,2.32-18.68,3.2a64.23,64.23,0,0,0-39,20.43c-7.85,8.38-7.62,15.19.39,23.39,2.86,2.92,6.39,4.7,10.08,6.29,6.79,2.91,14,5.18,21.18,5.39,13.16.4,25.61,3.8,38.16,7,10.36,2.64,20.92,4,31.49,5.2s21.67,2.18,31.56-2.34C858.55,694.29,874.54,693.13,891,693.75Z" transform="translate(0 0)"/><path class="cls-6" d="M579.72,2004.48c-4.34-.47-10.08-.55-15.55-1.82-9.07-2.1-17.78-1.08-26.59,1.17-25.3,6.46-50.14,4-74.53-4.49-9.51-3.32-18.32-8-25-15.81-7.16-8.37-6.64-17,2.53-23,8.93-5.84,17.15-12.49,25.68-18.81A51.57,51.57,0,0,1,495,1931.35c8.57-.37,16.18-3.45,23.9-6.49a10.17,10.17,0,0,0,5.3-4.21c7.77-12.46,19.63-13.58,32.47-11.05a33.66,33.66,0,0,1,13.7,5.8c7.25,5.41,15.48,7.25,24.27,7.88,15.53,1.11,30,5.42,42.83,14.63,6.61,4.75,12.13,10.38,15.17,18.07,3.33,8.39,1.72,14.92-5.52,20.2-3.78,2.75-7.28,5.76-10.78,8.83C620.49,1998.89,601.48,2003.74,579.72,2004.48Zm1.81-11.35c15.7.09,30.32-3.64,43.18-12.88,4-2.9,7.49-6.58,11.4-9.67,8.12-6.43,8.57-9.69,1.68-17.45a41.52,41.52,0,0,0-6.7-5.92,63.28,63.28,0,0,0-32.26-12.12c-12.71-1-25.1-2.82-35.68-10.92-3.19-2.45-7.25-3.29-11.17-4.07-8.88-1.78-14.49.43-19.22,8.37a13.18,13.18,0,0,1-6.67,5.52c-10.1,4.39-20.35,8.24-31.5,8.8a39.74,39.74,0,0,0-21.3,7.67c-8.63,6.16-16.25,13.69-25.78,18.68-4,2.11-3.27,5.13-.49,8.08a36.73,36.73,0,0,0,11.27,8.11c19.72,9.15,40.47,13.66,62,10.36,18.4-2.81,36.52-7.35,55.23-2.62C577.44,1993.54,579.54,1993.13,581.53,1993.13Z" transform="translate(0 0)"/><path class="cls-7" d="M2550.4,1976.49c-.55,2.62-.83,6.39-2.17,9.72-2.65,6.62-.48,11.67,4.38,15.9,5.47,4.77,8.51,10.92,10.83,17.54,1.24,3.52,2.2,7.22-.55,10.4s-6.42,3-10.13,1.82c-5.39-1.7-10.87-3.13-16.14-5.11-3.6-1.34-5.46-.55-6.79,3q-4,10.74-8.48,21.28c-1.28,3-2.77,5.82-7,6-6.43.3-8.58-.62-9.8-6.94a171.24,171.24,0,0,1-2.35-18.77c-.39-4.9-2.32-7.68-7.28-9.29-6.6-2.15-12.88-5.3-19.22-8.18-3.78-1.72-7.22-4.25-6.72-8.9.52-4.92,4.6-5.92,8.79-6.43,4.62-.56,9.21-1.36,13.84-1.87,3.86-.43,5-2.31,4.24-6.06-1.09-5.2-2.07-10.44-2.69-15.71-.43-3.67-.14-7.53,3.47-9.77s7.46-1.21,10.18,1.35c10.17,9.58,20.52,9.52,32.48,3C2545.82,1965.89,2550.31,1969.17,2550.4,1976.49Zm-45.94.39c-1.2,7.11,1.62,12.33,2.3,17.86.76,6.17-.6,8.63-6.5,10.33-4,1.15-8.15,1.75-12.58,2.66,2.82,3.41,6.54,4.32,10,5.08,10.23,2.28,13.89,9.12,14.53,18.74.2,3-.95,6.59,2.29,9.37,3.33-5.14,4.41-10.75,6.63-15.88,4.16-9.61,7.08-11,16.94-8.07,4.55,1.33,8.77,4.34,14,3.48-.56-6.42-5.12-9.8-8.76-13.46-5.65-5.68-8.61-11.54-5.38-19.55.66-1.61,1.58-3.78-.85-6.49C2525.82,1988.35,2514.84,1986,2504.46,1976.88Z" transform="translate(0 0)"/><path class="cls-8" d="M2904.65,732.48c-3.27,8.35-6,15.84-9.15,23.11-2.09,4.76-4,10.8-10.68,10.17-7-.66-7-7.14-8-12.2s-1.17-10.55-1.75-15.83c-.48-4.3-2.24-7.18-6.93-8.49-7-2-13.63-5.21-20.08-8.65-3.7-2-7-4.49-6.09-9.22.83-4.3,4.52-5.26,8.34-5.75,4.95-.63,9.88-1.32,14.8-2.11,3.07-.5,4.51-1.9,3.68-5.49a94.76,94.76,0,0,1-2.7-16.68c-.46-9.47,6-13.79,13.12-7.93,10.67,8.79,20.43,9.53,32.55,3.24,8.2-4.26,12.65.13,11.1,9.22a4.57,4.57,0,0,1-.23,1c-4.23,10.79-2.11,19.72,7.21,27.08,4.65,3.67,5.45,9.81,7.15,15.07,2.3,7.15-2.23,11.91-9.68,10.22S2912.74,734.92,2904.65,732.48Zm-27.82-49c-.08,7.1,1.94,12.38,2.92,17.84,1.17,6.46-.6,9.11-7.06,10.9-3.75,1-7.62,1.63-12,2.55,3.75,4,8.52,4.57,12.81,6,6.37,2.11,10,6.29,10.84,12.92.64,4.83,1.4,9.65,2.11,14.53.67-.23,1.18-.26,1.27-.47q3.06-7.34,6.05-14.7c4.45-10.95,7.21-12.25,18.17-8.81,4.3,1.35,8.34,4,13.11,3.38-.3-4.7-2.88-7.8-5.86-10.44-8.21-7.25-12-15.57-7.46-26.38.42-1-.29-1.83-1.76-2.94C2898.61,695.65,2887.67,692.65,2876.83,683.46Z" transform="translate(0 0)"/><path class="cls-7" d="M2520.55,2864.56c-5.74,4.79-10.62,8.82-15.46,12.89-2,1.71-3.92,3.6-6,5.25-2.24,1.78-4.87,2.45-7.43.93s-3.21-4.14-2.52-7q2-8.24,4.17-16.43c.51-1.92,1.4-3.74,2-5.64,1.06-3.39.5-5.72-3.66-6.36a72.67,72.67,0,0,1-10.67-2.56c-3.15-1-6.58-2-7.17-6-.67-4.55,2.6-6.58,5.86-8.31,4.1-2.2,8.31-4.24,12.6-6,3.76-1.57,5.69-3.92,6.11-8.14a131.68,131.68,0,0,1,2.91-16.68c1-4.37,3.23-8.35,8.19-9,4.56-.63,7.27,2.65,9.64,6,1.36,1.89,3.09,3.7,3.82,5.82,3.8,11,12,14.83,22.83,15a20.46,20.46,0,0,1,10.42,3.14c6.16,3.76,6.67,9.07,1.5,13.88a2.85,2.85,0,0,1-.77.63c-12.84,5.21-13.3,14.61-9.26,26,1.43,4,1.23,8.55.81,12.89-.33,3.5-1.48,6.58-5.16,7.79s-6.54-.17-9-2.78-4.92-5.42-7.37-8.14Zm15.89,2.73,1.68-.44c-1.08-6.85-2.64-13.67-3.12-20.57-.59-8.59,8.21-11.29,12.74-17.33-4.61-.86-8.5-2.17-12.38-2.2-9-.06-13.92-5-17.58-12.4-1.66-3.38-3-7.35-7.34-9.44-1.2,7.06-2.09,13.62-3.47,20.06-1.66,7.71-10.15,8.1-15.6,12.74l4.76,1.62c9.4,3.26,11.39,6.77,9.24,16.49-.53,2.37-1.92,4.62-1.18,7.36,2.58-.89,3.44-2.8,4.75-4.22,8.17-8.82,11.88-8.77,20.2.35C2531.57,2862,2534,2864.63,2536.44,2867.29Z" transform="translate(0 0)"/><path class="cls-8" d="M2350,2476.49c1.5-5.31,3.38-11.67,5.08-18.09,2.24-8.46,2.11-8.59-6.14-10.8-3.21-.85-6.58-1.34-9.56-2.68-5.92-2.66-6.64-7.8-1.35-11.48a74,74,0,0,1,14.16-7.2c4.92-2,7.15-5.28,7.59-10.49a97.76,97.76,0,0,1,2.4-14.72c1-4.27,3-8.34,8-9.21,4.63-.81,7.34,2.34,9.76,5.61,2,2.67,4.54,5.21,5.53,8.23,2.9,8.93,9.36,11.85,17.93,12.37,4.63.27,9.3,1,13.43,3.37,6.62,3.85,7.9,10.86,1.37,14.13-13.26,6.63-13.35,16.26-9.28,28a25.26,25.26,0,0,1,.79,10.87c-.38,3.76-1.53,7.29-5.69,8.53-3.61,1.09-6.52-.5-8.9-3.09-4-4.4-8.09-8.82-12-13.36-2.28-2.67-4.07-2.66-6.43,0-4.21,4.7-8.64,9.2-13,13.72-1.86,1.91-3.9,3.68-6.58,4.33C2352.65,2485.55,2349.7,2482.68,2350,2476.49Zm47.94-8.37c-2.66-25-2.66-25,10.55-38.88-4.77-.87-9.19-2.19-13.67-2.39-7.2-.34-11.55-4.07-14.8-10-2.14-3.94-3.74-8.34-8.41-12.1-1.27,7.32-2.32,13.75-3.51,20.14-1.55,8.27-10.36,8.32-15.48,13.12,1.63.61,2.86,1.09,4.1,1.53,10.13,3.55,11.6,6.37,9.51,17.16-.42,2.15-2.65,4.24-.47,7,1.85-2,3.62-3.88,5.44-5.75,6.81-7,10.54-7,17.46.08C2391.84,2461.28,2394.84,2464.74,2397.93,2468.12Z" transform="translate(0 0)"/><path class="cls-9" d="M2712,1781.24a40.17,40.17,0,0,1,4.69-12.61c2.41-4.33,1-6.58-2.79-8.77a40,40,0,0,1-8.89-6.33c-5.31-5.43-3.7-11.82,3.69-13.58,5.76-1.38,11.86-1.45,17.82-1.84,5.11-.33,7.74-2.44,7.9-7.89a114.14,114.14,0,0,1,1.78-13.84,6.4,6.4,0,0,1,4.87-5.69c2.94-.79,5.21.3,7,2.6a38.39,38.39,0,0,1,2.91,4c4.67,7.94,10.3,14.64,20.14,16.22a11.16,11.16,0,0,1,3.59,1.71c3.51,2.08,7,4.43,6.87,9s-3.48,6.87-7.12,8.89c-3.95,2.19-10,2.16-11.2,7.27-.94,4.13,2.68,8,3.85,12.17.63,2.24,1.22,4.5,1.75,6.76.82,3.47.46,6.86-2.58,9-3.39,2.4-7,1.59-10.22-.74a97.65,97.65,0,0,1-9.41-7.38c-3.31-3.09-5.94-3.11-9.4,0-4.44,4-9,8-15.06,9.49C2715.72,1791.38,2711.54,1788.08,2712,1781.24Zm34.4-50.69c-.79,2.35-1.47,3.55-1.56,4.78-.7,9.57-6.85,12.91-15.48,13.71-3,.28-6,.49-9.71.79,3.81,4.49,9,5.34,11.19,10,2.4,5.19-3.33,8.63-3.26,14.94,8.3-9,16.42-11,27.5-1.89-6.7-15.41-1.3-23.55,12.67-28.43C2758.48,1741.32,2751.23,1738.46,2746.42,1730.55Z" transform="translate(0 0)"/><path class="cls-8" d="M2404.37,1693.49c-3.79.06-7.2-1.47-10.44-3-4.23-2-6.68-1.39-8.35,3.23a99.67,99.67,0,0,1-5.51,11.7,34.29,34.29,0,0,1-3.81,5.82c-2.76,3.42-5.93,7-10.78,5.73-5.64-1.47-5.69-6.64-5.94-11.37-.95-17.49-.95-17.5-18.51-19.93-2.64-.36-5.32-.45-7.91-1-2.21-.46-4.83-.85-5.28-3.74s-.81-6,2.24-8.08c4.4-3,8.6-6.31,13.23-8.89,4.26-2.37,6.16-5.42,6.27-10.31.12-5.61.33-11.31,2.19-16.73,3.23-9.37,9.08-11.09,16.44-4.68a47.24,47.24,0,0,1,6.93,7.14c4.09,5.5,8.89,7.23,15.51,4.8a44.09,44.09,0,0,1,11.68-2.37c9.07-.71,13,5.29,8.88,13.32a21.16,21.16,0,0,1-2.8,4.11c-3,3.55-2.88,7-.47,10.9a49,49,0,0,1,5.54,11.65C2415.52,1688.82,2411.47,1693.67,2404.37,1693.49Zm-43.51-52.78c-.77,6.9-1.73,12.43-1.91,18-.2,6-3,9.81-8.15,12.58-2,1.1-5.42,1.47-4.87,5.2,19,2.37,19,2.37,24.71,24,.5-.4,1.23-.69,1.48-1.21,1.6-3.28,3.1-6.59,4.62-9.9,4.87-10.66,8.49-12.14,19.49-8.39,1.83.62,3.74,3.12,6.23.63-2.15-4.5-4.53-8.86-6.33-13.45-2.08-5.32,1.68-9.83,3.65-14.91-4.68-.49-8.08,1.13-11.53,2-6.79,1.73-12.23.29-16.92-5.11C2368.6,1647,2366.15,1643.29,2360.86,1640.71Z" transform="translate(0 0)"/><path class="cls-7" d="M2805.1,921.23c-2.76-1-6.64-2-10.24-3.6s-5.43-.62-6.91,2.77a123.34,123.34,0,0,1-6.95,14.3c-3.05,5.06-6.43,11.29-13.56,9.56s-5.52-8.77-5.94-14.21c-.07-1,0-2,0-3-.41-11.27-1.33-12.12-12.65-13.14A96.1,96.1,0,0,1,2734,911.8c-6.4-1.58-7.52-6.58-2.45-10.92a59.66,59.66,0,0,1,12.28-8.46c5.92-2.9,8-7.19,7.88-13.49a49.33,49.33,0,0,1,1.67-12.78c3-11.42,10.17-14.09,17.43-5.32,8.41,10.17,17.1,14.72,29.68,9a2.62,2.62,0,0,1,1-.1c4.23-.11,9-1.67,11.91,2.76,3,4.63,1.22,9.15-2,12.76-4.36,4.86-3.79,9.3-.45,14.31,2.19,3.3,4.21,6.84,4.83,10.85C2816.79,917,2812.66,921.61,2805.1,921.23Zm-33.42,8.67c4.77-5.64,5.84-11,8.29-15.64,4-7.55,7.28-8.89,15.37-6.8,2.72.7,5.11,3.29,8.95,1.74-2.14-4.6-4.45-8.89-6.16-13.41-2.06-5.45,1.63-10,4-15.67-4.23.86-7.56,1.09-10.54,2.22-8,3-14.1.57-19.39-5.72-2.43-2.89-4.59-6.35-8.62-7.91-2,3.08-1.78,6.13-1.8,9,0,10.6-2.45,19.71-13.58,24-.44.17-.61,1-1.46,2.57C2764.59,902.66,2772.28,911.74,2771.68,929.9Z" transform="translate(0 0)"/><path class="cls-9" d="M2763.14,404.25a34.37,34.37,0,0,1,4.43-12.13c2.8-4.59,1.32-7.17-2.94-9.41a42.21,42.21,0,0,1-7.47-4.94c-2.91-2.43-5-5.49-3.71-9.6,1.14-3.66,4.25-5.15,7.61-5.61,5.27-.71,10.62-.77,15.91-1.37,7.35-.84,7.58-1.15,8.59-8.33.51-3.62.85-7.27,1.31-10.91s1.16-7.41,5.7-8.33c4-.81,6.09,1.82,8,4.67,1.3,1.94,2.74,3.78,3.93,5.78,3.53,5.95,8.1,10.42,15.23,11.77a20.52,20.52,0,0,1,8.88,4.4c5.38,4.27,5.38,10.12-.23,14.11-2.67,1.9-5.94,2.93-8.91,4.41-6,3-6.39,3.72-4,9.94,1.77,4.67,3.8,9.25,4.52,14.22.5,3.4.36,6.89-3,8.84-3.15,1.82-6.51,1.34-9.42-.76a129.25,129.25,0,0,1-10.21-8c-3-2.68-5.45-2.88-8.59-.09-4.46,4-9,8-15,9.7C2766.75,414.65,2762.4,411.2,2763.14,404.25Zm33.74-51.34c-1.37,7.13-1.43,13.47-7.43,16.78-5.5,3-11.85,2.37-19.09,2.92,4.12,4.66,9.33,5.61,11.4,10.11,2.36,5.13-3,8.81-3.47,15.88,8.77-10.54,17.26-11.4,28.34-2.5-8-15.84-.94-23.41,12.08-29.22C2808.76,364.8,2802.06,360.9,2796.88,352.91Z" transform="translate(0 0)"/><path class="cls-9" d="M2838.65,192.8c1-5.37,3.66-9.68,5.85-14.11s1.61-7.42-2.44-10.17c-3.31-2.23-6.33-4.88-8.11-8.61-2.63-5.53-.64-10,5.14-11.49a4.48,4.48,0,0,1,2-.25c12.43,2.68,19.78-4.53,26.32-13.38a21.08,21.08,0,0,1,2.1-2.13c9.24-9.29,14.4-8.94,20.13,2.82,3.73,7.66,7.83,13.94,15.44,18.52,6.83,4.11,5.78,10.66-1.24,14.93a18.69,18.69,0,0,1-3.62,1.62c-3.54,1.23-4.44,3.36-3,6.9a22,22,0,0,1,.58,14.67c-2.81,9.6-10.44,12-18.18,5.88-9.74-7.71-9.71-7.67-20.74-1.37-3.16,1.8-6.35,3.77-9.78,4.83C2842.62,203.46,2837.81,199,2838.65,192.8Zm48.46-4.46c1.64-3.05-.08-5.75-.82-8.57-1-3.78-3.06-7.39-1.49-11.58,1.5-4,5.51-5.18,9.72-7.86-9.6-4.35-10.86-13.65-15.71-20.81a70.73,70.73,0,0,0-12.54,13.63,13.19,13.19,0,0,1-10,5.63c-2,.16-4.62-.92-6.39,2.19,3.73,2.88,7.31,5.94,7.69,11,.36,4.8-3,9-2.91,14.27C2870.08,178,2870.08,178,2887.11,188.34Z" transform="translate(0 0)"/><path class="cls-10" d="M2808.72,1157.84c-.47,4.73-2.74,8.86-4.58,13.1s-2.14,8,.39,12.19c3.27,5.38,6.12,11,8.94,16.67,2.12,4.24,4,8.76.06,13s-8.44,2.66-12.79.52a41,41,0,0,1-4.4-2.33c-3.8-2.48-6.48-2-8.92,2.17a41,41,0,0,1-7.48,9.26c-5.15,4.72-10.37,4.5-13.09-1.59-3.34-7.47-8.3-9.91-16-10.65-10.18-1-12.17-5.73-7.6-15.15a8.24,8.24,0,0,1,.92-1.77c7.29-8.66,9-17.9,3.84-28.39-1.74-3.58-2-8,1.94-10.88,4.23-3.1,8.23-1.35,11.91,1.32a106.35,106.35,0,0,1,8.58,6.81c3.51,3.17,6.93,3.09,10.73.62,5.83-3.81,11.55-7.88,17.71-11.09C2804.69,1148.59,2809,1151.62,2808.72,1157.84Zm-34.79,56c5.58-4.28,6.64-10.69,11.5-13.87,5.51-3.6,10.7.9,16.63,1.89-3.49-11.76-13.95-20.88-7.68-34.42-6.85,2.4-11.35,7-17.35,8-6.77,1.1-10.87-5-17.39-7.85,1.08,6.59,3.84,12,.82,17.55-2.66,4.86-5.33,9.71-8.44,15.38C2762,1201.2,2770.33,1203,2773.93,1213.84Z" transform="translate(0 0)"/><path class="cls-10" d="M2703.69,2682.52c-1.34,3.36-3,7.71-4.79,12-1.7,3.9-1.81,7.4.59,11.24,3,4.76,5.29,9.95,8,14.91,1.58,2.94,3.12,5.88,3.09,9.34-.06,5.29-3.8,8.71-9,8.18a5.78,5.78,0,0,1-2.83-.82c-9.8-7.63-15.58-3.42-21.84,5.62-5.79,8.37-11.86,7.33-16.52-1.9-2.62-5.17-5.89-7.55-11.5-7.53a22.31,22.31,0,0,1-6.86-1.13c-5.36-1.73-7.47-5.59-5.31-10.87a78.15,78.15,0,0,1,7.16-13.05c2.77-4.27,3.39-8.44,1.46-13.17a68.06,68.06,0,0,1-2.68-8.53c-1-3.7-1.17-7.46,2.28-10,3.74-2.74,7.64-1.71,11.12.72a95.56,95.56,0,0,1,9.4,7.37c3.49,3.15,6.88,3.25,10.66.69,3.57-2.42,7.22-4.72,10.88-7a49.41,49.41,0,0,1,7.74-4.44C2700.45,2671.86,2704.53,2675.29,2703.69,2682.52Zm-49.39,8.2c7.35,12.71-2.37,22-6.94,32.26,14.52,2.65,14.52,2.65,22.27,12.82,5-3.11,5.9-9.6,10.59-12.85,5.94-4.12,11.2,1.35,17.15,1.84-3.64-11.55-14.77-20.85-7.29-34.85C2669.36,2699.52,2669.36,2699.52,2654.3,2690.72Z" transform="translate(0 0)"/><path class="cls-9" d="M2606.2,262.87c0,4.66.37,8.68-.07,12.61-.9,7.86-7.36,10.36-13.71,5.54a2.63,2.63,0,0,1-.74-.66c-5.25-9.73-12.17-7.83-19.63-2.92a23.16,23.16,0,0,1-3.71,1.42c-3.67,1.53-7.22,1.61-10.17-1.36s-2.4-6.63-.64-10.13a50.09,50.09,0,0,1,2.77-5.29c3.09-4.68,3.45-9.12-.53-13.52a15.37,15.37,0,0,1-2.07-3.4c-4.61-9,0-17.48,9.78-15.51,11.15,2.24,15.92-2.55,19.6-11.32,1.3-3.1,2.9-6.25,7.08-5.86,3.45.32,4.93,3,6.18,5.82,1.87,4.25,4.4,8.33,5.53,12.76,1.67,6.51,4.38,11.55,10.92,14.33a7.68,7.68,0,0,1,4.86,8c-.41,3.73-3.13,5.71-6.49,6.81C2612.34,261.14,2609.46,261.91,2606.2,262.87Zm-35.14,2.91c8.75-4.23,15.59-6.39,23,.85-.45-8.45,3.44-12.8,10.2-15.67-7.46-5.19-6.17-13.9-11.52-20-4.81,11.27-13.62,12-25,8.95C2573,248.36,2576.59,255.65,2571.06,265.78Z" transform="translate(0 0)"/><path class="cls-9" d="M2828.27,2315.4c0,4,0,7.65,0,11.3-.05,4-1.38,7.16-5.34,8.73a7.14,7.14,0,0,1-8.93-2.57c-5.59-9.17-12.17-8.27-19.75-3.08a20.33,20.33,0,0,1-3.7,1.45c-4,1.67-7.91,1.76-10.9-1.87-2.76-3.36-1.53-6.88.21-10.27a33.74,33.74,0,0,1,1.89-3.51c3.51-5.2,4.31-10.24-.4-15.27a14.53,14.53,0,0,1-2.54-4.28c-3.06-7.32.59-13.37,8.59-14.23a11.85,11.85,0,0,1,4.94.28c8.3,2.87,12.11-1.7,15.26-8.38,1.74-3.66,2.63-9,8.27-8.74,5.45.24,6.16,5.4,7.95,9.17a71.29,71.29,0,0,1,4.56,11c1.51,5.38,3.79,9.68,9.35,12,3.47,1.44,6.27,4.3,5.92,8.45-.39,4.7-4.06,6.47-8.16,7.57C2833,2313.84,2830.47,2314.71,2828.27,2315.4Zm-35.21,2.82c8.75-4.23,15.58-6.4,23,.85-.44-8.45,3.44-12.81,10.21-15.66-7.46-5.2-6.19-13.91-11.53-20-4.8,11.28-13.62,12-25,9C2794.94,2300.79,2798.59,2308.09,2793.06,2318.22Z" transform="translate(0 0)"/><path class="cls-10" d="M2406.9,2665.42c-4.89,2.14-8.31,6-13.12,7.73-3.76,1.33-7.14,1.68-10.16-1.29-2.8-2.78-2.07-6.07-1-9.32a11,11,0,0,1,1.23-2.72c3.19-4.76,1.24-7.9-3-10.58a32.05,32.05,0,0,1-5.39-4.41c-1.94-1.92-3.48-4.26-2.5-7.12a7.19,7.19,0,0,1,6.88-4.93,49.17,49.17,0,0,1,9.93.44c4.8.79,8.53-.11,10.74-4.81a9.5,9.5,0,0,1,1.17-1.62c6.78-8.69,11.3-8.64,16,.91,2.13,4.32,4.47,6.72,9.35,7.39a24.35,24.35,0,0,1,10.94,4.61c6.41,4.73,6.2,11.93-1.16,14.72-6.27,2.37-9.12,5.57-8.75,12.24a7.57,7.57,0,0,1-5.07,7.86c-3.86,1.4-7.19,0-10-2.76C2410.88,2669.7,2408.9,2667.52,2406.9,2665.42Zm-11.69-4.91c5.23-2.73,7.68-6.24,12.11-6.42,5.1-.21,6.55,4.79,10.73,7.54.52-7.06,3-12.15,11.29-14.86-8.73-3.24-19-.57-19.65-14.06-4.34,8.59-10.18,11.6-18.55,12.26C2396.88,2649.34,2397,2654.22,2395.21,2660.51Z" transform="translate(0 0)"/><path class="cls-8" d="M2492.32,1109.88c6.89,2.2,10.94-.55,14.82-6.35,5.7-8.51,10.75-8,15.27,1,2.29,4.6,4.84,7.24,10.14,7.9a21.68,21.68,0,0,1,10.81,4.79c5.83,4.76,5.72,11.84-1.16,14.11-7.08,2.32-8.39,6.58-9.32,12.91-1.25,8.51-7.85,10.52-14.48,5.06a40.85,40.85,0,0,1-4.13-4.29c-1.92-2.14-3.79-2.14-6-.38-3.4,2.68-7,5.12-11.25,6.23-7.2,1.89-11.68-2.75-9.7-10a17.73,17.73,0,0,1,1.82-4.61c2.42-3.94,1.45-6.72-2.36-9.09a47.43,47.43,0,0,1-6.18-5c-2.07-1.86-3.45-4.15-2.7-7,.85-3.33,3.53-4.78,6.61-5.19A60.27,60.27,0,0,1,2492.32,1109.88Zm31.22,28.7c-1.45-7.68,3.28-11.55,9.44-15.56-8.75-.34-16.55-1.1-18.71-12.66-4.37,8-9.39,11.76-19.3,10.68,6.28,5.21,7.73,10,5.19,16.34C2513.36,1129.24,2513.36,1129.24,2523.54,1138.58Z" transform="translate(0 0)"/><path class="cls-9" d="M2051.86,2827.82a35.49,35.49,0,0,1-1.14,5.08c-1.48,4.21-.43,7.24,2.57,10.73,6.24,7.28,4,14.44-5.2,16.09a21.88,21.88,0,0,0-12.69,6.68c-6.63,6.77-11.56,5.94-16.43-2.43-1.81-3.12-3.64-5.14-7.42-5.66-8.6-1.18-10.3-9.83-5.36-15,5.17-5.36,6.23-11.25,6.55-17.94a29.79,29.79,0,0,1,1.48-7.82c2.15-6.44,7.28-8.31,12.2-3.51,4.47,4.35,8.69,4.75,14.35,3.78C2047.8,2816.64,2051.76,2820.4,2051.86,2827.82Zm-28.62-.1c3,8.76-1.12,14.48-7.57,20.69,7.22.26,9.34,5.38,13.14,9,3.89-3.93,8-7.11,14.37-8.17-6.23-6-4.84-12.54-3.12-20.14C2033.85,2831.32,2029.17,2829.66,2023.24,2827.72Z" transform="translate(0 0)"/><path class="cls-9" d="M2156.68,1305.18a24.73,24.73,0,0,1-1,5.38c-1.6,3.91-.89,7,2.33,9.7,7.58,6.43,3.51,16.16-6.22,16.91-4.83.38-7.74,2.86-10.91,6-7.3,7.21-11.7,6.54-17.05-2.36a10.5,10.5,0,0,0-6.62-5.31c-9-2.64-11.69-8.64-5.79-15.23,5-5.55,5.92-11.5,6.45-18.1a34,34,0,0,1,.6-4.94c2.05-9,7.41-11.18,14-5,4.1,3.82,7.95,3.57,12.72,2.89C2153.07,1294,2156.78,1297.31,2156.68,1305.18Zm-23.55,29.39c4.61-3.15,8-7.61,15.16-7.51-5.67-6.41-5.22-12.84-3.28-20-6.22,1-11.22-.2-18.21-2.3,5.72,9.4-.32,14.18-5.21,20.38C2127,1326.44,2130.39,1330,2133.13,1334.57Z" transform="translate(0 0)"/><path class="cls-11" d="M326.67,383.12c-9-.78-17.91-1.62-26.87-2.34-12.62-1-25.12-1.13-37.78,1.07-38.33,6.66-76.89,6.24-115.44,2.07-7.57-.82-15.18-2.18-22.21-5.42a51.87,51.87,0,0,1-8.77-4.68c-10.64-7.61-11.7-14.64-4-25.26a56.54,56.54,0,0,1,14.28-13.83c7-4.73,13.27-10.49,16.86-18.07,7.77-16.39,22.11-24.35,37.77-30.54a130.93,130.93,0,0,1,34.64-8.92c11-1.15,47.63,6.8,56.59,13.1a46.26,46.26,0,0,1,9,7.82c6.79,8.13,15.72,12.1,25.72,14.12,16.94,3.42,33.94,6.54,50.88,10a73.83,73.83,0,0,1,17.91,6c4.22,2.08,8.24,4.47,11.21,8.17,12,14.88,8.81,24.16-3.74,32.65C365.77,380.54,346.87,384.4,326.67,383.12Z" transform="translate(0 0)"/><path class="cls-11" d="M891,693.75c-16.43-.62-32.42.54-47.82,7.57-9.89,4.52-20.93,3.54-31.56,2.34s-21.13-2.56-31.49-5.2c-12.55-3.21-25-6.61-38.16-7-7.23-.21-14.39-2.48-21.18-5.39-3.69-1.59-7.22-3.37-10.08-6.29-8-8.2-8.24-15-.39-23.39a64.23,64.23,0,0,1,39-20.43c6.25-.88,12.48-2,18.68-3.2A40.51,40.51,0,0,0,791,619.85c.89-1,1.87-1.9,2.82-2.83,18.93-18.47,43.38-18.45,64.56-.28,2.27,2,4.18,4.29,6.35,6.36,2.87,2.76,6,4.42,9.6,1.21,2.57-2.27,5.6-1.84,8.55-1.45,12.48,1.66,22.85,6.87,29.74,17.85a35,35,0,0,0,15.71,13.39,40.37,40.37,0,0,1,8.56,5c10.05,8.09,9.44,20.51-1.35,27.55a44.69,44.69,0,0,1-23.62,7C905,693.89,898,693.75,891,693.75Z" transform="translate(0 0)"/><path class="cls-12" d="M581.53,1993.13c-2,0-4.09.41-6-.06-18.71-4.73-36.83-.19-55.23,2.62-21.57,3.3-42.32-1.21-62-10.36a36.73,36.73,0,0,1-11.27-8.11c-2.78-3-3.53-6,.49-8.08,9.53-5,17.15-12.52,25.78-18.68a39.74,39.74,0,0,1,21.3-7.67c11.15-.56,21.4-4.41,31.5-8.8a13.18,13.18,0,0,0,6.67-5.52c4.73-7.94,10.34-10.15,19.22-8.37,3.92.78,8,1.62,11.17,4.07,10.58,8.1,23,9.87,35.68,10.92a63.28,63.28,0,0,1,32.26,12.12,41.52,41.52,0,0,1,6.7,5.92c6.89,7.76,6.44,11-1.68,17.45-3.91,3.09-7.36,6.77-11.4,9.67C611.85,1989.49,597.23,1993.22,581.53,1993.13Z" transform="translate(0 0)"/><path class="cls-13" d="M2504.46,1976.88c10.38,9.11,21.36,11.47,32.57,4.07,2.43,2.71,1.51,4.88.85,6.49-3.23,8-.27,13.87,5.38,19.55,3.64,3.66,8.2,7,8.76,13.46-5.23.86-9.45-2.15-14-3.48-9.86-2.9-12.78-1.54-16.94,8.07-2.22,5.13-3.3,10.74-6.63,15.88-3.24-2.78-2.09-6.36-2.29-9.37-.64-9.62-4.3-16.46-14.53-18.74-3.41-.76-7.13-1.67-10-5.08,4.43-.91,8.58-1.51,12.58-2.66,5.9-1.7,7.26-4.16,6.5-10.33C2506.08,1989.21,2503.26,1984,2504.46,1976.88Z" transform="translate(0 0)"/><path class="cls-13" d="M2876.83,683.46c10.84,9.19,21.78,12.19,33.12,4.38,1.47,1.11,2.18,1.95,1.76,2.94-4.58,10.81-.75,19.13,7.46,26.38,3,2.64,5.56,5.74,5.86,10.44-4.77.63-8.81-2-13.11-3.38-11-3.44-13.72-2.14-18.17,8.81q-3,7.37-6.05,14.7c-.09.21-.6.24-1.27.47-.71-4.88-1.47-9.7-2.11-14.53-.87-6.63-4.47-10.81-10.84-12.92-4.29-1.43-9.06-2-12.81-6,4.4-.92,8.27-1.52,12-2.55,6.46-1.79,8.23-4.44,7.06-10.9C2878.77,695.84,2876.75,690.56,2876.83,683.46Z" transform="translate(0 0)"/><path class="cls-13" d="M2536.44,2867.29c-2.43-2.66-4.87-5.31-7.3-8-8.32-9.12-12-9.17-20.2-.35-1.31,1.42-2.17,3.33-4.75,4.22-.74-2.74.65-5,1.18-7.36,2.15-9.72.16-13.23-9.24-16.49l-4.76-1.62c5.45-4.64,13.94-5,15.6-12.74,1.38-6.44,2.27-13,3.47-20.06,4.37,2.09,5.68,6.06,7.34,9.44,3.66,7.44,8.63,12.34,17.58,12.4,3.88,0,7.77,1.34,12.38,2.2-4.53,6-13.33,8.74-12.74,17.33.48,6.9,2,13.72,3.12,20.57Z" transform="translate(0 0)"/><path class="cls-13" d="M2397.93,2468.12c-3.09-3.38-6.09-6.84-9.28-10.11-6.92-7.09-10.65-7.07-17.46-.08-1.82,1.87-3.59,3.79-5.44,5.75-2.18-2.78.05-4.87.47-7,2.09-10.79.62-13.61-9.51-17.16-1.24-.44-2.47-.92-4.1-1.53,5.12-4.8,13.93-4.85,15.48-13.12,1.19-6.39,2.24-12.82,3.51-20.14,4.67,3.76,6.27,8.16,8.41,12.1,3.25,6,7.6,9.7,14.8,10,4.48.2,8.9,1.52,13.67,2.39C2395.27,2443.1,2395.27,2443.1,2397.93,2468.12Z" transform="translate(0 0)"/><path class="cls-14" d="M2746.42,1730.55c4.81,7.91,12.06,10.77,21.35,13.87-14,4.88-19.37,13-12.67,28.43-11.08-9.12-19.2-7.09-27.5,1.89-.07-6.31,5.66-9.75,3.26-14.94-2.16-4.63-7.38-5.48-11.19-10,3.68-.3,6.69-.51,9.71-.79,8.63-.8,14.78-4.14,15.48-13.71C2745,1734.1,2745.63,1732.9,2746.42,1730.55Z" transform="translate(0 0)"/><path class="cls-13" d="M2360.86,1640.71c5.29,2.58,7.74,6.24,10.47,9.38,4.69,5.4,10.13,6.84,16.92,5.11,3.45-.88,6.85-2.5,11.53-2-2,5.08-5.73,9.59-3.65,14.91,1.8,4.59,4.18,9,6.33,13.45-2.49,2.49-4.4,0-6.23-.63-11-3.75-14.62-2.27-19.49,8.39-1.52,3.31-3,6.62-4.62,9.9-.25.52-1,.81-1.48,1.21-5.69-21.58-5.69-21.58-24.71-24-.55-3.73,2.84-4.1,4.87-5.2,5.11-2.77,7.95-6.54,8.15-12.58C2359.13,1653.14,2360.09,1647.61,2360.86,1640.71Z" transform="translate(0 0)"/><path class="cls-13" d="M2771.68,929.9c.6-18.16-7.09-27.24-24.89-25.63.85-1.54,1-2.4,1.46-2.57,11.13-4.31,13.54-13.42,13.58-24,0-2.84-.2-5.89,1.8-9,4,1.56,6.19,5,8.62,7.91,5.29,6.29,11.34,8.77,19.39,5.72,3-1.13,6.31-1.36,10.54-2.22-2.42,5.67-6.11,10.22-4,15.67,1.71,4.52,4,8.81,6.16,13.41-3.84,1.55-6.23-1-8.95-1.74-8.09-2.09-11.37-.75-15.37,6.8C2777.52,918.9,2776.45,924.26,2771.68,929.9Z" transform="translate(0 0)"/><path class="cls-14" d="M2796.88,352.91c5.18,8,11.88,11.89,21.83,14-13,5.81-20,13.38-12.08,29.22-11.08-8.9-19.57-8-28.34,2.5.52-7.07,5.83-10.75,3.47-15.88-2.07-4.5-7.28-5.45-11.4-10.11,7.24-.55,13.59.11,19.09-2.92C2795.45,366.38,2795.51,360,2796.88,352.91Z" transform="translate(0 0)"/><path class="cls-13" d="M2887.11,188.34c-17-10.34-17-10.34-32.49-2.09-.13-5.26,3.27-9.47,2.91-14.27-.38-5.07-4-8.13-7.69-11,1.77-3.11,4.4-2,6.39-2.19a13.19,13.19,0,0,0,10-5.63,70.73,70.73,0,0,1,12.54-13.63c4.85,7.16,6.11,16.46,15.71,20.81-4.21,2.68-8.22,3.85-9.72,7.86-1.57,4.19.49,7.8,1.49,11.58C2887,182.59,2888.75,185.29,2887.11,188.34Z" transform="translate(0 0)"/><path class="cls-13" d="M2773.93,1213.84c-3.6-10.84-12-12.64-21.91-13.35,3.11-5.67,5.78-10.52,8.44-15.38,3-5.5.26-11-.82-17.55,6.52,2.82,10.62,9,17.39,7.85,6-1,10.5-5.57,17.35-8-6.27,13.54,4.19,22.66,7.68,34.42-5.93-1-11.12-5.49-16.63-1.89C2780.57,1203.15,2779.51,1209.56,2773.93,1213.84Z" transform="translate(0 0)"/><path class="cls-13" d="M2654.3,2690.72c15.06,8.8,15.06,8.8,35.78-.78-7.48,14,3.65,23.3,7.29,34.85-5.95-.49-11.21-6-17.15-1.84-4.69,3.25-5.62,9.74-10.59,12.85-7.75-10.17-7.75-10.17-22.27-12.82C2651.93,2712.73,2661.65,2703.43,2654.3,2690.72Z" transform="translate(0 0)"/><path class="cls-14" d="M2571.06,265.78c5.53-10.13,1.9-17.42-3.3-25.87,11.4,3.08,20.21,2.32,25-8.95,5.35,6.1,4.06,14.81,11.52,20-6.76,2.87-10.65,7.22-10.2,15.67C2586.65,259.39,2579.81,261.55,2571.06,265.78Z" transform="translate(0 0)"/><path class="cls-14" d="M2793.06,2318.22c5.53-10.13,1.88-17.43-3.3-25.88,11.39,3.09,20.21,2.33,25-9,5.34,6.11,4.07,14.82,11.53,20-6.77,2.85-10.65,7.21-10.21,15.66C2808.64,2311.82,2801.81,2314,2793.06,2318.22Z" transform="translate(0 0)"/><path class="cls-14" d="M2395.21,2660.51c1.79-6.29,1.67-11.17-4.07-15.54,8.37-.66,14.21-3.67,18.55-12.26.63,13.49,10.92,10.82,19.65,14.06-8.27,2.71-10.77,7.8-11.29,14.86-4.18-2.75-5.63-7.75-10.73-7.54C2402.89,2654.27,2400.44,2657.78,2395.21,2660.51Z" transform="translate(0 0)"/><path class="cls-14" d="M2523.54,1138.58c-10.18-9.34-10.18-9.34-23.38-1.2,2.54-6.31,1.09-11.13-5.19-16.34,9.91,1.08,14.93-2.66,19.3-10.68,2.16,11.56,10,12.32,18.71,12.66C2526.82,1127,2522.09,1130.9,2523.54,1138.58Z" transform="translate(0 0)"/><path class="cls-14" d="M2023.24,2827.72c5.93,1.94,10.61,3.6,16.82,1.39-1.72,7.6-3.11,14.17,3.12,20.14-6.4,1.06-10.48,4.24-14.37,8.17-3.8-3.63-5.92-8.75-13.14-9C2022.12,2842.2,2026.19,2836.48,2023.24,2827.72Z" transform="translate(0 0)"/><path class="cls-14" d="M2133.13,1334.57c-2.74-4.58-6.09-8.13-11.54-9.48,4.89-6.2,10.93-11,5.21-20.38,7,2.1,12,3.27,18.21,2.3-1.94,7.21-2.39,13.64,3.28,20C2141.18,1327,2137.74,1331.42,2133.13,1334.57Z" transform="translate(0 0)"/></svg>