<svg id="Layer_1" data-name="Layer 1" xmlns="http://www.w3.org/2000/svg" viewBox="0 0 2999 930"><defs><style>.cls-1{fill:#2ecefe;}.cls-2{fill:#009b1b;}.cls-3{fill:#da5d00;}.cls-4{fill:#fdfd00;}.cls-5{fill:#030401;}.cls-6{fill:#020604;}.cls-7{fill:#060606;}.cls-8{fill:#010100;}.cls-9{fill:#00991b;}.cls-10{fill:#040301;}.cls-11{fill:#fbfb00;}.cls-12{fill:#fcfcfc;}.cls-13{fill:#fdfdfd;}.cls-14{fill:#db0000;}</style></defs><path class="cls-1" d="M.11,156.29q0-76.48-.1-153C0-.09.69-.76,4.11-.76q1495.4.14,2990.8-.06c4.94,0,4,2.42,4,5.15-1.13.31-2.25.64-3.38.93-33.32,8.27-65.37,19.67-94.32,38.57-18.85,12.3-36.4,26.41-54.68,39.51-43.73,31.35-88.33,61.4-134.16,89.6-19.58,12.06-40.31,22-60.53,32.93a875.75,875.75,0,0,1-105.59,48.63c-35.51,13.43-71.77,24.73-107.42,37.76-33.64,12.29-66.81,25.63-98.76,42-37,18.91-67.62,45.3-93.75,77.34-12.2,15-24.77,29.62-38.07,43.65-20.9,22.05-45.65,37.61-75.14,45.34-16.9,4.42-33.83,8.74-50.75,13.1-33.38,8.6-66.15,19.31-99.22,29-3.44,1-4.67.56-5-3.16-.73-8.42-4.61-15.57-9.94-22-13.93-16.71-32.18-27.13-51.85-35.43a49.49,49.49,0,0,0-12.1-3c-21-3.14-42.1-4-63.25-4.84-14.72-.57-29.26,0-43.75,2.94-36.58,7.42-65.37,41.13-44.42,86.91a131.81,131.81,0,0,0,10,17.94c-17.59,3.28-34.28,7.88-51,12.13-18.94,4.79-38.07,8-57.71,8.1-13.82,0-27.67.36-41.46,1.21-39.9,2.45-79.49,0-119-5.78-18.12-2.64-36.54-3.89-54.83-2.22A716.34,716.34,0,0,1,1355.9,598c-7.55-.19-15.09-.84-22.93-1.3a11.31,11.31,0,0,1,1-1.78c13.72-15.69,19.25-34.49,17.68-54.67-2.64-34-17.66-55.3-51.79-61.39-19.49-3.48-39.08-4.09-58.75-3.23-28.76,1.27-55.8,8.64-80.63,23.56q-33.45,20.1-40.73,58.32a51,51,0,0,0,3.89,31.73c.65,1.4,1.94,2.7,1.37,4.62a5.9,5.9,0,0,1-1.46,0c-19.75-5.43-39.52-10.93-58.29-19.18Q971.51,533.45,870,545.71a286.65,286.65,0,0,1-43.39,1.91c-17.51-.53-34.1-5.48-50.81-10-18.71-5.08-37-11.17-54-20.63-16-8.92-31.17-19.2-46.47-29.26-25.6-16.83-51.82-32.84-74.38-53.86-18.58-17.31-39-32.3-59.76-46.76-30.86-21.51-63.67-40-95.28-60.47a1318.16,1318.16,0,0,0-153.81-84.94c-47.76-22.52-95.38-45.21-145.21-62.89-28.35-10.06-57.36-17-87.41-19.75C39.72,157.26,19.88,157.71.11,156.29ZM1563,576.94c14.32-.56,28.67-.69,43-1.81,18.52-1.45,36.85-4.7,53.31-13.84,23.93-13.3,39.92-32.68,41.89-61,1.27-18.17-6.48-33.69-16.41-48.26a50.51,50.51,0,0,0-23.89-19c-10.16-4-20.62-6.88-31.45-7.66-40.88-2.94-81.86-4.31-122.83-3.87-27.69.3-52.67,10-73.09,29.16-13.55,12.72-25,27.12-29,46.08-3.49,16.44,1.06,31.37,12.62,42.23,18.35,17.23,41.82,26.18,65.91,31.83C1509.2,577,1536.12,578,1563,576.94Z" transform="translate(0 0.82)"/><path class="cls-2" d="M.11,670.16V166.29c16.13.65,32.25,1.26,48.38,2a281.29,281.29,0,0,1,53.73,7.66c38.71,9.26,75.27,24.56,111.66,40.28,26.92,11.63,52.95,25.17,79.59,37.37,53.9,24.7,104.72,54.77,154.87,86.12,13.27,8.3,25.51,18.22,39.27,25.71,31.59,17.17,60.5,38.22,88.64,60.39,15.42,12.15,29.25,26.22,45.22,37.75,19.18,13.86,39.38,26.18,58.95,39.45,29.4,19.93,60.35,36.17,95.14,45.16,23.74,6.14,47.35,10.67,71.91,9.07,4.64-.3,9.28-.67,13.93-.94,13.45-.78,26.91-1.37,40.35-2.32,19-1.35,38-1.61,56.85.57,26.57,3.06,52.23,10.39,77.21,19.69,30.89,11.5,61.61,23.29,93.59,31.67,29.37,7.71,58.72,10.55,88.88,5.59,29.91-4.91,60.08-7.52,90.46-6.15,16.28.74,32.53,2,48.82,2.62A576.48,576.48,0,0,0,1431.9,606c24-2.15,47.84-.12,71.65,2.71,21.61,2.57,43.09,6.14,65,5.68,25.64-.53,51.26-1.67,76.89-1.93,25-.26,49.45-3.15,73.45-9.87a508.05,508.05,0,0,1,93-17.17c19.54-1.7,39.12-3.22,58.44-6.53A1035.67,1035.67,0,0,0,1986,552c46.32-13.52,92.35-28,139.41-38.89,36.58-8.46,67.79-26.12,93.09-54.08,13.63-15.07,27-30.4,39.82-46.11,28.32-34.58,63.47-59.89,103.8-78.65,45.54-21.19,92.73-38.07,140.4-53.51,78.77-25.51,152.35-62.14,223.06-104.41,51.87-31,101.7-65.37,149.79-102,29.8-22.72,61.39-41.73,97.53-52.41,8.57-2.54,17-5.68,26-6.55v379.9a26.31,26.31,0,0,1-3.45-.28c-16.2-3.46-28,3.23-32.92,18.84a61,61,0,0,0-1.74,30.55c.58,2.92,0,4.24-3.19,3a13.89,13.89,0,0,0-2-.4c-17.49-3.55-33.25-2.07-43.82,14.87-1.52,2.45-4,3.12-6.87,3.4-20.49,2-39.24,7.61-51.64,25.84-1.21,1.78-2.37,2.54-4.14.21-7.29-9.62-17.58-15.07-28.21-20.06-12.34-5.78-24.52-5.19-35.66,2.28-18.25,12.25-29.61,29.44-33.2,51.27-.87,5.26-2.55,8.33-8.12,9.59-9.07,2.06-16.27,7.19-21.73,14.91-5.58,7.89-8.51,16.91-11.74,25.82-2.5,6.89-6.6,12.2-13.55,15.14a46.07,46.07,0,0,0-13.59,8.32c-7.05,6.58-15.56,9.33-24.74,10.8-18.25,2.93-32,11.5-38.31,29.9-2.08,6.08-3.5,6.3-9.81,5.44-7.28-1-14.09-4.3-21.45-4.44-18.94-.38-33.51,8.21-43.66,23.62a63.34,63.34,0,0,1-21,19.83c-7.76,4.71-14.6,7.49-24.06,6.85-13.19-.89-26.56,1-39.86,1.44-24.45.8-48.92,1.89-73.38,2-39,.14-78,.43-117-.47-41.64-1-83.3.17-124.94-1.23-5.85-.19-6-.21-4.79-6a119.17,119.17,0,0,0-1.07-52.41c-1.23-5.12-2.73-10.17-4.16-15.43,2.7.12,3.64,2.12,5,3.41,2.61,2.44,5.39,4.61,8.65,1.55,3.49-3.27,1.44-6.3-1.23-9-4.26-4.3-8.35-8.78-14.24-12.33,4.75-1.86,8.16-.49,11.62.52a5.16,5.16,0,0,0,6.35-2.67c1.33-2.33.46-4.46-1.38-6.29a11.78,11.78,0,0,0-8.54-3.52c-2.17,0-3.24-.5-3.41-3-.3-4.28-3.46-5.33-6.77-3.83-3,1.38-3.85.52-5.09-2.08-2.36-5-5.19-9.74-10.75-11.95-3-1.18-5.68-.86-7.62,1.76-1.81,2.45-1.29,5.13.43,7.42,1.29,1.72,3,3.11,4.44,4.72,1,1.08,2.67,2.11,1.93,3.73s-2.61,1.15-4.07,1.25c-5.34.37-10.68.77-15.26,3.92-3.77,2.58-5.24,7.32-3.42,10.4,2.19,3.69,6.27,4.26,10.95,1.77,1.57-.85,2.62-3,5.26-2.52-2.38,5-4.65,9.6-5.66,14.71-.73,3.67-.14,7,3.51,8.36,4,1.47,6.69-1,8.31-4.47,1-2.11,1.6-4.37,2.49-6.52.57-1.38,1.18-2.84,3.11-2.74,1.69.09,2.07,1.42,2.58,2.66,9.78,23.27,13.23,47.25,8.17,72.22-.93,4.61-2.8,6.44-7.95,6.34-29.48-.57-59-.15-88.43,1.06-26.09,1.08-52.15,3.12-78.25,3.62-54.79,1.05-109.59.36-164.37-1.61-20.47-.74-41-.47-61.45-.86-52-1-103.94.52-155.86-2.34-14.45-.8-28.93-1.1-43.35-2.19-27.55-2.07-55.11-3.74-82.74-3.68-13.16,0-26.31.67-39.46.77-46.47.32-92.93.06-139.38-1.78-16.64-.65-33.31-.47-49.93-1.35-8.82-.46-17.64-.49-26.44-.93q-36.12-1.83-72.24-3.87c-12.29-.67-24.6-1.1-36.85-2.16-29-2.49-58-4.17-87.1-5.52q-32.16-1.5-64.43-1.41c-22.32.09-44.59,1.06-66.87,2.18-3.52.18-4.67-.86-4.44-4.43.53-8,1.18-15.92,1-23.93-.07-2.72-1.45-6.95.68-7.88,2.65-1.15,4.79,2.65,7,4.52,2.72,2.27,5.61,4.12,8.75.85,3-3.09,1.61-6.12-.67-8.92-2.5-3.07-6.2-4.42-9.44-6.43-.78-.48-2.13-.62-2-1.89.13-1.12,1.35-1.38,2.23-1.73,4.08-1.61,8.4-1.79,12.71-2.18,3.55-.31,6.59-1.72,6.82-5.91s-2.51-6.1-6.14-6.47c-6.22-.64-12.45-.06-17.77,3.43-4.37,2.86-4.92.73-5.11-2.94a19.21,19.21,0,0,0-4.58-11.9c-2-2.34-4.56-4.23-7.86-2.41s-3.13,4.8-2.21,7.88c.72,2.39,1.62,4.73,2.29,7.13.54,1.95.23,3.23-2.39,2.87-9.34-1.29-16.33,2.76-21.92,10.23-3.48-3.41-6.1-7.34-11-10.59,2.67-.17,3.84-.16,5-.34,4.07-.64,7.47-2.48,8.41-6.71s-2-6.85-5.43-8.57c-6.78-3.41-13.76-6.27-21.5-3.37-2.4.9-2.8-.14-3.19-2.1a27.8,27.8,0,0,0-7.7-14.85c-2.6-2.55-5.21-5.88-9.38-3.28s-3,6.64-2.13,10.39a22.54,22.54,0,0,0,1.73,4.14c1.87,4.19,3.75,8.37,5.85,13l-7-.89c-6.75-.85-13,.54-18.15,5-2.57,2.21-4.8,5-3.05,8.71,1.86,3.92,5.32,3.07,8.69,2.4,3.87-.78,7.7-2.45,12.11-1.44-1.65,2.32-3.15,4.12-4.29,6.12-2.5,4.35-4.86,8.78-4.37,14.07.26,2.92,1.52,5.21,4.48,6s4.79-.94,6-3.39a9,9,0,0,1,4-4.24c1.27-.67,2.51-2.39,3.91-1.36.7.52.56,2.46.47,3.74-.63,9-1.06,17.93-2.14,26.82-.52,4.27-.38,8.64-1.75,12.83-.87,2.65-1.95,4-5.12,4.14-9.8.41-19.58,1.2-29.35,2q-39,3.13-78.14,4.91c-12.63.59-25.25,1.32-37.86,2.11q-37.08,2.36-74.15,4.87c-14.26,1-28.52,2.09-42.77,3.18-20.38,1.55-40.75,3.22-61.14,4.68-16.75,1.21-33.54,2-50.27,3.31-20.37,1.67-40.68,4-61,5.64-19.88,1.65-39.69,3.93-59.47,6.39-27.22,3.38-54.21,8.28-81,14-4.25.9-4.65-.39-4.66-4q-.18-47.21-1.71-94.38c-.79-24.79-.49-49.63-1.35-74.42-.72-20.56,1.66-40.41,9.56-59.53,1.38-3.35,2.32-2.87,4.27-.78a101.71,101.71,0,0,0,7.41,7.42,10.48,10.48,0,0,0,13.35.64c3.79-2.93,5-7.76,2.77-12.59a59.18,59.18,0,0,0-4.92-8.07c-1.85-2.72-1.61-4.14,2-4.43,8.73-.69,17.34-2.53,26.24-.62a10.52,10.52,0,0,0,12.4-8.28c.9-5.46-2.76-10.57-8.82-12.09-3.22-.81-6.66-.95-9.72-2.13a92.18,92.18,0,0,0-37.22-5.73c-3.08.12-4-.35-3.35-3.76,1.18-6.58-8.3-18.24-15-19.1-4.45-.57-9.47,3.22-10.62,8.1a37.65,37.65,0,0,0-.51,3.92c-2.18-.53-3.07-2.27-4.36-3.48a46.31,46.31,0,0,0-9.84-7.62c-4.3-2.27-8.55-1.79-12.08,1.38-3.25,2.92-4,6.74-2.37,11,.38,1,1.42,1.95.44,3.17-2.09.72-3.89-.71-5.86-.73-2.16,0-4.34-.23-6.49-.06-5.47.43-9.09,4.46-9.23,9.92-.12,5.21,2.79,8.45,7.07,10.54,4.45,2.16,9.1,3.92,14.43,6.17-3.4,2.36-6.31,4.2-9,6.29-5.68,4.35-11.73,8.38-15.22,14.9a10.25,10.25,0,0,0,2,12.81c3.42,3.07,8.09,3.42,12.46.53a53.26,53.26,0,0,0,6.41-5.54,41,41,0,0,1,19.13-10.24c2.38-.53,4.41-.45,5.44,2,2.72,6.6,6.17,13.14,6.25,20.38.47,39.63.75,79.25,2,118.87,1.1,33.45-.32,66.88-2.83,100.26-.23,3-1.44,3.87-4.09,4.42-16.45,3.37-33,6.08-49.58,8.72-8.23,1.32-16,2-23.21-3.31-1.51-1.11-3.72-1.42-5.67-1.76-6.22-1.07-12.47-1.94-18.7-3-9-1.49-15.52-6.37-19.53-14.65q-4.7-9.66-9.68-19.18C39.2,681.35,22,672.08.11,670.16Z" transform="translate(0 0.82)"/><path class="cls-3" d="M1136,929.09H450.08c.54-4-2.66-4.91-5.31-6-3.63-1.51-7.4-2.71-11.12-4a40.62,40.62,0,0,0-12.81-10.83c-3.16-4-4.95-8.63-6.63-13.32-3.08-8.56-8.47-15.39-15.44-21.09a78.6,78.6,0,0,0-23.33-13.3c-5.93-2.13-10.31-5.61-12.44-12-2-6-6.25-10.52-11.08-14.53-20.41-16.94-43.25-23.43-69.4-16.54-17.51,4.6-34.83,5.83-51.06-4.61-1.51-1-3.42-1.3-5.1-2-7.91-3.37-15.19-7.52-20-15.07-2.8-4.39-6.3-8.41-10.86-10.88a109.06,109.06,0,0,1-25.28-19.28c-8.52-8.55-19.55-12.15-31.31-13.94,9.06-1.86,18.08-3.39,27.05-5.11,31.87-6.09,63.5-13.46,95.61-18.2,51-7.54,102.42-12.13,153.84-16,32.69-2.43,65.41-4.49,98.09-7,33.52-2.61,67.06-4.87,100.61-7,33.88-2.18,67.79-4,101.67-6.07,26.58-1.65,53.15-3.29,79.7-5.35,34-2.64,68-5.42,102.13-6.49,46.64-1.45,93.26,0,139.83,2.93,33.71,2.15,67.4,4.69,101.13,6.61q43.37,2.47,86.81,3.9c39.12,1.27,78.25,2.19,117.38,3,25.65.51,51.31.23,77-.55,42.17-1.27,84.22,1.56,126.27,4a8.67,8.67,0,0,1,4.93,1.33c-2.8,1.86-5.05,3.57-7.49,4.94-13.34,7.53-26.57,15.3-40.14,22.39-60.39,31.56-119.51,65.38-178.34,99.71-32.5,19-64.21,39.3-98,56.12-27.58,13.76-55.65,26.45-83.58,39.44C1140.78,925.49,1137.4,925.83,1136,929.09ZM574.29,759.15c-35.91-.12-69.21.57-102.51,1.86-35.78,1.39-71.52,3.21-107,8.24-9,1.28-18.14,2.59-26.49,6.72-3.07,1.52-5.16,3.91-5,7.39.11,3.23,2.09,5.54,5,6.9a50.9,50.9,0,0,0,5.53,2.26c9.08,2.91,18.48,4.28,27.88,5.48,38.86,5,77.95,6.76,117.07,7.91,48,1.4,95.93,1.72,143.91.48,45.79-1.19,91.55-2.76,137.06-8.33,11-1.35,22.15-2.73,32.59-7,3.58-1.46,6.59-3.71,6.6-7.92s-3-6.42-6.57-7.95c-6.33-2.72-13.05-3.93-19.78-5.05-32.91-5.46-66.18-7.21-99.43-8.69C646,759.8,608.86,758.91,574.29,759.15Z" transform="translate(0 0.82)"/><path class="cls-2" d="M2998.91,521.19q0,201.7.09,403.4c0,3.75-.84,4.59-4.59,4.59q-288.73-.16-577.46-.09c.07-7.66,4.71-13.26,8.65-19.17,5.07-7.61,12.91-11.86,20.38-16.53,4.25-2.66,7.8-6.08,8.82-11,1.68-8.12,5.24-15.38,8.89-22.69s5.48-14.82,3.37-22.71c-3.54-13.21-5.17-26.63-6-40.25-.74-12.13,3.22-23,8.09-33.58,6.75-14.72,15.2-28.32,30.13-36.13,7.4-3.87,12.46-9,14.65-17.18a26.44,26.44,0,0,1,14.34-17.18c10.93-5.25,18.75-12.95,25.29-23.14,11-17,26-22.09,45.77-17.11,2.25.57,4.51,1.16,6.79,1.58,14.6,2.66,19.13.59,24-12.51,5.12-13.94,15.82-19.88,29.41-22.21,9.78-1.68,19.27-4,27.07-10.61a73.34,73.34,0,0,1,16.36-10.45c7.82-3.63,12.93-9.73,16-17.64,2.3-5.89,4.42-11.86,6.9-17.67,4.2-9.86,11-17.22,21.84-19.42,9.2-1.87,13.11-7.8,14.11-16.36,2-17.39,11.39-30.77,24-41.9,7.13-6.31,15.94-10.27,25.84-6.83,11.9,4.13,23,9.67,30.74,20.32,3.18,4.4,7.49,5.87,11.78,4.11a17.68,17.68,0,0,0,8.08-7.2,28.61,28.61,0,0,1,9.74-9.88c10.06-5.71,20.62-10,32.39-10.55,6.43-.28,12.4-1.81,15.75-7.88,5.08-9.17,13.26-11.88,23-12.09,6.81-.14,13.06,2.22,19.52,3.75,7.51,1.78,10.77-1.33,9.45-9-1.38-8-4-15.76-2.18-24.09,1.41-6.51,1.94-13.4,7.28-18.14,6.71-5.94,14.28-3.87,21.74-1.55v104a48.91,48.91,0,0,0-22,15.81c-1.71,2.2-3.33,2.8-6.29,2.54-14.29-1.25-26.46,3.7-36.37,14-2.54,2.65-4.26,6.24-.73,9.19s5.75-.08,8.2-2.62c7.71-8,17.3-12.07,28.34-10.49,6.16.88,10.4-.71,13.84-5.43A35.49,35.49,0,0,1,2998.91,521.19ZM2777.52,757.73c-.39-.45-.69-.66-.8-.94-.62-1.72-1.22-3.45-1.78-5.18-7.14-22-17.45-42-33.73-58.78-7.86-8.13-16.21-10.34-26.54-6.61-1.87.68-3.75,1.38-5.62,2.08-31.29,11.74-58.08,29.24-76.72,58-5.52,8.51-6.72,16.74-3.72,26a60.35,60.35,0,0,0,3.66,9.27c9.41,18.06,19.63,35.59,34.36,50,2,1.95,3.06,3.21-.28,5.08-8.53,4.75-11,12.93-11.3,22-.1,3.16,0,5.54-3.92,6.68a5.33,5.33,0,0,0-3.68,7.18c1.25,3.35,4.27,3.48,7.14,2.19,2.5-1.11,3.88-.62,5.16,1.84,2.46,4.72,5.17,9.31,7.89,13.89,4.3,7.23,9.76,13.08,18.51,14.76a90.21,90.21,0,0,0,15.4,1.23c8.16.15,14.31-3.24,17.9-10.43,3.51-7,1.42-13.63-3-19.62-2.06-2.81-4.37-5.45-6.58-8.15s-2.67-5.06.09-7.86c2.26-2.3,4-5.64,2.83-8.67-2.27-5.8-4.08-11.08,1.85-15.8.45-.35.28-1.59.26-2.42-.11-5,.23-10-1-14.9-.48-2-1.66-4.43.62-6s4.07.59,5.64,1.85c5.11,4.11,10.56,4.35,16.41,2,2.62-1.06,5.25-2.44,8-2.8a19.34,19.34,0,0,0,15.08-10.27c2.58-4.63,6.1-5,10.47-3.62,3.11,1,6.55,1.57,9.19-.29,4.63-3.25,6.71-.95,8.6,2.91.51,1,1.12,2,1.72,3,7.39,12.19,18,14.63,30,7a60.32,60.32,0,0,1,8.74-4.79c9.54-4,13.37-10.89,11.23-21.1a29.11,29.11,0,0,0-3.73-9.75c-3.47-5.48-7-10.92-10.34-16.5-3.44-5.79-3-8.35,1.92-13,4.63-4.47,10.72-5.87,16.54-7.81,3.56-1.19,7.12-2.54,8.74-6.12,2.15-4.76,6-6.32,10.7-7,9.12-1.26,11.75-4.81,10.09-14-1.26-6.88-.24-13.54,1.07-20.26.73-3.72,2.2-3.75,4.44-1.31a26.48,26.48,0,0,1,6.83,16.75c.38,5.8.5,11.64,1.22,17.41.39,3.11,2.23,5.88,6,5.27,4-.63,4.36-3.86,3.61-7-1-4.3-.83-8.62-.75-12.92a38.84,38.84,0,0,0-5.88-21.37c-3-4.89-6.79-9.07-12.53-10.91-5.38-1.73-9.64,0-11,5.29-2.35,9-4.67,18.1-2.94,27.53.72,3.91-.34,5.82-4.48,6.36-6.09.79-11,3.73-13.92,9.36-.73,1.39-1.61,2.76-3.15,3-10.4,1.52-18.39,9.42-29.78,9.5C2798.14,739.06,2786.31,746.25,2777.52,757.73Zm-226.59,4.18c-10.78,1.53-19.45,6.42-24.51,16.44a30.84,30.84,0,0,1-8.91,11.11c-7.75,5.89-10.36,14.34-10.61,23.71-.07,2.8,1,5.12,3.85,5.61,3.16.53,4.91-1.58,5.74-4.39a22.13,22.13,0,0,0,.52-3.93c.65-5.69,2.8-10.48,7.63-14,3.93-2.85,7.33-6.28,9.16-11,2.24-5.73,6.42-9.49,11.86-12.21,4.47-2.24,8.26-.71,12.3,1.14,2.67,1.22,4.93-.28,6.29-2.63s.18-4.31-1.73-5.61C2559.07,763.89,2555.49,761.69,2550.93,761.91Z" transform="translate(0 0.82)"/><path class="cls-3" d="M2406,929.09H2073c.64-2.59-1.78-2.66-3-3.39-11.69-6.73-23.59-13.1-35.16-20-30.65-18.33-62.75-33.78-95.36-48.17-11.42-5-23.26-9.11-34.38-14.84-53.88-27.77-107.4-56.25-162.44-81.73-32.19-14.9-62.77-33.07-94.89-48.17l-18.14-8.51c2.17-.18,2.93-.29,3.69-.29,55.66,0,111.31.26,166.94,1.52,16.32.37,32.65.47,49,1,44.15,1.39,88.29,1.28,132.41-.62,26.28-1.12,52.55-2.89,78.84-3.46,60.15-1.3,120.29.82,180.44.81,61.14,0,122.28,2.07,183.42-.18,12-.44,23.95-1.14,35.93-1.58,14.48-.53,29-.92,43.45-1.28,1,0,3.5-.8,2.56,1.46-2.23,5.36-2.45,11.72-8.74,15-27.06,14.28-39.53,39.14-45.13,67.29-3.08,15.46-1.57,31.83,3.56,47.29,3,9.17,2.51,18-2.11,26.55-2.2,4.1-5.18,8.24-5.8,12.63-1.39,9.9-7.09,15.69-15.44,19.78a13.61,13.61,0,0,0-2.09,1.36A62.36,62.36,0,0,0,2406,929.09Z" transform="translate(0 0.82)"/><path class="cls-4" d="M1577,929.09H1157c1.74-.94,3.42-2,5.22-2.79,52.12-22.75,102.12-49.45,150.83-78.83,55.88-33.71,112.5-66.19,170.32-96.56,26.08-13.7,52.41-27.06,76.79-43.72,5.53-3.78,10.68-5.72,17.42-5.29,4.84.31,5.69,1.88,4.93,6.07-1.09,5.95-.69,6.09,5.3,6,4.65-.09,3.92-3.46,3.79-6-.2-4.15,1.69-5.15,5.38-5.13a33.35,33.35,0,0,1,16.26,4c3.93,2.18,7.84,4.43,11.91,6.31,55.06,25.36,107.88,55.18,162.89,80.68,54.49,25.25,106,56.43,161.79,79.35,33.38,13.72,64.8,31.88,96.07,50,3.11,1.8,6.6,3.09,9,5.93H1605c-1-19.41-3.34-38.74-3.12-58.21,0-2.4-1.28-2.68-3.17-2.58-4.82.26-9.65.79-14.45.58-4.35-.19-5,1.48-5,5.47C1579.31,892.62,1579.75,910.93,1577,929.09Zm2.38-116.58h-.63c0,6.82.35,13.66-.12,20.44-.36,5.26,1.58,6.6,6.44,6a41.56,41.56,0,0,1,10,.27c3.89.49,5.36-.59,4.91-4.75-1.48-13.37-2.84-26.76-3.94-40.17-.94-11.42-.74-11.31-12.13-9.73-3.28.45-4.59,1.67-4.53,5C1579.47,797.22,1579.38,804.87,1579.38,812.51Zm2.14-62.55h-1.36c0,6,0,12,0,18-.05,9.26-.09,9,9.1,7.71,3.9-.57,5.11-1.88,4.79-5.92-1.22-15.26-2-30.56-3.1-45.83-.12-1.74,1.35-4.9-2.57-4.57-3.1.26-7-.63-6.89,4.67C1581.62,732.65,1581.52,741.3,1581.52,750Z" transform="translate(0 0.82)"/><path class="cls-5" d="M2055,929.09c-2.44-2.84-5.93-4.13-9-5.93-31.27-18.12-62.69-36.28-96.07-50-55.75-22.92-107.3-54.1-161.79-79.35-55-25.5-107.83-55.32-162.89-80.68-4.07-1.88-8-4.13-11.91-6.31a33.35,33.35,0,0,0-16.26-4c-3.69,0-5.58,1-5.38,5.13.13,2.52.86,5.89-3.79,6-6,.12-6.39,0-5.3-6,.76-4.19-.09-5.76-4.93-6.07-6.74-.43-11.89,1.51-17.42,5.29-24.38,16.66-50.71,30-76.79,43.72-57.82,30.37-114.44,62.85-170.32,96.56-48.71,29.38-98.71,56.08-150.83,78.83-1.8.79-3.48,1.85-5.22,2.79h-21c1.37-3.26,4.75-3.6,7.37-4.82,27.93-13,56-25.68,83.58-39.44,33.74-16.82,65.45-37.15,98-56.12,58.83-34.33,118-68.15,178.34-99.71,13.57-7.09,26.8-14.86,40.14-22.39,2.44-1.37,4.69-3.08,7.49-4.94a8.67,8.67,0,0,0-4.93-1.33c-42-2.45-84.1-5.28-126.27-4-25.65.78-51.31,1.06-77,.55-39.13-.79-78.26-1.71-117.38-3q-43.42-1.41-86.81-3.9c-33.73-1.92-67.42-4.46-101.13-6.61-46.57-3-93.19-4.38-139.83-2.93-34.09,1.07-68.11,3.85-102.13,6.49-26.55,2.06-53.12,3.7-79.7,5.35-33.88,2.1-67.79,3.89-101.67,6.07-33.55,2.15-67.09,4.41-100.61,7-32.68,2.54-65.4,4.6-98.09,7-51.42,3.82-102.8,8.41-153.84,16-32.11,4.74-63.74,12.11-95.61,18.2-9,1.72-18,3.25-27.05,5.11,11.76,1.79,22.79,5.39,31.31,13.94a109.06,109.06,0,0,0,25.28,19.28c4.56,2.47,8.06,6.49,10.86,10.88,4.83,7.55,12.11,11.7,20,15.07,1.68.72,3.59,1,5.1,2,16.23,10.44,33.55,9.21,51.06,4.61,26.15-6.89,49-.4,69.4,16.54,4.83,4,9.08,8.57,11.08,14.53,2.13,6.34,6.51,9.82,12.44,12a78.6,78.6,0,0,1,23.33,13.3c7,5.7,12.36,12.53,15.44,21.09,1.68,4.69,3.47,9.35,6.64,13.32A24.17,24.17,0,0,0,433.65,919c3.72,1.33,7.49,2.53,11.12,4,2.65,1.1,5.85,2,5.31,6h-20c-11.52-6.32-20-15.32-24.07-28a39.78,39.78,0,0,0-11-17,66.1,66.1,0,0,0-22.67-14.18c-8.54-3.16-15.63-8-18.81-17.24-1.83-5.33-5.44-9.4-10-12.75-14.52-10.64-30-17.86-48.67-14.76-6.06,1-12.07,2.35-18.11,3.5-13.88,2.63-27.69,4.25-40.9-2.87a102.68,102.68,0,0,0-15.61-6.65c-9-3.07-15.92-8.83-21.19-16.67a36.6,36.6,0,0,0-14.49-12.67,54.86,54.86,0,0,1-17.23-13.41,22.88,22.88,0,0,0-9.16-6.71c-4.92-5.66-11.76-6.44-18.56-7.35-12.33-2.08-24.36-4.82-35.25-11.59-5.82-3.61-12.65-4.5-19.62-4.89C69.31,745,56.8,739,50,724.05c-2.61-5.76-5.67-11.31-8.51-17C33,690.05,18.7,681.78.11,680.15v-10C22,672.08,39.2,681.35,49.63,701.37q5,9.52,9.68,19.18c4,8.28,10.5,13.16,19.53,14.65,6.23,1,12.48,1.9,18.7,3,1.95.34,4.16.65,5.67,1.76,7.22,5.31,15,4.63,23.21,3.31,16.57-2.64,33.13-5.35,49.58-8.72,2.65-.55,3.86-1.4,4.09-4.42,2.51-33.38,3.93-66.81,2.83-100.26-1.29-39.62-1.57-79.24-2-118.87-.08-7.24-3.53-13.78-6.25-20.38-1-2.49-3.06-2.57-5.44-2a41,41,0,0,0-19.13,10.24,53.26,53.26,0,0,1-6.41,5.54c-4.37,2.89-9,2.54-12.46-.53a10.25,10.25,0,0,1-2-12.81c3.49-6.52,9.54-10.55,15.22-14.9,2.72-2.09,5.63-3.93,9-6.29-5.33-2.25-10-4-14.43-6.17-4.28-2.09-7.19-5.33-7.07-10.54.14-5.46,3.76-9.49,9.23-9.92,2.15-.17,4.33,0,6.49.06,2,0,3.77,1.45,5.86.73,1-1.22-.06-2.21-.44-3.17-1.67-4.22-.88-8,2.37-11,3.53-3.17,7.78-3.65,12.08-1.38a46.31,46.31,0,0,1,9.84,7.62c1.29,1.21,2.18,2.95,4.36,3.48a37.65,37.65,0,0,1,.51-3.92c1.15-4.88,6.17-8.67,10.62-8.1,6.72.86,16.2,12.52,15,19.1-.61,3.41.27,3.88,3.35,3.76a92.18,92.18,0,0,1,37.22,5.73c3.06,1.18,6.5,1.32,9.72,2.13,6.06,1.52,9.72,6.63,8.82,12.09a10.52,10.52,0,0,1-12.4,8.28c-8.9-1.91-17.51-.07-26.24.62-3.61.29-3.85,1.71-2,4.43a59.18,59.18,0,0,1,4.92,8.07c2.24,4.83,1,9.66-2.77,12.59a10.48,10.48,0,0,1-13.35-.64,101.71,101.71,0,0,1-7.41-7.42c-1.95-2.09-2.89-2.57-4.27.78-7.9,19.12-10.28,39-9.56,59.53.86,24.79.56,49.63,1.35,74.42q1.5,47.19,1.71,94.38c0,3.6.41,4.89,4.66,4,26.83-5.71,53.82-10.61,81-14,19.78-2.46,39.59-4.74,59.47-6.39,20.36-1.68,40.67-4,61-5.64,16.73-1.36,33.52-2.1,50.27-3.31,20.39-1.46,40.76-3.13,61.14-4.68,14.25-1.09,28.51-2.21,42.77-3.18q37.07-2.52,74.15-4.87c12.61-.79,25.23-1.52,37.86-2.11q39.11-1.82,78.14-4.91c9.77-.79,19.55-1.58,29.35-2,3.17-.13,4.25-1.49,5.12-4.14,1.37-4.19,1.23-8.56,1.75-12.83,1.08-8.89,1.51-17.87,2.14-26.82.09-1.28.23-3.22-.47-3.74-1.4-1-2.64.69-3.91,1.36a9,9,0,0,0-4,4.24c-1.17,2.45-3.08,4.1-6,3.39s-4.22-3-4.48-6c-.49-5.29,1.87-9.72,4.37-14.07,1.14-2,2.64-3.8,4.29-6.12-4.41-1-8.24.66-12.11,1.44-3.37.67-6.83,1.52-8.69-2.4-1.75-3.69.48-6.5,3.05-8.71,5.2-4.48,11.4-5.87,18.15-5l7,.89c-2.1-4.67-4-8.85-5.85-13a22.54,22.54,0,0,1-1.73-4.14c-.85-3.75-1.95-7.85,2.13-10.39s6.78.73,9.38,3.28a27.8,27.8,0,0,1,7.7,14.85c.39,2,.79,3,3.19,2.1,7.74-2.9,14.72,0,21.5,3.37,3.42,1.72,6.4,4.23,5.43,8.57s-4.34,6.07-8.41,6.71c-1.14.18-2.31.17-5,.34,4.87,3.25,7.49,7.18,11,10.59,5.59-7.47,12.58-11.52,21.92-10.23,2.62.36,2.93-.92,2.39-2.87-.67-2.4-1.57-4.74-2.29-7.13-.92-3.08-1-6.08,2.21-7.88s5.82.07,7.86,2.41a19.21,19.21,0,0,1,4.58,11.9c.19,3.67.74,5.8,5.11,2.94,5.32-3.49,11.55-4.07,17.77-3.43,3.63.37,6.38,2.25,6.14,6.47s-3.27,5.6-6.82,5.91c-4.31.39-8.63.57-12.71,2.18-.88.35-2.1.61-2.23,1.73-.16,1.27,1.19,1.41,2,1.89,3.24,2,6.94,3.36,9.44,6.43,2.28,2.8,3.63,5.83.67,8.92-3.14,3.27-6,1.42-8.75-.85-2.23-1.87-4.37-5.67-7-4.52-2.13.93-.75,5.16-.68,7.88.21,8-.44,16-1,23.93-.23,3.57.92,4.61,4.44,4.43,22.28-1.12,44.55-2.09,66.87-2.18q32.25-.12,64.43,1.41c29.06,1.35,58.1,3,87.1,5.52,12.25,1.06,24.56,1.49,36.85,2.16q36.12,2,72.24,3.87c8.8.44,17.62.47,26.44.93,16.62.88,33.29.7,49.93,1.35,46.45,1.84,92.91,2.1,139.38,1.78,13.15-.1,26.3-.73,39.46-.77,27.63-.06,55.19,1.61,82.74,3.68,14.42,1.09,28.9,1.39,43.35,2.19,51.92,2.86,103.91,1.34,155.86,2.34,20.48.39,41,.12,61.45.86,54.78,2,109.58,2.66,164.37,1.61,26.1-.5,52.16-2.54,78.25-3.62,29.47-1.21,59-1.63,88.43-1.06,5.15.1,7-1.73,7.95-6.34,5.06-25,1.61-48.95-8.17-72.22-.51-1.24-.89-2.57-2.58-2.66-1.93-.1-2.54,1.36-3.11,2.74-.89,2.15-1.52,4.41-2.49,6.52-1.62,3.52-4.34,5.94-8.31,4.47-3.65-1.35-4.24-4.69-3.51-8.36,1-5.11,3.28-9.73,5.66-14.71-2.64-.46-3.69,1.67-5.26,2.52-4.68,2.49-8.76,1.92-10.95-1.77-1.82-3.08-.35-7.82,3.42-10.4,4.58-3.15,9.92-3.55,15.26-3.92,1.46-.1,3.36.29,4.07-1.25s-1-2.65-1.93-3.73c-1.44-1.61-3.15-3-4.44-4.72-1.72-2.29-2.24-5-.43-7.42,1.94-2.62,4.65-2.94,7.62-1.76,5.56,2.21,8.39,7,10.75,11.95,1.24,2.6,2.07,3.46,5.09,2.08,3.31-1.5,6.47-.45,6.77,3.83.17,2.53,1.24,3,3.41,3a11.78,11.78,0,0,1,8.54,3.52c1.84,1.83,2.71,4,1.38,6.29a5.16,5.16,0,0,1-6.35,2.67c-3.46-1-6.87-2.38-11.62-.52,5.89,3.55,10,8,14.24,12.33,2.67,2.7,4.72,5.73,1.23,9-3.26,3.06-6,.89-8.65-1.55-1.38-1.29-2.32-3.29-5-3.41,1.43,5.26,2.93,10.31,4.16,15.43a119.17,119.17,0,0,1,1.07,52.41c-1.18,5.74-1.06,5.76,4.79,6,41.64,1.4,83.3.28,124.94,1.23,39,.9,78,.61,117,.47,24.46-.09,48.93-1.18,73.38-2,13.3-.43,26.67-2.33,39.86-1.44,9.46.64,16.3-2.14,24.06-6.85a63.34,63.34,0,0,0,21-19.83c10.15-15.41,24.72-24,43.66-23.62,7.36.14,14.17,3.46,21.45,4.44,6.31.86,7.73.64,9.81-5.44,6.29-18.4,20.06-27,38.31-29.9,9.18-1.47,17.69-4.22,24.74-10.8A46.07,46.07,0,0,1,2697,590.2c7-2.94,11.05-8.25,13.55-15.14,3.23-8.91,6.16-17.93,11.74-25.82,5.46-7.72,12.66-12.85,21.73-14.91,5.57-1.26,7.25-4.33,8.12-9.59,3.59-21.83,14.95-39,33.2-51.27,11.14-7.47,23.32-8.06,35.66-2.28,10.63,5,20.92,10.44,28.21,20.06,1.77,2.33,2.93,1.57,4.14-.21,12.4-18.23,31.15-23.8,51.64-25.84,2.82-.28,5.35-.95,6.87-3.4,10.57-16.94,26.33-18.42,43.82-14.87a13.89,13.89,0,0,1,2,.4c3.21,1.25,3.77-.07,3.19-3a61,61,0,0,1,1.74-30.55c4.91-15.61,16.72-22.3,32.92-18.84a26.31,26.31,0,0,0,3.45.28v11c-7.46-2.32-15-4.39-21.74,1.55-5.34,4.74-5.87,11.63-7.28,18.14-1.8,8.33.8,16.12,2.18,24.09,1.32,7.63-1.94,10.74-9.45,9-6.46-1.53-12.71-3.89-19.52-3.75-9.74.21-17.92,2.92-23,12.09-3.35,6.07-9.32,7.6-15.75,7.88-11.77.52-22.33,4.84-32.39,10.55a28.61,28.61,0,0,0-9.74,9.88,17.68,17.68,0,0,1-8.08,7.2c-4.29,1.76-8.6.29-11.78-4.11-7.71-10.65-18.84-16.19-30.74-20.32-9.9-3.44-18.71.52-25.84,6.83-12.58,11.13-21.93,24.51-24,41.9-1,8.56-4.91,14.49-14.11,16.36-10.87,2.2-17.64,9.56-21.84,19.42-2.48,5.81-4.6,11.78-6.9,17.67-3.1,7.91-8.21,14-16,17.64a73.34,73.34,0,0,0-16.36,10.45c-7.8,6.57-17.29,8.93-27.07,10.61-13.59,2.33-24.29,8.27-29.41,22.21-4.83,13.1-9.36,15.17-24,12.51-2.28-.42-4.54-1-6.79-1.58-19.74-5-34.81.06-45.77,17.11-6.54,10.19-14.36,17.89-25.29,23.14a26.44,26.44,0,0,0-14.34,17.18c-2.19,8.2-7.25,13.31-14.65,17.18-14.93,7.81-23.38,21.41-30.13,36.13-4.87,10.6-8.83,21.45-8.09,33.58.82,13.62,2.45,27,6,40.25,2.11,7.89.21,15.55-3.37,22.71s-7.21,14.57-8.89,22.69c-1,4.93-4.57,8.35-8.82,11-7.47,4.67-15.31,8.92-20.38,16.53-3.94,5.91-8.58,11.51-8.65,19.17h-11a62.36,62.36,0,0,1,24.49-37.53,13.61,13.61,0,0,1,2.09-1.36c8.35-4.09,14-9.88,15.44-19.78.62-4.39,3.6-8.53,5.8-12.63,4.62-8.58,5.15-17.38,2.11-26.55-5.13-15.46-6.64-31.83-3.56-47.29,5.6-28.15,18.07-53,45.13-67.29,6.29-3.32,6.51-9.68,8.74-15,.94-2.26-1.59-1.48-2.56-1.46-14.49.36-29,.75-43.45,1.28-12,.44-23.95,1.14-35.93,1.58-61.14,2.25-122.28.16-183.42.18-60.15,0-120.29-2.11-180.44-.81-26.29.57-52.56,2.34-78.84,3.46-44.12,1.9-88.26,2-132.41.62-16.31-.51-32.64-.61-49-1-55.63-1.26-111.28-1.54-166.94-1.52-.76,0-1.52.11-3.69.29l18.14,8.51c32.12,15.1,62.7,33.27,94.89,48.17,55,25.48,108.56,54,162.44,81.73,11.12,5.73,23,9.81,34.38,14.84,32.61,14.39,64.71,29.84,95.36,48.17,11.57,6.92,23.47,13.29,35.16,20,1.27.73,3.69.8,3,3.39ZM850.85,649.54a19,19,0,0,0,0-2c-.21-2.07.95-4.91-1.21-6-1.72-.85-2.8,1.88-4.27,2.87-2.33,1.57-4.79,2.68-7.38.9s-3.06-4.36-2.43-7.5c.57-2.87,3.3-6.09,1.77-8.38-1.83-2.73-5.92-.66-9-1.29-1.31-.28-2.46-1.25-3.82.67-4,5.68-6.74,5.62-10.78-.19-2.49-3.6-6-5.63-9.65-7.68-2.52-1.44-4-.37-3.91,2.27.32,17-1.42,33.83-3,50.68-.23,2.41.67,3.19,3.16,3,8.1-.73,16.22-1.2,24.32-1.84q11.18-.87,22.32-1.89c1.13-.1,2.6.51,2.67-1.83C849.88,664.05,850.42,656.8,850.85,649.54Z" transform="translate(0 0.82)"/><path class="cls-2" d="M158.18,769.71a22.88,22.88,0,0,1,9.16,6.71,54.86,54.86,0,0,0,17.23,13.41,36.6,36.6,0,0,1,14.49,12.67c5.27,7.84,12.17,13.6,21.19,16.67a102.68,102.68,0,0,1,15.61,6.65c13.21,7.12,27,5.5,40.9,2.87,6-1.15,12.05-2.48,18.11-3.5,18.63-3.1,34.15,4.12,48.67,14.76,4.58,3.35,8.19,7.42,10,12.75,3.18,9.22,10.27,14.08,18.81,17.24A66.1,66.1,0,0,1,395,884.12a39.78,39.78,0,0,1,11,17c4.09,12.67,12.55,21.67,24.07,28q-212.82,0-425.65.08C1,929.17,0,928.69,0,924.91Q.22,802.53.11,680.15c18.59,1.63,32.84,9.9,41.39,26.94,2.84,5.65,5.9,11.2,8.51,17,6.79,15,19.3,21,34.74,21.83,7,.39,13.8,1.28,19.62,4.89,10.89,6.77,22.92,9.51,35.25,11.59ZM141,887.09c0,1.66-.05,3.33,0,5,.1,3,1.85,4.73,4.67,4.85,3,.13,4.4-1.91,4.56-4.8a23.59,23.59,0,0,1,.18-3.48c3.5-16.26-6.67-23-19.23-24.16-8-.76-10.66-4.07-12.39-10.62a21.56,21.56,0,0,0-15.72-16c-5.07-1.41-7.54-4.31-8.71-9a28.57,28.57,0,0,0-1.94-5.65c-2.71-5.49-6.62-9.57-13.13-10.21-2.54-.24-4.72.41-5.53,3.15a4.28,4.28,0,0,0,2.54,5.39c6,2.2,7.87,7.16,9.35,12.61s4.22,10.17,9.95,11.54c8.42,2,12.93,7,15.19,15.23,2.12,7.76,6.71,12.46,16.06,12.68C138.14,873.87,141.15,877.7,141,887.09Z" transform="translate(0 0.82)"/><path class="cls-6" d="M2998.91,15.33c-9,.87-17.47,4-26,6.55-36.14,10.68-67.73,29.69-97.53,52.41-48.09,36.68-97.92,71.05-149.79,102.05-70.71,42.27-144.29,78.9-223.06,104.41-47.67,15.44-94.86,32.32-140.4,53.51-40.33,18.76-75.48,44.07-103.8,78.65-12.86,15.71-26.19,31-39.82,46.11-25.3,28-56.51,45.62-93.09,54.08C2078.32,524,2032.29,538.47,1986,552a1035.67,1035.67,0,0,1-115.61,26.9c-19.32,3.31-38.9,4.83-58.44,6.53a508.05,508.05,0,0,0-93,17.17c-24,6.72-48.48,9.61-73.45,9.87-25.63.26-51.25,1.4-76.89,1.93-21.94.46-43.42-3.11-65-5.68-23.81-2.83-47.63-4.86-71.65-2.71a576.48,576.48,0,0,1-74.34,1.93c-16.29-.64-32.54-1.88-48.82-2.62-30.38-1.37-60.55,1.24-90.46,6.15-30.16,5-59.51,2.12-88.88-5.59-32-8.38-62.7-20.17-93.59-31.67-25-9.3-50.64-16.63-77.21-19.69-18.87-2.18-37.87-1.92-56.85-.57-13.44.95-26.9,1.54-40.35,2.32-4.65.27-9.29.64-13.93.94-24.56,1.6-48.17-2.93-71.91-9.07-34.79-9-65.74-25.23-95.14-45.16-19.57-13.27-39.77-25.59-58.95-39.45-16-11.53-29.8-25.6-45.22-37.75-28.14-22.17-57-43.22-88.64-60.39-13.76-7.49-26-17.41-39.27-25.71-50.15-31.35-101-61.42-154.87-86.12-26.64-12.2-52.67-25.74-79.59-37.37-36.39-15.72-72.95-31-111.66-40.28a281.29,281.29,0,0,0-53.73-7.66c-16.13-.69-32.25-1.3-48.38-2v-10c19.77,1.42,39.61,1,59.39,2.76,30.05,2.73,59.06,9.69,87.41,19.75,49.83,17.68,97.45,40.37,145.21,62.89a1318.16,1318.16,0,0,1,153.81,84.94c31.61,20.43,64.42,39,95.28,60.47C562,401.56,582.39,416.55,601,433.86c22.56,21,48.78,37,74.38,53.86,15.3,10.06,30.48,20.34,46.47,29.26,17,9.46,35.27,15.55,54,20.63,16.71,4.53,33.3,9.48,50.81,10A286.65,286.65,0,0,0,870,545.71q101.7-12.44,195.21,28.93c18.77,8.25,38.54,13.75,58.29,19.18a5.9,5.9,0,0,0,1.46,0c.57-1.92-.72-3.22-1.37-4.62a51,51,0,0,1-3.89-31.73q7.23-38.19,40.73-58.32c24.83-14.92,51.87-22.29,80.63-23.56,19.67-.86,39.26-.25,58.75,3.23,34.13,6.09,49.15,27.38,51.79,61.39,1.57,20.18-4,39-17.68,54.67a11.31,11.31,0,0,0-1,1.78c7.84.46,15.38,1.11,22.93,1.3a716.34,716.34,0,0,0,82.86-2.47c18.29-1.67,36.71-.42,54.83,2.22,39.52,5.77,79.11,8.23,119,5.78,13.79-.85,27.64-1.17,41.46-1.21,19.64-.07,38.77-3.31,57.71-8.1,16.77-4.25,33.46-8.85,51-12.13a131.81,131.81,0,0,1-10-17.94c-20.95-45.78,7.84-79.49,44.42-86.91,14.49-2.94,29-3.51,43.75-2.94,21.15.82,42.28,1.7,63.25,4.84a49.49,49.49,0,0,1,12.1,3c19.67,8.3,37.92,18.72,51.85,35.43,5.33,6.38,9.21,13.53,9.94,22,.32,3.72,1.55,4.17,5,3.16,33.07-9.67,65.84-20.38,99.22-29,16.92-4.36,33.85-8.68,50.75-13.1,29.49-7.73,54.24-23.29,75.14-45.34,13.3-14,25.87-28.69,38.07-43.65,26.13-32,56.77-58.43,93.75-77.34,31.95-16.33,65.12-29.67,98.76-42,35.65-13,71.91-24.33,107.42-37.76a875.75,875.75,0,0,0,105.59-48.63c20.22-10.9,40.95-20.87,60.53-32.93,45.83-28.2,90.43-58.25,134.16-89.6,18.28-13.1,35.83-27.21,54.68-39.51,28.95-18.9,61-30.3,94.32-38.57,1.13-.29,2.25-.62,3.38-.93ZM1330.27,508.23c-6.09-10.22-15.33-14.14-25-16.76-14.19-3.85-28.79-4.8-43.51-5.18-34.13-.9-66.44,4.8-96.33,22.48-26.84,15.89-46.79,54.54-28.52,84.29,2.24,3.66,4.21,5.66,8.34,6.42,4.9.89,8.13,2.68,11.36-4.4,8.11-17.78,21.82-31.21,38.27-41.83,13.93-9,29.78-14,44.33-21.76,15.17-8,30.77-15.06,47.64-19A183.83,183.83,0,0,1,1330.27,508.23Zm-165.81,94.62c1,.15,1.59.25,2.19.33,19.54,2.61,38.88.21,58.17-2.58,27.24-3.93,54.59-7,82.1-4.82,8.94.69,14.38-1.9,19.57-8.8,14.79-19.66,17.8-41,10.94-64.24-.74-2.52-1.81-3.72-4.8-3.77-28.34-.55-55.28,4.83-80.47,18.18a9.15,9.15,0,0,0-4.67,5.36,42.31,42.31,0,0,1-12.84,18.14c-12.35,10.26-26.68,13-42.2,11-1.86-.24-3.37-.66-5.06.8C1177.68,580.88,1170.62,591.21,1164.46,602.85Zm780.21-50.1c-2.79-2.75-5.68-4.07-8.46-5.46-25.84-13-53.61-18.51-82.12-21.16-5.46-.51-11-1.25-14.54,4.51a7.31,7.31,0,0,1-2.4,1.75c-20.41,13.23-49.42,11.06-67.42-5.3-2-1.81-3.5-2.51-5.49-1-2.69,2.09-8.18,1-7.7,6.76,1.3,15.37,5.77,29.58,15.09,42.08,2.77,3.71,6.15,4.94,10.81,4.09,14.41-2.62,29-3.61,43.61-4.75C1866.17,571.18,1905.23,562.51,1944.67,552.75Zm23-8.94c-.13-7.35-3.13-13.52-7.64-19.11-11.41-14.12-26.83-22.72-42.7-30.48-12.23-6-25.94-5.19-39-7.11-10.08-1.49-20.26-.87-30.39-1.53-17.8-1.15-35.61-1.31-53,3.58-12.76,3.58-23.5,10-30.84,21.41-.64,1-1.55,2.07-.75,3.16.62.85,1.88.52,2.82.24,3.42-1,6.94-.91,10.42-.86,29.45.49,58.94.11,88.27,3.18,23.59,2.47,46.53,7.9,68.38,17.42a114.45,114.45,0,0,1,23.68,13.77c3.19,2.43,6,.61,8.91-.16C1967.52,546.85,1967.84,545.4,1967.65,543.81Zm-160.12-14.15c-6.5-2.24-12.13-8.12-20-4.71C1793.93,528.27,1800.31,530.86,1807.53,529.66ZM1203.8,560.4c4,1,7.33.16,10.61-.93,1.12-.37,3.49-.07,2.53-2.43-.73-1.77-2.33-2.22-4.13-1.3Z" transform="translate(0 0.82)"/><path class="cls-5" d="M1577,929.09c2.75-18.16,2.31-36.47,2.28-54.74,0-4,.63-5.66,5-5.47,4.8.21,9.63-.32,14.45-.58,1.89-.1,3.2.18,3.17,2.58-.22,19.47,2.16,38.8,3.12,58.21Z" transform="translate(0 0.82)"/><path class="cls-5" d="M2998.91,521.19a35.49,35.49,0,0,0-15,12c-3.44,4.72-7.68,6.31-13.84,5.43-11-1.58-20.63,2.5-28.34,10.49-2.45,2.54-4.68,5.56-8.2,2.62s-1.81-6.54.73-9.19c9.91-10.29,22.08-15.24,36.37-14,3,.26,4.58-.34,6.29-2.54a48.91,48.91,0,0,1,22-15.81Z" transform="translate(0 0.82)"/><path class="cls-7" d="M1563,576.94c-26.92,1.06-53.84,0-80-6.13-24.09-5.65-47.56-14.6-65.91-31.83-11.56-10.86-16.11-25.79-12.62-42.23,4-19,15.48-33.36,29-46.08,20.42-19.15,45.4-28.86,73.09-29.16,41-.44,82,.93,122.83,3.87,10.83.78,21.29,3.7,31.45,7.66a50.51,50.51,0,0,1,23.89,19c9.93,14.57,17.68,30.09,16.41,48.26-2,28.35-18,47.73-41.89,61-16.46,9.14-34.79,12.39-53.31,13.84C1591.71,576.25,1577.36,576.38,1563,576.94ZM1434,466.16c1.45.61,2.55-.34,3.72-.89a94.18,94.18,0,0,1,41.61-9c39,.5,78,.62,117,1.23a233.14,233.14,0,0,1,42.68,4.4c15.47,3.13,30.74,6.91,46.64,13.51-6.26-12.45-11.85-23.71-23.83-29.89-12.51-6.45-26.1-9.44-40-10-35.77-1.54-71.58-2.44-107.38-3.47a108.08,108.08,0,0,0-41.14,7c-15.37,5.74-29,14-39.24,27.2-.2.16-1,.09-.23.6C1433.86,466.61,1433.91,466.38,1434,466.16Zm131,99.34c10.23-.54,26.08.51,41.86-1.34,17.29-2,34.46-4.75,49.69-13.79,18-10.68,30.93-25.66,33.35-47.14,1.57-13.81,1.79-12.35-10.28-18.16-14.2-6.83-29.6-10.07-45-12.8-34.36-6.06-69.12-3.66-103.73-4.42a3.07,3.07,0,0,0-3.2,1.72c-4,7.15-10.43,11.67-17.87,14.51-21.61,8.24-41.55,4.44-59.82-9.16-1.85-1.38-3-1.92-5.17-1-9.9,4.32-18,11.33-26.63,17.54-1.29.92-1.62,2.46-2.06,3.9a35.91,35.91,0,0,0,12.7,39.27c16.51,12.41,35.3,20.16,55.12,25C1508.66,565.62,1534,566.81,1565,565.5Zm-58.74-91.61c-7.18-1.9-13-4.56-19.76-3.73a18.94,18.94,0,0,1-8.73-1.59c-5.45-2.14-10.59-.62-17,.25C1475.36,478.56,1489.8,479.42,1506.22,473.89Z" transform="translate(0 0.82)"/><path class="cls-8" d="M574.29,759.15c34.57-.24,71.72.65,108.83,2.3,33.25,1.48,66.52,3.23,99.43,8.69,6.73,1.12,13.45,2.33,19.78,5.05,3.55,1.53,6.59,3.73,6.57,7.95s-3,6.46-6.6,7.92c-10.44,4.27-21.55,5.65-32.59,7-45.51,5.57-91.27,7.14-137.06,8.33-48,1.24-95.95.92-143.91-.48-39.12-1.15-78.21-2.94-117.07-7.91-9.4-1.2-18.8-2.57-27.88-5.48a50.9,50.9,0,0,1-5.53-2.26c-2.94-1.36-4.92-3.67-5-6.9-.11-3.48,2-5.87,5-7.39,8.35-4.13,17.46-5.44,26.49-6.72,35.49-5,71.23-6.85,107-8.24C505.08,759.72,538.38,759,574.29,759.15Z" transform="translate(0 0.82)"/><path class="cls-9" d="M433.65,919a24.17,24.17,0,0,1-12.8-10.83A40.69,40.69,0,0,1,433.65,919Z" transform="translate(0 0.82)"/><path class="cls-10" d="M2777.52,757.73c8.79-11.48,20.62-18.67,34.8-18.75,11.39-.08,19.38-8,29.78-9.5,1.54-.23,2.42-1.6,3.15-3,2.93-5.63,7.83-8.57,13.92-9.36,4.14-.54,5.2-2.45,4.48-6.36-1.73-9.43.59-18.54,2.94-27.53,1.39-5.32,5.65-7,11-5.29,5.74,1.84,9.54,6,12.53,10.91a38.84,38.84,0,0,1,5.88,21.37c-.08,4.3-.29,8.62.75,12.92.75,3.09.37,6.32-3.61,7-3.8.61-5.64-2.16-6-5.27-.72-5.77-.84-11.61-1.22-17.41a26.48,26.48,0,0,0-6.83-16.75c-2.24-2.44-3.71-2.41-4.44,1.31-1.31,6.72-2.33,13.38-1.07,20.26,1.66,9.15-1,12.7-10.09,14-4.69.64-8.55,2.2-10.7,7-1.62,3.58-5.18,4.93-8.74,6.12-5.82,1.94-11.91,3.34-16.54,7.81-4.87,4.69-5.36,7.25-1.92,13,3.32,5.58,6.87,11,10.34,16.5a29.11,29.11,0,0,1,3.73,9.75c2.14,10.21-1.69,17.08-11.23,21.1a60.32,60.32,0,0,0-8.74,4.79c-12,7.61-22.62,5.17-30-7-.6-1-1.21-2-1.72-3-1.89-3.86-4-6.16-8.6-2.91-2.64,1.86-6.08,1.27-9.19.29-4.37-1.37-7.89-1-10.47,3.62a19.34,19.34,0,0,1-15.08,10.27c-2.74.36-5.37,1.74-8,2.8-5.85,2.37-11.3,2.13-16.41-2-1.57-1.26-3.26-3.49-5.64-1.85s-1.1,4-.62,6c1.19,4.92.85,9.92,1,14.9,0,.83.19,2.07-.26,2.42-5.93,4.72-4.12,10-1.85,15.8,1.18,3-.57,6.37-2.83,8.67-2.76,2.8-2.27,5.2-.09,7.86s4.52,5.34,6.58,8.15c4.4,6,6.49,12.6,3,19.62-3.59,7.19-9.74,10.58-17.9,10.43a90.21,90.21,0,0,1-15.4-1.23c-8.75-1.68-14.21-7.53-18.51-14.76-2.72-4.58-5.43-9.17-7.89-13.89-1.28-2.46-2.66-2.95-5.16-1.84-2.87,1.29-5.89,1.16-7.14-2.19a5.33,5.33,0,0,1,3.68-7.18c3.95-1.14,3.82-3.52,3.92-6.68.28-9,2.77-17.21,11.3-22,3.34-1.87,2.27-3.13.28-5.08-14.73-14.39-25-31.92-34.36-50a60.35,60.35,0,0,1-3.66-9.27c-3-9.24-1.8-17.47,3.72-26,18.64-28.71,45.43-46.21,76.72-58,1.87-.7,3.75-1.4,5.62-2.08,10.33-3.73,18.68-1.52,26.54,6.61,16.28,16.83,26.59,36.83,33.73,58.78.56,1.73,1.16,3.46,1.78,5.18C2776.83,757.07,2777.13,757.28,2777.52,757.73Zm-82.59,11.4-1,1c-.39.62-.78,1.24-1.18,1.86-2.12.61-3.17,2.2-3.84,4.16l-.38.49.47-.41a5.64,5.64,0,0,0,3.92-4.12c.87-.36,1-1.12,1.06-1.93C2694.3,769.82,2694.61,769.47,2694.93,769.13Zm24.59,32c6,7.22,12.4,6.59,20.51,3.63,6.1-2.22,10.72-4.63,13.64-10.33,1.77-3.48,4.34-5.91,8.68-5.44a2.43,2.43,0,0,0,2.84-1.35c4-7.55,6.55-14.49,3.45-23.84-6.82-20.55-14.25-40.53-28.44-57.3-12.49-14.77-12.6-14.77-30.78-7.71-.47.18-1,.32-1.41.5-26.38,10.53-49,25.73-65.56,49.56-6,8.67-6.87,16.52-2.55,25.54,8.4,17.5,18.54,33.84,31.68,48.26,6,6.63,12.24,12.58,21.35,15,4.82,1.26,11.54-2.61,12-7.71.55-6.36-1.93-12.5-1-18.89.39-2.81-1.68-1.74-3-1.26a56.8,56.8,0,0,1-13.1,3c-10.71,1.29-17.26-4.71-17.07-15.42a41.62,41.62,0,0,1,2.69-13.64c10.12-27.66,49.32-49.12,75.53-35.61,8.88,4.59,12.19,9.75,7.92,18.83-2.36,5-5.83,9.28-9.57,13.34C2739.3,789,2729.39,795.11,2719.52,801.15Zm55.77-11.54c2.81-1.48,5.33-3,6.31-6.09a4.3,4.3,0,0,1,4.93-3.31,4.55,4.55,0,0,1,4.2,4.32c.28,8,6.64,12.75,9.78,19.2a4.47,4.47,0,0,0,5.57,2.31c2.25-.94.4-3.18.49-4.83,0-1-.44-2-.4-3,.16-3,1.11-5.85,4.61-6.1s5.13,2.13,5.15,5.37c0,3.93,1.35,4.69,4.76,2.67,1.91-1.14,3.71-1.92,3.76-4.63a3.86,3.86,0,0,1,2.92-3.7c3.43-.86,2.78-3.15,2.09-5.43-1.73-5.67-5.34-10.3-8.6-15.1-4.69-6.92-8.57-14.08-7.45-23.11-13.09,2.42-24.29,7-29.79,19.65C2780.56,774.94,2780.06,783,2775.29,789.61Zm-45-35.49c-6.68-.28-12.69,1.49-18.5,4.15a4.65,4.65,0,0,0-2.92,3.51c-3.69,14.54-12.92,24.77-26,31.54-2.7,1.39-2.35,3.3-2.62,5.23-.31,2.33,1.09,3.78,3.33,4.23a14.33,14.33,0,0,0,6.91-.33c21.05-6.17,39.34-16.76,53.65-33.63a41.92,41.92,0,0,0,4.14-6.78c1-1.76.6-3.41-1.38-4C2741.36,756.31,2736.15,753.26,2730.26,754.12ZM2688,895a89.13,89.13,0,0,1-3.95-8.32c-1-2.82-1-5.87,2.33-7.24s5.56.62,6.58,3.57c1.69,4.91,6.06,7.9,8.33,12.35.85,1.66,2.07,1.19,3.41.85,6.14-1.58,8.3-7.29,4.67-12.93-4-6.19-9.74-10.86-14.39-16.47-5-6-4-8.44,3.64-9.84a5.24,5.24,0,0,0,4.06-4c.67-2.23-1.44-2.79-3-3.11-5.92-1.19-11.25-4-16.93-5.88-8.42-2.72-15,1.06-17.15,9.52a18.91,18.91,0,0,0-.14,9.39c2.66,10.54,8.55,19.41,15,27.95A10.06,10.06,0,0,0,2688,895Z" transform="translate(0 0.82)"/><path class="cls-5" d="M2550.93,761.91c4.56-.22,8.14,2,11.59,4.31,1.91,1.3,3.06,3.31,1.73,5.61s-3.62,3.85-6.29,2.63c-4-1.85-7.83-3.38-12.3-1.14-5.44,2.72-9.62,6.48-11.86,12.21-1.83,4.68-5.23,8.11-9.16,11-4.83,3.49-7,8.28-7.63,14a22.13,22.13,0,0,1-.52,3.93c-.83,2.81-2.58,4.92-5.74,4.39-2.89-.49-3.92-2.81-3.85-5.61.25-9.37,2.86-17.82,10.61-23.71a30.84,30.84,0,0,0,8.91-11.11C2531.48,768.33,2540.15,763.44,2550.93,761.91Z" transform="translate(0 0.82)"/><path class="cls-5" d="M1579.38,812.51c0-7.64.09-15.29,0-22.94-.06-3.29,1.25-4.51,4.53-5,11.39-1.58,11.19-1.69,12.13,9.73,1.1,13.41,2.46,26.8,3.94,40.17.45,4.16-1,5.24-4.91,4.75a41.56,41.56,0,0,0-10-.27c-4.86.56-6.8-.78-6.44-6,.47-6.78.12-13.62.12-20.44Z" transform="translate(0 0.82)"/><path class="cls-7" d="M1581.52,750c0-8.66.1-17.31,0-26-.08-5.3,3.79-4.41,6.89-4.67,3.92-.33,2.45,2.83,2.57,4.57,1.09,15.27,1.88,30.57,3.1,45.83.32,4-.89,5.35-4.79,5.92-9.19,1.34-9.15,1.55-9.1-7.71,0-6,0-12,0-18Z" transform="translate(0 0.82)"/><path class="cls-9" d="M850.85,649.54c-.43,7.26-1,14.51-1.2,21.78-.07,2.34-1.54,1.73-2.67,1.83q-11.16,1-22.32,1.89c-8.1.64-16.22,1.11-24.32,1.84-2.49.22-3.39-.56-3.16-3,1.61-16.85,3.35-33.7,3-50.68-.05-2.64,1.39-3.71,3.91-2.27,3.61,2,7.16,4.08,9.65,7.68,4,5.81,6.78,5.87,10.78.19,1.36-1.92,2.51-1,3.82-.67,3,.63,7.12-1.44,9,1.29,1.53,2.29-1.2,5.51-1.77,8.38-.63,3.14-.19,5.71,2.43,7.5s5,.67,7.38-.9c1.47-1,2.55-3.72,4.27-2.87,2.16,1.07,1,3.91,1.21,6A19,19,0,0,1,850.85,649.54Z" transform="translate(0 0.82)"/><path class="cls-3" d="M158.18,769.71l-18.56-7.35C146.42,763.27,153.26,764.05,158.18,769.71Z" transform="translate(0 0.82)"/><path class="cls-5" d="M141,887.09c.13-9.39-2.88-13.22-14.14-13.5-9.35-.22-13.94-4.92-16.06-12.68-2.26-8.25-6.77-13.23-15.19-15.23-5.73-1.37-8.48-6.14-9.95-11.54s-3.31-10.41-9.35-12.61a4.28,4.28,0,0,1-2.54-5.39c.81-2.74,3-3.39,5.53-3.15,6.51.64,10.42,4.72,13.13,10.21a28.57,28.57,0,0,1,1.94,5.65c1.17,4.73,3.64,7.63,8.71,9a21.56,21.56,0,0,1,15.72,16c1.73,6.55,4.44,9.86,12.39,10.62,12.56,1.2,22.73,7.9,19.23,24.16a23.59,23.59,0,0,0-.18,3.48c-.16,2.89-1.52,4.93-4.56,4.8-2.82-.12-4.57-1.85-4.67-4.85C141,890.42,141,888.75,141,887.09Z" transform="translate(0 0.82)"/><path class="cls-11" d="M1330.27,508.23a183.83,183.83,0,0,0-43.41,4.31c-16.87,3.89-32.47,10.9-47.64,19-14.55,7.71-30.4,12.76-44.33,21.76-16.45,10.62-30.16,24-38.27,41.83-3.23,7.08-6.46,5.29-11.36,4.4-4.13-.76-6.1-2.76-8.34-6.42-18.27-29.75,1.68-68.4,28.52-84.29,29.89-17.68,62.2-23.38,96.33-22.48,14.72.38,29.32,1.33,43.51,5.18C1314.94,494.09,1324.18,498,1330.27,508.23Z" transform="translate(0 0.82)"/><path class="cls-12" d="M1164.46,602.85c6.16-11.64,13.22-22,22.93-30.36,1.69-1.46,3.2-1,5.06-.8,15.52,1.95,29.85-.78,42.2-11a42.31,42.31,0,0,0,12.84-18.14,9.15,9.15,0,0,1,4.67-5.36c25.19-13.35,52.13-18.73,80.47-18.18,3,0,4.06,1.25,4.8,3.77,6.86,23.21,3.85,44.58-10.94,64.24-5.19,6.9-10.63,9.49-19.57,8.8-27.51-2.13-54.86.89-82.1,4.82-19.29,2.79-38.63,5.19-58.17,2.58C1166.05,603.1,1165.46,603,1164.46,602.85Z" transform="translate(0 0.82)"/><path class="cls-12" d="M1944.67,552.75c-39.44,9.76-78.5,18.43-118.62,21.55-14.57,1.14-29.2,2.13-43.61,4.75-4.66.85-8-.38-10.81-4.09-9.32-12.5-13.79-26.71-15.09-42.08-.48-5.76,5-4.67,7.7-6.76,2-1.54,3.5-.84,5.49,1,18,16.36,47,18.53,67.42,5.3a7.31,7.31,0,0,0,2.4-1.75c3.57-5.76,9.08-5,14.54-4.51,28.51,2.65,56.28,8.19,82.12,21.16C1939,548.68,1941.88,550,1944.67,552.75Z" transform="translate(0 0.82)"/><path class="cls-9" d="M1967.65,543.81c.19,1.59-.13,3-1.93,3.51-2.94.77-5.72,2.59-8.91.16a114.45,114.45,0,0,0-23.68-13.77c-21.85-9.52-44.79-15-68.38-17.42-29.33-3.07-58.82-2.69-88.27-3.18-3.48-.05-7-.16-10.42.86-.94.28-2.2.61-2.82-.24-.8-1.09.11-2.18.75-3.16,7.34-11.38,18.08-17.83,30.84-21.41,17.43-4.89,35.24-4.73,53-3.58,10.13.66,20.31,0,30.39,1.53,13.11,1.92,26.82,1.13,39,7.11,15.87,7.76,31.29,16.36,42.7,30.48C1964.52,530.29,1967.52,536.46,1967.65,543.81Z" transform="translate(0 0.82)"/><path class="cls-12" d="M1807.53,529.66c-7.22,1.2-13.6-1.39-20-4.71C1795.4,521.54,1801,527.42,1807.53,529.66Z" transform="translate(0 0.82)"/><path class="cls-12" d="M1203.8,560.4l9-4.66c1.8-.92,3.4-.47,4.13,1.3,1,2.36-1.41,2.06-2.53,2.43C1211.13,560.56,1207.78,561.4,1203.8,560.4Z" transform="translate(0 0.82)"/><path class="cls-13" d="M1565,565.5c-31,1.31-56.3.12-81-5.87-19.82-4.8-38.61-12.55-55.12-25a35.91,35.91,0,0,1-12.7-39.27c.44-1.44.77-3,2.06-3.9,8.63-6.21,16.73-13.22,26.63-17.54,2.21-1,3.32-.42,5.17,1,18.27,13.6,38.21,17.4,59.82,9.16,7.44-2.84,13.84-7.36,17.87-14.51a3.07,3.07,0,0,1,3.2-1.72c34.61.76,69.37-1.64,103.73,4.42,15.41,2.73,30.81,6,45,12.8,12.07,5.81,11.85,4.35,10.28,18.16-2.42,21.48-15.35,36.46-33.35,47.14-15.23,9-32.4,11.77-49.69,13.79C1591,566,1575.19,565,1565,565.5Z" transform="translate(0 0.82)"/><path class="cls-14" d="M1434.05,466.23c10.2-13.22,23.87-21.46,39.24-27.2a108.08,108.08,0,0,1,41.14-7c35.8,1,71.61,1.93,107.38,3.47,13.85.6,27.44,3.59,40,10,12,6.18,17.57,17.44,23.83,29.89-15.9-6.6-31.17-10.38-46.64-13.51a233.14,233.14,0,0,0-42.68-4.4c-39-.61-78-.73-117-1.23a94.18,94.18,0,0,0-41.61,9c-1.17.55-2.27,1.5-3.72.89Z" transform="translate(0 0.82)"/><path class="cls-12" d="M1506.22,473.89c-16.42,5.53-30.86,4.67-45.44-5.07,6.36-.87,11.5-2.39,17-.25a18.94,18.94,0,0,0,8.73,1.59C1493.17,469.33,1499,472,1506.22,473.89Z" transform="translate(0 0.82)"/><path class="cls-14" d="M1434,466.16c0,.22-.1.45-.14.67-.74-.51,0-.44.23-.6Z" transform="translate(0 0.82)"/><path class="cls-14" d="M2719.52,801.15c9.87-6,19.78-12.17,27.79-20.84,3.74-4.06,7.21-8.31,9.57-13.34,4.27-9.08,1-14.24-7.92-18.83-26.21-13.51-65.41,8-75.53,35.61a41.62,41.62,0,0,0-2.69,13.64c-.19,10.71,6.36,16.71,17.07,15.42a56.8,56.8,0,0,0,13.1-3c1.28-.48,3.35-1.55,3,1.26-.89,6.39,1.59,12.53,1,18.89-.44,5.1-7.16,9-12,7.71-9.11-2.38-15.31-8.33-21.35-15-13.14-14.42-23.28-30.76-31.68-48.26-4.32-9-3.47-16.87,2.55-25.54,16.55-23.83,39.18-39,65.56-49.56.46-.18.94-.32,1.41-.5,18.18-7.06,18.29-7.06,30.78,7.71,14.19,16.77,21.62,36.75,28.44,57.3,3.1,9.35.53,16.29-3.45,23.84a2.43,2.43,0,0,1-2.84,1.35c-4.34-.47-6.91,2-8.68,5.44-2.92,5.7-7.54,8.11-13.64,10.33C2731.92,807.74,2725.5,808.37,2719.52,801.15Z" transform="translate(0 0.82)"/><path class="cls-14" d="M2775.29,789.61c4.77-6.6,5.27-14.67,8.33-21.73,5.5-12.69,16.7-17.23,29.79-19.65-1.12,9,2.76,16.19,7.45,23.11,3.26,4.8,6.87,9.43,8.6,15.1.69,2.28,1.34,4.57-2.09,5.43a3.86,3.86,0,0,0-2.92,3.7c0,2.71-1.85,3.49-3.76,4.63-3.41,2-4.72,1.26-4.76-2.67,0-3.24-1.66-5.62-5.15-5.37s-4.45,3.06-4.61,6.1c0,1,.45,2,.4,3-.09,1.65,1.76,3.89-.49,4.83a4.47,4.47,0,0,1-5.57-2.31c-3.14-6.45-9.5-11.23-9.78-19.2a4.55,4.55,0,0,0-4.2-4.32,4.3,4.3,0,0,0-4.93,3.31C2780.62,786.65,2778.1,788.13,2775.29,789.61Z" transform="translate(0 0.82)"/><path class="cls-12" d="M2730.26,754.12c5.89-.86,11.1,2.19,16.62,3.9,2,.61,2.35,2.26,1.38,4a41.92,41.92,0,0,1-4.14,6.78c-14.31,16.87-32.6,27.46-53.65,33.63a14.33,14.33,0,0,1-6.91.33c-2.24-.45-3.64-1.9-3.33-4.23.27-1.93-.08-3.84,2.62-5.23,13.07-6.77,22.3-17,26-31.54a4.65,4.65,0,0,1,2.92-3.51C2717.57,755.61,2723.58,753.84,2730.26,754.12Z" transform="translate(0 0.82)"/><path class="cls-14" d="M2688,895a10.06,10.06,0,0,1-7.6-4.11c-6.4-8.54-12.29-17.41-15-27.95a18.91,18.91,0,0,1,.14-9.39c2.16-8.46,8.73-12.24,17.15-9.52,5.68,1.83,11,4.69,16.93,5.88,1.57.32,3.68.88,3,3.11a5.24,5.24,0,0,1-4.06,4c-7.65,1.4-8.62,3.82-3.64,9.84,4.65,5.61,10.41,10.28,14.39,16.47,3.63,5.64,1.47,11.35-4.67,12.93-1.34.34-2.56.81-3.41-.85-2.27-4.45-6.64-7.44-8.33-12.35-1-2.95-3.24-4.93-6.58-3.57s-3.32,4.42-2.33,7.24A89.13,89.13,0,0,0,2688,895Z" transform="translate(0 0.82)"/><path class="cls-9" d="M2692.92,772.09a5.64,5.64,0,0,1-3.92,4.13l-.09-.08c.67-2,1.72-3.55,3.84-4.16Z" transform="translate(0 0.82)"/><path class="cls-9" d="M2692.75,772c.4-.62.79-1.24,1.18-1.86l.05,0c-.05.81-.19,1.57-1.06,1.92Z" transform="translate(0 0.82)"/><path class="cls-9" d="M2694.93,769.13c-.32.34-.63.69-.95,1l-.05,0,1-1Z" transform="translate(0 0.82)"/><path class="cls-9" d="M2689,776.22l-.47.41.38-.49Z" transform="translate(0 0.82)"/></svg>