<svg id="Layer_1" data-name="Layer 1" xmlns="http://www.w3.org/2000/svg" viewBox="0 0 375.82 500"><defs><style>.cls-1{fill:#fefefe;}.cls-2{fill:#040303;}.cls-3{fill:#989898;}.cls-4{fill:#329732;}.cls-5{fill:#65cafd;}.cls-6{fill:#65c9fb;}.cls-7{fill:#c86400;}.cls-8{fill:#ca0000;}.cls-9{fill:#646464;}.cls-10{fill:#fbfb00;}.cls-11{fill:#969696;}.cls-12{fill:#1234e1;}.cls-13{fill:#f8f8f8;}.cls-14{fill:#f6959e;}.cls-15{fill:#040506;}</style></defs><path class="cls-1" d="M365.56,236.5q0,123.93,0,247.85c0,1.76-.39,2.15-2.15,2.15q-185.76-.06-371.52,0c-1.75,0-2.15-.39-2.15-2.15q.08-247.85,0-495.69c0-1.76.4-2.16,2.15-2.16q185.76.08,371.52,0c1.76,0,2.16.4,2.15,2.16Q365.53,112.57,365.56,236.5Zm-18.65,2.88a312.15,312.15,0,0,0-6.56-64.95c-5.68-27.47-14.89-53.64-28.56-78.17s-30.92-46-53.57-62.9c-21-15.63-44.41-25.22-70.67-27a121.62,121.62,0,0,0-48.82,6.69C110.37,23,87.78,40.93,68.91,63.9,49.34,87.71,35.76,114.77,26.34,144a304.24,304.24,0,0,0-14.12,78.41,332.9,332.9,0,0,0,1.1,49.33,303,303,0,0,0,7.86,44.93c8.69,34.05,22.6,65.65,44.15,93.59,15.12,19.61,33.11,36,55.19,47.45,24.72,12.85,50.89,17.62,78.49,13.17a131.45,131.45,0,0,0,51.61-20.46,164.87,164.87,0,0,0,21.49-16.85c21-19.51,36.68-42.84,48.55-68.77C338.88,325,346.82,283,346.91,239.38Z" transform="translate(10.22 13.5)"/><path class="cls-2" d="M346.91,239.38c-.09,43.63-8,85.63-26.25,125.42-11.87,25.93-27.55,49.26-48.55,68.77a164.87,164.87,0,0,1-21.49,16.85A131.45,131.45,0,0,1,199,470.88c-27.6,4.45-53.77-.32-78.49-13.17-22.08-11.47-40.07-27.84-55.19-47.45-21.55-27.94-35.46-59.54-44.15-93.59a303,303,0,0,1-7.86-44.93,332.9,332.9,0,0,1-1.1-49.33A304.24,304.24,0,0,1,26.34,144c9.42-29.23,23-56.29,42.57-80.1,18.87-23,41.46-40.89,69.82-50.83a121.62,121.62,0,0,1,48.82-6.69c26.26,1.76,49.66,11.35,70.67,27,22.65,16.86,39.91,38.37,53.57,62.9s22.88,50.7,28.56,78.17A312.15,312.15,0,0,1,346.91,239.38ZM82,421.85l.28.21-.17-.31c-.48-7.6-3.6-11.18-11.65-12.92C74.2,413.55,77.64,418.08,82,421.85ZM186.07,363a4.7,4.7,0,0,0,1.25-2.43c3.21-7.85,10.06-10.39,17.49-6.35a7.45,7.45,0,0,0,4.3.62,8.73,8.73,0,0,1,7.53,3.51,13,13,0,0,1,2.32,3.77c.42,1.11.84,1.16,1.86.57,7-4.06,14.43-4.54,22.14-2.82a2.15,2.15,0,0,0,2.59-.83,10.48,10.48,0,0,1,4.29-3.16,50.39,50.39,0,0,1,26.24-4.13,41,41,0,0,1,13.13,3.15,5.3,5.3,0,0,1,3.41,4.36,83.7,83.7,0,0,1,.22,24c-1.18,7.9-3.56,15.53-9.16,21.4-3.13,3.27-2.06,6.67-2.08,10.17,0,.94.58,1.27,1.36.48.38-.39.74-.8,1.09-1.22A227.25,227.25,0,0,0,318.78,357c15.43-36,22.5-73.65,23.29-112.61A311.66,311.66,0,0,0,339,195.16a288.87,288.87,0,0,0-13.68-56.76C314.56,108,299.33,80.26,277,56.79,251.55,30.05,221.3,12.92,183.64,11c-3.37-.17-3.37-.29-3.37,3.13q0,95.94,0,191.86c0,1.87.08,3.27,2.34,3.68a4.46,4.46,0,0,1,2.89,2.25c2.52,4.38,4.86,8.8,1.61,13.87a1.76,1.76,0,0,0-.19.89c0,3.85.19,7.63,2.68,10.92,1.73,2.3,3.63,4.54,4.59,7.31,3.65,10.45,3,18.35-7.37,23.85-7.11,3.78-14.72,2.56-21.32-2.45-4.39-3.33-6.19-7.85-5.71-13.34a32.12,32.12,0,0,1,6.73-17c3.15-4.11,2.42-8.48,1.4-12.62-1.16-4.69,1-11.51,5.51-13.43,1.92-.8,2.22-1.8,2.22-3.63q-.06-96.16,0-192.32a9.12,9.12,0,0,1,0-1.17c.21-1.48-.38-1.78-1.83-1.71a117.87,117.87,0,0,0-35,7.06c-26,9.44-46.83,25.94-64.46,46.84-17.47,20.7-30.19,44.15-39.52,69.5A297.86,297.86,0,0,0,17.32,218a324.81,324.81,0,0,0,.18,45.85,299,299,0,0,0,6.1,42,295.53,295.53,0,0,0,11.57,39.55c.65,1.74,1.16,1.91,2.89,1.16A47.71,47.71,0,0,1,54,343.12c8.08-.57,15.53,1.56,22.7,5.24A10.14,10.14,0,0,1,82.49,356,54.21,54.21,0,0,1,83,375.74c-.19,1.08-.57,2.33,1.36,2,3.48-.66,6.82.24,10.15,1,2.8.66,2.76.74,2.27-2.23a91.71,91.71,0,0,1-1.14-15.61c0-6.36,3.1-10.83,9-13.29,2.22-.93,4.51-1.7,6.81-2.45a42,42,0,0,1,33.09,2.52c4.83,2.42,7.28,6.32,8.2,11.49.69,3.85.17,7.72.52,11.94.71-1.84,1.21-3.37,1.9-4.82,2.05-4.34,5-7.52,10.22-7.72a3.15,3.15,0,0,0,2-1.11c3.83-3.37,7.52-3.79,12-1.47A15.29,15.29,0,0,1,186.07,363Zm34.16,21.91c-.09-5.16-.33-6.07-2.22-7.6a36.93,36.93,0,0,0-12.55-6.54c-8.89-2.74-17.91-2.81-27-1.32-6.7,1.1-13,3.26-18.42,7.45a5.1,5.1,0,0,0-2.36,4.67,111.24,111.24,0,0,0,1.54,15.79c2.23,12,8.11,21.8,18.33,28.76a16.69,16.69,0,0,0,5.88,2.76c6.34,1.33,12-.74,16.85-4.44C213.35,414.51,218.79,400.65,220.23,384.86ZM115.29,409.35a26.53,26.53,0,0,0-.5,2.88c-.37,6.23-3.64,10.32-9.31,12.53-4.55,1.78-7.08,5.07-8.19,9.74a2.31,2.31,0,0,0,.89,2.78c16.25,13,34.13,22.59,54.51,27.31,1.68.39,2-.1,2.26-1.44a30.57,30.57,0,0,1,5.2-12.64,3.48,3.48,0,0,0,.51-2c.4-4.17-1.26-7.59-3.77-10.73a22.8,22.8,0,0,0-10.54-7.07c-5.94-2.14-9.15-6.47-10.07-12.63-.23-1.54-.36-3.09-.66-4.62-.72-3.73-.77-3.78-4.27-2.63C125.85,412.66,120.6,411.77,115.29,409.35Zm32.45-39.2a60,60,0,0,0-.14-8.67c-.29-4.43-2.21-7.53-6.35-9.5-12.09-5.77-23.89-4.27-35.56,1.07a7.57,7.57,0,0,0-4.57,7.29,85.52,85.52,0,0,0,2,21.11c1.44,6.17,3.18,12.28,7.35,17.25,4.49,5.38,10.18,8.84,17.37,7.4s13.06-5.94,15.5-12.88A70.93,70.93,0,0,0,147.74,370.15Zm29.18,61.94c.17,1.22.27,2,.38,2.74.93,6.16-.79,10.7-5.87,13.32-6.56,3.37-9.78,8.82-11.24,15.73-.36,1.71,0,2.26,1.79,2.49a122.48,122.48,0,0,0,26,.93,141.14,141.14,0,0,0,22.67-3.87,1.62,1.62,0,0,0,1.41-2c-.25-2.24-.31-4.5-.57-6.74-.39-3.34-1.42-6.41-4.25-8.54-4.41-3.32-6.72-7.64-6.47-13.25.07-1.58-.53-2.1-2.14-1.32C191.68,435,184.57,435.85,176.92,432.09Zm102.9-31.24c-3.68-.61-6.39-2.33-7.18-6s1.16-6.44,3.95-8.63a16.37,16.37,0,0,1,9-3.66c1.77-.13,2.19-.82,2.34-2.36a90.65,90.65,0,0,0-.28-18.19,3.15,3.15,0,0,0-2.68-3.15,48.44,48.44,0,0,0-30.92.91,10,10,0,0,0-6.77,7.9c-1.9,8.54-1.34,17,.51,25.49.29,1.36.93,1.36,2.15,1.05A12.06,12.06,0,0,1,262,397.37c3.7,3.59,3.85,8.95-2.07,10.74a4,4,0,0,0-.62.35C266.07,411.55,274.59,408.44,279.82,400.85ZM216.31,447c-.21,4.7.93,8.52.88,12.41,0,1.73.49,1.93,2,1.37a137.75,137.75,0,0,0,23.38-11,2.64,2.64,0,0,0,1.46-2.39c.35-4.65.25-9.37,1.53-13.9a4.15,4.15,0,0,0-1.22-4.66,13.26,13.26,0,0,1-4.83-9.27c-.09-1-.47-1.41-1.68-1.11-2.47.63-5,1.33-7.59.79-1.49-.31-1.9.14-2,1.58a10.76,10.76,0,0,1-6.81,10c-2.53,1.11-3.7,3.21-4.25,5.77C216.45,440.26,216.69,444,216.31,447ZM42.85,363.75c.5-.41.74-.59,1-.8,7.07-6.7,19.44-4.62,25.06,1.85,2.78,3.18,2.64,7.15-.49,10a17.17,17.17,0,0,1-7.6,3.91,32.22,32.22,0,0,1-8.14.43c-1.18,0-1.92.11-1.08,1.5l6.74,11.2a1.37,1.37,0,0,0,1.26.84c5.37.09,9.89-1.51,13.16-6.06,7-9.67,6.43-20.27,4-31.12a2.94,2.94,0,0,0-1.65-1.86c-7.19-4-14.8-6-23.06-4.93a45.48,45.48,0,0,0-12.43,3c-1,.45-1.69.91-1.08,2.24C40,357.08,41.35,360.3,42.85,363.75ZM178.3,265.89a10.61,10.61,0,0,0,7.57-1.71c7.24-4.91,7.15-12.84,2.48-20.05-3.35-5.17-6.4-10.12-6-16.5.06-1.19-.44-1.66-1.66-1.62a34.52,34.52,0,0,1-4.66-.17c-3.27-.33-3.38-.35-2.95,2.93.49,3.75-.15,7-2.79,9.94a26.13,26.13,0,0,0-4.67,8.85c-2.94,8.32-.94,13.88,5.91,17.16A15.7,15.7,0,0,0,178.3,265.89ZM152,380.8c-.83,3.55-1.65,6.46-2.18,9.43-.82,4.58-2.47,8.89-5.9,11.92s-5.44,6-3.06,10.56a3.12,3.12,0,0,1,.12,1.16c.3,6.5,3.14,10.67,9.63,13,7.81,2.82,12.95,8.72,15.1,16.94.13.5,0,1.11.93,1,2.55-.42,5.48-4,5.34-6.63-.15-2.88-.45-5.76-.51-8.64a3,3,0,0,0-1.27-2.55c-9.25-7.17-13.78-17.07-16.19-28.17C152.81,393.07,152.74,387.22,152,380.8ZM71.13,398.09c0,4.87,0,4.86,4.16,6.48,5.14,2,9.41,4.91,10.91,10.64.27,1,.71,1.29,1.82,1.12a16.4,16.4,0,0,0,10.7-5.67,16.88,16.88,0,0,0,3.35-15.35c-.67-2.68-2.06-5.2-2.84-7.91-.2-.7-.3-1.41-1.24-1.79-5-2-10.16-3.41-15.69-2.37a2.61,2.61,0,0,0-2.22,1.64,24.56,24.56,0,0,1-6.65,8.65C71.78,394.9,70.26,396.07,71.13,398.09Zm178.38,47.06c.58-.3.92-.44,1.23-.64a169.27,169.27,0,0,0,26.35-22.64c1-1.09,1.58-1.88.16-3.14a4,4,0,0,1-1.05-3c0-1.27,0-2.54,0-4.1-5,2.75-9.76,4.36-15.1,3.15-1.61-.37-1.32.91-1.3,1.76a11.09,11.09,0,0,1-4.52,9.75,9.39,9.39,0,0,0-2.85,3.66C250.29,434.69,249.75,439.74,249.51,445.15Zm-16.44-31.27a14.52,14.52,0,0,0,12-6.91c1-1.61,1.46-3.14.28-5a19.5,19.5,0,0,1-1.71-4.09c-1.08-3.1-1-3.1-4-2.1-.37.12-.75.19-1.13.28-4.1.89-8.06.15-11.94-1.11-1.32-.43-2-.65-2.44,1.14a54.63,54.63,0,0,1-4,11.21,1.67,1.67,0,0,0,.57,2.36C223.89,412.43,227.54,413.92,233.07,413.88Zm-22,28.07c.07-.5.13-.79.15-1.09.51-6.78,2.33-12.68,9.33-15.69,2.54-1.09,2.24-3.76,2.42-6.13.15-2-1.4-2.14-2.46-2.88a20.88,20.88,0,0,1-2.28-1.63c-.94-.9-1.45-.7-2.09.37-1.86,3.16-3.79,6.47-6.72,8.61-3.91,2.87-3.63,6.52-3.29,10.52A9.12,9.12,0,0,0,211.06,442Zm24.06-64.72c-2.07-.38-4.17,0-5.26,2.88a5.08,5.08,0,0,1-2.93,2.59c-2.55,1.05-1,3.26-1.42,4.88-.34,1.24.88,1.63,1.82,2a20.62,20.62,0,0,0,9.86,1.28c1.54-.12,2.69-1.2,4-1.88.9-.48-.05-1.83-.06-2.8,0-1.48-.3-2.95-.38-4.42-.23-4.48-.21-4.49-4.83-4.56Zm4.11-5.09c1.2.23,1.9,0,2-1.46a15.72,15.72,0,0,1,.82-3.87c.49-1.47-.15-1.9-1.44-2.16a27.51,27.51,0,0,0-14.25,1.14,12,12,0,0,0-4.56,2.76c-1.18,1.14-1.58,2.89-.77,4s1.76,3.09,3.59,2.09A21.21,21.21,0,0,1,239.23,372.14ZM46,369.87c.4,2.56,1.92,3.48,4.19,3.59,1.31.06,2.62.4,3.94.45,3.56.13,7-.39,10-2.53,1.56-1.12,1.73-2.21.27-3.56a14.29,14.29,0,0,0-9.35-3.65c-.55,0-1,0-1.33.64C52.26,368.05,49.43,369.33,46,369.87Zm146.27-6.75c1.76.14,3.4.19,5,.41A52.15,52.15,0,0,1,213,367.91c.8.38,1.64.84,2-.5.62-2.49-3.15-7.68-5.6-7.28-3,.48-5.42-.46-8-1.72C197.16,356.34,193.65,358.21,192.31,363.12Zm52.49,54.06c0,3.13.58,4.91,1.82,6.34s2.35,2.41,3.76.11a11.76,11.76,0,0,1,2.2-2.07c1.14-1.07,2.67-7.66,2-9-.22-.43-.78-.7-1.21-1-1.05-.79-2.21-2.26-3.14-2.13s-1.64,1.87-2.48,2.89a7.7,7.7,0,0,1-1.46,1.5A3,3,0,0,0,244.8,417.18ZM107.42,403.85c-.93,5.72-3.41,10.52-8.25,13.44-2.91,1.75-3,3.86-2.5,6.89A17.07,17.07,0,0,1,103,420a9.12,9.12,0,0,0,6.58-9,9.94,9.94,0,0,1,.26-2.32C110.49,406.55,109.81,405,107.42,403.85ZM182,221.69c1.6.23,2.23-.27,1.67-1.93-.3-.88-.3-1.86-.62-2.72-1-2.73-3-4-5.51-3.63a6.34,6.34,0,0,0-5.25,5.47c-.16,1.47.34,2.16,1.82,2.27C176.76,221.33,179.42,221.1,182,221.69ZM159.3,370.83A48,48,0,0,1,169.48,366c3.44-1.13,7.08-1.49,10.77-2.44-3.92-4.37-6.2-4.57-10.34-1.22a6.8,6.8,0,0,1-3.37,1.47C162.1,364.49,160.51,366,159.3,370.83Zm120.93,24.56c3.12,0,4.47-1.35,5.65-5.64.14-.5.78-1.24.05-1.61-.45-.23-1.19,0-1.78.18s-.93.76-1.24,1.3a7.66,7.66,0,0,1-3.38,3.09c-.59.29-1.81,0-1.53,1.21S279.35,395.27,280.23,395.39ZM92.6,432.07A22.31,22.31,0,0,1,91,422.26c0-.71-.36-1.05-1-.85s-1.84-.09-2.07,1C87.24,425.65,89.26,430,92.6,432.07Zm162.12-32.78c-1.85-.13-2.46,1.19-3.25,2-.64.65.44,1.27.76,1.91.7,1.37,1.6.62,2.51.32.5-.17,1.09-.1,1.59-.26.88-.29,2.4.32,2.52-1,.11-1-1.11-1.77-2.08-2.26A16.82,16.82,0,0,0,254.72,399.29ZM65.54,402.17c.26-4.7.26-4.7-2.92-3.93A18.54,18.54,0,0,0,65.54,402.17Z" transform="translate(10.22 13.5)"/><path class="cls-3" d="M186.07,363a15.29,15.29,0,0,0-6.69-7c-4.53-2.32-8.22-1.9-12,1.47a3.15,3.15,0,0,1-2,1.11c-5.19.2-8.17,3.38-10.22,7.72-.69,1.45-1.19,3-1.9,4.82-.35-4.22.17-8.09-.52-11.94-.92-5.17-3.37-9.07-8.2-11.49a42,42,0,0,0-33.09-2.52c-2.3.75-4.59,1.52-6.81,2.45-5.85,2.46-8.9,6.93-9,13.29a91.71,91.71,0,0,0,1.14,15.61c.49,3,.53,2.89-2.27,2.23-3.33-.79-6.67-1.69-10.15-1-1.93.36-1.55-.89-1.36-2A54.21,54.21,0,0,0,82.49,356a10.14,10.14,0,0,0-5.82-7.63c-7.17-3.68-14.62-5.81-22.7-5.24a47.71,47.71,0,0,0-15.91,3.45c-1.73.75-2.24.58-2.89-1.16A295.53,295.53,0,0,1,23.6,305.86a299,299,0,0,1-6.1-42A324.81,324.81,0,0,1,17.32,218a297.86,297.86,0,0,1,17.42-83.47c9.33-25.35,22-48.8,39.52-69.5,17.63-20.9,38.5-37.4,64.46-46.84a117.87,117.87,0,0,1,35-7.06c1.45-.07,2,.23,1.83,1.71a9.12,9.12,0,0,0,0,1.17q0,96.15,0,192.32c0,1.83-.3,2.83-2.22,3.63-4.53,1.92-6.67,8.74-5.51,13.43,1,4.14,1.75,8.51-1.4,12.62a32.12,32.12,0,0,0-6.73,17c-.48,5.49,1.32,10,5.71,13.34,6.6,5,14.21,6.23,21.32,2.45,10.35-5.5,11-13.4,7.37-23.85-1-2.77-2.86-5-4.59-7.31-2.49-3.29-2.64-7.07-2.68-10.92a1.76,1.76,0,0,1,.19-.89c3.25-5.07.91-9.49-1.61-13.87a4.46,4.46,0,0,0-2.89-2.25c-2.26-.41-2.34-1.81-2.34-3.68q.06-95.93,0-191.86c0-3.42,0-3.3,3.37-3.13,37.66,1.89,67.91,19,93.36,45.76,22.33,23.47,37.56,51.24,48.31,81.61A288.87,288.87,0,0,1,339,195.16a311.66,311.66,0,0,1,3.08,49.21c-.79,39-7.86,76.66-23.29,112.61a227.25,227.25,0,0,1-34.73,57.08c-.35.42-.71.83-1.09,1.22-.78.79-1.37.46-1.36-.48,0-3.5-1.05-6.9,2.08-10.17,5.6-5.87,8-13.5,9.16-21.4a83.7,83.7,0,0,0-.22-24,5.3,5.3,0,0,0-3.41-4.36,41,41,0,0,0-13.13-3.15,50.39,50.39,0,0,0-26.24,4.13,10.48,10.48,0,0,0-4.29,3.16,2.15,2.15,0,0,1-2.59.83c-7.71-1.72-15.18-1.24-22.14,2.82-1,.59-1.44.54-1.86-.57a13,13,0,0,0-2.32-3.77,8.73,8.73,0,0,0-7.53-3.51,7.45,7.45,0,0,1-4.3-.62c-7.43-4-14.28-1.5-17.49,6.35A4.7,4.7,0,0,1,186.07,363ZM51.57,127.39c.08,1.54.6,2.51,1.78,2.84,2.06.57,2.94-.83,3.68-2.4a214.38,214.38,0,0,1,13.65-25.28A115.31,115.31,0,0,1,91.82,77.73c1.13-1,1.66-2.14.85-3.49a2.64,2.64,0,0,0-3.66-1,13.07,13.07,0,0,0-3.62,2.91C70.86,90.24,60.62,107.25,52.21,125.5A16.89,16.89,0,0,0,51.57,127.39ZM294.4,382.68a2.45,2.45,0,0,0,1.83,2.43,2.64,2.64,0,0,0,3.16-1.4c1.83-3.08,3.51-6.25,5.34-9.33,7.74-13,12.75-27.16,17.29-41.51.45-1.43.25-2.67-1.2-3.38a2.59,2.59,0,0,0-3.47,1,8,8,0,0,0-1.13,2.54c-4.65,16.79-12,32.36-21,47.24A4.3,4.3,0,0,0,294.4,382.68ZM81.23,104.08a2.51,2.51,0,0,0,1.46,2.21,2.23,2.23,0,0,0,3-.58,49.18,49.18,0,0,1,4.67-5.8,2.25,2.25,0,0,0,0-3,2.51,2.51,0,0,0-2.69-1C85.53,96.4,81.29,101.61,81.23,104.08Z" transform="translate(10.22 13.5)"/><path class="cls-4" d="M220.23,384.86c-1.44,15.79-6.88,29.65-19.95,39.53-4.89,3.7-10.51,5.77-16.85,4.44a16.69,16.69,0,0,1-5.88-2.76c-10.22-7-16.1-16.72-18.33-28.76a111.24,111.24,0,0,1-1.54-15.79,5.1,5.1,0,0,1,2.36-4.67c5.47-4.19,11.72-6.35,18.42-7.45,9.09-1.49,18.11-1.42,27,1.32A36.93,36.93,0,0,1,218,377.26C219.9,378.79,220.14,379.7,220.23,384.86Zm-29.94-1c-7.83-.34-14,3-19,8.76-3.13,3.61-2.54,7.77,1.46,10.37a16.51,16.51,0,0,0,3.15,1.49,27.94,27.94,0,0,0,14.92,1.24c5.58-1,10.51-3.43,14-8.19,2.42-3.34,1.95-6.85-1.22-9.5A18.92,18.92,0,0,0,190.29,383.86ZM189,412.42a19.42,19.42,0,0,0-7.24,1.58c-3.16,1.32-4.83,3.41-4.58,5.74.3,2.78,2.84,5.21,5.94,5.78,5.79,1.07,10.52-.84,14.47-5a2.91,2.91,0,0,0,0-4.51A11.11,11.11,0,0,0,189,412.42Z" transform="translate(10.22 13.5)"/><path class="cls-5" d="M115.29,409.35c5.31,2.42,10.56,3.31,16.06,1.5,3.5-1.15,3.55-1.1,4.27,2.63.3,1.53.43,3.08.66,4.62.92,6.16,4.13,10.49,10.07,12.63a22.8,22.8,0,0,1,10.54,7.07c2.51,3.14,4.17,6.56,3.77,10.73a3.48,3.48,0,0,1-.51,2,30.57,30.57,0,0,0-5.2,12.64c-.27,1.34-.58,1.83-2.26,1.44-20.38-4.72-38.26-14.35-54.51-27.31a2.31,2.31,0,0,1-.89-2.78c1.11-4.67,3.64-8,8.19-9.74,5.67-2.21,8.94-6.3,9.31-12.53A26.53,26.53,0,0,1,115.29,409.35Z" transform="translate(10.22 13.5)"/><path class="cls-6" d="M147.74,370.15a70.93,70.93,0,0,1-4.35,23.07c-2.44,6.94-8.23,11.43-15.5,12.88s-12.88-2-17.37-7.4c-4.17-5-5.91-11.08-7.35-17.25a85.52,85.52,0,0,1-2-21.11,7.57,7.57,0,0,1,4.57-7.29c11.67-5.34,23.47-6.84,35.56-1.07,4.14,2,6.06,5.07,6.35,9.5A60,60,0,0,1,147.74,370.15Zm-20.81-8.9c-8.58.07-15.39,5.47-17.06,13.53a5.7,5.7,0,0,0,2.25,6.2c7.56,5.54,20.65,4,26.74-3.16,3-3.5,3.06-7.8,0-11.28A14.74,14.74,0,0,0,126.93,361.25Z" transform="translate(10.22 13.5)"/><path class="cls-4" d="M176.92,432.09c7.65,3.76,14.76,2.86,21.74-.51,1.61-.78,2.21-.26,2.14,1.32-.25,5.61,2.06,9.93,6.47,13.25,2.83,2.13,3.86,5.2,4.25,8.54.26,2.24.32,4.5.57,6.74a1.62,1.62,0,0,1-1.41,2A141.14,141.14,0,0,1,188,467.3a122.48,122.48,0,0,1-26-.93c-1.81-.23-2.15-.78-1.79-2.49,1.46-6.91,4.68-12.36,11.24-15.73,5.08-2.62,6.8-7.16,5.87-13.32C177.19,434.07,177.09,433.31,176.92,432.09Z" transform="translate(10.22 13.5)"/><path class="cls-7" d="M279.82,400.85c-5.23,7.59-13.75,10.7-20.55,7.61a4,4,0,0,1,.62-.35c5.92-1.79,5.77-7.15,2.07-10.74a12.06,12.06,0,0,0-12.06-3.12c-1.22.31-1.86.31-2.15-1.05-1.85-8.47-2.41-16.95-.51-25.49a10,10,0,0,1,6.77-7.9,48.44,48.44,0,0,1,30.92-.91,3.15,3.15,0,0,1,2.68,3.15,90.65,90.65,0,0,1,.28,18.19c-.15,1.54-.57,2.23-2.34,2.36a16.37,16.37,0,0,0-9,3.66c-2.79,2.19-4.76,4.9-3.95,8.63S276.14,400.24,279.82,400.85ZM260.39,387c6.59.07,14.16-4.83,16.62-10.43a3,3,0,0,0-.29-2.9,7.37,7.37,0,0,0-2.69-2.54c-7.33-4.24-15.79-1.55-20.11,6.41-2.22,4.09-1.17,7.06,3.17,8.68A22.32,22.32,0,0,0,260.39,387Z" transform="translate(10.22 13.5)"/><path class="cls-8" d="M216.31,447c.38-2.93.14-6.7.94-10.38.55-2.56,1.72-4.66,4.25-5.77a10.76,10.76,0,0,0,6.81-10c.06-1.44.47-1.89,2-1.58,2.58.54,5.12-.16,7.59-.79,1.21-.3,1.59.08,1.68,1.11a13.26,13.26,0,0,0,4.83,9.27,4.15,4.15,0,0,1,1.22,4.66c-1.28,4.53-1.18,9.25-1.53,13.9a2.64,2.64,0,0,1-1.46,2.39,137.75,137.75,0,0,1-23.38,11c-1.54.56-2.06.36-2-1.37C217.24,455.48,216.1,451.66,216.31,447Z" transform="translate(10.22 13.5)"/><path class="cls-9" d="M42.85,363.75c-1.5-3.45-2.86-6.67-4.32-9.84-.61-1.33,0-1.79,1.08-2.24a45.48,45.48,0,0,1,12.43-3c8.26-1.1,15.87.94,23.06,4.93a2.94,2.94,0,0,1,1.65,1.86c2.4,10.85,2.93,21.45-4,31.12-3.27,4.55-7.79,6.15-13.16,6.06a1.37,1.37,0,0,1-1.26-.84l-6.74-11.2c-.84-1.39-.1-1.51,1.08-1.5a32.22,32.22,0,0,0,8.14-.43,17.17,17.17,0,0,0,7.6-3.91c3.13-2.84,3.27-6.81.49-10-5.62-6.47-18-8.55-25.06-1.85C43.59,363.16,43.35,363.34,42.85,363.75Z" transform="translate(10.22 13.5)"/><path class="cls-10" d="M178.3,265.89a15.7,15.7,0,0,1-6.82-1.17c-6.85-3.28-8.85-8.84-5.91-17.16a26.13,26.13,0,0,1,4.67-8.85c2.64-3,3.28-6.19,2.79-9.94-.43-3.28-.32-3.26,2.95-2.93a34.52,34.52,0,0,0,4.66.17c1.22,0,1.72.43,1.66,1.62-.35,6.38,2.7,11.33,6,16.5,4.67,7.21,4.76,15.14-2.48,20.05A10.61,10.61,0,0,1,178.3,265.89Z" transform="translate(10.22 13.5)"/><path class="cls-11" d="M152,380.8c.7,6.42.77,12.27,2,18,2.41,11.1,6.94,21,16.19,28.17a3,3,0,0,1,1.27,2.55c.06,2.88.36,5.76.51,8.64.14,2.65-2.79,6.21-5.34,6.63-.89.15-.8-.46-.93-1-2.15-8.22-7.29-14.12-15.1-16.94-6.49-2.33-9.33-6.5-9.63-13a3.12,3.12,0,0,0-.12-1.16c-2.38-4.53-.4-7.49,3.06-10.56s5.08-7.34,5.9-11.92C150.39,387.26,151.21,384.35,152,380.8Z" transform="translate(10.22 13.5)"/><path class="cls-12" d="M71.13,398.09c-.87-2,.65-3.19,2.3-4.56a24.56,24.56,0,0,0,6.65-8.65,2.61,2.61,0,0,1,2.22-1.64c5.53-1,10.64.33,15.69,2.37.94.38,1,1.09,1.24,1.79.78,2.71,2.17,5.23,2.84,7.91a16.88,16.88,0,0,1-3.35,15.35A16.4,16.4,0,0,1,88,416.33c-1.11.17-1.55-.09-1.82-1.12-1.5-5.73-5.77-8.65-10.91-10.64C71.13,403,71.12,403,71.13,398.09Zm24.72,1.19c1.53,0,2.78-.41,3.2-1.95a2.43,2.43,0,0,0-1.76-3.11c-1.11-.38-1.65-.74-1.51-2.08a2.13,2.13,0,0,0-1.76-2.2,2.51,2.51,0,0,0-2.88,1c-.3.44-.46,1-.76,1.44-1.1,1.6-2.7.6-4.07.71s-.92-.95-1-1.67A2.39,2.39,0,0,0,83.25,389a2.52,2.52,0,0,0-3,2c-.42,1.47-1,2.25-2.73,2.11a2.32,2.32,0,0,0-2.65,2.11c-.25,1.58.59,2.48,2,3,.53.19,1.1,0,1.51.81,1.72,3.34,3.24,3.35,5.28.13,1-1.57,2.52-.57,3.8-.74,1-.13,1,.66,1,1.41a2.27,2.27,0,0,0,2.12,2.38,2.38,2.38,0,0,0,2.77-1.66C93.87,399.14,94.55,398.63,95.85,399.28Z" transform="translate(10.22 13.5)"/><path class="cls-7" d="M249.51,445.15c.24-5.41.78-10.46,2.92-15.22a9.39,9.39,0,0,1,2.85-3.66,11.09,11.09,0,0,0,4.52-9.75c0-.85-.31-2.13,1.3-1.76,5.34,1.21,10.12-.4,15.1-3.15,0,1.56,0,2.83,0,4.1a4,4,0,0,0,1.05,3c1.42,1.26.88,2-.16,3.14a169.27,169.27,0,0,1-26.35,22.64C250.43,444.71,250.09,444.85,249.51,445.15Z" transform="translate(10.22 13.5)"/><path class="cls-8" d="M233.07,413.88c-5.53,0-9.18-1.45-12.4-4.19a1.67,1.67,0,0,1-.57-2.36,54.63,54.63,0,0,0,4-11.21c.41-1.79,1.12-1.57,2.44-1.14,3.88,1.26,7.84,2,11.94,1.11.38-.09.76-.16,1.13-.28,3-1,3-1,4,2.1a19.5,19.5,0,0,0,1.71,4.09c1.18,1.83.74,3.36-.28,5A14.52,14.52,0,0,1,233.07,413.88Z" transform="translate(10.22 13.5)"/><path class="cls-11" d="M211.06,442a9.12,9.12,0,0,1-4.94-7.92c-.34-4-.62-7.65,3.29-10.52,2.93-2.14,4.86-5.45,6.72-8.61.64-1.07,1.15-1.27,2.09-.37a20.88,20.88,0,0,0,2.28,1.63c1.06.74,2.61.86,2.46,2.88-.18,2.37.12,5-2.42,6.13-7,3-8.82,8.91-9.33,15.69C211.19,441.16,211.13,441.45,211.06,442Z" transform="translate(10.22 13.5)"/><path class="cls-13" d="M235.12,377.23h.76c4.62.07,4.6.08,4.83,4.56.08,1.47.38,2.94.38,4.42,0,1,1,2.32.06,2.8-1.27.68-2.42,1.76-4,1.88a20.62,20.62,0,0,1-9.86-1.28c-.94-.4-2.16-.79-1.82-2,.44-1.62-1.13-3.83,1.42-4.88a5.08,5.08,0,0,0,2.93-2.59C231,377.26,233.05,376.85,235.12,377.23Z" transform="translate(10.22 13.5)"/><path class="cls-8" d="M239.23,372.14a21.21,21.21,0,0,0-14.62,2.49c-1.83,1-2.85-1.09-3.59-2.09s-.41-2.85.77-4a12,12,0,0,1,4.56-2.76,27.51,27.51,0,0,1,14.25-1.14c1.29.26,1.93.69,1.44,2.16a15.72,15.72,0,0,0-.82,3.87C241.13,372.13,240.43,372.37,239.23,372.14Z" transform="translate(10.22 13.5)"/><path class="cls-13" d="M46,369.87c3.39-.54,6.22-1.82,7.7-5.06.3-.65.78-.67,1.33-.64a14.29,14.29,0,0,1,9.35,3.65c1.46,1.35,1.29,2.44-.27,3.56-3,2.14-6.42,2.66-10,2.53-1.32-.05-2.63-.39-3.94-.45C48,373.35,46.44,372.43,46,369.87Z" transform="translate(10.22 13.5)"/><path class="cls-14" d="M192.31,363.12c1.34-4.91,4.85-6.78,9.05-4.71,2.58,1.26,5,2.2,8,1.72,2.45-.4,6.22,4.79,5.6,7.28-.34,1.34-1.18.88-2,.5a52.15,52.15,0,0,0-15.66-4.38C195.71,363.31,194.07,363.26,192.31,363.12Z" transform="translate(10.22 13.5)"/><path class="cls-11" d="M244.8,417.18a3,3,0,0,1,1.49-3.37,7.7,7.7,0,0,0,1.46-1.5c.84-1,1.54-2.76,2.48-2.89s2.09,1.34,3.14,2.13c.43.32,1,.59,1.21,1,.67,1.33-.86,7.92-2,9a11.76,11.76,0,0,0-2.2,2.07c-1.41,2.3-2.53,1.31-3.76-.11S244.82,420.31,244.8,417.18Z" transform="translate(10.22 13.5)"/><path class="cls-11" d="M107.42,403.85c2.39,1.13,3.07,2.7,2.45,4.91a9.94,9.94,0,0,0-.26,2.32,9.12,9.12,0,0,1-6.58,9,17.07,17.07,0,0,0-6.36,4.14c-.45-3-.41-5.14,2.5-6.89C104,414.37,106.49,409.57,107.42,403.85Z" transform="translate(10.22 13.5)"/><path class="cls-9" d="M182,221.69c-2.59-.59-5.25-.36-7.89-.54-1.48-.11-2-.8-1.82-2.27a6.34,6.34,0,0,1,5.25-5.47c2.48-.38,4.47.9,5.51,3.63.32.86.32,1.84.62,2.72C184.24,221.42,183.61,221.92,182,221.69Z" transform="translate(10.22 13.5)"/><path class="cls-14" d="M159.3,370.83c1.21-4.83,2.8-6.34,7.24-7a6.8,6.8,0,0,0,3.37-1.47c4.14-3.35,6.42-3.15,10.34,1.22-3.69.95-7.33,1.31-10.77,2.44A48,48,0,0,0,159.3,370.83Z" transform="translate(10.22 13.5)"/><path class="cls-9" d="M82,421.85c-4.32-3.77-7.76-8.3-11.54-13,8,1.74,11.17,5.32,11.65,12.92Z" transform="translate(10.22 13.5)"/><path class="cls-13" d="M280.23,395.39c-.88-.12-2-.28-2.23-1.47s.94-.92,1.53-1.21a7.66,7.66,0,0,0,3.38-3.09c.31-.54.58-1.14,1.24-1.3s1.33-.41,1.78-.18c.73.37.09,1.11-.05,1.61C284.7,394,283.35,395.39,280.23,395.39Z" transform="translate(10.22 13.5)"/><path class="cls-12" d="M92.6,432.07c-3.34-2.1-5.36-6.42-4.72-9.63.23-1.12,1.33-.8,2.07-1s1,.14,1,.85A22.31,22.31,0,0,0,92.6,432.07Z" transform="translate(10.22 13.5)"/><path class="cls-13" d="M254.72,399.29a16.82,16.82,0,0,1,2,.76c1,.49,2.19,1.22,2.08,2.26-.12,1.28-1.64.67-2.52,1-.5.16-1.09.09-1.59.26-.91.3-1.81,1.05-2.51-.32-.32-.64-1.4-1.26-.76-1.91C252.26,400.48,252.87,399.16,254.72,399.29Z" transform="translate(10.22 13.5)"/><path class="cls-9" d="M65.54,402.17a18.54,18.54,0,0,1-2.92-3.93C65.8,397.47,65.8,397.47,65.54,402.17Z" transform="translate(10.22 13.5)"/><path class="cls-9" d="M82.07,421.75l.17.31-.28-.21Z" transform="translate(10.22 13.5)"/><path class="cls-2" d="M51.57,127.39a16.89,16.89,0,0,1,.64-1.89c8.41-18.25,18.65-35.26,33.18-49.39A13.07,13.07,0,0,1,89,73.2a2.64,2.64,0,0,1,3.66,1c.81,1.35.28,2.51-.85,3.49a115.31,115.31,0,0,0-21.14,24.82A214.38,214.38,0,0,0,57,127.83c-.74,1.57-1.62,3-3.68,2.4C52.17,129.9,51.65,128.93,51.57,127.39Z" transform="translate(10.22 13.5)"/><path class="cls-15" d="M294.4,382.68a4.3,4.3,0,0,1,.84-2.39c8.94-14.88,16.33-30.45,21-47.24a8,8,0,0,1,1.13-2.54,2.59,2.59,0,0,1,3.47-1c1.45.71,1.65,1.95,1.2,3.38-4.54,14.35-9.55,28.5-17.29,41.51-1.83,3.08-3.51,6.25-5.34,9.33a2.64,2.64,0,0,1-3.16,1.4A2.45,2.45,0,0,1,294.4,382.68Z" transform="translate(10.22 13.5)"/><path class="cls-15" d="M81.23,104.08c.06-2.47,4.3-7.68,6.42-8.16a2.51,2.51,0,0,1,2.69,1,2.25,2.25,0,0,1,0,3,49.18,49.18,0,0,0-4.67,5.8,2.23,2.23,0,0,1-3,.58A2.51,2.51,0,0,1,81.23,104.08Z" transform="translate(10.22 13.5)"/><path class="cls-2" d="M190.29,383.86A18.92,18.92,0,0,1,203.56,388c3.17,2.65,3.64,6.16,1.22,9.5-3.45,4.76-8.38,7.17-14,8.19a27.94,27.94,0,0,1-14.92-1.24,16.51,16.51,0,0,1-3.15-1.49c-4-2.6-4.59-6.76-1.46-10.37C176.29,386.83,182.46,383.52,190.29,383.86Zm-4.7,16.83c.7,0,1.4,0,2.09,0a18.18,18.18,0,0,0,11.94-5.15c1.85-1.83,1.76-2.55-.3-4-3-2.15-6.49-2.39-10-2.28a1.82,1.82,0,0,0-1.34.83c-2.75,3.43-6.2,5.34-10.73,4.89-1.39-.14-1.89,1-2.35,1.93-.55,1.06.55,1.53,1.25,1.88A18.35,18.35,0,0,0,185.59,400.69Z" transform="translate(10.22 13.5)"/><path class="cls-2" d="M189,412.42a11.11,11.11,0,0,1,8.56,3.55,2.91,2.91,0,0,1,0,4.51c-4,4.2-8.68,6.11-14.47,5-3.1-.57-5.64-3-5.94-5.78-.25-2.33,1.42-4.42,4.58-5.74A19.42,19.42,0,0,1,189,412.42Zm-6.46,7.07c3.56,1.6,6.85,1.05,9.06-1.23C188.52,417.22,185.8,418.09,182.56,419.49Z" transform="translate(10.22 13.5)"/><path class="cls-15" d="M126.93,361.25a14.74,14.74,0,0,1,12,5.29c3,3.48,2.94,7.78,0,11.28-6.09,7.13-19.18,8.7-26.74,3.16a5.7,5.7,0,0,1-2.25-6.2C111.54,366.72,118.35,361.32,126.93,361.25Zm-3,17.6a14.06,14.06,0,0,0,10.72-4.31c1.46-1.53,1.64-3.08.1-4.72a10.38,10.38,0,0,0-8.39-3.31,1.31,1.31,0,0,0-1.37.94c-1.38,3.48-4.16,5.16-7.73,5.51-1.68.17-1.65,1.4-2,2.43-.4,1.2.5,1.58,1.4,2A16.52,16.52,0,0,0,123.9,378.85Z" transform="translate(10.22 13.5)"/><path class="cls-2" d="M260.39,387a22.32,22.32,0,0,1-3.3-.78c-4.34-1.62-5.39-4.59-3.17-8.68,4.32-8,12.78-10.65,20.11-6.41a7.37,7.37,0,0,1,2.69,2.54,3,3,0,0,1,.29,2.9C274.55,382.16,267,387.06,260.39,387Zm1-5.4c3.29-.41,6.48-1.58,8.73-4.57.33-.44.89-.94.43-1.61-.8-1.17-3.81-1.13-4.62.1a7.68,7.68,0,0,1-5.1,3.34c-1.07.23-2.47.41-2.27,1.76C258.7,381.8,260.12,381.43,261.36,381.59Z" transform="translate(10.22 13.5)"/><path class="cls-2" d="M95.85,399.28c-1.3-.65-2-.14-2.43,1.29a2.38,2.38,0,0,1-2.77,1.66,2.27,2.27,0,0,1-2.12-2.38c0-.75,0-1.54-1-1.41-1.28.17-2.8-.83-3.8.74-2,3.22-3.56,3.21-5.28-.13-.41-.78-1-.62-1.51-.81-1.42-.5-2.26-1.4-2-3a2.32,2.32,0,0,1,2.65-2.11c1.69.14,2.31-.64,2.73-2.11a2.52,2.52,0,0,1,3-2,2.39,2.39,0,0,1,2.09,2.45c0,.72-.29,1.77,1,1.67s3,.89,4.07-.71c.3-.45.46-1,.76-1.44a2.51,2.51,0,0,1,2.88-1,2.13,2.13,0,0,1,1.76,2.2c-.14,1.34.4,1.7,1.51,2.08a2.43,2.43,0,0,1,1.76,3.11C98.63,398.87,97.38,399.25,95.85,399.28Z" transform="translate(10.22 13.5)"/><path class="cls-13" d="M185.59,400.69a18.35,18.35,0,0,1-9.47-1.94c-.7-.35-1.8-.82-1.25-1.88.46-.9,1-2.07,2.35-1.93,4.53.45,8-1.46,10.73-4.89a1.82,1.82,0,0,1,1.34-.83c3.54-.11,7,.13,10,2.28,2.06,1.48,2.15,2.2.3,4a18.18,18.18,0,0,1-11.94,5.15C187,400.73,186.29,400.69,185.59,400.69Z" transform="translate(10.22 13.5)"/><path class="cls-13" d="M182.56,419.49c3.24-1.4,6-2.27,9.06-1.23C189.41,420.54,186.12,421.09,182.56,419.49Z" transform="translate(10.22 13.5)"/><path class="cls-13" d="M123.9,378.85a16.52,16.52,0,0,1-7.25-1.46c-.9-.42-1.8-.8-1.4-2,.33-1,.3-2.26,2-2.43,3.57-.35,6.35-2,7.73-5.51a1.31,1.31,0,0,1,1.37-.94,10.38,10.38,0,0,1,8.39,3.31c1.54,1.64,1.36,3.19-.1,4.72A14.06,14.06,0,0,1,123.9,378.85Z" transform="translate(10.22 13.5)"/><path class="cls-13" d="M261.36,381.59c-1.24-.16-2.66.21-2.83-1-.2-1.35,1.2-1.53,2.27-1.76a7.68,7.68,0,0,0,5.1-3.34c.81-1.23,3.82-1.27,4.62-.1.46.67-.1,1.17-.43,1.61C267.84,380,264.65,381.18,261.36,381.59Z" transform="translate(10.22 13.5)"/></svg>