<svg id="Layer_1" data-name="Layer 1" xmlns="http://www.w3.org/2000/svg" viewBox="0 0 375.82 500"><defs><style>.cls-1{fill:#fff;}</style></defs><path class="cls-1" d="M365.6,486.5H-10.22v-500H365.6ZM347.31,239.24c-.64-10.9-1-21.83-2-32.7a285.29,285.29,0,0,0-6.89-40.93c-7.23-30-18.56-58.22-35.6-84-15.78-23.89-35.17-44.15-60.31-58.31C213.14,6.74,182,1.74,149.08,10c-24.85,6.21-45.93,19.23-64.33,36.78C62,68.47,45.72,94.57,33.8,123.51c-12,29.23-18.76,59.71-21.13,91.21a328.57,328.57,0,0,0,.16,51.93,301.08,301.08,0,0,0,8.34,50.14c8.7,34,22.59,65.57,44.13,93.49,14.85,19.24,32.46,35.37,54,46.84,25,13.27,51.44,18.26,79.45,13.82a131,131,0,0,0,51.43-20.22A163.25,163.25,0,0,0,273.83,432c20.42-19.48,35.7-42.56,47.27-68.17C339,324.25,346.83,282.56,347.31,239.24Z" transform="translate(10.22 13.5)"/><path d="M347.31,239.24c-.48,43.32-8.32,85-26.21,124.58-11.57,25.61-26.85,48.69-47.27,68.17a163.25,163.25,0,0,1-23.61,18.73,131,131,0,0,1-51.43,20.22c-28,4.44-54.49-.55-79.45-13.82-21.58-11.47-39.19-27.6-54-46.84-21.54-27.92-35.43-59.49-44.13-93.49a301.08,301.08,0,0,1-8.34-50.14,328.57,328.57,0,0,1-.16-51.93c2.37-31.5,9.1-62,21.13-91.21,11.92-28.94,28.18-55,51-76.76C103.15,29.2,124.23,16.18,149.08,10,182,1.74,213.14,6.74,242.52,23.29c25.14,14.16,44.53,34.42,60.31,58.31,17,25.79,28.37,54,35.6,84a285.29,285.29,0,0,1,6.89,40.93C346.31,217.41,346.67,228.34,347.31,239.24ZM180.38,209a8,8,0,0,1,6.41,5.15c1.36,3.8,3.43,7.72.29,11.7a1.56,1.56,0,0,0-.19.9c0,3.85.21,7.61,2.65,10.92a31.28,31.28,0,0,1,4.45,7.12c4,10.62,2.84,18.2-7.15,24.17-5.88,3.52-15.77,2-21.76-2.89a14.19,14.19,0,0,1-5.32-12.84A31.8,31.8,0,0,1,166.54,236c3.13-4.05,2.36-8.39,1.43-12.43-1.15-5,.83-11.58,5.5-13.61,1.76-.77,2.16-1.68,2.16-3.45q-.07-96.4,0-192.82v-3c-6.07.74-11.89,1.15-17.59,2.2-22.7,4.21-42.61,14.36-60.39,28.91C77.78,58.06,62.4,78,50.19,100.37,29.51,138.29,19.47,179.18,17,222.07a311.58,311.58,0,0,0,2.22,58.16,294.33,294.33,0,0,0,12,53.86c1.46,4.47,3.08,8.88,4.67,13.42a49.88,49.88,0,0,1,18.19-4.37c8.35-.61,16,1.75,23.31,5.66,2.44,1.3,4.29,3.08,4.63,5.79.67,5.39,1.15,10.82,1.46,16.24a48,48,0,0,1-.6,7,69.16,69.16,0,0,1,7.24.06,64.47,64.47,0,0,1,6.71,1.42c-.4-6.1-1-12.08-1.15-18.07s2.34-10.56,7.81-13.05c12.63-5.74,25.4-7.36,38.67-1.66,7.22,3.1,10.6,8.31,10.91,15.87.09,2.19,0,4.38.05,6.56,0,.54.09,1.08.2,2.25,1.37-4.26,2.47-8.17,5.8-10.14a52.9,52.9,0,0,1,13.49-6.14c5.19-1.34,9.2,1.83,12.24,6,.48.65.87,1.36,1.46,2.29.59-1.47,1-2.64,1.52-3.75,3.19-6.7,9.61-8.9,16.24-5.76a11.36,11.36,0,0,0,4.86,1.07,9.15,9.15,0,0,1,8,4c1,1.42,1.86,3,2.77,4.46,7.37-4.44,15.15-5.15,23.33-3.44a4.13,4.13,0,0,0,2.51-.85c1.44-.9,2.65-2.22,4.16-2.94a47.42,47.42,0,0,1,26.21-4.22c4.51.52,8.94,2,13.34,3.2,2,.56,3.07,2.17,3.38,4.35a84.42,84.42,0,0,1,.29,23.33c-1.12,8.16-3.66,15.87-9.26,22.13a7.61,7.61,0,0,0-2.26,6.64c.21,1.45.2,2.92.29,4.38l.73.12c.71-.8,1.43-1.58,2.11-2.4,18.85-22.58,32.29-48.18,41.74-75.93a303.46,303.46,0,0,0,15.58-85.83,326.35,326.35,0,0,0-1.62-47.22,284.24,284.24,0,0,0-8.82-46.72c-9.85-35.6-25.34-68.31-49.94-96.18-22.42-25.41-49.36-43.43-83.41-49.13-5.79-1-11.7-1.26-17.7-1.89Zm39.78,176.18c1-4.93-1.18-8.14-5.36-10.14a79.58,79.58,0,0,0-10.68-4.6c-7.32-2.25-14.87-2.41-22.44-1.45-8.23,1-16.09,3.11-22.5,8.75a4.65,4.65,0,0,0-1.42,3.11c0,3,.25,6.07.48,9.11,1.08,14.43,6.19,26.77,18.35,35.49,3.53,2.53,7.22,4.39,11.68,3.82a25.57,25.57,0,0,0,13.54-5.88C213.61,413.32,218.93,400.16,220.16,385.14ZM115.29,409.5a20.74,20.74,0,0,0-.5,2.63c-.35,6.32-3.65,10.47-9.42,12.7-4.49,1.74-7,5-8.07,9.57a2.47,2.47,0,0,0,1,3A139.91,139.91,0,0,0,139,460.6c5,1.77,10.16,3.08,15.4,4.65,1.26-5.68,2.64-10.78,5.95-15.11a2.75,2.75,0,0,0,.26-1.34,13.54,13.54,0,0,0-1.78-8.09,21.9,21.9,0,0,0-12.3-9.87c-6.15-2.19-9.41-6.6-10.33-12.95-.4-2.72-1-5.42-1.46-8.18C125.6,412.65,124.21,412.63,115.29,409.5ZM148,369.27c-.15-2.8-.23-5.61-.46-8.41a9.72,9.72,0,0,0-5.62-8.51c-12.33-6.2-24.44-4.76-36.44.84a7,7,0,0,0-4.29,6.25c-.39,11,1,21.81,5.14,32.11a25.28,25.28,0,0,0,8.46,11.26c9.74,7.17,25.48,2.05,28.77-9.64C145.74,385.38,147.77,377.49,148,369.27ZM212.2,463a54.3,54.3,0,0,1-.5-5.48c.07-5.34-1.64-9.74-6.11-13-3.38-2.43-4.47-6.05-4.72-10-.07-1.2-.22-2.4-.35-3.76-7.79,3.86-15.41,5.53-23.51,1.34.16,2,.26,3.61.42,5.23.47,4.86-1.9,8.19-5.74,10.72-.84.56-1.74,1-2.61,1.56-6.14,3.68-8.05,9.69-9.21,16.39A117,117,0,0,0,212.2,463Zm75.28-80.55a11.7,11.7,0,0,0,.39-2.15c-.06-6-.26-12-.21-18,0-2.22-1.13-3-2.91-3.48-10.69-3-21.21-2.83-31.61,1.39-2.87,1.16-4.8,3-5.37,6a84,84,0,0,0-1.62,12,48,48,0,0,0,2.1,16.43,28.49,28.49,0,0,1,3.08-.68c4.65-.49,8.68.74,11.61,4.56s2,7.36-2.46,9.38c-.34.15-.66.36-1.05.58,7.58,4.1,17.27-2.32,20.31-7.62-3.54-.56-6.27-2.28-7.07-5.9-.85-3.84,1.22-6.58,4.12-8.79A18.26,18.26,0,0,1,287.48,382.45Zm-59.09,37.1c0,4.72-1.58,8.85-6.38,11a8.16,8.16,0,0,0-4.86,6.63c-1.36,8-.76,15.94.34,24a6.23,6.23,0,0,0,.91-.13,124,124,0,0,0,24.39-11.47,3.62,3.62,0,0,0,1.27-2.42c.53-4.32.58-8.73,1.46-13,.59-2.82-.31-4.46-2-6.39a23.48,23.48,0,0,1-3.37-5.71,16.23,16.23,0,0,1-.86-3.59ZM50.66,379.38c2.58,4.25,5.11,8.43,7.68,12.58a1.55,1.55,0,0,0,1,.69c4.13.05,8.31-.2,11.11-3.71,2.21-2.77,4.5-5.7,5.77-8.94,3.06-7.8,2.5-15.91.62-23.93a4,4,0,0,0-1.72-2.31c-7.29-4.19-15.07-6.25-23.52-5-4.68.69-9.39,1.31-13.71,3.88,1.65,3.78,3.25,7.42,4.91,11.21.47-.39.7-.58.93-.79,6.89-6.09,18.8-5.31,24.94,1.63,3.06,3.47,2.81,7.95-1,10.59a21.74,21.74,0,0,1-7.33,3.38C57.36,379.33,54.13,379.16,50.66,379.38ZM173,225.63a25.65,25.65,0,0,0,0,3.06,12.44,12.44,0,0,1-2.69,10c-3.59,4.67-6,10-6,16.17a9.68,9.68,0,0,0,3.54,7.55c3.38,3,7.45,3.57,11.76,3.59,6.65,0,12.41-6.05,11.75-12.62a19.66,19.66,0,0,0-4.13-11c-3.1-3.78-5.06-8-4.85-13.07a20.77,20.77,0,0,0-.3-3.12Zm-6.94,219.21c4.57-1.5,6.15-3.7,5.87-8.14-.15-2.33-.19-4.68-.5-7a4.38,4.38,0,0,0-1.28-2.71c-9.1-7.2-13.8-17-16-28-1.14-5.67-1.47-11.51-2.26-18-2,10.18-3.54,19.9-12.38,25.4.71,3.86,1.41,7.28,1.95,10.73.68,4.41,2.92,7.36,7.21,8.91C157.67,429.24,163.75,435.33,166.06,444.84ZM86.57,416.49a17.85,17.85,0,0,0,11.09-4.7c4.53-4.15,5.31-9.72,4.78-15.26-.32-3.37-2.25-6.59-3.51-9.86a1.8,1.8,0,0,0-.86-.94c-5.16-2.2-10.47-3.6-16.11-2.34a3.75,3.75,0,0,0-1.81,1.42c-2.13,2.76-3.81,6-6.37,8.25A7.65,7.65,0,0,0,71,399.8c.05,2.24.88,3.54,2.86,4.23C80,406.2,85.12,409.43,86.57,416.49ZM249,444.67l.92.41a161.66,161.66,0,0,0,28.72-24.9c-3.09-2.12-2.25-5.33-2.53-8.5-5.16,2.95-10.36,4.46-16.15,2.85a12.81,12.81,0,0,0-.15,1.6,11.88,11.88,0,0,1-4.69,10.42,8.78,8.78,0,0,0-2.94,4.11C250.91,435.27,250,440,249,444.67Zm-24.24-50.14c-1.24,3.6-2.34,7.08-3.63,10.48-1.64,4.33-1.69,4.37,2.39,6.74.26.15.54.3.82.44,7.32,3.72,16.79,1.39,20.67-5.17.59-1,1.27-2.47,1-3.42-1-3.08-2.42-6-3.7-9C236.44,398,230.57,396.22,224.77,394.53ZM217,413.84c-1.64,2.31-3.09,4.63-4.83,6.71s-3.79,3.91-5.65,5.89a2.23,2.23,0,0,0-.57,1.42c.07,2.34.28,4.67.34,7,.1,3.31,1.93,5.41,4.76,7.15.21-1.52.41-2.88.58-4.24.67-5.35,2.81-9.69,8-12a6.14,6.14,0,0,0,1.56-1c2-1.69,2.45-6.65.81-7.73S218.76,415,217,413.84Zm23.47-36.06a22.69,22.69,0,0,0-2.72-.45c-3.26-.13-6.82-.93-8.31,3.4a2,2,0,0,1-1.16,1.11c-2.87.92-2.87,3.28-2.8,5.59a2.46,2.46,0,0,0,1.11,1.87c5,1.92,10,3,14.78-.4C241.07,385.19,240.78,381.56,240.47,377.78Zm-16.64-2.57c5.29-3.6,11.09-3.94,17.07-2.9.49-2.5.93-4.7,1.36-6.88-5.37-2.64-16.58-1-20.49,3.29a5.06,5.06,0,0,0-.67,4C221.32,373.61,222.73,374.25,223.83,375.21ZM45.43,370c1.13,1.27,1.8,2.72,2.8,3a27.72,27.72,0,0,0,6.92.91,14.26,14.26,0,0,0,9-2.59c1.45-1.07,1.65-2.12.27-3.42a13.79,13.79,0,0,0-9.32-3.7,1.88,1.88,0,0,0-1.45.78C52.09,368.09,49.36,369.34,45.43,370Zm146.93-6.88a25.53,25.53,0,0,1,4.58.34c5.32,1.37,10.59,2.93,15.9,4.34.63.17,1.87,0,2-.31,1-2.3-3-7.77-5.59-7.36-2.91.47-5.27-.42-7.77-1.66C197.18,356.35,193.5,358.27,192.36,363.15Zm56.37,62.18c1.39-1.34,2.83-2.63,4.15-4,2.36-2.51,1.32-5.75,1.71-8.67,0-.22-.48-.55-.78-.77-1.18-.89-2.37-1.75-3.46-2.55-1.7,1.83-3.4,3.63-5,5.48a2.11,2.11,0,0,0-.47,1.24C244.62,419.76,245.14,423.21,248.73,425.33Zm-141.34-21.5c-.87,5.84-3.48,10.65-8.4,13.6-2.91,1.75-2.66,3.85-2.43,6.3a73.1,73.1,0,0,1,6.75-3.73c3.64-1.56,5.87-4,6.19-8a16.82,16.82,0,0,1,.33-3C110.46,406.67,109.84,405,107.39,403.83Zm76.39-182.16c-.12-5.77-2.28-8.64-6-8.29s-5.83,3.37-5.26,7.59Zm-3.73,142.06c-2.69-4.16-6.14-4.66-9.64-1.9a12.49,12.49,0,0,1-5,2.11,7.2,7.2,0,0,0-5.83,6.81C165.78,366.53,172.79,364.86,180.05,363.73ZM69.77,408.43l12.54,14.43C81.22,413.74,78.82,411,69.77,408.43ZM278.1,394.15c.35,1.34,1.74,1.37,3.32,1.08,2.92-.53,4.19-2.42,4.7-7.52a15.14,15.14,0,0,0-2.87,1.5C281.6,390.64,280.09,392.22,278.1,394.15ZM92,431.79c-.49-3.42-1-6.84-1.48-10.45l-2.74.6C88.42,425.79,87.7,430,92,431.79Zm167-29.1c-2.3-4-4.94-4.26-8-.79.8.7,1.63,2,2.44,2A26.66,26.66,0,0,0,259.08,402.69Zm-193.54-5-3.18.36,3.18,4.42Z" transform="translate(10.22 13.5)"/><path class="cls-1" d="M180.38,209V10.62c6,.63,11.91.92,17.7,1.89,34,5.7,61,23.72,83.41,49.13,24.6,27.87,40.09,60.58,49.94,96.18a284.24,284.24,0,0,1,8.82,46.72,326.35,326.35,0,0,1,1.62,47.22,303.46,303.46,0,0,1-15.58,85.83c-9.45,27.75-22.89,53.35-41.74,75.93-.68.82-1.4,1.6-2.11,2.4l-.73-.12c-.09-1.46-.08-2.93-.29-4.38a7.61,7.61,0,0,1,2.26-6.64c5.6-6.26,8.14-14,9.26-22.13a84.42,84.42,0,0,0-.29-23.33c-.31-2.18-1.36-3.79-3.38-4.35-4.4-1.23-8.83-2.68-13.34-3.2A47.42,47.42,0,0,0,249.72,356c-1.51.72-2.72,2-4.16,2.94a4.13,4.13,0,0,1-2.51.85c-8.18-1.71-16-1-23.33,3.44-.91-1.47-1.74-3-2.77-4.46a9.15,9.15,0,0,0-8-4,11.36,11.36,0,0,1-4.86-1.07c-6.63-3.14-13-.94-16.24,5.76-.53,1.11-.93,2.28-1.52,3.75-.59-.93-1-1.64-1.46-2.29-3-4.16-7-7.33-12.24-6a52.9,52.9,0,0,0-13.49,6.14c-3.33,2-4.43,5.88-5.8,10.14-.11-1.17-.19-1.71-.2-2.25,0-2.18,0-4.37-.05-6.56-.31-7.56-3.69-12.77-10.91-15.87-13.27-5.7-26-4.08-38.67,1.66-5.47,2.49-8,7.17-7.81,13.05s.75,12,1.15,18.07a64.47,64.47,0,0,0-6.71-1.42,69.16,69.16,0,0,0-7.24-.06,48,48,0,0,0,.6-7c-.31-5.42-.79-10.85-1.46-16.24-.34-2.71-2.19-4.49-4.63-5.79-7.3-3.91-15-6.27-23.31-5.66a49.88,49.88,0,0,0-18.19,4.37c-1.59-4.54-3.21-8.95-4.67-13.42a294.33,294.33,0,0,1-12-53.86A311.58,311.58,0,0,1,17,222.07c2.5-42.89,12.54-83.78,33.22-121.7C62.4,78,77.78,58.06,97.61,41.83,115.39,27.28,135.3,17.13,158,12.92c5.7-1.05,11.52-1.46,17.59-2.2v3q0,96.41,0,192.82c0,1.77-.4,2.68-2.16,3.45-4.67,2-6.65,8.63-5.5,13.61.93,4,1.7,8.38-1.43,12.43a31.8,31.8,0,0,0-6.78,17.19A14.19,14.19,0,0,0,165.08,266c6,4.92,15.88,6.41,21.76,2.89,10-6,11.15-13.55,7.15-24.17a31.28,31.28,0,0,0-4.45-7.12c-2.44-3.31-2.66-7.07-2.65-10.92a1.56,1.56,0,0,1,.19-.9c3.14-4,1.07-7.9-.29-11.7A8,8,0,0,0,180.38,209ZM51.29,128c.66.69,1.27,1.83,2.17,2.16,1.72.63,2.66-.65,3.4-2.07,3.75-7.19,7.36-14.46,11.36-21.51A117.3,117.3,0,0,1,91.88,77.51c.69-.62,1.09-2.6.64-3.19a3.67,3.67,0,0,0-3.29-1.08,11.86,11.86,0,0,0-3.87,2.89c-14.48,14.07-24.72,31-33.1,49.22C51.93,126.05,51.73,126.8,51.29,128ZM322.45,331.45c-.56-.62-1.09-1.73-1.84-1.9a3.51,3.51,0,0,0-2.88.72,8.74,8.74,0,0,0-1.69,3.52,175.35,175.35,0,0,1-17.68,41.1q-1.86,3.12-3.54,6.32c-.75,1.43-.61,3,.93,3.56a4.18,4.18,0,0,0,3.41-.85c1-.86,1.53-2.31,2.24-3.52a189.08,189.08,0,0,0,19.73-45C321.47,334.17,321.92,333,322.45,331.45ZM81.25,104.37c.3.39.74,1.56,1.47,1.79a3.39,3.39,0,0,0,2.89-.54,36.57,36.57,0,0,0,4.62-5.76,3.28,3.28,0,0,0,0-2.93A3.11,3.11,0,0,0,87.63,96C85.44,96.29,81.31,101.55,81.25,104.37Z" transform="translate(10.22 13.5)"/><path class="cls-1" d="M220.16,385.14c-1.23,15-6.55,28.18-18.35,38.21a25.57,25.57,0,0,1-13.54,5.88c-4.46.57-8.15-1.29-11.68-3.82-12.16-8.72-17.27-21.06-18.35-35.49-.23-3-.51-6.08-.48-9.11a4.65,4.65,0,0,1,1.42-3.11c6.41-5.64,14.27-7.72,22.5-8.75,7.57-1,15.12-.8,22.44,1.45A79.58,79.58,0,0,1,214.8,375C219,377,221.14,380.21,220.16,385.14Zm-36.93,21.13c2.86-.17,4.83-.12,6.73-.43,6-1,11.23-3.29,14.89-8.33,2.32-3.2,2-6.72-1.09-9.16a17.68,17.68,0,0,0-6-3.41c-9.78-2.67-18.5-.83-25.64,6.79-4.4,4.7-3.44,9.86,2.54,12.24A67.11,67.11,0,0,0,183.23,406.27Zm5.69,5.68c-2.93.95-6,1.6-8.75,2.94-3.72,1.82-4,6.34-.68,8.83a10.38,10.38,0,0,0,4.2,1.81c5.62,1,10.19-1,14-5.14a2.82,2.82,0,0,0,0-4.32C195.34,413.59,192.44,412.47,188.92,412Z" transform="translate(10.22 13.5)"/><path class="cls-1" d="M115.29,409.5c8.92,3.13,10.31,3.15,19.48.21.5,2.76,1.06,5.46,1.46,8.18.92,6.35,4.18,10.76,10.33,12.95a21.9,21.9,0,0,1,12.3,9.87,13.54,13.54,0,0,1,1.78,8.09,2.75,2.75,0,0,1-.26,1.34c-3.31,4.33-4.69,9.43-5.95,15.11-5.24-1.57-10.4-2.88-15.4-4.65a139.91,139.91,0,0,1-40.78-23.22,2.47,2.47,0,0,1-1-3c1.12-4.57,3.58-7.83,8.07-9.57,5.77-2.23,9.07-6.38,9.42-12.7A20.74,20.74,0,0,1,115.29,409.5Z" transform="translate(10.22 13.5)"/><path class="cls-1" d="M148,369.27c-.21,8.22-2.24,16.11-4.44,23.9-3.29,11.69-19,16.81-28.77,9.64a25.28,25.28,0,0,1-8.46-11.26c-4.15-10.3-5.53-21.07-5.14-32.11a7,7,0,0,1,4.29-6.25c12-5.6,24.11-7,36.44-.84a9.72,9.72,0,0,1,5.62,8.51C147.75,363.66,147.83,366.47,148,369.27Zm-21.26-8c-8.47.14-15.17,5.51-16.85,13.49a5.7,5.7,0,0,0,2.21,6.21c7.57,5.61,20.93,4,26.9-3.29a8.17,8.17,0,0,0,.08-10.92A14.67,14.67,0,0,0,126.72,361.28Z" transform="translate(10.22 13.5)"/><path class="cls-1" d="M212.2,463a117,117,0,0,1-52.33,3c1.16-6.7,3.07-12.71,9.21-16.39.87-.52,1.77-1,2.61-1.56,3.84-2.53,6.21-5.86,5.74-10.72-.16-1.62-.26-3.25-.42-5.23,8.1,4.19,15.72,2.52,23.51-1.34.13,1.36.28,2.56.35,3.76.25,4,1.34,7.59,4.72,10,4.47,3.22,6.18,7.62,6.11,13A54.3,54.3,0,0,0,212.2,463Z" transform="translate(10.22 13.5)"/><path class="cls-1" d="M287.48,382.45a18.26,18.26,0,0,0-10.69,3.71c-2.9,2.21-5,4.95-4.12,8.79.8,3.62,3.53,5.34,7.07,5.9-3,5.3-12.73,11.72-20.31,7.62.39-.22.71-.43,1.05-.58,4.47-2,5.43-5.48,2.46-9.38s-7-5.05-11.61-4.56a28.49,28.49,0,0,0-3.08.68,48,48,0,0,1-2.1-16.43,84,84,0,0,1,1.62-12c.57-2.92,2.5-4.81,5.37-6,10.4-4.22,20.92-4.35,31.61-1.39,1.78.5,2.93,1.26,2.91,3.48-.05,6,.15,12,.21,18A11.7,11.7,0,0,1,287.48,382.45Zm-27,4.52c8-.33,12.93-4.36,16.5-10.35a3.36,3.36,0,0,0-.26-2.83,7.7,7.7,0,0,0-2.61-2.56c-7.25-4.37-15.83-1.66-20.1,6.27-2.29,4.24-1.08,7.38,3.5,8.87A21,21,0,0,0,260.46,387Z" transform="translate(10.22 13.5)"/><path class="cls-1" d="M228.39,419.55l10.86-1.06a16.23,16.23,0,0,0,.86,3.59,23.48,23.48,0,0,0,3.37,5.71c1.73,1.93,2.63,3.57,2,6.39-.88,4.24-.93,8.65-1.46,13a3.62,3.62,0,0,1-1.27,2.42A124,124,0,0,1,218.4,461a6.23,6.23,0,0,1-.91.13c-1.1-8-1.7-16-.34-24a8.16,8.16,0,0,1,4.86-6.63C226.81,428.4,228.39,424.27,228.39,419.55Z" transform="translate(10.22 13.5)"/><path class="cls-1" d="M50.66,379.38c3.47-.22,6.7-.05,9.74-.74a21.74,21.74,0,0,0,7.33-3.38c3.8-2.64,4-7.12,1-10.59-6.14-6.94-18-7.72-24.94-1.63-.23.21-.46.4-.93.79-1.66-3.79-3.26-7.43-4.91-11.21,4.32-2.57,9-3.19,13.71-3.88,8.45-1.23,16.23.83,23.52,5a4,4,0,0,1,1.72,2.31c1.88,8,2.44,16.13-.62,23.93-1.27,3.24-3.56,6.17-5.77,8.94-2.8,3.51-7,3.76-11.11,3.71a1.55,1.55,0,0,1-1-.69C55.77,387.81,53.24,383.63,50.66,379.38Z" transform="translate(10.22 13.5)"/><path class="cls-1" d="M173,225.63l9.13.56a20.77,20.77,0,0,1,.3,3.12c-.21,5.05,1.75,9.29,4.85,13.07a19.66,19.66,0,0,1,4.13,11c.66,6.57-5.1,12.66-11.75,12.62-4.31,0-8.38-.55-11.76-3.59a9.68,9.68,0,0,1-3.54-7.55c0-6.15,2.37-11.5,6-16.17a12.44,12.44,0,0,0,2.69-10A25.65,25.65,0,0,1,173,225.63Z" transform="translate(10.22 13.5)"/><path class="cls-1" d="M166.06,444.84c-2.31-9.51-8.39-15.6-17.4-18.86-4.29-1.55-6.53-4.5-7.21-8.91-.54-3.45-1.24-6.87-1.95-10.73,8.84-5.5,10.36-15.22,12.38-25.4.79,6.53,1.12,12.37,2.26,18,2.21,11,6.91,20.82,16,28a4.38,4.38,0,0,1,1.28,2.71c.31,2.31.35,4.66.5,7C172.21,441.14,170.63,443.34,166.06,444.84Z" transform="translate(10.22 13.5)"/><path class="cls-1" d="M86.57,416.49C85.12,409.43,80,406.2,73.85,404c-2-.69-2.81-2-2.86-4.23a7.65,7.65,0,0,1,2.79-6.74c2.56-2.24,4.24-5.49,6.37-8.25A3.75,3.75,0,0,1,82,383.39c5.64-1.26,11,.14,16.11,2.34a1.8,1.8,0,0,1,.86.94c1.26,3.27,3.19,6.49,3.51,9.86.53,5.54-.25,11.11-4.78,15.26A17.85,17.85,0,0,1,86.57,416.49Zm-1.19-23.4c0-2,0-3.78-2.23-4.06-2-.26-2.54,1.24-3.25,2.73-.31.66-1.51.85-2.23,1.35-1,.7-2.37,1.32-2.76,2.3-.57,1.44.63,2.33,2,2.9.64.27,1.08,1,1.66,1.48.73.61,1.49,1.59,2.27,1.62s1.72-.8,2.44-1.43a4.78,4.78,0,0,0,.81-1.63l4.27.2-.5.66c.87,1,1.55,2.59,2.63,2.93,2.3.73,2.9-1.42,3.62-3.13,1.95.27,4.19.89,4.88-1.73s-1.64-2.95-3-3.95c-.44-1.24-.94-2.67-1.92-3.21a3.07,3.07,0,0,0-2.89,1C90,394.25,87.68,393.1,85.38,393.09Z" transform="translate(10.22 13.5)"/><path class="cls-1" d="M249,444.67c1-4.68,1.9-9.4,3.18-14a8.78,8.78,0,0,1,2.94-4.11,11.88,11.88,0,0,0,4.69-10.42,12.81,12.81,0,0,1,.15-1.6c5.79,1.61,11,.1,16.15-2.85.28,3.17-.56,6.38,2.53,8.5a161.66,161.66,0,0,1-28.72,24.9Z" transform="translate(10.22 13.5)"/><path class="cls-1" d="M224.77,394.53c5.8,1.69,11.67,3.45,17.52.05,1.28,3,2.71,5.94,3.7,9,.3.95-.38,2.41-1,3.42-3.88,6.56-13.35,8.89-20.67,5.17-.28-.14-.56-.29-.82-.44-4.08-2.37-4-2.41-2.39-6.74C222.43,401.61,223.53,398.13,224.77,394.53Z" transform="translate(10.22 13.5)"/><path class="cls-1" d="M217,413.84c1.76,1.12,3.41,2.14,5,3.2s1.14,6-.81,7.73a6.14,6.14,0,0,1-1.56,1c-5.23,2.3-7.37,6.64-8,12-.17,1.36-.37,2.72-.58,4.24-2.83-1.74-4.66-3.84-4.76-7.15-.06-2.33-.27-4.66-.34-7a2.23,2.23,0,0,1,.57-1.42c1.86-2,3.91-3.81,5.65-5.89S215.36,416.15,217,413.84Z" transform="translate(10.22 13.5)"/><path class="cls-1" d="M240.47,377.78c.31,3.78.6,7.41.9,11.12-4.8,3.4-9.8,2.32-14.78.4a2.46,2.46,0,0,1-1.11-1.87c-.07-2.31-.07-4.67,2.8-5.59a2,2,0,0,0,1.16-1.11c1.49-4.33,5.05-3.53,8.31-3.4A22.69,22.69,0,0,1,240.47,377.78Z" transform="translate(10.22 13.5)"/><path class="cls-1" d="M223.83,375.21c-1.1-1-2.51-1.6-2.73-2.53a5.06,5.06,0,0,1,.67-4c3.91-4.25,15.12-5.93,20.49-3.29-.43,2.18-.87,4.38-1.36,6.88C234.92,371.27,229.12,371.61,223.83,375.21Z" transform="translate(10.22 13.5)"/><path class="cls-1" d="M45.43,370c3.93-.69,6.66-1.94,8.26-5a1.88,1.88,0,0,1,1.45-.78,13.79,13.79,0,0,1,9.32,3.7c1.38,1.3,1.18,2.35-.27,3.42a14.26,14.26,0,0,1-9,2.59,27.72,27.72,0,0,1-6.92-.91C47.23,372.75,46.56,371.3,45.43,370Z" transform="translate(10.22 13.5)"/><path class="cls-1" d="M192.36,363.15c1.14-4.88,4.82-6.8,9.13-4.65,2.5,1.24,4.86,2.13,7.77,1.66,2.54-.41,6.57,5.06,5.59,7.36-.14.34-1.38.48-2,.31-5.31-1.41-10.58-3-15.9-4.34A25.53,25.53,0,0,0,192.36,363.15Z" transform="translate(10.22 13.5)"/><path class="cls-1" d="M248.73,425.33c-3.59-2.12-4.11-5.57-3.89-9.3a2.11,2.11,0,0,1,.47-1.24c1.64-1.85,3.34-3.65,5-5.48,1.09.8,2.28,1.66,3.46,2.55.3.22.81.55.78.77-.39,2.92.65,6.16-1.71,8.67C251.56,422.7,250.12,424,248.73,425.33Z" transform="translate(10.22 13.5)"/><path class="cls-1" d="M107.39,403.83c2.45,1.18,3.07,2.84,2.44,5.12a16.82,16.82,0,0,0-.33,3c-.32,4-2.55,6.47-6.19,8a73.1,73.1,0,0,0-6.75,3.73c-.23-2.45-.48-4.55,2.43-6.3C103.91,414.48,106.52,409.67,107.39,403.83Z" transform="translate(10.22 13.5)"/><path class="cls-1" d="M183.78,221.67l-11.25-.7c-.57-4.22,1.61-7.23,5.26-7.59S183.66,215.9,183.78,221.67Z" transform="translate(10.22 13.5)"/><path class="cls-1" d="M180.05,363.73c-7.26,1.13-14.27,2.8-20.48,7a7.2,7.2,0,0,1,5.83-6.81,12.49,12.49,0,0,0,5-2.11C173.91,359.07,177.36,359.57,180.05,363.73Z" transform="translate(10.22 13.5)"/><path class="cls-1" d="M69.77,408.43c9,2.55,11.45,5.31,12.54,14.43Z" transform="translate(10.22 13.5)"/><path class="cls-1" d="M278.1,394.15c2-1.93,3.5-3.51,5.15-4.94a15.14,15.14,0,0,1,2.87-1.5c-.51,5.1-1.78,7-4.7,7.52C279.84,395.52,278.45,395.49,278.1,394.15Z" transform="translate(10.22 13.5)"/><path class="cls-1" d="M92,431.79c-4.34-1.83-3.62-6-4.22-9.85l2.74-.6C91.07,425,91.55,428.37,92,431.79Z" transform="translate(10.22 13.5)"/><path class="cls-1" d="M259.08,402.69a26.66,26.66,0,0,1-5.56,1.23c-.81,0-1.64-1.32-2.44-2C254.14,398.43,256.78,398.71,259.08,402.69Z" transform="translate(10.22 13.5)"/><path class="cls-1" d="M65.54,397.7v4.78l-3.18-4.42Z" transform="translate(10.22 13.5)"/><path d="M51.29,128c.44-1.21.64-2,1-2.66,8.38-18.19,18.62-35.15,33.1-49.22a11.86,11.86,0,0,1,3.87-2.89,3.67,3.67,0,0,1,3.29,1.08c.45.59,0,2.57-.64,3.19a117.3,117.3,0,0,0-23.66,29.08c-4,7-7.61,14.32-11.36,21.51-.74,1.42-1.68,2.7-3.4,2.07C52.56,129.84,52,128.7,51.29,128Z" transform="translate(10.22 13.5)"/><path d="M322.45,331.45c-.53,1.56-1,2.72-1.32,3.91a189.08,189.08,0,0,1-19.73,45c-.71,1.21-1.23,2.66-2.24,3.52a4.18,4.18,0,0,1-3.41.85c-1.54-.52-1.68-2.13-.93-3.56q1.68-3.19,3.54-6.32A175.35,175.35,0,0,0,316,333.79a8.74,8.74,0,0,1,1.69-3.52,3.51,3.51,0,0,1,2.88-.72C321.36,329.72,321.89,330.83,322.45,331.45Z" transform="translate(10.22 13.5)"/><path d="M81.25,104.37c.06-2.82,4.19-8.08,6.38-8.36a3.11,3.11,0,0,1,2.57.92,3.28,3.28,0,0,1,0,2.93,36.57,36.57,0,0,1-4.62,5.76,3.39,3.39,0,0,1-2.89.54C82,105.93,81.55,104.76,81.25,104.37Z" transform="translate(10.22 13.5)"/><path d="M183.23,406.27a67.11,67.11,0,0,1-8.6-2.3c-6-2.38-6.94-7.54-2.54-12.24,7.14-7.62,15.86-9.46,25.64-6.79a17.68,17.68,0,0,1,6,3.41c3.05,2.44,3.41,6,1.09,9.16-3.66,5-8.93,7.37-14.89,8.33C188.06,406.15,186.09,406.1,183.23,406.27Zm2.06-5,.15-.55c.7,0,1.41,0,2.11,0a18.72,18.72,0,0,0,12.32-5.44c1.28-1.32,1.35-2.44-.29-3.61-3.1-2.23-6.61-2.58-10.24-2.41a2.19,2.19,0,0,0-1.34.79c-2.8,3.41-6.24,5.24-10.78,5-.76,0-1.72,1.09-2.3,1.9-.15.21.68,1.6,1.27,1.79C179.18,399.73,182.25,400.48,185.29,401.31Z" transform="translate(10.22 13.5)"/><path d="M188.92,412c3.52.52,6.42,1.64,8.73,4.12a2.82,2.82,0,0,1,0,4.32c-3.8,4.15-8.37,6.18-14,5.14a10.38,10.38,0,0,1-4.2-1.81c-3.31-2.49-3-7,.68-8.83C182.91,413.55,186,412.9,188.92,412Zm2.77,6.33a11.28,11.28,0,0,0-8.8,1.22A7.32,7.32,0,0,0,191.69,418.28Z" transform="translate(10.22 13.5)"/><path d="M126.72,361.28a14.67,14.67,0,0,1,12.34,5.49,8.17,8.17,0,0,1-.08,10.92c-6,7.25-19.33,8.9-26.9,3.29a5.7,5.7,0,0,1-2.21-6.21C111.55,366.79,118.25,361.42,126.72,361.28Zm-2.85,18c4.16-.41,7.78-1.6,10.64-4.6,1.72-1.8,1.74-3.1.1-4.89a9.82,9.82,0,0,0-8.2-3.19,1.9,1.9,0,0,0-1.39.88c-1.49,3.44-4.24,4.94-7.76,5.66-.8.17-1.63,1.42-1.93,2.34-.15.46.75,1.68,1.39,1.89C119.05,378.14,121.48,378.65,123.87,379.26Z" transform="translate(10.22 13.5)"/><path d="M260.46,387a21,21,0,0,1-3-.6c-4.58-1.49-5.79-4.63-3.5-8.87,4.27-7.93,12.85-10.64,20.1-6.27a7.7,7.7,0,0,1,2.61,2.56,3.36,3.36,0,0,1,.26,2.83C273.39,382.61,268.45,386.64,260.46,387Zm10.35-11.52c-1.7-.41-3.34-2.06-4.7-.15a9.64,9.64,0,0,1-5.9,3.79,8.6,8.6,0,0,0-2.18,1.52C262.42,382.81,268.81,380.12,270.81,375.45Z" transform="translate(10.22 13.5)"/><path d="M85.38,393.09c2.3,0,4.62,1.16,5.81-2a3.07,3.07,0,0,1,2.89-1c1,.54,1.48,2,1.92,3.21,1.36,1,3.66,1.42,3,3.95s-2.93,2-4.88,1.73c-.72,1.71-1.32,3.86-3.62,3.13-1.08-.34-1.76-1.92-2.63-2.93l.5-.66-4.27-.2a4.78,4.78,0,0,1-.81,1.63c-.72.63-1.64,1.47-2.44,1.43s-1.54-1-2.27-1.62c-.58-.48-1-1.21-1.66-1.48-1.38-.57-2.58-1.46-2-2.9.39-1,1.76-1.6,2.76-2.3.72-.5,1.92-.69,2.23-1.35.71-1.49,1.29-3,3.25-2.73C85.33,389.31,85.37,391.1,85.38,393.09Z" transform="translate(10.22 13.5)"/><path class="cls-1" d="M185.29,401.31c-3-.83-6.11-1.58-9.1-2.55-.59-.19-1.42-1.58-1.27-1.79.58-.81,1.54-1.94,2.3-1.9,4.54.25,8-1.58,10.78-5a2.19,2.19,0,0,1,1.34-.79c3.63-.17,7.14.18,10.24,2.41,1.64,1.17,1.57,2.29.29,3.61a18.72,18.72,0,0,1-12.32,5.44c-.7.05-1.41,0-2.11,0Z" transform="translate(10.22 13.5)"/><path class="cls-1" d="M191.69,418.28a7.32,7.32,0,0,1-8.8,1.22A11.28,11.28,0,0,1,191.69,418.28Z" transform="translate(10.22 13.5)"/><path class="cls-1" d="M123.87,379.26c-2.39-.61-4.82-1.12-7.15-1.91-.64-.21-1.54-1.43-1.39-1.89.3-.92,1.13-2.17,1.93-2.34,3.52-.72,6.27-2.22,7.76-5.66a1.9,1.9,0,0,1,1.39-.88,9.82,9.82,0,0,1,8.2,3.19c1.64,1.79,1.62,3.09-.1,4.89C131.65,377.66,128,378.85,123.87,379.26Z" transform="translate(10.22 13.5)"/><path class="cls-1" d="M270.81,375.45c-2,4.67-8.39,7.36-12.78,5.16a8.6,8.6,0,0,1,2.18-1.52,9.64,9.64,0,0,0,5.9-3.79C267.47,373.39,269.11,375,270.81,375.45Z" transform="translate(10.22 13.5)"/></svg>